M48
; DRILL file {KiCad (6.0.5-0)} date Sunday 01 January 2023 at 23:23:41
; FORMAT={-:-/ absolute / metric / decimal}
; #@! TF.CreationDate,2023-01-01T23:23:41+00:00
; #@! TF.GenerationSoftware,Kicad,Pcbnew,(6.0.5-0)
; #@! TF.FileFunction,Plated,1,2,PTH
FMAT,2
METRIC
; #@! TA.AperFunction,Plated,PTH,ViaDrill
T1C0.400
; #@! TA.AperFunction,Plated,PTH,ViaDrill
T2C1.000
; #@! TA.AperFunction,Plated,PTH,ComponentDrill
T3C1.000
; #@! TA.AperFunction,Plated,PTH,ComponentDrill
T4C1.020
; #@! TA.AperFunction,Plated,PTH,ComponentDrill
T5C1.400
; #@! TA.AperFunction,Plated,PTH,ComponentDrill
T6C3.200
%
G90
G05
T1
X122.428Y-125.222
X124.133Y-119.126
X125.403Y-119.634
X125.403Y-128.778
X126.165Y-120.396
X127.435Y-120.904
X128.451Y-121.666
X130.54Y-125.984
X132.842Y-119.262
X134.112Y-119.322
X134.293Y-128.778
X134.801Y-120.396
X136.071Y-120.904
X137.33Y-121.677
X139.177Y-125.222
X141.659Y-119.126
X143.183Y-119.634
X143.183Y-128.778
X143.945Y-120.396
X144.961Y-120.904
X146.22Y-121.677
X146.87Y-124.837
X148.009Y-132.08
X152.327Y-114.046
X155.629Y-112.776
X156.183Y-111.225
X157.561Y-112.857
X159.004Y-111.252
X165.195Y-137.328
T2
X103.378Y-61.722
X103.378Y-72.644
X103.378Y-83.82
X111.76Y-61.722
X111.76Y-83.566
X111.941Y-72.644
T3
X137.16Y-58.928
X137.16Y-61.468
X137.16Y-64.008
T4
X144.853Y-58.928
X144.853Y-61.468
X144.853Y-64.008
X144.853Y-66.548
X144.853Y-69.088
X144.853Y-71.628
X144.853Y-74.168
X144.853Y-76.708
X144.853Y-79.248
X144.853Y-81.788
X144.853Y-84.328
X144.853Y-86.868
X144.853Y-89.408
X144.853Y-91.948
X144.853Y-94.488
X144.853Y-97.028
X144.853Y-99.568
X144.853Y-102.108
X144.853Y-104.648
X144.853Y-107.188
X151.203Y-106.958
X153.743Y-106.958
X156.283Y-106.958
X162.633Y-58.928
X162.633Y-61.468
X162.633Y-64.008
X162.633Y-66.548
X162.633Y-69.088
X162.633Y-71.628
X162.633Y-74.168
X162.633Y-76.708
X162.633Y-79.248
X162.633Y-81.788
X162.633Y-84.328
X162.633Y-86.868
X162.633Y-89.408
X162.633Y-91.948
X162.633Y-94.488
X162.633Y-97.028
X162.633Y-99.568
X162.633Y-102.108
X162.633Y-104.648
X162.633Y-107.188
T5
X97.03Y-146.026
X97.03Y-152.376
X101.455Y-146.026
X101.455Y-152.376
X105.655Y-146.026
X105.655Y-152.376
X109.855Y-146.026
X109.855Y-152.376
X114.055Y-146.026
X114.055Y-152.376
X118.255Y-146.026
X118.255Y-152.376
X151.855Y-146.026
X151.855Y-152.376
X156.055Y-146.026
X156.055Y-152.376
X160.255Y-146.026
X160.255Y-152.376
X164.455Y-146.026
X164.455Y-152.376
X168.655Y-146.026
X168.655Y-152.376
X173.08Y-146.026
X173.08Y-152.376
T6
X135.055Y-148.006
T0
M30
