%FSLAX45Y45*%
G04 Gerber Fmt 4.5, Leading zero omitted, Abs format (unit mm)*
G04 Created by KiCad (PCBNEW (6.0.5-0)) date 2023-01-01 23:24:14*
%MOMM*%
%LPD*%
G01*
G04 APERTURE LIST*
%TA.AperFunction,Profile*%
%ADD10C,0.200000*%
%TD*%
%ADD11C,0.200000*%
%ADD12C,0.040000*%
%ADD13C,0.100000*%
%ADD14C,0.102000*%
%ADD15C,0.140000*%
%ADD16C,0.320000*%
G04 APERTURE END LIST*
D10*
X17033000Y-5383200D02*
X17633000Y-5883200D01*
X9378000Y-5883200D02*
X9978000Y-5383200D01*
X16121700Y-5383200D02*
X17033000Y-5383200D01*
X17633000Y-5883200D02*
X17633000Y-15443200D01*
X14623100Y-5664200D02*
X14623100Y-5383200D01*
X16121700Y-5383200D02*
X16121700Y-5664200D01*
X14623100Y-5383200D02*
X9978000Y-5383200D01*
X14623100Y-5664200D02*
X16121700Y-5664200D01*
X17633000Y-15443200D02*
X9378000Y-15443200D01*
X9378000Y-5883200D02*
X9378000Y-15443200D01*
D11*
D12*
X12222800Y-12502200D02*
X12262800Y-12542200D01*
X12262800Y-12502200D02*
X12222800Y-12542200D01*
X12393300Y-11892600D02*
X12433300Y-11932600D01*
X12433300Y-11892600D02*
X12393300Y-11932600D01*
X12520300Y-11943400D02*
X12560300Y-11983400D01*
X12560300Y-11943400D02*
X12520300Y-11983400D01*
X12520300Y-12857800D02*
X12560300Y-12897800D01*
X12560300Y-12857800D02*
X12520300Y-12897800D01*
X12596500Y-12019600D02*
X12636500Y-12059600D01*
X12636500Y-12019600D02*
X12596500Y-12059600D01*
X12723500Y-12070400D02*
X12763500Y-12110400D01*
X12763500Y-12070400D02*
X12723500Y-12110400D01*
X12825100Y-12146600D02*
X12865100Y-12186600D01*
X12865100Y-12146600D02*
X12825100Y-12186600D01*
X13034050Y-12578400D02*
X13074050Y-12618400D01*
X13074050Y-12578400D02*
X13034050Y-12618400D01*
X13264200Y-11906198D02*
X13304200Y-11946198D01*
X13304200Y-11906198D02*
X13264200Y-11946198D01*
X13391200Y-11912250D02*
X13431200Y-11952250D01*
X13431200Y-11912250D02*
X13391200Y-11952250D01*
X13409300Y-12857800D02*
X13449300Y-12897800D01*
X13449300Y-12857800D02*
X13409300Y-12897800D01*
X13460100Y-12019600D02*
X13500100Y-12059600D01*
X13500100Y-12019600D02*
X13460100Y-12059600D01*
X13587100Y-12070400D02*
X13627100Y-12110400D01*
X13627100Y-12070400D02*
X13587100Y-12110400D01*
X13713000Y-12147700D02*
X13753000Y-12187700D01*
X13753000Y-12147700D02*
X13713000Y-12187700D01*
X13897650Y-12502200D02*
X13937650Y-12542200D01*
X13937650Y-12502200D02*
X13897650Y-12542200D01*
X14145900Y-11892600D02*
X14185900Y-11932600D01*
X14185900Y-11892600D02*
X14145900Y-11932600D01*
X14298300Y-11943400D02*
X14338300Y-11983400D01*
X14338300Y-11943400D02*
X14298300Y-11983400D01*
X14298300Y-12857800D02*
X14338300Y-12897800D01*
X14338300Y-12857800D02*
X14298300Y-12897800D01*
X14374500Y-12019600D02*
X14414500Y-12059600D01*
X14414500Y-12019600D02*
X14374500Y-12059600D01*
X14476100Y-12070400D02*
X14516100Y-12110400D01*
X14516100Y-12070400D02*
X14476100Y-12110400D01*
X14602000Y-12147700D02*
X14642000Y-12187700D01*
X14642000Y-12147700D02*
X14602000Y-12187700D01*
X14667000Y-12463700D02*
X14707000Y-12503700D01*
X14707000Y-12463700D02*
X14667000Y-12503700D01*
X14780900Y-13188000D02*
X14820900Y-13228000D01*
X14820900Y-13188000D02*
X14780900Y-13228000D01*
X15212700Y-11384600D02*
X15252700Y-11424600D01*
X15252700Y-11384600D02*
X15212700Y-11424600D01*
X15542900Y-11257600D02*
X15582900Y-11297600D01*
X15582900Y-11257600D02*
X15542900Y-11297600D01*
X15598334Y-11102534D02*
X15638334Y-11142534D01*
X15638334Y-11102534D02*
X15598334Y-11142534D01*
X15736066Y-11265666D02*
X15776066Y-11305666D01*
X15776066Y-11265666D02*
X15736066Y-11305666D01*
X15880400Y-11105200D02*
X15920400Y-11145200D01*
X15920400Y-11105200D02*
X15880400Y-11145200D01*
X16499500Y-13712800D02*
X16539500Y-13752800D01*
X16539500Y-13712800D02*
X16499500Y-13752800D01*
D13*
X10387800Y-6172200D02*
G75*
G03*
X10387800Y-6172200I-50000J0D01*
G01*
X10387800Y-7264400D02*
G75*
G03*
X10387800Y-7264400I-50000J0D01*
G01*
X10387800Y-8382000D02*
G75*
G03*
X10387800Y-8382000I-50000J0D01*
G01*
X11226000Y-6172200D02*
G75*
G03*
X11226000Y-6172200I-50000J0D01*
G01*
X11226000Y-8356600D02*
G75*
G03*
X11226000Y-8356600I-50000J0D01*
G01*
X11244100Y-7264400D02*
G75*
G03*
X11244100Y-7264400I-50000J0D01*
G01*
X13716000Y-5842800D02*
X13716000Y-5942800D01*
X13666000Y-5892800D02*
X13766000Y-5892800D01*
X13716000Y-6096800D02*
X13716000Y-6196800D01*
X13666000Y-6146800D02*
X13766000Y-6146800D01*
X13716000Y-6350800D02*
X13716000Y-6450800D01*
X13666000Y-6400800D02*
X13766000Y-6400800D01*
D14*
X14521363Y-5928863D02*
X14521363Y-5856737D01*
X14449237Y-5856737D01*
X14449237Y-5928863D01*
X14521363Y-5928863D01*
X14521363Y-6182863D02*
X14521363Y-6110737D01*
X14449237Y-6110737D01*
X14449237Y-6182863D01*
X14521363Y-6182863D01*
X14521363Y-6436863D02*
X14521363Y-6364737D01*
X14449237Y-6364737D01*
X14449237Y-6436863D01*
X14521363Y-6436863D01*
X14521363Y-6690863D02*
X14521363Y-6618737D01*
X14449237Y-6618737D01*
X14449237Y-6690863D01*
X14521363Y-6690863D01*
X14521363Y-6944863D02*
X14521363Y-6872737D01*
X14449237Y-6872737D01*
X14449237Y-6944863D01*
X14521363Y-6944863D01*
X14521363Y-7198863D02*
X14521363Y-7126737D01*
X14449237Y-7126737D01*
X14449237Y-7198863D01*
X14521363Y-7198863D01*
X14521363Y-7452863D02*
X14521363Y-7380737D01*
X14449237Y-7380737D01*
X14449237Y-7452863D01*
X14521363Y-7452863D01*
X14521363Y-7706863D02*
X14521363Y-7634737D01*
X14449237Y-7634737D01*
X14449237Y-7706863D01*
X14521363Y-7706863D01*
X14521363Y-7960863D02*
X14521363Y-7888737D01*
X14449237Y-7888737D01*
X14449237Y-7960863D01*
X14521363Y-7960863D01*
X14521363Y-8214863D02*
X14521363Y-8142737D01*
X14449237Y-8142737D01*
X14449237Y-8214863D01*
X14521363Y-8214863D01*
X14521363Y-8468863D02*
X14521363Y-8396737D01*
X14449237Y-8396737D01*
X14449237Y-8468863D01*
X14521363Y-8468863D01*
X14521363Y-8722863D02*
X14521363Y-8650737D01*
X14449237Y-8650737D01*
X14449237Y-8722863D01*
X14521363Y-8722863D01*
X14521363Y-8976863D02*
X14521363Y-8904737D01*
X14449237Y-8904737D01*
X14449237Y-8976863D01*
X14521363Y-8976863D01*
X14521363Y-9230863D02*
X14521363Y-9158737D01*
X14449237Y-9158737D01*
X14449237Y-9230863D01*
X14521363Y-9230863D01*
X14521363Y-9484863D02*
X14521363Y-9412737D01*
X14449237Y-9412737D01*
X14449237Y-9484863D01*
X14521363Y-9484863D01*
X14521363Y-9738863D02*
X14521363Y-9666737D01*
X14449237Y-9666737D01*
X14449237Y-9738863D01*
X14521363Y-9738863D01*
X14521363Y-9992863D02*
X14521363Y-9920737D01*
X14449237Y-9920737D01*
X14449237Y-9992863D01*
X14521363Y-9992863D01*
X14521363Y-10246863D02*
X14521363Y-10174737D01*
X14449237Y-10174737D01*
X14449237Y-10246863D01*
X14521363Y-10246863D01*
X14521363Y-10500863D02*
X14521363Y-10428737D01*
X14449237Y-10428737D01*
X14449237Y-10500863D01*
X14521363Y-10500863D01*
X14521363Y-10754863D02*
X14521363Y-10682737D01*
X14449237Y-10682737D01*
X14449237Y-10754863D01*
X14521363Y-10754863D01*
X15156363Y-10731863D02*
X15156363Y-10659737D01*
X15084237Y-10659737D01*
X15084237Y-10731863D01*
X15156363Y-10731863D01*
X15410363Y-10731863D02*
X15410363Y-10659737D01*
X15338237Y-10659737D01*
X15338237Y-10731863D01*
X15410363Y-10731863D01*
X15664363Y-10731863D02*
X15664363Y-10659737D01*
X15592237Y-10659737D01*
X15592237Y-10731863D01*
X15664363Y-10731863D01*
X16299363Y-5928863D02*
X16299363Y-5856737D01*
X16227237Y-5856737D01*
X16227237Y-5928863D01*
X16299363Y-5928863D01*
X16299363Y-6182863D02*
X16299363Y-6110737D01*
X16227237Y-6110737D01*
X16227237Y-6182863D01*
X16299363Y-6182863D01*
X16299363Y-6436863D02*
X16299363Y-6364737D01*
X16227237Y-6364737D01*
X16227237Y-6436863D01*
X16299363Y-6436863D01*
X16299363Y-6690863D02*
X16299363Y-6618737D01*
X16227237Y-6618737D01*
X16227237Y-6690863D01*
X16299363Y-6690863D01*
X16299363Y-6944863D02*
X16299363Y-6872737D01*
X16227237Y-6872737D01*
X16227237Y-6944863D01*
X16299363Y-6944863D01*
X16299363Y-7198863D02*
X16299363Y-7126737D01*
X16227237Y-7126737D01*
X16227237Y-7198863D01*
X16299363Y-7198863D01*
X16299363Y-7452863D02*
X16299363Y-7380737D01*
X16227237Y-7380737D01*
X16227237Y-7452863D01*
X16299363Y-7452863D01*
X16299363Y-7706863D02*
X16299363Y-7634737D01*
X16227237Y-7634737D01*
X16227237Y-7706863D01*
X16299363Y-7706863D01*
X16299363Y-7960863D02*
X16299363Y-7888737D01*
X16227237Y-7888737D01*
X16227237Y-7960863D01*
X16299363Y-7960863D01*
X16299363Y-8214863D02*
X16299363Y-8142737D01*
X16227237Y-8142737D01*
X16227237Y-8214863D01*
X16299363Y-8214863D01*
X16299363Y-8468863D02*
X16299363Y-8396737D01*
X16227237Y-8396737D01*
X16227237Y-8468863D01*
X16299363Y-8468863D01*
X16299363Y-8722863D02*
X16299363Y-8650737D01*
X16227237Y-8650737D01*
X16227237Y-8722863D01*
X16299363Y-8722863D01*
X16299363Y-8976863D02*
X16299363Y-8904737D01*
X16227237Y-8904737D01*
X16227237Y-8976863D01*
X16299363Y-8976863D01*
X16299363Y-9230863D02*
X16299363Y-9158737D01*
X16227237Y-9158737D01*
X16227237Y-9230863D01*
X16299363Y-9230863D01*
X16299363Y-9484863D02*
X16299363Y-9412737D01*
X16227237Y-9412737D01*
X16227237Y-9484863D01*
X16299363Y-9484863D01*
X16299363Y-9738863D02*
X16299363Y-9666737D01*
X16227237Y-9666737D01*
X16227237Y-9738863D01*
X16299363Y-9738863D01*
X16299363Y-9992863D02*
X16299363Y-9920737D01*
X16227237Y-9920737D01*
X16227237Y-9992863D01*
X16299363Y-9992863D01*
X16299363Y-10246863D02*
X16299363Y-10174737D01*
X16227237Y-10174737D01*
X16227237Y-10246863D01*
X16299363Y-10246863D01*
X16299363Y-10500863D02*
X16299363Y-10428737D01*
X16227237Y-10428737D01*
X16227237Y-10500863D01*
X16299363Y-10500863D01*
X16299363Y-10754863D02*
X16299363Y-10682737D01*
X16227237Y-10682737D01*
X16227237Y-10754863D01*
X16299363Y-10754863D01*
D15*
X9703000Y-14672600D02*
X9773000Y-14602600D01*
X9703000Y-14532600D01*
X9633000Y-14602600D01*
X9703000Y-14672600D01*
X9703000Y-15307600D02*
X9773000Y-15237600D01*
X9703000Y-15167600D01*
X9633000Y-15237600D01*
X9703000Y-15307600D01*
X10145500Y-14672600D02*
X10215500Y-14602600D01*
X10145500Y-14532600D01*
X10075500Y-14602600D01*
X10145500Y-14672600D01*
X10145500Y-15307600D02*
X10215500Y-15237600D01*
X10145500Y-15167600D01*
X10075500Y-15237600D01*
X10145500Y-15307600D01*
X10565500Y-14672600D02*
X10635500Y-14602600D01*
X10565500Y-14532600D01*
X10495500Y-14602600D01*
X10565500Y-14672600D01*
X10565500Y-15307600D02*
X10635500Y-15237600D01*
X10565500Y-15167600D01*
X10495500Y-15237600D01*
X10565500Y-15307600D01*
X10985500Y-14672600D02*
X11055500Y-14602600D01*
X10985500Y-14532600D01*
X10915500Y-14602600D01*
X10985500Y-14672600D01*
X10985500Y-15307600D02*
X11055500Y-15237600D01*
X10985500Y-15167600D01*
X10915500Y-15237600D01*
X10985500Y-15307600D01*
X11405500Y-14672600D02*
X11475500Y-14602600D01*
X11405500Y-14532600D01*
X11335500Y-14602600D01*
X11405500Y-14672600D01*
X11405500Y-15307600D02*
X11475500Y-15237600D01*
X11405500Y-15167600D01*
X11335500Y-15237600D01*
X11405500Y-15307600D01*
X11825500Y-14672600D02*
X11895500Y-14602600D01*
X11825500Y-14532600D01*
X11755500Y-14602600D01*
X11825500Y-14672600D01*
X11825500Y-15307600D02*
X11895500Y-15237600D01*
X11825500Y-15167600D01*
X11755500Y-15237600D01*
X11825500Y-15307600D01*
X15185500Y-14672600D02*
X15255500Y-14602600D01*
X15185500Y-14532600D01*
X15115500Y-14602600D01*
X15185500Y-14672600D01*
X15185500Y-15307600D02*
X15255500Y-15237600D01*
X15185500Y-15167600D01*
X15115500Y-15237600D01*
X15185500Y-15307600D01*
X15605500Y-14672600D02*
X15675500Y-14602600D01*
X15605500Y-14532600D01*
X15535500Y-14602600D01*
X15605500Y-14672600D01*
X15605500Y-15307600D02*
X15675500Y-15237600D01*
X15605500Y-15167600D01*
X15535500Y-15237600D01*
X15605500Y-15307600D01*
X16025500Y-14672600D02*
X16095500Y-14602600D01*
X16025500Y-14532600D01*
X15955500Y-14602600D01*
X16025500Y-14672600D01*
X16025500Y-15307600D02*
X16095500Y-15237600D01*
X16025500Y-15167600D01*
X15955500Y-15237600D01*
X16025500Y-15307600D01*
X16445500Y-14672600D02*
X16515500Y-14602600D01*
X16445500Y-14532600D01*
X16375500Y-14602600D01*
X16445500Y-14672600D01*
X16445500Y-15307600D02*
X16515500Y-15237600D01*
X16445500Y-15167600D01*
X16375500Y-15237600D01*
X16445500Y-15307600D01*
X16865500Y-14672600D02*
X16935500Y-14602600D01*
X16865500Y-14532600D01*
X16795500Y-14602600D01*
X16865500Y-14672600D01*
X16865500Y-15307600D02*
X16935500Y-15237600D01*
X16865500Y-15167600D01*
X16795500Y-15237600D01*
X16865500Y-15307600D01*
X17308000Y-14672600D02*
X17378000Y-14602600D01*
X17308000Y-14532600D01*
X17238000Y-14602600D01*
X17308000Y-14672600D01*
X17308000Y-15307600D02*
X17378000Y-15237600D01*
X17308000Y-15167600D01*
X17238000Y-15237600D01*
X17308000Y-15307600D01*
D16*
X13345500Y-14640600D02*
X13665500Y-14960600D01*
X13665500Y-14640600D02*
X13345500Y-14960600D01*
X13665500Y-14800600D02*
G75*
G03*
X13665500Y-14800600I-160000J0D01*
G01*
D11*
X9625619Y-15763676D02*
X9625619Y-15563676D01*
X9673238Y-15563676D01*
X9701810Y-15573200D01*
X9720857Y-15592248D01*
X9730381Y-15611295D01*
X9739905Y-15649390D01*
X9739905Y-15677962D01*
X9730381Y-15716057D01*
X9720857Y-15735105D01*
X9701810Y-15754152D01*
X9673238Y-15763676D01*
X9625619Y-15763676D01*
X9825619Y-15763676D02*
X9825619Y-15630343D01*
X9825619Y-15668438D02*
X9835143Y-15649390D01*
X9844667Y-15639867D01*
X9863714Y-15630343D01*
X9882762Y-15630343D01*
X9949429Y-15763676D02*
X9949429Y-15630343D01*
X9949429Y-15563676D02*
X9939905Y-15573200D01*
X9949429Y-15582724D01*
X9958952Y-15573200D01*
X9949429Y-15563676D01*
X9949429Y-15582724D01*
X10073238Y-15763676D02*
X10054190Y-15754152D01*
X10044667Y-15735105D01*
X10044667Y-15563676D01*
X10178000Y-15763676D02*
X10158952Y-15754152D01*
X10149429Y-15735105D01*
X10149429Y-15563676D01*
X10406571Y-15763676D02*
X10406571Y-15563676D01*
X10473238Y-15706533D01*
X10539905Y-15563676D01*
X10539905Y-15763676D01*
X10720857Y-15763676D02*
X10720857Y-15658914D01*
X10711333Y-15639867D01*
X10692286Y-15630343D01*
X10654190Y-15630343D01*
X10635143Y-15639867D01*
X10720857Y-15754152D02*
X10701810Y-15763676D01*
X10654190Y-15763676D01*
X10635143Y-15754152D01*
X10625619Y-15735105D01*
X10625619Y-15716057D01*
X10635143Y-15697009D01*
X10654190Y-15687486D01*
X10701810Y-15687486D01*
X10720857Y-15677962D01*
X10816095Y-15630343D02*
X10816095Y-15830343D01*
X10816095Y-15639867D02*
X10835143Y-15630343D01*
X10873238Y-15630343D01*
X10892286Y-15639867D01*
X10901810Y-15649390D01*
X10911333Y-15668438D01*
X10911333Y-15725581D01*
X10901810Y-15744628D01*
X10892286Y-15754152D01*
X10873238Y-15763676D01*
X10835143Y-15763676D01*
X10816095Y-15754152D01*
X10997048Y-15744628D02*
X11006571Y-15754152D01*
X10997048Y-15763676D01*
X10987524Y-15754152D01*
X10997048Y-15744628D01*
X10997048Y-15763676D01*
X10997048Y-15639867D02*
X11006571Y-15649390D01*
X10997048Y-15658914D01*
X10987524Y-15649390D01*
X10997048Y-15639867D01*
X10997048Y-15658914D01*
D12*
X9328000Y-16073200D02*
X9368000Y-16113200D01*
X9368000Y-16073200D02*
X9328000Y-16113200D01*
D11*
X9663714Y-15983676D02*
X9682762Y-15983676D01*
X9701810Y-15993200D01*
X9711333Y-16002724D01*
X9720857Y-16021771D01*
X9730381Y-16059867D01*
X9730381Y-16107486D01*
X9720857Y-16145581D01*
X9711333Y-16164628D01*
X9701810Y-16174152D01*
X9682762Y-16183676D01*
X9663714Y-16183676D01*
X9644667Y-16174152D01*
X9635143Y-16164628D01*
X9625619Y-16145581D01*
X9616095Y-16107486D01*
X9616095Y-16059867D01*
X9625619Y-16021771D01*
X9635143Y-16002724D01*
X9644667Y-15993200D01*
X9663714Y-15983676D01*
X9816095Y-16164628D02*
X9825619Y-16174152D01*
X9816095Y-16183676D01*
X9806571Y-16174152D01*
X9816095Y-16164628D01*
X9816095Y-16183676D01*
X9997048Y-16050343D02*
X9997048Y-16183676D01*
X9949429Y-15974152D02*
X9901810Y-16117009D01*
X10025619Y-16117009D01*
X10139905Y-15983676D02*
X10158952Y-15983676D01*
X10178000Y-15993200D01*
X10187524Y-16002724D01*
X10197048Y-16021771D01*
X10206571Y-16059867D01*
X10206571Y-16107486D01*
X10197048Y-16145581D01*
X10187524Y-16164628D01*
X10178000Y-16174152D01*
X10158952Y-16183676D01*
X10139905Y-16183676D01*
X10120857Y-16174152D01*
X10111333Y-16164628D01*
X10101810Y-16145581D01*
X10092286Y-16107486D01*
X10092286Y-16059867D01*
X10101810Y-16021771D01*
X10111333Y-16002724D01*
X10120857Y-15993200D01*
X10139905Y-15983676D01*
X10330381Y-15983676D02*
X10349429Y-15983676D01*
X10368476Y-15993200D01*
X10378000Y-16002724D01*
X10387524Y-16021771D01*
X10397048Y-16059867D01*
X10397048Y-16107486D01*
X10387524Y-16145581D01*
X10378000Y-16164628D01*
X10368476Y-16174152D01*
X10349429Y-16183676D01*
X10330381Y-16183676D01*
X10311333Y-16174152D01*
X10301810Y-16164628D01*
X10292286Y-16145581D01*
X10282762Y-16107486D01*
X10282762Y-16059867D01*
X10292286Y-16021771D01*
X10301810Y-16002724D01*
X10311333Y-15993200D01*
X10330381Y-15983676D01*
X10482762Y-16183676D02*
X10482762Y-16050343D01*
X10482762Y-16069390D02*
X10492286Y-16059867D01*
X10511333Y-16050343D01*
X10539905Y-16050343D01*
X10558952Y-16059867D01*
X10568476Y-16078914D01*
X10568476Y-16183676D01*
X10568476Y-16078914D02*
X10578000Y-16059867D01*
X10597048Y-16050343D01*
X10625619Y-16050343D01*
X10644667Y-16059867D01*
X10654190Y-16078914D01*
X10654190Y-16183676D01*
X10749429Y-16183676D02*
X10749429Y-16050343D01*
X10749429Y-16069390D02*
X10758952Y-16059867D01*
X10778000Y-16050343D01*
X10806571Y-16050343D01*
X10825619Y-16059867D01*
X10835143Y-16078914D01*
X10835143Y-16183676D01*
X10835143Y-16078914D02*
X10844667Y-16059867D01*
X10863714Y-16050343D01*
X10892286Y-16050343D01*
X10911333Y-16059867D01*
X10920857Y-16078914D01*
X10920857Y-16183676D01*
X11311333Y-15974152D02*
X11139905Y-16231295D01*
X11568476Y-15983676D02*
X11587524Y-15983676D01*
X11606571Y-15993200D01*
X11616095Y-16002724D01*
X11625619Y-16021771D01*
X11635143Y-16059867D01*
X11635143Y-16107486D01*
X11625619Y-16145581D01*
X11616095Y-16164628D01*
X11606571Y-16174152D01*
X11587524Y-16183676D01*
X11568476Y-16183676D01*
X11549428Y-16174152D01*
X11539905Y-16164628D01*
X11530381Y-16145581D01*
X11520857Y-16107486D01*
X11520857Y-16059867D01*
X11530381Y-16021771D01*
X11539905Y-16002724D01*
X11549428Y-15993200D01*
X11568476Y-15983676D01*
X11720857Y-16164628D02*
X11730381Y-16174152D01*
X11720857Y-16183676D01*
X11711333Y-16174152D01*
X11720857Y-16164628D01*
X11720857Y-16183676D01*
X11854190Y-15983676D02*
X11873238Y-15983676D01*
X11892286Y-15993200D01*
X11901809Y-16002724D01*
X11911333Y-16021771D01*
X11920857Y-16059867D01*
X11920857Y-16107486D01*
X11911333Y-16145581D01*
X11901809Y-16164628D01*
X11892286Y-16174152D01*
X11873238Y-16183676D01*
X11854190Y-16183676D01*
X11835143Y-16174152D01*
X11825619Y-16164628D01*
X11816095Y-16145581D01*
X11806571Y-16107486D01*
X11806571Y-16059867D01*
X11816095Y-16021771D01*
X11825619Y-16002724D01*
X11835143Y-15993200D01*
X11854190Y-15983676D01*
X12111333Y-16183676D02*
X11997048Y-16183676D01*
X12054190Y-16183676D02*
X12054190Y-15983676D01*
X12035143Y-16012248D01*
X12016095Y-16031295D01*
X11997048Y-16040819D01*
X12292286Y-15983676D02*
X12197048Y-15983676D01*
X12187524Y-16078914D01*
X12197048Y-16069390D01*
X12216095Y-16059867D01*
X12263714Y-16059867D01*
X12282762Y-16069390D01*
X12292286Y-16078914D01*
X12301809Y-16097962D01*
X12301809Y-16145581D01*
X12292286Y-16164628D01*
X12282762Y-16174152D01*
X12263714Y-16183676D01*
X12216095Y-16183676D01*
X12197048Y-16174152D01*
X12187524Y-16164628D01*
X12368476Y-15983676D02*
X12501809Y-15983676D01*
X12416095Y-16183676D01*
X12568476Y-15983676D02*
X12568476Y-16021771D01*
X12644667Y-15983676D02*
X12644667Y-16021771D01*
X12939905Y-16259867D02*
X12930381Y-16250343D01*
X12911333Y-16221771D01*
X12901809Y-16202724D01*
X12892286Y-16174152D01*
X12882762Y-16126533D01*
X12882762Y-16088438D01*
X12892286Y-16040819D01*
X12901809Y-16012248D01*
X12911333Y-15993200D01*
X12930381Y-15964628D01*
X12939905Y-15955105D01*
X13006571Y-16002724D02*
X13016095Y-15993200D01*
X13035143Y-15983676D01*
X13082762Y-15983676D01*
X13101809Y-15993200D01*
X13111333Y-16002724D01*
X13120857Y-16021771D01*
X13120857Y-16040819D01*
X13111333Y-16069390D01*
X12997048Y-16183676D01*
X13120857Y-16183676D01*
X13216095Y-16183676D02*
X13254190Y-16183676D01*
X13273238Y-16174152D01*
X13282762Y-16164628D01*
X13301809Y-16136057D01*
X13311333Y-16097962D01*
X13311333Y-16021771D01*
X13301809Y-16002724D01*
X13292286Y-15993200D01*
X13273238Y-15983676D01*
X13235143Y-15983676D01*
X13216095Y-15993200D01*
X13206571Y-16002724D01*
X13197048Y-16021771D01*
X13197048Y-16069390D01*
X13206571Y-16088438D01*
X13216095Y-16097962D01*
X13235143Y-16107486D01*
X13273238Y-16107486D01*
X13292286Y-16097962D01*
X13301809Y-16088438D01*
X13311333Y-16069390D01*
X13549428Y-16183676D02*
X13549428Y-15983676D01*
X13635143Y-16183676D02*
X13635143Y-16078914D01*
X13625619Y-16059867D01*
X13606571Y-16050343D01*
X13578000Y-16050343D01*
X13558952Y-16059867D01*
X13549428Y-16069390D01*
X13758952Y-16183676D02*
X13739905Y-16174152D01*
X13730381Y-16164628D01*
X13720857Y-16145581D01*
X13720857Y-16088438D01*
X13730381Y-16069390D01*
X13739905Y-16059867D01*
X13758952Y-16050343D01*
X13787524Y-16050343D01*
X13806571Y-16059867D01*
X13816095Y-16069390D01*
X13825619Y-16088438D01*
X13825619Y-16145581D01*
X13816095Y-16164628D01*
X13806571Y-16174152D01*
X13787524Y-16183676D01*
X13758952Y-16183676D01*
X13939905Y-16183676D02*
X13920857Y-16174152D01*
X13911333Y-16155105D01*
X13911333Y-15983676D01*
X14092286Y-16174152D02*
X14073238Y-16183676D01*
X14035143Y-16183676D01*
X14016095Y-16174152D01*
X14006571Y-16155105D01*
X14006571Y-16078914D01*
X14016095Y-16059867D01*
X14035143Y-16050343D01*
X14073238Y-16050343D01*
X14092286Y-16059867D01*
X14101809Y-16078914D01*
X14101809Y-16097962D01*
X14006571Y-16117009D01*
X14178000Y-16174152D02*
X14197048Y-16183676D01*
X14235143Y-16183676D01*
X14254190Y-16174152D01*
X14263714Y-16155105D01*
X14263714Y-16145581D01*
X14254190Y-16126533D01*
X14235143Y-16117009D01*
X14206571Y-16117009D01*
X14187524Y-16107486D01*
X14178000Y-16088438D01*
X14178000Y-16078914D01*
X14187524Y-16059867D01*
X14206571Y-16050343D01*
X14235143Y-16050343D01*
X14254190Y-16059867D01*
X14330381Y-16259867D02*
X14339905Y-16250343D01*
X14358952Y-16221771D01*
X14368476Y-16202724D01*
X14378000Y-16174152D01*
X14387524Y-16126533D01*
X14387524Y-16088438D01*
X14378000Y-16040819D01*
X14368476Y-16012248D01*
X14358952Y-15993200D01*
X14339905Y-15964628D01*
X14330381Y-15955105D01*
D13*
X9368000Y-16357200D02*
G75*
G03*
X9368000Y-16357200I-50000J0D01*
G01*
D11*
X9730381Y-16447676D02*
X9616095Y-16447676D01*
X9673238Y-16447676D02*
X9673238Y-16247676D01*
X9654190Y-16276248D01*
X9635143Y-16295295D01*
X9616095Y-16304819D01*
X9816095Y-16428628D02*
X9825619Y-16438152D01*
X9816095Y-16447676D01*
X9806571Y-16438152D01*
X9816095Y-16428628D01*
X9816095Y-16447676D01*
X9949429Y-16247676D02*
X9968476Y-16247676D01*
X9987524Y-16257200D01*
X9997048Y-16266724D01*
X10006571Y-16285771D01*
X10016095Y-16323867D01*
X10016095Y-16371486D01*
X10006571Y-16409581D01*
X9997048Y-16428628D01*
X9987524Y-16438152D01*
X9968476Y-16447676D01*
X9949429Y-16447676D01*
X9930381Y-16438152D01*
X9920857Y-16428628D01*
X9911333Y-16409581D01*
X9901810Y-16371486D01*
X9901810Y-16323867D01*
X9911333Y-16285771D01*
X9920857Y-16266724D01*
X9930381Y-16257200D01*
X9949429Y-16247676D01*
X10139905Y-16247676D02*
X10158952Y-16247676D01*
X10178000Y-16257200D01*
X10187524Y-16266724D01*
X10197048Y-16285771D01*
X10206571Y-16323867D01*
X10206571Y-16371486D01*
X10197048Y-16409581D01*
X10187524Y-16428628D01*
X10178000Y-16438152D01*
X10158952Y-16447676D01*
X10139905Y-16447676D01*
X10120857Y-16438152D01*
X10111333Y-16428628D01*
X10101810Y-16409581D01*
X10092286Y-16371486D01*
X10092286Y-16323867D01*
X10101810Y-16285771D01*
X10111333Y-16266724D01*
X10120857Y-16257200D01*
X10139905Y-16247676D01*
X10330381Y-16247676D02*
X10349429Y-16247676D01*
X10368476Y-16257200D01*
X10378000Y-16266724D01*
X10387524Y-16285771D01*
X10397048Y-16323867D01*
X10397048Y-16371486D01*
X10387524Y-16409581D01*
X10378000Y-16428628D01*
X10368476Y-16438152D01*
X10349429Y-16447676D01*
X10330381Y-16447676D01*
X10311333Y-16438152D01*
X10301810Y-16428628D01*
X10292286Y-16409581D01*
X10282762Y-16371486D01*
X10282762Y-16323867D01*
X10292286Y-16285771D01*
X10301810Y-16266724D01*
X10311333Y-16257200D01*
X10330381Y-16247676D01*
X10482762Y-16447676D02*
X10482762Y-16314343D01*
X10482762Y-16333390D02*
X10492286Y-16323867D01*
X10511333Y-16314343D01*
X10539905Y-16314343D01*
X10558952Y-16323867D01*
X10568476Y-16342914D01*
X10568476Y-16447676D01*
X10568476Y-16342914D02*
X10578000Y-16323867D01*
X10597048Y-16314343D01*
X10625619Y-16314343D01*
X10644667Y-16323867D01*
X10654190Y-16342914D01*
X10654190Y-16447676D01*
X10749429Y-16447676D02*
X10749429Y-16314343D01*
X10749429Y-16333390D02*
X10758952Y-16323867D01*
X10778000Y-16314343D01*
X10806571Y-16314343D01*
X10825619Y-16323867D01*
X10835143Y-16342914D01*
X10835143Y-16447676D01*
X10835143Y-16342914D02*
X10844667Y-16323867D01*
X10863714Y-16314343D01*
X10892286Y-16314343D01*
X10911333Y-16323867D01*
X10920857Y-16342914D01*
X10920857Y-16447676D01*
X11311333Y-16238152D02*
X11139905Y-16495295D01*
X11568476Y-16247676D02*
X11587524Y-16247676D01*
X11606571Y-16257200D01*
X11616095Y-16266724D01*
X11625619Y-16285771D01*
X11635143Y-16323867D01*
X11635143Y-16371486D01*
X11625619Y-16409581D01*
X11616095Y-16428628D01*
X11606571Y-16438152D01*
X11587524Y-16447676D01*
X11568476Y-16447676D01*
X11549428Y-16438152D01*
X11539905Y-16428628D01*
X11530381Y-16409581D01*
X11520857Y-16371486D01*
X11520857Y-16323867D01*
X11530381Y-16285771D01*
X11539905Y-16266724D01*
X11549428Y-16257200D01*
X11568476Y-16247676D01*
X11720857Y-16428628D02*
X11730381Y-16438152D01*
X11720857Y-16447676D01*
X11711333Y-16438152D01*
X11720857Y-16428628D01*
X11720857Y-16447676D01*
X11854190Y-16247676D02*
X11873238Y-16247676D01*
X11892286Y-16257200D01*
X11901809Y-16266724D01*
X11911333Y-16285771D01*
X11920857Y-16323867D01*
X11920857Y-16371486D01*
X11911333Y-16409581D01*
X11901809Y-16428628D01*
X11892286Y-16438152D01*
X11873238Y-16447676D01*
X11854190Y-16447676D01*
X11835143Y-16438152D01*
X11825619Y-16428628D01*
X11816095Y-16409581D01*
X11806571Y-16371486D01*
X11806571Y-16323867D01*
X11816095Y-16285771D01*
X11825619Y-16266724D01*
X11835143Y-16257200D01*
X11854190Y-16247676D01*
X11987524Y-16247676D02*
X12111333Y-16247676D01*
X12044667Y-16323867D01*
X12073238Y-16323867D01*
X12092286Y-16333390D01*
X12101809Y-16342914D01*
X12111333Y-16361962D01*
X12111333Y-16409581D01*
X12101809Y-16428628D01*
X12092286Y-16438152D01*
X12073238Y-16447676D01*
X12016095Y-16447676D01*
X11997048Y-16438152D01*
X11987524Y-16428628D01*
X12206571Y-16447676D02*
X12244667Y-16447676D01*
X12263714Y-16438152D01*
X12273238Y-16428628D01*
X12292286Y-16400057D01*
X12301809Y-16361962D01*
X12301809Y-16285771D01*
X12292286Y-16266724D01*
X12282762Y-16257200D01*
X12263714Y-16247676D01*
X12225619Y-16247676D01*
X12206571Y-16257200D01*
X12197048Y-16266724D01*
X12187524Y-16285771D01*
X12187524Y-16333390D01*
X12197048Y-16352438D01*
X12206571Y-16361962D01*
X12225619Y-16371486D01*
X12263714Y-16371486D01*
X12282762Y-16361962D01*
X12292286Y-16352438D01*
X12301809Y-16333390D01*
X12473238Y-16314343D02*
X12473238Y-16447676D01*
X12425619Y-16238152D02*
X12378000Y-16381009D01*
X12501809Y-16381009D01*
X12568476Y-16247676D02*
X12568476Y-16285771D01*
X12644667Y-16247676D02*
X12644667Y-16285771D01*
X12939905Y-16523867D02*
X12930381Y-16514343D01*
X12911333Y-16485771D01*
X12901809Y-16466724D01*
X12892286Y-16438152D01*
X12882762Y-16390533D01*
X12882762Y-16352438D01*
X12892286Y-16304819D01*
X12901809Y-16276248D01*
X12911333Y-16257200D01*
X12930381Y-16228628D01*
X12939905Y-16219105D01*
X13101809Y-16247676D02*
X13063714Y-16247676D01*
X13044667Y-16257200D01*
X13035143Y-16266724D01*
X13016095Y-16295295D01*
X13006571Y-16333390D01*
X13006571Y-16409581D01*
X13016095Y-16428628D01*
X13025619Y-16438152D01*
X13044667Y-16447676D01*
X13082762Y-16447676D01*
X13101809Y-16438152D01*
X13111333Y-16428628D01*
X13120857Y-16409581D01*
X13120857Y-16361962D01*
X13111333Y-16342914D01*
X13101809Y-16333390D01*
X13082762Y-16323867D01*
X13044667Y-16323867D01*
X13025619Y-16333390D01*
X13016095Y-16342914D01*
X13006571Y-16361962D01*
X13358952Y-16447676D02*
X13358952Y-16247676D01*
X13444667Y-16447676D02*
X13444667Y-16342914D01*
X13435143Y-16323867D01*
X13416095Y-16314343D01*
X13387524Y-16314343D01*
X13368476Y-16323867D01*
X13358952Y-16333390D01*
X13568476Y-16447676D02*
X13549428Y-16438152D01*
X13539905Y-16428628D01*
X13530381Y-16409581D01*
X13530381Y-16352438D01*
X13539905Y-16333390D01*
X13549428Y-16323867D01*
X13568476Y-16314343D01*
X13597048Y-16314343D01*
X13616095Y-16323867D01*
X13625619Y-16333390D01*
X13635143Y-16352438D01*
X13635143Y-16409581D01*
X13625619Y-16428628D01*
X13616095Y-16438152D01*
X13597048Y-16447676D01*
X13568476Y-16447676D01*
X13749428Y-16447676D02*
X13730381Y-16438152D01*
X13720857Y-16419105D01*
X13720857Y-16247676D01*
X13901809Y-16438152D02*
X13882762Y-16447676D01*
X13844667Y-16447676D01*
X13825619Y-16438152D01*
X13816095Y-16419105D01*
X13816095Y-16342914D01*
X13825619Y-16323867D01*
X13844667Y-16314343D01*
X13882762Y-16314343D01*
X13901809Y-16323867D01*
X13911333Y-16342914D01*
X13911333Y-16361962D01*
X13816095Y-16381009D01*
X13987524Y-16438152D02*
X14006571Y-16447676D01*
X14044667Y-16447676D01*
X14063714Y-16438152D01*
X14073238Y-16419105D01*
X14073238Y-16409581D01*
X14063714Y-16390533D01*
X14044667Y-16381009D01*
X14016095Y-16381009D01*
X13997048Y-16371486D01*
X13987524Y-16352438D01*
X13987524Y-16342914D01*
X13997048Y-16323867D01*
X14016095Y-16314343D01*
X14044667Y-16314343D01*
X14063714Y-16323867D01*
X14139905Y-16523867D02*
X14149428Y-16514343D01*
X14168476Y-16485771D01*
X14178000Y-16466724D01*
X14187524Y-16438152D01*
X14197048Y-16390533D01*
X14197048Y-16352438D01*
X14187524Y-16304819D01*
X14178000Y-16276248D01*
X14168476Y-16257200D01*
X14149428Y-16228628D01*
X14139905Y-16219105D01*
D13*
X9318000Y-16571200D02*
X9318000Y-16671200D01*
X9268000Y-16621200D02*
X9368000Y-16621200D01*
D11*
X9730381Y-16711676D02*
X9616095Y-16711676D01*
X9673238Y-16711676D02*
X9673238Y-16511676D01*
X9654190Y-16540248D01*
X9635143Y-16559295D01*
X9616095Y-16568819D01*
X9816095Y-16692628D02*
X9825619Y-16702152D01*
X9816095Y-16711676D01*
X9806571Y-16702152D01*
X9816095Y-16692628D01*
X9816095Y-16711676D01*
X9949429Y-16511676D02*
X9968476Y-16511676D01*
X9987524Y-16521200D01*
X9997048Y-16530724D01*
X10006571Y-16549771D01*
X10016095Y-16587867D01*
X10016095Y-16635486D01*
X10006571Y-16673581D01*
X9997048Y-16692628D01*
X9987524Y-16702152D01*
X9968476Y-16711676D01*
X9949429Y-16711676D01*
X9930381Y-16702152D01*
X9920857Y-16692628D01*
X9911333Y-16673581D01*
X9901810Y-16635486D01*
X9901810Y-16587867D01*
X9911333Y-16549771D01*
X9920857Y-16530724D01*
X9930381Y-16521200D01*
X9949429Y-16511676D01*
X10139905Y-16511676D02*
X10158952Y-16511676D01*
X10178000Y-16521200D01*
X10187524Y-16530724D01*
X10197048Y-16549771D01*
X10206571Y-16587867D01*
X10206571Y-16635486D01*
X10197048Y-16673581D01*
X10187524Y-16692628D01*
X10178000Y-16702152D01*
X10158952Y-16711676D01*
X10139905Y-16711676D01*
X10120857Y-16702152D01*
X10111333Y-16692628D01*
X10101810Y-16673581D01*
X10092286Y-16635486D01*
X10092286Y-16587867D01*
X10101810Y-16549771D01*
X10111333Y-16530724D01*
X10120857Y-16521200D01*
X10139905Y-16511676D01*
X10330381Y-16511676D02*
X10349429Y-16511676D01*
X10368476Y-16521200D01*
X10378000Y-16530724D01*
X10387524Y-16549771D01*
X10397048Y-16587867D01*
X10397048Y-16635486D01*
X10387524Y-16673581D01*
X10378000Y-16692628D01*
X10368476Y-16702152D01*
X10349429Y-16711676D01*
X10330381Y-16711676D01*
X10311333Y-16702152D01*
X10301810Y-16692628D01*
X10292286Y-16673581D01*
X10282762Y-16635486D01*
X10282762Y-16587867D01*
X10292286Y-16549771D01*
X10301810Y-16530724D01*
X10311333Y-16521200D01*
X10330381Y-16511676D01*
X10482762Y-16711676D02*
X10482762Y-16578343D01*
X10482762Y-16597390D02*
X10492286Y-16587867D01*
X10511333Y-16578343D01*
X10539905Y-16578343D01*
X10558952Y-16587867D01*
X10568476Y-16606914D01*
X10568476Y-16711676D01*
X10568476Y-16606914D02*
X10578000Y-16587867D01*
X10597048Y-16578343D01*
X10625619Y-16578343D01*
X10644667Y-16587867D01*
X10654190Y-16606914D01*
X10654190Y-16711676D01*
X10749429Y-16711676D02*
X10749429Y-16578343D01*
X10749429Y-16597390D02*
X10758952Y-16587867D01*
X10778000Y-16578343D01*
X10806571Y-16578343D01*
X10825619Y-16587867D01*
X10835143Y-16606914D01*
X10835143Y-16711676D01*
X10835143Y-16606914D02*
X10844667Y-16587867D01*
X10863714Y-16578343D01*
X10892286Y-16578343D01*
X10911333Y-16587867D01*
X10920857Y-16606914D01*
X10920857Y-16711676D01*
X11311333Y-16502152D02*
X11139905Y-16759295D01*
X11568476Y-16511676D02*
X11587524Y-16511676D01*
X11606571Y-16521200D01*
X11616095Y-16530724D01*
X11625619Y-16549771D01*
X11635143Y-16587867D01*
X11635143Y-16635486D01*
X11625619Y-16673581D01*
X11616095Y-16692628D01*
X11606571Y-16702152D01*
X11587524Y-16711676D01*
X11568476Y-16711676D01*
X11549428Y-16702152D01*
X11539905Y-16692628D01*
X11530381Y-16673581D01*
X11520857Y-16635486D01*
X11520857Y-16587867D01*
X11530381Y-16549771D01*
X11539905Y-16530724D01*
X11549428Y-16521200D01*
X11568476Y-16511676D01*
X11720857Y-16692628D02*
X11730381Y-16702152D01*
X11720857Y-16711676D01*
X11711333Y-16702152D01*
X11720857Y-16692628D01*
X11720857Y-16711676D01*
X11854190Y-16511676D02*
X11873238Y-16511676D01*
X11892286Y-16521200D01*
X11901809Y-16530724D01*
X11911333Y-16549771D01*
X11920857Y-16587867D01*
X11920857Y-16635486D01*
X11911333Y-16673581D01*
X11901809Y-16692628D01*
X11892286Y-16702152D01*
X11873238Y-16711676D01*
X11854190Y-16711676D01*
X11835143Y-16702152D01*
X11825619Y-16692628D01*
X11816095Y-16673581D01*
X11806571Y-16635486D01*
X11806571Y-16587867D01*
X11816095Y-16549771D01*
X11825619Y-16530724D01*
X11835143Y-16521200D01*
X11854190Y-16511676D01*
X11987524Y-16511676D02*
X12111333Y-16511676D01*
X12044667Y-16587867D01*
X12073238Y-16587867D01*
X12092286Y-16597390D01*
X12101809Y-16606914D01*
X12111333Y-16625962D01*
X12111333Y-16673581D01*
X12101809Y-16692628D01*
X12092286Y-16702152D01*
X12073238Y-16711676D01*
X12016095Y-16711676D01*
X11997048Y-16702152D01*
X11987524Y-16692628D01*
X12206571Y-16711676D02*
X12244667Y-16711676D01*
X12263714Y-16702152D01*
X12273238Y-16692628D01*
X12292286Y-16664057D01*
X12301809Y-16625962D01*
X12301809Y-16549771D01*
X12292286Y-16530724D01*
X12282762Y-16521200D01*
X12263714Y-16511676D01*
X12225619Y-16511676D01*
X12206571Y-16521200D01*
X12197048Y-16530724D01*
X12187524Y-16549771D01*
X12187524Y-16597390D01*
X12197048Y-16616438D01*
X12206571Y-16625962D01*
X12225619Y-16635486D01*
X12263714Y-16635486D01*
X12282762Y-16625962D01*
X12292286Y-16616438D01*
X12301809Y-16597390D01*
X12473238Y-16578343D02*
X12473238Y-16711676D01*
X12425619Y-16502152D02*
X12378000Y-16645009D01*
X12501809Y-16645009D01*
X12568476Y-16511676D02*
X12568476Y-16549771D01*
X12644667Y-16511676D02*
X12644667Y-16549771D01*
X12939905Y-16787867D02*
X12930381Y-16778343D01*
X12911333Y-16749771D01*
X12901809Y-16730724D01*
X12892286Y-16702152D01*
X12882762Y-16654533D01*
X12882762Y-16616438D01*
X12892286Y-16568819D01*
X12901809Y-16540248D01*
X12911333Y-16521200D01*
X12930381Y-16492628D01*
X12939905Y-16483105D01*
X12997048Y-16511676D02*
X13120857Y-16511676D01*
X13054190Y-16587867D01*
X13082762Y-16587867D01*
X13101809Y-16597390D01*
X13111333Y-16606914D01*
X13120857Y-16625962D01*
X13120857Y-16673581D01*
X13111333Y-16692628D01*
X13101809Y-16702152D01*
X13082762Y-16711676D01*
X13025619Y-16711676D01*
X13006571Y-16702152D01*
X12997048Y-16692628D01*
X13358952Y-16711676D02*
X13358952Y-16511676D01*
X13444667Y-16711676D02*
X13444667Y-16606914D01*
X13435143Y-16587867D01*
X13416095Y-16578343D01*
X13387524Y-16578343D01*
X13368476Y-16587867D01*
X13358952Y-16597390D01*
X13568476Y-16711676D02*
X13549428Y-16702152D01*
X13539905Y-16692628D01*
X13530381Y-16673581D01*
X13530381Y-16616438D01*
X13539905Y-16597390D01*
X13549428Y-16587867D01*
X13568476Y-16578343D01*
X13597048Y-16578343D01*
X13616095Y-16587867D01*
X13625619Y-16597390D01*
X13635143Y-16616438D01*
X13635143Y-16673581D01*
X13625619Y-16692628D01*
X13616095Y-16702152D01*
X13597048Y-16711676D01*
X13568476Y-16711676D01*
X13749428Y-16711676D02*
X13730381Y-16702152D01*
X13720857Y-16683105D01*
X13720857Y-16511676D01*
X13901809Y-16702152D02*
X13882762Y-16711676D01*
X13844667Y-16711676D01*
X13825619Y-16702152D01*
X13816095Y-16683105D01*
X13816095Y-16606914D01*
X13825619Y-16587867D01*
X13844667Y-16578343D01*
X13882762Y-16578343D01*
X13901809Y-16587867D01*
X13911333Y-16606914D01*
X13911333Y-16625962D01*
X13816095Y-16645009D01*
X13987524Y-16702152D02*
X14006571Y-16711676D01*
X14044667Y-16711676D01*
X14063714Y-16702152D01*
X14073238Y-16683105D01*
X14073238Y-16673581D01*
X14063714Y-16654533D01*
X14044667Y-16645009D01*
X14016095Y-16645009D01*
X13997048Y-16635486D01*
X13987524Y-16616438D01*
X13987524Y-16606914D01*
X13997048Y-16587867D01*
X14016095Y-16578343D01*
X14044667Y-16578343D01*
X14063714Y-16587867D01*
X14139905Y-16787867D02*
X14149428Y-16778343D01*
X14168476Y-16749771D01*
X14178000Y-16730724D01*
X14187524Y-16702152D01*
X14197048Y-16654533D01*
X14197048Y-16616438D01*
X14187524Y-16568819D01*
X14178000Y-16540248D01*
X14168476Y-16521200D01*
X14149428Y-16492628D01*
X14139905Y-16483105D01*
D14*
X9353063Y-16921263D02*
X9353063Y-16849137D01*
X9280937Y-16849137D01*
X9280937Y-16921263D01*
X9353063Y-16921263D01*
D11*
X9730381Y-16975676D02*
X9616095Y-16975676D01*
X9673238Y-16975676D02*
X9673238Y-16775676D01*
X9654190Y-16804248D01*
X9635143Y-16823295D01*
X9616095Y-16832819D01*
X9816095Y-16956629D02*
X9825619Y-16966152D01*
X9816095Y-16975676D01*
X9806571Y-16966152D01*
X9816095Y-16956629D01*
X9816095Y-16975676D01*
X9949429Y-16775676D02*
X9968476Y-16775676D01*
X9987524Y-16785200D01*
X9997048Y-16794724D01*
X10006571Y-16813771D01*
X10016095Y-16851867D01*
X10016095Y-16899486D01*
X10006571Y-16937581D01*
X9997048Y-16956629D01*
X9987524Y-16966152D01*
X9968476Y-16975676D01*
X9949429Y-16975676D01*
X9930381Y-16966152D01*
X9920857Y-16956629D01*
X9911333Y-16937581D01*
X9901810Y-16899486D01*
X9901810Y-16851867D01*
X9911333Y-16813771D01*
X9920857Y-16794724D01*
X9930381Y-16785200D01*
X9949429Y-16775676D01*
X10092286Y-16794724D02*
X10101810Y-16785200D01*
X10120857Y-16775676D01*
X10168476Y-16775676D01*
X10187524Y-16785200D01*
X10197048Y-16794724D01*
X10206571Y-16813771D01*
X10206571Y-16832819D01*
X10197048Y-16861390D01*
X10082762Y-16975676D01*
X10206571Y-16975676D01*
X10330381Y-16775676D02*
X10349429Y-16775676D01*
X10368476Y-16785200D01*
X10378000Y-16794724D01*
X10387524Y-16813771D01*
X10397048Y-16851867D01*
X10397048Y-16899486D01*
X10387524Y-16937581D01*
X10378000Y-16956629D01*
X10368476Y-16966152D01*
X10349429Y-16975676D01*
X10330381Y-16975676D01*
X10311333Y-16966152D01*
X10301810Y-16956629D01*
X10292286Y-16937581D01*
X10282762Y-16899486D01*
X10282762Y-16851867D01*
X10292286Y-16813771D01*
X10301810Y-16794724D01*
X10311333Y-16785200D01*
X10330381Y-16775676D01*
X10482762Y-16975676D02*
X10482762Y-16842343D01*
X10482762Y-16861390D02*
X10492286Y-16851867D01*
X10511333Y-16842343D01*
X10539905Y-16842343D01*
X10558952Y-16851867D01*
X10568476Y-16870914D01*
X10568476Y-16975676D01*
X10568476Y-16870914D02*
X10578000Y-16851867D01*
X10597048Y-16842343D01*
X10625619Y-16842343D01*
X10644667Y-16851867D01*
X10654190Y-16870914D01*
X10654190Y-16975676D01*
X10749429Y-16975676D02*
X10749429Y-16842343D01*
X10749429Y-16861390D02*
X10758952Y-16851867D01*
X10778000Y-16842343D01*
X10806571Y-16842343D01*
X10825619Y-16851867D01*
X10835143Y-16870914D01*
X10835143Y-16975676D01*
X10835143Y-16870914D02*
X10844667Y-16851867D01*
X10863714Y-16842343D01*
X10892286Y-16842343D01*
X10911333Y-16851867D01*
X10920857Y-16870914D01*
X10920857Y-16975676D01*
X11311333Y-16766152D02*
X11139905Y-17023295D01*
X11568476Y-16775676D02*
X11587524Y-16775676D01*
X11606571Y-16785200D01*
X11616095Y-16794724D01*
X11625619Y-16813771D01*
X11635143Y-16851867D01*
X11635143Y-16899486D01*
X11625619Y-16937581D01*
X11616095Y-16956629D01*
X11606571Y-16966152D01*
X11587524Y-16975676D01*
X11568476Y-16975676D01*
X11549428Y-16966152D01*
X11539905Y-16956629D01*
X11530381Y-16937581D01*
X11520857Y-16899486D01*
X11520857Y-16851867D01*
X11530381Y-16813771D01*
X11539905Y-16794724D01*
X11549428Y-16785200D01*
X11568476Y-16775676D01*
X11720857Y-16956629D02*
X11730381Y-16966152D01*
X11720857Y-16975676D01*
X11711333Y-16966152D01*
X11720857Y-16956629D01*
X11720857Y-16975676D01*
X11854190Y-16775676D02*
X11873238Y-16775676D01*
X11892286Y-16785200D01*
X11901809Y-16794724D01*
X11911333Y-16813771D01*
X11920857Y-16851867D01*
X11920857Y-16899486D01*
X11911333Y-16937581D01*
X11901809Y-16956629D01*
X11892286Y-16966152D01*
X11873238Y-16975676D01*
X11854190Y-16975676D01*
X11835143Y-16966152D01*
X11825619Y-16956629D01*
X11816095Y-16937581D01*
X11806571Y-16899486D01*
X11806571Y-16851867D01*
X11816095Y-16813771D01*
X11825619Y-16794724D01*
X11835143Y-16785200D01*
X11854190Y-16775676D01*
X12092286Y-16842343D02*
X12092286Y-16975676D01*
X12044667Y-16766152D02*
X11997048Y-16909010D01*
X12120857Y-16909010D01*
X12235143Y-16775676D02*
X12254190Y-16775676D01*
X12273238Y-16785200D01*
X12282762Y-16794724D01*
X12292286Y-16813771D01*
X12301809Y-16851867D01*
X12301809Y-16899486D01*
X12292286Y-16937581D01*
X12282762Y-16956629D01*
X12273238Y-16966152D01*
X12254190Y-16975676D01*
X12235143Y-16975676D01*
X12216095Y-16966152D01*
X12206571Y-16956629D01*
X12197048Y-16937581D01*
X12187524Y-16899486D01*
X12187524Y-16851867D01*
X12197048Y-16813771D01*
X12206571Y-16794724D01*
X12216095Y-16785200D01*
X12235143Y-16775676D01*
X12378000Y-16794724D02*
X12387524Y-16785200D01*
X12406571Y-16775676D01*
X12454190Y-16775676D01*
X12473238Y-16785200D01*
X12482762Y-16794724D01*
X12492286Y-16813771D01*
X12492286Y-16832819D01*
X12482762Y-16861390D01*
X12368476Y-16975676D01*
X12492286Y-16975676D01*
X12568476Y-16775676D02*
X12568476Y-16813771D01*
X12644667Y-16775676D02*
X12644667Y-16813771D01*
X12939905Y-17051867D02*
X12930381Y-17042343D01*
X12911333Y-17013771D01*
X12901809Y-16994724D01*
X12892286Y-16966152D01*
X12882762Y-16918533D01*
X12882762Y-16880438D01*
X12892286Y-16832819D01*
X12901809Y-16804248D01*
X12911333Y-16785200D01*
X12930381Y-16756628D01*
X12939905Y-16747105D01*
X13101809Y-16842343D02*
X13101809Y-16975676D01*
X13054190Y-16766152D02*
X13006571Y-16909010D01*
X13130381Y-16909010D01*
X13187524Y-16775676D02*
X13311333Y-16775676D01*
X13244667Y-16851867D01*
X13273238Y-16851867D01*
X13292286Y-16861390D01*
X13301809Y-16870914D01*
X13311333Y-16889962D01*
X13311333Y-16937581D01*
X13301809Y-16956629D01*
X13292286Y-16966152D01*
X13273238Y-16975676D01*
X13216095Y-16975676D01*
X13197048Y-16966152D01*
X13187524Y-16956629D01*
X13549428Y-16975676D02*
X13549428Y-16775676D01*
X13635143Y-16975676D02*
X13635143Y-16870914D01*
X13625619Y-16851867D01*
X13606571Y-16842343D01*
X13578000Y-16842343D01*
X13558952Y-16851867D01*
X13549428Y-16861390D01*
X13758952Y-16975676D02*
X13739905Y-16966152D01*
X13730381Y-16956629D01*
X13720857Y-16937581D01*
X13720857Y-16880438D01*
X13730381Y-16861390D01*
X13739905Y-16851867D01*
X13758952Y-16842343D01*
X13787524Y-16842343D01*
X13806571Y-16851867D01*
X13816095Y-16861390D01*
X13825619Y-16880438D01*
X13825619Y-16937581D01*
X13816095Y-16956629D01*
X13806571Y-16966152D01*
X13787524Y-16975676D01*
X13758952Y-16975676D01*
X13939905Y-16975676D02*
X13920857Y-16966152D01*
X13911333Y-16947105D01*
X13911333Y-16775676D01*
X14092286Y-16966152D02*
X14073238Y-16975676D01*
X14035143Y-16975676D01*
X14016095Y-16966152D01*
X14006571Y-16947105D01*
X14006571Y-16870914D01*
X14016095Y-16851867D01*
X14035143Y-16842343D01*
X14073238Y-16842343D01*
X14092286Y-16851867D01*
X14101809Y-16870914D01*
X14101809Y-16889962D01*
X14006571Y-16909010D01*
X14178000Y-16966152D02*
X14197048Y-16975676D01*
X14235143Y-16975676D01*
X14254190Y-16966152D01*
X14263714Y-16947105D01*
X14263714Y-16937581D01*
X14254190Y-16918533D01*
X14235143Y-16909010D01*
X14206571Y-16909010D01*
X14187524Y-16899486D01*
X14178000Y-16880438D01*
X14178000Y-16870914D01*
X14187524Y-16851867D01*
X14206571Y-16842343D01*
X14235143Y-16842343D01*
X14254190Y-16851867D01*
X14330381Y-17051867D02*
X14339905Y-17042343D01*
X14358952Y-17013771D01*
X14368476Y-16994724D01*
X14378000Y-16966152D01*
X14387524Y-16918533D01*
X14387524Y-16880438D01*
X14378000Y-16832819D01*
X14368476Y-16804248D01*
X14358952Y-16785200D01*
X14339905Y-16756628D01*
X14330381Y-16747105D01*
D15*
X9298000Y-17219200D02*
X9368000Y-17149200D01*
X9298000Y-17079200D01*
X9228000Y-17149200D01*
X9298000Y-17219200D01*
D11*
X9730381Y-17239676D02*
X9616095Y-17239676D01*
X9673238Y-17239676D02*
X9673238Y-17039676D01*
X9654190Y-17068248D01*
X9635143Y-17087295D01*
X9616095Y-17096819D01*
X9816095Y-17220629D02*
X9825619Y-17230152D01*
X9816095Y-17239676D01*
X9806571Y-17230152D01*
X9816095Y-17220629D01*
X9816095Y-17239676D01*
X9997048Y-17106343D02*
X9997048Y-17239676D01*
X9949429Y-17030152D02*
X9901810Y-17173010D01*
X10025619Y-17173010D01*
X10139905Y-17039676D02*
X10158952Y-17039676D01*
X10178000Y-17049200D01*
X10187524Y-17058724D01*
X10197048Y-17077771D01*
X10206571Y-17115867D01*
X10206571Y-17163486D01*
X10197048Y-17201581D01*
X10187524Y-17220629D01*
X10178000Y-17230152D01*
X10158952Y-17239676D01*
X10139905Y-17239676D01*
X10120857Y-17230152D01*
X10111333Y-17220629D01*
X10101810Y-17201581D01*
X10092286Y-17163486D01*
X10092286Y-17115867D01*
X10101810Y-17077771D01*
X10111333Y-17058724D01*
X10120857Y-17049200D01*
X10139905Y-17039676D01*
X10330381Y-17039676D02*
X10349429Y-17039676D01*
X10368476Y-17049200D01*
X10378000Y-17058724D01*
X10387524Y-17077771D01*
X10397048Y-17115867D01*
X10397048Y-17163486D01*
X10387524Y-17201581D01*
X10378000Y-17220629D01*
X10368476Y-17230152D01*
X10349429Y-17239676D01*
X10330381Y-17239676D01*
X10311333Y-17230152D01*
X10301810Y-17220629D01*
X10292286Y-17201581D01*
X10282762Y-17163486D01*
X10282762Y-17115867D01*
X10292286Y-17077771D01*
X10301810Y-17058724D01*
X10311333Y-17049200D01*
X10330381Y-17039676D01*
X10482762Y-17239676D02*
X10482762Y-17106343D01*
X10482762Y-17125390D02*
X10492286Y-17115867D01*
X10511333Y-17106343D01*
X10539905Y-17106343D01*
X10558952Y-17115867D01*
X10568476Y-17134914D01*
X10568476Y-17239676D01*
X10568476Y-17134914D02*
X10578000Y-17115867D01*
X10597048Y-17106343D01*
X10625619Y-17106343D01*
X10644667Y-17115867D01*
X10654190Y-17134914D01*
X10654190Y-17239676D01*
X10749429Y-17239676D02*
X10749429Y-17106343D01*
X10749429Y-17125390D02*
X10758952Y-17115867D01*
X10778000Y-17106343D01*
X10806571Y-17106343D01*
X10825619Y-17115867D01*
X10835143Y-17134914D01*
X10835143Y-17239676D01*
X10835143Y-17134914D02*
X10844667Y-17115867D01*
X10863714Y-17106343D01*
X10892286Y-17106343D01*
X10911333Y-17115867D01*
X10920857Y-17134914D01*
X10920857Y-17239676D01*
X11311333Y-17030152D02*
X11139905Y-17287295D01*
X11568476Y-17039676D02*
X11587524Y-17039676D01*
X11606571Y-17049200D01*
X11616095Y-17058724D01*
X11625619Y-17077771D01*
X11635143Y-17115867D01*
X11635143Y-17163486D01*
X11625619Y-17201581D01*
X11616095Y-17220629D01*
X11606571Y-17230152D01*
X11587524Y-17239676D01*
X11568476Y-17239676D01*
X11549428Y-17230152D01*
X11539905Y-17220629D01*
X11530381Y-17201581D01*
X11520857Y-17163486D01*
X11520857Y-17115867D01*
X11530381Y-17077771D01*
X11539905Y-17058724D01*
X11549428Y-17049200D01*
X11568476Y-17039676D01*
X11720857Y-17220629D02*
X11730381Y-17230152D01*
X11720857Y-17239676D01*
X11711333Y-17230152D01*
X11720857Y-17220629D01*
X11720857Y-17239676D01*
X11854190Y-17039676D02*
X11873238Y-17039676D01*
X11892286Y-17049200D01*
X11901809Y-17058724D01*
X11911333Y-17077771D01*
X11920857Y-17115867D01*
X11920857Y-17163486D01*
X11911333Y-17201581D01*
X11901809Y-17220629D01*
X11892286Y-17230152D01*
X11873238Y-17239676D01*
X11854190Y-17239676D01*
X11835143Y-17230152D01*
X11825619Y-17220629D01*
X11816095Y-17201581D01*
X11806571Y-17163486D01*
X11806571Y-17115867D01*
X11816095Y-17077771D01*
X11825619Y-17058724D01*
X11835143Y-17049200D01*
X11854190Y-17039676D01*
X12101809Y-17039676D02*
X12006571Y-17039676D01*
X11997048Y-17134914D01*
X12006571Y-17125390D01*
X12025619Y-17115867D01*
X12073238Y-17115867D01*
X12092286Y-17125390D01*
X12101809Y-17134914D01*
X12111333Y-17153962D01*
X12111333Y-17201581D01*
X12101809Y-17220629D01*
X12092286Y-17230152D01*
X12073238Y-17239676D01*
X12025619Y-17239676D01*
X12006571Y-17230152D01*
X11997048Y-17220629D01*
X12292286Y-17039676D02*
X12197048Y-17039676D01*
X12187524Y-17134914D01*
X12197048Y-17125390D01*
X12216095Y-17115867D01*
X12263714Y-17115867D01*
X12282762Y-17125390D01*
X12292286Y-17134914D01*
X12301809Y-17153962D01*
X12301809Y-17201581D01*
X12292286Y-17220629D01*
X12282762Y-17230152D01*
X12263714Y-17239676D01*
X12216095Y-17239676D01*
X12197048Y-17230152D01*
X12187524Y-17220629D01*
X12492286Y-17239676D02*
X12378000Y-17239676D01*
X12435143Y-17239676D02*
X12435143Y-17039676D01*
X12416095Y-17068248D01*
X12397048Y-17087295D01*
X12378000Y-17096819D01*
X12568476Y-17039676D02*
X12568476Y-17077771D01*
X12644667Y-17039676D02*
X12644667Y-17077771D01*
X12939905Y-17315867D02*
X12930381Y-17306343D01*
X12911333Y-17277771D01*
X12901809Y-17258724D01*
X12892286Y-17230152D01*
X12882762Y-17182533D01*
X12882762Y-17144438D01*
X12892286Y-17096819D01*
X12901809Y-17068248D01*
X12911333Y-17049200D01*
X12930381Y-17020629D01*
X12939905Y-17011105D01*
X13006571Y-17058724D02*
X13016095Y-17049200D01*
X13035143Y-17039676D01*
X13082762Y-17039676D01*
X13101809Y-17049200D01*
X13111333Y-17058724D01*
X13120857Y-17077771D01*
X13120857Y-17096819D01*
X13111333Y-17125390D01*
X12997048Y-17239676D01*
X13120857Y-17239676D01*
X13292286Y-17106343D02*
X13292286Y-17239676D01*
X13244667Y-17030152D02*
X13197048Y-17173010D01*
X13320857Y-17173010D01*
X13549428Y-17239676D02*
X13549428Y-17039676D01*
X13635143Y-17239676D02*
X13635143Y-17134914D01*
X13625619Y-17115867D01*
X13606571Y-17106343D01*
X13578000Y-17106343D01*
X13558952Y-17115867D01*
X13549428Y-17125390D01*
X13758952Y-17239676D02*
X13739905Y-17230152D01*
X13730381Y-17220629D01*
X13720857Y-17201581D01*
X13720857Y-17144438D01*
X13730381Y-17125390D01*
X13739905Y-17115867D01*
X13758952Y-17106343D01*
X13787524Y-17106343D01*
X13806571Y-17115867D01*
X13816095Y-17125390D01*
X13825619Y-17144438D01*
X13825619Y-17201581D01*
X13816095Y-17220629D01*
X13806571Y-17230152D01*
X13787524Y-17239676D01*
X13758952Y-17239676D01*
X13939905Y-17239676D02*
X13920857Y-17230152D01*
X13911333Y-17211105D01*
X13911333Y-17039676D01*
X14092286Y-17230152D02*
X14073238Y-17239676D01*
X14035143Y-17239676D01*
X14016095Y-17230152D01*
X14006571Y-17211105D01*
X14006571Y-17134914D01*
X14016095Y-17115867D01*
X14035143Y-17106343D01*
X14073238Y-17106343D01*
X14092286Y-17115867D01*
X14101809Y-17134914D01*
X14101809Y-17153962D01*
X14006571Y-17173010D01*
X14178000Y-17230152D02*
X14197048Y-17239676D01*
X14235143Y-17239676D01*
X14254190Y-17230152D01*
X14263714Y-17211105D01*
X14263714Y-17201581D01*
X14254190Y-17182533D01*
X14235143Y-17173010D01*
X14206571Y-17173010D01*
X14187524Y-17163486D01*
X14178000Y-17144438D01*
X14178000Y-17134914D01*
X14187524Y-17115867D01*
X14206571Y-17106343D01*
X14235143Y-17106343D01*
X14254190Y-17115867D01*
X14330381Y-17315867D02*
X14339905Y-17306343D01*
X14358952Y-17277771D01*
X14368476Y-17258724D01*
X14378000Y-17230152D01*
X14387524Y-17182533D01*
X14387524Y-17144438D01*
X14378000Y-17096819D01*
X14368476Y-17068248D01*
X14358952Y-17049200D01*
X14339905Y-17020629D01*
X14330381Y-17011105D01*
X9168000Y-17313200D02*
X9368000Y-17513200D01*
X9368000Y-17313200D02*
X9168000Y-17513200D01*
X9368000Y-17413200D02*
G75*
G03*
X9368000Y-17413200I-100000J0D01*
G01*
X9606571Y-17303676D02*
X9730381Y-17303676D01*
X9663714Y-17379867D01*
X9692286Y-17379867D01*
X9711333Y-17389390D01*
X9720857Y-17398914D01*
X9730381Y-17417962D01*
X9730381Y-17465581D01*
X9720857Y-17484629D01*
X9711333Y-17494152D01*
X9692286Y-17503676D01*
X9635143Y-17503676D01*
X9616095Y-17494152D01*
X9606571Y-17484629D01*
X9816095Y-17484629D02*
X9825619Y-17494152D01*
X9816095Y-17503676D01*
X9806571Y-17494152D01*
X9816095Y-17484629D01*
X9816095Y-17503676D01*
X9901810Y-17322724D02*
X9911333Y-17313200D01*
X9930381Y-17303676D01*
X9978000Y-17303676D01*
X9997048Y-17313200D01*
X10006571Y-17322724D01*
X10016095Y-17341771D01*
X10016095Y-17360819D01*
X10006571Y-17389390D01*
X9892286Y-17503676D01*
X10016095Y-17503676D01*
X10139905Y-17303676D02*
X10158952Y-17303676D01*
X10178000Y-17313200D01*
X10187524Y-17322724D01*
X10197048Y-17341771D01*
X10206571Y-17379867D01*
X10206571Y-17427486D01*
X10197048Y-17465581D01*
X10187524Y-17484629D01*
X10178000Y-17494152D01*
X10158952Y-17503676D01*
X10139905Y-17503676D01*
X10120857Y-17494152D01*
X10111333Y-17484629D01*
X10101810Y-17465581D01*
X10092286Y-17427486D01*
X10092286Y-17379867D01*
X10101810Y-17341771D01*
X10111333Y-17322724D01*
X10120857Y-17313200D01*
X10139905Y-17303676D01*
X10330381Y-17303676D02*
X10349429Y-17303676D01*
X10368476Y-17313200D01*
X10378000Y-17322724D01*
X10387524Y-17341771D01*
X10397048Y-17379867D01*
X10397048Y-17427486D01*
X10387524Y-17465581D01*
X10378000Y-17484629D01*
X10368476Y-17494152D01*
X10349429Y-17503676D01*
X10330381Y-17503676D01*
X10311333Y-17494152D01*
X10301810Y-17484629D01*
X10292286Y-17465581D01*
X10282762Y-17427486D01*
X10282762Y-17379867D01*
X10292286Y-17341771D01*
X10301810Y-17322724D01*
X10311333Y-17313200D01*
X10330381Y-17303676D01*
X10482762Y-17503676D02*
X10482762Y-17370343D01*
X10482762Y-17389390D02*
X10492286Y-17379867D01*
X10511333Y-17370343D01*
X10539905Y-17370343D01*
X10558952Y-17379867D01*
X10568476Y-17398914D01*
X10568476Y-17503676D01*
X10568476Y-17398914D02*
X10578000Y-17379867D01*
X10597048Y-17370343D01*
X10625619Y-17370343D01*
X10644667Y-17379867D01*
X10654190Y-17398914D01*
X10654190Y-17503676D01*
X10749429Y-17503676D02*
X10749429Y-17370343D01*
X10749429Y-17389390D02*
X10758952Y-17379867D01*
X10778000Y-17370343D01*
X10806571Y-17370343D01*
X10825619Y-17379867D01*
X10835143Y-17398914D01*
X10835143Y-17503676D01*
X10835143Y-17398914D02*
X10844667Y-17379867D01*
X10863714Y-17370343D01*
X10892286Y-17370343D01*
X10911333Y-17379867D01*
X10920857Y-17398914D01*
X10920857Y-17503676D01*
X11311333Y-17294152D02*
X11139905Y-17551295D01*
X11568476Y-17303676D02*
X11587524Y-17303676D01*
X11606571Y-17313200D01*
X11616095Y-17322724D01*
X11625619Y-17341771D01*
X11635143Y-17379867D01*
X11635143Y-17427486D01*
X11625619Y-17465581D01*
X11616095Y-17484629D01*
X11606571Y-17494152D01*
X11587524Y-17503676D01*
X11568476Y-17503676D01*
X11549428Y-17494152D01*
X11539905Y-17484629D01*
X11530381Y-17465581D01*
X11520857Y-17427486D01*
X11520857Y-17379867D01*
X11530381Y-17341771D01*
X11539905Y-17322724D01*
X11549428Y-17313200D01*
X11568476Y-17303676D01*
X11720857Y-17484629D02*
X11730381Y-17494152D01*
X11720857Y-17503676D01*
X11711333Y-17494152D01*
X11720857Y-17484629D01*
X11720857Y-17503676D01*
X11920857Y-17503676D02*
X11806571Y-17503676D01*
X11863714Y-17503676D02*
X11863714Y-17303676D01*
X11844667Y-17332248D01*
X11825619Y-17351295D01*
X11806571Y-17360819D01*
X11997048Y-17322724D02*
X12006571Y-17313200D01*
X12025619Y-17303676D01*
X12073238Y-17303676D01*
X12092286Y-17313200D01*
X12101809Y-17322724D01*
X12111333Y-17341771D01*
X12111333Y-17360819D01*
X12101809Y-17389390D01*
X11987524Y-17503676D01*
X12111333Y-17503676D01*
X12282762Y-17303676D02*
X12244667Y-17303676D01*
X12225619Y-17313200D01*
X12216095Y-17322724D01*
X12197048Y-17351295D01*
X12187524Y-17389390D01*
X12187524Y-17465581D01*
X12197048Y-17484629D01*
X12206571Y-17494152D01*
X12225619Y-17503676D01*
X12263714Y-17503676D01*
X12282762Y-17494152D01*
X12292286Y-17484629D01*
X12301809Y-17465581D01*
X12301809Y-17417962D01*
X12292286Y-17398914D01*
X12282762Y-17389390D01*
X12263714Y-17379867D01*
X12225619Y-17379867D01*
X12206571Y-17389390D01*
X12197048Y-17398914D01*
X12187524Y-17417962D01*
X12425619Y-17303676D02*
X12444667Y-17303676D01*
X12463714Y-17313200D01*
X12473238Y-17322724D01*
X12482762Y-17341771D01*
X12492286Y-17379867D01*
X12492286Y-17427486D01*
X12482762Y-17465581D01*
X12473238Y-17484629D01*
X12463714Y-17494152D01*
X12444667Y-17503676D01*
X12425619Y-17503676D01*
X12406571Y-17494152D01*
X12397048Y-17484629D01*
X12387524Y-17465581D01*
X12378000Y-17427486D01*
X12378000Y-17379867D01*
X12387524Y-17341771D01*
X12397048Y-17322724D01*
X12406571Y-17313200D01*
X12425619Y-17303676D01*
X12568476Y-17303676D02*
X12568476Y-17341771D01*
X12644667Y-17303676D02*
X12644667Y-17341771D01*
X12939905Y-17579867D02*
X12930381Y-17570343D01*
X12911333Y-17541771D01*
X12901809Y-17522724D01*
X12892286Y-17494152D01*
X12882762Y-17446533D01*
X12882762Y-17408438D01*
X12892286Y-17360819D01*
X12901809Y-17332248D01*
X12911333Y-17313200D01*
X12930381Y-17284629D01*
X12939905Y-17275105D01*
X13120857Y-17503676D02*
X13006571Y-17503676D01*
X13063714Y-17503676D02*
X13063714Y-17303676D01*
X13044667Y-17332248D01*
X13025619Y-17351295D01*
X13006571Y-17360819D01*
X13358952Y-17503676D02*
X13358952Y-17303676D01*
X13444667Y-17503676D02*
X13444667Y-17398914D01*
X13435143Y-17379867D01*
X13416095Y-17370343D01*
X13387524Y-17370343D01*
X13368476Y-17379867D01*
X13358952Y-17389390D01*
X13568476Y-17503676D02*
X13549428Y-17494152D01*
X13539905Y-17484629D01*
X13530381Y-17465581D01*
X13530381Y-17408438D01*
X13539905Y-17389390D01*
X13549428Y-17379867D01*
X13568476Y-17370343D01*
X13597048Y-17370343D01*
X13616095Y-17379867D01*
X13625619Y-17389390D01*
X13635143Y-17408438D01*
X13635143Y-17465581D01*
X13625619Y-17484629D01*
X13616095Y-17494152D01*
X13597048Y-17503676D01*
X13568476Y-17503676D01*
X13749428Y-17503676D02*
X13730381Y-17494152D01*
X13720857Y-17475105D01*
X13720857Y-17303676D01*
X13901809Y-17494152D02*
X13882762Y-17503676D01*
X13844667Y-17503676D01*
X13825619Y-17494152D01*
X13816095Y-17475105D01*
X13816095Y-17398914D01*
X13825619Y-17379867D01*
X13844667Y-17370343D01*
X13882762Y-17370343D01*
X13901809Y-17379867D01*
X13911333Y-17398914D01*
X13911333Y-17417962D01*
X13816095Y-17437010D01*
X13978000Y-17579867D02*
X13987524Y-17570343D01*
X14006571Y-17541771D01*
X14016095Y-17522724D01*
X14025619Y-17494152D01*
X14035143Y-17446533D01*
X14035143Y-17408438D01*
X14025619Y-17360819D01*
X14016095Y-17332248D01*
X14006571Y-17313200D01*
X13987524Y-17284629D01*
X13978000Y-17275105D01*
M02*
