G04 #@! TF.GenerationSoftware,KiCad,Pcbnew,(6.0.5-0)*
G04 #@! TF.CreationDate,2023-01-01T23:21:56+00:00*
G04 #@! TF.ProjectId,bms,626d732e-6b69-4636-9164-5f7063625858,rev?*
G04 #@! TF.SameCoordinates,Original*
G04 #@! TF.FileFunction,Legend,Bot*
G04 #@! TF.FilePolarity,Positive*
%FSLAX46Y46*%
G04 Gerber Fmt 4.6, Leading zero omitted, Abs format (unit mm)*
G04 Created by KiCad (PCBNEW (6.0.5-0)) date 2023-01-01 23:21:56*
%MOMM*%
%LPD*%
G01*
G04 APERTURE LIST*
%ADD10C,2.100000*%
%ADD11R,2.100000X2.100000*%
%ADD12C,4.800000*%
%ADD13R,1.700000X1.700000*%
%ADD14O,1.700000X1.700000*%
%ADD15O,1.500000X1.500000*%
%ADD16O,1.800000X1.800000*%
G04 APERTURE END LIST*
%LPC*%
D10*
X118255000Y-152376000D03*
X114055000Y-152376000D03*
X109855000Y-152376000D03*
X105655000Y-152376000D03*
X101455000Y-152376000D03*
X97030000Y-152376000D03*
X97030000Y-146026000D03*
X101455000Y-146026000D03*
X105655000Y-146026000D03*
X109855000Y-146026000D03*
X114055000Y-146026000D03*
D11*
X118255000Y-146026000D03*
D10*
X151855000Y-146026000D03*
X156055000Y-146026000D03*
X160255000Y-146026000D03*
X164455000Y-146026000D03*
X168655000Y-146026000D03*
X173080000Y-146026000D03*
X173080000Y-152376000D03*
X168655000Y-152376000D03*
X164455000Y-152376000D03*
X160255000Y-152376000D03*
X156055000Y-152376000D03*
X151855000Y-152376000D03*
D12*
X135055000Y-148006000D03*
D13*
X137160000Y-58928000D03*
D14*
X137160000Y-61468000D03*
X137160000Y-64008000D03*
D15*
X151318000Y-62088000D03*
X156168000Y-62088000D03*
D16*
X151018000Y-59058000D03*
X156468000Y-59058000D03*
D14*
X144853000Y-58928000D03*
X144853000Y-61468000D03*
D13*
X144853000Y-64008000D03*
D14*
X144853000Y-66548000D03*
X144853000Y-69088000D03*
X144853000Y-71628000D03*
X144853000Y-74168000D03*
D13*
X144853000Y-76708000D03*
D14*
X144853000Y-79248000D03*
X144853000Y-81788000D03*
X144853000Y-84328000D03*
X144853000Y-86868000D03*
D13*
X144853000Y-89408000D03*
D14*
X144853000Y-91948000D03*
X144853000Y-94488000D03*
X144853000Y-97028000D03*
X144853000Y-99568000D03*
D13*
X144853000Y-102108000D03*
D14*
X144853000Y-104648000D03*
X144853000Y-107188000D03*
X162633000Y-107188000D03*
X162633000Y-104648000D03*
D13*
X162633000Y-102108000D03*
D14*
X162633000Y-99568000D03*
X162633000Y-97028000D03*
X162633000Y-94488000D03*
X162633000Y-91948000D03*
D13*
X162633000Y-89408000D03*
D14*
X162633000Y-86868000D03*
X162633000Y-84328000D03*
X162633000Y-81788000D03*
X162633000Y-79248000D03*
D13*
X162633000Y-76708000D03*
D14*
X162633000Y-74168000D03*
X162633000Y-71628000D03*
X162633000Y-69088000D03*
X162633000Y-66548000D03*
D13*
X162633000Y-64008000D03*
D14*
X162633000Y-61468000D03*
X162633000Y-58928000D03*
X151203000Y-106958000D03*
D13*
X153743000Y-106958000D03*
D14*
X156283000Y-106958000D03*
M02*
