G04 #@! TF.GenerationSoftware,KiCad,Pcbnew,(6.0.5-0)*
G04 #@! TF.CreationDate,2023-01-01T23:21:56+00:00*
G04 #@! TF.ProjectId,bms,626d732e-6b69-4636-9164-5f7063625858,rev?*
G04 #@! TF.SameCoordinates,Original*
G04 #@! TF.FileFunction,Soldermask,Top*
G04 #@! TF.FilePolarity,Negative*
%FSLAX46Y46*%
G04 Gerber Fmt 4.6, Leading zero omitted, Abs format (unit mm)*
G04 Created by KiCad (PCBNEW (6.0.5-0)) date 2023-01-01 23:21:56*
%MOMM*%
%LPD*%
G01*
G04 APERTURE LIST*
G04 Aperture macros list*
%AMRoundRect*
0 Rectangle with rounded corners*
0 $1 Rounding radius*
0 $2 $3 $4 $5 $6 $7 $8 $9 X,Y pos of 4 corners*
0 Add a 4 corners polygon primitive as box body*
4,1,4,$2,$3,$4,$5,$6,$7,$8,$9,$2,$3,0*
0 Add four circle primitives for the rounded corners*
1,1,$1+$1,$2,$3*
1,1,$1+$1,$4,$5*
1,1,$1+$1,$6,$7*
1,1,$1+$1,$8,$9*
0 Add four rect primitives between the rounded corners*
20,1,$1+$1,$2,$3,$4,$5,0*
20,1,$1+$1,$4,$5,$6,$7,0*
20,1,$1+$1,$6,$7,$8,$9,0*
20,1,$1+$1,$8,$9,$2,$3,0*%
G04 Aperture macros list end*
%ADD10C,2.100000*%
%ADD11R,2.100000X2.100000*%
%ADD12C,4.800000*%
%ADD13R,1.000000X1.200000*%
%ADD14R,3.300000X1.200000*%
%ADD15R,0.450000X1.400000*%
%ADD16R,0.450000X1.475000*%
%ADD17R,1.700000X1.700000*%
%ADD18O,1.700000X1.700000*%
%ADD19RoundRect,0.250000X0.450000X-0.262500X0.450000X0.262500X-0.450000X0.262500X-0.450000X-0.262500X0*%
%ADD20RoundRect,0.150000X-0.150000X0.825000X-0.150000X-0.825000X0.150000X-0.825000X0.150000X0.825000X0*%
%ADD21R,1.000000X1.500000*%
%ADD22RoundRect,0.250000X-0.450000X0.262500X-0.450000X-0.262500X0.450000X-0.262500X0.450000X0.262500X0*%
%ADD23RoundRect,0.250000X0.262500X0.450000X-0.262500X0.450000X-0.262500X-0.450000X0.262500X-0.450000X0*%
%ADD24RoundRect,0.225000X-0.250000X0.225000X-0.250000X-0.225000X0.250000X-0.225000X0.250000X0.225000X0*%
%ADD25R,2.049780X2.049780*%
%ADD26O,1.500000X1.500000*%
%ADD27O,1.800000X1.800000*%
%ADD28R,3.500000X1.700000*%
%ADD29R,1.700000X3.500000*%
%ADD30RoundRect,0.225000X0.250000X-0.225000X0.250000X0.225000X-0.250000X0.225000X-0.250000X-0.225000X0*%
%ADD31RoundRect,0.250000X-0.262500X-0.450000X0.262500X-0.450000X0.262500X0.450000X-0.262500X0.450000X0*%
%ADD32RoundRect,0.250000X-0.475000X0.250000X-0.475000X-0.250000X0.475000X-0.250000X0.475000X0.250000X0*%
%ADD33R,1.600000X5.700000*%
G04 APERTURE END LIST*
D10*
X118255000Y-152376000D03*
X114055000Y-152376000D03*
X109855000Y-152376000D03*
X105655000Y-152376000D03*
X101455000Y-152376000D03*
X97030000Y-152376000D03*
X97030000Y-146026000D03*
X101455000Y-146026000D03*
X105655000Y-146026000D03*
X109855000Y-146026000D03*
X114055000Y-146026000D03*
D11*
X118255000Y-146026000D03*
D10*
X151855000Y-146026000D03*
X156055000Y-146026000D03*
X160255000Y-146026000D03*
X164455000Y-146026000D03*
X168655000Y-146026000D03*
X173080000Y-146026000D03*
X173080000Y-152376000D03*
X168655000Y-152376000D03*
X164455000Y-152376000D03*
X160255000Y-152376000D03*
X156055000Y-152376000D03*
X151855000Y-152376000D03*
D12*
X135055000Y-148006000D03*
D13*
X116019000Y-80264000D03*
X113719000Y-80264000D03*
X111419000Y-80264000D03*
D14*
X113719000Y-87064000D03*
D13*
X107637000Y-80264000D03*
X105337000Y-80264000D03*
X103037000Y-80264000D03*
D14*
X105337000Y-87064000D03*
D13*
X116019000Y-69117000D03*
X113719000Y-69117000D03*
X111419000Y-69117000D03*
D14*
X113719000Y-75917000D03*
D13*
X107637000Y-69117000D03*
X105337000Y-69117000D03*
X103037000Y-69117000D03*
D14*
X105337000Y-75917000D03*
D15*
X160176000Y-135210000D03*
X160826000Y-135210000D03*
X161476000Y-135210000D03*
X162126000Y-135210000D03*
X162126000Y-130810000D03*
X161476000Y-130810000D03*
X160826000Y-130810000D03*
X160176000Y-130810000D03*
D16*
X123240000Y-123334000D03*
X123890000Y-123334000D03*
X124540000Y-123334000D03*
X125190000Y-123334000D03*
X125840000Y-123334000D03*
X126490000Y-123334000D03*
X127140000Y-123334000D03*
X127790000Y-123334000D03*
X128440000Y-123334000D03*
X129090000Y-123334000D03*
X129090000Y-117458000D03*
X128440000Y-117458000D03*
X127790000Y-117458000D03*
X127140000Y-117458000D03*
X126490000Y-117458000D03*
X125840000Y-117458000D03*
X125190000Y-117458000D03*
X124540000Y-117458000D03*
X123890000Y-117458000D03*
X123240000Y-117458000D03*
X132130000Y-123334000D03*
X132780000Y-123334000D03*
X133430000Y-123334000D03*
X134080000Y-123334000D03*
X134730000Y-123334000D03*
X135380000Y-123334000D03*
X136030000Y-123334000D03*
X136680000Y-123334000D03*
X137330000Y-123334000D03*
X137980000Y-123334000D03*
X137980000Y-117458000D03*
X137330000Y-117458000D03*
X136680000Y-117458000D03*
X136030000Y-117458000D03*
X135380000Y-117458000D03*
X134730000Y-117458000D03*
X134080000Y-117458000D03*
X133430000Y-117458000D03*
X132780000Y-117458000D03*
X132130000Y-117458000D03*
X141020000Y-123334000D03*
X141670000Y-123334000D03*
X142320000Y-123334000D03*
X142970000Y-123334000D03*
X143620000Y-123334000D03*
X144270000Y-123334000D03*
X144920000Y-123334000D03*
X145570000Y-123334000D03*
X146220000Y-123334000D03*
X146870000Y-123334000D03*
X146870000Y-117458000D03*
X146220000Y-117458000D03*
X145570000Y-117458000D03*
X144920000Y-117458000D03*
X144270000Y-117458000D03*
X143620000Y-117458000D03*
X142970000Y-117458000D03*
X142320000Y-117458000D03*
X141670000Y-117458000D03*
X141020000Y-117458000D03*
D13*
X116019000Y-58322000D03*
X113719000Y-58322000D03*
X111419000Y-58322000D03*
D14*
X113719000Y-65122000D03*
D13*
X107637000Y-58322000D03*
X105337000Y-58322000D03*
X103037000Y-58322000D03*
D14*
X105337000Y-65122000D03*
D17*
X137160000Y-58928000D03*
D18*
X137160000Y-61468000D03*
X137160000Y-64008000D03*
D19*
X117811250Y-105156000D03*
X117811250Y-103331000D03*
D20*
X136960000Y-127065000D03*
X135690000Y-127065000D03*
X134420000Y-127065000D03*
X133150000Y-127065000D03*
X133150000Y-132015000D03*
X134420000Y-132015000D03*
X135690000Y-132015000D03*
X136960000Y-132015000D03*
D21*
X145073000Y-136652000D03*
X146373000Y-136652000D03*
D22*
X165195000Y-133621500D03*
X165195000Y-135446500D03*
D19*
X117811250Y-98091000D03*
X117811250Y-96266000D03*
D23*
X167377500Y-130978000D03*
X165552500Y-130978000D03*
D20*
X145850000Y-127065000D03*
X144580000Y-127065000D03*
X143310000Y-127065000D03*
X142040000Y-127065000D03*
X142040000Y-132015000D03*
X143310000Y-132015000D03*
X144580000Y-132015000D03*
X145850000Y-132015000D03*
D24*
X121621250Y-92800500D03*
X121621250Y-94350500D03*
X121621250Y-99959500D03*
X121621250Y-101509500D03*
D25*
X167481000Y-122837300D03*
X167481000Y-127434700D03*
D22*
X117811250Y-99822000D03*
X117811250Y-101647000D03*
D26*
X151318000Y-62088000D03*
X156168000Y-62088000D03*
D27*
X151018000Y-59058000D03*
X156468000Y-59058000D03*
D28*
X143953000Y-58928000D03*
D18*
X144853000Y-58928000D03*
D28*
X143953000Y-61468000D03*
D18*
X144853000Y-61468000D03*
D28*
X143953000Y-64008000D03*
D17*
X144853000Y-64008000D03*
D18*
X144853000Y-66548000D03*
D28*
X143953000Y-66548000D03*
X143953000Y-69088000D03*
D18*
X144853000Y-69088000D03*
X144853000Y-71628000D03*
D28*
X143953000Y-71628000D03*
X143953000Y-74168000D03*
D18*
X144853000Y-74168000D03*
D17*
X144853000Y-76708000D03*
D28*
X143953000Y-76708000D03*
D18*
X144853000Y-79248000D03*
D28*
X143953000Y-79248000D03*
X143953000Y-81788000D03*
D18*
X144853000Y-81788000D03*
D28*
X143953000Y-84328000D03*
D18*
X144853000Y-84328000D03*
D28*
X143953000Y-86868000D03*
D18*
X144853000Y-86868000D03*
D28*
X143953000Y-89408000D03*
D17*
X144853000Y-89408000D03*
D28*
X143953000Y-91948000D03*
D18*
X144853000Y-91948000D03*
X144853000Y-94488000D03*
D28*
X143953000Y-94488000D03*
X143953000Y-97028000D03*
D18*
X144853000Y-97028000D03*
X144853000Y-99568000D03*
D28*
X143953000Y-99568000D03*
X143953000Y-102108000D03*
D17*
X144853000Y-102108000D03*
D28*
X143953000Y-104648000D03*
D18*
X144853000Y-104648000D03*
X144853000Y-107188000D03*
D28*
X143953000Y-107188000D03*
X163533000Y-107188000D03*
D18*
X162633000Y-107188000D03*
D28*
X163533000Y-104648000D03*
D18*
X162633000Y-104648000D03*
D17*
X162633000Y-102108000D03*
D28*
X163533000Y-102108000D03*
X163533000Y-99568000D03*
D18*
X162633000Y-99568000D03*
D28*
X163533000Y-97028000D03*
D18*
X162633000Y-97028000D03*
D28*
X163533000Y-94488000D03*
D18*
X162633000Y-94488000D03*
X162633000Y-91948000D03*
D28*
X163533000Y-91948000D03*
D17*
X162633000Y-89408000D03*
D28*
X163533000Y-89408000D03*
D18*
X162633000Y-86868000D03*
D28*
X163533000Y-86868000D03*
D18*
X162633000Y-84328000D03*
D28*
X163533000Y-84328000D03*
X163533000Y-81788000D03*
D18*
X162633000Y-81788000D03*
D28*
X163533000Y-79248000D03*
D18*
X162633000Y-79248000D03*
D17*
X162633000Y-76708000D03*
D28*
X163533000Y-76708000D03*
X163533000Y-74168000D03*
D18*
X162633000Y-74168000D03*
X162633000Y-71628000D03*
D28*
X163533000Y-71628000D03*
D18*
X162633000Y-69088000D03*
D28*
X163533000Y-69088000D03*
X163533000Y-66548000D03*
D18*
X162633000Y-66548000D03*
D28*
X163533000Y-64008000D03*
D17*
X162633000Y-64008000D03*
D18*
X162633000Y-61468000D03*
D28*
X163533000Y-61468000D03*
X163533000Y-58928000D03*
D18*
X162633000Y-58928000D03*
D29*
X151203000Y-107858000D03*
D18*
X151203000Y-106958000D03*
D17*
X153743000Y-106958000D03*
D29*
X153743000Y-107858000D03*
D18*
X156283000Y-106958000D03*
D29*
X156283000Y-107858000D03*
D22*
X117811250Y-92663000D03*
X117811250Y-94488000D03*
D24*
X148844000Y-119621000D03*
X148844000Y-121171000D03*
D30*
X157575000Y-135055000D03*
X157575000Y-133505000D03*
D20*
X128070000Y-127065000D03*
X126800000Y-127065000D03*
X125530000Y-127065000D03*
X124260000Y-127065000D03*
X124260000Y-132015000D03*
X125530000Y-132015000D03*
X126800000Y-132015000D03*
X128070000Y-132015000D03*
D30*
X121621250Y-112130500D03*
X121621250Y-110580500D03*
D22*
X117811250Y-106934000D03*
X117811250Y-108759000D03*
D31*
X113239250Y-105005500D03*
X115064250Y-105005500D03*
D24*
X121158000Y-119621000D03*
X121158000Y-121171000D03*
D32*
X167481000Y-133584000D03*
X167481000Y-135484000D03*
D31*
X113239250Y-97940500D03*
X115064250Y-97940500D03*
X132110500Y-136652000D03*
X133935500Y-136652000D03*
D24*
X121621250Y-106804500D03*
X121621250Y-108354500D03*
D31*
X113342750Y-92813500D03*
X115167750Y-92813500D03*
D19*
X117811250Y-112268000D03*
X117811250Y-110443000D03*
D21*
X127039000Y-136652000D03*
X128339000Y-136652000D03*
X135929000Y-136652000D03*
X137229000Y-136652000D03*
D22*
X157321000Y-129811500D03*
X157321000Y-131636500D03*
D31*
X113239250Y-99972500D03*
X115064250Y-99972500D03*
D30*
X121621250Y-97953500D03*
X121621250Y-96403500D03*
X121621250Y-105018500D03*
X121621250Y-103468500D03*
D31*
X123220500Y-136652000D03*
X125045500Y-136652000D03*
D33*
X158781000Y-125136000D03*
X163481000Y-125136000D03*
D31*
X141254500Y-136652000D03*
X143079500Y-136652000D03*
X113304000Y-107058500D03*
X115129000Y-107058500D03*
X113239250Y-112027000D03*
X115064250Y-112027000D03*
M02*
