M48
; DRILL file {KiCad (6.0.5-0)} date Monday 30 May 2022 at 23:28:12
; FORMAT={-:-/ absolute / inch / decimal}
; #@! TF.CreationDate,2022-05-30T23:28:12+01:00
; #@! TF.GenerationSoftware,Kicad,Pcbnew,(6.0.5-0)
; #@! TF.FileFunction,Plated,1,2,PTH
FMAT,2
INCH
; #@! TA.AperFunction,Plated,PTH,ViaDrill
T1C0.0157
; #@! TA.AperFunction,Plated,PTH,ComponentDrill
T2C0.0402
%
G90
G05
T1
X3.08Y-5.33
X3.1034Y-5.2384
X3.13Y-5.85
X3.1384Y-5.2784
X3.1784Y-5.3184
X3.18Y-5.9
X3.2184Y-5.3584
X3.29Y-3.91
X3.42Y-5.24
X3.4448Y-5.8523
X3.455Y-5.28
X3.4948Y-5.9023
X3.495Y-5.32
X3.535Y-5.36
X3.75Y-5.24
X3.7821Y-5.8523
X3.785Y-5.28
X3.825Y-5.32
X3.8321Y-5.9023
X3.865Y-5.36
T2
X2.85Y-4.27
X2.85Y-4.97
X2.8591Y-4.52
X2.8591Y-4.62
X2.8591Y-4.72
X2.95Y-4.27
X2.95Y-4.97
X3.05Y-4.27
X3.05Y-4.97
X3.15Y-4.27
X3.15Y-4.97
X3.25Y-4.27
X3.25Y-4.97
X3.35Y-4.27
X3.35Y-4.97
X3.45Y-4.27
X3.45Y-4.97
X3.55Y-4.27
X3.55Y-4.97
X3.65Y-4.27
X3.65Y-4.97
X3.75Y-4.27
X3.75Y-4.97
X3.85Y-4.27
X3.85Y-4.97
X3.95Y-4.27
X3.95Y-4.97
X4.05Y-4.27
X4.05Y-4.97
X4.15Y-4.27
X4.15Y-4.97
X4.25Y-4.27
X4.25Y-4.97
X4.35Y-4.27
X4.35Y-4.97
X4.45Y-4.27
X4.45Y-4.97
X4.55Y-4.27
X4.55Y-4.97
X4.65Y-4.27
X4.65Y-4.97
X4.75Y-4.27
X4.75Y-4.97
T0
M30
