%TF.GenerationSoftware,KiCad,Pcbnew,(6.0.5-0)*%
%TF.CreationDate,2022-05-30T23:28:05+01:00*%
%TF.ProjectId,bms,626d732e-6b69-4636-9164-5f7063625858,rev?*%
%TF.SameCoordinates,Original*%
%TF.FileFunction,Soldermask,Top*%
%TF.FilePolarity,Negative*%
%FSLAX46Y46*%
G04 Gerber Fmt 4.6, Leading zero omitted, Abs format (unit mm)*
G04 Created by KiCad (PCBNEW (6.0.5-0)) date 2022-05-30 23:28:05*
%MOMM*%
%LPD*%
G01*
G04 APERTURE LIST*
G04 Aperture macros list*
%AMRoundRect*
0 Rectangle with rounded corners*
0 $1 Rounding radius*
0 $2 $3 $4 $5 $6 $7 $8 $9 X,Y pos of 4 corners*
0 Add a 4 corners polygon primitive as box body*
4,1,4,$2,$3,$4,$5,$6,$7,$8,$9,$2,$3,0*
0 Add four circle primitives for the rounded corners*
1,1,$1+$1,$2,$3*
1,1,$1+$1,$4,$5*
1,1,$1+$1,$6,$7*
1,1,$1+$1,$8,$9*
0 Add four rect primitives between the rounded corners*
20,1,$1+$1,$2,$3,$4,$5,0*
20,1,$1+$1,$4,$5,$6,$7,0*
20,1,$1+$1,$6,$7,$8,$9,0*
20,1,$1+$1,$8,$9,$2,$3,0*%
G04 Aperture macros list end*
%ADD10R,1.240000X2.500000*%
%ADD11R,1.100000X8.200000*%
%ADD12R,0.450000X1.400000*%
%ADD13R,0.450000X1.475000*%
%ADD14R,1.200000X1.000000*%
%ADD15R,1.200000X3.300000*%
%ADD16RoundRect,0.250000X-0.450000X0.262500X-0.450000X-0.262500X0.450000X-0.262500X0.450000X0.262500X0*%
%ADD17RoundRect,0.250000X-0.262500X-0.450000X0.262500X-0.450000X0.262500X0.450000X-0.262500X0.450000X0*%
%ADD18RoundRect,0.250000X0.450000X-0.262500X0.450000X0.262500X-0.450000X0.262500X-0.450000X-0.262500X0*%
%ADD19RoundRect,0.150000X-0.150000X0.825000X-0.150000X-0.825000X0.150000X-0.825000X0.150000X0.825000X0*%
%ADD20C,3.200000*%
%ADD21RoundRect,0.225000X-0.250000X0.225000X-0.250000X-0.225000X0.250000X-0.225000X0.250000X0.225000X0*%
%ADD22R,2.049780X2.049780*%
%ADD23R,3.500000X1.700000*%
%ADD24O,1.700000X1.700000*%
%ADD25R,1.700000X1.700000*%
%ADD26R,1.700000X3.500000*%
%ADD27O,1.800000X1.800000*%
%ADD28O,1.500000X1.500000*%
%ADD29RoundRect,0.225000X-0.225000X-0.250000X0.225000X-0.250000X0.225000X0.250000X-0.225000X0.250000X0*%
%ADD30RoundRect,0.225000X0.250000X-0.225000X0.250000X0.225000X-0.250000X0.225000X-0.250000X-0.225000X0*%
%ADD31RoundRect,0.250000X-0.475000X0.250000X-0.475000X-0.250000X0.475000X-0.250000X0.475000X0.250000X0*%
%ADD32R,1.600000X5.700000*%
G04 APERTURE END LIST*
D10*
%TO.C,J6*%
X115082000Y-92456000D03*
X117582000Y-92456000D03*
D11*
X113112000Y-87526000D03*
X120152000Y-87526000D03*
%TD*%
D10*
%TO.C,J5*%
X74442000Y-92456000D03*
X76942000Y-92456000D03*
D11*
X72472000Y-87526000D03*
X79512000Y-87526000D03*
%TD*%
D10*
%TO.C,J4*%
X77471000Y-157908000D03*
X74971000Y-157908000D03*
D11*
X79441000Y-162838000D03*
X72401000Y-162838000D03*
%TD*%
D10*
%TO.C,J3*%
X101326000Y-157908000D03*
X98826000Y-157908000D03*
D11*
X103296000Y-162838000D03*
X96256000Y-162838000D03*
%TD*%
D10*
%TO.C,J2*%
X89388000Y-157908000D03*
X86888000Y-157908000D03*
D11*
X91358000Y-162838000D03*
X84318000Y-162838000D03*
%TD*%
D10*
%TO.C,J1*%
X117984000Y-157908000D03*
X115484000Y-157908000D03*
D11*
X119954000Y-162838000D03*
X112914000Y-162838000D03*
%TD*%
D12*
%TO.C,IC9*%
X106403000Y-150790000D03*
X107053000Y-150790000D03*
X107703000Y-150790000D03*
X108353000Y-150790000D03*
X108353000Y-146390000D03*
X107703000Y-146390000D03*
X107053000Y-146390000D03*
X106403000Y-146390000D03*
%TD*%
D13*
%TO.C,IC5*%
X77154469Y-143908000D03*
X77804469Y-143908000D03*
X78454469Y-143908000D03*
X79104469Y-143908000D03*
X79754469Y-143908000D03*
X80404469Y-143908000D03*
X81054469Y-143908000D03*
X81704469Y-143908000D03*
X82354469Y-143908000D03*
X83004469Y-143908000D03*
X83004469Y-138032000D03*
X82354469Y-138032000D03*
X81704469Y-138032000D03*
X81054469Y-138032000D03*
X80404469Y-138032000D03*
X79754469Y-138032000D03*
X79104469Y-138032000D03*
X78454469Y-138032000D03*
X77804469Y-138032000D03*
X77154469Y-138032000D03*
%TD*%
%TO.C,IC4*%
X93595000Y-143908000D03*
X94245000Y-143908000D03*
X94895000Y-143908000D03*
X95545000Y-143908000D03*
X96195000Y-143908000D03*
X96845000Y-143908000D03*
X97495000Y-143908000D03*
X98145000Y-143908000D03*
X98795000Y-143908000D03*
X99445000Y-143908000D03*
X99445000Y-138032000D03*
X98795000Y-138032000D03*
X98145000Y-138032000D03*
X97495000Y-138032000D03*
X96845000Y-138032000D03*
X96195000Y-138032000D03*
X95545000Y-138032000D03*
X94895000Y-138032000D03*
X94245000Y-138032000D03*
X93595000Y-138032000D03*
%TD*%
%TO.C,IC3*%
X85095011Y-143908000D03*
X85745011Y-143908000D03*
X86395011Y-143908000D03*
X87045011Y-143908000D03*
X87695011Y-143908000D03*
X88345011Y-143908000D03*
X88995011Y-143908000D03*
X89645011Y-143908000D03*
X90295011Y-143908000D03*
X90945011Y-143908000D03*
X90945011Y-138032000D03*
X90295011Y-138032000D03*
X89645011Y-138032000D03*
X88995011Y-138032000D03*
X88345011Y-138032000D03*
X87695011Y-138032000D03*
X87045011Y-138032000D03*
X86395011Y-138032000D03*
X85745011Y-138032000D03*
X85095011Y-138032000D03*
%TD*%
D14*
%TO.C,IC2*%
X104746000Y-101106000D03*
X104746000Y-98806000D03*
X104746000Y-96506000D03*
D15*
X97946000Y-98806000D03*
%TD*%
D14*
%TO.C,IC1*%
X107344000Y-96506000D03*
X107344000Y-98806000D03*
X107344000Y-101106000D03*
D15*
X114144000Y-98806000D03*
%TD*%
D16*
%TO.C,R7*%
X88646000Y-99938500D03*
X88646000Y-101763500D03*
%TD*%
D17*
%TO.C,R6*%
X83613000Y-97536000D03*
X81788000Y-97536000D03*
%TD*%
D16*
%TO.C,R5*%
X88646000Y-96382500D03*
X88646000Y-98207500D03*
%TD*%
D17*
%TO.C,R4*%
X80057000Y-97536000D03*
X78232000Y-97536000D03*
%TD*%
D16*
%TO.C,R3*%
X104140000Y-149606000D03*
X104140000Y-151431000D03*
%TD*%
%TO.C,R2*%
X110490000Y-146153500D03*
X110490000Y-147978500D03*
%TD*%
D18*
%TO.C,R1*%
X104140000Y-147978500D03*
X104140000Y-146153500D03*
%TD*%
D17*
%TO.C,R10*%
X79351500Y-154178000D03*
X81176500Y-154178000D03*
%TD*%
%TO.C,R9*%
X95914509Y-154178000D03*
X97739509Y-154178000D03*
%TD*%
%TO.C,R8*%
X87221542Y-154178000D03*
X89046542Y-154178000D03*
%TD*%
D19*
%TO.C,IC7*%
X98605009Y-146808249D03*
X97335009Y-146808249D03*
X96065009Y-146808249D03*
X94795009Y-146808249D03*
X94795009Y-151758249D03*
X96065009Y-151758249D03*
X97335009Y-151758249D03*
X98605009Y-151758249D03*
%TD*%
D20*
%TO.C,H2*%
X118872000Y-99314000D03*
%TD*%
%TO.C,H3*%
X118872000Y-151638000D03*
%TD*%
D19*
%TO.C,IC8*%
X90039042Y-151758249D03*
X88769042Y-151758249D03*
X87499042Y-151758249D03*
X86229042Y-151758249D03*
X86229042Y-146808249D03*
X87499042Y-146808249D03*
X88769042Y-146808249D03*
X90039042Y-146808249D03*
%TD*%
D21*
%TO.C,C6*%
X90424000Y-98298000D03*
X90424000Y-99848000D03*
%TD*%
D22*
%TO.C,D1*%
X113093000Y-143936200D03*
X113093000Y-139338800D03*
%TD*%
D23*
%TO.C,U8*%
X71720000Y-119888000D03*
D24*
X72620000Y-119888000D03*
D23*
X71720000Y-117348000D03*
D25*
X72620000Y-117348000D03*
D24*
X72620000Y-114808000D03*
D23*
X71720000Y-114808000D03*
D24*
X120650000Y-126238000D03*
D26*
X120650000Y-127138000D03*
X118110000Y-127138000D03*
D24*
X118110000Y-126238000D03*
D25*
X115570000Y-126238000D03*
D26*
X115570000Y-127138000D03*
D24*
X113030000Y-126238000D03*
D26*
X113030000Y-127138000D03*
X110490000Y-127138000D03*
D24*
X110490000Y-126238000D03*
D26*
X107950000Y-127138000D03*
D24*
X107950000Y-126238000D03*
X105410000Y-126238000D03*
D26*
X105410000Y-127138000D03*
X102870000Y-127138000D03*
D25*
X102870000Y-126238000D03*
D24*
X100330000Y-126238000D03*
D26*
X100330000Y-127138000D03*
D24*
X97790000Y-126238000D03*
D26*
X97790000Y-127138000D03*
X95250000Y-127138000D03*
D24*
X95250000Y-126238000D03*
D26*
X92710000Y-127138000D03*
D24*
X92710000Y-126238000D03*
D26*
X90170000Y-127138000D03*
D25*
X90170000Y-126238000D03*
D26*
X87630000Y-127138000D03*
D24*
X87630000Y-126238000D03*
X85090000Y-126238000D03*
D26*
X85090000Y-127138000D03*
D24*
X82550000Y-126238000D03*
D26*
X82550000Y-127138000D03*
D24*
X80010000Y-126238000D03*
D26*
X80010000Y-127138000D03*
X77470000Y-127138000D03*
D25*
X77470000Y-126238000D03*
D24*
X74930000Y-126238000D03*
D26*
X74930000Y-127138000D03*
D24*
X72390000Y-126238000D03*
D26*
X72390000Y-127138000D03*
X72390000Y-107558000D03*
D24*
X72390000Y-108458000D03*
X74930000Y-108458000D03*
D26*
X74930000Y-107558000D03*
D25*
X77470000Y-108458000D03*
D26*
X77470000Y-107558000D03*
X80010000Y-107558000D03*
D24*
X80010000Y-108458000D03*
X82550000Y-108458000D03*
D26*
X82550000Y-107558000D03*
X85090000Y-107558000D03*
D24*
X85090000Y-108458000D03*
X87630000Y-108458000D03*
D26*
X87630000Y-107558000D03*
D25*
X90170000Y-108458000D03*
D26*
X90170000Y-107558000D03*
D24*
X92710000Y-108458000D03*
D26*
X92710000Y-107558000D03*
D24*
X95250000Y-108458000D03*
D26*
X95250000Y-107558000D03*
D24*
X97790000Y-108458000D03*
D26*
X97790000Y-107558000D03*
X100330000Y-107558000D03*
D24*
X100330000Y-108458000D03*
D26*
X102870000Y-107558000D03*
D25*
X102870000Y-108458000D03*
D24*
X105410000Y-108458000D03*
D26*
X105410000Y-107558000D03*
X107950000Y-107558000D03*
D24*
X107950000Y-108458000D03*
X110490000Y-108458000D03*
D26*
X110490000Y-107558000D03*
X113030000Y-107558000D03*
D24*
X113030000Y-108458000D03*
D25*
X115570000Y-108458000D03*
D26*
X115570000Y-107558000D03*
D24*
X118110000Y-108458000D03*
D26*
X118110000Y-107558000D03*
D24*
X120650000Y-108458000D03*
D26*
X120650000Y-107558000D03*
D27*
X120520000Y-120073000D03*
X120520000Y-114623000D03*
D28*
X117490000Y-119773000D03*
X117490000Y-114923000D03*
%TD*%
D29*
%TO.C,C2*%
X114020000Y-133921500D03*
X115570000Y-133921500D03*
%TD*%
D30*
%TO.C,C1*%
X110236000Y-151302500D03*
X110236000Y-149752500D03*
%TD*%
D19*
%TO.C,IC6*%
X82042000Y-146750000D03*
X80772000Y-146750000D03*
X79502000Y-146750000D03*
X78232000Y-146750000D03*
X78232000Y-151700000D03*
X79502000Y-151700000D03*
X80772000Y-151700000D03*
X82042000Y-151700000D03*
%TD*%
D29*
%TO.C,C3*%
X114020000Y-135826500D03*
X115570000Y-135826500D03*
%TD*%
D20*
%TO.C,H4*%
X73660000Y-151638000D03*
%TD*%
D31*
%TO.C,C4*%
X113792000Y-146116000D03*
X113792000Y-148016000D03*
%TD*%
D29*
%TO.C,C5*%
X81697500Y-99314000D03*
X80147500Y-99314000D03*
%TD*%
D32*
%TO.C,L1*%
X105028000Y-141637500D03*
X109728000Y-141637500D03*
%TD*%
D20*
%TO.C,H1*%
X73660000Y-99314000D03*
%TD*%
M02*
