M48
; DRILL file {KiCad (6.0.5-0)} date Wednesday 29 June 2022 at 18:59:17
; FORMAT={-:-/ absolute / metric / decimal}
; #@! TF.CreationDate,2022-06-29T18:59:17+01:00
; #@! TF.GenerationSoftware,Kicad,Pcbnew,(6.0.5-0)
; #@! TF.FileFunction,Plated,1,2,PTH
FMAT,2
METRIC
; #@! TA.AperFunction,Plated,PTH,ViaDrill
T1C0.400
; #@! TA.AperFunction,Plated,PTH,ComponentDrill
T2C0.900
; #@! TA.AperFunction,Plated,PTH,ComponentDrill
T3C1.020
; #@! TA.AperFunction,Plated,PTH,ComponentDrill
T4C3.200
%
G90
G05
T1
X78.232Y-135.382
X78.826Y-133.055
X79.502Y-148.59
X79.715Y-134.071
X80.731Y-135.087
X80.772Y-149.86
X81.747Y-136.103
X83.566Y-99.314
X86.868Y-133.096
X87.499Y-148.648
X87.757Y-134.112
X88.769Y-149.918
X88.773Y-135.128
X89.789Y-136.144
X95.25Y-133.096
X96.065Y-148.648
X96.139Y-134.112
X97.155Y-135.128
X97.335Y-149.918
X98.171Y-136.144
T2
X94.488Y-96.774
X94.488Y-98.774
X94.488Y-100.774
T3
X72.39Y-108.458
X72.39Y-126.238
X72.62Y-114.808
X72.62Y-117.348
X72.62Y-119.888
X74.93Y-108.458
X74.93Y-126.238
X77.47Y-108.458
X77.47Y-126.238
X80.01Y-108.458
X80.01Y-126.238
X82.55Y-108.458
X82.55Y-126.238
X85.09Y-108.458
X85.09Y-126.238
X87.63Y-108.458
X87.63Y-126.238
X90.17Y-108.458
X90.17Y-126.238
X92.71Y-108.458
X92.71Y-126.238
X95.25Y-108.458
X95.25Y-126.238
X97.79Y-108.458
X97.79Y-126.238
X100.33Y-108.458
X100.33Y-126.238
X102.87Y-108.458
X102.87Y-126.238
X105.41Y-108.458
X105.41Y-126.238
X107.95Y-108.458
X107.95Y-126.238
X110.49Y-108.458
X110.49Y-126.238
X113.03Y-108.458
X113.03Y-126.238
X115.57Y-108.458
X115.57Y-126.238
X118.11Y-108.458
X118.11Y-126.238
X120.65Y-108.458
X120.65Y-126.238
T4
X73.5Y-99.0
X73.5Y-150.0
X119.0Y-99.0
X119.0Y-150.0
T0
M30
