%TF.GenerationSoftware,KiCad,Pcbnew,(6.0.5-0)*%
%TF.CreationDate,2022-05-30T23:28:05+01:00*%
%TF.ProjectId,bms,626d732e-6b69-4636-9164-5f7063625858,rev?*%
%TF.SameCoordinates,Original*%
%TF.FileFunction,Legend,Bot*%
%TF.FilePolarity,Positive*%
%FSLAX46Y46*%
G04 Gerber Fmt 4.6, Leading zero omitted, Abs format (unit mm)*
G04 Created by KiCad (PCBNEW (6.0.5-0)) date 2022-05-30 23:28:05*
%MOMM*%
%LPD*%
G01*
G04 APERTURE LIST*
%ADD10C,3.200000*%
%ADD11O,1.700000X1.700000*%
%ADD12R,1.700000X1.700000*%
%ADD13O,1.800000X1.800000*%
%ADD14O,1.500000X1.500000*%
G04 APERTURE END LIST*
%LPC*%
D10*
%TO.C,H2*%
X118872000Y-99314000D03*
%TD*%
%TO.C,H3*%
X118872000Y-151638000D03*
%TD*%
D11*
%TO.C,U8*%
X72620000Y-119888000D03*
D12*
X72620000Y-117348000D03*
D11*
X72620000Y-114808000D03*
X120650000Y-126238000D03*
X118110000Y-126238000D03*
D12*
X115570000Y-126238000D03*
D11*
X113030000Y-126238000D03*
X110490000Y-126238000D03*
X107950000Y-126238000D03*
X105410000Y-126238000D03*
D12*
X102870000Y-126238000D03*
D11*
X100330000Y-126238000D03*
X97790000Y-126238000D03*
X95250000Y-126238000D03*
X92710000Y-126238000D03*
D12*
X90170000Y-126238000D03*
D11*
X87630000Y-126238000D03*
X85090000Y-126238000D03*
X82550000Y-126238000D03*
X80010000Y-126238000D03*
D12*
X77470000Y-126238000D03*
D11*
X74930000Y-126238000D03*
X72390000Y-126238000D03*
X72390000Y-108458000D03*
X74930000Y-108458000D03*
D12*
X77470000Y-108458000D03*
D11*
X80010000Y-108458000D03*
X82550000Y-108458000D03*
X85090000Y-108458000D03*
X87630000Y-108458000D03*
D12*
X90170000Y-108458000D03*
D11*
X92710000Y-108458000D03*
X95250000Y-108458000D03*
X97790000Y-108458000D03*
X100330000Y-108458000D03*
D12*
X102870000Y-108458000D03*
D11*
X105410000Y-108458000D03*
X107950000Y-108458000D03*
X110490000Y-108458000D03*
X113030000Y-108458000D03*
D12*
X115570000Y-108458000D03*
D11*
X118110000Y-108458000D03*
X120650000Y-108458000D03*
D13*
X120520000Y-120073000D03*
X120520000Y-114623000D03*
D14*
X117490000Y-119773000D03*
X117490000Y-114923000D03*
%TD*%
D10*
%TO.C,H4*%
X73660000Y-151638000D03*
%TD*%
%TO.C,H1*%
X73660000Y-99314000D03*
%TD*%
M02*
