%TF.GenerationSoftware,KiCad,Pcbnew,(6.0.5-0)*%
%TF.CreationDate,2022-05-30T23:28:05+01:00*%
%TF.ProjectId,bms,626d732e-6b69-4636-9164-5f7063625858,rev?*%
%TF.SameCoordinates,Original*%
%TF.FileFunction,Copper,L2,Bot*%
%TF.FilePolarity,Positive*%
%FSLAX46Y46*%
G04 Gerber Fmt 4.6, Leading zero omitted, Abs format (unit mm)*
G04 Created by KiCad (PCBNEW (6.0.5-0)) date 2022-05-30 23:28:05*
%MOMM*%
%LPD*%
G01*
G04 APERTURE LIST*
%TA.AperFunction,ComponentPad*%
%ADD10O,1.700000X1.700000*%
%TD*%
%TA.AperFunction,ComponentPad*%
%ADD11R,1.700000X1.700000*%
%TD*%
%TA.AperFunction,ViaPad*%
%ADD12C,0.800000*%
%TD*%
%TA.AperFunction,Conductor*%
%ADD13C,0.250000*%
%TD*%
%TA.AperFunction,Conductor*%
%ADD14C,0.500000*%
%TD*%
G04 APERTURE END LIST*
D10*
%TO.P,U8,43,SWDIO*%
%TO.N,unconnected-(U8-Pad43)*%
X72620000Y-119888000D03*
D11*
%TO.P,U8,42,GND*%
%TO.N,unconnected-(U8-Pad42)*%
X72620000Y-117348000D03*
D10*
%TO.P,U8,41,SWCLK*%
%TO.N,unconnected-(U8-Pad41)*%
X72620000Y-114808000D03*
%TO.P,U8,40,VBUS*%
%TO.N,unconnected-(U8-Pad40)*%
X120650000Y-126238000D03*
%TO.P,U8,39,VSYS*%
%TO.N,Net-(D1-Pad1)*%
X118110000Y-126238000D03*
D11*
%TO.P,U8,38,GND*%
%TO.N,GND*%
X115570000Y-126238000D03*
D10*
%TO.P,U8,37,3V3_EN*%
%TO.N,unconnected-(U8-Pad37)*%
X113030000Y-126238000D03*
%TO.P,U8,36,3V3*%
%TO.N,3V*%
X110490000Y-126238000D03*
%TO.P,U8,35,ADC_VREF*%
%TO.N,unconnected-(U8-Pad35)*%
X107950000Y-126238000D03*
%TO.P,U8,34,GPIO28_ADC2*%
%TO.N,unconnected-(U8-Pad34)*%
X105410000Y-126238000D03*
D11*
%TO.P,U8,33,AGND*%
%TO.N,unconnected-(U8-Pad33)*%
X102870000Y-126238000D03*
D10*
%TO.P,U8,32,GPIO27_ADC1*%
%TO.N,unconnected-(U8-Pad32)*%
X100330000Y-126238000D03*
%TO.P,U8,31,GPIO26_ADC0*%
%TO.N,8MHz*%
X97790000Y-126238000D03*
%TO.P,U8,30,RUN*%
%TO.N,unconnected-(U8-Pad30)*%
X95250000Y-126238000D03*
%TO.P,U8,29,GPIO22*%
%TO.N,BATT_1_CS*%
X92710000Y-126238000D03*
D11*
%TO.P,U8,28,GND*%
%TO.N,unconnected-(U8-Pad28)*%
X90170000Y-126238000D03*
D10*
%TO.P,U8,27,GPIO21*%
%TO.N,unconnected-(U8-Pad27)*%
X87630000Y-126238000D03*
%TO.P,U8,26,GPIO20*%
%TO.N,unconnected-(U8-Pad26)*%
X85090000Y-126238000D03*
%TO.P,U8,25,GPIO19*%
%TO.N,SPI0_MOSI*%
X82550000Y-126238000D03*
%TO.P,U8,24,GPIO18*%
%TO.N,SPI0_CLK*%
X80010000Y-126238000D03*
D11*
%TO.P,U8,23,GND*%
%TO.N,unconnected-(U8-Pad23)*%
X77470000Y-126238000D03*
D10*
%TO.P,U8,22,GPIO17*%
%TO.N,MAIN_CAN_CS*%
X74930000Y-126238000D03*
%TO.P,U8,21,GPIO16*%
%TO.N,SPI0_MISO*%
X72390000Y-126238000D03*
%TO.P,U8,20,GPIO15*%
%TO.N,BATT_2_CS*%
X72390000Y-108458000D03*
%TO.P,U8,19,GPIO14*%
%TO.N,unconnected-(U8-Pad19)*%
X74930000Y-108458000D03*
D11*
%TO.P,U8,18,GND*%
%TO.N,GND*%
X77470000Y-108458000D03*
D10*
%TO.P,U8,17,GPIO13*%
%TO.N,unconnected-(U8-Pad17)*%
X80010000Y-108458000D03*
%TO.P,U8,16,GPIO12*%
%TO.N,unconnected-(U8-Pad16)*%
X82550000Y-108458000D03*
%TO.P,U8,15,GPIO11*%
%TO.N,IGNITION_ON_IN_SIGNAL*%
X85090000Y-108458000D03*
%TO.P,U8,14,GPIO10*%
%TO.N,CHARGE_ENABLE_IN_SIGNAL*%
X87630000Y-108458000D03*
D11*
%TO.P,U8,13,GND*%
%TO.N,GND*%
X90170000Y-108458000D03*
D10*
%TO.P,U8,12,GPIO9*%
%TO.N,unconnected-(U8-Pad12)*%
X92710000Y-108458000D03*
%TO.P,U8,11,GPIO8*%
%TO.N,unconnected-(U8-Pad11)*%
X95250000Y-108458000D03*
%TO.P,U8,10,GPIO7*%
%TO.N,unconnected-(U8-Pad10)*%
X97790000Y-108458000D03*
%TO.P,U8,9,GPIO6*%
%TO.N,unconnected-(U8-Pad9)*%
X100330000Y-108458000D03*
D11*
%TO.P,U8,8,GND*%
%TO.N,GND*%
X102870000Y-108458000D03*
D10*
%TO.P,U8,7,GPIO5*%
%TO.N,unconnected-(U8-Pad7)*%
X105410000Y-108458000D03*
%TO.P,U8,6,GPIO4*%
%TO.N,unconnected-(U8-Pad6)*%
X107950000Y-108458000D03*
%TO.P,U8,5,GPIO3*%
%TO.N,BATT_2_CONTACTOR_SIGNAL*%
X110490000Y-108458000D03*
%TO.P,U8,4,GPIO2*%
%TO.N,BATT_1_CONTACTOR_SIGNAL*%
X113030000Y-108458000D03*
D11*
%TO.P,U8,3,GND*%
%TO.N,GND*%
X115570000Y-108458000D03*
D10*
%TO.P,U8,2,GPIO1*%
%TO.N,UART_RX*%
X118110000Y-108458000D03*
%TO.P,U8,1,GPIO0*%
%TO.N,UART_TX*%
X120650000Y-108458000D03*
%TD*%
D12*
%TO.N,BATT_2_CS*%
X78232000Y-135382000D03*
%TO.N,SPI0_MISO*%
X96139000Y-134112000D03*
%TO.N,SPI0_MOSI*%
X97155000Y-135128000D03*
%TO.N,SPI0_CLK*%
X98171000Y-136144000D03*
%TO.N,3V*%
X95250000Y-133096000D03*
%TO.N,SPI0_MISO*%
X87757000Y-134112000D03*
%TO.N,SPI0_MOSI*%
X88773000Y-135128000D03*
%TO.N,SPI0_CLK*%
X89789000Y-136144000D03*
%TO.N,3V*%
X86868000Y-133096000D03*
%TO.N,GND*%
X83566000Y-99314000D03*
%TO.N,3V*%
X96065009Y-148647531D03*
X78826000Y-133055000D03*
X79502000Y-148590000D03*
X87499042Y-148647531D03*
%TO.N,GND*%
X88769042Y-149917531D03*
X80772000Y-149860000D03*
X97335009Y-149917531D03*
%TO.N,SPI0_CLK*%
X81747000Y-136103000D03*
%TO.N,SPI0_MOSI*%
X80731000Y-135087000D03*
%TO.N,SPI0_MISO*%
X79715000Y-134071000D03*
%TD*%
D13*
%TO.N,BATT_2_CS*%
X77724000Y-134874000D02*
X78232000Y-135382000D01*
X75184000Y-134874000D02*
X77724000Y-134874000D01*
X73660000Y-134874000D02*
X75184000Y-134874000D01*
X72390000Y-108458000D02*
X74676000Y-110744000D01*
X70612000Y-131826000D02*
X73660000Y-134874000D01*
X73406000Y-123190000D02*
X71882000Y-123190000D01*
X74676000Y-121920000D02*
X73406000Y-123190000D01*
X74676000Y-110744000D02*
X74676000Y-121920000D01*
X71882000Y-123190000D02*
X70612000Y-124460000D01*
X70612000Y-124460000D02*
X70612000Y-131826000D01*
%TO.N,3V*%
X95250000Y-133096000D02*
X102616000Y-133096000D01*
X101346000Y-134366000D02*
X102616000Y-133096000D01*
X102616000Y-133096000D02*
X109220000Y-133096000D01*
X96065009Y-148647531D02*
X99002469Y-148647531D01*
X99002469Y-148647531D02*
X101346000Y-146304000D01*
X101346000Y-146304000D02*
X101346000Y-134366000D01*
X109220000Y-133096000D02*
X110490000Y-131826000D01*
X110490000Y-131826000D02*
X110490000Y-126238000D01*
%TO.N,SPI0_CLK*%
X77691969Y-133651732D02*
X77691969Y-132585267D01*
X77691969Y-132585267D02*
X78356268Y-131920969D01*
X80143236Y-136103000D02*
X77691969Y-133651732D01*
X81747000Y-136103000D02*
X80143236Y-136103000D01*
X78356268Y-131920969D02*
X79153031Y-131920969D01*
X79153031Y-131920969D02*
X80010000Y-131064000D01*
X80010000Y-131064000D02*
X80010000Y-126238000D01*
%TO.N,SPI0_MOSI*%
X80731000Y-135087000D02*
X79734670Y-135087000D01*
X78121489Y-133473819D02*
X78121489Y-132763181D01*
X78534181Y-132350489D02*
X81263511Y-132350489D01*
X78121489Y-132763181D02*
X78534181Y-132350489D01*
X79734670Y-135087000D02*
X78121489Y-133473819D01*
X81263511Y-132350489D02*
X82550000Y-131064000D01*
X82550000Y-131064000D02*
X82550000Y-126238000D01*
%TO.N,SPI0_CLK*%
X89789000Y-136144000D02*
X98171000Y-136144000D01*
X81747000Y-136103000D02*
X89748000Y-136103000D01*
X89748000Y-136103000D02*
X89789000Y-136144000D01*
%TO.N,SPI0_MOSI*%
X88773000Y-135128000D02*
X97155000Y-135128000D01*
X80731000Y-135087000D02*
X88732000Y-135087000D01*
X88732000Y-135087000D02*
X88773000Y-135128000D01*
%TO.N,SPI0_MISO*%
X87757000Y-134112000D02*
X96139000Y-134112000D01*
X79715000Y-134071000D02*
X79756000Y-134112000D01*
X79756000Y-134112000D02*
X87757000Y-134112000D01*
%TO.N,3V*%
X86868000Y-133096000D02*
X95250000Y-133096000D01*
X78826000Y-133055000D02*
X86827000Y-133055000D01*
X86827000Y-133055000D02*
X86868000Y-133096000D01*
D14*
%TO.N,GND*%
X89916000Y-110998000D02*
X83820000Y-110998000D01*
D13*
X83704511Y-99452511D02*
X83704511Y-110882511D01*
D14*
X83820000Y-110998000D02*
X79248000Y-110998000D01*
D13*
X83566000Y-99314000D02*
X83704511Y-99452511D01*
X83704511Y-110882511D02*
X83820000Y-110998000D01*
D14*
X102870000Y-110998000D02*
X89916000Y-110998000D01*
D13*
X90170000Y-108458000D02*
X90170000Y-110744000D01*
X90170000Y-110744000D02*
X89916000Y-110998000D01*
D14*
X113030000Y-110998000D02*
X102870000Y-110998000D01*
X102870000Y-110998000D02*
X102870000Y-108458000D01*
X77470000Y-109220000D02*
X77470000Y-108458000D01*
X115570000Y-108458000D02*
X113030000Y-110998000D01*
X79248000Y-110998000D02*
X77470000Y-109220000D01*
X115570000Y-126238000D02*
X115570000Y-108458000D01*
D13*
%TO.N,3V*%
X87499042Y-148647531D02*
X96065009Y-148647531D01*
X79502000Y-148590000D02*
X87441511Y-148590000D01*
X87441511Y-148590000D02*
X87499042Y-148647531D01*
%TO.N,GND*%
X80772000Y-149860000D02*
X88711511Y-149860000D01*
X88711511Y-149860000D02*
X88769042Y-149917531D01*
X88769042Y-149917531D02*
X97335009Y-149917531D01*
%TD*%
M02*
