%TF.GenerationSoftware,KiCad,Pcbnew,(6.0.5-0)*%
%TF.CreationDate,2022-06-29T18:58:18+01:00*%
%TF.ProjectId,bms,626d732e-6b69-4636-9164-5f7063625858,rev?*%
%TF.SameCoordinates,Original*%
%TF.FileFunction,Copper,L2,Bot*%
%TF.FilePolarity,Positive*%
%FSLAX46Y46*%
G04 Gerber Fmt 4.6, Leading zero omitted, Abs format (unit mm)*
G04 Created by KiCad (PCBNEW (6.0.5-0)) date 2022-06-29 18:58:18*
%MOMM*%
%LPD*%
G01*
G04 APERTURE LIST*
%TA.AperFunction,ComponentPad*%
%ADD10O,1.700000X1.700000*%
%TD*%
%TA.AperFunction,ComponentPad*%
%ADD11R,1.700000X1.700000*%
%TD*%
%TA.AperFunction,ComponentPad*%
%ADD12C,6.400000*%
%TD*%
%TA.AperFunction,ComponentPad*%
%ADD13R,1.350000X1.350000*%
%TD*%
%TA.AperFunction,ComponentPad*%
%ADD14C,1.350000*%
%TD*%
%TA.AperFunction,ViaPad*%
%ADD15C,0.800000*%
%TD*%
%TA.AperFunction,Conductor*%
%ADD16C,0.250000*%
%TD*%
%TA.AperFunction,Conductor*%
%ADD17C,1.000000*%
%TD*%
G04 APERTURE END LIST*
D10*
X120650000Y-108458000D03*
X118110000Y-108458000D03*
D11*
X115570000Y-108458000D03*
D10*
X113030000Y-108458000D03*
X110490000Y-108458000D03*
X107950000Y-108458000D03*
X105410000Y-108458000D03*
D11*
X102870000Y-108458000D03*
D10*
X100330000Y-108458000D03*
X97790000Y-108458000D03*
X95250000Y-108458000D03*
X92710000Y-108458000D03*
D11*
X90170000Y-108458000D03*
D10*
X87630000Y-108458000D03*
X85090000Y-108458000D03*
X82550000Y-108458000D03*
X80010000Y-108458000D03*
D11*
X77470000Y-108458000D03*
D10*
X74930000Y-108458000D03*
X72390000Y-108458000D03*
X72390000Y-126238000D03*
X74930000Y-126238000D03*
D11*
X77470000Y-126238000D03*
D10*
X80010000Y-126238000D03*
X82550000Y-126238000D03*
X85090000Y-126238000D03*
X87630000Y-126238000D03*
D11*
X90170000Y-126238000D03*
D10*
X92710000Y-126238000D03*
X95250000Y-126238000D03*
X97790000Y-126238000D03*
X100330000Y-126238000D03*
D11*
X102870000Y-126238000D03*
D10*
X105410000Y-126238000D03*
X107950000Y-126238000D03*
X110490000Y-126238000D03*
X113030000Y-126238000D03*
D11*
X115570000Y-126238000D03*
D10*
X118110000Y-126238000D03*
X120650000Y-126238000D03*
X72620000Y-114808000D03*
D11*
X72620000Y-117348000D03*
D10*
X72620000Y-119888000D03*
D12*
X119000000Y-150000000D03*
X73500000Y-150000000D03*
X73500000Y-99000000D03*
X119000000Y-99000000D03*
D13*
X94488000Y-96774000D03*
D14*
X94488000Y-98774000D03*
X94488000Y-100774000D03*
D15*
X95250000Y-133096000D03*
X96065009Y-148647531D03*
X78826000Y-133055000D03*
X79502000Y-148590000D03*
X86868000Y-133096000D03*
X87499042Y-148647531D03*
X88769042Y-149917531D03*
X80772000Y-149860000D03*
X97335009Y-149917531D03*
X83566000Y-99314000D03*
X81747000Y-136103000D03*
X89789000Y-136144000D03*
X98171000Y-136144000D03*
X88773000Y-135128000D03*
X80731000Y-135087000D03*
X97155000Y-135128000D03*
X87757000Y-134112000D03*
X79715000Y-134071000D03*
X96139000Y-134112000D03*
X78232000Y-135382000D03*
D16*
X101346000Y-146304000D02*
X101346000Y-134366000D01*
X102616000Y-133096000D02*
X109220000Y-133096000D01*
X79502000Y-148590000D02*
X87441511Y-148590000D01*
X101346000Y-134366000D02*
X102616000Y-133096000D01*
X86827000Y-133055000D02*
X86868000Y-133096000D01*
X86868000Y-133096000D02*
X95250000Y-133096000D01*
X110490000Y-131826000D02*
X110490000Y-126238000D01*
X99002469Y-148647531D02*
X101346000Y-146304000D01*
X95250000Y-133096000D02*
X102616000Y-133096000D01*
X87499042Y-148647531D02*
X96065009Y-148647531D01*
X96065009Y-148647531D02*
X99002469Y-148647531D01*
X109220000Y-133096000D02*
X110490000Y-131826000D01*
X78826000Y-133055000D02*
X86827000Y-133055000D01*
X87441511Y-148590000D02*
X87499042Y-148647531D01*
D17*
X77470000Y-109220000D02*
X77470000Y-108458000D01*
D16*
X90170000Y-108458000D02*
X90170000Y-110744000D01*
X90170000Y-110744000D02*
X89916000Y-110998000D01*
D17*
X102870000Y-110998000D02*
X102870000Y-108458000D01*
X79248000Y-110998000D02*
X77470000Y-109220000D01*
X89916000Y-110998000D02*
X83820000Y-110998000D01*
X115570000Y-126238000D02*
X115570000Y-108458000D01*
X88769042Y-149917531D02*
X97335009Y-149917531D01*
X113030000Y-110998000D02*
X102870000Y-110998000D01*
D16*
X88711511Y-149860000D02*
X88769042Y-149917531D01*
D17*
X102870000Y-110998000D02*
X89916000Y-110998000D01*
X83820000Y-110998000D02*
X79248000Y-110998000D01*
D16*
X83704511Y-110882511D02*
X83820000Y-110998000D01*
X83704511Y-99452511D02*
X83704511Y-110882511D01*
D17*
X80772000Y-149860000D02*
X88711511Y-149860000D01*
D16*
X83566000Y-99314000D02*
X83704511Y-99452511D01*
D17*
X115570000Y-108458000D02*
X113030000Y-110998000D01*
D16*
X81747000Y-136103000D02*
X89748000Y-136103000D01*
X80143236Y-136103000D02*
X77691969Y-133651732D01*
X89748000Y-136103000D02*
X89789000Y-136144000D01*
X79153031Y-131920969D02*
X80010000Y-131064000D01*
X81747000Y-136103000D02*
X80143236Y-136103000D01*
X89789000Y-136144000D02*
X98171000Y-136144000D01*
X78356268Y-131920969D02*
X79153031Y-131920969D01*
X80010000Y-131064000D02*
X80010000Y-126238000D01*
X77691969Y-133651732D02*
X77691969Y-132585267D01*
X77691969Y-132585267D02*
X78356268Y-131920969D01*
X78121489Y-133473819D02*
X78121489Y-132763181D01*
X80731000Y-135087000D02*
X88732000Y-135087000D01*
X88773000Y-135128000D02*
X97155000Y-135128000D01*
X81263511Y-132350489D02*
X82550000Y-131064000D01*
X80731000Y-135087000D02*
X79734670Y-135087000D01*
X88732000Y-135087000D02*
X88773000Y-135128000D01*
X82550000Y-131064000D02*
X82550000Y-126238000D01*
X79734670Y-135087000D02*
X78121489Y-133473819D01*
X78121489Y-132763181D02*
X78534181Y-132350489D01*
X78534181Y-132350489D02*
X81263511Y-132350489D01*
X87757000Y-134112000D02*
X96139000Y-134112000D01*
X79715000Y-134071000D02*
X79756000Y-134112000D01*
X79756000Y-134112000D02*
X87757000Y-134112000D01*
X74676000Y-110744000D02*
X74676000Y-121920000D01*
X73406000Y-123190000D02*
X71882000Y-123190000D01*
X73660000Y-134874000D02*
X75184000Y-134874000D01*
X77724000Y-134874000D02*
X78232000Y-135382000D01*
X75184000Y-134874000D02*
X77724000Y-134874000D01*
X71882000Y-123190000D02*
X70612000Y-124460000D01*
X70612000Y-131826000D02*
X73660000Y-134874000D01*
X74676000Y-121920000D02*
X73406000Y-123190000D01*
X72390000Y-108458000D02*
X74676000Y-110744000D01*
X70612000Y-124460000D02*
X70612000Y-131826000D01*
X99491914Y-104218480D02*
X96774000Y-101500566D01*
X120650000Y-108458000D02*
X116410480Y-104218480D01*
X96774000Y-101500566D02*
X96774000Y-99060000D01*
X116410480Y-104218480D02*
X99491914Y-104218480D01*
X96774000Y-99060000D02*
X94488000Y-96774000D01*
X96344480Y-101678480D02*
X96344480Y-100584000D01*
X114300000Y-104648000D02*
X99314000Y-104648000D01*
X99314000Y-104648000D02*
X96344480Y-101678480D01*
X96344480Y-100584000D02*
X94534480Y-98774000D01*
X94534480Y-98774000D02*
X94488000Y-98774000D01*
X118110000Y-108458000D02*
X114300000Y-104648000D01*
M02*
