%TF.GenerationSoftware,KiCad,Pcbnew,(6.0.5-0)*%
%TF.CreationDate,2022-06-29T18:58:19+01:00*%
%TF.ProjectId,bms,626d732e-6b69-4636-9164-5f7063625858,rev?*%
%TF.SameCoordinates,Original*%
%TF.FileFunction,Legend,Bot*%
%TF.FilePolarity,Positive*%
%FSLAX46Y46*%
G04 Gerber Fmt 4.6, Leading zero omitted, Abs format (unit mm)*
G04 Created by KiCad (PCBNEW (6.0.5-0)) date 2022-06-29 18:58:19*
%MOMM*%
%LPD*%
G01*
G04 APERTURE LIST*
%ADD10O,1.500000X1.500000*%
%ADD11O,1.800000X1.800000*%
%ADD12O,1.700000X1.700000*%
%ADD13R,1.700000X1.700000*%
%ADD14C,6.400000*%
%ADD15R,1.350000X1.350000*%
%ADD16C,1.350000*%
G04 APERTURE END LIST*
%LPC*%
D10*
X117490000Y-114923000D03*
X117490000Y-119773000D03*
D11*
X120520000Y-114623000D03*
X120520000Y-120073000D03*
D12*
X120650000Y-108458000D03*
X118110000Y-108458000D03*
D13*
X115570000Y-108458000D03*
D12*
X113030000Y-108458000D03*
X110490000Y-108458000D03*
X107950000Y-108458000D03*
X105410000Y-108458000D03*
D13*
X102870000Y-108458000D03*
D12*
X100330000Y-108458000D03*
X97790000Y-108458000D03*
X95250000Y-108458000D03*
X92710000Y-108458000D03*
D13*
X90170000Y-108458000D03*
D12*
X87630000Y-108458000D03*
X85090000Y-108458000D03*
X82550000Y-108458000D03*
X80010000Y-108458000D03*
D13*
X77470000Y-108458000D03*
D12*
X74930000Y-108458000D03*
X72390000Y-108458000D03*
X72390000Y-126238000D03*
X74930000Y-126238000D03*
D13*
X77470000Y-126238000D03*
D12*
X80010000Y-126238000D03*
X82550000Y-126238000D03*
X85090000Y-126238000D03*
X87630000Y-126238000D03*
D13*
X90170000Y-126238000D03*
D12*
X92710000Y-126238000D03*
X95250000Y-126238000D03*
X97790000Y-126238000D03*
X100330000Y-126238000D03*
D13*
X102870000Y-126238000D03*
D12*
X105410000Y-126238000D03*
X107950000Y-126238000D03*
X110490000Y-126238000D03*
X113030000Y-126238000D03*
D13*
X115570000Y-126238000D03*
D12*
X118110000Y-126238000D03*
X120650000Y-126238000D03*
X72620000Y-114808000D03*
D13*
X72620000Y-117348000D03*
D12*
X72620000Y-119888000D03*
D14*
X119000000Y-150000000D03*
X73500000Y-150000000D03*
X73500000Y-99000000D03*
X119000000Y-99000000D03*
D15*
X94488000Y-96774000D03*
D16*
X94488000Y-98774000D03*
X94488000Y-100774000D03*
M02*
