%FSLAX45Y45*%
G04 Gerber Fmt 4.5, Leading zero omitted, Abs format (unit mm)*
G04 Created by KiCad (PCBNEW (6.0.5-0)) date 2022-06-29 18:59:21*
%MOMM*%
%LPD*%
G01*
G04 APERTURE LIST*
%TA.AperFunction,Profile*%
%ADD10C,0.200000*%
%TD*%
%ADD11C,0.200000*%
%ADD12C,0.150000*%
%ADD13C,0.180000*%
G04 APERTURE END LIST*
D10*
X12255500Y-16827500D02*
X12255500Y-8204200D01*
X6985000Y-8204200D02*
X12255500Y-8204200D01*
X6985000Y-16827500D02*
X12255500Y-16827500D01*
X6985000Y-16827500D02*
X6985000Y-8204200D01*
D11*
D12*
X11674000Y-11417300D02*
X11824000Y-11567300D01*
X11824000Y-11417300D02*
X11674000Y-11567300D01*
X11674000Y-11902300D02*
X11824000Y-12052300D01*
X11824000Y-11902300D02*
X11674000Y-12052300D01*
D13*
X12142000Y-11462300D02*
G75*
G03*
X12142000Y-11462300I-90000J0D01*
G01*
X12142000Y-12007300D02*
G75*
G03*
X12142000Y-12007300I-90000J0D01*
G01*
D11*
X7232619Y-17147976D02*
X7232619Y-16947976D01*
X7280238Y-16947976D01*
X7308809Y-16957500D01*
X7327857Y-16976548D01*
X7337381Y-16995595D01*
X7346905Y-17033690D01*
X7346905Y-17062262D01*
X7337381Y-17100357D01*
X7327857Y-17119405D01*
X7308809Y-17138452D01*
X7280238Y-17147976D01*
X7232619Y-17147976D01*
X7432619Y-17147976D02*
X7432619Y-17014643D01*
X7432619Y-17052738D02*
X7442143Y-17033690D01*
X7451667Y-17024167D01*
X7470714Y-17014643D01*
X7489762Y-17014643D01*
X7556428Y-17147976D02*
X7556428Y-17014643D01*
X7556428Y-16947976D02*
X7546905Y-16957500D01*
X7556428Y-16967024D01*
X7565952Y-16957500D01*
X7556428Y-16947976D01*
X7556428Y-16967024D01*
X7680238Y-17147976D02*
X7661190Y-17138452D01*
X7651667Y-17119405D01*
X7651667Y-16947976D01*
X7785000Y-17147976D02*
X7765952Y-17138452D01*
X7756428Y-17119405D01*
X7756428Y-16947976D01*
X8013571Y-17147976D02*
X8013571Y-16947976D01*
X8080238Y-17090833D01*
X8146905Y-16947976D01*
X8146905Y-17147976D01*
X8327857Y-17147976D02*
X8327857Y-17043214D01*
X8318333Y-17024167D01*
X8299286Y-17014643D01*
X8261190Y-17014643D01*
X8242143Y-17024167D01*
X8327857Y-17138452D02*
X8308809Y-17147976D01*
X8261190Y-17147976D01*
X8242143Y-17138452D01*
X8232619Y-17119405D01*
X8232619Y-17100357D01*
X8242143Y-17081310D01*
X8261190Y-17071786D01*
X8308809Y-17071786D01*
X8327857Y-17062262D01*
X8423095Y-17014643D02*
X8423095Y-17214643D01*
X8423095Y-17024167D02*
X8442143Y-17014643D01*
X8480238Y-17014643D01*
X8499286Y-17024167D01*
X8508810Y-17033690D01*
X8518333Y-17052738D01*
X8518333Y-17109881D01*
X8508810Y-17128929D01*
X8499286Y-17138452D01*
X8480238Y-17147976D01*
X8442143Y-17147976D01*
X8423095Y-17138452D01*
X8604048Y-17128929D02*
X8613571Y-17138452D01*
X8604048Y-17147976D01*
X8594524Y-17138452D01*
X8604048Y-17128929D01*
X8604048Y-17147976D01*
X8604048Y-17024167D02*
X8613571Y-17033690D01*
X8604048Y-17043214D01*
X8594524Y-17033690D01*
X8604048Y-17024167D01*
X8604048Y-17043214D01*
D12*
X6825000Y-17402500D02*
X6975000Y-17552500D01*
X6975000Y-17402500D02*
X6825000Y-17552500D01*
D11*
X7337381Y-17567976D02*
X7223095Y-17567976D01*
X7280238Y-17567976D02*
X7280238Y-17367976D01*
X7261190Y-17396548D01*
X7242143Y-17415595D01*
X7223095Y-17425119D01*
X7423095Y-17548929D02*
X7432619Y-17558452D01*
X7423095Y-17567976D01*
X7413571Y-17558452D01*
X7423095Y-17548929D01*
X7423095Y-17567976D01*
X7613571Y-17367976D02*
X7518333Y-17367976D01*
X7508809Y-17463214D01*
X7518333Y-17453690D01*
X7537381Y-17444167D01*
X7585000Y-17444167D01*
X7604048Y-17453690D01*
X7613571Y-17463214D01*
X7623095Y-17482262D01*
X7623095Y-17529881D01*
X7613571Y-17548929D01*
X7604048Y-17558452D01*
X7585000Y-17567976D01*
X7537381Y-17567976D01*
X7518333Y-17558452D01*
X7508809Y-17548929D01*
X7746905Y-17367976D02*
X7765952Y-17367976D01*
X7785000Y-17377500D01*
X7794524Y-17387024D01*
X7804048Y-17406071D01*
X7813571Y-17444167D01*
X7813571Y-17491786D01*
X7804048Y-17529881D01*
X7794524Y-17548929D01*
X7785000Y-17558452D01*
X7765952Y-17567976D01*
X7746905Y-17567976D01*
X7727857Y-17558452D01*
X7718333Y-17548929D01*
X7708809Y-17529881D01*
X7699286Y-17491786D01*
X7699286Y-17444167D01*
X7708809Y-17406071D01*
X7718333Y-17387024D01*
X7727857Y-17377500D01*
X7746905Y-17367976D01*
X7937381Y-17367976D02*
X7956428Y-17367976D01*
X7975476Y-17377500D01*
X7985000Y-17387024D01*
X7994524Y-17406071D01*
X8004048Y-17444167D01*
X8004048Y-17491786D01*
X7994524Y-17529881D01*
X7985000Y-17548929D01*
X7975476Y-17558452D01*
X7956428Y-17567976D01*
X7937381Y-17567976D01*
X7918333Y-17558452D01*
X7908809Y-17548929D01*
X7899286Y-17529881D01*
X7889762Y-17491786D01*
X7889762Y-17444167D01*
X7899286Y-17406071D01*
X7908809Y-17387024D01*
X7918333Y-17377500D01*
X7937381Y-17367976D01*
X8089762Y-17567976D02*
X8089762Y-17434643D01*
X8089762Y-17453690D02*
X8099286Y-17444167D01*
X8118333Y-17434643D01*
X8146905Y-17434643D01*
X8165952Y-17444167D01*
X8175476Y-17463214D01*
X8175476Y-17567976D01*
X8175476Y-17463214D02*
X8185000Y-17444167D01*
X8204048Y-17434643D01*
X8232619Y-17434643D01*
X8251667Y-17444167D01*
X8261190Y-17463214D01*
X8261190Y-17567976D01*
X8356428Y-17567976D02*
X8356428Y-17434643D01*
X8356428Y-17453690D02*
X8365952Y-17444167D01*
X8385000Y-17434643D01*
X8413571Y-17434643D01*
X8432619Y-17444167D01*
X8442143Y-17463214D01*
X8442143Y-17567976D01*
X8442143Y-17463214D02*
X8451667Y-17444167D01*
X8470714Y-17434643D01*
X8499286Y-17434643D01*
X8518333Y-17444167D01*
X8527857Y-17463214D01*
X8527857Y-17567976D01*
X8918333Y-17358452D02*
X8746905Y-17615595D01*
X9175476Y-17367976D02*
X9194524Y-17367976D01*
X9213571Y-17377500D01*
X9223095Y-17387024D01*
X9232619Y-17406071D01*
X9242143Y-17444167D01*
X9242143Y-17491786D01*
X9232619Y-17529881D01*
X9223095Y-17548929D01*
X9213571Y-17558452D01*
X9194524Y-17567976D01*
X9175476Y-17567976D01*
X9156429Y-17558452D01*
X9146905Y-17548929D01*
X9137381Y-17529881D01*
X9127857Y-17491786D01*
X9127857Y-17444167D01*
X9137381Y-17406071D01*
X9146905Y-17387024D01*
X9156429Y-17377500D01*
X9175476Y-17367976D01*
X9327857Y-17548929D02*
X9337381Y-17558452D01*
X9327857Y-17567976D01*
X9318333Y-17558452D01*
X9327857Y-17548929D01*
X9327857Y-17567976D01*
X9461190Y-17367976D02*
X9480238Y-17367976D01*
X9499286Y-17377500D01*
X9508810Y-17387024D01*
X9518333Y-17406071D01*
X9527857Y-17444167D01*
X9527857Y-17491786D01*
X9518333Y-17529881D01*
X9508810Y-17548929D01*
X9499286Y-17558452D01*
X9480238Y-17567976D01*
X9461190Y-17567976D01*
X9442143Y-17558452D01*
X9432619Y-17548929D01*
X9423095Y-17529881D01*
X9413571Y-17491786D01*
X9413571Y-17444167D01*
X9423095Y-17406071D01*
X9432619Y-17387024D01*
X9442143Y-17377500D01*
X9461190Y-17367976D01*
X9708810Y-17367976D02*
X9613571Y-17367976D01*
X9604048Y-17463214D01*
X9613571Y-17453690D01*
X9632619Y-17444167D01*
X9680238Y-17444167D01*
X9699286Y-17453690D01*
X9708810Y-17463214D01*
X9718333Y-17482262D01*
X9718333Y-17529881D01*
X9708810Y-17548929D01*
X9699286Y-17558452D01*
X9680238Y-17567976D01*
X9632619Y-17567976D01*
X9613571Y-17558452D01*
X9604048Y-17548929D01*
X9813571Y-17567976D02*
X9851667Y-17567976D01*
X9870714Y-17558452D01*
X9880238Y-17548929D01*
X9899286Y-17520357D01*
X9908810Y-17482262D01*
X9908810Y-17406071D01*
X9899286Y-17387024D01*
X9889762Y-17377500D01*
X9870714Y-17367976D01*
X9832619Y-17367976D01*
X9813571Y-17377500D01*
X9804048Y-17387024D01*
X9794524Y-17406071D01*
X9794524Y-17453690D01*
X9804048Y-17472738D01*
X9813571Y-17482262D01*
X9832619Y-17491786D01*
X9870714Y-17491786D01*
X9889762Y-17482262D01*
X9899286Y-17472738D01*
X9908810Y-17453690D01*
X10099286Y-17567976D02*
X9985000Y-17567976D01*
X10042143Y-17567976D02*
X10042143Y-17367976D01*
X10023095Y-17396548D01*
X10004048Y-17415595D01*
X9985000Y-17425119D01*
X10175476Y-17367976D02*
X10175476Y-17406071D01*
X10251667Y-17367976D02*
X10251667Y-17406071D01*
X10546905Y-17644167D02*
X10537381Y-17634643D01*
X10518333Y-17606071D01*
X10508810Y-17587024D01*
X10499286Y-17558452D01*
X10489762Y-17510833D01*
X10489762Y-17472738D01*
X10499286Y-17425119D01*
X10508810Y-17396548D01*
X10518333Y-17377500D01*
X10537381Y-17348929D01*
X10546905Y-17339405D01*
X10613571Y-17387024D02*
X10623095Y-17377500D01*
X10642143Y-17367976D01*
X10689762Y-17367976D01*
X10708810Y-17377500D01*
X10718333Y-17387024D01*
X10727857Y-17406071D01*
X10727857Y-17425119D01*
X10718333Y-17453690D01*
X10604048Y-17567976D01*
X10727857Y-17567976D01*
X10965952Y-17567976D02*
X10965952Y-17367976D01*
X11051667Y-17567976D02*
X11051667Y-17463214D01*
X11042143Y-17444167D01*
X11023095Y-17434643D01*
X10994524Y-17434643D01*
X10975476Y-17444167D01*
X10965952Y-17453690D01*
X11175476Y-17567976D02*
X11156429Y-17558452D01*
X11146905Y-17548929D01*
X11137381Y-17529881D01*
X11137381Y-17472738D01*
X11146905Y-17453690D01*
X11156429Y-17444167D01*
X11175476Y-17434643D01*
X11204048Y-17434643D01*
X11223095Y-17444167D01*
X11232619Y-17453690D01*
X11242143Y-17472738D01*
X11242143Y-17529881D01*
X11232619Y-17548929D01*
X11223095Y-17558452D01*
X11204048Y-17567976D01*
X11175476Y-17567976D01*
X11356428Y-17567976D02*
X11337381Y-17558452D01*
X11327857Y-17539405D01*
X11327857Y-17367976D01*
X11508809Y-17558452D02*
X11489762Y-17567976D01*
X11451667Y-17567976D01*
X11432619Y-17558452D01*
X11423095Y-17539405D01*
X11423095Y-17463214D01*
X11432619Y-17444167D01*
X11451667Y-17434643D01*
X11489762Y-17434643D01*
X11508809Y-17444167D01*
X11518333Y-17463214D01*
X11518333Y-17482262D01*
X11423095Y-17501310D01*
X11594524Y-17558452D02*
X11613571Y-17567976D01*
X11651667Y-17567976D01*
X11670714Y-17558452D01*
X11680238Y-17539405D01*
X11680238Y-17529881D01*
X11670714Y-17510833D01*
X11651667Y-17501310D01*
X11623095Y-17501310D01*
X11604048Y-17491786D01*
X11594524Y-17472738D01*
X11594524Y-17463214D01*
X11604048Y-17444167D01*
X11623095Y-17434643D01*
X11651667Y-17434643D01*
X11670714Y-17444167D01*
X11746905Y-17644167D02*
X11756428Y-17634643D01*
X11775476Y-17606071D01*
X11785000Y-17587024D01*
X11794524Y-17558452D01*
X11804048Y-17510833D01*
X11804048Y-17472738D01*
X11794524Y-17425119D01*
X11785000Y-17396548D01*
X11775476Y-17377500D01*
X11756428Y-17348929D01*
X11746905Y-17339405D01*
X12108809Y-17644167D02*
X12099286Y-17634643D01*
X12080238Y-17606071D01*
X12070714Y-17587024D01*
X12061190Y-17558452D01*
X12051667Y-17510833D01*
X12051667Y-17472738D01*
X12061190Y-17425119D01*
X12070714Y-17396548D01*
X12080238Y-17377500D01*
X12099286Y-17348929D01*
X12108809Y-17339405D01*
X12185000Y-17434643D02*
X12185000Y-17567976D01*
X12185000Y-17453690D02*
X12194524Y-17444167D01*
X12213571Y-17434643D01*
X12242143Y-17434643D01*
X12261190Y-17444167D01*
X12270714Y-17463214D01*
X12270714Y-17567976D01*
X12394524Y-17567976D02*
X12375476Y-17558452D01*
X12365952Y-17548929D01*
X12356428Y-17529881D01*
X12356428Y-17472738D01*
X12365952Y-17453690D01*
X12375476Y-17444167D01*
X12394524Y-17434643D01*
X12423095Y-17434643D01*
X12442143Y-17444167D01*
X12451667Y-17453690D01*
X12461190Y-17472738D01*
X12461190Y-17529881D01*
X12451667Y-17548929D01*
X12442143Y-17558452D01*
X12423095Y-17567976D01*
X12394524Y-17567976D01*
X12518333Y-17434643D02*
X12594524Y-17434643D01*
X12546905Y-17367976D02*
X12546905Y-17539405D01*
X12556428Y-17558452D01*
X12575476Y-17567976D01*
X12594524Y-17567976D01*
X12813571Y-17434643D02*
X12813571Y-17634643D01*
X12813571Y-17444167D02*
X12832619Y-17434643D01*
X12870714Y-17434643D01*
X12889762Y-17444167D01*
X12899286Y-17453690D01*
X12908809Y-17472738D01*
X12908809Y-17529881D01*
X12899286Y-17548929D01*
X12889762Y-17558452D01*
X12870714Y-17567976D01*
X12832619Y-17567976D01*
X12813571Y-17558452D01*
X13023095Y-17567976D02*
X13004048Y-17558452D01*
X12994524Y-17539405D01*
X12994524Y-17367976D01*
X13185000Y-17567976D02*
X13185000Y-17463214D01*
X13175476Y-17444167D01*
X13156428Y-17434643D01*
X13118333Y-17434643D01*
X13099286Y-17444167D01*
X13185000Y-17558452D02*
X13165952Y-17567976D01*
X13118333Y-17567976D01*
X13099286Y-17558452D01*
X13089762Y-17539405D01*
X13089762Y-17520357D01*
X13099286Y-17501310D01*
X13118333Y-17491786D01*
X13165952Y-17491786D01*
X13185000Y-17482262D01*
X13251667Y-17434643D02*
X13327857Y-17434643D01*
X13280238Y-17367976D02*
X13280238Y-17539405D01*
X13289762Y-17558452D01*
X13308809Y-17567976D01*
X13327857Y-17567976D01*
X13470714Y-17558452D02*
X13451667Y-17567976D01*
X13413571Y-17567976D01*
X13394524Y-17558452D01*
X13385000Y-17539405D01*
X13385000Y-17463214D01*
X13394524Y-17444167D01*
X13413571Y-17434643D01*
X13451667Y-17434643D01*
X13470714Y-17444167D01*
X13480238Y-17463214D01*
X13480238Y-17482262D01*
X13385000Y-17501310D01*
X13651667Y-17567976D02*
X13651667Y-17367976D01*
X13651667Y-17558452D02*
X13632619Y-17567976D01*
X13594524Y-17567976D01*
X13575476Y-17558452D01*
X13565952Y-17548929D01*
X13556428Y-17529881D01*
X13556428Y-17472738D01*
X13565952Y-17453690D01*
X13575476Y-17444167D01*
X13594524Y-17434643D01*
X13632619Y-17434643D01*
X13651667Y-17444167D01*
X13727857Y-17644167D02*
X13737381Y-17634643D01*
X13756428Y-17606071D01*
X13765952Y-17587024D01*
X13775476Y-17558452D01*
X13785000Y-17510833D01*
X13785000Y-17472738D01*
X13775476Y-17425119D01*
X13765952Y-17396548D01*
X13756428Y-17377500D01*
X13737381Y-17348929D01*
X13727857Y-17339405D01*
D13*
X6975000Y-17747500D02*
G75*
G03*
X6975000Y-17747500I-90000J0D01*
G01*
D11*
X7337381Y-17837976D02*
X7223095Y-17837976D01*
X7280238Y-17837976D02*
X7280238Y-17637976D01*
X7261190Y-17666548D01*
X7242143Y-17685595D01*
X7223095Y-17695119D01*
X7423095Y-17818929D02*
X7432619Y-17828452D01*
X7423095Y-17837976D01*
X7413571Y-17828452D01*
X7423095Y-17818929D01*
X7423095Y-17837976D01*
X7546905Y-17723690D02*
X7527857Y-17714167D01*
X7518333Y-17704643D01*
X7508809Y-17685595D01*
X7508809Y-17676071D01*
X7518333Y-17657024D01*
X7527857Y-17647500D01*
X7546905Y-17637976D01*
X7585000Y-17637976D01*
X7604048Y-17647500D01*
X7613571Y-17657024D01*
X7623095Y-17676071D01*
X7623095Y-17685595D01*
X7613571Y-17704643D01*
X7604048Y-17714167D01*
X7585000Y-17723690D01*
X7546905Y-17723690D01*
X7527857Y-17733214D01*
X7518333Y-17742738D01*
X7508809Y-17761786D01*
X7508809Y-17799881D01*
X7518333Y-17818929D01*
X7527857Y-17828452D01*
X7546905Y-17837976D01*
X7585000Y-17837976D01*
X7604048Y-17828452D01*
X7613571Y-17818929D01*
X7623095Y-17799881D01*
X7623095Y-17761786D01*
X7613571Y-17742738D01*
X7604048Y-17733214D01*
X7585000Y-17723690D01*
X7746905Y-17637976D02*
X7765952Y-17637976D01*
X7785000Y-17647500D01*
X7794524Y-17657024D01*
X7804048Y-17676071D01*
X7813571Y-17714167D01*
X7813571Y-17761786D01*
X7804048Y-17799881D01*
X7794524Y-17818929D01*
X7785000Y-17828452D01*
X7765952Y-17837976D01*
X7746905Y-17837976D01*
X7727857Y-17828452D01*
X7718333Y-17818929D01*
X7708809Y-17799881D01*
X7699286Y-17761786D01*
X7699286Y-17714167D01*
X7708809Y-17676071D01*
X7718333Y-17657024D01*
X7727857Y-17647500D01*
X7746905Y-17637976D01*
X7937381Y-17637976D02*
X7956428Y-17637976D01*
X7975476Y-17647500D01*
X7985000Y-17657024D01*
X7994524Y-17676071D01*
X8004048Y-17714167D01*
X8004048Y-17761786D01*
X7994524Y-17799881D01*
X7985000Y-17818929D01*
X7975476Y-17828452D01*
X7956428Y-17837976D01*
X7937381Y-17837976D01*
X7918333Y-17828452D01*
X7908809Y-17818929D01*
X7899286Y-17799881D01*
X7889762Y-17761786D01*
X7889762Y-17714167D01*
X7899286Y-17676071D01*
X7908809Y-17657024D01*
X7918333Y-17647500D01*
X7937381Y-17637976D01*
X8089762Y-17837976D02*
X8089762Y-17704643D01*
X8089762Y-17723690D02*
X8099286Y-17714167D01*
X8118333Y-17704643D01*
X8146905Y-17704643D01*
X8165952Y-17714167D01*
X8175476Y-17733214D01*
X8175476Y-17837976D01*
X8175476Y-17733214D02*
X8185000Y-17714167D01*
X8204048Y-17704643D01*
X8232619Y-17704643D01*
X8251667Y-17714167D01*
X8261190Y-17733214D01*
X8261190Y-17837976D01*
X8356428Y-17837976D02*
X8356428Y-17704643D01*
X8356428Y-17723690D02*
X8365952Y-17714167D01*
X8385000Y-17704643D01*
X8413571Y-17704643D01*
X8432619Y-17714167D01*
X8442143Y-17733214D01*
X8442143Y-17837976D01*
X8442143Y-17733214D02*
X8451667Y-17714167D01*
X8470714Y-17704643D01*
X8499286Y-17704643D01*
X8518333Y-17714167D01*
X8527857Y-17733214D01*
X8527857Y-17837976D01*
X8918333Y-17628452D02*
X8746905Y-17885595D01*
X9175476Y-17637976D02*
X9194524Y-17637976D01*
X9213571Y-17647500D01*
X9223095Y-17657024D01*
X9232619Y-17676071D01*
X9242143Y-17714167D01*
X9242143Y-17761786D01*
X9232619Y-17799881D01*
X9223095Y-17818929D01*
X9213571Y-17828452D01*
X9194524Y-17837976D01*
X9175476Y-17837976D01*
X9156429Y-17828452D01*
X9146905Y-17818929D01*
X9137381Y-17799881D01*
X9127857Y-17761786D01*
X9127857Y-17714167D01*
X9137381Y-17676071D01*
X9146905Y-17657024D01*
X9156429Y-17647500D01*
X9175476Y-17637976D01*
X9327857Y-17818929D02*
X9337381Y-17828452D01*
X9327857Y-17837976D01*
X9318333Y-17828452D01*
X9327857Y-17818929D01*
X9327857Y-17837976D01*
X9461190Y-17637976D02*
X9480238Y-17637976D01*
X9499286Y-17647500D01*
X9508810Y-17657024D01*
X9518333Y-17676071D01*
X9527857Y-17714167D01*
X9527857Y-17761786D01*
X9518333Y-17799881D01*
X9508810Y-17818929D01*
X9499286Y-17828452D01*
X9480238Y-17837976D01*
X9461190Y-17837976D01*
X9442143Y-17828452D01*
X9432619Y-17818929D01*
X9423095Y-17799881D01*
X9413571Y-17761786D01*
X9413571Y-17714167D01*
X9423095Y-17676071D01*
X9432619Y-17657024D01*
X9442143Y-17647500D01*
X9461190Y-17637976D01*
X9594524Y-17637976D02*
X9727857Y-17637976D01*
X9642143Y-17837976D01*
X9842143Y-17637976D02*
X9861190Y-17637976D01*
X9880238Y-17647500D01*
X9889762Y-17657024D01*
X9899286Y-17676071D01*
X9908810Y-17714167D01*
X9908810Y-17761786D01*
X9899286Y-17799881D01*
X9889762Y-17818929D01*
X9880238Y-17828452D01*
X9861190Y-17837976D01*
X9842143Y-17837976D01*
X9823095Y-17828452D01*
X9813571Y-17818929D01*
X9804048Y-17799881D01*
X9794524Y-17761786D01*
X9794524Y-17714167D01*
X9804048Y-17676071D01*
X9813571Y-17657024D01*
X9823095Y-17647500D01*
X9842143Y-17637976D01*
X10004048Y-17837976D02*
X10042143Y-17837976D01*
X10061190Y-17828452D01*
X10070714Y-17818929D01*
X10089762Y-17790357D01*
X10099286Y-17752262D01*
X10099286Y-17676071D01*
X10089762Y-17657024D01*
X10080238Y-17647500D01*
X10061190Y-17637976D01*
X10023095Y-17637976D01*
X10004048Y-17647500D01*
X9994524Y-17657024D01*
X9985000Y-17676071D01*
X9985000Y-17723690D01*
X9994524Y-17742738D01*
X10004048Y-17752262D01*
X10023095Y-17761786D01*
X10061190Y-17761786D01*
X10080238Y-17752262D01*
X10089762Y-17742738D01*
X10099286Y-17723690D01*
X10175476Y-17637976D02*
X10175476Y-17676071D01*
X10251667Y-17637976D02*
X10251667Y-17676071D01*
X10546905Y-17914167D02*
X10537381Y-17904643D01*
X10518333Y-17876071D01*
X10508810Y-17857024D01*
X10499286Y-17828452D01*
X10489762Y-17780833D01*
X10489762Y-17742738D01*
X10499286Y-17695119D01*
X10508810Y-17666548D01*
X10518333Y-17647500D01*
X10537381Y-17618929D01*
X10546905Y-17609405D01*
X10613571Y-17657024D02*
X10623095Y-17647500D01*
X10642143Y-17637976D01*
X10689762Y-17637976D01*
X10708810Y-17647500D01*
X10718333Y-17657024D01*
X10727857Y-17676071D01*
X10727857Y-17695119D01*
X10718333Y-17723690D01*
X10604048Y-17837976D01*
X10727857Y-17837976D01*
X10965952Y-17837976D02*
X10965952Y-17637976D01*
X11051667Y-17837976D02*
X11051667Y-17733214D01*
X11042143Y-17714167D01*
X11023095Y-17704643D01*
X10994524Y-17704643D01*
X10975476Y-17714167D01*
X10965952Y-17723690D01*
X11175476Y-17837976D02*
X11156429Y-17828452D01*
X11146905Y-17818929D01*
X11137381Y-17799881D01*
X11137381Y-17742738D01*
X11146905Y-17723690D01*
X11156429Y-17714167D01*
X11175476Y-17704643D01*
X11204048Y-17704643D01*
X11223095Y-17714167D01*
X11232619Y-17723690D01*
X11242143Y-17742738D01*
X11242143Y-17799881D01*
X11232619Y-17818929D01*
X11223095Y-17828452D01*
X11204048Y-17837976D01*
X11175476Y-17837976D01*
X11356428Y-17837976D02*
X11337381Y-17828452D01*
X11327857Y-17809405D01*
X11327857Y-17637976D01*
X11508809Y-17828452D02*
X11489762Y-17837976D01*
X11451667Y-17837976D01*
X11432619Y-17828452D01*
X11423095Y-17809405D01*
X11423095Y-17733214D01*
X11432619Y-17714167D01*
X11451667Y-17704643D01*
X11489762Y-17704643D01*
X11508809Y-17714167D01*
X11518333Y-17733214D01*
X11518333Y-17752262D01*
X11423095Y-17771310D01*
X11594524Y-17828452D02*
X11613571Y-17837976D01*
X11651667Y-17837976D01*
X11670714Y-17828452D01*
X11680238Y-17809405D01*
X11680238Y-17799881D01*
X11670714Y-17780833D01*
X11651667Y-17771310D01*
X11623095Y-17771310D01*
X11604048Y-17761786D01*
X11594524Y-17742738D01*
X11594524Y-17733214D01*
X11604048Y-17714167D01*
X11623095Y-17704643D01*
X11651667Y-17704643D01*
X11670714Y-17714167D01*
X11746905Y-17914167D02*
X11756428Y-17904643D01*
X11775476Y-17876071D01*
X11785000Y-17857024D01*
X11794524Y-17828452D01*
X11804048Y-17780833D01*
X11804048Y-17742738D01*
X11794524Y-17695119D01*
X11785000Y-17666548D01*
X11775476Y-17647500D01*
X11756428Y-17618929D01*
X11746905Y-17609405D01*
X12108809Y-17914167D02*
X12099286Y-17904643D01*
X12080238Y-17876071D01*
X12070714Y-17857024D01*
X12061190Y-17828452D01*
X12051667Y-17780833D01*
X12051667Y-17742738D01*
X12061190Y-17695119D01*
X12070714Y-17666548D01*
X12080238Y-17647500D01*
X12099286Y-17618929D01*
X12108809Y-17609405D01*
X12185000Y-17704643D02*
X12185000Y-17837976D01*
X12185000Y-17723690D02*
X12194524Y-17714167D01*
X12213571Y-17704643D01*
X12242143Y-17704643D01*
X12261190Y-17714167D01*
X12270714Y-17733214D01*
X12270714Y-17837976D01*
X12394524Y-17837976D02*
X12375476Y-17828452D01*
X12365952Y-17818929D01*
X12356428Y-17799881D01*
X12356428Y-17742738D01*
X12365952Y-17723690D01*
X12375476Y-17714167D01*
X12394524Y-17704643D01*
X12423095Y-17704643D01*
X12442143Y-17714167D01*
X12451667Y-17723690D01*
X12461190Y-17742738D01*
X12461190Y-17799881D01*
X12451667Y-17818929D01*
X12442143Y-17828452D01*
X12423095Y-17837976D01*
X12394524Y-17837976D01*
X12518333Y-17704643D02*
X12594524Y-17704643D01*
X12546905Y-17637976D02*
X12546905Y-17809405D01*
X12556428Y-17828452D01*
X12575476Y-17837976D01*
X12594524Y-17837976D01*
X12813571Y-17704643D02*
X12813571Y-17904643D01*
X12813571Y-17714167D02*
X12832619Y-17704643D01*
X12870714Y-17704643D01*
X12889762Y-17714167D01*
X12899286Y-17723690D01*
X12908809Y-17742738D01*
X12908809Y-17799881D01*
X12899286Y-17818929D01*
X12889762Y-17828452D01*
X12870714Y-17837976D01*
X12832619Y-17837976D01*
X12813571Y-17828452D01*
X13023095Y-17837976D02*
X13004048Y-17828452D01*
X12994524Y-17809405D01*
X12994524Y-17637976D01*
X13185000Y-17837976D02*
X13185000Y-17733214D01*
X13175476Y-17714167D01*
X13156428Y-17704643D01*
X13118333Y-17704643D01*
X13099286Y-17714167D01*
X13185000Y-17828452D02*
X13165952Y-17837976D01*
X13118333Y-17837976D01*
X13099286Y-17828452D01*
X13089762Y-17809405D01*
X13089762Y-17790357D01*
X13099286Y-17771310D01*
X13118333Y-17761786D01*
X13165952Y-17761786D01*
X13185000Y-17752262D01*
X13251667Y-17704643D02*
X13327857Y-17704643D01*
X13280238Y-17637976D02*
X13280238Y-17809405D01*
X13289762Y-17828452D01*
X13308809Y-17837976D01*
X13327857Y-17837976D01*
X13470714Y-17828452D02*
X13451667Y-17837976D01*
X13413571Y-17837976D01*
X13394524Y-17828452D01*
X13385000Y-17809405D01*
X13385000Y-17733214D01*
X13394524Y-17714167D01*
X13413571Y-17704643D01*
X13451667Y-17704643D01*
X13470714Y-17714167D01*
X13480238Y-17733214D01*
X13480238Y-17752262D01*
X13385000Y-17771310D01*
X13651667Y-17837976D02*
X13651667Y-17637976D01*
X13651667Y-17828452D02*
X13632619Y-17837976D01*
X13594524Y-17837976D01*
X13575476Y-17828452D01*
X13565952Y-17818929D01*
X13556428Y-17799881D01*
X13556428Y-17742738D01*
X13565952Y-17723690D01*
X13575476Y-17714167D01*
X13594524Y-17704643D01*
X13632619Y-17704643D01*
X13651667Y-17714167D01*
X13727857Y-17914167D02*
X13737381Y-17904643D01*
X13756428Y-17876071D01*
X13765952Y-17857024D01*
X13775476Y-17828452D01*
X13785000Y-17780833D01*
X13785000Y-17742738D01*
X13775476Y-17695119D01*
X13765952Y-17666548D01*
X13756428Y-17647500D01*
X13737381Y-17618929D01*
X13727857Y-17609405D01*
M02*
