%FSLAX45Y45*%
G04 Gerber Fmt 4.5, Leading zero omitted, Abs format (unit mm)*
G04 Created by KiCad (PCBNEW (6.0.5-0)) date 2022-06-29 18:59:21*
%MOMM*%
%LPD*%
G01*
G04 APERTURE LIST*
%TA.AperFunction,Profile*%
%ADD10C,0.200000*%
%TD*%
%ADD11C,0.200000*%
%ADD12C,0.040000*%
%ADD13C,0.090000*%
%ADD14C,0.102000*%
%ADD15C,0.320000*%
G04 APERTURE END LIST*
D10*
X12255500Y-16827500D02*
X12255500Y-8204200D01*
X6985000Y-8204200D02*
X12255500Y-8204200D01*
X6985000Y-16827500D02*
X12255500Y-16827500D01*
X6985000Y-16827500D02*
X6985000Y-8204200D01*
D11*
D12*
X7803200Y-13518200D02*
X7843200Y-13558200D01*
X7843200Y-13518200D02*
X7803200Y-13558200D01*
X7862600Y-13285500D02*
X7902600Y-13325500D01*
X7902600Y-13285500D02*
X7862600Y-13325500D01*
X7930200Y-14839000D02*
X7970200Y-14879000D01*
X7970200Y-14839000D02*
X7930200Y-14879000D01*
X7951500Y-13387100D02*
X7991500Y-13427100D01*
X7991500Y-13387100D02*
X7951500Y-13427100D01*
X8053100Y-13488700D02*
X8093100Y-13528700D01*
X8093100Y-13488700D02*
X8053100Y-13528700D01*
X8057200Y-14966000D02*
X8097200Y-15006000D01*
X8097200Y-14966000D02*
X8057200Y-15006000D01*
X8154700Y-13590300D02*
X8194700Y-13630300D01*
X8194700Y-13590300D02*
X8154700Y-13630300D01*
X8336600Y-9911400D02*
X8376600Y-9951400D01*
X8376600Y-9911400D02*
X8336600Y-9951400D01*
X8666800Y-13289600D02*
X8706800Y-13329600D01*
X8706800Y-13289600D02*
X8666800Y-13329600D01*
X8729904Y-14844753D02*
X8769904Y-14884753D01*
X8769904Y-14844753D02*
X8729904Y-14884753D01*
X8755700Y-13391200D02*
X8795700Y-13431200D01*
X8795700Y-13391200D02*
X8755700Y-13431200D01*
X8856904Y-14971753D02*
X8896904Y-15011753D01*
X8896904Y-14971753D02*
X8856904Y-15011753D01*
X8857300Y-13492800D02*
X8897300Y-13532800D01*
X8897300Y-13492800D02*
X8857300Y-13532800D01*
X8958900Y-13594400D02*
X8998900Y-13634400D01*
X8998900Y-13594400D02*
X8958900Y-13634400D01*
X9505000Y-13289600D02*
X9545000Y-13329600D01*
X9545000Y-13289600D02*
X9505000Y-13329600D01*
X9586501Y-14844753D02*
X9626501Y-14884753D01*
X9626501Y-14844753D02*
X9586501Y-14884753D01*
X9593900Y-13391200D02*
X9633900Y-13431200D01*
X9633900Y-13391200D02*
X9593900Y-13431200D01*
X9695500Y-13492800D02*
X9735500Y-13532800D01*
X9735500Y-13492800D02*
X9695500Y-13532800D01*
X9713501Y-14971753D02*
X9753501Y-15011753D01*
X9753501Y-14971753D02*
X9713501Y-15011753D01*
X9797100Y-13594400D02*
X9837100Y-13634400D01*
X9837100Y-13594400D02*
X9797100Y-13634400D01*
D13*
X9493800Y-9677400D02*
G75*
G03*
X9493800Y-9677400I-45000J0D01*
G01*
X9493800Y-9877400D02*
G75*
G03*
X9493800Y-9877400I-45000J0D01*
G01*
X9493800Y-10077400D02*
G75*
G03*
X9493800Y-10077400I-45000J0D01*
G01*
D14*
X7239000Y-10794800D02*
X7239000Y-10896800D01*
X7188000Y-10845800D02*
X7290000Y-10845800D01*
X7239000Y-12572800D02*
X7239000Y-12674800D01*
X7188000Y-12623800D02*
X7290000Y-12623800D01*
X7262000Y-11429800D02*
X7262000Y-11531800D01*
X7211000Y-11480800D02*
X7313000Y-11480800D01*
X7262000Y-11683800D02*
X7262000Y-11785800D01*
X7211000Y-11734800D02*
X7313000Y-11734800D01*
X7262000Y-11937800D02*
X7262000Y-12039800D01*
X7211000Y-11988800D02*
X7313000Y-11988800D01*
X7493000Y-10794800D02*
X7493000Y-10896800D01*
X7442000Y-10845800D02*
X7544000Y-10845800D01*
X7493000Y-12572800D02*
X7493000Y-12674800D01*
X7442000Y-12623800D02*
X7544000Y-12623800D01*
X7747000Y-10794800D02*
X7747000Y-10896800D01*
X7696000Y-10845800D02*
X7798000Y-10845800D01*
X7747000Y-12572800D02*
X7747000Y-12674800D01*
X7696000Y-12623800D02*
X7798000Y-12623800D01*
X8001000Y-10794800D02*
X8001000Y-10896800D01*
X7950000Y-10845800D02*
X8052000Y-10845800D01*
X8001000Y-12572800D02*
X8001000Y-12674800D01*
X7950000Y-12623800D02*
X8052000Y-12623800D01*
X8255000Y-10794800D02*
X8255000Y-10896800D01*
X8204000Y-10845800D02*
X8306000Y-10845800D01*
X8255000Y-12572800D02*
X8255000Y-12674800D01*
X8204000Y-12623800D02*
X8306000Y-12623800D01*
X8509000Y-10794800D02*
X8509000Y-10896800D01*
X8458000Y-10845800D02*
X8560000Y-10845800D01*
X8509000Y-12572800D02*
X8509000Y-12674800D01*
X8458000Y-12623800D02*
X8560000Y-12623800D01*
X8763000Y-10794800D02*
X8763000Y-10896800D01*
X8712000Y-10845800D02*
X8814000Y-10845800D01*
X8763000Y-12572800D02*
X8763000Y-12674800D01*
X8712000Y-12623800D02*
X8814000Y-12623800D01*
X9017000Y-10794800D02*
X9017000Y-10896800D01*
X8966000Y-10845800D02*
X9068000Y-10845800D01*
X9017000Y-12572800D02*
X9017000Y-12674800D01*
X8966000Y-12623800D02*
X9068000Y-12623800D01*
X9271000Y-10794800D02*
X9271000Y-10896800D01*
X9220000Y-10845800D02*
X9322000Y-10845800D01*
X9271000Y-12572800D02*
X9271000Y-12674800D01*
X9220000Y-12623800D02*
X9322000Y-12623800D01*
X9525000Y-10794800D02*
X9525000Y-10896800D01*
X9474000Y-10845800D02*
X9576000Y-10845800D01*
X9525000Y-12572800D02*
X9525000Y-12674800D01*
X9474000Y-12623800D02*
X9576000Y-12623800D01*
X9779000Y-10794800D02*
X9779000Y-10896800D01*
X9728000Y-10845800D02*
X9830000Y-10845800D01*
X9779000Y-12572800D02*
X9779000Y-12674800D01*
X9728000Y-12623800D02*
X9830000Y-12623800D01*
X10033000Y-10794800D02*
X10033000Y-10896800D01*
X9982000Y-10845800D02*
X10084000Y-10845800D01*
X10033000Y-12572800D02*
X10033000Y-12674800D01*
X9982000Y-12623800D02*
X10084000Y-12623800D01*
X10287000Y-10794800D02*
X10287000Y-10896800D01*
X10236000Y-10845800D02*
X10338000Y-10845800D01*
X10287000Y-12572800D02*
X10287000Y-12674800D01*
X10236000Y-12623800D02*
X10338000Y-12623800D01*
X10541000Y-10794800D02*
X10541000Y-10896800D01*
X10490000Y-10845800D02*
X10592000Y-10845800D01*
X10541000Y-12572800D02*
X10541000Y-12674800D01*
X10490000Y-12623800D02*
X10592000Y-12623800D01*
X10795000Y-10794800D02*
X10795000Y-10896800D01*
X10744000Y-10845800D02*
X10846000Y-10845800D01*
X10795000Y-12572800D02*
X10795000Y-12674800D01*
X10744000Y-12623800D02*
X10846000Y-12623800D01*
X11049000Y-10794800D02*
X11049000Y-10896800D01*
X10998000Y-10845800D02*
X11100000Y-10845800D01*
X11049000Y-12572800D02*
X11049000Y-12674800D01*
X10998000Y-12623800D02*
X11100000Y-12623800D01*
X11303000Y-10794800D02*
X11303000Y-10896800D01*
X11252000Y-10845800D02*
X11354000Y-10845800D01*
X11303000Y-12572800D02*
X11303000Y-12674800D01*
X11252000Y-12623800D02*
X11354000Y-12623800D01*
X11557000Y-10794800D02*
X11557000Y-10896800D01*
X11506000Y-10845800D02*
X11608000Y-10845800D01*
X11557000Y-12572800D02*
X11557000Y-12674800D01*
X11506000Y-12623800D02*
X11608000Y-12623800D01*
X11811000Y-10794800D02*
X11811000Y-10896800D01*
X11760000Y-10845800D02*
X11862000Y-10845800D01*
X11811000Y-12572800D02*
X11811000Y-12674800D01*
X11760000Y-12623800D02*
X11862000Y-12623800D01*
X12065000Y-10794800D02*
X12065000Y-10896800D01*
X12014000Y-10845800D02*
X12116000Y-10845800D01*
X12065000Y-12572800D02*
X12065000Y-12674800D01*
X12014000Y-12623800D02*
X12116000Y-12623800D01*
D15*
X7463138Y-10013138D02*
X7463138Y-9786862D01*
X7236862Y-9786862D01*
X7236862Y-10013138D01*
X7463138Y-10013138D01*
X7463138Y-15113138D02*
X7463138Y-14886862D01*
X7236862Y-14886862D01*
X7236862Y-15113138D01*
X7463138Y-15113138D01*
X12013138Y-10013138D02*
X12013138Y-9786862D01*
X11786862Y-9786862D01*
X11786862Y-10013138D01*
X12013138Y-10013138D01*
X12013138Y-15113138D02*
X12013138Y-14886862D01*
X11786862Y-14886862D01*
X11786862Y-15113138D01*
X12013138Y-15113138D01*
D11*
X7232619Y-17147976D02*
X7232619Y-16947976D01*
X7280238Y-16947976D01*
X7308809Y-16957500D01*
X7327857Y-16976548D01*
X7337381Y-16995595D01*
X7346905Y-17033690D01*
X7346905Y-17062262D01*
X7337381Y-17100357D01*
X7327857Y-17119405D01*
X7308809Y-17138452D01*
X7280238Y-17147976D01*
X7232619Y-17147976D01*
X7432619Y-17147976D02*
X7432619Y-17014643D01*
X7432619Y-17052738D02*
X7442143Y-17033690D01*
X7451667Y-17024167D01*
X7470714Y-17014643D01*
X7489762Y-17014643D01*
X7556428Y-17147976D02*
X7556428Y-17014643D01*
X7556428Y-16947976D02*
X7546905Y-16957500D01*
X7556428Y-16967024D01*
X7565952Y-16957500D01*
X7556428Y-16947976D01*
X7556428Y-16967024D01*
X7680238Y-17147976D02*
X7661190Y-17138452D01*
X7651667Y-17119405D01*
X7651667Y-16947976D01*
X7785000Y-17147976D02*
X7765952Y-17138452D01*
X7756428Y-17119405D01*
X7756428Y-16947976D01*
X8013571Y-17147976D02*
X8013571Y-16947976D01*
X8080238Y-17090833D01*
X8146905Y-16947976D01*
X8146905Y-17147976D01*
X8327857Y-17147976D02*
X8327857Y-17043214D01*
X8318333Y-17024167D01*
X8299286Y-17014643D01*
X8261190Y-17014643D01*
X8242143Y-17024167D01*
X8327857Y-17138452D02*
X8308809Y-17147976D01*
X8261190Y-17147976D01*
X8242143Y-17138452D01*
X8232619Y-17119405D01*
X8232619Y-17100357D01*
X8242143Y-17081310D01*
X8261190Y-17071786D01*
X8308809Y-17071786D01*
X8327857Y-17062262D01*
X8423095Y-17014643D02*
X8423095Y-17214643D01*
X8423095Y-17024167D02*
X8442143Y-17014643D01*
X8480238Y-17014643D01*
X8499286Y-17024167D01*
X8508810Y-17033690D01*
X8518333Y-17052738D01*
X8518333Y-17109881D01*
X8508810Y-17128929D01*
X8499286Y-17138452D01*
X8480238Y-17147976D01*
X8442143Y-17147976D01*
X8423095Y-17138452D01*
X8604048Y-17128929D02*
X8613571Y-17138452D01*
X8604048Y-17147976D01*
X8594524Y-17138452D01*
X8604048Y-17128929D01*
X8604048Y-17147976D01*
X8604048Y-17024167D02*
X8613571Y-17033690D01*
X8604048Y-17043214D01*
X8594524Y-17033690D01*
X8604048Y-17024167D01*
X8604048Y-17043214D01*
D12*
X6935000Y-17457500D02*
X6975000Y-17497500D01*
X6975000Y-17457500D02*
X6935000Y-17497500D01*
D11*
X7270714Y-17367976D02*
X7289762Y-17367976D01*
X7308809Y-17377500D01*
X7318333Y-17387024D01*
X7327857Y-17406071D01*
X7337381Y-17444167D01*
X7337381Y-17491786D01*
X7327857Y-17529881D01*
X7318333Y-17548929D01*
X7308809Y-17558452D01*
X7289762Y-17567976D01*
X7270714Y-17567976D01*
X7251667Y-17558452D01*
X7242143Y-17548929D01*
X7232619Y-17529881D01*
X7223095Y-17491786D01*
X7223095Y-17444167D01*
X7232619Y-17406071D01*
X7242143Y-17387024D01*
X7251667Y-17377500D01*
X7270714Y-17367976D01*
X7423095Y-17548929D02*
X7432619Y-17558452D01*
X7423095Y-17567976D01*
X7413571Y-17558452D01*
X7423095Y-17548929D01*
X7423095Y-17567976D01*
X7604048Y-17434643D02*
X7604048Y-17567976D01*
X7556428Y-17358452D02*
X7508809Y-17501310D01*
X7632619Y-17501310D01*
X7746905Y-17367976D02*
X7765952Y-17367976D01*
X7785000Y-17377500D01*
X7794524Y-17387024D01*
X7804048Y-17406071D01*
X7813571Y-17444167D01*
X7813571Y-17491786D01*
X7804048Y-17529881D01*
X7794524Y-17548929D01*
X7785000Y-17558452D01*
X7765952Y-17567976D01*
X7746905Y-17567976D01*
X7727857Y-17558452D01*
X7718333Y-17548929D01*
X7708809Y-17529881D01*
X7699286Y-17491786D01*
X7699286Y-17444167D01*
X7708809Y-17406071D01*
X7718333Y-17387024D01*
X7727857Y-17377500D01*
X7746905Y-17367976D01*
X7937381Y-17367976D02*
X7956428Y-17367976D01*
X7975476Y-17377500D01*
X7985000Y-17387024D01*
X7994524Y-17406071D01*
X8004048Y-17444167D01*
X8004048Y-17491786D01*
X7994524Y-17529881D01*
X7985000Y-17548929D01*
X7975476Y-17558452D01*
X7956428Y-17567976D01*
X7937381Y-17567976D01*
X7918333Y-17558452D01*
X7908809Y-17548929D01*
X7899286Y-17529881D01*
X7889762Y-17491786D01*
X7889762Y-17444167D01*
X7899286Y-17406071D01*
X7908809Y-17387024D01*
X7918333Y-17377500D01*
X7937381Y-17367976D01*
X8089762Y-17567976D02*
X8089762Y-17434643D01*
X8089762Y-17453690D02*
X8099286Y-17444167D01*
X8118333Y-17434643D01*
X8146905Y-17434643D01*
X8165952Y-17444167D01*
X8175476Y-17463214D01*
X8175476Y-17567976D01*
X8175476Y-17463214D02*
X8185000Y-17444167D01*
X8204048Y-17434643D01*
X8232619Y-17434643D01*
X8251667Y-17444167D01*
X8261190Y-17463214D01*
X8261190Y-17567976D01*
X8356428Y-17567976D02*
X8356428Y-17434643D01*
X8356428Y-17453690D02*
X8365952Y-17444167D01*
X8385000Y-17434643D01*
X8413571Y-17434643D01*
X8432619Y-17444167D01*
X8442143Y-17463214D01*
X8442143Y-17567976D01*
X8442143Y-17463214D02*
X8451667Y-17444167D01*
X8470714Y-17434643D01*
X8499286Y-17434643D01*
X8518333Y-17444167D01*
X8527857Y-17463214D01*
X8527857Y-17567976D01*
X8918333Y-17358452D02*
X8746905Y-17615595D01*
X9175476Y-17367976D02*
X9194524Y-17367976D01*
X9213571Y-17377500D01*
X9223095Y-17387024D01*
X9232619Y-17406071D01*
X9242143Y-17444167D01*
X9242143Y-17491786D01*
X9232619Y-17529881D01*
X9223095Y-17548929D01*
X9213571Y-17558452D01*
X9194524Y-17567976D01*
X9175476Y-17567976D01*
X9156429Y-17558452D01*
X9146905Y-17548929D01*
X9137381Y-17529881D01*
X9127857Y-17491786D01*
X9127857Y-17444167D01*
X9137381Y-17406071D01*
X9146905Y-17387024D01*
X9156429Y-17377500D01*
X9175476Y-17367976D01*
X9327857Y-17548929D02*
X9337381Y-17558452D01*
X9327857Y-17567976D01*
X9318333Y-17558452D01*
X9327857Y-17548929D01*
X9327857Y-17567976D01*
X9461190Y-17367976D02*
X9480238Y-17367976D01*
X9499286Y-17377500D01*
X9508810Y-17387024D01*
X9518333Y-17406071D01*
X9527857Y-17444167D01*
X9527857Y-17491786D01*
X9518333Y-17529881D01*
X9508810Y-17548929D01*
X9499286Y-17558452D01*
X9480238Y-17567976D01*
X9461190Y-17567976D01*
X9442143Y-17558452D01*
X9432619Y-17548929D01*
X9423095Y-17529881D01*
X9413571Y-17491786D01*
X9413571Y-17444167D01*
X9423095Y-17406071D01*
X9432619Y-17387024D01*
X9442143Y-17377500D01*
X9461190Y-17367976D01*
X9718333Y-17567976D02*
X9604048Y-17567976D01*
X9661190Y-17567976D02*
X9661190Y-17367976D01*
X9642143Y-17396548D01*
X9623095Y-17415595D01*
X9604048Y-17425119D01*
X9899286Y-17367976D02*
X9804048Y-17367976D01*
X9794524Y-17463214D01*
X9804048Y-17453690D01*
X9823095Y-17444167D01*
X9870714Y-17444167D01*
X9889762Y-17453690D01*
X9899286Y-17463214D01*
X9908810Y-17482262D01*
X9908810Y-17529881D01*
X9899286Y-17548929D01*
X9889762Y-17558452D01*
X9870714Y-17567976D01*
X9823095Y-17567976D01*
X9804048Y-17558452D01*
X9794524Y-17548929D01*
X9975476Y-17367976D02*
X10108810Y-17367976D01*
X10023095Y-17567976D01*
X10175476Y-17367976D02*
X10175476Y-17406071D01*
X10251667Y-17367976D02*
X10251667Y-17406071D01*
X10546905Y-17644167D02*
X10537381Y-17634643D01*
X10518333Y-17606071D01*
X10508810Y-17587024D01*
X10499286Y-17558452D01*
X10489762Y-17510833D01*
X10489762Y-17472738D01*
X10499286Y-17425119D01*
X10508810Y-17396548D01*
X10518333Y-17377500D01*
X10537381Y-17348929D01*
X10546905Y-17339405D01*
X10613571Y-17387024D02*
X10623095Y-17377500D01*
X10642143Y-17367976D01*
X10689762Y-17367976D01*
X10708810Y-17377500D01*
X10718333Y-17387024D01*
X10727857Y-17406071D01*
X10727857Y-17425119D01*
X10718333Y-17453690D01*
X10604048Y-17567976D01*
X10727857Y-17567976D01*
X10851667Y-17367976D02*
X10870714Y-17367976D01*
X10889762Y-17377500D01*
X10899286Y-17387024D01*
X10908810Y-17406071D01*
X10918333Y-17444167D01*
X10918333Y-17491786D01*
X10908810Y-17529881D01*
X10899286Y-17548929D01*
X10889762Y-17558452D01*
X10870714Y-17567976D01*
X10851667Y-17567976D01*
X10832619Y-17558452D01*
X10823095Y-17548929D01*
X10813571Y-17529881D01*
X10804048Y-17491786D01*
X10804048Y-17444167D01*
X10813571Y-17406071D01*
X10823095Y-17387024D01*
X10832619Y-17377500D01*
X10851667Y-17367976D01*
X11156429Y-17567976D02*
X11156429Y-17367976D01*
X11242143Y-17567976D02*
X11242143Y-17463214D01*
X11232619Y-17444167D01*
X11213571Y-17434643D01*
X11185000Y-17434643D01*
X11165952Y-17444167D01*
X11156429Y-17453690D01*
X11365952Y-17567976D02*
X11346905Y-17558452D01*
X11337381Y-17548929D01*
X11327857Y-17529881D01*
X11327857Y-17472738D01*
X11337381Y-17453690D01*
X11346905Y-17444167D01*
X11365952Y-17434643D01*
X11394524Y-17434643D01*
X11413571Y-17444167D01*
X11423095Y-17453690D01*
X11432619Y-17472738D01*
X11432619Y-17529881D01*
X11423095Y-17548929D01*
X11413571Y-17558452D01*
X11394524Y-17567976D01*
X11365952Y-17567976D01*
X11546905Y-17567976D02*
X11527857Y-17558452D01*
X11518333Y-17539405D01*
X11518333Y-17367976D01*
X11699286Y-17558452D02*
X11680238Y-17567976D01*
X11642143Y-17567976D01*
X11623095Y-17558452D01*
X11613571Y-17539405D01*
X11613571Y-17463214D01*
X11623095Y-17444167D01*
X11642143Y-17434643D01*
X11680238Y-17434643D01*
X11699286Y-17444167D01*
X11708809Y-17463214D01*
X11708809Y-17482262D01*
X11613571Y-17501310D01*
X11785000Y-17558452D02*
X11804048Y-17567976D01*
X11842143Y-17567976D01*
X11861190Y-17558452D01*
X11870714Y-17539405D01*
X11870714Y-17529881D01*
X11861190Y-17510833D01*
X11842143Y-17501310D01*
X11813571Y-17501310D01*
X11794524Y-17491786D01*
X11785000Y-17472738D01*
X11785000Y-17463214D01*
X11794524Y-17444167D01*
X11813571Y-17434643D01*
X11842143Y-17434643D01*
X11861190Y-17444167D01*
X11937381Y-17644167D02*
X11946905Y-17634643D01*
X11965952Y-17606071D01*
X11975476Y-17587024D01*
X11985000Y-17558452D01*
X11994524Y-17510833D01*
X11994524Y-17472738D01*
X11985000Y-17425119D01*
X11975476Y-17396548D01*
X11965952Y-17377500D01*
X11946905Y-17348929D01*
X11937381Y-17339405D01*
D13*
X6975000Y-17741500D02*
G75*
G03*
X6975000Y-17741500I-45000J0D01*
G01*
D11*
X7270714Y-17631976D02*
X7289762Y-17631976D01*
X7308809Y-17641500D01*
X7318333Y-17651024D01*
X7327857Y-17670071D01*
X7337381Y-17708167D01*
X7337381Y-17755786D01*
X7327857Y-17793881D01*
X7318333Y-17812929D01*
X7308809Y-17822452D01*
X7289762Y-17831976D01*
X7270714Y-17831976D01*
X7251667Y-17822452D01*
X7242143Y-17812929D01*
X7232619Y-17793881D01*
X7223095Y-17755786D01*
X7223095Y-17708167D01*
X7232619Y-17670071D01*
X7242143Y-17651024D01*
X7251667Y-17641500D01*
X7270714Y-17631976D01*
X7423095Y-17812929D02*
X7432619Y-17822452D01*
X7423095Y-17831976D01*
X7413571Y-17822452D01*
X7423095Y-17812929D01*
X7423095Y-17831976D01*
X7527857Y-17831976D02*
X7565952Y-17831976D01*
X7585000Y-17822452D01*
X7594524Y-17812929D01*
X7613571Y-17784357D01*
X7623095Y-17746262D01*
X7623095Y-17670071D01*
X7613571Y-17651024D01*
X7604048Y-17641500D01*
X7585000Y-17631976D01*
X7546905Y-17631976D01*
X7527857Y-17641500D01*
X7518333Y-17651024D01*
X7508809Y-17670071D01*
X7508809Y-17717690D01*
X7518333Y-17736738D01*
X7527857Y-17746262D01*
X7546905Y-17755786D01*
X7585000Y-17755786D01*
X7604048Y-17746262D01*
X7613571Y-17736738D01*
X7623095Y-17717690D01*
X7746905Y-17631976D02*
X7765952Y-17631976D01*
X7785000Y-17641500D01*
X7794524Y-17651024D01*
X7804048Y-17670071D01*
X7813571Y-17708167D01*
X7813571Y-17755786D01*
X7804048Y-17793881D01*
X7794524Y-17812929D01*
X7785000Y-17822452D01*
X7765952Y-17831976D01*
X7746905Y-17831976D01*
X7727857Y-17822452D01*
X7718333Y-17812929D01*
X7708809Y-17793881D01*
X7699286Y-17755786D01*
X7699286Y-17708167D01*
X7708809Y-17670071D01*
X7718333Y-17651024D01*
X7727857Y-17641500D01*
X7746905Y-17631976D01*
X7937381Y-17631976D02*
X7956428Y-17631976D01*
X7975476Y-17641500D01*
X7985000Y-17651024D01*
X7994524Y-17670071D01*
X8004048Y-17708167D01*
X8004048Y-17755786D01*
X7994524Y-17793881D01*
X7985000Y-17812929D01*
X7975476Y-17822452D01*
X7956428Y-17831976D01*
X7937381Y-17831976D01*
X7918333Y-17822452D01*
X7908809Y-17812929D01*
X7899286Y-17793881D01*
X7889762Y-17755786D01*
X7889762Y-17708167D01*
X7899286Y-17670071D01*
X7908809Y-17651024D01*
X7918333Y-17641500D01*
X7937381Y-17631976D01*
X8089762Y-17831976D02*
X8089762Y-17698643D01*
X8089762Y-17717690D02*
X8099286Y-17708167D01*
X8118333Y-17698643D01*
X8146905Y-17698643D01*
X8165952Y-17708167D01*
X8175476Y-17727214D01*
X8175476Y-17831976D01*
X8175476Y-17727214D02*
X8185000Y-17708167D01*
X8204048Y-17698643D01*
X8232619Y-17698643D01*
X8251667Y-17708167D01*
X8261190Y-17727214D01*
X8261190Y-17831976D01*
X8356428Y-17831976D02*
X8356428Y-17698643D01*
X8356428Y-17717690D02*
X8365952Y-17708167D01*
X8385000Y-17698643D01*
X8413571Y-17698643D01*
X8432619Y-17708167D01*
X8442143Y-17727214D01*
X8442143Y-17831976D01*
X8442143Y-17727214D02*
X8451667Y-17708167D01*
X8470714Y-17698643D01*
X8499286Y-17698643D01*
X8518333Y-17708167D01*
X8527857Y-17727214D01*
X8527857Y-17831976D01*
X8918333Y-17622452D02*
X8746905Y-17879595D01*
X9175476Y-17631976D02*
X9194524Y-17631976D01*
X9213571Y-17641500D01*
X9223095Y-17651024D01*
X9232619Y-17670071D01*
X9242143Y-17708167D01*
X9242143Y-17755786D01*
X9232619Y-17793881D01*
X9223095Y-17812929D01*
X9213571Y-17822452D01*
X9194524Y-17831976D01*
X9175476Y-17831976D01*
X9156429Y-17822452D01*
X9146905Y-17812929D01*
X9137381Y-17793881D01*
X9127857Y-17755786D01*
X9127857Y-17708167D01*
X9137381Y-17670071D01*
X9146905Y-17651024D01*
X9156429Y-17641500D01*
X9175476Y-17631976D01*
X9327857Y-17812929D02*
X9337381Y-17822452D01*
X9327857Y-17831976D01*
X9318333Y-17822452D01*
X9327857Y-17812929D01*
X9327857Y-17831976D01*
X9461190Y-17631976D02*
X9480238Y-17631976D01*
X9499286Y-17641500D01*
X9508810Y-17651024D01*
X9518333Y-17670071D01*
X9527857Y-17708167D01*
X9527857Y-17755786D01*
X9518333Y-17793881D01*
X9508810Y-17812929D01*
X9499286Y-17822452D01*
X9480238Y-17831976D01*
X9461190Y-17831976D01*
X9442143Y-17822452D01*
X9432619Y-17812929D01*
X9423095Y-17793881D01*
X9413571Y-17755786D01*
X9413571Y-17708167D01*
X9423095Y-17670071D01*
X9432619Y-17651024D01*
X9442143Y-17641500D01*
X9461190Y-17631976D01*
X9594524Y-17631976D02*
X9718333Y-17631976D01*
X9651667Y-17708167D01*
X9680238Y-17708167D01*
X9699286Y-17717690D01*
X9708810Y-17727214D01*
X9718333Y-17746262D01*
X9718333Y-17793881D01*
X9708810Y-17812929D01*
X9699286Y-17822452D01*
X9680238Y-17831976D01*
X9623095Y-17831976D01*
X9604048Y-17822452D01*
X9594524Y-17812929D01*
X9899286Y-17631976D02*
X9804048Y-17631976D01*
X9794524Y-17727214D01*
X9804048Y-17717690D01*
X9823095Y-17708167D01*
X9870714Y-17708167D01*
X9889762Y-17717690D01*
X9899286Y-17727214D01*
X9908810Y-17746262D01*
X9908810Y-17793881D01*
X9899286Y-17812929D01*
X9889762Y-17822452D01*
X9870714Y-17831976D01*
X9823095Y-17831976D01*
X9804048Y-17822452D01*
X9794524Y-17812929D01*
X10080238Y-17698643D02*
X10080238Y-17831976D01*
X10032619Y-17622452D02*
X9985000Y-17765310D01*
X10108810Y-17765310D01*
X10175476Y-17631976D02*
X10175476Y-17670071D01*
X10251667Y-17631976D02*
X10251667Y-17670071D01*
X10546905Y-17908167D02*
X10537381Y-17898643D01*
X10518333Y-17870071D01*
X10508810Y-17851024D01*
X10499286Y-17822452D01*
X10489762Y-17774833D01*
X10489762Y-17736738D01*
X10499286Y-17689119D01*
X10508810Y-17660548D01*
X10518333Y-17641500D01*
X10537381Y-17612929D01*
X10546905Y-17603405D01*
X10604048Y-17631976D02*
X10727857Y-17631976D01*
X10661190Y-17708167D01*
X10689762Y-17708167D01*
X10708810Y-17717690D01*
X10718333Y-17727214D01*
X10727857Y-17746262D01*
X10727857Y-17793881D01*
X10718333Y-17812929D01*
X10708810Y-17822452D01*
X10689762Y-17831976D01*
X10632619Y-17831976D01*
X10613571Y-17822452D01*
X10604048Y-17812929D01*
X10965952Y-17831976D02*
X10965952Y-17631976D01*
X11051667Y-17831976D02*
X11051667Y-17727214D01*
X11042143Y-17708167D01*
X11023095Y-17698643D01*
X10994524Y-17698643D01*
X10975476Y-17708167D01*
X10965952Y-17717690D01*
X11175476Y-17831976D02*
X11156429Y-17822452D01*
X11146905Y-17812929D01*
X11137381Y-17793881D01*
X11137381Y-17736738D01*
X11146905Y-17717690D01*
X11156429Y-17708167D01*
X11175476Y-17698643D01*
X11204048Y-17698643D01*
X11223095Y-17708167D01*
X11232619Y-17717690D01*
X11242143Y-17736738D01*
X11242143Y-17793881D01*
X11232619Y-17812929D01*
X11223095Y-17822452D01*
X11204048Y-17831976D01*
X11175476Y-17831976D01*
X11356428Y-17831976D02*
X11337381Y-17822452D01*
X11327857Y-17803405D01*
X11327857Y-17631976D01*
X11508809Y-17822452D02*
X11489762Y-17831976D01*
X11451667Y-17831976D01*
X11432619Y-17822452D01*
X11423095Y-17803405D01*
X11423095Y-17727214D01*
X11432619Y-17708167D01*
X11451667Y-17698643D01*
X11489762Y-17698643D01*
X11508809Y-17708167D01*
X11518333Y-17727214D01*
X11518333Y-17746262D01*
X11423095Y-17765310D01*
X11594524Y-17822452D02*
X11613571Y-17831976D01*
X11651667Y-17831976D01*
X11670714Y-17822452D01*
X11680238Y-17803405D01*
X11680238Y-17793881D01*
X11670714Y-17774833D01*
X11651667Y-17765310D01*
X11623095Y-17765310D01*
X11604048Y-17755786D01*
X11594524Y-17736738D01*
X11594524Y-17727214D01*
X11604048Y-17708167D01*
X11623095Y-17698643D01*
X11651667Y-17698643D01*
X11670714Y-17708167D01*
X11746905Y-17908167D02*
X11756428Y-17898643D01*
X11775476Y-17870071D01*
X11785000Y-17851024D01*
X11794524Y-17822452D01*
X11804048Y-17774833D01*
X11804048Y-17736738D01*
X11794524Y-17689119D01*
X11785000Y-17660548D01*
X11775476Y-17641500D01*
X11756428Y-17612929D01*
X11746905Y-17603405D01*
D14*
X6924000Y-17954500D02*
X6924000Y-18056500D01*
X6873000Y-18005500D02*
X6975000Y-18005500D01*
D11*
X7337381Y-18095976D02*
X7223095Y-18095976D01*
X7280238Y-18095976D02*
X7280238Y-17895976D01*
X7261190Y-17924548D01*
X7242143Y-17943595D01*
X7223095Y-17953119D01*
X7423095Y-18076929D02*
X7432619Y-18086452D01*
X7423095Y-18095976D01*
X7413571Y-18086452D01*
X7423095Y-18076929D01*
X7423095Y-18095976D01*
X7556428Y-17895976D02*
X7575476Y-17895976D01*
X7594524Y-17905500D01*
X7604048Y-17915024D01*
X7613571Y-17934071D01*
X7623095Y-17972167D01*
X7623095Y-18019786D01*
X7613571Y-18057881D01*
X7604048Y-18076929D01*
X7594524Y-18086452D01*
X7575476Y-18095976D01*
X7556428Y-18095976D01*
X7537381Y-18086452D01*
X7527857Y-18076929D01*
X7518333Y-18057881D01*
X7508809Y-18019786D01*
X7508809Y-17972167D01*
X7518333Y-17934071D01*
X7527857Y-17915024D01*
X7537381Y-17905500D01*
X7556428Y-17895976D01*
X7699286Y-17915024D02*
X7708809Y-17905500D01*
X7727857Y-17895976D01*
X7775476Y-17895976D01*
X7794524Y-17905500D01*
X7804048Y-17915024D01*
X7813571Y-17934071D01*
X7813571Y-17953119D01*
X7804048Y-17981690D01*
X7689762Y-18095976D01*
X7813571Y-18095976D01*
X7937381Y-17895976D02*
X7956428Y-17895976D01*
X7975476Y-17905500D01*
X7985000Y-17915024D01*
X7994524Y-17934071D01*
X8004048Y-17972167D01*
X8004048Y-18019786D01*
X7994524Y-18057881D01*
X7985000Y-18076929D01*
X7975476Y-18086452D01*
X7956428Y-18095976D01*
X7937381Y-18095976D01*
X7918333Y-18086452D01*
X7908809Y-18076929D01*
X7899286Y-18057881D01*
X7889762Y-18019786D01*
X7889762Y-17972167D01*
X7899286Y-17934071D01*
X7908809Y-17915024D01*
X7918333Y-17905500D01*
X7937381Y-17895976D01*
X8089762Y-18095976D02*
X8089762Y-17962643D01*
X8089762Y-17981690D02*
X8099286Y-17972167D01*
X8118333Y-17962643D01*
X8146905Y-17962643D01*
X8165952Y-17972167D01*
X8175476Y-17991214D01*
X8175476Y-18095976D01*
X8175476Y-17991214D02*
X8185000Y-17972167D01*
X8204048Y-17962643D01*
X8232619Y-17962643D01*
X8251667Y-17972167D01*
X8261190Y-17991214D01*
X8261190Y-18095976D01*
X8356428Y-18095976D02*
X8356428Y-17962643D01*
X8356428Y-17981690D02*
X8365952Y-17972167D01*
X8385000Y-17962643D01*
X8413571Y-17962643D01*
X8432619Y-17972167D01*
X8442143Y-17991214D01*
X8442143Y-18095976D01*
X8442143Y-17991214D02*
X8451667Y-17972167D01*
X8470714Y-17962643D01*
X8499286Y-17962643D01*
X8518333Y-17972167D01*
X8527857Y-17991214D01*
X8527857Y-18095976D01*
X8918333Y-17886452D02*
X8746905Y-18143595D01*
X9175476Y-17895976D02*
X9194524Y-17895976D01*
X9213571Y-17905500D01*
X9223095Y-17915024D01*
X9232619Y-17934071D01*
X9242143Y-17972167D01*
X9242143Y-18019786D01*
X9232619Y-18057881D01*
X9223095Y-18076929D01*
X9213571Y-18086452D01*
X9194524Y-18095976D01*
X9175476Y-18095976D01*
X9156429Y-18086452D01*
X9146905Y-18076929D01*
X9137381Y-18057881D01*
X9127857Y-18019786D01*
X9127857Y-17972167D01*
X9137381Y-17934071D01*
X9146905Y-17915024D01*
X9156429Y-17905500D01*
X9175476Y-17895976D01*
X9327857Y-18076929D02*
X9337381Y-18086452D01*
X9327857Y-18095976D01*
X9318333Y-18086452D01*
X9327857Y-18076929D01*
X9327857Y-18095976D01*
X9461190Y-17895976D02*
X9480238Y-17895976D01*
X9499286Y-17905500D01*
X9508810Y-17915024D01*
X9518333Y-17934071D01*
X9527857Y-17972167D01*
X9527857Y-18019786D01*
X9518333Y-18057881D01*
X9508810Y-18076929D01*
X9499286Y-18086452D01*
X9480238Y-18095976D01*
X9461190Y-18095976D01*
X9442143Y-18086452D01*
X9432619Y-18076929D01*
X9423095Y-18057881D01*
X9413571Y-18019786D01*
X9413571Y-17972167D01*
X9423095Y-17934071D01*
X9432619Y-17915024D01*
X9442143Y-17905500D01*
X9461190Y-17895976D01*
X9699286Y-17962643D02*
X9699286Y-18095976D01*
X9651667Y-17886452D02*
X9604048Y-18029310D01*
X9727857Y-18029310D01*
X9842143Y-17895976D02*
X9861190Y-17895976D01*
X9880238Y-17905500D01*
X9889762Y-17915024D01*
X9899286Y-17934071D01*
X9908810Y-17972167D01*
X9908810Y-18019786D01*
X9899286Y-18057881D01*
X9889762Y-18076929D01*
X9880238Y-18086452D01*
X9861190Y-18095976D01*
X9842143Y-18095976D01*
X9823095Y-18086452D01*
X9813571Y-18076929D01*
X9804048Y-18057881D01*
X9794524Y-18019786D01*
X9794524Y-17972167D01*
X9804048Y-17934071D01*
X9813571Y-17915024D01*
X9823095Y-17905500D01*
X9842143Y-17895976D01*
X9985000Y-17915024D02*
X9994524Y-17905500D01*
X10013571Y-17895976D01*
X10061190Y-17895976D01*
X10080238Y-17905500D01*
X10089762Y-17915024D01*
X10099286Y-17934071D01*
X10099286Y-17953119D01*
X10089762Y-17981690D01*
X9975476Y-18095976D01*
X10099286Y-18095976D01*
X10175476Y-17895976D02*
X10175476Y-17934071D01*
X10251667Y-17895976D02*
X10251667Y-17934071D01*
X10546905Y-18172167D02*
X10537381Y-18162643D01*
X10518333Y-18134071D01*
X10508810Y-18115024D01*
X10499286Y-18086452D01*
X10489762Y-18038833D01*
X10489762Y-18000738D01*
X10499286Y-17953119D01*
X10508810Y-17924548D01*
X10518333Y-17905500D01*
X10537381Y-17876929D01*
X10546905Y-17867405D01*
X10708810Y-17962643D02*
X10708810Y-18095976D01*
X10661190Y-17886452D02*
X10613571Y-18029310D01*
X10737381Y-18029310D01*
X10794524Y-17895976D02*
X10918333Y-17895976D01*
X10851667Y-17972167D01*
X10880238Y-17972167D01*
X10899286Y-17981690D01*
X10908810Y-17991214D01*
X10918333Y-18010262D01*
X10918333Y-18057881D01*
X10908810Y-18076929D01*
X10899286Y-18086452D01*
X10880238Y-18095976D01*
X10823095Y-18095976D01*
X10804048Y-18086452D01*
X10794524Y-18076929D01*
X11156429Y-18095976D02*
X11156429Y-17895976D01*
X11242143Y-18095976D02*
X11242143Y-17991214D01*
X11232619Y-17972167D01*
X11213571Y-17962643D01*
X11185000Y-17962643D01*
X11165952Y-17972167D01*
X11156429Y-17981690D01*
X11365952Y-18095976D02*
X11346905Y-18086452D01*
X11337381Y-18076929D01*
X11327857Y-18057881D01*
X11327857Y-18000738D01*
X11337381Y-17981690D01*
X11346905Y-17972167D01*
X11365952Y-17962643D01*
X11394524Y-17962643D01*
X11413571Y-17972167D01*
X11423095Y-17981690D01*
X11432619Y-18000738D01*
X11432619Y-18057881D01*
X11423095Y-18076929D01*
X11413571Y-18086452D01*
X11394524Y-18095976D01*
X11365952Y-18095976D01*
X11546905Y-18095976D02*
X11527857Y-18086452D01*
X11518333Y-18067405D01*
X11518333Y-17895976D01*
X11699286Y-18086452D02*
X11680238Y-18095976D01*
X11642143Y-18095976D01*
X11623095Y-18086452D01*
X11613571Y-18067405D01*
X11613571Y-17991214D01*
X11623095Y-17972167D01*
X11642143Y-17962643D01*
X11680238Y-17962643D01*
X11699286Y-17972167D01*
X11708809Y-17991214D01*
X11708809Y-18010262D01*
X11613571Y-18029310D01*
X11785000Y-18086452D02*
X11804048Y-18095976D01*
X11842143Y-18095976D01*
X11861190Y-18086452D01*
X11870714Y-18067405D01*
X11870714Y-18057881D01*
X11861190Y-18038833D01*
X11842143Y-18029310D01*
X11813571Y-18029310D01*
X11794524Y-18019786D01*
X11785000Y-18000738D01*
X11785000Y-17991214D01*
X11794524Y-17972167D01*
X11813571Y-17962643D01*
X11842143Y-17962643D01*
X11861190Y-17972167D01*
X11937381Y-18172167D02*
X11946905Y-18162643D01*
X11965952Y-18134071D01*
X11975476Y-18115024D01*
X11985000Y-18086452D01*
X11994524Y-18038833D01*
X11994524Y-18000738D01*
X11985000Y-17953119D01*
X11975476Y-17924548D01*
X11965952Y-17905500D01*
X11946905Y-17876929D01*
X11937381Y-17867405D01*
X6945711Y-18340211D02*
X6945711Y-18198789D01*
X6804289Y-18198789D01*
X6804289Y-18340211D01*
X6945711Y-18340211D01*
X7213571Y-18159976D02*
X7337381Y-18159976D01*
X7270714Y-18236167D01*
X7299286Y-18236167D01*
X7318333Y-18245690D01*
X7327857Y-18255214D01*
X7337381Y-18274262D01*
X7337381Y-18321881D01*
X7327857Y-18340929D01*
X7318333Y-18350452D01*
X7299286Y-18359976D01*
X7242143Y-18359976D01*
X7223095Y-18350452D01*
X7213571Y-18340929D01*
X7423095Y-18340929D02*
X7432619Y-18350452D01*
X7423095Y-18359976D01*
X7413571Y-18350452D01*
X7423095Y-18340929D01*
X7423095Y-18359976D01*
X7508809Y-18179024D02*
X7518333Y-18169500D01*
X7537381Y-18159976D01*
X7585000Y-18159976D01*
X7604048Y-18169500D01*
X7613571Y-18179024D01*
X7623095Y-18198071D01*
X7623095Y-18217119D01*
X7613571Y-18245690D01*
X7499286Y-18359976D01*
X7623095Y-18359976D01*
X7746905Y-18159976D02*
X7765952Y-18159976D01*
X7785000Y-18169500D01*
X7794524Y-18179024D01*
X7804048Y-18198071D01*
X7813571Y-18236167D01*
X7813571Y-18283786D01*
X7804048Y-18321881D01*
X7794524Y-18340929D01*
X7785000Y-18350452D01*
X7765952Y-18359976D01*
X7746905Y-18359976D01*
X7727857Y-18350452D01*
X7718333Y-18340929D01*
X7708809Y-18321881D01*
X7699286Y-18283786D01*
X7699286Y-18236167D01*
X7708809Y-18198071D01*
X7718333Y-18179024D01*
X7727857Y-18169500D01*
X7746905Y-18159976D01*
X7937381Y-18159976D02*
X7956428Y-18159976D01*
X7975476Y-18169500D01*
X7985000Y-18179024D01*
X7994524Y-18198071D01*
X8004048Y-18236167D01*
X8004048Y-18283786D01*
X7994524Y-18321881D01*
X7985000Y-18340929D01*
X7975476Y-18350452D01*
X7956428Y-18359976D01*
X7937381Y-18359976D01*
X7918333Y-18350452D01*
X7908809Y-18340929D01*
X7899286Y-18321881D01*
X7889762Y-18283786D01*
X7889762Y-18236167D01*
X7899286Y-18198071D01*
X7908809Y-18179024D01*
X7918333Y-18169500D01*
X7937381Y-18159976D01*
X8089762Y-18359976D02*
X8089762Y-18226643D01*
X8089762Y-18245690D02*
X8099286Y-18236167D01*
X8118333Y-18226643D01*
X8146905Y-18226643D01*
X8165952Y-18236167D01*
X8175476Y-18255214D01*
X8175476Y-18359976D01*
X8175476Y-18255214D02*
X8185000Y-18236167D01*
X8204048Y-18226643D01*
X8232619Y-18226643D01*
X8251667Y-18236167D01*
X8261190Y-18255214D01*
X8261190Y-18359976D01*
X8356428Y-18359976D02*
X8356428Y-18226643D01*
X8356428Y-18245690D02*
X8365952Y-18236167D01*
X8385000Y-18226643D01*
X8413571Y-18226643D01*
X8432619Y-18236167D01*
X8442143Y-18255214D01*
X8442143Y-18359976D01*
X8442143Y-18255214D02*
X8451667Y-18236167D01*
X8470714Y-18226643D01*
X8499286Y-18226643D01*
X8518333Y-18236167D01*
X8527857Y-18255214D01*
X8527857Y-18359976D01*
X8918333Y-18150452D02*
X8746905Y-18407595D01*
X9175476Y-18159976D02*
X9194524Y-18159976D01*
X9213571Y-18169500D01*
X9223095Y-18179024D01*
X9232619Y-18198071D01*
X9242143Y-18236167D01*
X9242143Y-18283786D01*
X9232619Y-18321881D01*
X9223095Y-18340929D01*
X9213571Y-18350452D01*
X9194524Y-18359976D01*
X9175476Y-18359976D01*
X9156429Y-18350452D01*
X9146905Y-18340929D01*
X9137381Y-18321881D01*
X9127857Y-18283786D01*
X9127857Y-18236167D01*
X9137381Y-18198071D01*
X9146905Y-18179024D01*
X9156429Y-18169500D01*
X9175476Y-18159976D01*
X9327857Y-18340929D02*
X9337381Y-18350452D01*
X9327857Y-18359976D01*
X9318333Y-18350452D01*
X9327857Y-18340929D01*
X9327857Y-18359976D01*
X9527857Y-18359976D02*
X9413571Y-18359976D01*
X9470714Y-18359976D02*
X9470714Y-18159976D01*
X9451667Y-18188548D01*
X9432619Y-18207595D01*
X9413571Y-18217119D01*
X9604048Y-18179024D02*
X9613571Y-18169500D01*
X9632619Y-18159976D01*
X9680238Y-18159976D01*
X9699286Y-18169500D01*
X9708810Y-18179024D01*
X9718333Y-18198071D01*
X9718333Y-18217119D01*
X9708810Y-18245690D01*
X9594524Y-18359976D01*
X9718333Y-18359976D01*
X9889762Y-18159976D02*
X9851667Y-18159976D01*
X9832619Y-18169500D01*
X9823095Y-18179024D01*
X9804048Y-18207595D01*
X9794524Y-18245690D01*
X9794524Y-18321881D01*
X9804048Y-18340929D01*
X9813571Y-18350452D01*
X9832619Y-18359976D01*
X9870714Y-18359976D01*
X9889762Y-18350452D01*
X9899286Y-18340929D01*
X9908810Y-18321881D01*
X9908810Y-18274262D01*
X9899286Y-18255214D01*
X9889762Y-18245690D01*
X9870714Y-18236167D01*
X9832619Y-18236167D01*
X9813571Y-18245690D01*
X9804048Y-18255214D01*
X9794524Y-18274262D01*
X10032619Y-18159976D02*
X10051667Y-18159976D01*
X10070714Y-18169500D01*
X10080238Y-18179024D01*
X10089762Y-18198071D01*
X10099286Y-18236167D01*
X10099286Y-18283786D01*
X10089762Y-18321881D01*
X10080238Y-18340929D01*
X10070714Y-18350452D01*
X10051667Y-18359976D01*
X10032619Y-18359976D01*
X10013571Y-18350452D01*
X10004048Y-18340929D01*
X9994524Y-18321881D01*
X9985000Y-18283786D01*
X9985000Y-18236167D01*
X9994524Y-18198071D01*
X10004048Y-18179024D01*
X10013571Y-18169500D01*
X10032619Y-18159976D01*
X10175476Y-18159976D02*
X10175476Y-18198071D01*
X10251667Y-18159976D02*
X10251667Y-18198071D01*
X10546905Y-18436167D02*
X10537381Y-18426643D01*
X10518333Y-18398071D01*
X10508810Y-18379024D01*
X10499286Y-18350452D01*
X10489762Y-18302833D01*
X10489762Y-18264738D01*
X10499286Y-18217119D01*
X10508810Y-18188548D01*
X10518333Y-18169500D01*
X10537381Y-18140929D01*
X10546905Y-18131405D01*
X10708810Y-18226643D02*
X10708810Y-18359976D01*
X10661190Y-18150452D02*
X10613571Y-18293310D01*
X10737381Y-18293310D01*
X10965952Y-18359976D02*
X10965952Y-18159976D01*
X11051667Y-18359976D02*
X11051667Y-18255214D01*
X11042143Y-18236167D01*
X11023095Y-18226643D01*
X10994524Y-18226643D01*
X10975476Y-18236167D01*
X10965952Y-18245690D01*
X11175476Y-18359976D02*
X11156429Y-18350452D01*
X11146905Y-18340929D01*
X11137381Y-18321881D01*
X11137381Y-18264738D01*
X11146905Y-18245690D01*
X11156429Y-18236167D01*
X11175476Y-18226643D01*
X11204048Y-18226643D01*
X11223095Y-18236167D01*
X11232619Y-18245690D01*
X11242143Y-18264738D01*
X11242143Y-18321881D01*
X11232619Y-18340929D01*
X11223095Y-18350452D01*
X11204048Y-18359976D01*
X11175476Y-18359976D01*
X11356428Y-18359976D02*
X11337381Y-18350452D01*
X11327857Y-18331405D01*
X11327857Y-18159976D01*
X11508809Y-18350452D02*
X11489762Y-18359976D01*
X11451667Y-18359976D01*
X11432619Y-18350452D01*
X11423095Y-18331405D01*
X11423095Y-18255214D01*
X11432619Y-18236167D01*
X11451667Y-18226643D01*
X11489762Y-18226643D01*
X11508809Y-18236167D01*
X11518333Y-18255214D01*
X11518333Y-18274262D01*
X11423095Y-18293310D01*
X11594524Y-18350452D02*
X11613571Y-18359976D01*
X11651667Y-18359976D01*
X11670714Y-18350452D01*
X11680238Y-18331405D01*
X11680238Y-18321881D01*
X11670714Y-18302833D01*
X11651667Y-18293310D01*
X11623095Y-18293310D01*
X11604048Y-18283786D01*
X11594524Y-18264738D01*
X11594524Y-18255214D01*
X11604048Y-18236167D01*
X11623095Y-18226643D01*
X11651667Y-18226643D01*
X11670714Y-18236167D01*
X11746905Y-18436167D02*
X11756428Y-18426643D01*
X11775476Y-18398071D01*
X11785000Y-18379024D01*
X11794524Y-18350452D01*
X11804048Y-18302833D01*
X11804048Y-18264738D01*
X11794524Y-18217119D01*
X11785000Y-18188548D01*
X11775476Y-18169500D01*
X11756428Y-18140929D01*
X11746905Y-18131405D01*
M02*
