%TF.GenerationSoftware,KiCad,Pcbnew,(6.0.5-0)*%
%TF.CreationDate,2022-06-03T22:28:26+01:00*%
%TF.ProjectId,12v-front-pcb,3132762d-6672-46f6-9e74-2d7063622e6b,rev?*%
%TF.SameCoordinates,Original*%
%TF.FileFunction,Legend,Bot*%
%TF.FilePolarity,Positive*%
%FSLAX46Y46*%
G04 Gerber Fmt 4.6, Leading zero omitted, Abs format (unit mm)*
G04 Created by KiCad (PCBNEW (6.0.5-0)) date 2022-06-03 22:28:26*
%MOMM*%
%LPD*%
G01*
G04 APERTURE LIST*
%ADD10C,3.050000*%
%ADD11C,2.775000*%
%ADD12C,2.110000*%
%ADD13C,3.510000*%
%ADD14C,2.400000*%
%ADD15C,2.100000*%
%ADD16R,3.200000X3.200000*%
%ADD17O,3.200000X3.200000*%
%ADD18C,3.000000*%
G04 APERTURE END LIST*
%LPC*%
D10*
X207518000Y-181424000D03*
D11*
X207518000Y-168624000D03*
X207518000Y-174124000D03*
D10*
X160460000Y-155448000D03*
D11*
X173260000Y-152598000D03*
X173260000Y-158298000D03*
X167760000Y-152598000D03*
X167760000Y-158298000D03*
D10*
X234442000Y-102548000D03*
D11*
X234442000Y-115348000D03*
X234442000Y-109848000D03*
D10*
X160460000Y-106680000D03*
D11*
X173260000Y-103830000D03*
X173260000Y-109530000D03*
X167760000Y-103830000D03*
X167760000Y-109530000D03*
D10*
X160460000Y-141224000D03*
D11*
X173260000Y-138374000D03*
X173260000Y-144074000D03*
X167760000Y-138374000D03*
X167760000Y-144074000D03*
D10*
X235204000Y-183134000D03*
D11*
X222404000Y-185984000D03*
X222404000Y-180284000D03*
X227904000Y-185984000D03*
X227904000Y-180284000D03*
D10*
X160460000Y-96012000D03*
D11*
X173260000Y-96012000D03*
X167760000Y-96012000D03*
D12*
X220639000Y-129898000D03*
X234629000Y-142898000D03*
D13*
X236539000Y-136398000D03*
X228539000Y-136398000D03*
X218629000Y-136398000D03*
X228129000Y-144848000D03*
X228129000Y-127948000D03*
X172280000Y-177264000D03*
X155380000Y-177264000D03*
X163830000Y-167764000D03*
X163830000Y-177674000D03*
X163830000Y-185674000D03*
D12*
X157330000Y-183764000D03*
X170330000Y-169774000D03*
D14*
X188772000Y-124035000D03*
D15*
X182372000Y-125285000D03*
X185872000Y-125285000D03*
X191672000Y-125285000D03*
X195172000Y-125285000D03*
X195172000Y-122785000D03*
X191672000Y-122785000D03*
X185872000Y-122785000D03*
X182372000Y-122785000D03*
D13*
X228129000Y-154259000D03*
X228129000Y-171159000D03*
X218629000Y-162709000D03*
X228539000Y-162709000D03*
X236539000Y-162709000D03*
D12*
X234629000Y-169209000D03*
X220639000Y-156209000D03*
D14*
X188772000Y-112097000D03*
D15*
X182372000Y-113347000D03*
X185872000Y-113347000D03*
X191672000Y-113347000D03*
X195172000Y-113347000D03*
X195172000Y-110847000D03*
X191672000Y-110847000D03*
X185872000Y-110847000D03*
X182372000Y-110847000D03*
D12*
X220876000Y-101702000D03*
X207876000Y-115692000D03*
D13*
X214376000Y-117602000D03*
X214376000Y-109602000D03*
X214376000Y-99692000D03*
X205926000Y-109192000D03*
X222826000Y-109192000D03*
D14*
X188772000Y-100159000D03*
D15*
X182372000Y-101409000D03*
X185872000Y-101409000D03*
X191672000Y-101409000D03*
X195172000Y-101409000D03*
X195172000Y-98909000D03*
X191672000Y-98909000D03*
X185872000Y-98909000D03*
X182372000Y-98909000D03*
D14*
X188672000Y-148761000D03*
D15*
X195072000Y-147511000D03*
X191572000Y-147511000D03*
X185772000Y-147511000D03*
X182272000Y-147511000D03*
X182272000Y-150011000D03*
X185772000Y-150011000D03*
X191572000Y-150011000D03*
X195072000Y-150011000D03*
D12*
X183492000Y-183729000D03*
X196492000Y-169739000D03*
D13*
X189992000Y-167829000D03*
X189992000Y-175829000D03*
X189992000Y-185739000D03*
X198442000Y-176239000D03*
X181542000Y-176239000D03*
D16*
X203962000Y-144780000D03*
D17*
X203962000Y-160020000D03*
D16*
X210058000Y-144780000D03*
D17*
X210058000Y-160020000D03*
D16*
X210058000Y-140462000D03*
D17*
X210058000Y-125222000D03*
D14*
X188772000Y-135973000D03*
D15*
X182372000Y-137223000D03*
X185872000Y-137223000D03*
X191672000Y-137223000D03*
X195172000Y-137223000D03*
X195172000Y-134723000D03*
X191672000Y-134723000D03*
X185872000Y-134723000D03*
X182372000Y-134723000D03*
D18*
X241554000Y-96012000D03*
X215392000Y-187452000D03*
X154178000Y-130810000D03*
M02*
