M48
; DRILL file {KiCad 7.0.1-0} date 2023 October 01, Sunday 21:07:12
; FORMAT={-:-/ absolute / metric / decimal}
; #@! TF.CreationDate,2023-10-01T21:07:12+01:00
; #@! TF.GenerationSoftware,Kicad,Pcbnew,7.0.1-0
; #@! TF.FileFunction,NonPlated,1,4,NPTH
FMAT,2
METRIC
; #@! TA.AperFunction,NonPlated,NPTH,ComponentDrill
T1C2.110
; #@! TA.AperFunction,NonPlated,NPTH,ComponentDrill
T2C2.400
; #@! TA.AperFunction,NonPlated,NPTH,ComponentDrill
T3C3.050
%
G90
G05
T1
X110.998Y-159.5
X111.1Y-127.5
X124.988Y-172.5
X125.09Y-140.5
X175.724Y-163.538
X176.1Y-135.846
X189.714Y-176.538
X190.09Y-148.846
X212.41Y-127.0
X212.41Y-159.5
X226.4Y-140.0
X226.4Y-172.5
X248.91Y-127.0
X248.91Y-159.5
X262.9Y-140.0
X262.9Y-172.5
T2
X85.902Y-190.658
X86.382Y-124.748
X86.4Y-137.877
X86.4Y-150.934
X86.4Y-164.039
X86.4Y-177.348
X113.6Y-188.25
X149.068Y-139.324
X149.144Y-125.608
X149.144Y-153.034
T3
X79.0Y-212.075
X92.85Y-212.151
X106.458Y-212.1
X120.629Y-212.14
X137.85Y-212.111
X151.402Y-212.194
X165.0Y-212.1
X182.557Y-212.017
X200.0Y-212.1
X214.0Y-212.1
X228.0Y-212.1
X242.0Y-212.1
X253.0Y-212.1
X264.0Y-212.1
T0
M30
