M48
; DRILL file {KiCad (6.0.5-0)} date Friday 03 June 2022 at 22:29:32
; FORMAT={-:-/ absolute / metric / decimal}
; #@! TF.CreationDate,2022-06-03T22:29:32+01:00
; #@! TF.GenerationSoftware,Kicad,Pcbnew,(6.0.5-0)
; #@! TF.FileFunction,NonPlated,1,2,NPTH
FMAT,2
METRIC
; #@! TA.AperFunction,NonPlated,NPTH,ComponentDrill
T1C2.110
; #@! TA.AperFunction,NonPlated,NPTH,ComponentDrill
T2C2.400
; #@! TA.AperFunction,NonPlated,NPTH,ComponentDrill
T3C3.000
; #@! TA.AperFunction,NonPlated,NPTH,ComponentDrill
T4C3.050
%
G90
G05
T1
X157.33Y-183.764
X170.33Y-169.774
X183.492Y-183.729
X196.492Y-169.739
X207.876Y-115.692
X220.639Y-129.898
X220.639Y-156.209
X220.876Y-101.702
X234.629Y-142.898
X234.629Y-169.209
T2
X188.672Y-148.761
X188.772Y-100.159
X188.772Y-112.097
X188.772Y-124.035
X188.772Y-135.973
T3
X154.178Y-130.81
X215.392Y-187.452
X241.554Y-96.012
T4
X160.46Y-96.012
X160.46Y-106.68
X160.46Y-141.224
X160.46Y-155.448
X207.518Y-181.424
X234.442Y-102.548
X235.204Y-183.134
T0
M30
