%TF.GenerationSoftware,KiCad,Pcbnew,(6.0.5-0)*%
%TF.CreationDate,2022-06-03T22:28:26+01:00*%
%TF.ProjectId,12v-front-pcb,3132762d-6672-46f6-9e74-2d7063622e6b,rev?*%
%TF.SameCoordinates,Original*%
%TF.FileFunction,Copper,L1,Top*%
%TF.FilePolarity,Positive*%
%FSLAX46Y46*%
G04 Gerber Fmt 4.6, Leading zero omitted, Abs format (unit mm)*
G04 Created by KiCad (PCBNEW (6.0.5-0)) date 2022-06-03 22:28:26*
%MOMM*%
%LPD*%
G01*
G04 APERTURE LIST*
%TA.AperFunction,ComponentPad*%
%ADD10C,2.775000*%
%TD*%
%TA.AperFunction,ComponentPad*%
%ADD11C,3.510000*%
%TD*%
%TA.AperFunction,ComponentPad*%
%ADD12C,2.100000*%
%TD*%
%TA.AperFunction,ComponentPad*%
%ADD13R,3.200000X3.200000*%
%TD*%
%TA.AperFunction,ComponentPad*%
%ADD14O,3.200000X3.200000*%
%TD*%
%TA.AperFunction,Conductor*%
%ADD15C,0.250000*%
%TD*%
%TA.AperFunction,Conductor*%
%ADD16C,1.000000*%
%TD*%
%TA.AperFunction,Conductor*%
%ADD17C,2.000000*%
%TD*%
G04 APERTURE END LIST*
D10*
X207518000Y-168624000D03*
X207518000Y-174124000D03*
X173260000Y-152598000D03*
X173260000Y-158298000D03*
X167760000Y-152598000D03*
X167760000Y-158298000D03*
X234442000Y-115348000D03*
X234442000Y-109848000D03*
X173260000Y-103830000D03*
X173260000Y-109530000D03*
X167760000Y-103830000D03*
X167760000Y-109530000D03*
X173260000Y-138374000D03*
X173260000Y-144074000D03*
X167760000Y-138374000D03*
X167760000Y-144074000D03*
X222404000Y-185984000D03*
X222404000Y-180284000D03*
X227904000Y-185984000D03*
X227904000Y-180284000D03*
X173260000Y-96012000D03*
X167760000Y-96012000D03*
D11*
X236539000Y-136398000D03*
X228539000Y-136398000D03*
X218629000Y-136398000D03*
X228129000Y-144848000D03*
X228129000Y-127948000D03*
X172280000Y-177264000D03*
X155380000Y-177264000D03*
X163830000Y-167764000D03*
X163830000Y-177674000D03*
X163830000Y-185674000D03*
D12*
X182372000Y-125285000D03*
X185872000Y-125285000D03*
X191672000Y-125285000D03*
X195172000Y-125285000D03*
X195172000Y-122785000D03*
X191672000Y-122785000D03*
X185872000Y-122785000D03*
X182372000Y-122785000D03*
D11*
X228129000Y-154259000D03*
X228129000Y-171159000D03*
X218629000Y-162709000D03*
X228539000Y-162709000D03*
X236539000Y-162709000D03*
D12*
X182372000Y-113347000D03*
X185872000Y-113347000D03*
X191672000Y-113347000D03*
X195172000Y-113347000D03*
X195172000Y-110847000D03*
X191672000Y-110847000D03*
X185872000Y-110847000D03*
X182372000Y-110847000D03*
D11*
X214376000Y-117602000D03*
X214376000Y-109602000D03*
X214376000Y-99692000D03*
X205926000Y-109192000D03*
X222826000Y-109192000D03*
D12*
X182372000Y-101409000D03*
X185872000Y-101409000D03*
X191672000Y-101409000D03*
X195172000Y-101409000D03*
X195172000Y-98909000D03*
X191672000Y-98909000D03*
X185872000Y-98909000D03*
X182372000Y-98909000D03*
X195072000Y-147511000D03*
X191572000Y-147511000D03*
X185772000Y-147511000D03*
X182272000Y-147511000D03*
X182272000Y-150011000D03*
X185772000Y-150011000D03*
X191572000Y-150011000D03*
X195072000Y-150011000D03*
D11*
X189992000Y-167829000D03*
X189992000Y-175829000D03*
X189992000Y-185739000D03*
X198442000Y-176239000D03*
X181542000Y-176239000D03*
D13*
X203962000Y-144780000D03*
D14*
X203962000Y-160020000D03*
D13*
X210058000Y-144780000D03*
D14*
X210058000Y-160020000D03*
D13*
X210058000Y-140462000D03*
D14*
X210058000Y-125222000D03*
D12*
X182372000Y-137223000D03*
X185872000Y-137223000D03*
X191672000Y-137223000D03*
X195172000Y-137223000D03*
X195172000Y-134723000D03*
X191672000Y-134723000D03*
X185872000Y-134723000D03*
X182372000Y-134723000D03*
D15*
X163830000Y-177674000D02*
X168530000Y-172974000D01*
X160782000Y-174626000D02*
X160782000Y-163576000D01*
X173260000Y-144074000D02*
X172410000Y-144074000D01*
X172410000Y-144074000D02*
X165100000Y-151384000D01*
X201744586Y-171196000D02*
X210832586Y-180284000D01*
X165100000Y-151384000D02*
X165100000Y-153924000D01*
X210832586Y-180284000D02*
X222404000Y-180284000D01*
X165100000Y-153924000D02*
X166624000Y-155448000D01*
X166624000Y-155448000D02*
X168656000Y-155448000D01*
X168656000Y-155448000D02*
X170434000Y-157226000D01*
X170434000Y-157226000D02*
X170434000Y-160020000D01*
X170434000Y-160020000D02*
X181610000Y-171196000D01*
X181610000Y-171196000D02*
X201744586Y-171196000D01*
X163830000Y-177674000D02*
X160782000Y-174626000D01*
X160782000Y-163576000D02*
X163576000Y-160782000D01*
X163576000Y-160782000D02*
X163576000Y-142558000D01*
X163576000Y-142558000D02*
X167760000Y-138374000D01*
D16*
X191672000Y-122785000D02*
X187251000Y-118364000D01*
X187251000Y-118364000D02*
X181356000Y-118364000D01*
X181356000Y-118364000D02*
X176276000Y-113284000D01*
X176276000Y-113284000D02*
X176276000Y-106846000D01*
X176276000Y-106846000D02*
X173260000Y-103830000D01*
D15*
X203962000Y-160020000D02*
X210058000Y-160020000D01*
X168530000Y-172974000D02*
X199644000Y-172974000D01*
X201422000Y-174752000D02*
X201422000Y-178054000D01*
X199644000Y-172974000D02*
X201422000Y-174752000D01*
D17*
X195172000Y-101409000D02*
X195172000Y-98909000D01*
X191672000Y-101409000D02*
X195172000Y-101409000D01*
X191672000Y-98909000D02*
X191672000Y-101409000D01*
X195172000Y-98909000D02*
X191672000Y-98909000D01*
D16*
X195172000Y-110847000D02*
X195172000Y-113347000D01*
X191672000Y-110847000D02*
X195172000Y-110847000D01*
X191672000Y-113347000D02*
X191672000Y-110847000D01*
X195172000Y-113347000D02*
X191672000Y-113347000D01*
X195172000Y-122785000D02*
X191672000Y-122785000D01*
X195172000Y-125285000D02*
X195172000Y-122785000D01*
X191672000Y-125285000D02*
X195172000Y-125285000D01*
X191672000Y-122785000D02*
X191672000Y-125285000D01*
D17*
X195072000Y-150011000D02*
X191572000Y-150011000D01*
X195072000Y-147511000D02*
X195072000Y-150011000D01*
X191572000Y-147511000D02*
X191572000Y-150011000D01*
X195072000Y-147511000D02*
X191572000Y-147511000D01*
X185772000Y-147511000D02*
X182272000Y-147511000D01*
X185772000Y-150011000D02*
X185772000Y-147511000D01*
X182272000Y-150011000D02*
X185772000Y-150011000D01*
X182272000Y-147511000D02*
X182272000Y-150011000D01*
D15*
X201422000Y-178054000D02*
X207010000Y-183642000D01*
X220062000Y-183642000D02*
X222404000Y-185984000D01*
X207010000Y-183642000D02*
X220062000Y-183642000D01*
D17*
X182272000Y-147511000D02*
X182272000Y-144426000D01*
X182272000Y-144426000D02*
X176784000Y-138938000D01*
X176784000Y-138938000D02*
X176784000Y-116840000D01*
X176784000Y-116840000D02*
X173260000Y-113316000D01*
X173260000Y-113316000D02*
X173260000Y-109530000D01*
X167760000Y-96012000D02*
X170657000Y-98909000D01*
X170657000Y-98909000D02*
X182372000Y-98909000D01*
D15*
X198442000Y-176239000D02*
X194026862Y-180654138D01*
X194026862Y-180654138D02*
X158770138Y-180654138D01*
X158770138Y-180654138D02*
X155380000Y-177264000D01*
X163830000Y-167764000D02*
X163830000Y-162228000D01*
X163830000Y-162228000D02*
X167760000Y-158298000D01*
X191572000Y-150011000D02*
X186643000Y-154940000D01*
X186643000Y-154940000D02*
X170102000Y-154940000D01*
X170102000Y-154940000D02*
X167760000Y-152598000D01*
D17*
X236539000Y-136398000D02*
X239793511Y-139652511D01*
X231650500Y-175511500D02*
X208905500Y-175511500D01*
X239793511Y-139652511D02*
X239793511Y-167368489D01*
X239793511Y-167368489D02*
X231650500Y-175511500D01*
X208905500Y-175511500D02*
X207518000Y-174124000D01*
D15*
X228129000Y-144848000D02*
X224536000Y-148441000D01*
X224536000Y-148441000D02*
X224536000Y-167566000D01*
X224536000Y-167566000D02*
X228129000Y-171159000D01*
D16*
X195172000Y-113347000D02*
X202181511Y-120356511D01*
X202181511Y-120356511D02*
X210526511Y-120356511D01*
X210526511Y-120356511D02*
X215138000Y-124968000D01*
X215138000Y-124968000D02*
X215138000Y-159218000D01*
X215138000Y-159218000D02*
X218629000Y-162709000D01*
D17*
X210058000Y-125222000D02*
X210058000Y-127484741D01*
X210058000Y-127484741D02*
X195072000Y-142470741D01*
X195072000Y-142470741D02*
X195072000Y-147511000D01*
D15*
X205926000Y-109192000D02*
X209454000Y-105664000D01*
X209454000Y-105664000D02*
X230258000Y-105664000D01*
X230258000Y-105664000D02*
X234442000Y-109848000D01*
D17*
X195172000Y-98909000D02*
X213593000Y-98909000D01*
X213593000Y-98909000D02*
X214376000Y-99692000D01*
D15*
X210058000Y-140462000D02*
X210058000Y-144780000D01*
M02*
