%FSLAX45Y45*%
G04 Gerber Fmt 4.5, Leading zero omitted, Abs format (unit mm)*
G04 Created by KiCad (PCBNEW (6.0.5-0)) date 2022-06-03 22:29:48*
%MOMM*%
%LPD*%
G01*
G04 APERTURE LIST*
%TA.AperFunction,Profile*%
%ADD10C,0.200000*%
%TD*%
%ADD11C,0.200000*%
%ADD12C,0.211000*%
%ADD13C,0.240000*%
%ADD14C,0.300000*%
%ADD15C,0.305000*%
G04 APERTURE END LIST*
D10*
X24536400Y-9220200D02*
X15062200Y-9220200D01*
X24536400Y-19100800D02*
X15062200Y-19100800D01*
X24536400Y-19100800D02*
X24536400Y-9220200D01*
X15062200Y-19100800D02*
X15062200Y-9220200D01*
D11*
D12*
X15627500Y-18270900D02*
X15838500Y-18481900D01*
X15838500Y-18270900D02*
X15627500Y-18481900D01*
X16927500Y-16871900D02*
X17138500Y-17082900D01*
X17138500Y-16871900D02*
X16927500Y-17082900D01*
X18243700Y-18267400D02*
X18454700Y-18478400D01*
X18454700Y-18267400D02*
X18243700Y-18478400D01*
X19543700Y-16868400D02*
X19754700Y-17079400D01*
X19754700Y-16868400D02*
X19543700Y-17079400D01*
X20682100Y-11463700D02*
X20893100Y-11674700D01*
X20893100Y-11463700D02*
X20682100Y-11674700D01*
X21958400Y-12884300D02*
X22169400Y-13095300D01*
X22169400Y-12884300D02*
X21958400Y-13095300D01*
X21958400Y-15515400D02*
X22169400Y-15726400D01*
X22169400Y-15515400D02*
X21958400Y-15726400D01*
X21982100Y-10064700D02*
X22193100Y-10275700D01*
X22193100Y-10064700D02*
X21982100Y-10275700D01*
X23357400Y-14184300D02*
X23568400Y-14395300D01*
X23568400Y-14184300D02*
X23357400Y-14395300D01*
X23357400Y-16815400D02*
X23568400Y-17026400D01*
X23568400Y-16815400D02*
X23357400Y-17026400D01*
D13*
X18987200Y-14876100D02*
G75*
G03*
X18987200Y-14876100I-120000J0D01*
G01*
X18997200Y-10015900D02*
G75*
G03*
X18997200Y-10015900I-120000J0D01*
G01*
X18997200Y-11209700D02*
G75*
G03*
X18997200Y-11209700I-120000J0D01*
G01*
X18997200Y-12403500D02*
G75*
G03*
X18997200Y-12403500I-120000J0D01*
G01*
X18997200Y-13597300D02*
G75*
G03*
X18997200Y-13597300I-120000J0D01*
G01*
D14*
X15417800Y-12931000D02*
X15417800Y-13231000D01*
X15267800Y-13081000D02*
X15567800Y-13081000D01*
X21539200Y-18595200D02*
X21539200Y-18895200D01*
X21389200Y-18745200D02*
X21689200Y-18745200D01*
X24155400Y-9451200D02*
X24155400Y-9751200D01*
X24005400Y-9601200D02*
X24305400Y-9601200D01*
D15*
X16153835Y-9709035D02*
X16153835Y-9493365D01*
X15938165Y-9493365D01*
X15938165Y-9709035D01*
X16153835Y-9709035D01*
X16153835Y-10775835D02*
X16153835Y-10560165D01*
X15938165Y-10560165D01*
X15938165Y-10775835D01*
X16153835Y-10775835D01*
X16153835Y-14230235D02*
X16153835Y-14014565D01*
X15938165Y-14014565D01*
X15938165Y-14230235D01*
X16153835Y-14230235D01*
X16153835Y-15652635D02*
X16153835Y-15436965D01*
X15938165Y-15436965D01*
X15938165Y-15652635D01*
X16153835Y-15652635D01*
X20859635Y-18250235D02*
X20859635Y-18034565D01*
X20643965Y-18034565D01*
X20643965Y-18250235D01*
X20859635Y-18250235D01*
X23552035Y-10362635D02*
X23552035Y-10146965D01*
X23336365Y-10146965D01*
X23336365Y-10362635D01*
X23552035Y-10362635D01*
X23628235Y-18421235D02*
X23628235Y-18205565D01*
X23412565Y-18205565D01*
X23412565Y-18421235D01*
X23628235Y-18421235D01*
D11*
X15309819Y-19421276D02*
X15309819Y-19221276D01*
X15357438Y-19221276D01*
X15386009Y-19230800D01*
X15405057Y-19249848D01*
X15414581Y-19268895D01*
X15424105Y-19306990D01*
X15424105Y-19335562D01*
X15414581Y-19373657D01*
X15405057Y-19392705D01*
X15386009Y-19411752D01*
X15357438Y-19421276D01*
X15309819Y-19421276D01*
X15509819Y-19421276D02*
X15509819Y-19287943D01*
X15509819Y-19326038D02*
X15519343Y-19306990D01*
X15528867Y-19297467D01*
X15547914Y-19287943D01*
X15566962Y-19287943D01*
X15633628Y-19421276D02*
X15633628Y-19287943D01*
X15633628Y-19221276D02*
X15624105Y-19230800D01*
X15633628Y-19240324D01*
X15643152Y-19230800D01*
X15633628Y-19221276D01*
X15633628Y-19240324D01*
X15757438Y-19421276D02*
X15738390Y-19411752D01*
X15728867Y-19392705D01*
X15728867Y-19221276D01*
X15862200Y-19421276D02*
X15843152Y-19411752D01*
X15833628Y-19392705D01*
X15833628Y-19221276D01*
X16090771Y-19421276D02*
X16090771Y-19221276D01*
X16157438Y-19364133D01*
X16224105Y-19221276D01*
X16224105Y-19421276D01*
X16405057Y-19421276D02*
X16405057Y-19316514D01*
X16395533Y-19297467D01*
X16376486Y-19287943D01*
X16338390Y-19287943D01*
X16319343Y-19297467D01*
X16405057Y-19411752D02*
X16386009Y-19421276D01*
X16338390Y-19421276D01*
X16319343Y-19411752D01*
X16309819Y-19392705D01*
X16309819Y-19373657D01*
X16319343Y-19354610D01*
X16338390Y-19345086D01*
X16386009Y-19345086D01*
X16405057Y-19335562D01*
X16500295Y-19287943D02*
X16500295Y-19487943D01*
X16500295Y-19297467D02*
X16519343Y-19287943D01*
X16557438Y-19287943D01*
X16576486Y-19297467D01*
X16586009Y-19306990D01*
X16595533Y-19326038D01*
X16595533Y-19383181D01*
X16586009Y-19402229D01*
X16576486Y-19411752D01*
X16557438Y-19421276D01*
X16519343Y-19421276D01*
X16500295Y-19411752D01*
X16681248Y-19402229D02*
X16690771Y-19411752D01*
X16681248Y-19421276D01*
X16671724Y-19411752D01*
X16681248Y-19402229D01*
X16681248Y-19421276D01*
X16681248Y-19297467D02*
X16690771Y-19306990D01*
X16681248Y-19316514D01*
X16671724Y-19306990D01*
X16681248Y-19297467D01*
X16681248Y-19316514D01*
X14852200Y-19650800D02*
X15052200Y-19850800D01*
X15052200Y-19650800D02*
X14852200Y-19850800D01*
X15300295Y-19660324D02*
X15309819Y-19650800D01*
X15328867Y-19641276D01*
X15376486Y-19641276D01*
X15395533Y-19650800D01*
X15405057Y-19660324D01*
X15414581Y-19679371D01*
X15414581Y-19698419D01*
X15405057Y-19726990D01*
X15290771Y-19841276D01*
X15414581Y-19841276D01*
X15500295Y-19822229D02*
X15509819Y-19831752D01*
X15500295Y-19841276D01*
X15490771Y-19831752D01*
X15500295Y-19822229D01*
X15500295Y-19841276D01*
X15700295Y-19841276D02*
X15586009Y-19841276D01*
X15643152Y-19841276D02*
X15643152Y-19641276D01*
X15624105Y-19669848D01*
X15605057Y-19688895D01*
X15586009Y-19698419D01*
X15890771Y-19841276D02*
X15776486Y-19841276D01*
X15833628Y-19841276D02*
X15833628Y-19641276D01*
X15814581Y-19669848D01*
X15795533Y-19688895D01*
X15776486Y-19698419D01*
X16014581Y-19641276D02*
X16033628Y-19641276D01*
X16052676Y-19650800D01*
X16062200Y-19660324D01*
X16071724Y-19679371D01*
X16081248Y-19717467D01*
X16081248Y-19765086D01*
X16071724Y-19803181D01*
X16062200Y-19822229D01*
X16052676Y-19831752D01*
X16033628Y-19841276D01*
X16014581Y-19841276D01*
X15995533Y-19831752D01*
X15986009Y-19822229D01*
X15976486Y-19803181D01*
X15966962Y-19765086D01*
X15966962Y-19717467D01*
X15976486Y-19679371D01*
X15986009Y-19660324D01*
X15995533Y-19650800D01*
X16014581Y-19641276D01*
X16166962Y-19841276D02*
X16166962Y-19707943D01*
X16166962Y-19726990D02*
X16176486Y-19717467D01*
X16195533Y-19707943D01*
X16224105Y-19707943D01*
X16243152Y-19717467D01*
X16252676Y-19736514D01*
X16252676Y-19841276D01*
X16252676Y-19736514D02*
X16262200Y-19717467D01*
X16281248Y-19707943D01*
X16309819Y-19707943D01*
X16328867Y-19717467D01*
X16338390Y-19736514D01*
X16338390Y-19841276D01*
X16433628Y-19841276D02*
X16433628Y-19707943D01*
X16433628Y-19726990D02*
X16443152Y-19717467D01*
X16462200Y-19707943D01*
X16490771Y-19707943D01*
X16509819Y-19717467D01*
X16519343Y-19736514D01*
X16519343Y-19841276D01*
X16519343Y-19736514D02*
X16528867Y-19717467D01*
X16547914Y-19707943D01*
X16576486Y-19707943D01*
X16595533Y-19717467D01*
X16605057Y-19736514D01*
X16605057Y-19841276D01*
X16995533Y-19631752D02*
X16824105Y-19888895D01*
X17252676Y-19641276D02*
X17271724Y-19641276D01*
X17290771Y-19650800D01*
X17300295Y-19660324D01*
X17309819Y-19679371D01*
X17319343Y-19717467D01*
X17319343Y-19765086D01*
X17309819Y-19803181D01*
X17300295Y-19822229D01*
X17290771Y-19831752D01*
X17271724Y-19841276D01*
X17252676Y-19841276D01*
X17233629Y-19831752D01*
X17224105Y-19822229D01*
X17214581Y-19803181D01*
X17205057Y-19765086D01*
X17205057Y-19717467D01*
X17214581Y-19679371D01*
X17224105Y-19660324D01*
X17233629Y-19650800D01*
X17252676Y-19641276D01*
X17405057Y-19822229D02*
X17414581Y-19831752D01*
X17405057Y-19841276D01*
X17395533Y-19831752D01*
X17405057Y-19822229D01*
X17405057Y-19841276D01*
X17538390Y-19641276D02*
X17557438Y-19641276D01*
X17576486Y-19650800D01*
X17586010Y-19660324D01*
X17595533Y-19679371D01*
X17605057Y-19717467D01*
X17605057Y-19765086D01*
X17595533Y-19803181D01*
X17586010Y-19822229D01*
X17576486Y-19831752D01*
X17557438Y-19841276D01*
X17538390Y-19841276D01*
X17519343Y-19831752D01*
X17509819Y-19822229D01*
X17500295Y-19803181D01*
X17490771Y-19765086D01*
X17490771Y-19717467D01*
X17500295Y-19679371D01*
X17509819Y-19660324D01*
X17519343Y-19650800D01*
X17538390Y-19641276D01*
X17719343Y-19726990D02*
X17700295Y-19717467D01*
X17690771Y-19707943D01*
X17681248Y-19688895D01*
X17681248Y-19679371D01*
X17690771Y-19660324D01*
X17700295Y-19650800D01*
X17719343Y-19641276D01*
X17757438Y-19641276D01*
X17776486Y-19650800D01*
X17786010Y-19660324D01*
X17795533Y-19679371D01*
X17795533Y-19688895D01*
X17786010Y-19707943D01*
X17776486Y-19717467D01*
X17757438Y-19726990D01*
X17719343Y-19726990D01*
X17700295Y-19736514D01*
X17690771Y-19746038D01*
X17681248Y-19765086D01*
X17681248Y-19803181D01*
X17690771Y-19822229D01*
X17700295Y-19831752D01*
X17719343Y-19841276D01*
X17757438Y-19841276D01*
X17776486Y-19831752D01*
X17786010Y-19822229D01*
X17795533Y-19803181D01*
X17795533Y-19765086D01*
X17786010Y-19746038D01*
X17776486Y-19736514D01*
X17757438Y-19726990D01*
X17862200Y-19641276D02*
X17986010Y-19641276D01*
X17919343Y-19717467D01*
X17947914Y-19717467D01*
X17966962Y-19726990D01*
X17976486Y-19736514D01*
X17986010Y-19755562D01*
X17986010Y-19803181D01*
X17976486Y-19822229D01*
X17966962Y-19831752D01*
X17947914Y-19841276D01*
X17890771Y-19841276D01*
X17871724Y-19831752D01*
X17862200Y-19822229D01*
X18176486Y-19841276D02*
X18062200Y-19841276D01*
X18119343Y-19841276D02*
X18119343Y-19641276D01*
X18100295Y-19669848D01*
X18081248Y-19688895D01*
X18062200Y-19698419D01*
X18252676Y-19641276D02*
X18252676Y-19679371D01*
X18328867Y-19641276D02*
X18328867Y-19679371D01*
X18624105Y-19917467D02*
X18614581Y-19907943D01*
X18595533Y-19879371D01*
X18586010Y-19860324D01*
X18576486Y-19831752D01*
X18566962Y-19784133D01*
X18566962Y-19746038D01*
X18576486Y-19698419D01*
X18586010Y-19669848D01*
X18595533Y-19650800D01*
X18614581Y-19622229D01*
X18624105Y-19612705D01*
X18805057Y-19841276D02*
X18690771Y-19841276D01*
X18747914Y-19841276D02*
X18747914Y-19641276D01*
X18728867Y-19669848D01*
X18709819Y-19688895D01*
X18690771Y-19698419D01*
X18928867Y-19641276D02*
X18947914Y-19641276D01*
X18966962Y-19650800D01*
X18976486Y-19660324D01*
X18986010Y-19679371D01*
X18995533Y-19717467D01*
X18995533Y-19765086D01*
X18986010Y-19803181D01*
X18976486Y-19822229D01*
X18966962Y-19831752D01*
X18947914Y-19841276D01*
X18928867Y-19841276D01*
X18909819Y-19831752D01*
X18900295Y-19822229D01*
X18890771Y-19803181D01*
X18881248Y-19765086D01*
X18881248Y-19717467D01*
X18890771Y-19679371D01*
X18900295Y-19660324D01*
X18909819Y-19650800D01*
X18928867Y-19641276D01*
X19233629Y-19841276D02*
X19233629Y-19641276D01*
X19319343Y-19841276D02*
X19319343Y-19736514D01*
X19309819Y-19717467D01*
X19290771Y-19707943D01*
X19262200Y-19707943D01*
X19243152Y-19717467D01*
X19233629Y-19726990D01*
X19443152Y-19841276D02*
X19424105Y-19831752D01*
X19414581Y-19822229D01*
X19405057Y-19803181D01*
X19405057Y-19746038D01*
X19414581Y-19726990D01*
X19424105Y-19717467D01*
X19443152Y-19707943D01*
X19471724Y-19707943D01*
X19490771Y-19717467D01*
X19500295Y-19726990D01*
X19509819Y-19746038D01*
X19509819Y-19803181D01*
X19500295Y-19822229D01*
X19490771Y-19831752D01*
X19471724Y-19841276D01*
X19443152Y-19841276D01*
X19624105Y-19841276D02*
X19605057Y-19831752D01*
X19595533Y-19812705D01*
X19595533Y-19641276D01*
X19776486Y-19831752D02*
X19757438Y-19841276D01*
X19719343Y-19841276D01*
X19700295Y-19831752D01*
X19690771Y-19812705D01*
X19690771Y-19736514D01*
X19700295Y-19717467D01*
X19719343Y-19707943D01*
X19757438Y-19707943D01*
X19776486Y-19717467D01*
X19786010Y-19736514D01*
X19786010Y-19755562D01*
X19690771Y-19774610D01*
X19862200Y-19831752D02*
X19881248Y-19841276D01*
X19919343Y-19841276D01*
X19938390Y-19831752D01*
X19947914Y-19812705D01*
X19947914Y-19803181D01*
X19938390Y-19784133D01*
X19919343Y-19774610D01*
X19890771Y-19774610D01*
X19871724Y-19765086D01*
X19862200Y-19746038D01*
X19862200Y-19736514D01*
X19871724Y-19717467D01*
X19890771Y-19707943D01*
X19919343Y-19707943D01*
X19938390Y-19717467D01*
X20014581Y-19917467D02*
X20024105Y-19907943D01*
X20043152Y-19879371D01*
X20052676Y-19860324D01*
X20062200Y-19831752D01*
X20071724Y-19784133D01*
X20071724Y-19746038D01*
X20062200Y-19698419D01*
X20052676Y-19669848D01*
X20043152Y-19650800D01*
X20024105Y-19622229D01*
X20014581Y-19612705D01*
X20376486Y-19917467D02*
X20366962Y-19907943D01*
X20347914Y-19879371D01*
X20338390Y-19860324D01*
X20328867Y-19831752D01*
X20319343Y-19784133D01*
X20319343Y-19746038D01*
X20328867Y-19698419D01*
X20338390Y-19669848D01*
X20347914Y-19650800D01*
X20366962Y-19622229D01*
X20376486Y-19612705D01*
X20452676Y-19707943D02*
X20452676Y-19841276D01*
X20452676Y-19726990D02*
X20462200Y-19717467D01*
X20481248Y-19707943D01*
X20509819Y-19707943D01*
X20528867Y-19717467D01*
X20538390Y-19736514D01*
X20538390Y-19841276D01*
X20662200Y-19841276D02*
X20643152Y-19831752D01*
X20633629Y-19822229D01*
X20624105Y-19803181D01*
X20624105Y-19746038D01*
X20633629Y-19726990D01*
X20643152Y-19717467D01*
X20662200Y-19707943D01*
X20690771Y-19707943D01*
X20709819Y-19717467D01*
X20719343Y-19726990D01*
X20728867Y-19746038D01*
X20728867Y-19803181D01*
X20719343Y-19822229D01*
X20709819Y-19831752D01*
X20690771Y-19841276D01*
X20662200Y-19841276D01*
X20786010Y-19707943D02*
X20862200Y-19707943D01*
X20814581Y-19641276D02*
X20814581Y-19812705D01*
X20824105Y-19831752D01*
X20843152Y-19841276D01*
X20862200Y-19841276D01*
X21081248Y-19707943D02*
X21081248Y-19907943D01*
X21081248Y-19717467D02*
X21100295Y-19707943D01*
X21138390Y-19707943D01*
X21157438Y-19717467D01*
X21166962Y-19726990D01*
X21176486Y-19746038D01*
X21176486Y-19803181D01*
X21166962Y-19822229D01*
X21157438Y-19831752D01*
X21138390Y-19841276D01*
X21100295Y-19841276D01*
X21081248Y-19831752D01*
X21290771Y-19841276D02*
X21271724Y-19831752D01*
X21262200Y-19812705D01*
X21262200Y-19641276D01*
X21452676Y-19841276D02*
X21452676Y-19736514D01*
X21443152Y-19717467D01*
X21424105Y-19707943D01*
X21386010Y-19707943D01*
X21366962Y-19717467D01*
X21452676Y-19831752D02*
X21433629Y-19841276D01*
X21386010Y-19841276D01*
X21366962Y-19831752D01*
X21357438Y-19812705D01*
X21357438Y-19793657D01*
X21366962Y-19774610D01*
X21386010Y-19765086D01*
X21433629Y-19765086D01*
X21452676Y-19755562D01*
X21519343Y-19707943D02*
X21595533Y-19707943D01*
X21547914Y-19641276D02*
X21547914Y-19812705D01*
X21557438Y-19831752D01*
X21576486Y-19841276D01*
X21595533Y-19841276D01*
X21738390Y-19831752D02*
X21719343Y-19841276D01*
X21681248Y-19841276D01*
X21662200Y-19831752D01*
X21652676Y-19812705D01*
X21652676Y-19736514D01*
X21662200Y-19717467D01*
X21681248Y-19707943D01*
X21719343Y-19707943D01*
X21738390Y-19717467D01*
X21747914Y-19736514D01*
X21747914Y-19755562D01*
X21652676Y-19774610D01*
X21919343Y-19841276D02*
X21919343Y-19641276D01*
X21919343Y-19831752D02*
X21900295Y-19841276D01*
X21862200Y-19841276D01*
X21843152Y-19831752D01*
X21833629Y-19822229D01*
X21824105Y-19803181D01*
X21824105Y-19746038D01*
X21833629Y-19726990D01*
X21843152Y-19717467D01*
X21862200Y-19707943D01*
X21900295Y-19707943D01*
X21919343Y-19717467D01*
X21995533Y-19917467D02*
X22005057Y-19907943D01*
X22024105Y-19879371D01*
X22033629Y-19860324D01*
X22043152Y-19831752D01*
X22052676Y-19784133D01*
X22052676Y-19746038D01*
X22043152Y-19698419D01*
X22033629Y-19669848D01*
X22024105Y-19650800D01*
X22005057Y-19622229D01*
X21995533Y-19612705D01*
X15052200Y-20070800D02*
G75*
G03*
X15052200Y-20070800I-100000J0D01*
G01*
X15300295Y-19980324D02*
X15309819Y-19970800D01*
X15328867Y-19961276D01*
X15376486Y-19961276D01*
X15395533Y-19970800D01*
X15405057Y-19980324D01*
X15414581Y-19999371D01*
X15414581Y-20018419D01*
X15405057Y-20046990D01*
X15290771Y-20161276D01*
X15414581Y-20161276D01*
X15500295Y-20142229D02*
X15509819Y-20151752D01*
X15500295Y-20161276D01*
X15490771Y-20151752D01*
X15500295Y-20142229D01*
X15500295Y-20161276D01*
X15681248Y-20027943D02*
X15681248Y-20161276D01*
X15633628Y-19951752D02*
X15586009Y-20094610D01*
X15709819Y-20094610D01*
X15824105Y-19961276D02*
X15843152Y-19961276D01*
X15862200Y-19970800D01*
X15871724Y-19980324D01*
X15881248Y-19999371D01*
X15890771Y-20037467D01*
X15890771Y-20085086D01*
X15881248Y-20123181D01*
X15871724Y-20142229D01*
X15862200Y-20151752D01*
X15843152Y-20161276D01*
X15824105Y-20161276D01*
X15805057Y-20151752D01*
X15795533Y-20142229D01*
X15786009Y-20123181D01*
X15776486Y-20085086D01*
X15776486Y-20037467D01*
X15786009Y-19999371D01*
X15795533Y-19980324D01*
X15805057Y-19970800D01*
X15824105Y-19961276D01*
X16014581Y-19961276D02*
X16033628Y-19961276D01*
X16052676Y-19970800D01*
X16062200Y-19980324D01*
X16071724Y-19999371D01*
X16081248Y-20037467D01*
X16081248Y-20085086D01*
X16071724Y-20123181D01*
X16062200Y-20142229D01*
X16052676Y-20151752D01*
X16033628Y-20161276D01*
X16014581Y-20161276D01*
X15995533Y-20151752D01*
X15986009Y-20142229D01*
X15976486Y-20123181D01*
X15966962Y-20085086D01*
X15966962Y-20037467D01*
X15976486Y-19999371D01*
X15986009Y-19980324D01*
X15995533Y-19970800D01*
X16014581Y-19961276D01*
X16166962Y-20161276D02*
X16166962Y-20027943D01*
X16166962Y-20046990D02*
X16176486Y-20037467D01*
X16195533Y-20027943D01*
X16224105Y-20027943D01*
X16243152Y-20037467D01*
X16252676Y-20056514D01*
X16252676Y-20161276D01*
X16252676Y-20056514D02*
X16262200Y-20037467D01*
X16281248Y-20027943D01*
X16309819Y-20027943D01*
X16328867Y-20037467D01*
X16338390Y-20056514D01*
X16338390Y-20161276D01*
X16433628Y-20161276D02*
X16433628Y-20027943D01*
X16433628Y-20046990D02*
X16443152Y-20037467D01*
X16462200Y-20027943D01*
X16490771Y-20027943D01*
X16509819Y-20037467D01*
X16519343Y-20056514D01*
X16519343Y-20161276D01*
X16519343Y-20056514D02*
X16528867Y-20037467D01*
X16547914Y-20027943D01*
X16576486Y-20027943D01*
X16595533Y-20037467D01*
X16605057Y-20056514D01*
X16605057Y-20161276D01*
X16995533Y-19951752D02*
X16824105Y-20208895D01*
X17252676Y-19961276D02*
X17271724Y-19961276D01*
X17290771Y-19970800D01*
X17300295Y-19980324D01*
X17309819Y-19999371D01*
X17319343Y-20037467D01*
X17319343Y-20085086D01*
X17309819Y-20123181D01*
X17300295Y-20142229D01*
X17290771Y-20151752D01*
X17271724Y-20161276D01*
X17252676Y-20161276D01*
X17233629Y-20151752D01*
X17224105Y-20142229D01*
X17214581Y-20123181D01*
X17205057Y-20085086D01*
X17205057Y-20037467D01*
X17214581Y-19999371D01*
X17224105Y-19980324D01*
X17233629Y-19970800D01*
X17252676Y-19961276D01*
X17405057Y-20142229D02*
X17414581Y-20151752D01*
X17405057Y-20161276D01*
X17395533Y-20151752D01*
X17405057Y-20142229D01*
X17405057Y-20161276D01*
X17538390Y-19961276D02*
X17557438Y-19961276D01*
X17576486Y-19970800D01*
X17586010Y-19980324D01*
X17595533Y-19999371D01*
X17605057Y-20037467D01*
X17605057Y-20085086D01*
X17595533Y-20123181D01*
X17586010Y-20142229D01*
X17576486Y-20151752D01*
X17557438Y-20161276D01*
X17538390Y-20161276D01*
X17519343Y-20151752D01*
X17509819Y-20142229D01*
X17500295Y-20123181D01*
X17490771Y-20085086D01*
X17490771Y-20037467D01*
X17500295Y-19999371D01*
X17509819Y-19980324D01*
X17519343Y-19970800D01*
X17538390Y-19961276D01*
X17700295Y-20161276D02*
X17738390Y-20161276D01*
X17757438Y-20151752D01*
X17766962Y-20142229D01*
X17786010Y-20113657D01*
X17795533Y-20075562D01*
X17795533Y-19999371D01*
X17786010Y-19980324D01*
X17776486Y-19970800D01*
X17757438Y-19961276D01*
X17719343Y-19961276D01*
X17700295Y-19970800D01*
X17690771Y-19980324D01*
X17681248Y-19999371D01*
X17681248Y-20046990D01*
X17690771Y-20066038D01*
X17700295Y-20075562D01*
X17719343Y-20085086D01*
X17757438Y-20085086D01*
X17776486Y-20075562D01*
X17786010Y-20066038D01*
X17795533Y-20046990D01*
X17966962Y-20027943D02*
X17966962Y-20161276D01*
X17919343Y-19951752D02*
X17871724Y-20094610D01*
X17995533Y-20094610D01*
X18166962Y-19961276D02*
X18071724Y-19961276D01*
X18062200Y-20056514D01*
X18071724Y-20046990D01*
X18090771Y-20037467D01*
X18138390Y-20037467D01*
X18157438Y-20046990D01*
X18166962Y-20056514D01*
X18176486Y-20075562D01*
X18176486Y-20123181D01*
X18166962Y-20142229D01*
X18157438Y-20151752D01*
X18138390Y-20161276D01*
X18090771Y-20161276D01*
X18071724Y-20151752D01*
X18062200Y-20142229D01*
X18252676Y-19961276D02*
X18252676Y-19999371D01*
X18328867Y-19961276D02*
X18328867Y-19999371D01*
X18624105Y-20237467D02*
X18614581Y-20227943D01*
X18595533Y-20199371D01*
X18586010Y-20180324D01*
X18576486Y-20151752D01*
X18566962Y-20104133D01*
X18566962Y-20066038D01*
X18576486Y-20018419D01*
X18586010Y-19989848D01*
X18595533Y-19970800D01*
X18614581Y-19942229D01*
X18624105Y-19932705D01*
X18795533Y-19961276D02*
X18700295Y-19961276D01*
X18690771Y-20056514D01*
X18700295Y-20046990D01*
X18719343Y-20037467D01*
X18766962Y-20037467D01*
X18786010Y-20046990D01*
X18795533Y-20056514D01*
X18805057Y-20075562D01*
X18805057Y-20123181D01*
X18795533Y-20142229D01*
X18786010Y-20151752D01*
X18766962Y-20161276D01*
X18719343Y-20161276D01*
X18700295Y-20151752D01*
X18690771Y-20142229D01*
X19043152Y-20161276D02*
X19043152Y-19961276D01*
X19128867Y-20161276D02*
X19128867Y-20056514D01*
X19119343Y-20037467D01*
X19100295Y-20027943D01*
X19071724Y-20027943D01*
X19052676Y-20037467D01*
X19043152Y-20046990D01*
X19252676Y-20161276D02*
X19233629Y-20151752D01*
X19224105Y-20142229D01*
X19214581Y-20123181D01*
X19214581Y-20066038D01*
X19224105Y-20046990D01*
X19233629Y-20037467D01*
X19252676Y-20027943D01*
X19281248Y-20027943D01*
X19300295Y-20037467D01*
X19309819Y-20046990D01*
X19319343Y-20066038D01*
X19319343Y-20123181D01*
X19309819Y-20142229D01*
X19300295Y-20151752D01*
X19281248Y-20161276D01*
X19252676Y-20161276D01*
X19433629Y-20161276D02*
X19414581Y-20151752D01*
X19405057Y-20132705D01*
X19405057Y-19961276D01*
X19586010Y-20151752D02*
X19566962Y-20161276D01*
X19528867Y-20161276D01*
X19509819Y-20151752D01*
X19500295Y-20132705D01*
X19500295Y-20056514D01*
X19509819Y-20037467D01*
X19528867Y-20027943D01*
X19566962Y-20027943D01*
X19586010Y-20037467D01*
X19595533Y-20056514D01*
X19595533Y-20075562D01*
X19500295Y-20094610D01*
X19671724Y-20151752D02*
X19690771Y-20161276D01*
X19728867Y-20161276D01*
X19747914Y-20151752D01*
X19757438Y-20132705D01*
X19757438Y-20123181D01*
X19747914Y-20104133D01*
X19728867Y-20094610D01*
X19700295Y-20094610D01*
X19681248Y-20085086D01*
X19671724Y-20066038D01*
X19671724Y-20056514D01*
X19681248Y-20037467D01*
X19700295Y-20027943D01*
X19728867Y-20027943D01*
X19747914Y-20037467D01*
X19824105Y-20237467D02*
X19833629Y-20227943D01*
X19852676Y-20199371D01*
X19862200Y-20180324D01*
X19871724Y-20151752D01*
X19881248Y-20104133D01*
X19881248Y-20066038D01*
X19871724Y-20018419D01*
X19862200Y-19989848D01*
X19852676Y-19970800D01*
X19833629Y-19942229D01*
X19824105Y-19932705D01*
X20186010Y-20237467D02*
X20176486Y-20227943D01*
X20157438Y-20199371D01*
X20147914Y-20180324D01*
X20138390Y-20151752D01*
X20128867Y-20104133D01*
X20128867Y-20066038D01*
X20138390Y-20018419D01*
X20147914Y-19989848D01*
X20157438Y-19970800D01*
X20176486Y-19942229D01*
X20186010Y-19932705D01*
X20262200Y-20027943D02*
X20262200Y-20161276D01*
X20262200Y-20046990D02*
X20271724Y-20037467D01*
X20290771Y-20027943D01*
X20319343Y-20027943D01*
X20338390Y-20037467D01*
X20347914Y-20056514D01*
X20347914Y-20161276D01*
X20471724Y-20161276D02*
X20452676Y-20151752D01*
X20443152Y-20142229D01*
X20433629Y-20123181D01*
X20433629Y-20066038D01*
X20443152Y-20046990D01*
X20452676Y-20037467D01*
X20471724Y-20027943D01*
X20500295Y-20027943D01*
X20519343Y-20037467D01*
X20528867Y-20046990D01*
X20538390Y-20066038D01*
X20538390Y-20123181D01*
X20528867Y-20142229D01*
X20519343Y-20151752D01*
X20500295Y-20161276D01*
X20471724Y-20161276D01*
X20595533Y-20027943D02*
X20671724Y-20027943D01*
X20624105Y-19961276D02*
X20624105Y-20132705D01*
X20633629Y-20151752D01*
X20652676Y-20161276D01*
X20671724Y-20161276D01*
X20890771Y-20027943D02*
X20890771Y-20227943D01*
X20890771Y-20037467D02*
X20909819Y-20027943D01*
X20947914Y-20027943D01*
X20966962Y-20037467D01*
X20976486Y-20046990D01*
X20986010Y-20066038D01*
X20986010Y-20123181D01*
X20976486Y-20142229D01*
X20966962Y-20151752D01*
X20947914Y-20161276D01*
X20909819Y-20161276D01*
X20890771Y-20151752D01*
X21100295Y-20161276D02*
X21081248Y-20151752D01*
X21071724Y-20132705D01*
X21071724Y-19961276D01*
X21262200Y-20161276D02*
X21262200Y-20056514D01*
X21252676Y-20037467D01*
X21233629Y-20027943D01*
X21195533Y-20027943D01*
X21176486Y-20037467D01*
X21262200Y-20151752D02*
X21243152Y-20161276D01*
X21195533Y-20161276D01*
X21176486Y-20151752D01*
X21166962Y-20132705D01*
X21166962Y-20113657D01*
X21176486Y-20094610D01*
X21195533Y-20085086D01*
X21243152Y-20085086D01*
X21262200Y-20075562D01*
X21328867Y-20027943D02*
X21405057Y-20027943D01*
X21357438Y-19961276D02*
X21357438Y-20132705D01*
X21366962Y-20151752D01*
X21386010Y-20161276D01*
X21405057Y-20161276D01*
X21547914Y-20151752D02*
X21528867Y-20161276D01*
X21490771Y-20161276D01*
X21471724Y-20151752D01*
X21462200Y-20132705D01*
X21462200Y-20056514D01*
X21471724Y-20037467D01*
X21490771Y-20027943D01*
X21528867Y-20027943D01*
X21547914Y-20037467D01*
X21557438Y-20056514D01*
X21557438Y-20075562D01*
X21462200Y-20094610D01*
X21728867Y-20161276D02*
X21728867Y-19961276D01*
X21728867Y-20151752D02*
X21709819Y-20161276D01*
X21671724Y-20161276D01*
X21652676Y-20151752D01*
X21643152Y-20142229D01*
X21633629Y-20123181D01*
X21633629Y-20066038D01*
X21643152Y-20046990D01*
X21652676Y-20037467D01*
X21671724Y-20027943D01*
X21709819Y-20027943D01*
X21728867Y-20037467D01*
X21805057Y-20237467D02*
X21814581Y-20227943D01*
X21833629Y-20199371D01*
X21843152Y-20180324D01*
X21852676Y-20151752D01*
X21862200Y-20104133D01*
X21862200Y-20066038D01*
X21852676Y-20018419D01*
X21843152Y-19989848D01*
X21833629Y-19970800D01*
X21814581Y-19942229D01*
X21805057Y-19932705D01*
X14952200Y-20290800D02*
X14952200Y-20490800D01*
X14852200Y-20390800D02*
X15052200Y-20390800D01*
X15290771Y-20281276D02*
X15414581Y-20281276D01*
X15347914Y-20357467D01*
X15376486Y-20357467D01*
X15395533Y-20366990D01*
X15405057Y-20376514D01*
X15414581Y-20395562D01*
X15414581Y-20443181D01*
X15405057Y-20462229D01*
X15395533Y-20471752D01*
X15376486Y-20481276D01*
X15319343Y-20481276D01*
X15300295Y-20471752D01*
X15290771Y-20462229D01*
X15500295Y-20462229D02*
X15509819Y-20471752D01*
X15500295Y-20481276D01*
X15490771Y-20471752D01*
X15500295Y-20462229D01*
X15500295Y-20481276D01*
X15633628Y-20281276D02*
X15652676Y-20281276D01*
X15671724Y-20290800D01*
X15681248Y-20300324D01*
X15690771Y-20319371D01*
X15700295Y-20357467D01*
X15700295Y-20405086D01*
X15690771Y-20443181D01*
X15681248Y-20462229D01*
X15671724Y-20471752D01*
X15652676Y-20481276D01*
X15633628Y-20481276D01*
X15614581Y-20471752D01*
X15605057Y-20462229D01*
X15595533Y-20443181D01*
X15586009Y-20405086D01*
X15586009Y-20357467D01*
X15595533Y-20319371D01*
X15605057Y-20300324D01*
X15614581Y-20290800D01*
X15633628Y-20281276D01*
X15824105Y-20281276D02*
X15843152Y-20281276D01*
X15862200Y-20290800D01*
X15871724Y-20300324D01*
X15881248Y-20319371D01*
X15890771Y-20357467D01*
X15890771Y-20405086D01*
X15881248Y-20443181D01*
X15871724Y-20462229D01*
X15862200Y-20471752D01*
X15843152Y-20481276D01*
X15824105Y-20481276D01*
X15805057Y-20471752D01*
X15795533Y-20462229D01*
X15786009Y-20443181D01*
X15776486Y-20405086D01*
X15776486Y-20357467D01*
X15786009Y-20319371D01*
X15795533Y-20300324D01*
X15805057Y-20290800D01*
X15824105Y-20281276D01*
X16014581Y-20281276D02*
X16033628Y-20281276D01*
X16052676Y-20290800D01*
X16062200Y-20300324D01*
X16071724Y-20319371D01*
X16081248Y-20357467D01*
X16081248Y-20405086D01*
X16071724Y-20443181D01*
X16062200Y-20462229D01*
X16052676Y-20471752D01*
X16033628Y-20481276D01*
X16014581Y-20481276D01*
X15995533Y-20471752D01*
X15986009Y-20462229D01*
X15976486Y-20443181D01*
X15966962Y-20405086D01*
X15966962Y-20357467D01*
X15976486Y-20319371D01*
X15986009Y-20300324D01*
X15995533Y-20290800D01*
X16014581Y-20281276D01*
X16166962Y-20481276D02*
X16166962Y-20347943D01*
X16166962Y-20366990D02*
X16176486Y-20357467D01*
X16195533Y-20347943D01*
X16224105Y-20347943D01*
X16243152Y-20357467D01*
X16252676Y-20376514D01*
X16252676Y-20481276D01*
X16252676Y-20376514D02*
X16262200Y-20357467D01*
X16281248Y-20347943D01*
X16309819Y-20347943D01*
X16328867Y-20357467D01*
X16338390Y-20376514D01*
X16338390Y-20481276D01*
X16433628Y-20481276D02*
X16433628Y-20347943D01*
X16433628Y-20366990D02*
X16443152Y-20357467D01*
X16462200Y-20347943D01*
X16490771Y-20347943D01*
X16509819Y-20357467D01*
X16519343Y-20376514D01*
X16519343Y-20481276D01*
X16519343Y-20376514D02*
X16528867Y-20357467D01*
X16547914Y-20347943D01*
X16576486Y-20347943D01*
X16595533Y-20357467D01*
X16605057Y-20376514D01*
X16605057Y-20481276D01*
X16995533Y-20271752D02*
X16824105Y-20528895D01*
X17252676Y-20281276D02*
X17271724Y-20281276D01*
X17290771Y-20290800D01*
X17300295Y-20300324D01*
X17309819Y-20319371D01*
X17319343Y-20357467D01*
X17319343Y-20405086D01*
X17309819Y-20443181D01*
X17300295Y-20462229D01*
X17290771Y-20471752D01*
X17271724Y-20481276D01*
X17252676Y-20481276D01*
X17233629Y-20471752D01*
X17224105Y-20462229D01*
X17214581Y-20443181D01*
X17205057Y-20405086D01*
X17205057Y-20357467D01*
X17214581Y-20319371D01*
X17224105Y-20300324D01*
X17233629Y-20290800D01*
X17252676Y-20281276D01*
X17405057Y-20462229D02*
X17414581Y-20471752D01*
X17405057Y-20481276D01*
X17395533Y-20471752D01*
X17405057Y-20462229D01*
X17405057Y-20481276D01*
X17605057Y-20481276D02*
X17490771Y-20481276D01*
X17547914Y-20481276D02*
X17547914Y-20281276D01*
X17528867Y-20309848D01*
X17509819Y-20328895D01*
X17490771Y-20338419D01*
X17795533Y-20481276D02*
X17681248Y-20481276D01*
X17738390Y-20481276D02*
X17738390Y-20281276D01*
X17719343Y-20309848D01*
X17700295Y-20328895D01*
X17681248Y-20338419D01*
X17909819Y-20366990D02*
X17890771Y-20357467D01*
X17881248Y-20347943D01*
X17871724Y-20328895D01*
X17871724Y-20319371D01*
X17881248Y-20300324D01*
X17890771Y-20290800D01*
X17909819Y-20281276D01*
X17947914Y-20281276D01*
X17966962Y-20290800D01*
X17976486Y-20300324D01*
X17986010Y-20319371D01*
X17986010Y-20328895D01*
X17976486Y-20347943D01*
X17966962Y-20357467D01*
X17947914Y-20366990D01*
X17909819Y-20366990D01*
X17890771Y-20376514D01*
X17881248Y-20386038D01*
X17871724Y-20405086D01*
X17871724Y-20443181D01*
X17881248Y-20462229D01*
X17890771Y-20471752D01*
X17909819Y-20481276D01*
X17947914Y-20481276D01*
X17966962Y-20471752D01*
X17976486Y-20462229D01*
X17986010Y-20443181D01*
X17986010Y-20405086D01*
X17976486Y-20386038D01*
X17966962Y-20376514D01*
X17947914Y-20366990D01*
X18176486Y-20481276D02*
X18062200Y-20481276D01*
X18119343Y-20481276D02*
X18119343Y-20281276D01*
X18100295Y-20309848D01*
X18081248Y-20328895D01*
X18062200Y-20338419D01*
X18252676Y-20281276D02*
X18252676Y-20319371D01*
X18328867Y-20281276D02*
X18328867Y-20319371D01*
X18624105Y-20557467D02*
X18614581Y-20547943D01*
X18595533Y-20519371D01*
X18586010Y-20500324D01*
X18576486Y-20471752D01*
X18566962Y-20424133D01*
X18566962Y-20386038D01*
X18576486Y-20338419D01*
X18586010Y-20309848D01*
X18595533Y-20290800D01*
X18614581Y-20262229D01*
X18624105Y-20252705D01*
X18681248Y-20281276D02*
X18805057Y-20281276D01*
X18738390Y-20357467D01*
X18766962Y-20357467D01*
X18786010Y-20366990D01*
X18795533Y-20376514D01*
X18805057Y-20395562D01*
X18805057Y-20443181D01*
X18795533Y-20462229D01*
X18786010Y-20471752D01*
X18766962Y-20481276D01*
X18709819Y-20481276D01*
X18690771Y-20471752D01*
X18681248Y-20462229D01*
X19043152Y-20481276D02*
X19043152Y-20281276D01*
X19128867Y-20481276D02*
X19128867Y-20376514D01*
X19119343Y-20357467D01*
X19100295Y-20347943D01*
X19071724Y-20347943D01*
X19052676Y-20357467D01*
X19043152Y-20366990D01*
X19252676Y-20481276D02*
X19233629Y-20471752D01*
X19224105Y-20462229D01*
X19214581Y-20443181D01*
X19214581Y-20386038D01*
X19224105Y-20366990D01*
X19233629Y-20357467D01*
X19252676Y-20347943D01*
X19281248Y-20347943D01*
X19300295Y-20357467D01*
X19309819Y-20366990D01*
X19319343Y-20386038D01*
X19319343Y-20443181D01*
X19309819Y-20462229D01*
X19300295Y-20471752D01*
X19281248Y-20481276D01*
X19252676Y-20481276D01*
X19433629Y-20481276D02*
X19414581Y-20471752D01*
X19405057Y-20452705D01*
X19405057Y-20281276D01*
X19586010Y-20471752D02*
X19566962Y-20481276D01*
X19528867Y-20481276D01*
X19509819Y-20471752D01*
X19500295Y-20452705D01*
X19500295Y-20376514D01*
X19509819Y-20357467D01*
X19528867Y-20347943D01*
X19566962Y-20347943D01*
X19586010Y-20357467D01*
X19595533Y-20376514D01*
X19595533Y-20395562D01*
X19500295Y-20414610D01*
X19671724Y-20471752D02*
X19690771Y-20481276D01*
X19728867Y-20481276D01*
X19747914Y-20471752D01*
X19757438Y-20452705D01*
X19757438Y-20443181D01*
X19747914Y-20424133D01*
X19728867Y-20414610D01*
X19700295Y-20414610D01*
X19681248Y-20405086D01*
X19671724Y-20386038D01*
X19671724Y-20376514D01*
X19681248Y-20357467D01*
X19700295Y-20347943D01*
X19728867Y-20347943D01*
X19747914Y-20357467D01*
X19824105Y-20557467D02*
X19833629Y-20547943D01*
X19852676Y-20519371D01*
X19862200Y-20500324D01*
X19871724Y-20471752D01*
X19881248Y-20424133D01*
X19881248Y-20386038D01*
X19871724Y-20338419D01*
X19862200Y-20309848D01*
X19852676Y-20290800D01*
X19833629Y-20262229D01*
X19824105Y-20252705D01*
X20186010Y-20557467D02*
X20176486Y-20547943D01*
X20157438Y-20519371D01*
X20147914Y-20500324D01*
X20138390Y-20471752D01*
X20128867Y-20424133D01*
X20128867Y-20386038D01*
X20138390Y-20338419D01*
X20147914Y-20309848D01*
X20157438Y-20290800D01*
X20176486Y-20262229D01*
X20186010Y-20252705D01*
X20262200Y-20347943D02*
X20262200Y-20481276D01*
X20262200Y-20366990D02*
X20271724Y-20357467D01*
X20290771Y-20347943D01*
X20319343Y-20347943D01*
X20338390Y-20357467D01*
X20347914Y-20376514D01*
X20347914Y-20481276D01*
X20471724Y-20481276D02*
X20452676Y-20471752D01*
X20443152Y-20462229D01*
X20433629Y-20443181D01*
X20433629Y-20386038D01*
X20443152Y-20366990D01*
X20452676Y-20357467D01*
X20471724Y-20347943D01*
X20500295Y-20347943D01*
X20519343Y-20357467D01*
X20528867Y-20366990D01*
X20538390Y-20386038D01*
X20538390Y-20443181D01*
X20528867Y-20462229D01*
X20519343Y-20471752D01*
X20500295Y-20481276D01*
X20471724Y-20481276D01*
X20595533Y-20347943D02*
X20671724Y-20347943D01*
X20624105Y-20281276D02*
X20624105Y-20452705D01*
X20633629Y-20471752D01*
X20652676Y-20481276D01*
X20671724Y-20481276D01*
X20890771Y-20347943D02*
X20890771Y-20547943D01*
X20890771Y-20357467D02*
X20909819Y-20347943D01*
X20947914Y-20347943D01*
X20966962Y-20357467D01*
X20976486Y-20366990D01*
X20986010Y-20386038D01*
X20986010Y-20443181D01*
X20976486Y-20462229D01*
X20966962Y-20471752D01*
X20947914Y-20481276D01*
X20909819Y-20481276D01*
X20890771Y-20471752D01*
X21100295Y-20481276D02*
X21081248Y-20471752D01*
X21071724Y-20452705D01*
X21071724Y-20281276D01*
X21262200Y-20481276D02*
X21262200Y-20376514D01*
X21252676Y-20357467D01*
X21233629Y-20347943D01*
X21195533Y-20347943D01*
X21176486Y-20357467D01*
X21262200Y-20471752D02*
X21243152Y-20481276D01*
X21195533Y-20481276D01*
X21176486Y-20471752D01*
X21166962Y-20452705D01*
X21166962Y-20433657D01*
X21176486Y-20414610D01*
X21195533Y-20405086D01*
X21243152Y-20405086D01*
X21262200Y-20395562D01*
X21328867Y-20347943D02*
X21405057Y-20347943D01*
X21357438Y-20281276D02*
X21357438Y-20452705D01*
X21366962Y-20471752D01*
X21386010Y-20481276D01*
X21405057Y-20481276D01*
X21547914Y-20471752D02*
X21528867Y-20481276D01*
X21490771Y-20481276D01*
X21471724Y-20471752D01*
X21462200Y-20452705D01*
X21462200Y-20376514D01*
X21471724Y-20357467D01*
X21490771Y-20347943D01*
X21528867Y-20347943D01*
X21547914Y-20357467D01*
X21557438Y-20376514D01*
X21557438Y-20395562D01*
X21462200Y-20414610D01*
X21728867Y-20481276D02*
X21728867Y-20281276D01*
X21728867Y-20471752D02*
X21709819Y-20481276D01*
X21671724Y-20481276D01*
X21652676Y-20471752D01*
X21643152Y-20462229D01*
X21633629Y-20443181D01*
X21633629Y-20386038D01*
X21643152Y-20366990D01*
X21652676Y-20357467D01*
X21671724Y-20347943D01*
X21709819Y-20347943D01*
X21728867Y-20357467D01*
X21805057Y-20557467D02*
X21814581Y-20547943D01*
X21833629Y-20519371D01*
X21843152Y-20500324D01*
X21852676Y-20471752D01*
X21862200Y-20424133D01*
X21862200Y-20386038D01*
X21852676Y-20338419D01*
X21843152Y-20309848D01*
X21833629Y-20290800D01*
X21814581Y-20262229D01*
X21805057Y-20252705D01*
X15022911Y-20781511D02*
X15022911Y-20640089D01*
X14881489Y-20640089D01*
X14881489Y-20781511D01*
X15022911Y-20781511D01*
X15290771Y-20601276D02*
X15414581Y-20601276D01*
X15347914Y-20677467D01*
X15376486Y-20677467D01*
X15395533Y-20686990D01*
X15405057Y-20696514D01*
X15414581Y-20715562D01*
X15414581Y-20763181D01*
X15405057Y-20782229D01*
X15395533Y-20791752D01*
X15376486Y-20801276D01*
X15319343Y-20801276D01*
X15300295Y-20791752D01*
X15290771Y-20782229D01*
X15500295Y-20782229D02*
X15509819Y-20791752D01*
X15500295Y-20801276D01*
X15490771Y-20791752D01*
X15500295Y-20782229D01*
X15500295Y-20801276D01*
X15633628Y-20601276D02*
X15652676Y-20601276D01*
X15671724Y-20610800D01*
X15681248Y-20620324D01*
X15690771Y-20639371D01*
X15700295Y-20677467D01*
X15700295Y-20725086D01*
X15690771Y-20763181D01*
X15681248Y-20782229D01*
X15671724Y-20791752D01*
X15652676Y-20801276D01*
X15633628Y-20801276D01*
X15614581Y-20791752D01*
X15605057Y-20782229D01*
X15595533Y-20763181D01*
X15586009Y-20725086D01*
X15586009Y-20677467D01*
X15595533Y-20639371D01*
X15605057Y-20620324D01*
X15614581Y-20610800D01*
X15633628Y-20601276D01*
X15881248Y-20601276D02*
X15786009Y-20601276D01*
X15776486Y-20696514D01*
X15786009Y-20686990D01*
X15805057Y-20677467D01*
X15852676Y-20677467D01*
X15871724Y-20686990D01*
X15881248Y-20696514D01*
X15890771Y-20715562D01*
X15890771Y-20763181D01*
X15881248Y-20782229D01*
X15871724Y-20791752D01*
X15852676Y-20801276D01*
X15805057Y-20801276D01*
X15786009Y-20791752D01*
X15776486Y-20782229D01*
X16014581Y-20601276D02*
X16033628Y-20601276D01*
X16052676Y-20610800D01*
X16062200Y-20620324D01*
X16071724Y-20639371D01*
X16081248Y-20677467D01*
X16081248Y-20725086D01*
X16071724Y-20763181D01*
X16062200Y-20782229D01*
X16052676Y-20791752D01*
X16033628Y-20801276D01*
X16014581Y-20801276D01*
X15995533Y-20791752D01*
X15986009Y-20782229D01*
X15976486Y-20763181D01*
X15966962Y-20725086D01*
X15966962Y-20677467D01*
X15976486Y-20639371D01*
X15986009Y-20620324D01*
X15995533Y-20610800D01*
X16014581Y-20601276D01*
X16166962Y-20801276D02*
X16166962Y-20667943D01*
X16166962Y-20686990D02*
X16176486Y-20677467D01*
X16195533Y-20667943D01*
X16224105Y-20667943D01*
X16243152Y-20677467D01*
X16252676Y-20696514D01*
X16252676Y-20801276D01*
X16252676Y-20696514D02*
X16262200Y-20677467D01*
X16281248Y-20667943D01*
X16309819Y-20667943D01*
X16328867Y-20677467D01*
X16338390Y-20696514D01*
X16338390Y-20801276D01*
X16433628Y-20801276D02*
X16433628Y-20667943D01*
X16433628Y-20686990D02*
X16443152Y-20677467D01*
X16462200Y-20667943D01*
X16490771Y-20667943D01*
X16509819Y-20677467D01*
X16519343Y-20696514D01*
X16519343Y-20801276D01*
X16519343Y-20696514D02*
X16528867Y-20677467D01*
X16547914Y-20667943D01*
X16576486Y-20667943D01*
X16595533Y-20677467D01*
X16605057Y-20696514D01*
X16605057Y-20801276D01*
X16995533Y-20591752D02*
X16824105Y-20848895D01*
X17252676Y-20601276D02*
X17271724Y-20601276D01*
X17290771Y-20610800D01*
X17300295Y-20620324D01*
X17309819Y-20639371D01*
X17319343Y-20677467D01*
X17319343Y-20725086D01*
X17309819Y-20763181D01*
X17300295Y-20782229D01*
X17290771Y-20791752D01*
X17271724Y-20801276D01*
X17252676Y-20801276D01*
X17233629Y-20791752D01*
X17224105Y-20782229D01*
X17214581Y-20763181D01*
X17205057Y-20725086D01*
X17205057Y-20677467D01*
X17214581Y-20639371D01*
X17224105Y-20620324D01*
X17233629Y-20610800D01*
X17252676Y-20601276D01*
X17405057Y-20782229D02*
X17414581Y-20791752D01*
X17405057Y-20801276D01*
X17395533Y-20791752D01*
X17405057Y-20782229D01*
X17405057Y-20801276D01*
X17605057Y-20801276D02*
X17490771Y-20801276D01*
X17547914Y-20801276D02*
X17547914Y-20601276D01*
X17528867Y-20629848D01*
X17509819Y-20648895D01*
X17490771Y-20658419D01*
X17681248Y-20620324D02*
X17690771Y-20610800D01*
X17709819Y-20601276D01*
X17757438Y-20601276D01*
X17776486Y-20610800D01*
X17786010Y-20620324D01*
X17795533Y-20639371D01*
X17795533Y-20658419D01*
X17786010Y-20686990D01*
X17671724Y-20801276D01*
X17795533Y-20801276D01*
X17919343Y-20601276D02*
X17938390Y-20601276D01*
X17957438Y-20610800D01*
X17966962Y-20620324D01*
X17976486Y-20639371D01*
X17986010Y-20677467D01*
X17986010Y-20725086D01*
X17976486Y-20763181D01*
X17966962Y-20782229D01*
X17957438Y-20791752D01*
X17938390Y-20801276D01*
X17919343Y-20801276D01*
X17900295Y-20791752D01*
X17890771Y-20782229D01*
X17881248Y-20763181D01*
X17871724Y-20725086D01*
X17871724Y-20677467D01*
X17881248Y-20639371D01*
X17890771Y-20620324D01*
X17900295Y-20610800D01*
X17919343Y-20601276D01*
X18176486Y-20801276D02*
X18062200Y-20801276D01*
X18119343Y-20801276D02*
X18119343Y-20601276D01*
X18100295Y-20629848D01*
X18081248Y-20648895D01*
X18062200Y-20658419D01*
X18252676Y-20601276D02*
X18252676Y-20639371D01*
X18328867Y-20601276D02*
X18328867Y-20639371D01*
X18624105Y-20877467D02*
X18614581Y-20867943D01*
X18595533Y-20839371D01*
X18586010Y-20820324D01*
X18576486Y-20791752D01*
X18566962Y-20744133D01*
X18566962Y-20706038D01*
X18576486Y-20658419D01*
X18586010Y-20629848D01*
X18595533Y-20610800D01*
X18614581Y-20582229D01*
X18624105Y-20572705D01*
X18681248Y-20601276D02*
X18814581Y-20601276D01*
X18728867Y-20801276D01*
X19043152Y-20801276D02*
X19043152Y-20601276D01*
X19128867Y-20801276D02*
X19128867Y-20696514D01*
X19119343Y-20677467D01*
X19100295Y-20667943D01*
X19071724Y-20667943D01*
X19052676Y-20677467D01*
X19043152Y-20686990D01*
X19252676Y-20801276D02*
X19233629Y-20791752D01*
X19224105Y-20782229D01*
X19214581Y-20763181D01*
X19214581Y-20706038D01*
X19224105Y-20686990D01*
X19233629Y-20677467D01*
X19252676Y-20667943D01*
X19281248Y-20667943D01*
X19300295Y-20677467D01*
X19309819Y-20686990D01*
X19319343Y-20706038D01*
X19319343Y-20763181D01*
X19309819Y-20782229D01*
X19300295Y-20791752D01*
X19281248Y-20801276D01*
X19252676Y-20801276D01*
X19433629Y-20801276D02*
X19414581Y-20791752D01*
X19405057Y-20772705D01*
X19405057Y-20601276D01*
X19586010Y-20791752D02*
X19566962Y-20801276D01*
X19528867Y-20801276D01*
X19509819Y-20791752D01*
X19500295Y-20772705D01*
X19500295Y-20696514D01*
X19509819Y-20677467D01*
X19528867Y-20667943D01*
X19566962Y-20667943D01*
X19586010Y-20677467D01*
X19595533Y-20696514D01*
X19595533Y-20715562D01*
X19500295Y-20734610D01*
X19671724Y-20791752D02*
X19690771Y-20801276D01*
X19728867Y-20801276D01*
X19747914Y-20791752D01*
X19757438Y-20772705D01*
X19757438Y-20763181D01*
X19747914Y-20744133D01*
X19728867Y-20734610D01*
X19700295Y-20734610D01*
X19681248Y-20725086D01*
X19671724Y-20706038D01*
X19671724Y-20696514D01*
X19681248Y-20677467D01*
X19700295Y-20667943D01*
X19728867Y-20667943D01*
X19747914Y-20677467D01*
X19824105Y-20877467D02*
X19833629Y-20867943D01*
X19852676Y-20839371D01*
X19862200Y-20820324D01*
X19871724Y-20791752D01*
X19881248Y-20744133D01*
X19881248Y-20706038D01*
X19871724Y-20658419D01*
X19862200Y-20629848D01*
X19852676Y-20610800D01*
X19833629Y-20582229D01*
X19824105Y-20572705D01*
X20186010Y-20877467D02*
X20176486Y-20867943D01*
X20157438Y-20839371D01*
X20147914Y-20820324D01*
X20138390Y-20791752D01*
X20128867Y-20744133D01*
X20128867Y-20706038D01*
X20138390Y-20658419D01*
X20147914Y-20629848D01*
X20157438Y-20610800D01*
X20176486Y-20582229D01*
X20186010Y-20572705D01*
X20262200Y-20667943D02*
X20262200Y-20801276D01*
X20262200Y-20686990D02*
X20271724Y-20677467D01*
X20290771Y-20667943D01*
X20319343Y-20667943D01*
X20338390Y-20677467D01*
X20347914Y-20696514D01*
X20347914Y-20801276D01*
X20471724Y-20801276D02*
X20452676Y-20791752D01*
X20443152Y-20782229D01*
X20433629Y-20763181D01*
X20433629Y-20706038D01*
X20443152Y-20686990D01*
X20452676Y-20677467D01*
X20471724Y-20667943D01*
X20500295Y-20667943D01*
X20519343Y-20677467D01*
X20528867Y-20686990D01*
X20538390Y-20706038D01*
X20538390Y-20763181D01*
X20528867Y-20782229D01*
X20519343Y-20791752D01*
X20500295Y-20801276D01*
X20471724Y-20801276D01*
X20595533Y-20667943D02*
X20671724Y-20667943D01*
X20624105Y-20601276D02*
X20624105Y-20772705D01*
X20633629Y-20791752D01*
X20652676Y-20801276D01*
X20671724Y-20801276D01*
X20890771Y-20667943D02*
X20890771Y-20867943D01*
X20890771Y-20677467D02*
X20909819Y-20667943D01*
X20947914Y-20667943D01*
X20966962Y-20677467D01*
X20976486Y-20686990D01*
X20986010Y-20706038D01*
X20986010Y-20763181D01*
X20976486Y-20782229D01*
X20966962Y-20791752D01*
X20947914Y-20801276D01*
X20909819Y-20801276D01*
X20890771Y-20791752D01*
X21100295Y-20801276D02*
X21081248Y-20791752D01*
X21071724Y-20772705D01*
X21071724Y-20601276D01*
X21262200Y-20801276D02*
X21262200Y-20696514D01*
X21252676Y-20677467D01*
X21233629Y-20667943D01*
X21195533Y-20667943D01*
X21176486Y-20677467D01*
X21262200Y-20791752D02*
X21243152Y-20801276D01*
X21195533Y-20801276D01*
X21176486Y-20791752D01*
X21166962Y-20772705D01*
X21166962Y-20753657D01*
X21176486Y-20734610D01*
X21195533Y-20725086D01*
X21243152Y-20725086D01*
X21262200Y-20715562D01*
X21328867Y-20667943D02*
X21405057Y-20667943D01*
X21357438Y-20601276D02*
X21357438Y-20772705D01*
X21366962Y-20791752D01*
X21386010Y-20801276D01*
X21405057Y-20801276D01*
X21547914Y-20791752D02*
X21528867Y-20801276D01*
X21490771Y-20801276D01*
X21471724Y-20791752D01*
X21462200Y-20772705D01*
X21462200Y-20696514D01*
X21471724Y-20677467D01*
X21490771Y-20667943D01*
X21528867Y-20667943D01*
X21547914Y-20677467D01*
X21557438Y-20696514D01*
X21557438Y-20715562D01*
X21462200Y-20734610D01*
X21728867Y-20801276D02*
X21728867Y-20601276D01*
X21728867Y-20791752D02*
X21709819Y-20801276D01*
X21671724Y-20801276D01*
X21652676Y-20791752D01*
X21643152Y-20782229D01*
X21633629Y-20763181D01*
X21633629Y-20706038D01*
X21643152Y-20686990D01*
X21652676Y-20677467D01*
X21671724Y-20667943D01*
X21709819Y-20667943D01*
X21728867Y-20677467D01*
X21805057Y-20877467D02*
X21814581Y-20867943D01*
X21833629Y-20839371D01*
X21843152Y-20820324D01*
X21852676Y-20791752D01*
X21862200Y-20744133D01*
X21862200Y-20706038D01*
X21852676Y-20658419D01*
X21843152Y-20629848D01*
X21833629Y-20610800D01*
X21814581Y-20582229D01*
X21805057Y-20572705D01*
M02*
