%TF.GenerationSoftware,KiCad,Pcbnew,7.0.1-0*%
%TF.CreationDate,2023-10-01T21:07:36+01:00*%
%TF.ProjectId,12v-front-pcb,3132762d-6672-46f6-9e74-2d7063622e6b,rev?*%
%TF.SameCoordinates,Original*%
%TF.FileFunction,Drillmap*%
%TF.FilePolarity,Positive*%
%FSLAX45Y45*%
G04 Gerber Fmt 4.5, Leading zero omitted, Abs format (unit mm)*
G04 Created by KiCad (PCBNEW 7.0.1-0) date 2023-10-01 21:07:36*
%MOMM*%
%LPD*%
G01*
G04 APERTURE LIST*
%ADD10C,0.050000*%
%ADD11C,0.200000*%
%ADD12C,0.090000*%
%ADD13C,0.100000*%
%ADD14C,0.140000*%
%ADD15C,0.160000*%
%ADD16C,0.185000*%
%ADD17C,0.234000*%
G04 APERTURE END LIST*
D10*
X27365000Y-18003797D02*
G75*
G03*
X27035000Y-18003797I-165000J0D01*
G01*
X7037691Y-17985888D02*
X7037691Y-18585888D01*
D11*
X6200000Y-13595300D02*
X6200000Y-21784000D01*
D10*
X12100000Y-11849000D02*
G75*
G03*
X12100000Y-11519000I0J165000D01*
G01*
X19050000Y-11519000D02*
X19550000Y-11519000D01*
D11*
X19000000Y-11186000D02*
X26800000Y-11184000D01*
X27200000Y-11584000D02*
G75*
G03*
X26800000Y-11184000I-400000J0D01*
G01*
D10*
X7036297Y-21269184D02*
X7036297Y-21869184D01*
X27365000Y-18003797D02*
X27365000Y-18603797D01*
X19050000Y-11849000D02*
X19550000Y-11849000D01*
X11500000Y-11849000D02*
X12100000Y-11849000D01*
X27364767Y-14721795D02*
X27364767Y-15321795D01*
X8200000Y-11519000D02*
G75*
G03*
X8200000Y-11849000I0J-165000D01*
G01*
D11*
X6600000Y-13195300D02*
G75*
G03*
X6200000Y-13595300I0J-400000D01*
G01*
X6600000Y-13195300D02*
X6803440Y-13195300D01*
D10*
X27365000Y-21285000D02*
X27365000Y-21885000D01*
X8800000Y-11849000D02*
G75*
G03*
X8800000Y-11519000I0J165000D01*
G01*
D11*
X27200000Y-12785140D02*
G75*
G03*
X27600000Y-13185140I400000J0D01*
G01*
D10*
X22350000Y-11849000D02*
X22850000Y-11849000D01*
D11*
X28200000Y-13585140D02*
X28200000Y-21784000D01*
X19000000Y-11186000D02*
G75*
G03*
X18600000Y-11586000I0J-400000D01*
G01*
D10*
X8200000Y-11849000D02*
X8800000Y-11849000D01*
D11*
X27600000Y-13185140D02*
X27800000Y-13185140D01*
D10*
X7367691Y-17985888D02*
G75*
G03*
X7037691Y-17985888I-165000J0D01*
G01*
X7365000Y-14703961D02*
G75*
G03*
X7035000Y-14703961I-165000J0D01*
G01*
X22350000Y-11519000D02*
X22850000Y-11519000D01*
D11*
X27800000Y-22184000D02*
X6600000Y-22184000D01*
X7603440Y-11184000D02*
G75*
G03*
X7203440Y-11584000I0J-400000D01*
G01*
D10*
X11500000Y-11519000D02*
X12100000Y-11519000D01*
X26150000Y-11849000D02*
G75*
G03*
X26150000Y-11519000I0J165000D01*
G01*
X14800000Y-11519000D02*
X15400000Y-11519000D01*
X7036297Y-21869184D02*
G75*
G03*
X7366297Y-21869184I165000J0D01*
G01*
X27035000Y-21285000D02*
X27035000Y-21885000D01*
X7366297Y-21269184D02*
X7366297Y-21869184D01*
X27035000Y-18603797D02*
G75*
G03*
X27365000Y-18603797I165000J0D01*
G01*
X25650000Y-11849000D02*
X26150000Y-11849000D01*
D11*
X15799471Y-11584151D02*
G75*
G03*
X18600000Y-11586000I1400530J400935D01*
G01*
D10*
X7365000Y-14703961D02*
X7365000Y-15303961D01*
D11*
X7203440Y-12795300D02*
X7203440Y-11584000D01*
X6200000Y-21784000D02*
G75*
G03*
X6600000Y-22184000I400000J0D01*
G01*
D10*
X27365000Y-21285000D02*
G75*
G03*
X27035000Y-21285000I-165000J0D01*
G01*
X27364767Y-14721795D02*
G75*
G03*
X27034767Y-14721795I-165000J0D01*
G01*
X15400000Y-11849000D02*
G75*
G03*
X15400000Y-11519000I0J165000D01*
G01*
X19550000Y-11849000D02*
G75*
G03*
X19550000Y-11519000I0J165000D01*
G01*
X7035000Y-14703961D02*
X7035000Y-15303961D01*
X8200000Y-11519000D02*
X8800000Y-11519000D01*
X27034767Y-15321795D02*
G75*
G03*
X27364767Y-15321795I165000J0D01*
G01*
D11*
X6803440Y-13195300D02*
G75*
G03*
X7203440Y-12795300I0J400000D01*
G01*
D10*
X14800000Y-11849000D02*
X15400000Y-11849000D01*
D11*
X27800000Y-22184000D02*
G75*
G03*
X28200000Y-21784000I0J400000D01*
G01*
X15400000Y-11184000D02*
X7603440Y-11184000D01*
D10*
X27034767Y-14721795D02*
X27034767Y-15321795D01*
D11*
X27200000Y-11584000D02*
X27200000Y-12785140D01*
D10*
X27035000Y-18003797D02*
X27035000Y-18603797D01*
X22350000Y-11519000D02*
G75*
G03*
X22350000Y-11849000I0J-165000D01*
G01*
X22850000Y-11849000D02*
G75*
G03*
X22850000Y-11519000I0J165000D01*
G01*
D11*
X28200000Y-13585140D02*
G75*
G03*
X27800000Y-13185140I-400000J0D01*
G01*
D10*
X7037691Y-18585888D02*
G75*
G03*
X7367691Y-18585888I165000J0D01*
G01*
X27035000Y-21885000D02*
G75*
G03*
X27365000Y-21885000I165000J0D01*
G01*
X25650000Y-11519000D02*
X26150000Y-11519000D01*
X7367691Y-17985888D02*
X7367691Y-18585888D01*
X7035000Y-15303961D02*
G75*
G03*
X7365000Y-15303961I165000J0D01*
G01*
X14800000Y-11519000D02*
G75*
G03*
X14800000Y-11849000I0J-165000D01*
G01*
X7366297Y-21269184D02*
G75*
G03*
X7036297Y-21269184I-165000J0D01*
G01*
X11500000Y-11519000D02*
G75*
G03*
X11500000Y-11849000I0J-165000D01*
G01*
X19050000Y-11519000D02*
G75*
G03*
X19050000Y-11849000I0J-165000D01*
G01*
D11*
X15800000Y-11584000D02*
G75*
G03*
X15400000Y-11184000I-400000J0D01*
G01*
D10*
X25650000Y-11519000D02*
G75*
G03*
X25650000Y-11849000I0J-165000D01*
G01*
D11*
D12*
X18800260Y-18626391D02*
X18890260Y-18716391D01*
X18890260Y-18626391D02*
X18800260Y-18716391D01*
X18802775Y-19109166D02*
X18892775Y-19199166D01*
X18892775Y-19109166D02*
X18802775Y-19199166D01*
X19054260Y-18626391D02*
X19144260Y-18716391D01*
X19144260Y-18626391D02*
X19054260Y-18716391D01*
X19056775Y-19109166D02*
X19146775Y-19199166D01*
X19146775Y-19109166D02*
X19056775Y-19199166D01*
D13*
X13550000Y-19240050D02*
G75*
G03*
X13550000Y-19240050I-50000J0D01*
G01*
X19400000Y-18607807D02*
X19400000Y-18707807D01*
X19350000Y-18657807D02*
X19450000Y-18657807D01*
X19404836Y-19087045D02*
X19404836Y-19187045D01*
X19354836Y-19137045D02*
X19454836Y-19137045D01*
X19654000Y-18607807D02*
X19654000Y-18707807D01*
X19604000Y-18657807D02*
X19704000Y-18657807D01*
X19658836Y-19087045D02*
X19658836Y-19187045D01*
X19608836Y-19137045D02*
X19708836Y-19137045D01*
D14*
X7999698Y-18990278D02*
X7999698Y-18891282D01*
X7900702Y-18891282D01*
X7900702Y-18990278D01*
X7999698Y-18990278D01*
X7999698Y-19240278D02*
X7999698Y-19141282D01*
X7900702Y-19141282D01*
X7900702Y-19240278D01*
X7999698Y-19240278D01*
X8047711Y-12399253D02*
X8047711Y-12300258D01*
X7948715Y-12300258D01*
X7948715Y-12399253D01*
X8047711Y-12399253D01*
X8047711Y-12649253D02*
X8047711Y-12550258D01*
X7948715Y-12550258D01*
X7948715Y-12649253D01*
X8047711Y-12649253D01*
X8049498Y-13712158D02*
X8049498Y-13613162D01*
X7950502Y-13613162D01*
X7950502Y-13712158D01*
X8049498Y-13712158D01*
X8049498Y-13962158D02*
X8049498Y-13863162D01*
X7950502Y-13863162D01*
X7950502Y-13962158D01*
X8049498Y-13962158D01*
X8049498Y-15017932D02*
X8049498Y-14918936D01*
X7950502Y-14918936D01*
X7950502Y-15017932D01*
X8049498Y-15017932D01*
X8049498Y-15267932D02*
X8049498Y-15168936D01*
X7950502Y-15168936D01*
X7950502Y-15267932D01*
X8049498Y-15267932D01*
X8049498Y-16328358D02*
X8049498Y-16229362D01*
X7950502Y-16229362D01*
X7950502Y-16328358D01*
X8049498Y-16328358D01*
X8049498Y-16578358D02*
X8049498Y-16479362D01*
X7950502Y-16479362D01*
X7950502Y-16578358D01*
X8049498Y-16578358D01*
X8049498Y-17659318D02*
X8049498Y-17560322D01*
X7950502Y-17560322D01*
X7950502Y-17659318D01*
X8049498Y-17659318D01*
X8049498Y-17909318D02*
X8049498Y-17810322D01*
X7950502Y-17810322D01*
X7950502Y-17909318D01*
X8049498Y-17909318D01*
X8349698Y-18990278D02*
X8349698Y-18891282D01*
X8250702Y-18891282D01*
X8250702Y-18990278D01*
X8349698Y-18990278D01*
X8349698Y-19240278D02*
X8349698Y-19141282D01*
X8250702Y-19141282D01*
X8250702Y-19240278D01*
X8349698Y-19240278D01*
X8397711Y-12399253D02*
X8397711Y-12300258D01*
X8298715Y-12300258D01*
X8298715Y-12399253D01*
X8397711Y-12399253D01*
X8397711Y-12649253D02*
X8397711Y-12550258D01*
X8298715Y-12550258D01*
X8298715Y-12649253D01*
X8397711Y-12649253D01*
X8399498Y-13712158D02*
X8399498Y-13613162D01*
X8300502Y-13613162D01*
X8300502Y-13712158D01*
X8399498Y-13712158D01*
X8399498Y-13962158D02*
X8399498Y-13863162D01*
X8300502Y-13863162D01*
X8300502Y-13962158D01*
X8399498Y-13962158D01*
X8399498Y-15017932D02*
X8399498Y-14918936D01*
X8300502Y-14918936D01*
X8300502Y-15017932D01*
X8399498Y-15017932D01*
X8399498Y-15267932D02*
X8399498Y-15168936D01*
X8300502Y-15168936D01*
X8300502Y-15267932D01*
X8399498Y-15267932D01*
X8399498Y-16328358D02*
X8399498Y-16229362D01*
X8300502Y-16229362D01*
X8300502Y-16328358D01*
X8399498Y-16328358D01*
X8399498Y-16578358D02*
X8399498Y-16479362D01*
X8300502Y-16479362D01*
X8300502Y-16578358D01*
X8399498Y-16578358D01*
X8399498Y-17659318D02*
X8399498Y-17560322D01*
X8300502Y-17560322D01*
X8300502Y-17659318D01*
X8399498Y-17659318D01*
X8399498Y-17909318D02*
X8399498Y-17810322D01*
X8300502Y-17810322D01*
X8300502Y-17909318D01*
X8399498Y-17909318D01*
X8929698Y-18990278D02*
X8929698Y-18891282D01*
X8830702Y-18891282D01*
X8830702Y-18990278D01*
X8929698Y-18990278D01*
X8929698Y-19240278D02*
X8929698Y-19141282D01*
X8830702Y-19141282D01*
X8830702Y-19240278D01*
X8929698Y-19240278D01*
X8977711Y-12399253D02*
X8977711Y-12300258D01*
X8878715Y-12300258D01*
X8878715Y-12399253D01*
X8977711Y-12399253D01*
X8977711Y-12649253D02*
X8977711Y-12550258D01*
X8878715Y-12550258D01*
X8878715Y-12649253D01*
X8977711Y-12649253D01*
X8979498Y-13712158D02*
X8979498Y-13613162D01*
X8880502Y-13613162D01*
X8880502Y-13712158D01*
X8979498Y-13712158D01*
X8979498Y-13962158D02*
X8979498Y-13863162D01*
X8880502Y-13863162D01*
X8880502Y-13962158D01*
X8979498Y-13962158D01*
X8979498Y-15017932D02*
X8979498Y-14918936D01*
X8880502Y-14918936D01*
X8880502Y-15017932D01*
X8979498Y-15017932D01*
X8979498Y-15267932D02*
X8979498Y-15168936D01*
X8880502Y-15168936D01*
X8880502Y-15267932D01*
X8979498Y-15267932D01*
X8979498Y-16328358D02*
X8979498Y-16229362D01*
X8880502Y-16229362D01*
X8880502Y-16328358D01*
X8979498Y-16328358D01*
X8979498Y-16578358D02*
X8979498Y-16479362D01*
X8880502Y-16479362D01*
X8880502Y-16578358D01*
X8979498Y-16578358D01*
X8979498Y-17659318D02*
X8979498Y-17560322D01*
X8880502Y-17560322D01*
X8880502Y-17659318D01*
X8979498Y-17659318D01*
X8979498Y-17909318D02*
X8979498Y-17810322D01*
X8880502Y-17810322D01*
X8880502Y-17909318D01*
X8979498Y-17909318D01*
X9279698Y-18990278D02*
X9279698Y-18891282D01*
X9180702Y-18891282D01*
X9180702Y-18990278D01*
X9279698Y-18990278D01*
X9279698Y-19240278D02*
X9279698Y-19141282D01*
X9180702Y-19141282D01*
X9180702Y-19240278D01*
X9279698Y-19240278D01*
X9327711Y-12399253D02*
X9327711Y-12300258D01*
X9228715Y-12300258D01*
X9228715Y-12399253D01*
X9327711Y-12399253D01*
X9327711Y-12649253D02*
X9327711Y-12550258D01*
X9228715Y-12550258D01*
X9228715Y-12649253D01*
X9327711Y-12649253D01*
X9329498Y-13712158D02*
X9329498Y-13613162D01*
X9230502Y-13613162D01*
X9230502Y-13712158D01*
X9329498Y-13712158D01*
X9329498Y-13962158D02*
X9329498Y-13863162D01*
X9230502Y-13863162D01*
X9230502Y-13962158D01*
X9329498Y-13962158D01*
X9329498Y-15017932D02*
X9329498Y-14918936D01*
X9230502Y-14918936D01*
X9230502Y-15017932D01*
X9329498Y-15017932D01*
X9329498Y-15267932D02*
X9329498Y-15168936D01*
X9230502Y-15168936D01*
X9230502Y-15267932D01*
X9329498Y-15267932D01*
X9329498Y-16328358D02*
X9329498Y-16229362D01*
X9230502Y-16229362D01*
X9230502Y-16328358D01*
X9329498Y-16328358D01*
X9329498Y-16578358D02*
X9329498Y-16479362D01*
X9230502Y-16479362D01*
X9230502Y-16578358D01*
X9329498Y-16578358D01*
X9329498Y-17659318D02*
X9329498Y-17560322D01*
X9230502Y-17560322D01*
X9230502Y-17659318D01*
X9329498Y-17659318D01*
X9329498Y-17909318D02*
X9329498Y-17810322D01*
X9230502Y-17810322D01*
X9230502Y-17909318D01*
X9329498Y-17909318D01*
X10769498Y-18749498D02*
X10769498Y-18650502D01*
X10670502Y-18650502D01*
X10670502Y-18749498D01*
X10769498Y-18749498D01*
X10769498Y-18999498D02*
X10769498Y-18900502D01*
X10670502Y-18900502D01*
X10670502Y-18999498D01*
X10769498Y-18999498D01*
X11119498Y-18749498D02*
X11119498Y-18650502D01*
X11020502Y-18650502D01*
X11020502Y-18749498D01*
X11119498Y-18749498D01*
X11119498Y-18999498D02*
X11119498Y-18900502D01*
X11020502Y-18900502D01*
X11020502Y-18999498D01*
X11119498Y-18999498D01*
X11699498Y-18749498D02*
X11699498Y-18650502D01*
X11600502Y-18650502D01*
X11600502Y-18749498D01*
X11699498Y-18749498D01*
X11699498Y-18999498D02*
X11699498Y-18900502D01*
X11600502Y-18900502D01*
X11600502Y-18999498D01*
X11699498Y-18999498D01*
X12049498Y-18749498D02*
X12049498Y-18650502D01*
X11950502Y-18650502D01*
X11950502Y-18749498D01*
X12049498Y-18749498D01*
X12049498Y-18999498D02*
X12049498Y-18900502D01*
X11950502Y-18900502D01*
X11950502Y-18999498D01*
X12049498Y-18999498D01*
X14316318Y-13856938D02*
X14316318Y-13757942D01*
X14217322Y-13757942D01*
X14217322Y-13856938D01*
X14316318Y-13856938D01*
X14316318Y-14106938D02*
X14316318Y-14007942D01*
X14217322Y-14007942D01*
X14217322Y-14106938D01*
X14316318Y-14106938D01*
X14323938Y-12485338D02*
X14323938Y-12386342D01*
X14224942Y-12386342D01*
X14224942Y-12485338D01*
X14323938Y-12485338D01*
X14323938Y-12735338D02*
X14323938Y-12636342D01*
X14224942Y-12636342D01*
X14224942Y-12735338D01*
X14323938Y-12735338D01*
X14323938Y-15227858D02*
X14323938Y-15128862D01*
X14224942Y-15128862D01*
X14224942Y-15227858D01*
X14323938Y-15227858D01*
X14323938Y-15477858D02*
X14323938Y-15378862D01*
X14224942Y-15378862D01*
X14224942Y-15477858D01*
X14323938Y-15477858D01*
X14666318Y-13856938D02*
X14666318Y-13757942D01*
X14567322Y-13757942D01*
X14567322Y-13856938D01*
X14666318Y-13856938D01*
X14666318Y-14106938D02*
X14666318Y-14007942D01*
X14567322Y-14007942D01*
X14567322Y-14106938D01*
X14666318Y-14106938D01*
X14673938Y-12485338D02*
X14673938Y-12386342D01*
X14574942Y-12386342D01*
X14574942Y-12485338D01*
X14673938Y-12485338D01*
X14673938Y-12735338D02*
X14673938Y-12636342D01*
X14574942Y-12636342D01*
X14574942Y-12735338D01*
X14673938Y-12735338D01*
X14673938Y-15227858D02*
X14673938Y-15128862D01*
X14574942Y-15128862D01*
X14574942Y-15227858D01*
X14673938Y-15227858D01*
X14673938Y-15477858D02*
X14673938Y-15378862D01*
X14574942Y-15378862D01*
X14574942Y-15477858D01*
X14673938Y-15477858D01*
X15246318Y-13856938D02*
X15246318Y-13757942D01*
X15147322Y-13757942D01*
X15147322Y-13856938D01*
X15246318Y-13856938D01*
X15246318Y-14106938D02*
X15246318Y-14007942D01*
X15147322Y-14007942D01*
X15147322Y-14106938D01*
X15246318Y-14106938D01*
X15253938Y-12485338D02*
X15253938Y-12386342D01*
X15154942Y-12386342D01*
X15154942Y-12485338D01*
X15253938Y-12485338D01*
X15253938Y-12735338D02*
X15253938Y-12636342D01*
X15154942Y-12636342D01*
X15154942Y-12735338D01*
X15253938Y-12735338D01*
X15253938Y-15227858D02*
X15253938Y-15128862D01*
X15154942Y-15128862D01*
X15154942Y-15227858D01*
X15253938Y-15227858D01*
X15253938Y-15477858D02*
X15253938Y-15378862D01*
X15154942Y-15378862D01*
X15154942Y-15477858D01*
X15253938Y-15477858D01*
X15596318Y-13856938D02*
X15596318Y-13757942D01*
X15497322Y-13757942D01*
X15497322Y-13856938D01*
X15596318Y-13856938D01*
X15596318Y-14106938D02*
X15596318Y-14007942D01*
X15497322Y-14007942D01*
X15497322Y-14106938D01*
X15596318Y-14106938D01*
X15603938Y-12485338D02*
X15603938Y-12386342D01*
X15504942Y-12386342D01*
X15504942Y-12485338D01*
X15603938Y-12485338D01*
X15603938Y-12735338D02*
X15603938Y-12636342D01*
X15504942Y-12636342D01*
X15504942Y-12735338D01*
X15603938Y-12735338D01*
X15603938Y-15227858D02*
X15603938Y-15128862D01*
X15504942Y-15128862D01*
X15504942Y-15227858D01*
X15603938Y-15227858D01*
X15603938Y-15477858D02*
X15603938Y-15378862D01*
X15504942Y-15378862D01*
X15504942Y-15477858D01*
X15603938Y-15477858D01*
D15*
X13974012Y-17223785D02*
X14054012Y-17143785D01*
X13974012Y-17063785D01*
X13894012Y-17143785D01*
X13974012Y-17223785D01*
X13976000Y-16463000D02*
X14056000Y-16383000D01*
X13976000Y-16303000D01*
X13896000Y-16383000D01*
X13976000Y-16463000D01*
X13978131Y-18810053D02*
X14058131Y-18730053D01*
X13978131Y-18650053D01*
X13898131Y-18730053D01*
X13978131Y-18810053D01*
X13982497Y-17985084D02*
X14062497Y-17905084D01*
X13982497Y-17825084D01*
X13902497Y-17905084D01*
X13982497Y-17985084D01*
X15498012Y-17223785D02*
X15578012Y-17143785D01*
X15498012Y-17063785D01*
X15418012Y-17143785D01*
X15498012Y-17223785D01*
X15500000Y-16463000D02*
X15580000Y-16383000D01*
X15500000Y-16303000D01*
X15420000Y-16383000D01*
X15500000Y-16463000D01*
X15502131Y-18810053D02*
X15582131Y-18730053D01*
X15502131Y-18650053D01*
X15422131Y-18730053D01*
X15502131Y-18810053D01*
X15506497Y-17985084D02*
X15586497Y-17905084D01*
X15506497Y-17825084D01*
X15426497Y-17905084D01*
X15506497Y-17985084D01*
D16*
X7807500Y-19834980D02*
X7992500Y-20019980D01*
X7992500Y-19834980D02*
X7807500Y-20019980D01*
X7992500Y-19927480D02*
G75*
G03*
X7992500Y-19927480I-92500J0D01*
G01*
X7807500Y-20384980D02*
X7992500Y-20569980D01*
X7992500Y-20384980D02*
X7807500Y-20569980D01*
X7992500Y-20477480D02*
G75*
G03*
X7992500Y-20477480I-92500J0D01*
G01*
X8907500Y-19842600D02*
X9092500Y-20027600D01*
X9092500Y-19842600D02*
X8907500Y-20027600D01*
X9092500Y-19935100D02*
G75*
G03*
X9092500Y-19935100I-92500J0D01*
G01*
X8907500Y-20392600D02*
X9092500Y-20577600D01*
X9092500Y-20392600D02*
X8907500Y-20577600D01*
X9092500Y-20485100D02*
G75*
G03*
X9092500Y-20485100I-92500J0D01*
G01*
X9477500Y-19842600D02*
X9662500Y-20027600D01*
X9662500Y-19842600D02*
X9477500Y-20027600D01*
X9662500Y-19935100D02*
G75*
G03*
X9662500Y-19935100I-92500J0D01*
G01*
X9477500Y-20392600D02*
X9662500Y-20577600D01*
X9662500Y-20392600D02*
X9477500Y-20577600D01*
X9662500Y-20485100D02*
G75*
G03*
X9662500Y-20485100I-92500J0D01*
G01*
X10553264Y-19837500D02*
X10738264Y-20022500D01*
X10738264Y-19837500D02*
X10553264Y-20022500D01*
X10738264Y-19930000D02*
G75*
G03*
X10738264Y-19930000I-92500J0D01*
G01*
X10553264Y-20387500D02*
X10738264Y-20572500D01*
X10738264Y-20387500D02*
X10553264Y-20572500D01*
X10738264Y-20480000D02*
G75*
G03*
X10738264Y-20480000I-92500J0D01*
G01*
X11685417Y-19841460D02*
X11870417Y-20026460D01*
X11870417Y-19841460D02*
X11685417Y-20026460D01*
X11870417Y-19933960D02*
G75*
G03*
X11870417Y-19933960I-92500J0D01*
G01*
X11685417Y-20391460D02*
X11870417Y-20576460D01*
X11870417Y-20391460D02*
X11685417Y-20576460D01*
X11870417Y-20483960D02*
G75*
G03*
X11870417Y-20483960I-92500J0D01*
G01*
X12255417Y-19841460D02*
X12440417Y-20026460D01*
X12440417Y-19841460D02*
X12255417Y-20026460D01*
X12440417Y-19933960D02*
G75*
G03*
X12440417Y-19933960I-92500J0D01*
G01*
X12255417Y-20391460D02*
X12440417Y-20576460D01*
X12440417Y-20391460D02*
X12255417Y-20576460D01*
X12440417Y-20483960D02*
G75*
G03*
X12440417Y-20483960I-92500J0D01*
G01*
X13407500Y-19838597D02*
X13592500Y-20023597D01*
X13592500Y-19838597D02*
X13407500Y-20023597D01*
X13592500Y-19931097D02*
G75*
G03*
X13592500Y-19931097I-92500J0D01*
G01*
X13407500Y-20388597D02*
X13592500Y-20573597D01*
X13592500Y-20388597D02*
X13407500Y-20573597D01*
X13592500Y-20481097D02*
G75*
G03*
X13592500Y-20481097I-92500J0D01*
G01*
X13977500Y-19838597D02*
X14162500Y-20023597D01*
X14162500Y-19838597D02*
X13977500Y-20023597D01*
X14162500Y-19931097D02*
G75*
G03*
X14162500Y-19931097I-92500J0D01*
G01*
X13977500Y-20388597D02*
X14162500Y-20573597D01*
X14162500Y-20388597D02*
X13977500Y-20573597D01*
X14162500Y-20481097D02*
G75*
G03*
X14162500Y-20481097I-92500J0D01*
G01*
X15047689Y-19846917D02*
X15232689Y-20031917D01*
X15232689Y-19846917D02*
X15047689Y-20031917D01*
X15232689Y-19939417D02*
G75*
G03*
X15232689Y-19939417I-92500J0D01*
G01*
X15047689Y-20396917D02*
X15232689Y-20581917D01*
X15232689Y-20396917D02*
X15047689Y-20581917D01*
X15232689Y-20489417D02*
G75*
G03*
X15232689Y-20489417I-92500J0D01*
G01*
X16122500Y-19837500D02*
X16307500Y-20022500D01*
X16307500Y-19837500D02*
X16122500Y-20022500D01*
X16307500Y-19930000D02*
G75*
G03*
X16307500Y-19930000I-92500J0D01*
G01*
X16122500Y-20387500D02*
X16307500Y-20572500D01*
X16307500Y-20387500D02*
X16122500Y-20572500D01*
X16307500Y-20480000D02*
G75*
G03*
X16307500Y-20480000I-92500J0D01*
G01*
X16692500Y-19837500D02*
X16877500Y-20022500D01*
X16877500Y-19837500D02*
X16692500Y-20022500D01*
X16877500Y-19930000D02*
G75*
G03*
X16877500Y-19930000I-92500J0D01*
G01*
X16692500Y-20387500D02*
X16877500Y-20572500D01*
X16877500Y-20387500D02*
X16692500Y-20572500D01*
X16877500Y-20480000D02*
G75*
G03*
X16877500Y-20480000I-92500J0D01*
G01*
X17878241Y-19829204D02*
X18063241Y-20014204D01*
X18063241Y-19829204D02*
X17878241Y-20014204D01*
X18063241Y-19921704D02*
G75*
G03*
X18063241Y-19921704I-92500J0D01*
G01*
X17878241Y-20379204D02*
X18063241Y-20564204D01*
X18063241Y-20379204D02*
X17878241Y-20564204D01*
X18063241Y-20471704D02*
G75*
G03*
X18063241Y-20471704I-92500J0D01*
G01*
X18448241Y-19829204D02*
X18633241Y-20014204D01*
X18633241Y-19829204D02*
X18448241Y-20014204D01*
X18633241Y-19921704D02*
G75*
G03*
X18633241Y-19921704I-92500J0D01*
G01*
X18448241Y-20379204D02*
X18633241Y-20564204D01*
X18633241Y-20379204D02*
X18448241Y-20564204D01*
X18633241Y-20471704D02*
G75*
G03*
X18633241Y-20471704I-92500J0D01*
G01*
X19622500Y-19837500D02*
X19807500Y-20022500D01*
X19807500Y-19837500D02*
X19622500Y-20022500D01*
X19807500Y-19930000D02*
G75*
G03*
X19807500Y-19930000I-92500J0D01*
G01*
X19622500Y-20387500D02*
X19807500Y-20572500D01*
X19807500Y-20387500D02*
X19622500Y-20572500D01*
X19807500Y-20480000D02*
G75*
G03*
X19807500Y-20480000I-92500J0D01*
G01*
X20192500Y-19837500D02*
X20377500Y-20022500D01*
X20377500Y-19837500D02*
X20192500Y-20022500D01*
X20377500Y-19930000D02*
G75*
G03*
X20377500Y-19930000I-92500J0D01*
G01*
X20192500Y-20387500D02*
X20377500Y-20572500D01*
X20377500Y-20387500D02*
X20192500Y-20572500D01*
X20377500Y-20480000D02*
G75*
G03*
X20377500Y-20480000I-92500J0D01*
G01*
X21307500Y-19837500D02*
X21492500Y-20022500D01*
X21492500Y-19837500D02*
X21307500Y-20022500D01*
X21492500Y-19930000D02*
G75*
G03*
X21492500Y-19930000I-92500J0D01*
G01*
X21307500Y-20387500D02*
X21492500Y-20572500D01*
X21492500Y-20387500D02*
X21307500Y-20572500D01*
X21492500Y-20480000D02*
G75*
G03*
X21492500Y-20480000I-92500J0D01*
G01*
X22422500Y-19837500D02*
X22607500Y-20022500D01*
X22607500Y-19837500D02*
X22422500Y-20022500D01*
X22607500Y-19930000D02*
G75*
G03*
X22607500Y-19930000I-92500J0D01*
G01*
X22422500Y-20387500D02*
X22607500Y-20572500D01*
X22607500Y-20387500D02*
X22422500Y-20572500D01*
X22607500Y-20480000D02*
G75*
G03*
X22607500Y-20480000I-92500J0D01*
G01*
X22992500Y-19837500D02*
X23177500Y-20022500D01*
X23177500Y-19837500D02*
X22992500Y-20022500D01*
X23177500Y-19930000D02*
G75*
G03*
X23177500Y-19930000I-92500J0D01*
G01*
X22992500Y-20387500D02*
X23177500Y-20572500D01*
X23177500Y-20387500D02*
X22992500Y-20572500D01*
X23177500Y-20480000D02*
G75*
G03*
X23177500Y-20480000I-92500J0D01*
G01*
X24107500Y-19837500D02*
X24292500Y-20022500D01*
X24292500Y-19837500D02*
X24107500Y-20022500D01*
X24292500Y-19930000D02*
G75*
G03*
X24292500Y-19930000I-92500J0D01*
G01*
X24107500Y-20387500D02*
X24292500Y-20572500D01*
X24292500Y-20387500D02*
X24107500Y-20572500D01*
X24292500Y-20480000D02*
G75*
G03*
X24292500Y-20480000I-92500J0D01*
G01*
X25207500Y-19837500D02*
X25392500Y-20022500D01*
X25392500Y-19837500D02*
X25207500Y-20022500D01*
X25392500Y-19930000D02*
G75*
G03*
X25392500Y-19930000I-92500J0D01*
G01*
X25207500Y-20387500D02*
X25392500Y-20572500D01*
X25392500Y-20387500D02*
X25207500Y-20572500D01*
X25392500Y-20480000D02*
G75*
G03*
X25392500Y-20480000I-92500J0D01*
G01*
X26307500Y-19837500D02*
X26492500Y-20022500D01*
X26492500Y-19837500D02*
X26307500Y-20022500D01*
X26492500Y-19930000D02*
G75*
G03*
X26492500Y-19930000I-92500J0D01*
G01*
X26307500Y-20387500D02*
X26492500Y-20572500D01*
X26492500Y-20387500D02*
X26307500Y-20572500D01*
X26492500Y-20480000D02*
G75*
G03*
X26492500Y-20480000I-92500J0D01*
G01*
D17*
X10781800Y-16483000D02*
X11015800Y-16717000D01*
X11015800Y-16483000D02*
X10781800Y-16717000D01*
X10898800Y-16483000D02*
X10898800Y-16717000D01*
X10781800Y-16600000D02*
X11015800Y-16600000D01*
X10792000Y-13283000D02*
X11026000Y-13517000D01*
X11026000Y-13283000D02*
X10792000Y-13517000D01*
X10909000Y-13283000D02*
X10909000Y-13517000D01*
X10792000Y-13400000D02*
X11026000Y-13400000D01*
X11731800Y-15638000D02*
X11965800Y-15872000D01*
X11965800Y-15638000D02*
X11731800Y-15872000D01*
X11848800Y-15638000D02*
X11848800Y-15872000D01*
X11731800Y-15755000D02*
X11965800Y-15755000D01*
X11731800Y-17328000D02*
X11965800Y-17562000D01*
X11965800Y-17328000D02*
X11731800Y-17562000D01*
X11848800Y-17328000D02*
X11848800Y-17562000D01*
X11731800Y-17445000D02*
X11965800Y-17445000D01*
X11742000Y-12438000D02*
X11976000Y-12672000D01*
X11976000Y-12438000D02*
X11742000Y-12672000D01*
X11859000Y-12438000D02*
X11859000Y-12672000D01*
X11742000Y-12555000D02*
X11976000Y-12555000D01*
X11742000Y-14128000D02*
X11976000Y-14362000D01*
X11976000Y-14128000D02*
X11742000Y-14362000D01*
X11859000Y-14128000D02*
X11859000Y-14362000D01*
X11742000Y-14245000D02*
X11976000Y-14245000D01*
X11772800Y-16483000D02*
X12006800Y-16717000D01*
X12006800Y-16483000D02*
X11772800Y-16717000D01*
X11889800Y-16483000D02*
X11889800Y-16717000D01*
X11772800Y-16600000D02*
X12006800Y-16600000D01*
X11783000Y-13283000D02*
X12017000Y-13517000D01*
X12017000Y-13283000D02*
X11783000Y-13517000D01*
X11900000Y-13283000D02*
X11900000Y-13517000D01*
X11783000Y-13400000D02*
X12017000Y-13400000D01*
X12572800Y-16483000D02*
X12806800Y-16717000D01*
X12806800Y-16483000D02*
X12572800Y-16717000D01*
X12689800Y-16483000D02*
X12689800Y-16717000D01*
X12572800Y-16600000D02*
X12806800Y-16600000D01*
X12583000Y-13283000D02*
X12817000Y-13517000D01*
X12817000Y-13283000D02*
X12583000Y-13517000D01*
X12700000Y-13283000D02*
X12700000Y-13517000D01*
X12583000Y-13400000D02*
X12817000Y-13400000D01*
X17264433Y-16886762D02*
X17498433Y-17120762D01*
X17498433Y-16886762D02*
X17264433Y-17120762D01*
X17381433Y-16886762D02*
X17381433Y-17120762D01*
X17264433Y-17003762D02*
X17498433Y-17003762D01*
X17292000Y-14117636D02*
X17526000Y-14351636D01*
X17526000Y-14117636D02*
X17292000Y-14351636D01*
X17409000Y-14117636D02*
X17409000Y-14351636D01*
X17292000Y-14234636D02*
X17526000Y-14234636D01*
X18064433Y-16886762D02*
X18298433Y-17120762D01*
X18298433Y-16886762D02*
X18064433Y-17120762D01*
X18181433Y-16886762D02*
X18181433Y-17120762D01*
X18064433Y-17003762D02*
X18298433Y-17003762D01*
X18105433Y-16041761D02*
X18339433Y-16275761D01*
X18339433Y-16041761D02*
X18105433Y-16275761D01*
X18222433Y-16041761D02*
X18222433Y-16275761D01*
X18105433Y-16158761D02*
X18339433Y-16158761D01*
X18105433Y-17731762D02*
X18339433Y-17965762D01*
X18339433Y-17731762D02*
X18105433Y-17965762D01*
X18222433Y-17731762D02*
X18222433Y-17965762D01*
X18105433Y-17848762D02*
X18339433Y-17848762D01*
X18242000Y-13272636D02*
X18476000Y-13506636D01*
X18476000Y-13272636D02*
X18242000Y-13506636D01*
X18359000Y-13272636D02*
X18359000Y-13506636D01*
X18242000Y-13389636D02*
X18476000Y-13389636D01*
X18242000Y-14962636D02*
X18476000Y-15196636D01*
X18476000Y-14962636D02*
X18242000Y-15196636D01*
X18359000Y-14962636D02*
X18359000Y-15196636D01*
X18242000Y-15079636D02*
X18476000Y-15079636D01*
X18283000Y-14117636D02*
X18517000Y-14351636D01*
X18517000Y-14117636D02*
X18283000Y-14351636D01*
X18400000Y-14117636D02*
X18400000Y-14351636D01*
X18283000Y-14234636D02*
X18517000Y-14234636D01*
X19055433Y-16886762D02*
X19289433Y-17120762D01*
X19289433Y-16886762D02*
X19055433Y-17120762D01*
X19172433Y-16886762D02*
X19172433Y-17120762D01*
X19055433Y-17003762D02*
X19289433Y-17003762D01*
X19083000Y-14117636D02*
X19317000Y-14351636D01*
X19317000Y-14117636D02*
X19083000Y-14351636D01*
X19200000Y-14117636D02*
X19200000Y-14351636D01*
X19083000Y-14234636D02*
X19317000Y-14234636D01*
X20933000Y-13233000D02*
X21167000Y-13467000D01*
X21167000Y-13233000D02*
X20933000Y-13467000D01*
X21050000Y-13233000D02*
X21050000Y-13467000D01*
X20933000Y-13350000D02*
X21167000Y-13350000D01*
X20933000Y-16483000D02*
X21167000Y-16717000D01*
X21167000Y-16483000D02*
X20933000Y-16717000D01*
X21050000Y-16483000D02*
X21050000Y-16717000D01*
X20933000Y-16600000D02*
X21167000Y-16600000D01*
X21733000Y-13233000D02*
X21967000Y-13467000D01*
X21967000Y-13233000D02*
X21733000Y-13467000D01*
X21850000Y-13233000D02*
X21850000Y-13467000D01*
X21733000Y-13350000D02*
X21967000Y-13350000D01*
X21733000Y-16483000D02*
X21967000Y-16717000D01*
X21967000Y-16483000D02*
X21733000Y-16717000D01*
X21850000Y-16483000D02*
X21850000Y-16717000D01*
X21733000Y-16600000D02*
X21967000Y-16600000D01*
X21774000Y-12388000D02*
X22008000Y-12622000D01*
X22008000Y-12388000D02*
X21774000Y-12622000D01*
X21891000Y-12388000D02*
X21891000Y-12622000D01*
X21774000Y-12505000D02*
X22008000Y-12505000D01*
X21774000Y-14078000D02*
X22008000Y-14312000D01*
X22008000Y-14078000D02*
X21774000Y-14312000D01*
X21891000Y-14078000D02*
X21891000Y-14312000D01*
X21774000Y-14195000D02*
X22008000Y-14195000D01*
X21774000Y-15638000D02*
X22008000Y-15872000D01*
X22008000Y-15638000D02*
X21774000Y-15872000D01*
X21891000Y-15638000D02*
X21891000Y-15872000D01*
X21774000Y-15755000D02*
X22008000Y-15755000D01*
X21774000Y-17328000D02*
X22008000Y-17562000D01*
X22008000Y-17328000D02*
X21774000Y-17562000D01*
X21891000Y-17328000D02*
X21891000Y-17562000D01*
X21774000Y-17445000D02*
X22008000Y-17445000D01*
X22724000Y-13233000D02*
X22958000Y-13467000D01*
X22958000Y-13233000D02*
X22724000Y-13467000D01*
X22841000Y-13233000D02*
X22841000Y-13467000D01*
X22724000Y-13350000D02*
X22958000Y-13350000D01*
X22724000Y-16483000D02*
X22958000Y-16717000D01*
X22958000Y-16483000D02*
X22724000Y-16717000D01*
X22841000Y-16483000D02*
X22841000Y-16717000D01*
X22724000Y-16600000D02*
X22958000Y-16600000D01*
X24583000Y-13233000D02*
X24817000Y-13467000D01*
X24817000Y-13233000D02*
X24583000Y-13467000D01*
X24700000Y-13233000D02*
X24700000Y-13467000D01*
X24583000Y-13350000D02*
X24817000Y-13350000D01*
X24583000Y-16483000D02*
X24817000Y-16717000D01*
X24817000Y-16483000D02*
X24583000Y-16717000D01*
X24700000Y-16483000D02*
X24700000Y-16717000D01*
X24583000Y-16600000D02*
X24817000Y-16600000D01*
X25383000Y-13233000D02*
X25617000Y-13467000D01*
X25617000Y-13233000D02*
X25383000Y-13467000D01*
X25500000Y-13233000D02*
X25500000Y-13467000D01*
X25383000Y-13350000D02*
X25617000Y-13350000D01*
X25383000Y-16483000D02*
X25617000Y-16717000D01*
X25617000Y-16483000D02*
X25383000Y-16717000D01*
X25500000Y-16483000D02*
X25500000Y-16717000D01*
X25383000Y-16600000D02*
X25617000Y-16600000D01*
X25424000Y-12388000D02*
X25658000Y-12622000D01*
X25658000Y-12388000D02*
X25424000Y-12622000D01*
X25541000Y-12388000D02*
X25541000Y-12622000D01*
X25424000Y-12505000D02*
X25658000Y-12505000D01*
X25424000Y-14078000D02*
X25658000Y-14312000D01*
X25658000Y-14078000D02*
X25424000Y-14312000D01*
X25541000Y-14078000D02*
X25541000Y-14312000D01*
X25424000Y-14195000D02*
X25658000Y-14195000D01*
X25424000Y-15638000D02*
X25658000Y-15872000D01*
X25658000Y-15638000D02*
X25424000Y-15872000D01*
X25541000Y-15638000D02*
X25541000Y-15872000D01*
X25424000Y-15755000D02*
X25658000Y-15755000D01*
X25424000Y-17328000D02*
X25658000Y-17562000D01*
X25658000Y-17328000D02*
X25424000Y-17562000D01*
X25541000Y-17328000D02*
X25541000Y-17562000D01*
X25424000Y-17445000D02*
X25658000Y-17445000D01*
X26374000Y-13233000D02*
X26608000Y-13467000D01*
X26608000Y-13233000D02*
X26374000Y-13467000D01*
X26491000Y-13233000D02*
X26491000Y-13467000D01*
X26374000Y-13350000D02*
X26608000Y-13350000D01*
X26374000Y-16483000D02*
X26608000Y-16717000D01*
X26608000Y-16483000D02*
X26374000Y-16717000D01*
X26491000Y-16483000D02*
X26491000Y-16717000D01*
X26374000Y-16600000D02*
X26608000Y-16600000D01*
D11*
X6437619Y-22506524D02*
X6437619Y-22306524D01*
X6437619Y-22306524D02*
X6485238Y-22306524D01*
X6485238Y-22306524D02*
X6513809Y-22316048D01*
X6513809Y-22316048D02*
X6532857Y-22335095D01*
X6532857Y-22335095D02*
X6542381Y-22354143D01*
X6542381Y-22354143D02*
X6551905Y-22392238D01*
X6551905Y-22392238D02*
X6551905Y-22420809D01*
X6551905Y-22420809D02*
X6542381Y-22458905D01*
X6542381Y-22458905D02*
X6532857Y-22477952D01*
X6532857Y-22477952D02*
X6513809Y-22497000D01*
X6513809Y-22497000D02*
X6485238Y-22506524D01*
X6485238Y-22506524D02*
X6437619Y-22506524D01*
X6637619Y-22506524D02*
X6637619Y-22373190D01*
X6637619Y-22411286D02*
X6647143Y-22392238D01*
X6647143Y-22392238D02*
X6656667Y-22382714D01*
X6656667Y-22382714D02*
X6675714Y-22373190D01*
X6675714Y-22373190D02*
X6694762Y-22373190D01*
X6761428Y-22506524D02*
X6761428Y-22373190D01*
X6761428Y-22306524D02*
X6751905Y-22316048D01*
X6751905Y-22316048D02*
X6761428Y-22325571D01*
X6761428Y-22325571D02*
X6770952Y-22316048D01*
X6770952Y-22316048D02*
X6761428Y-22306524D01*
X6761428Y-22306524D02*
X6761428Y-22325571D01*
X6885238Y-22506524D02*
X6866190Y-22497000D01*
X6866190Y-22497000D02*
X6856667Y-22477952D01*
X6856667Y-22477952D02*
X6856667Y-22306524D01*
X6990000Y-22506524D02*
X6970952Y-22497000D01*
X6970952Y-22497000D02*
X6961428Y-22477952D01*
X6961428Y-22477952D02*
X6961428Y-22306524D01*
X7218571Y-22506524D02*
X7218571Y-22306524D01*
X7218571Y-22306524D02*
X7285238Y-22449381D01*
X7285238Y-22449381D02*
X7351905Y-22306524D01*
X7351905Y-22306524D02*
X7351905Y-22506524D01*
X7532857Y-22506524D02*
X7532857Y-22401762D01*
X7532857Y-22401762D02*
X7523333Y-22382714D01*
X7523333Y-22382714D02*
X7504286Y-22373190D01*
X7504286Y-22373190D02*
X7466190Y-22373190D01*
X7466190Y-22373190D02*
X7447143Y-22382714D01*
X7532857Y-22497000D02*
X7513809Y-22506524D01*
X7513809Y-22506524D02*
X7466190Y-22506524D01*
X7466190Y-22506524D02*
X7447143Y-22497000D01*
X7447143Y-22497000D02*
X7437619Y-22477952D01*
X7437619Y-22477952D02*
X7437619Y-22458905D01*
X7437619Y-22458905D02*
X7447143Y-22439857D01*
X7447143Y-22439857D02*
X7466190Y-22430333D01*
X7466190Y-22430333D02*
X7513809Y-22430333D01*
X7513809Y-22430333D02*
X7532857Y-22420809D01*
X7628095Y-22373190D02*
X7628095Y-22573190D01*
X7628095Y-22382714D02*
X7647143Y-22373190D01*
X7647143Y-22373190D02*
X7685238Y-22373190D01*
X7685238Y-22373190D02*
X7704286Y-22382714D01*
X7704286Y-22382714D02*
X7713809Y-22392238D01*
X7713809Y-22392238D02*
X7723333Y-22411286D01*
X7723333Y-22411286D02*
X7723333Y-22468428D01*
X7723333Y-22468428D02*
X7713809Y-22487476D01*
X7713809Y-22487476D02*
X7704286Y-22497000D01*
X7704286Y-22497000D02*
X7685238Y-22506524D01*
X7685238Y-22506524D02*
X7647143Y-22506524D01*
X7647143Y-22506524D02*
X7628095Y-22497000D01*
X7809048Y-22487476D02*
X7818571Y-22497000D01*
X7818571Y-22497000D02*
X7809048Y-22506524D01*
X7809048Y-22506524D02*
X7799524Y-22497000D01*
X7799524Y-22497000D02*
X7809048Y-22487476D01*
X7809048Y-22487476D02*
X7809048Y-22506524D01*
X7809048Y-22382714D02*
X7818571Y-22392238D01*
X7818571Y-22392238D02*
X7809048Y-22401762D01*
X7809048Y-22401762D02*
X7799524Y-22392238D01*
X7799524Y-22392238D02*
X7809048Y-22382714D01*
X7809048Y-22382714D02*
X7809048Y-22401762D01*
D12*
X6100000Y-22789000D02*
X6190000Y-22879000D01*
X6190000Y-22789000D02*
X6100000Y-22879000D01*
D11*
X6475714Y-22726524D02*
X6494762Y-22726524D01*
X6494762Y-22726524D02*
X6513809Y-22736048D01*
X6513809Y-22736048D02*
X6523333Y-22745571D01*
X6523333Y-22745571D02*
X6532857Y-22764619D01*
X6532857Y-22764619D02*
X6542381Y-22802714D01*
X6542381Y-22802714D02*
X6542381Y-22850333D01*
X6542381Y-22850333D02*
X6532857Y-22888428D01*
X6532857Y-22888428D02*
X6523333Y-22907476D01*
X6523333Y-22907476D02*
X6513809Y-22917000D01*
X6513809Y-22917000D02*
X6494762Y-22926524D01*
X6494762Y-22926524D02*
X6475714Y-22926524D01*
X6475714Y-22926524D02*
X6456667Y-22917000D01*
X6456667Y-22917000D02*
X6447143Y-22907476D01*
X6447143Y-22907476D02*
X6437619Y-22888428D01*
X6437619Y-22888428D02*
X6428095Y-22850333D01*
X6428095Y-22850333D02*
X6428095Y-22802714D01*
X6428095Y-22802714D02*
X6437619Y-22764619D01*
X6437619Y-22764619D02*
X6447143Y-22745571D01*
X6447143Y-22745571D02*
X6456667Y-22736048D01*
X6456667Y-22736048D02*
X6475714Y-22726524D01*
X6628095Y-22907476D02*
X6637619Y-22917000D01*
X6637619Y-22917000D02*
X6628095Y-22926524D01*
X6628095Y-22926524D02*
X6618571Y-22917000D01*
X6618571Y-22917000D02*
X6628095Y-22907476D01*
X6628095Y-22907476D02*
X6628095Y-22926524D01*
X6732857Y-22926524D02*
X6770952Y-22926524D01*
X6770952Y-22926524D02*
X6790000Y-22917000D01*
X6790000Y-22917000D02*
X6799524Y-22907476D01*
X6799524Y-22907476D02*
X6818571Y-22878905D01*
X6818571Y-22878905D02*
X6828095Y-22840809D01*
X6828095Y-22840809D02*
X6828095Y-22764619D01*
X6828095Y-22764619D02*
X6818571Y-22745571D01*
X6818571Y-22745571D02*
X6809048Y-22736048D01*
X6809048Y-22736048D02*
X6790000Y-22726524D01*
X6790000Y-22726524D02*
X6751905Y-22726524D01*
X6751905Y-22726524D02*
X6732857Y-22736048D01*
X6732857Y-22736048D02*
X6723333Y-22745571D01*
X6723333Y-22745571D02*
X6713809Y-22764619D01*
X6713809Y-22764619D02*
X6713809Y-22812238D01*
X6713809Y-22812238D02*
X6723333Y-22831286D01*
X6723333Y-22831286D02*
X6732857Y-22840809D01*
X6732857Y-22840809D02*
X6751905Y-22850333D01*
X6751905Y-22850333D02*
X6790000Y-22850333D01*
X6790000Y-22850333D02*
X6809048Y-22840809D01*
X6809048Y-22840809D02*
X6818571Y-22831286D01*
X6818571Y-22831286D02*
X6828095Y-22812238D01*
X6951905Y-22726524D02*
X6970952Y-22726524D01*
X6970952Y-22726524D02*
X6990000Y-22736048D01*
X6990000Y-22736048D02*
X6999524Y-22745571D01*
X6999524Y-22745571D02*
X7009048Y-22764619D01*
X7009048Y-22764619D02*
X7018571Y-22802714D01*
X7018571Y-22802714D02*
X7018571Y-22850333D01*
X7018571Y-22850333D02*
X7009048Y-22888428D01*
X7009048Y-22888428D02*
X6999524Y-22907476D01*
X6999524Y-22907476D02*
X6990000Y-22917000D01*
X6990000Y-22917000D02*
X6970952Y-22926524D01*
X6970952Y-22926524D02*
X6951905Y-22926524D01*
X6951905Y-22926524D02*
X6932857Y-22917000D01*
X6932857Y-22917000D02*
X6923333Y-22907476D01*
X6923333Y-22907476D02*
X6913809Y-22888428D01*
X6913809Y-22888428D02*
X6904286Y-22850333D01*
X6904286Y-22850333D02*
X6904286Y-22802714D01*
X6904286Y-22802714D02*
X6913809Y-22764619D01*
X6913809Y-22764619D02*
X6923333Y-22745571D01*
X6923333Y-22745571D02*
X6932857Y-22736048D01*
X6932857Y-22736048D02*
X6951905Y-22726524D01*
X7142381Y-22726524D02*
X7161429Y-22726524D01*
X7161429Y-22726524D02*
X7180476Y-22736048D01*
X7180476Y-22736048D02*
X7190000Y-22745571D01*
X7190000Y-22745571D02*
X7199524Y-22764619D01*
X7199524Y-22764619D02*
X7209048Y-22802714D01*
X7209048Y-22802714D02*
X7209048Y-22850333D01*
X7209048Y-22850333D02*
X7199524Y-22888428D01*
X7199524Y-22888428D02*
X7190000Y-22907476D01*
X7190000Y-22907476D02*
X7180476Y-22917000D01*
X7180476Y-22917000D02*
X7161429Y-22926524D01*
X7161429Y-22926524D02*
X7142381Y-22926524D01*
X7142381Y-22926524D02*
X7123333Y-22917000D01*
X7123333Y-22917000D02*
X7113809Y-22907476D01*
X7113809Y-22907476D02*
X7104286Y-22888428D01*
X7104286Y-22888428D02*
X7094762Y-22850333D01*
X7094762Y-22850333D02*
X7094762Y-22802714D01*
X7094762Y-22802714D02*
X7104286Y-22764619D01*
X7104286Y-22764619D02*
X7113809Y-22745571D01*
X7113809Y-22745571D02*
X7123333Y-22736048D01*
X7123333Y-22736048D02*
X7142381Y-22726524D01*
X7294762Y-22926524D02*
X7294762Y-22793190D01*
X7294762Y-22812238D02*
X7304286Y-22802714D01*
X7304286Y-22802714D02*
X7323333Y-22793190D01*
X7323333Y-22793190D02*
X7351905Y-22793190D01*
X7351905Y-22793190D02*
X7370952Y-22802714D01*
X7370952Y-22802714D02*
X7380476Y-22821762D01*
X7380476Y-22821762D02*
X7380476Y-22926524D01*
X7380476Y-22821762D02*
X7390000Y-22802714D01*
X7390000Y-22802714D02*
X7409048Y-22793190D01*
X7409048Y-22793190D02*
X7437619Y-22793190D01*
X7437619Y-22793190D02*
X7456667Y-22802714D01*
X7456667Y-22802714D02*
X7466190Y-22821762D01*
X7466190Y-22821762D02*
X7466190Y-22926524D01*
X7561429Y-22926524D02*
X7561429Y-22793190D01*
X7561429Y-22812238D02*
X7570952Y-22802714D01*
X7570952Y-22802714D02*
X7590000Y-22793190D01*
X7590000Y-22793190D02*
X7618571Y-22793190D01*
X7618571Y-22793190D02*
X7637619Y-22802714D01*
X7637619Y-22802714D02*
X7647143Y-22821762D01*
X7647143Y-22821762D02*
X7647143Y-22926524D01*
X7647143Y-22821762D02*
X7656667Y-22802714D01*
X7656667Y-22802714D02*
X7675714Y-22793190D01*
X7675714Y-22793190D02*
X7704286Y-22793190D01*
X7704286Y-22793190D02*
X7723333Y-22802714D01*
X7723333Y-22802714D02*
X7732857Y-22821762D01*
X7732857Y-22821762D02*
X7732857Y-22926524D01*
X8123333Y-22717000D02*
X7951905Y-22974143D01*
X8380476Y-22726524D02*
X8399524Y-22726524D01*
X8399524Y-22726524D02*
X8418572Y-22736048D01*
X8418572Y-22736048D02*
X8428095Y-22745571D01*
X8428095Y-22745571D02*
X8437619Y-22764619D01*
X8437619Y-22764619D02*
X8447143Y-22802714D01*
X8447143Y-22802714D02*
X8447143Y-22850333D01*
X8447143Y-22850333D02*
X8437619Y-22888428D01*
X8437619Y-22888428D02*
X8428095Y-22907476D01*
X8428095Y-22907476D02*
X8418572Y-22917000D01*
X8418572Y-22917000D02*
X8399524Y-22926524D01*
X8399524Y-22926524D02*
X8380476Y-22926524D01*
X8380476Y-22926524D02*
X8361429Y-22917000D01*
X8361429Y-22917000D02*
X8351905Y-22907476D01*
X8351905Y-22907476D02*
X8342381Y-22888428D01*
X8342381Y-22888428D02*
X8332857Y-22850333D01*
X8332857Y-22850333D02*
X8332857Y-22802714D01*
X8332857Y-22802714D02*
X8342381Y-22764619D01*
X8342381Y-22764619D02*
X8351905Y-22745571D01*
X8351905Y-22745571D02*
X8361429Y-22736048D01*
X8361429Y-22736048D02*
X8380476Y-22726524D01*
X8532857Y-22907476D02*
X8542381Y-22917000D01*
X8542381Y-22917000D02*
X8532857Y-22926524D01*
X8532857Y-22926524D02*
X8523334Y-22917000D01*
X8523334Y-22917000D02*
X8532857Y-22907476D01*
X8532857Y-22907476D02*
X8532857Y-22926524D01*
X8666191Y-22726524D02*
X8685238Y-22726524D01*
X8685238Y-22726524D02*
X8704286Y-22736048D01*
X8704286Y-22736048D02*
X8713810Y-22745571D01*
X8713810Y-22745571D02*
X8723334Y-22764619D01*
X8723334Y-22764619D02*
X8732857Y-22802714D01*
X8732857Y-22802714D02*
X8732857Y-22850333D01*
X8732857Y-22850333D02*
X8723334Y-22888428D01*
X8723334Y-22888428D02*
X8713810Y-22907476D01*
X8713810Y-22907476D02*
X8704286Y-22917000D01*
X8704286Y-22917000D02*
X8685238Y-22926524D01*
X8685238Y-22926524D02*
X8666191Y-22926524D01*
X8666191Y-22926524D02*
X8647143Y-22917000D01*
X8647143Y-22917000D02*
X8637619Y-22907476D01*
X8637619Y-22907476D02*
X8628095Y-22888428D01*
X8628095Y-22888428D02*
X8618572Y-22850333D01*
X8618572Y-22850333D02*
X8618572Y-22802714D01*
X8618572Y-22802714D02*
X8628095Y-22764619D01*
X8628095Y-22764619D02*
X8637619Y-22745571D01*
X8637619Y-22745571D02*
X8647143Y-22736048D01*
X8647143Y-22736048D02*
X8666191Y-22726524D01*
X8799524Y-22726524D02*
X8923334Y-22726524D01*
X8923334Y-22726524D02*
X8856667Y-22802714D01*
X8856667Y-22802714D02*
X8885238Y-22802714D01*
X8885238Y-22802714D02*
X8904286Y-22812238D01*
X8904286Y-22812238D02*
X8913810Y-22821762D01*
X8913810Y-22821762D02*
X8923334Y-22840809D01*
X8923334Y-22840809D02*
X8923334Y-22888428D01*
X8923334Y-22888428D02*
X8913810Y-22907476D01*
X8913810Y-22907476D02*
X8904286Y-22917000D01*
X8904286Y-22917000D02*
X8885238Y-22926524D01*
X8885238Y-22926524D02*
X8828095Y-22926524D01*
X8828095Y-22926524D02*
X8809048Y-22917000D01*
X8809048Y-22917000D02*
X8799524Y-22907476D01*
X9104286Y-22726524D02*
X9009048Y-22726524D01*
X9009048Y-22726524D02*
X8999524Y-22821762D01*
X8999524Y-22821762D02*
X9009048Y-22812238D01*
X9009048Y-22812238D02*
X9028095Y-22802714D01*
X9028095Y-22802714D02*
X9075715Y-22802714D01*
X9075715Y-22802714D02*
X9094762Y-22812238D01*
X9094762Y-22812238D02*
X9104286Y-22821762D01*
X9104286Y-22821762D02*
X9113810Y-22840809D01*
X9113810Y-22840809D02*
X9113810Y-22888428D01*
X9113810Y-22888428D02*
X9104286Y-22907476D01*
X9104286Y-22907476D02*
X9094762Y-22917000D01*
X9094762Y-22917000D02*
X9075715Y-22926524D01*
X9075715Y-22926524D02*
X9028095Y-22926524D01*
X9028095Y-22926524D02*
X9009048Y-22917000D01*
X9009048Y-22917000D02*
X8999524Y-22907476D01*
X9285238Y-22793190D02*
X9285238Y-22926524D01*
X9237619Y-22717000D02*
X9190000Y-22859857D01*
X9190000Y-22859857D02*
X9313810Y-22859857D01*
X9380476Y-22726524D02*
X9380476Y-22764619D01*
X9456667Y-22726524D02*
X9456667Y-22764619D01*
X9751905Y-23002714D02*
X9742381Y-22993190D01*
X9742381Y-22993190D02*
X9723334Y-22964619D01*
X9723334Y-22964619D02*
X9713810Y-22945571D01*
X9713810Y-22945571D02*
X9704286Y-22917000D01*
X9704286Y-22917000D02*
X9694762Y-22869381D01*
X9694762Y-22869381D02*
X9694762Y-22831286D01*
X9694762Y-22831286D02*
X9704286Y-22783667D01*
X9704286Y-22783667D02*
X9713810Y-22755095D01*
X9713810Y-22755095D02*
X9723334Y-22736048D01*
X9723334Y-22736048D02*
X9742381Y-22707476D01*
X9742381Y-22707476D02*
X9751905Y-22697952D01*
X9913810Y-22793190D02*
X9913810Y-22926524D01*
X9866191Y-22717000D02*
X9818572Y-22859857D01*
X9818572Y-22859857D02*
X9942381Y-22859857D01*
X10170953Y-22926524D02*
X10170953Y-22726524D01*
X10256667Y-22926524D02*
X10256667Y-22821762D01*
X10256667Y-22821762D02*
X10247143Y-22802714D01*
X10247143Y-22802714D02*
X10228096Y-22793190D01*
X10228096Y-22793190D02*
X10199524Y-22793190D01*
X10199524Y-22793190D02*
X10180477Y-22802714D01*
X10180477Y-22802714D02*
X10170953Y-22812238D01*
X10380477Y-22926524D02*
X10361429Y-22917000D01*
X10361429Y-22917000D02*
X10351905Y-22907476D01*
X10351905Y-22907476D02*
X10342381Y-22888428D01*
X10342381Y-22888428D02*
X10342381Y-22831286D01*
X10342381Y-22831286D02*
X10351905Y-22812238D01*
X10351905Y-22812238D02*
X10361429Y-22802714D01*
X10361429Y-22802714D02*
X10380477Y-22793190D01*
X10380477Y-22793190D02*
X10409048Y-22793190D01*
X10409048Y-22793190D02*
X10428096Y-22802714D01*
X10428096Y-22802714D02*
X10437619Y-22812238D01*
X10437619Y-22812238D02*
X10447143Y-22831286D01*
X10447143Y-22831286D02*
X10447143Y-22888428D01*
X10447143Y-22888428D02*
X10437619Y-22907476D01*
X10437619Y-22907476D02*
X10428096Y-22917000D01*
X10428096Y-22917000D02*
X10409048Y-22926524D01*
X10409048Y-22926524D02*
X10380477Y-22926524D01*
X10561429Y-22926524D02*
X10542381Y-22917000D01*
X10542381Y-22917000D02*
X10532858Y-22897952D01*
X10532858Y-22897952D02*
X10532858Y-22726524D01*
X10713810Y-22917000D02*
X10694762Y-22926524D01*
X10694762Y-22926524D02*
X10656667Y-22926524D01*
X10656667Y-22926524D02*
X10637619Y-22917000D01*
X10637619Y-22917000D02*
X10628096Y-22897952D01*
X10628096Y-22897952D02*
X10628096Y-22821762D01*
X10628096Y-22821762D02*
X10637619Y-22802714D01*
X10637619Y-22802714D02*
X10656667Y-22793190D01*
X10656667Y-22793190D02*
X10694762Y-22793190D01*
X10694762Y-22793190D02*
X10713810Y-22802714D01*
X10713810Y-22802714D02*
X10723334Y-22821762D01*
X10723334Y-22821762D02*
X10723334Y-22840809D01*
X10723334Y-22840809D02*
X10628096Y-22859857D01*
X10799524Y-22917000D02*
X10818572Y-22926524D01*
X10818572Y-22926524D02*
X10856667Y-22926524D01*
X10856667Y-22926524D02*
X10875715Y-22917000D01*
X10875715Y-22917000D02*
X10885239Y-22897952D01*
X10885239Y-22897952D02*
X10885239Y-22888428D01*
X10885239Y-22888428D02*
X10875715Y-22869381D01*
X10875715Y-22869381D02*
X10856667Y-22859857D01*
X10856667Y-22859857D02*
X10828096Y-22859857D01*
X10828096Y-22859857D02*
X10809048Y-22850333D01*
X10809048Y-22850333D02*
X10799524Y-22831286D01*
X10799524Y-22831286D02*
X10799524Y-22821762D01*
X10799524Y-22821762D02*
X10809048Y-22802714D01*
X10809048Y-22802714D02*
X10828096Y-22793190D01*
X10828096Y-22793190D02*
X10856667Y-22793190D01*
X10856667Y-22793190D02*
X10875715Y-22802714D01*
X10951905Y-23002714D02*
X10961429Y-22993190D01*
X10961429Y-22993190D02*
X10980477Y-22964619D01*
X10980477Y-22964619D02*
X10990000Y-22945571D01*
X10990000Y-22945571D02*
X10999524Y-22917000D01*
X10999524Y-22917000D02*
X11009048Y-22869381D01*
X11009048Y-22869381D02*
X11009048Y-22831286D01*
X11009048Y-22831286D02*
X10999524Y-22783667D01*
X10999524Y-22783667D02*
X10990000Y-22755095D01*
X10990000Y-22755095D02*
X10980477Y-22736048D01*
X10980477Y-22736048D02*
X10961429Y-22707476D01*
X10961429Y-22707476D02*
X10951905Y-22697952D01*
D13*
X6190000Y-23098000D02*
G75*
G03*
X6190000Y-23098000I-50000J0D01*
G01*
D11*
X6542381Y-23190524D02*
X6428095Y-23190524D01*
X6485238Y-23190524D02*
X6485238Y-22990524D01*
X6485238Y-22990524D02*
X6466190Y-23019095D01*
X6466190Y-23019095D02*
X6447143Y-23038143D01*
X6447143Y-23038143D02*
X6428095Y-23047667D01*
X6628095Y-23171476D02*
X6637619Y-23181000D01*
X6637619Y-23181000D02*
X6628095Y-23190524D01*
X6628095Y-23190524D02*
X6618571Y-23181000D01*
X6618571Y-23181000D02*
X6628095Y-23171476D01*
X6628095Y-23171476D02*
X6628095Y-23190524D01*
X6761428Y-22990524D02*
X6780476Y-22990524D01*
X6780476Y-22990524D02*
X6799524Y-23000048D01*
X6799524Y-23000048D02*
X6809048Y-23009571D01*
X6809048Y-23009571D02*
X6818571Y-23028619D01*
X6818571Y-23028619D02*
X6828095Y-23066714D01*
X6828095Y-23066714D02*
X6828095Y-23114333D01*
X6828095Y-23114333D02*
X6818571Y-23152428D01*
X6818571Y-23152428D02*
X6809048Y-23171476D01*
X6809048Y-23171476D02*
X6799524Y-23181000D01*
X6799524Y-23181000D02*
X6780476Y-23190524D01*
X6780476Y-23190524D02*
X6761428Y-23190524D01*
X6761428Y-23190524D02*
X6742381Y-23181000D01*
X6742381Y-23181000D02*
X6732857Y-23171476D01*
X6732857Y-23171476D02*
X6723333Y-23152428D01*
X6723333Y-23152428D02*
X6713809Y-23114333D01*
X6713809Y-23114333D02*
X6713809Y-23066714D01*
X6713809Y-23066714D02*
X6723333Y-23028619D01*
X6723333Y-23028619D02*
X6732857Y-23009571D01*
X6732857Y-23009571D02*
X6742381Y-23000048D01*
X6742381Y-23000048D02*
X6761428Y-22990524D01*
X6951905Y-22990524D02*
X6970952Y-22990524D01*
X6970952Y-22990524D02*
X6990000Y-23000048D01*
X6990000Y-23000048D02*
X6999524Y-23009571D01*
X6999524Y-23009571D02*
X7009048Y-23028619D01*
X7009048Y-23028619D02*
X7018571Y-23066714D01*
X7018571Y-23066714D02*
X7018571Y-23114333D01*
X7018571Y-23114333D02*
X7009048Y-23152428D01*
X7009048Y-23152428D02*
X6999524Y-23171476D01*
X6999524Y-23171476D02*
X6990000Y-23181000D01*
X6990000Y-23181000D02*
X6970952Y-23190524D01*
X6970952Y-23190524D02*
X6951905Y-23190524D01*
X6951905Y-23190524D02*
X6932857Y-23181000D01*
X6932857Y-23181000D02*
X6923333Y-23171476D01*
X6923333Y-23171476D02*
X6913809Y-23152428D01*
X6913809Y-23152428D02*
X6904286Y-23114333D01*
X6904286Y-23114333D02*
X6904286Y-23066714D01*
X6904286Y-23066714D02*
X6913809Y-23028619D01*
X6913809Y-23028619D02*
X6923333Y-23009571D01*
X6923333Y-23009571D02*
X6932857Y-23000048D01*
X6932857Y-23000048D02*
X6951905Y-22990524D01*
X7142381Y-22990524D02*
X7161429Y-22990524D01*
X7161429Y-22990524D02*
X7180476Y-23000048D01*
X7180476Y-23000048D02*
X7190000Y-23009571D01*
X7190000Y-23009571D02*
X7199524Y-23028619D01*
X7199524Y-23028619D02*
X7209048Y-23066714D01*
X7209048Y-23066714D02*
X7209048Y-23114333D01*
X7209048Y-23114333D02*
X7199524Y-23152428D01*
X7199524Y-23152428D02*
X7190000Y-23171476D01*
X7190000Y-23171476D02*
X7180476Y-23181000D01*
X7180476Y-23181000D02*
X7161429Y-23190524D01*
X7161429Y-23190524D02*
X7142381Y-23190524D01*
X7142381Y-23190524D02*
X7123333Y-23181000D01*
X7123333Y-23181000D02*
X7113809Y-23171476D01*
X7113809Y-23171476D02*
X7104286Y-23152428D01*
X7104286Y-23152428D02*
X7094762Y-23114333D01*
X7094762Y-23114333D02*
X7094762Y-23066714D01*
X7094762Y-23066714D02*
X7104286Y-23028619D01*
X7104286Y-23028619D02*
X7113809Y-23009571D01*
X7113809Y-23009571D02*
X7123333Y-23000048D01*
X7123333Y-23000048D02*
X7142381Y-22990524D01*
X7294762Y-23190524D02*
X7294762Y-23057190D01*
X7294762Y-23076238D02*
X7304286Y-23066714D01*
X7304286Y-23066714D02*
X7323333Y-23057190D01*
X7323333Y-23057190D02*
X7351905Y-23057190D01*
X7351905Y-23057190D02*
X7370952Y-23066714D01*
X7370952Y-23066714D02*
X7380476Y-23085762D01*
X7380476Y-23085762D02*
X7380476Y-23190524D01*
X7380476Y-23085762D02*
X7390000Y-23066714D01*
X7390000Y-23066714D02*
X7409048Y-23057190D01*
X7409048Y-23057190D02*
X7437619Y-23057190D01*
X7437619Y-23057190D02*
X7456667Y-23066714D01*
X7456667Y-23066714D02*
X7466190Y-23085762D01*
X7466190Y-23085762D02*
X7466190Y-23190524D01*
X7561429Y-23190524D02*
X7561429Y-23057190D01*
X7561429Y-23076238D02*
X7570952Y-23066714D01*
X7570952Y-23066714D02*
X7590000Y-23057190D01*
X7590000Y-23057190D02*
X7618571Y-23057190D01*
X7618571Y-23057190D02*
X7637619Y-23066714D01*
X7637619Y-23066714D02*
X7647143Y-23085762D01*
X7647143Y-23085762D02*
X7647143Y-23190524D01*
X7647143Y-23085762D02*
X7656667Y-23066714D01*
X7656667Y-23066714D02*
X7675714Y-23057190D01*
X7675714Y-23057190D02*
X7704286Y-23057190D01*
X7704286Y-23057190D02*
X7723333Y-23066714D01*
X7723333Y-23066714D02*
X7732857Y-23085762D01*
X7732857Y-23085762D02*
X7732857Y-23190524D01*
X8123333Y-22981000D02*
X7951905Y-23238143D01*
X8380476Y-22990524D02*
X8399524Y-22990524D01*
X8399524Y-22990524D02*
X8418572Y-23000048D01*
X8418572Y-23000048D02*
X8428095Y-23009571D01*
X8428095Y-23009571D02*
X8437619Y-23028619D01*
X8437619Y-23028619D02*
X8447143Y-23066714D01*
X8447143Y-23066714D02*
X8447143Y-23114333D01*
X8447143Y-23114333D02*
X8437619Y-23152428D01*
X8437619Y-23152428D02*
X8428095Y-23171476D01*
X8428095Y-23171476D02*
X8418572Y-23181000D01*
X8418572Y-23181000D02*
X8399524Y-23190524D01*
X8399524Y-23190524D02*
X8380476Y-23190524D01*
X8380476Y-23190524D02*
X8361429Y-23181000D01*
X8361429Y-23181000D02*
X8351905Y-23171476D01*
X8351905Y-23171476D02*
X8342381Y-23152428D01*
X8342381Y-23152428D02*
X8332857Y-23114333D01*
X8332857Y-23114333D02*
X8332857Y-23066714D01*
X8332857Y-23066714D02*
X8342381Y-23028619D01*
X8342381Y-23028619D02*
X8351905Y-23009571D01*
X8351905Y-23009571D02*
X8361429Y-23000048D01*
X8361429Y-23000048D02*
X8380476Y-22990524D01*
X8532857Y-23171476D02*
X8542381Y-23181000D01*
X8542381Y-23181000D02*
X8532857Y-23190524D01*
X8532857Y-23190524D02*
X8523334Y-23181000D01*
X8523334Y-23181000D02*
X8532857Y-23171476D01*
X8532857Y-23171476D02*
X8532857Y-23190524D01*
X8666191Y-22990524D02*
X8685238Y-22990524D01*
X8685238Y-22990524D02*
X8704286Y-23000048D01*
X8704286Y-23000048D02*
X8713810Y-23009571D01*
X8713810Y-23009571D02*
X8723334Y-23028619D01*
X8723334Y-23028619D02*
X8732857Y-23066714D01*
X8732857Y-23066714D02*
X8732857Y-23114333D01*
X8732857Y-23114333D02*
X8723334Y-23152428D01*
X8723334Y-23152428D02*
X8713810Y-23171476D01*
X8713810Y-23171476D02*
X8704286Y-23181000D01*
X8704286Y-23181000D02*
X8685238Y-23190524D01*
X8685238Y-23190524D02*
X8666191Y-23190524D01*
X8666191Y-23190524D02*
X8647143Y-23181000D01*
X8647143Y-23181000D02*
X8637619Y-23171476D01*
X8637619Y-23171476D02*
X8628095Y-23152428D01*
X8628095Y-23152428D02*
X8618572Y-23114333D01*
X8618572Y-23114333D02*
X8618572Y-23066714D01*
X8618572Y-23066714D02*
X8628095Y-23028619D01*
X8628095Y-23028619D02*
X8637619Y-23009571D01*
X8637619Y-23009571D02*
X8647143Y-23000048D01*
X8647143Y-23000048D02*
X8666191Y-22990524D01*
X8799524Y-22990524D02*
X8923334Y-22990524D01*
X8923334Y-22990524D02*
X8856667Y-23066714D01*
X8856667Y-23066714D02*
X8885238Y-23066714D01*
X8885238Y-23066714D02*
X8904286Y-23076238D01*
X8904286Y-23076238D02*
X8913810Y-23085762D01*
X8913810Y-23085762D02*
X8923334Y-23104809D01*
X8923334Y-23104809D02*
X8923334Y-23152428D01*
X8923334Y-23152428D02*
X8913810Y-23171476D01*
X8913810Y-23171476D02*
X8904286Y-23181000D01*
X8904286Y-23181000D02*
X8885238Y-23190524D01*
X8885238Y-23190524D02*
X8828095Y-23190524D01*
X8828095Y-23190524D02*
X8809048Y-23181000D01*
X8809048Y-23181000D02*
X8799524Y-23171476D01*
X9018572Y-23190524D02*
X9056667Y-23190524D01*
X9056667Y-23190524D02*
X9075715Y-23181000D01*
X9075715Y-23181000D02*
X9085238Y-23171476D01*
X9085238Y-23171476D02*
X9104286Y-23142905D01*
X9104286Y-23142905D02*
X9113810Y-23104809D01*
X9113810Y-23104809D02*
X9113810Y-23028619D01*
X9113810Y-23028619D02*
X9104286Y-23009571D01*
X9104286Y-23009571D02*
X9094762Y-23000048D01*
X9094762Y-23000048D02*
X9075715Y-22990524D01*
X9075715Y-22990524D02*
X9037619Y-22990524D01*
X9037619Y-22990524D02*
X9018572Y-23000048D01*
X9018572Y-23000048D02*
X9009048Y-23009571D01*
X9009048Y-23009571D02*
X8999524Y-23028619D01*
X8999524Y-23028619D02*
X8999524Y-23076238D01*
X8999524Y-23076238D02*
X9009048Y-23095286D01*
X9009048Y-23095286D02*
X9018572Y-23104809D01*
X9018572Y-23104809D02*
X9037619Y-23114333D01*
X9037619Y-23114333D02*
X9075715Y-23114333D01*
X9075715Y-23114333D02*
X9094762Y-23104809D01*
X9094762Y-23104809D02*
X9104286Y-23095286D01*
X9104286Y-23095286D02*
X9113810Y-23076238D01*
X9285238Y-23057190D02*
X9285238Y-23190524D01*
X9237619Y-22981000D02*
X9190000Y-23123857D01*
X9190000Y-23123857D02*
X9313810Y-23123857D01*
X9380476Y-22990524D02*
X9380476Y-23028619D01*
X9456667Y-22990524D02*
X9456667Y-23028619D01*
X9751905Y-23266714D02*
X9742381Y-23257190D01*
X9742381Y-23257190D02*
X9723334Y-23228619D01*
X9723334Y-23228619D02*
X9713810Y-23209571D01*
X9713810Y-23209571D02*
X9704286Y-23181000D01*
X9704286Y-23181000D02*
X9694762Y-23133381D01*
X9694762Y-23133381D02*
X9694762Y-23095286D01*
X9694762Y-23095286D02*
X9704286Y-23047667D01*
X9704286Y-23047667D02*
X9713810Y-23019095D01*
X9713810Y-23019095D02*
X9723334Y-23000048D01*
X9723334Y-23000048D02*
X9742381Y-22971476D01*
X9742381Y-22971476D02*
X9751905Y-22961952D01*
X9932857Y-23190524D02*
X9818572Y-23190524D01*
X9875715Y-23190524D02*
X9875715Y-22990524D01*
X9875715Y-22990524D02*
X9856667Y-23019095D01*
X9856667Y-23019095D02*
X9837619Y-23038143D01*
X9837619Y-23038143D02*
X9818572Y-23047667D01*
X10170953Y-23190524D02*
X10170953Y-22990524D01*
X10256667Y-23190524D02*
X10256667Y-23085762D01*
X10256667Y-23085762D02*
X10247143Y-23066714D01*
X10247143Y-23066714D02*
X10228096Y-23057190D01*
X10228096Y-23057190D02*
X10199524Y-23057190D01*
X10199524Y-23057190D02*
X10180477Y-23066714D01*
X10180477Y-23066714D02*
X10170953Y-23076238D01*
X10380477Y-23190524D02*
X10361429Y-23181000D01*
X10361429Y-23181000D02*
X10351905Y-23171476D01*
X10351905Y-23171476D02*
X10342381Y-23152428D01*
X10342381Y-23152428D02*
X10342381Y-23095286D01*
X10342381Y-23095286D02*
X10351905Y-23076238D01*
X10351905Y-23076238D02*
X10361429Y-23066714D01*
X10361429Y-23066714D02*
X10380477Y-23057190D01*
X10380477Y-23057190D02*
X10409048Y-23057190D01*
X10409048Y-23057190D02*
X10428096Y-23066714D01*
X10428096Y-23066714D02*
X10437619Y-23076238D01*
X10437619Y-23076238D02*
X10447143Y-23095286D01*
X10447143Y-23095286D02*
X10447143Y-23152428D01*
X10447143Y-23152428D02*
X10437619Y-23171476D01*
X10437619Y-23171476D02*
X10428096Y-23181000D01*
X10428096Y-23181000D02*
X10409048Y-23190524D01*
X10409048Y-23190524D02*
X10380477Y-23190524D01*
X10561429Y-23190524D02*
X10542381Y-23181000D01*
X10542381Y-23181000D02*
X10532858Y-23161952D01*
X10532858Y-23161952D02*
X10532858Y-22990524D01*
X10713810Y-23181000D02*
X10694762Y-23190524D01*
X10694762Y-23190524D02*
X10656667Y-23190524D01*
X10656667Y-23190524D02*
X10637619Y-23181000D01*
X10637619Y-23181000D02*
X10628096Y-23161952D01*
X10628096Y-23161952D02*
X10628096Y-23085762D01*
X10628096Y-23085762D02*
X10637619Y-23066714D01*
X10637619Y-23066714D02*
X10656667Y-23057190D01*
X10656667Y-23057190D02*
X10694762Y-23057190D01*
X10694762Y-23057190D02*
X10713810Y-23066714D01*
X10713810Y-23066714D02*
X10723334Y-23085762D01*
X10723334Y-23085762D02*
X10723334Y-23104809D01*
X10723334Y-23104809D02*
X10628096Y-23123857D01*
X10790000Y-23266714D02*
X10799524Y-23257190D01*
X10799524Y-23257190D02*
X10818572Y-23228619D01*
X10818572Y-23228619D02*
X10828096Y-23209571D01*
X10828096Y-23209571D02*
X10837619Y-23181000D01*
X10837619Y-23181000D02*
X10847143Y-23133381D01*
X10847143Y-23133381D02*
X10847143Y-23095286D01*
X10847143Y-23095286D02*
X10837619Y-23047667D01*
X10837619Y-23047667D02*
X10828096Y-23019095D01*
X10828096Y-23019095D02*
X10818572Y-23000048D01*
X10818572Y-23000048D02*
X10799524Y-22971476D01*
X10799524Y-22971476D02*
X10790000Y-22961952D01*
D13*
X6140000Y-23312000D02*
X6140000Y-23412000D01*
X6090000Y-23362000D02*
X6190000Y-23362000D01*
D11*
X6542381Y-23454524D02*
X6428095Y-23454524D01*
X6485238Y-23454524D02*
X6485238Y-23254524D01*
X6485238Y-23254524D02*
X6466190Y-23283095D01*
X6466190Y-23283095D02*
X6447143Y-23302143D01*
X6447143Y-23302143D02*
X6428095Y-23311667D01*
X6628095Y-23435476D02*
X6637619Y-23445000D01*
X6637619Y-23445000D02*
X6628095Y-23454524D01*
X6628095Y-23454524D02*
X6618571Y-23445000D01*
X6618571Y-23445000D02*
X6628095Y-23435476D01*
X6628095Y-23435476D02*
X6628095Y-23454524D01*
X6761428Y-23254524D02*
X6780476Y-23254524D01*
X6780476Y-23254524D02*
X6799524Y-23264048D01*
X6799524Y-23264048D02*
X6809048Y-23273571D01*
X6809048Y-23273571D02*
X6818571Y-23292619D01*
X6818571Y-23292619D02*
X6828095Y-23330714D01*
X6828095Y-23330714D02*
X6828095Y-23378333D01*
X6828095Y-23378333D02*
X6818571Y-23416428D01*
X6818571Y-23416428D02*
X6809048Y-23435476D01*
X6809048Y-23435476D02*
X6799524Y-23445000D01*
X6799524Y-23445000D02*
X6780476Y-23454524D01*
X6780476Y-23454524D02*
X6761428Y-23454524D01*
X6761428Y-23454524D02*
X6742381Y-23445000D01*
X6742381Y-23445000D02*
X6732857Y-23435476D01*
X6732857Y-23435476D02*
X6723333Y-23416428D01*
X6723333Y-23416428D02*
X6713809Y-23378333D01*
X6713809Y-23378333D02*
X6713809Y-23330714D01*
X6713809Y-23330714D02*
X6723333Y-23292619D01*
X6723333Y-23292619D02*
X6732857Y-23273571D01*
X6732857Y-23273571D02*
X6742381Y-23264048D01*
X6742381Y-23264048D02*
X6761428Y-23254524D01*
X6951905Y-23254524D02*
X6970952Y-23254524D01*
X6970952Y-23254524D02*
X6990000Y-23264048D01*
X6990000Y-23264048D02*
X6999524Y-23273571D01*
X6999524Y-23273571D02*
X7009048Y-23292619D01*
X7009048Y-23292619D02*
X7018571Y-23330714D01*
X7018571Y-23330714D02*
X7018571Y-23378333D01*
X7018571Y-23378333D02*
X7009048Y-23416428D01*
X7009048Y-23416428D02*
X6999524Y-23435476D01*
X6999524Y-23435476D02*
X6990000Y-23445000D01*
X6990000Y-23445000D02*
X6970952Y-23454524D01*
X6970952Y-23454524D02*
X6951905Y-23454524D01*
X6951905Y-23454524D02*
X6932857Y-23445000D01*
X6932857Y-23445000D02*
X6923333Y-23435476D01*
X6923333Y-23435476D02*
X6913809Y-23416428D01*
X6913809Y-23416428D02*
X6904286Y-23378333D01*
X6904286Y-23378333D02*
X6904286Y-23330714D01*
X6904286Y-23330714D02*
X6913809Y-23292619D01*
X6913809Y-23292619D02*
X6923333Y-23273571D01*
X6923333Y-23273571D02*
X6932857Y-23264048D01*
X6932857Y-23264048D02*
X6951905Y-23254524D01*
X7142381Y-23254524D02*
X7161429Y-23254524D01*
X7161429Y-23254524D02*
X7180476Y-23264048D01*
X7180476Y-23264048D02*
X7190000Y-23273571D01*
X7190000Y-23273571D02*
X7199524Y-23292619D01*
X7199524Y-23292619D02*
X7209048Y-23330714D01*
X7209048Y-23330714D02*
X7209048Y-23378333D01*
X7209048Y-23378333D02*
X7199524Y-23416428D01*
X7199524Y-23416428D02*
X7190000Y-23435476D01*
X7190000Y-23435476D02*
X7180476Y-23445000D01*
X7180476Y-23445000D02*
X7161429Y-23454524D01*
X7161429Y-23454524D02*
X7142381Y-23454524D01*
X7142381Y-23454524D02*
X7123333Y-23445000D01*
X7123333Y-23445000D02*
X7113809Y-23435476D01*
X7113809Y-23435476D02*
X7104286Y-23416428D01*
X7104286Y-23416428D02*
X7094762Y-23378333D01*
X7094762Y-23378333D02*
X7094762Y-23330714D01*
X7094762Y-23330714D02*
X7104286Y-23292619D01*
X7104286Y-23292619D02*
X7113809Y-23273571D01*
X7113809Y-23273571D02*
X7123333Y-23264048D01*
X7123333Y-23264048D02*
X7142381Y-23254524D01*
X7294762Y-23454524D02*
X7294762Y-23321190D01*
X7294762Y-23340238D02*
X7304286Y-23330714D01*
X7304286Y-23330714D02*
X7323333Y-23321190D01*
X7323333Y-23321190D02*
X7351905Y-23321190D01*
X7351905Y-23321190D02*
X7370952Y-23330714D01*
X7370952Y-23330714D02*
X7380476Y-23349762D01*
X7380476Y-23349762D02*
X7380476Y-23454524D01*
X7380476Y-23349762D02*
X7390000Y-23330714D01*
X7390000Y-23330714D02*
X7409048Y-23321190D01*
X7409048Y-23321190D02*
X7437619Y-23321190D01*
X7437619Y-23321190D02*
X7456667Y-23330714D01*
X7456667Y-23330714D02*
X7466190Y-23349762D01*
X7466190Y-23349762D02*
X7466190Y-23454524D01*
X7561429Y-23454524D02*
X7561429Y-23321190D01*
X7561429Y-23340238D02*
X7570952Y-23330714D01*
X7570952Y-23330714D02*
X7590000Y-23321190D01*
X7590000Y-23321190D02*
X7618571Y-23321190D01*
X7618571Y-23321190D02*
X7637619Y-23330714D01*
X7637619Y-23330714D02*
X7647143Y-23349762D01*
X7647143Y-23349762D02*
X7647143Y-23454524D01*
X7647143Y-23349762D02*
X7656667Y-23330714D01*
X7656667Y-23330714D02*
X7675714Y-23321190D01*
X7675714Y-23321190D02*
X7704286Y-23321190D01*
X7704286Y-23321190D02*
X7723333Y-23330714D01*
X7723333Y-23330714D02*
X7732857Y-23349762D01*
X7732857Y-23349762D02*
X7732857Y-23454524D01*
X8123333Y-23245000D02*
X7951905Y-23502143D01*
X8380476Y-23254524D02*
X8399524Y-23254524D01*
X8399524Y-23254524D02*
X8418572Y-23264048D01*
X8418572Y-23264048D02*
X8428095Y-23273571D01*
X8428095Y-23273571D02*
X8437619Y-23292619D01*
X8437619Y-23292619D02*
X8447143Y-23330714D01*
X8447143Y-23330714D02*
X8447143Y-23378333D01*
X8447143Y-23378333D02*
X8437619Y-23416428D01*
X8437619Y-23416428D02*
X8428095Y-23435476D01*
X8428095Y-23435476D02*
X8418572Y-23445000D01*
X8418572Y-23445000D02*
X8399524Y-23454524D01*
X8399524Y-23454524D02*
X8380476Y-23454524D01*
X8380476Y-23454524D02*
X8361429Y-23445000D01*
X8361429Y-23445000D02*
X8351905Y-23435476D01*
X8351905Y-23435476D02*
X8342381Y-23416428D01*
X8342381Y-23416428D02*
X8332857Y-23378333D01*
X8332857Y-23378333D02*
X8332857Y-23330714D01*
X8332857Y-23330714D02*
X8342381Y-23292619D01*
X8342381Y-23292619D02*
X8351905Y-23273571D01*
X8351905Y-23273571D02*
X8361429Y-23264048D01*
X8361429Y-23264048D02*
X8380476Y-23254524D01*
X8532857Y-23435476D02*
X8542381Y-23445000D01*
X8542381Y-23445000D02*
X8532857Y-23454524D01*
X8532857Y-23454524D02*
X8523334Y-23445000D01*
X8523334Y-23445000D02*
X8532857Y-23435476D01*
X8532857Y-23435476D02*
X8532857Y-23454524D01*
X8666191Y-23254524D02*
X8685238Y-23254524D01*
X8685238Y-23254524D02*
X8704286Y-23264048D01*
X8704286Y-23264048D02*
X8713810Y-23273571D01*
X8713810Y-23273571D02*
X8723334Y-23292619D01*
X8723334Y-23292619D02*
X8732857Y-23330714D01*
X8732857Y-23330714D02*
X8732857Y-23378333D01*
X8732857Y-23378333D02*
X8723334Y-23416428D01*
X8723334Y-23416428D02*
X8713810Y-23435476D01*
X8713810Y-23435476D02*
X8704286Y-23445000D01*
X8704286Y-23445000D02*
X8685238Y-23454524D01*
X8685238Y-23454524D02*
X8666191Y-23454524D01*
X8666191Y-23454524D02*
X8647143Y-23445000D01*
X8647143Y-23445000D02*
X8637619Y-23435476D01*
X8637619Y-23435476D02*
X8628095Y-23416428D01*
X8628095Y-23416428D02*
X8618572Y-23378333D01*
X8618572Y-23378333D02*
X8618572Y-23330714D01*
X8618572Y-23330714D02*
X8628095Y-23292619D01*
X8628095Y-23292619D02*
X8637619Y-23273571D01*
X8637619Y-23273571D02*
X8647143Y-23264048D01*
X8647143Y-23264048D02*
X8666191Y-23254524D01*
X8799524Y-23254524D02*
X8923334Y-23254524D01*
X8923334Y-23254524D02*
X8856667Y-23330714D01*
X8856667Y-23330714D02*
X8885238Y-23330714D01*
X8885238Y-23330714D02*
X8904286Y-23340238D01*
X8904286Y-23340238D02*
X8913810Y-23349762D01*
X8913810Y-23349762D02*
X8923334Y-23368809D01*
X8923334Y-23368809D02*
X8923334Y-23416428D01*
X8923334Y-23416428D02*
X8913810Y-23435476D01*
X8913810Y-23435476D02*
X8904286Y-23445000D01*
X8904286Y-23445000D02*
X8885238Y-23454524D01*
X8885238Y-23454524D02*
X8828095Y-23454524D01*
X8828095Y-23454524D02*
X8809048Y-23445000D01*
X8809048Y-23445000D02*
X8799524Y-23435476D01*
X9018572Y-23454524D02*
X9056667Y-23454524D01*
X9056667Y-23454524D02*
X9075715Y-23445000D01*
X9075715Y-23445000D02*
X9085238Y-23435476D01*
X9085238Y-23435476D02*
X9104286Y-23406905D01*
X9104286Y-23406905D02*
X9113810Y-23368809D01*
X9113810Y-23368809D02*
X9113810Y-23292619D01*
X9113810Y-23292619D02*
X9104286Y-23273571D01*
X9104286Y-23273571D02*
X9094762Y-23264048D01*
X9094762Y-23264048D02*
X9075715Y-23254524D01*
X9075715Y-23254524D02*
X9037619Y-23254524D01*
X9037619Y-23254524D02*
X9018572Y-23264048D01*
X9018572Y-23264048D02*
X9009048Y-23273571D01*
X9009048Y-23273571D02*
X8999524Y-23292619D01*
X8999524Y-23292619D02*
X8999524Y-23340238D01*
X8999524Y-23340238D02*
X9009048Y-23359286D01*
X9009048Y-23359286D02*
X9018572Y-23368809D01*
X9018572Y-23368809D02*
X9037619Y-23378333D01*
X9037619Y-23378333D02*
X9075715Y-23378333D01*
X9075715Y-23378333D02*
X9094762Y-23368809D01*
X9094762Y-23368809D02*
X9104286Y-23359286D01*
X9104286Y-23359286D02*
X9113810Y-23340238D01*
X9285238Y-23321190D02*
X9285238Y-23454524D01*
X9237619Y-23245000D02*
X9190000Y-23387857D01*
X9190000Y-23387857D02*
X9313810Y-23387857D01*
X9380476Y-23254524D02*
X9380476Y-23292619D01*
X9456667Y-23254524D02*
X9456667Y-23292619D01*
X9751905Y-23530714D02*
X9742381Y-23521190D01*
X9742381Y-23521190D02*
X9723334Y-23492619D01*
X9723334Y-23492619D02*
X9713810Y-23473571D01*
X9713810Y-23473571D02*
X9704286Y-23445000D01*
X9704286Y-23445000D02*
X9694762Y-23397381D01*
X9694762Y-23397381D02*
X9694762Y-23359286D01*
X9694762Y-23359286D02*
X9704286Y-23311667D01*
X9704286Y-23311667D02*
X9713810Y-23283095D01*
X9713810Y-23283095D02*
X9723334Y-23264048D01*
X9723334Y-23264048D02*
X9742381Y-23235476D01*
X9742381Y-23235476D02*
X9751905Y-23225952D01*
X9913810Y-23321190D02*
X9913810Y-23454524D01*
X9866191Y-23245000D02*
X9818572Y-23387857D01*
X9818572Y-23387857D02*
X9942381Y-23387857D01*
X10170953Y-23454524D02*
X10170953Y-23254524D01*
X10256667Y-23454524D02*
X10256667Y-23349762D01*
X10256667Y-23349762D02*
X10247143Y-23330714D01*
X10247143Y-23330714D02*
X10228096Y-23321190D01*
X10228096Y-23321190D02*
X10199524Y-23321190D01*
X10199524Y-23321190D02*
X10180477Y-23330714D01*
X10180477Y-23330714D02*
X10170953Y-23340238D01*
X10380477Y-23454524D02*
X10361429Y-23445000D01*
X10361429Y-23445000D02*
X10351905Y-23435476D01*
X10351905Y-23435476D02*
X10342381Y-23416428D01*
X10342381Y-23416428D02*
X10342381Y-23359286D01*
X10342381Y-23359286D02*
X10351905Y-23340238D01*
X10351905Y-23340238D02*
X10361429Y-23330714D01*
X10361429Y-23330714D02*
X10380477Y-23321190D01*
X10380477Y-23321190D02*
X10409048Y-23321190D01*
X10409048Y-23321190D02*
X10428096Y-23330714D01*
X10428096Y-23330714D02*
X10437619Y-23340238D01*
X10437619Y-23340238D02*
X10447143Y-23359286D01*
X10447143Y-23359286D02*
X10447143Y-23416428D01*
X10447143Y-23416428D02*
X10437619Y-23435476D01*
X10437619Y-23435476D02*
X10428096Y-23445000D01*
X10428096Y-23445000D02*
X10409048Y-23454524D01*
X10409048Y-23454524D02*
X10380477Y-23454524D01*
X10561429Y-23454524D02*
X10542381Y-23445000D01*
X10542381Y-23445000D02*
X10532858Y-23425952D01*
X10532858Y-23425952D02*
X10532858Y-23254524D01*
X10713810Y-23445000D02*
X10694762Y-23454524D01*
X10694762Y-23454524D02*
X10656667Y-23454524D01*
X10656667Y-23454524D02*
X10637619Y-23445000D01*
X10637619Y-23445000D02*
X10628096Y-23425952D01*
X10628096Y-23425952D02*
X10628096Y-23349762D01*
X10628096Y-23349762D02*
X10637619Y-23330714D01*
X10637619Y-23330714D02*
X10656667Y-23321190D01*
X10656667Y-23321190D02*
X10694762Y-23321190D01*
X10694762Y-23321190D02*
X10713810Y-23330714D01*
X10713810Y-23330714D02*
X10723334Y-23349762D01*
X10723334Y-23349762D02*
X10723334Y-23368809D01*
X10723334Y-23368809D02*
X10628096Y-23387857D01*
X10799524Y-23445000D02*
X10818572Y-23454524D01*
X10818572Y-23454524D02*
X10856667Y-23454524D01*
X10856667Y-23454524D02*
X10875715Y-23445000D01*
X10875715Y-23445000D02*
X10885239Y-23425952D01*
X10885239Y-23425952D02*
X10885239Y-23416428D01*
X10885239Y-23416428D02*
X10875715Y-23397381D01*
X10875715Y-23397381D02*
X10856667Y-23387857D01*
X10856667Y-23387857D02*
X10828096Y-23387857D01*
X10828096Y-23387857D02*
X10809048Y-23378333D01*
X10809048Y-23378333D02*
X10799524Y-23359286D01*
X10799524Y-23359286D02*
X10799524Y-23349762D01*
X10799524Y-23349762D02*
X10809048Y-23330714D01*
X10809048Y-23330714D02*
X10828096Y-23321190D01*
X10828096Y-23321190D02*
X10856667Y-23321190D01*
X10856667Y-23321190D02*
X10875715Y-23330714D01*
X10951905Y-23530714D02*
X10961429Y-23521190D01*
X10961429Y-23521190D02*
X10980477Y-23492619D01*
X10980477Y-23492619D02*
X10990000Y-23473571D01*
X10990000Y-23473571D02*
X10999524Y-23445000D01*
X10999524Y-23445000D02*
X11009048Y-23397381D01*
X11009048Y-23397381D02*
X11009048Y-23359286D01*
X11009048Y-23359286D02*
X10999524Y-23311667D01*
X10999524Y-23311667D02*
X10990000Y-23283095D01*
X10990000Y-23283095D02*
X10980477Y-23264048D01*
X10980477Y-23264048D02*
X10961429Y-23235476D01*
X10961429Y-23235476D02*
X10951905Y-23225952D01*
D14*
X6169498Y-23675498D02*
X6169498Y-23576502D01*
X6070502Y-23576502D01*
X6070502Y-23675498D01*
X6169498Y-23675498D01*
D11*
X6542381Y-23718524D02*
X6428095Y-23718524D01*
X6485238Y-23718524D02*
X6485238Y-23518524D01*
X6485238Y-23518524D02*
X6466190Y-23547095D01*
X6466190Y-23547095D02*
X6447143Y-23566143D01*
X6447143Y-23566143D02*
X6428095Y-23575667D01*
X6628095Y-23699476D02*
X6637619Y-23709000D01*
X6637619Y-23709000D02*
X6628095Y-23718524D01*
X6628095Y-23718524D02*
X6618571Y-23709000D01*
X6618571Y-23709000D02*
X6628095Y-23699476D01*
X6628095Y-23699476D02*
X6628095Y-23718524D01*
X6809048Y-23585190D02*
X6809048Y-23718524D01*
X6761428Y-23509000D02*
X6713809Y-23651857D01*
X6713809Y-23651857D02*
X6837619Y-23651857D01*
X6951905Y-23518524D02*
X6970952Y-23518524D01*
X6970952Y-23518524D02*
X6990000Y-23528048D01*
X6990000Y-23528048D02*
X6999524Y-23537571D01*
X6999524Y-23537571D02*
X7009048Y-23556619D01*
X7009048Y-23556619D02*
X7018571Y-23594714D01*
X7018571Y-23594714D02*
X7018571Y-23642333D01*
X7018571Y-23642333D02*
X7009048Y-23680428D01*
X7009048Y-23680428D02*
X6999524Y-23699476D01*
X6999524Y-23699476D02*
X6990000Y-23709000D01*
X6990000Y-23709000D02*
X6970952Y-23718524D01*
X6970952Y-23718524D02*
X6951905Y-23718524D01*
X6951905Y-23718524D02*
X6932857Y-23709000D01*
X6932857Y-23709000D02*
X6923333Y-23699476D01*
X6923333Y-23699476D02*
X6913809Y-23680428D01*
X6913809Y-23680428D02*
X6904286Y-23642333D01*
X6904286Y-23642333D02*
X6904286Y-23594714D01*
X6904286Y-23594714D02*
X6913809Y-23556619D01*
X6913809Y-23556619D02*
X6923333Y-23537571D01*
X6923333Y-23537571D02*
X6932857Y-23528048D01*
X6932857Y-23528048D02*
X6951905Y-23518524D01*
X7142381Y-23518524D02*
X7161429Y-23518524D01*
X7161429Y-23518524D02*
X7180476Y-23528048D01*
X7180476Y-23528048D02*
X7190000Y-23537571D01*
X7190000Y-23537571D02*
X7199524Y-23556619D01*
X7199524Y-23556619D02*
X7209048Y-23594714D01*
X7209048Y-23594714D02*
X7209048Y-23642333D01*
X7209048Y-23642333D02*
X7199524Y-23680428D01*
X7199524Y-23680428D02*
X7190000Y-23699476D01*
X7190000Y-23699476D02*
X7180476Y-23709000D01*
X7180476Y-23709000D02*
X7161429Y-23718524D01*
X7161429Y-23718524D02*
X7142381Y-23718524D01*
X7142381Y-23718524D02*
X7123333Y-23709000D01*
X7123333Y-23709000D02*
X7113809Y-23699476D01*
X7113809Y-23699476D02*
X7104286Y-23680428D01*
X7104286Y-23680428D02*
X7094762Y-23642333D01*
X7094762Y-23642333D02*
X7094762Y-23594714D01*
X7094762Y-23594714D02*
X7104286Y-23556619D01*
X7104286Y-23556619D02*
X7113809Y-23537571D01*
X7113809Y-23537571D02*
X7123333Y-23528048D01*
X7123333Y-23528048D02*
X7142381Y-23518524D01*
X7294762Y-23718524D02*
X7294762Y-23585190D01*
X7294762Y-23604238D02*
X7304286Y-23594714D01*
X7304286Y-23594714D02*
X7323333Y-23585190D01*
X7323333Y-23585190D02*
X7351905Y-23585190D01*
X7351905Y-23585190D02*
X7370952Y-23594714D01*
X7370952Y-23594714D02*
X7380476Y-23613762D01*
X7380476Y-23613762D02*
X7380476Y-23718524D01*
X7380476Y-23613762D02*
X7390000Y-23594714D01*
X7390000Y-23594714D02*
X7409048Y-23585190D01*
X7409048Y-23585190D02*
X7437619Y-23585190D01*
X7437619Y-23585190D02*
X7456667Y-23594714D01*
X7456667Y-23594714D02*
X7466190Y-23613762D01*
X7466190Y-23613762D02*
X7466190Y-23718524D01*
X7561429Y-23718524D02*
X7561429Y-23585190D01*
X7561429Y-23604238D02*
X7570952Y-23594714D01*
X7570952Y-23594714D02*
X7590000Y-23585190D01*
X7590000Y-23585190D02*
X7618571Y-23585190D01*
X7618571Y-23585190D02*
X7637619Y-23594714D01*
X7637619Y-23594714D02*
X7647143Y-23613762D01*
X7647143Y-23613762D02*
X7647143Y-23718524D01*
X7647143Y-23613762D02*
X7656667Y-23594714D01*
X7656667Y-23594714D02*
X7675714Y-23585190D01*
X7675714Y-23585190D02*
X7704286Y-23585190D01*
X7704286Y-23585190D02*
X7723333Y-23594714D01*
X7723333Y-23594714D02*
X7732857Y-23613762D01*
X7732857Y-23613762D02*
X7732857Y-23718524D01*
X8123333Y-23509000D02*
X7951905Y-23766143D01*
X8380476Y-23518524D02*
X8399524Y-23518524D01*
X8399524Y-23518524D02*
X8418572Y-23528048D01*
X8418572Y-23528048D02*
X8428095Y-23537571D01*
X8428095Y-23537571D02*
X8437619Y-23556619D01*
X8437619Y-23556619D02*
X8447143Y-23594714D01*
X8447143Y-23594714D02*
X8447143Y-23642333D01*
X8447143Y-23642333D02*
X8437619Y-23680428D01*
X8437619Y-23680428D02*
X8428095Y-23699476D01*
X8428095Y-23699476D02*
X8418572Y-23709000D01*
X8418572Y-23709000D02*
X8399524Y-23718524D01*
X8399524Y-23718524D02*
X8380476Y-23718524D01*
X8380476Y-23718524D02*
X8361429Y-23709000D01*
X8361429Y-23709000D02*
X8351905Y-23699476D01*
X8351905Y-23699476D02*
X8342381Y-23680428D01*
X8342381Y-23680428D02*
X8332857Y-23642333D01*
X8332857Y-23642333D02*
X8332857Y-23594714D01*
X8332857Y-23594714D02*
X8342381Y-23556619D01*
X8342381Y-23556619D02*
X8351905Y-23537571D01*
X8351905Y-23537571D02*
X8361429Y-23528048D01*
X8361429Y-23528048D02*
X8380476Y-23518524D01*
X8532857Y-23699476D02*
X8542381Y-23709000D01*
X8542381Y-23709000D02*
X8532857Y-23718524D01*
X8532857Y-23718524D02*
X8523334Y-23709000D01*
X8523334Y-23709000D02*
X8532857Y-23699476D01*
X8532857Y-23699476D02*
X8532857Y-23718524D01*
X8666191Y-23518524D02*
X8685238Y-23518524D01*
X8685238Y-23518524D02*
X8704286Y-23528048D01*
X8704286Y-23528048D02*
X8713810Y-23537571D01*
X8713810Y-23537571D02*
X8723334Y-23556619D01*
X8723334Y-23556619D02*
X8732857Y-23594714D01*
X8732857Y-23594714D02*
X8732857Y-23642333D01*
X8732857Y-23642333D02*
X8723334Y-23680428D01*
X8723334Y-23680428D02*
X8713810Y-23699476D01*
X8713810Y-23699476D02*
X8704286Y-23709000D01*
X8704286Y-23709000D02*
X8685238Y-23718524D01*
X8685238Y-23718524D02*
X8666191Y-23718524D01*
X8666191Y-23718524D02*
X8647143Y-23709000D01*
X8647143Y-23709000D02*
X8637619Y-23699476D01*
X8637619Y-23699476D02*
X8628095Y-23680428D01*
X8628095Y-23680428D02*
X8618572Y-23642333D01*
X8618572Y-23642333D02*
X8618572Y-23594714D01*
X8618572Y-23594714D02*
X8628095Y-23556619D01*
X8628095Y-23556619D02*
X8637619Y-23537571D01*
X8637619Y-23537571D02*
X8647143Y-23528048D01*
X8647143Y-23528048D02*
X8666191Y-23518524D01*
X8913810Y-23518524D02*
X8818572Y-23518524D01*
X8818572Y-23518524D02*
X8809048Y-23613762D01*
X8809048Y-23613762D02*
X8818572Y-23604238D01*
X8818572Y-23604238D02*
X8837619Y-23594714D01*
X8837619Y-23594714D02*
X8885238Y-23594714D01*
X8885238Y-23594714D02*
X8904286Y-23604238D01*
X8904286Y-23604238D02*
X8913810Y-23613762D01*
X8913810Y-23613762D02*
X8923334Y-23632809D01*
X8923334Y-23632809D02*
X8923334Y-23680428D01*
X8923334Y-23680428D02*
X8913810Y-23699476D01*
X8913810Y-23699476D02*
X8904286Y-23709000D01*
X8904286Y-23709000D02*
X8885238Y-23718524D01*
X8885238Y-23718524D02*
X8837619Y-23718524D01*
X8837619Y-23718524D02*
X8818572Y-23709000D01*
X8818572Y-23709000D02*
X8809048Y-23699476D01*
X9104286Y-23518524D02*
X9009048Y-23518524D01*
X9009048Y-23518524D02*
X8999524Y-23613762D01*
X8999524Y-23613762D02*
X9009048Y-23604238D01*
X9009048Y-23604238D02*
X9028095Y-23594714D01*
X9028095Y-23594714D02*
X9075715Y-23594714D01*
X9075715Y-23594714D02*
X9094762Y-23604238D01*
X9094762Y-23604238D02*
X9104286Y-23613762D01*
X9104286Y-23613762D02*
X9113810Y-23632809D01*
X9113810Y-23632809D02*
X9113810Y-23680428D01*
X9113810Y-23680428D02*
X9104286Y-23699476D01*
X9104286Y-23699476D02*
X9094762Y-23709000D01*
X9094762Y-23709000D02*
X9075715Y-23718524D01*
X9075715Y-23718524D02*
X9028095Y-23718524D01*
X9028095Y-23718524D02*
X9009048Y-23709000D01*
X9009048Y-23709000D02*
X8999524Y-23699476D01*
X9304286Y-23718524D02*
X9190000Y-23718524D01*
X9247143Y-23718524D02*
X9247143Y-23518524D01*
X9247143Y-23518524D02*
X9228095Y-23547095D01*
X9228095Y-23547095D02*
X9209048Y-23566143D01*
X9209048Y-23566143D02*
X9190000Y-23575667D01*
X9380476Y-23518524D02*
X9380476Y-23556619D01*
X9456667Y-23518524D02*
X9456667Y-23556619D01*
X9751905Y-23794714D02*
X9742381Y-23785190D01*
X9742381Y-23785190D02*
X9723334Y-23756619D01*
X9723334Y-23756619D02*
X9713810Y-23737571D01*
X9713810Y-23737571D02*
X9704286Y-23709000D01*
X9704286Y-23709000D02*
X9694762Y-23661381D01*
X9694762Y-23661381D02*
X9694762Y-23623286D01*
X9694762Y-23623286D02*
X9704286Y-23575667D01*
X9704286Y-23575667D02*
X9713810Y-23547095D01*
X9713810Y-23547095D02*
X9723334Y-23528048D01*
X9723334Y-23528048D02*
X9742381Y-23499476D01*
X9742381Y-23499476D02*
X9751905Y-23489952D01*
X9856667Y-23604238D02*
X9837619Y-23594714D01*
X9837619Y-23594714D02*
X9828096Y-23585190D01*
X9828096Y-23585190D02*
X9818572Y-23566143D01*
X9818572Y-23566143D02*
X9818572Y-23556619D01*
X9818572Y-23556619D02*
X9828096Y-23537571D01*
X9828096Y-23537571D02*
X9837619Y-23528048D01*
X9837619Y-23528048D02*
X9856667Y-23518524D01*
X9856667Y-23518524D02*
X9894762Y-23518524D01*
X9894762Y-23518524D02*
X9913810Y-23528048D01*
X9913810Y-23528048D02*
X9923334Y-23537571D01*
X9923334Y-23537571D02*
X9932857Y-23556619D01*
X9932857Y-23556619D02*
X9932857Y-23566143D01*
X9932857Y-23566143D02*
X9923334Y-23585190D01*
X9923334Y-23585190D02*
X9913810Y-23594714D01*
X9913810Y-23594714D02*
X9894762Y-23604238D01*
X9894762Y-23604238D02*
X9856667Y-23604238D01*
X9856667Y-23604238D02*
X9837619Y-23613762D01*
X9837619Y-23613762D02*
X9828096Y-23623286D01*
X9828096Y-23623286D02*
X9818572Y-23642333D01*
X9818572Y-23642333D02*
X9818572Y-23680428D01*
X9818572Y-23680428D02*
X9828096Y-23699476D01*
X9828096Y-23699476D02*
X9837619Y-23709000D01*
X9837619Y-23709000D02*
X9856667Y-23718524D01*
X9856667Y-23718524D02*
X9894762Y-23718524D01*
X9894762Y-23718524D02*
X9913810Y-23709000D01*
X9913810Y-23709000D02*
X9923334Y-23699476D01*
X9923334Y-23699476D02*
X9932857Y-23680428D01*
X9932857Y-23680428D02*
X9932857Y-23642333D01*
X9932857Y-23642333D02*
X9923334Y-23623286D01*
X9923334Y-23623286D02*
X9913810Y-23613762D01*
X9913810Y-23613762D02*
X9894762Y-23604238D01*
X10056667Y-23518524D02*
X10075715Y-23518524D01*
X10075715Y-23518524D02*
X10094762Y-23528048D01*
X10094762Y-23528048D02*
X10104286Y-23537571D01*
X10104286Y-23537571D02*
X10113810Y-23556619D01*
X10113810Y-23556619D02*
X10123334Y-23594714D01*
X10123334Y-23594714D02*
X10123334Y-23642333D01*
X10123334Y-23642333D02*
X10113810Y-23680428D01*
X10113810Y-23680428D02*
X10104286Y-23699476D01*
X10104286Y-23699476D02*
X10094762Y-23709000D01*
X10094762Y-23709000D02*
X10075715Y-23718524D01*
X10075715Y-23718524D02*
X10056667Y-23718524D01*
X10056667Y-23718524D02*
X10037619Y-23709000D01*
X10037619Y-23709000D02*
X10028096Y-23699476D01*
X10028096Y-23699476D02*
X10018572Y-23680428D01*
X10018572Y-23680428D02*
X10009048Y-23642333D01*
X10009048Y-23642333D02*
X10009048Y-23594714D01*
X10009048Y-23594714D02*
X10018572Y-23556619D01*
X10018572Y-23556619D02*
X10028096Y-23537571D01*
X10028096Y-23537571D02*
X10037619Y-23528048D01*
X10037619Y-23528048D02*
X10056667Y-23518524D01*
X10361429Y-23718524D02*
X10361429Y-23518524D01*
X10447143Y-23718524D02*
X10447143Y-23613762D01*
X10447143Y-23613762D02*
X10437619Y-23594714D01*
X10437619Y-23594714D02*
X10418572Y-23585190D01*
X10418572Y-23585190D02*
X10390000Y-23585190D01*
X10390000Y-23585190D02*
X10370953Y-23594714D01*
X10370953Y-23594714D02*
X10361429Y-23604238D01*
X10570953Y-23718524D02*
X10551905Y-23709000D01*
X10551905Y-23709000D02*
X10542381Y-23699476D01*
X10542381Y-23699476D02*
X10532858Y-23680428D01*
X10532858Y-23680428D02*
X10532858Y-23623286D01*
X10532858Y-23623286D02*
X10542381Y-23604238D01*
X10542381Y-23604238D02*
X10551905Y-23594714D01*
X10551905Y-23594714D02*
X10570953Y-23585190D01*
X10570953Y-23585190D02*
X10599524Y-23585190D01*
X10599524Y-23585190D02*
X10618572Y-23594714D01*
X10618572Y-23594714D02*
X10628096Y-23604238D01*
X10628096Y-23604238D02*
X10637619Y-23623286D01*
X10637619Y-23623286D02*
X10637619Y-23680428D01*
X10637619Y-23680428D02*
X10628096Y-23699476D01*
X10628096Y-23699476D02*
X10618572Y-23709000D01*
X10618572Y-23709000D02*
X10599524Y-23718524D01*
X10599524Y-23718524D02*
X10570953Y-23718524D01*
X10751905Y-23718524D02*
X10732858Y-23709000D01*
X10732858Y-23709000D02*
X10723334Y-23689952D01*
X10723334Y-23689952D02*
X10723334Y-23518524D01*
X10904286Y-23709000D02*
X10885239Y-23718524D01*
X10885239Y-23718524D02*
X10847143Y-23718524D01*
X10847143Y-23718524D02*
X10828096Y-23709000D01*
X10828096Y-23709000D02*
X10818572Y-23689952D01*
X10818572Y-23689952D02*
X10818572Y-23613762D01*
X10818572Y-23613762D02*
X10828096Y-23594714D01*
X10828096Y-23594714D02*
X10847143Y-23585190D01*
X10847143Y-23585190D02*
X10885239Y-23585190D01*
X10885239Y-23585190D02*
X10904286Y-23594714D01*
X10904286Y-23594714D02*
X10913810Y-23613762D01*
X10913810Y-23613762D02*
X10913810Y-23632809D01*
X10913810Y-23632809D02*
X10818572Y-23651857D01*
X10990000Y-23709000D02*
X11009048Y-23718524D01*
X11009048Y-23718524D02*
X11047143Y-23718524D01*
X11047143Y-23718524D02*
X11066191Y-23709000D01*
X11066191Y-23709000D02*
X11075715Y-23689952D01*
X11075715Y-23689952D02*
X11075715Y-23680428D01*
X11075715Y-23680428D02*
X11066191Y-23661381D01*
X11066191Y-23661381D02*
X11047143Y-23651857D01*
X11047143Y-23651857D02*
X11018572Y-23651857D01*
X11018572Y-23651857D02*
X10999524Y-23642333D01*
X10999524Y-23642333D02*
X10990000Y-23623286D01*
X10990000Y-23623286D02*
X10990000Y-23613762D01*
X10990000Y-23613762D02*
X10999524Y-23594714D01*
X10999524Y-23594714D02*
X11018572Y-23585190D01*
X11018572Y-23585190D02*
X11047143Y-23585190D01*
X11047143Y-23585190D02*
X11066191Y-23594714D01*
X11142381Y-23794714D02*
X11151905Y-23785190D01*
X11151905Y-23785190D02*
X11170953Y-23756619D01*
X11170953Y-23756619D02*
X11180477Y-23737571D01*
X11180477Y-23737571D02*
X11190000Y-23709000D01*
X11190000Y-23709000D02*
X11199524Y-23661381D01*
X11199524Y-23661381D02*
X11199524Y-23623286D01*
X11199524Y-23623286D02*
X11190000Y-23575667D01*
X11190000Y-23575667D02*
X11180477Y-23547095D01*
X11180477Y-23547095D02*
X11170953Y-23528048D01*
X11170953Y-23528048D02*
X11151905Y-23499476D01*
X11151905Y-23499476D02*
X11142381Y-23489952D01*
D15*
X6110000Y-23970000D02*
X6190000Y-23890000D01*
X6110000Y-23810000D01*
X6030000Y-23890000D01*
X6110000Y-23970000D01*
D11*
X6542381Y-23982524D02*
X6428095Y-23982524D01*
X6485238Y-23982524D02*
X6485238Y-23782524D01*
X6485238Y-23782524D02*
X6466190Y-23811095D01*
X6466190Y-23811095D02*
X6447143Y-23830143D01*
X6447143Y-23830143D02*
X6428095Y-23839667D01*
X6628095Y-23963476D02*
X6637619Y-23973000D01*
X6637619Y-23973000D02*
X6628095Y-23982524D01*
X6628095Y-23982524D02*
X6618571Y-23973000D01*
X6618571Y-23973000D02*
X6628095Y-23963476D01*
X6628095Y-23963476D02*
X6628095Y-23982524D01*
X6809048Y-23782524D02*
X6770952Y-23782524D01*
X6770952Y-23782524D02*
X6751905Y-23792048D01*
X6751905Y-23792048D02*
X6742381Y-23801571D01*
X6742381Y-23801571D02*
X6723333Y-23830143D01*
X6723333Y-23830143D02*
X6713809Y-23868238D01*
X6713809Y-23868238D02*
X6713809Y-23944428D01*
X6713809Y-23944428D02*
X6723333Y-23963476D01*
X6723333Y-23963476D02*
X6732857Y-23973000D01*
X6732857Y-23973000D02*
X6751905Y-23982524D01*
X6751905Y-23982524D02*
X6790000Y-23982524D01*
X6790000Y-23982524D02*
X6809048Y-23973000D01*
X6809048Y-23973000D02*
X6818571Y-23963476D01*
X6818571Y-23963476D02*
X6828095Y-23944428D01*
X6828095Y-23944428D02*
X6828095Y-23896809D01*
X6828095Y-23896809D02*
X6818571Y-23877762D01*
X6818571Y-23877762D02*
X6809048Y-23868238D01*
X6809048Y-23868238D02*
X6790000Y-23858714D01*
X6790000Y-23858714D02*
X6751905Y-23858714D01*
X6751905Y-23858714D02*
X6732857Y-23868238D01*
X6732857Y-23868238D02*
X6723333Y-23877762D01*
X6723333Y-23877762D02*
X6713809Y-23896809D01*
X6951905Y-23782524D02*
X6970952Y-23782524D01*
X6970952Y-23782524D02*
X6990000Y-23792048D01*
X6990000Y-23792048D02*
X6999524Y-23801571D01*
X6999524Y-23801571D02*
X7009048Y-23820619D01*
X7009048Y-23820619D02*
X7018571Y-23858714D01*
X7018571Y-23858714D02*
X7018571Y-23906333D01*
X7018571Y-23906333D02*
X7009048Y-23944428D01*
X7009048Y-23944428D02*
X6999524Y-23963476D01*
X6999524Y-23963476D02*
X6990000Y-23973000D01*
X6990000Y-23973000D02*
X6970952Y-23982524D01*
X6970952Y-23982524D02*
X6951905Y-23982524D01*
X6951905Y-23982524D02*
X6932857Y-23973000D01*
X6932857Y-23973000D02*
X6923333Y-23963476D01*
X6923333Y-23963476D02*
X6913809Y-23944428D01*
X6913809Y-23944428D02*
X6904286Y-23906333D01*
X6904286Y-23906333D02*
X6904286Y-23858714D01*
X6904286Y-23858714D02*
X6913809Y-23820619D01*
X6913809Y-23820619D02*
X6923333Y-23801571D01*
X6923333Y-23801571D02*
X6932857Y-23792048D01*
X6932857Y-23792048D02*
X6951905Y-23782524D01*
X7142381Y-23782524D02*
X7161429Y-23782524D01*
X7161429Y-23782524D02*
X7180476Y-23792048D01*
X7180476Y-23792048D02*
X7190000Y-23801571D01*
X7190000Y-23801571D02*
X7199524Y-23820619D01*
X7199524Y-23820619D02*
X7209048Y-23858714D01*
X7209048Y-23858714D02*
X7209048Y-23906333D01*
X7209048Y-23906333D02*
X7199524Y-23944428D01*
X7199524Y-23944428D02*
X7190000Y-23963476D01*
X7190000Y-23963476D02*
X7180476Y-23973000D01*
X7180476Y-23973000D02*
X7161429Y-23982524D01*
X7161429Y-23982524D02*
X7142381Y-23982524D01*
X7142381Y-23982524D02*
X7123333Y-23973000D01*
X7123333Y-23973000D02*
X7113809Y-23963476D01*
X7113809Y-23963476D02*
X7104286Y-23944428D01*
X7104286Y-23944428D02*
X7094762Y-23906333D01*
X7094762Y-23906333D02*
X7094762Y-23858714D01*
X7094762Y-23858714D02*
X7104286Y-23820619D01*
X7104286Y-23820619D02*
X7113809Y-23801571D01*
X7113809Y-23801571D02*
X7123333Y-23792048D01*
X7123333Y-23792048D02*
X7142381Y-23782524D01*
X7294762Y-23982524D02*
X7294762Y-23849190D01*
X7294762Y-23868238D02*
X7304286Y-23858714D01*
X7304286Y-23858714D02*
X7323333Y-23849190D01*
X7323333Y-23849190D02*
X7351905Y-23849190D01*
X7351905Y-23849190D02*
X7370952Y-23858714D01*
X7370952Y-23858714D02*
X7380476Y-23877762D01*
X7380476Y-23877762D02*
X7380476Y-23982524D01*
X7380476Y-23877762D02*
X7390000Y-23858714D01*
X7390000Y-23858714D02*
X7409048Y-23849190D01*
X7409048Y-23849190D02*
X7437619Y-23849190D01*
X7437619Y-23849190D02*
X7456667Y-23858714D01*
X7456667Y-23858714D02*
X7466190Y-23877762D01*
X7466190Y-23877762D02*
X7466190Y-23982524D01*
X7561429Y-23982524D02*
X7561429Y-23849190D01*
X7561429Y-23868238D02*
X7570952Y-23858714D01*
X7570952Y-23858714D02*
X7590000Y-23849190D01*
X7590000Y-23849190D02*
X7618571Y-23849190D01*
X7618571Y-23849190D02*
X7637619Y-23858714D01*
X7637619Y-23858714D02*
X7647143Y-23877762D01*
X7647143Y-23877762D02*
X7647143Y-23982524D01*
X7647143Y-23877762D02*
X7656667Y-23858714D01*
X7656667Y-23858714D02*
X7675714Y-23849190D01*
X7675714Y-23849190D02*
X7704286Y-23849190D01*
X7704286Y-23849190D02*
X7723333Y-23858714D01*
X7723333Y-23858714D02*
X7732857Y-23877762D01*
X7732857Y-23877762D02*
X7732857Y-23982524D01*
X8123333Y-23773000D02*
X7951905Y-24030143D01*
X8380476Y-23782524D02*
X8399524Y-23782524D01*
X8399524Y-23782524D02*
X8418572Y-23792048D01*
X8418572Y-23792048D02*
X8428095Y-23801571D01*
X8428095Y-23801571D02*
X8437619Y-23820619D01*
X8437619Y-23820619D02*
X8447143Y-23858714D01*
X8447143Y-23858714D02*
X8447143Y-23906333D01*
X8447143Y-23906333D02*
X8437619Y-23944428D01*
X8437619Y-23944428D02*
X8428095Y-23963476D01*
X8428095Y-23963476D02*
X8418572Y-23973000D01*
X8418572Y-23973000D02*
X8399524Y-23982524D01*
X8399524Y-23982524D02*
X8380476Y-23982524D01*
X8380476Y-23982524D02*
X8361429Y-23973000D01*
X8361429Y-23973000D02*
X8351905Y-23963476D01*
X8351905Y-23963476D02*
X8342381Y-23944428D01*
X8342381Y-23944428D02*
X8332857Y-23906333D01*
X8332857Y-23906333D02*
X8332857Y-23858714D01*
X8332857Y-23858714D02*
X8342381Y-23820619D01*
X8342381Y-23820619D02*
X8351905Y-23801571D01*
X8351905Y-23801571D02*
X8361429Y-23792048D01*
X8361429Y-23792048D02*
X8380476Y-23782524D01*
X8532857Y-23963476D02*
X8542381Y-23973000D01*
X8542381Y-23973000D02*
X8532857Y-23982524D01*
X8532857Y-23982524D02*
X8523334Y-23973000D01*
X8523334Y-23973000D02*
X8532857Y-23963476D01*
X8532857Y-23963476D02*
X8532857Y-23982524D01*
X8666191Y-23782524D02*
X8685238Y-23782524D01*
X8685238Y-23782524D02*
X8704286Y-23792048D01*
X8704286Y-23792048D02*
X8713810Y-23801571D01*
X8713810Y-23801571D02*
X8723334Y-23820619D01*
X8723334Y-23820619D02*
X8732857Y-23858714D01*
X8732857Y-23858714D02*
X8732857Y-23906333D01*
X8732857Y-23906333D02*
X8723334Y-23944428D01*
X8723334Y-23944428D02*
X8713810Y-23963476D01*
X8713810Y-23963476D02*
X8704286Y-23973000D01*
X8704286Y-23973000D02*
X8685238Y-23982524D01*
X8685238Y-23982524D02*
X8666191Y-23982524D01*
X8666191Y-23982524D02*
X8647143Y-23973000D01*
X8647143Y-23973000D02*
X8637619Y-23963476D01*
X8637619Y-23963476D02*
X8628095Y-23944428D01*
X8628095Y-23944428D02*
X8618572Y-23906333D01*
X8618572Y-23906333D02*
X8618572Y-23858714D01*
X8618572Y-23858714D02*
X8628095Y-23820619D01*
X8628095Y-23820619D02*
X8637619Y-23801571D01*
X8637619Y-23801571D02*
X8647143Y-23792048D01*
X8647143Y-23792048D02*
X8666191Y-23782524D01*
X8904286Y-23782524D02*
X8866191Y-23782524D01*
X8866191Y-23782524D02*
X8847143Y-23792048D01*
X8847143Y-23792048D02*
X8837619Y-23801571D01*
X8837619Y-23801571D02*
X8818572Y-23830143D01*
X8818572Y-23830143D02*
X8809048Y-23868238D01*
X8809048Y-23868238D02*
X8809048Y-23944428D01*
X8809048Y-23944428D02*
X8818572Y-23963476D01*
X8818572Y-23963476D02*
X8828095Y-23973000D01*
X8828095Y-23973000D02*
X8847143Y-23982524D01*
X8847143Y-23982524D02*
X8885238Y-23982524D01*
X8885238Y-23982524D02*
X8904286Y-23973000D01*
X8904286Y-23973000D02*
X8913810Y-23963476D01*
X8913810Y-23963476D02*
X8923334Y-23944428D01*
X8923334Y-23944428D02*
X8923334Y-23896809D01*
X8923334Y-23896809D02*
X8913810Y-23877762D01*
X8913810Y-23877762D02*
X8904286Y-23868238D01*
X8904286Y-23868238D02*
X8885238Y-23858714D01*
X8885238Y-23858714D02*
X8847143Y-23858714D01*
X8847143Y-23858714D02*
X8828095Y-23868238D01*
X8828095Y-23868238D02*
X8818572Y-23877762D01*
X8818572Y-23877762D02*
X8809048Y-23896809D01*
X8990000Y-23782524D02*
X9113810Y-23782524D01*
X9113810Y-23782524D02*
X9047143Y-23858714D01*
X9047143Y-23858714D02*
X9075715Y-23858714D01*
X9075715Y-23858714D02*
X9094762Y-23868238D01*
X9094762Y-23868238D02*
X9104286Y-23877762D01*
X9104286Y-23877762D02*
X9113810Y-23896809D01*
X9113810Y-23896809D02*
X9113810Y-23944428D01*
X9113810Y-23944428D02*
X9104286Y-23963476D01*
X9104286Y-23963476D02*
X9094762Y-23973000D01*
X9094762Y-23973000D02*
X9075715Y-23982524D01*
X9075715Y-23982524D02*
X9018572Y-23982524D01*
X9018572Y-23982524D02*
X8999524Y-23973000D01*
X8999524Y-23973000D02*
X8990000Y-23963476D01*
X9237619Y-23782524D02*
X9256667Y-23782524D01*
X9256667Y-23782524D02*
X9275715Y-23792048D01*
X9275715Y-23792048D02*
X9285238Y-23801571D01*
X9285238Y-23801571D02*
X9294762Y-23820619D01*
X9294762Y-23820619D02*
X9304286Y-23858714D01*
X9304286Y-23858714D02*
X9304286Y-23906333D01*
X9304286Y-23906333D02*
X9294762Y-23944428D01*
X9294762Y-23944428D02*
X9285238Y-23963476D01*
X9285238Y-23963476D02*
X9275715Y-23973000D01*
X9275715Y-23973000D02*
X9256667Y-23982524D01*
X9256667Y-23982524D02*
X9237619Y-23982524D01*
X9237619Y-23982524D02*
X9218572Y-23973000D01*
X9218572Y-23973000D02*
X9209048Y-23963476D01*
X9209048Y-23963476D02*
X9199524Y-23944428D01*
X9199524Y-23944428D02*
X9190000Y-23906333D01*
X9190000Y-23906333D02*
X9190000Y-23858714D01*
X9190000Y-23858714D02*
X9199524Y-23820619D01*
X9199524Y-23820619D02*
X9209048Y-23801571D01*
X9209048Y-23801571D02*
X9218572Y-23792048D01*
X9218572Y-23792048D02*
X9237619Y-23782524D01*
X9380476Y-23782524D02*
X9380476Y-23820619D01*
X9456667Y-23782524D02*
X9456667Y-23820619D01*
X9751905Y-24058714D02*
X9742381Y-24049190D01*
X9742381Y-24049190D02*
X9723334Y-24020619D01*
X9723334Y-24020619D02*
X9713810Y-24001571D01*
X9713810Y-24001571D02*
X9704286Y-23973000D01*
X9704286Y-23973000D02*
X9694762Y-23925381D01*
X9694762Y-23925381D02*
X9694762Y-23887286D01*
X9694762Y-23887286D02*
X9704286Y-23839667D01*
X9704286Y-23839667D02*
X9713810Y-23811095D01*
X9713810Y-23811095D02*
X9723334Y-23792048D01*
X9723334Y-23792048D02*
X9742381Y-23763476D01*
X9742381Y-23763476D02*
X9751905Y-23753952D01*
X9856667Y-23868238D02*
X9837619Y-23858714D01*
X9837619Y-23858714D02*
X9828096Y-23849190D01*
X9828096Y-23849190D02*
X9818572Y-23830143D01*
X9818572Y-23830143D02*
X9818572Y-23820619D01*
X9818572Y-23820619D02*
X9828096Y-23801571D01*
X9828096Y-23801571D02*
X9837619Y-23792048D01*
X9837619Y-23792048D02*
X9856667Y-23782524D01*
X9856667Y-23782524D02*
X9894762Y-23782524D01*
X9894762Y-23782524D02*
X9913810Y-23792048D01*
X9913810Y-23792048D02*
X9923334Y-23801571D01*
X9923334Y-23801571D02*
X9932857Y-23820619D01*
X9932857Y-23820619D02*
X9932857Y-23830143D01*
X9932857Y-23830143D02*
X9923334Y-23849190D01*
X9923334Y-23849190D02*
X9913810Y-23858714D01*
X9913810Y-23858714D02*
X9894762Y-23868238D01*
X9894762Y-23868238D02*
X9856667Y-23868238D01*
X9856667Y-23868238D02*
X9837619Y-23877762D01*
X9837619Y-23877762D02*
X9828096Y-23887286D01*
X9828096Y-23887286D02*
X9818572Y-23906333D01*
X9818572Y-23906333D02*
X9818572Y-23944428D01*
X9818572Y-23944428D02*
X9828096Y-23963476D01*
X9828096Y-23963476D02*
X9837619Y-23973000D01*
X9837619Y-23973000D02*
X9856667Y-23982524D01*
X9856667Y-23982524D02*
X9894762Y-23982524D01*
X9894762Y-23982524D02*
X9913810Y-23973000D01*
X9913810Y-23973000D02*
X9923334Y-23963476D01*
X9923334Y-23963476D02*
X9932857Y-23944428D01*
X9932857Y-23944428D02*
X9932857Y-23906333D01*
X9932857Y-23906333D02*
X9923334Y-23887286D01*
X9923334Y-23887286D02*
X9913810Y-23877762D01*
X9913810Y-23877762D02*
X9894762Y-23868238D01*
X10170953Y-23982524D02*
X10170953Y-23782524D01*
X10256667Y-23982524D02*
X10256667Y-23877762D01*
X10256667Y-23877762D02*
X10247143Y-23858714D01*
X10247143Y-23858714D02*
X10228096Y-23849190D01*
X10228096Y-23849190D02*
X10199524Y-23849190D01*
X10199524Y-23849190D02*
X10180477Y-23858714D01*
X10180477Y-23858714D02*
X10170953Y-23868238D01*
X10380477Y-23982524D02*
X10361429Y-23973000D01*
X10361429Y-23973000D02*
X10351905Y-23963476D01*
X10351905Y-23963476D02*
X10342381Y-23944428D01*
X10342381Y-23944428D02*
X10342381Y-23887286D01*
X10342381Y-23887286D02*
X10351905Y-23868238D01*
X10351905Y-23868238D02*
X10361429Y-23858714D01*
X10361429Y-23858714D02*
X10380477Y-23849190D01*
X10380477Y-23849190D02*
X10409048Y-23849190D01*
X10409048Y-23849190D02*
X10428096Y-23858714D01*
X10428096Y-23858714D02*
X10437619Y-23868238D01*
X10437619Y-23868238D02*
X10447143Y-23887286D01*
X10447143Y-23887286D02*
X10447143Y-23944428D01*
X10447143Y-23944428D02*
X10437619Y-23963476D01*
X10437619Y-23963476D02*
X10428096Y-23973000D01*
X10428096Y-23973000D02*
X10409048Y-23982524D01*
X10409048Y-23982524D02*
X10380477Y-23982524D01*
X10561429Y-23982524D02*
X10542381Y-23973000D01*
X10542381Y-23973000D02*
X10532858Y-23953952D01*
X10532858Y-23953952D02*
X10532858Y-23782524D01*
X10713810Y-23973000D02*
X10694762Y-23982524D01*
X10694762Y-23982524D02*
X10656667Y-23982524D01*
X10656667Y-23982524D02*
X10637619Y-23973000D01*
X10637619Y-23973000D02*
X10628096Y-23953952D01*
X10628096Y-23953952D02*
X10628096Y-23877762D01*
X10628096Y-23877762D02*
X10637619Y-23858714D01*
X10637619Y-23858714D02*
X10656667Y-23849190D01*
X10656667Y-23849190D02*
X10694762Y-23849190D01*
X10694762Y-23849190D02*
X10713810Y-23858714D01*
X10713810Y-23858714D02*
X10723334Y-23877762D01*
X10723334Y-23877762D02*
X10723334Y-23896809D01*
X10723334Y-23896809D02*
X10628096Y-23915857D01*
X10799524Y-23973000D02*
X10818572Y-23982524D01*
X10818572Y-23982524D02*
X10856667Y-23982524D01*
X10856667Y-23982524D02*
X10875715Y-23973000D01*
X10875715Y-23973000D02*
X10885239Y-23953952D01*
X10885239Y-23953952D02*
X10885239Y-23944428D01*
X10885239Y-23944428D02*
X10875715Y-23925381D01*
X10875715Y-23925381D02*
X10856667Y-23915857D01*
X10856667Y-23915857D02*
X10828096Y-23915857D01*
X10828096Y-23915857D02*
X10809048Y-23906333D01*
X10809048Y-23906333D02*
X10799524Y-23887286D01*
X10799524Y-23887286D02*
X10799524Y-23877762D01*
X10799524Y-23877762D02*
X10809048Y-23858714D01*
X10809048Y-23858714D02*
X10828096Y-23849190D01*
X10828096Y-23849190D02*
X10856667Y-23849190D01*
X10856667Y-23849190D02*
X10875715Y-23858714D01*
X10951905Y-24058714D02*
X10961429Y-24049190D01*
X10961429Y-24049190D02*
X10980477Y-24020619D01*
X10980477Y-24020619D02*
X10990000Y-24001571D01*
X10990000Y-24001571D02*
X10999524Y-23973000D01*
X10999524Y-23973000D02*
X11009048Y-23925381D01*
X11009048Y-23925381D02*
X11009048Y-23887286D01*
X11009048Y-23887286D02*
X10999524Y-23839667D01*
X10999524Y-23839667D02*
X10990000Y-23811095D01*
X10990000Y-23811095D02*
X10980477Y-23792048D01*
X10980477Y-23792048D02*
X10961429Y-23763476D01*
X10961429Y-23763476D02*
X10951905Y-23753952D01*
D16*
X6005000Y-24077500D02*
X6190000Y-24262500D01*
X6190000Y-24077500D02*
X6005000Y-24262500D01*
X6190000Y-24170000D02*
G75*
G03*
X6190000Y-24170000I-92500J0D01*
G01*
D11*
X6542381Y-24262524D02*
X6428095Y-24262524D01*
X6485238Y-24262524D02*
X6485238Y-24062524D01*
X6485238Y-24062524D02*
X6466190Y-24091095D01*
X6466190Y-24091095D02*
X6447143Y-24110143D01*
X6447143Y-24110143D02*
X6428095Y-24119667D01*
X6628095Y-24243476D02*
X6637619Y-24253000D01*
X6637619Y-24253000D02*
X6628095Y-24262524D01*
X6628095Y-24262524D02*
X6618571Y-24253000D01*
X6618571Y-24253000D02*
X6628095Y-24243476D01*
X6628095Y-24243476D02*
X6628095Y-24262524D01*
X6751905Y-24148238D02*
X6732857Y-24138714D01*
X6732857Y-24138714D02*
X6723333Y-24129190D01*
X6723333Y-24129190D02*
X6713809Y-24110143D01*
X6713809Y-24110143D02*
X6713809Y-24100619D01*
X6713809Y-24100619D02*
X6723333Y-24081571D01*
X6723333Y-24081571D02*
X6732857Y-24072048D01*
X6732857Y-24072048D02*
X6751905Y-24062524D01*
X6751905Y-24062524D02*
X6790000Y-24062524D01*
X6790000Y-24062524D02*
X6809048Y-24072048D01*
X6809048Y-24072048D02*
X6818571Y-24081571D01*
X6818571Y-24081571D02*
X6828095Y-24100619D01*
X6828095Y-24100619D02*
X6828095Y-24110143D01*
X6828095Y-24110143D02*
X6818571Y-24129190D01*
X6818571Y-24129190D02*
X6809048Y-24138714D01*
X6809048Y-24138714D02*
X6790000Y-24148238D01*
X6790000Y-24148238D02*
X6751905Y-24148238D01*
X6751905Y-24148238D02*
X6732857Y-24157762D01*
X6732857Y-24157762D02*
X6723333Y-24167286D01*
X6723333Y-24167286D02*
X6713809Y-24186333D01*
X6713809Y-24186333D02*
X6713809Y-24224428D01*
X6713809Y-24224428D02*
X6723333Y-24243476D01*
X6723333Y-24243476D02*
X6732857Y-24253000D01*
X6732857Y-24253000D02*
X6751905Y-24262524D01*
X6751905Y-24262524D02*
X6790000Y-24262524D01*
X6790000Y-24262524D02*
X6809048Y-24253000D01*
X6809048Y-24253000D02*
X6818571Y-24243476D01*
X6818571Y-24243476D02*
X6828095Y-24224428D01*
X6828095Y-24224428D02*
X6828095Y-24186333D01*
X6828095Y-24186333D02*
X6818571Y-24167286D01*
X6818571Y-24167286D02*
X6809048Y-24157762D01*
X6809048Y-24157762D02*
X6790000Y-24148238D01*
X7009048Y-24062524D02*
X6913809Y-24062524D01*
X6913809Y-24062524D02*
X6904286Y-24157762D01*
X6904286Y-24157762D02*
X6913809Y-24148238D01*
X6913809Y-24148238D02*
X6932857Y-24138714D01*
X6932857Y-24138714D02*
X6980476Y-24138714D01*
X6980476Y-24138714D02*
X6999524Y-24148238D01*
X6999524Y-24148238D02*
X7009048Y-24157762D01*
X7009048Y-24157762D02*
X7018571Y-24176809D01*
X7018571Y-24176809D02*
X7018571Y-24224428D01*
X7018571Y-24224428D02*
X7009048Y-24243476D01*
X7009048Y-24243476D02*
X6999524Y-24253000D01*
X6999524Y-24253000D02*
X6980476Y-24262524D01*
X6980476Y-24262524D02*
X6932857Y-24262524D01*
X6932857Y-24262524D02*
X6913809Y-24253000D01*
X6913809Y-24253000D02*
X6904286Y-24243476D01*
X7142381Y-24062524D02*
X7161429Y-24062524D01*
X7161429Y-24062524D02*
X7180476Y-24072048D01*
X7180476Y-24072048D02*
X7190000Y-24081571D01*
X7190000Y-24081571D02*
X7199524Y-24100619D01*
X7199524Y-24100619D02*
X7209048Y-24138714D01*
X7209048Y-24138714D02*
X7209048Y-24186333D01*
X7209048Y-24186333D02*
X7199524Y-24224428D01*
X7199524Y-24224428D02*
X7190000Y-24243476D01*
X7190000Y-24243476D02*
X7180476Y-24253000D01*
X7180476Y-24253000D02*
X7161429Y-24262524D01*
X7161429Y-24262524D02*
X7142381Y-24262524D01*
X7142381Y-24262524D02*
X7123333Y-24253000D01*
X7123333Y-24253000D02*
X7113809Y-24243476D01*
X7113809Y-24243476D02*
X7104286Y-24224428D01*
X7104286Y-24224428D02*
X7094762Y-24186333D01*
X7094762Y-24186333D02*
X7094762Y-24138714D01*
X7094762Y-24138714D02*
X7104286Y-24100619D01*
X7104286Y-24100619D02*
X7113809Y-24081571D01*
X7113809Y-24081571D02*
X7123333Y-24072048D01*
X7123333Y-24072048D02*
X7142381Y-24062524D01*
X7294762Y-24262524D02*
X7294762Y-24129190D01*
X7294762Y-24148238D02*
X7304286Y-24138714D01*
X7304286Y-24138714D02*
X7323333Y-24129190D01*
X7323333Y-24129190D02*
X7351905Y-24129190D01*
X7351905Y-24129190D02*
X7370952Y-24138714D01*
X7370952Y-24138714D02*
X7380476Y-24157762D01*
X7380476Y-24157762D02*
X7380476Y-24262524D01*
X7380476Y-24157762D02*
X7390000Y-24138714D01*
X7390000Y-24138714D02*
X7409048Y-24129190D01*
X7409048Y-24129190D02*
X7437619Y-24129190D01*
X7437619Y-24129190D02*
X7456667Y-24138714D01*
X7456667Y-24138714D02*
X7466190Y-24157762D01*
X7466190Y-24157762D02*
X7466190Y-24262524D01*
X7561429Y-24262524D02*
X7561429Y-24129190D01*
X7561429Y-24148238D02*
X7570952Y-24138714D01*
X7570952Y-24138714D02*
X7590000Y-24129190D01*
X7590000Y-24129190D02*
X7618571Y-24129190D01*
X7618571Y-24129190D02*
X7637619Y-24138714D01*
X7637619Y-24138714D02*
X7647143Y-24157762D01*
X7647143Y-24157762D02*
X7647143Y-24262524D01*
X7647143Y-24157762D02*
X7656667Y-24138714D01*
X7656667Y-24138714D02*
X7675714Y-24129190D01*
X7675714Y-24129190D02*
X7704286Y-24129190D01*
X7704286Y-24129190D02*
X7723333Y-24138714D01*
X7723333Y-24138714D02*
X7732857Y-24157762D01*
X7732857Y-24157762D02*
X7732857Y-24262524D01*
X8123333Y-24053000D02*
X7951905Y-24310143D01*
X8380476Y-24062524D02*
X8399524Y-24062524D01*
X8399524Y-24062524D02*
X8418572Y-24072048D01*
X8418572Y-24072048D02*
X8428095Y-24081571D01*
X8428095Y-24081571D02*
X8437619Y-24100619D01*
X8437619Y-24100619D02*
X8447143Y-24138714D01*
X8447143Y-24138714D02*
X8447143Y-24186333D01*
X8447143Y-24186333D02*
X8437619Y-24224428D01*
X8437619Y-24224428D02*
X8428095Y-24243476D01*
X8428095Y-24243476D02*
X8418572Y-24253000D01*
X8418572Y-24253000D02*
X8399524Y-24262524D01*
X8399524Y-24262524D02*
X8380476Y-24262524D01*
X8380476Y-24262524D02*
X8361429Y-24253000D01*
X8361429Y-24253000D02*
X8351905Y-24243476D01*
X8351905Y-24243476D02*
X8342381Y-24224428D01*
X8342381Y-24224428D02*
X8332857Y-24186333D01*
X8332857Y-24186333D02*
X8332857Y-24138714D01*
X8332857Y-24138714D02*
X8342381Y-24100619D01*
X8342381Y-24100619D02*
X8351905Y-24081571D01*
X8351905Y-24081571D02*
X8361429Y-24072048D01*
X8361429Y-24072048D02*
X8380476Y-24062524D01*
X8532857Y-24243476D02*
X8542381Y-24253000D01*
X8542381Y-24253000D02*
X8532857Y-24262524D01*
X8532857Y-24262524D02*
X8523334Y-24253000D01*
X8523334Y-24253000D02*
X8532857Y-24243476D01*
X8532857Y-24243476D02*
X8532857Y-24262524D01*
X8666191Y-24062524D02*
X8685238Y-24062524D01*
X8685238Y-24062524D02*
X8704286Y-24072048D01*
X8704286Y-24072048D02*
X8713810Y-24081571D01*
X8713810Y-24081571D02*
X8723334Y-24100619D01*
X8723334Y-24100619D02*
X8732857Y-24138714D01*
X8732857Y-24138714D02*
X8732857Y-24186333D01*
X8732857Y-24186333D02*
X8723334Y-24224428D01*
X8723334Y-24224428D02*
X8713810Y-24243476D01*
X8713810Y-24243476D02*
X8704286Y-24253000D01*
X8704286Y-24253000D02*
X8685238Y-24262524D01*
X8685238Y-24262524D02*
X8666191Y-24262524D01*
X8666191Y-24262524D02*
X8647143Y-24253000D01*
X8647143Y-24253000D02*
X8637619Y-24243476D01*
X8637619Y-24243476D02*
X8628095Y-24224428D01*
X8628095Y-24224428D02*
X8618572Y-24186333D01*
X8618572Y-24186333D02*
X8618572Y-24138714D01*
X8618572Y-24138714D02*
X8628095Y-24100619D01*
X8628095Y-24100619D02*
X8637619Y-24081571D01*
X8637619Y-24081571D02*
X8647143Y-24072048D01*
X8647143Y-24072048D02*
X8666191Y-24062524D01*
X8799524Y-24062524D02*
X8932857Y-24062524D01*
X8932857Y-24062524D02*
X8847143Y-24262524D01*
X8999524Y-24081571D02*
X9009048Y-24072048D01*
X9009048Y-24072048D02*
X9028095Y-24062524D01*
X9028095Y-24062524D02*
X9075715Y-24062524D01*
X9075715Y-24062524D02*
X9094762Y-24072048D01*
X9094762Y-24072048D02*
X9104286Y-24081571D01*
X9104286Y-24081571D02*
X9113810Y-24100619D01*
X9113810Y-24100619D02*
X9113810Y-24119667D01*
X9113810Y-24119667D02*
X9104286Y-24148238D01*
X9104286Y-24148238D02*
X8990000Y-24262524D01*
X8990000Y-24262524D02*
X9113810Y-24262524D01*
X9228095Y-24148238D02*
X9209048Y-24138714D01*
X9209048Y-24138714D02*
X9199524Y-24129190D01*
X9199524Y-24129190D02*
X9190000Y-24110143D01*
X9190000Y-24110143D02*
X9190000Y-24100619D01*
X9190000Y-24100619D02*
X9199524Y-24081571D01*
X9199524Y-24081571D02*
X9209048Y-24072048D01*
X9209048Y-24072048D02*
X9228095Y-24062524D01*
X9228095Y-24062524D02*
X9266191Y-24062524D01*
X9266191Y-24062524D02*
X9285238Y-24072048D01*
X9285238Y-24072048D02*
X9294762Y-24081571D01*
X9294762Y-24081571D02*
X9304286Y-24100619D01*
X9304286Y-24100619D02*
X9304286Y-24110143D01*
X9304286Y-24110143D02*
X9294762Y-24129190D01*
X9294762Y-24129190D02*
X9285238Y-24138714D01*
X9285238Y-24138714D02*
X9266191Y-24148238D01*
X9266191Y-24148238D02*
X9228095Y-24148238D01*
X9228095Y-24148238D02*
X9209048Y-24157762D01*
X9209048Y-24157762D02*
X9199524Y-24167286D01*
X9199524Y-24167286D02*
X9190000Y-24186333D01*
X9190000Y-24186333D02*
X9190000Y-24224428D01*
X9190000Y-24224428D02*
X9199524Y-24243476D01*
X9199524Y-24243476D02*
X9209048Y-24253000D01*
X9209048Y-24253000D02*
X9228095Y-24262524D01*
X9228095Y-24262524D02*
X9266191Y-24262524D01*
X9266191Y-24262524D02*
X9285238Y-24253000D01*
X9285238Y-24253000D02*
X9294762Y-24243476D01*
X9294762Y-24243476D02*
X9304286Y-24224428D01*
X9304286Y-24224428D02*
X9304286Y-24186333D01*
X9304286Y-24186333D02*
X9294762Y-24167286D01*
X9294762Y-24167286D02*
X9285238Y-24157762D01*
X9285238Y-24157762D02*
X9266191Y-24148238D01*
X9380476Y-24062524D02*
X9380476Y-24100619D01*
X9456667Y-24062524D02*
X9456667Y-24100619D01*
X9751905Y-24338714D02*
X9742381Y-24329190D01*
X9742381Y-24329190D02*
X9723334Y-24300619D01*
X9723334Y-24300619D02*
X9713810Y-24281571D01*
X9713810Y-24281571D02*
X9704286Y-24253000D01*
X9704286Y-24253000D02*
X9694762Y-24205381D01*
X9694762Y-24205381D02*
X9694762Y-24167286D01*
X9694762Y-24167286D02*
X9704286Y-24119667D01*
X9704286Y-24119667D02*
X9713810Y-24091095D01*
X9713810Y-24091095D02*
X9723334Y-24072048D01*
X9723334Y-24072048D02*
X9742381Y-24043476D01*
X9742381Y-24043476D02*
X9751905Y-24033952D01*
X9913810Y-24129190D02*
X9913810Y-24262524D01*
X9866191Y-24053000D02*
X9818572Y-24195857D01*
X9818572Y-24195857D02*
X9942381Y-24195857D01*
X10009048Y-24081571D02*
X10018572Y-24072048D01*
X10018572Y-24072048D02*
X10037619Y-24062524D01*
X10037619Y-24062524D02*
X10085238Y-24062524D01*
X10085238Y-24062524D02*
X10104286Y-24072048D01*
X10104286Y-24072048D02*
X10113810Y-24081571D01*
X10113810Y-24081571D02*
X10123334Y-24100619D01*
X10123334Y-24100619D02*
X10123334Y-24119667D01*
X10123334Y-24119667D02*
X10113810Y-24148238D01*
X10113810Y-24148238D02*
X9999524Y-24262524D01*
X9999524Y-24262524D02*
X10123334Y-24262524D01*
X10361429Y-24262524D02*
X10361429Y-24062524D01*
X10447143Y-24262524D02*
X10447143Y-24157762D01*
X10447143Y-24157762D02*
X10437619Y-24138714D01*
X10437619Y-24138714D02*
X10418572Y-24129190D01*
X10418572Y-24129190D02*
X10390000Y-24129190D01*
X10390000Y-24129190D02*
X10370953Y-24138714D01*
X10370953Y-24138714D02*
X10361429Y-24148238D01*
X10570953Y-24262524D02*
X10551905Y-24253000D01*
X10551905Y-24253000D02*
X10542381Y-24243476D01*
X10542381Y-24243476D02*
X10532858Y-24224428D01*
X10532858Y-24224428D02*
X10532858Y-24167286D01*
X10532858Y-24167286D02*
X10542381Y-24148238D01*
X10542381Y-24148238D02*
X10551905Y-24138714D01*
X10551905Y-24138714D02*
X10570953Y-24129190D01*
X10570953Y-24129190D02*
X10599524Y-24129190D01*
X10599524Y-24129190D02*
X10618572Y-24138714D01*
X10618572Y-24138714D02*
X10628096Y-24148238D01*
X10628096Y-24148238D02*
X10637619Y-24167286D01*
X10637619Y-24167286D02*
X10637619Y-24224428D01*
X10637619Y-24224428D02*
X10628096Y-24243476D01*
X10628096Y-24243476D02*
X10618572Y-24253000D01*
X10618572Y-24253000D02*
X10599524Y-24262524D01*
X10599524Y-24262524D02*
X10570953Y-24262524D01*
X10751905Y-24262524D02*
X10732858Y-24253000D01*
X10732858Y-24253000D02*
X10723334Y-24233952D01*
X10723334Y-24233952D02*
X10723334Y-24062524D01*
X10904286Y-24253000D02*
X10885239Y-24262524D01*
X10885239Y-24262524D02*
X10847143Y-24262524D01*
X10847143Y-24262524D02*
X10828096Y-24253000D01*
X10828096Y-24253000D02*
X10818572Y-24233952D01*
X10818572Y-24233952D02*
X10818572Y-24157762D01*
X10818572Y-24157762D02*
X10828096Y-24138714D01*
X10828096Y-24138714D02*
X10847143Y-24129190D01*
X10847143Y-24129190D02*
X10885239Y-24129190D01*
X10885239Y-24129190D02*
X10904286Y-24138714D01*
X10904286Y-24138714D02*
X10913810Y-24157762D01*
X10913810Y-24157762D02*
X10913810Y-24176809D01*
X10913810Y-24176809D02*
X10818572Y-24195857D01*
X10990000Y-24253000D02*
X11009048Y-24262524D01*
X11009048Y-24262524D02*
X11047143Y-24262524D01*
X11047143Y-24262524D02*
X11066191Y-24253000D01*
X11066191Y-24253000D02*
X11075715Y-24233952D01*
X11075715Y-24233952D02*
X11075715Y-24224428D01*
X11075715Y-24224428D02*
X11066191Y-24205381D01*
X11066191Y-24205381D02*
X11047143Y-24195857D01*
X11047143Y-24195857D02*
X11018572Y-24195857D01*
X11018572Y-24195857D02*
X10999524Y-24186333D01*
X10999524Y-24186333D02*
X10990000Y-24167286D01*
X10990000Y-24167286D02*
X10990000Y-24157762D01*
X10990000Y-24157762D02*
X10999524Y-24138714D01*
X10999524Y-24138714D02*
X11018572Y-24129190D01*
X11018572Y-24129190D02*
X11047143Y-24129190D01*
X11047143Y-24129190D02*
X11066191Y-24138714D01*
X11142381Y-24338714D02*
X11151905Y-24329190D01*
X11151905Y-24329190D02*
X11170953Y-24300619D01*
X11170953Y-24300619D02*
X11180477Y-24281571D01*
X11180477Y-24281571D02*
X11190000Y-24253000D01*
X11190000Y-24253000D02*
X11199524Y-24205381D01*
X11199524Y-24205381D02*
X11199524Y-24167286D01*
X11199524Y-24167286D02*
X11190000Y-24119667D01*
X11190000Y-24119667D02*
X11180477Y-24091095D01*
X11180477Y-24091095D02*
X11170953Y-24072048D01*
X11170953Y-24072048D02*
X11151905Y-24043476D01*
X11151905Y-24043476D02*
X11142381Y-24033952D01*
X5990000Y-24375000D02*
X6190000Y-24575000D01*
X6190000Y-24375000D02*
X5990000Y-24575000D01*
X6090000Y-24375000D02*
X6090000Y-24575000D01*
X5990000Y-24475000D02*
X6190000Y-24475000D01*
X6428095Y-24386571D02*
X6437619Y-24377048D01*
X6437619Y-24377048D02*
X6456667Y-24367524D01*
X6456667Y-24367524D02*
X6504286Y-24367524D01*
X6504286Y-24367524D02*
X6523333Y-24377048D01*
X6523333Y-24377048D02*
X6532857Y-24386571D01*
X6532857Y-24386571D02*
X6542381Y-24405619D01*
X6542381Y-24405619D02*
X6542381Y-24424667D01*
X6542381Y-24424667D02*
X6532857Y-24453238D01*
X6532857Y-24453238D02*
X6418571Y-24567524D01*
X6418571Y-24567524D02*
X6542381Y-24567524D01*
X6628095Y-24548476D02*
X6637619Y-24558000D01*
X6637619Y-24558000D02*
X6628095Y-24567524D01*
X6628095Y-24567524D02*
X6618571Y-24558000D01*
X6618571Y-24558000D02*
X6628095Y-24548476D01*
X6628095Y-24548476D02*
X6628095Y-24567524D01*
X6704286Y-24367524D02*
X6828095Y-24367524D01*
X6828095Y-24367524D02*
X6761428Y-24443714D01*
X6761428Y-24443714D02*
X6790000Y-24443714D01*
X6790000Y-24443714D02*
X6809048Y-24453238D01*
X6809048Y-24453238D02*
X6818571Y-24462762D01*
X6818571Y-24462762D02*
X6828095Y-24481809D01*
X6828095Y-24481809D02*
X6828095Y-24529428D01*
X6828095Y-24529428D02*
X6818571Y-24548476D01*
X6818571Y-24548476D02*
X6809048Y-24558000D01*
X6809048Y-24558000D02*
X6790000Y-24567524D01*
X6790000Y-24567524D02*
X6732857Y-24567524D01*
X6732857Y-24567524D02*
X6713809Y-24558000D01*
X6713809Y-24558000D02*
X6704286Y-24548476D01*
X6999524Y-24434190D02*
X6999524Y-24567524D01*
X6951905Y-24358000D02*
X6904286Y-24500857D01*
X6904286Y-24500857D02*
X7028095Y-24500857D01*
X7142381Y-24367524D02*
X7161429Y-24367524D01*
X7161429Y-24367524D02*
X7180476Y-24377048D01*
X7180476Y-24377048D02*
X7190000Y-24386571D01*
X7190000Y-24386571D02*
X7199524Y-24405619D01*
X7199524Y-24405619D02*
X7209048Y-24443714D01*
X7209048Y-24443714D02*
X7209048Y-24491333D01*
X7209048Y-24491333D02*
X7199524Y-24529428D01*
X7199524Y-24529428D02*
X7190000Y-24548476D01*
X7190000Y-24548476D02*
X7180476Y-24558000D01*
X7180476Y-24558000D02*
X7161429Y-24567524D01*
X7161429Y-24567524D02*
X7142381Y-24567524D01*
X7142381Y-24567524D02*
X7123333Y-24558000D01*
X7123333Y-24558000D02*
X7113809Y-24548476D01*
X7113809Y-24548476D02*
X7104286Y-24529428D01*
X7104286Y-24529428D02*
X7094762Y-24491333D01*
X7094762Y-24491333D02*
X7094762Y-24443714D01*
X7094762Y-24443714D02*
X7104286Y-24405619D01*
X7104286Y-24405619D02*
X7113809Y-24386571D01*
X7113809Y-24386571D02*
X7123333Y-24377048D01*
X7123333Y-24377048D02*
X7142381Y-24367524D01*
X7294762Y-24567524D02*
X7294762Y-24434190D01*
X7294762Y-24453238D02*
X7304286Y-24443714D01*
X7304286Y-24443714D02*
X7323333Y-24434190D01*
X7323333Y-24434190D02*
X7351905Y-24434190D01*
X7351905Y-24434190D02*
X7370952Y-24443714D01*
X7370952Y-24443714D02*
X7380476Y-24462762D01*
X7380476Y-24462762D02*
X7380476Y-24567524D01*
X7380476Y-24462762D02*
X7390000Y-24443714D01*
X7390000Y-24443714D02*
X7409048Y-24434190D01*
X7409048Y-24434190D02*
X7437619Y-24434190D01*
X7437619Y-24434190D02*
X7456667Y-24443714D01*
X7456667Y-24443714D02*
X7466190Y-24462762D01*
X7466190Y-24462762D02*
X7466190Y-24567524D01*
X7561429Y-24567524D02*
X7561429Y-24434190D01*
X7561429Y-24453238D02*
X7570952Y-24443714D01*
X7570952Y-24443714D02*
X7590000Y-24434190D01*
X7590000Y-24434190D02*
X7618571Y-24434190D01*
X7618571Y-24434190D02*
X7637619Y-24443714D01*
X7637619Y-24443714D02*
X7647143Y-24462762D01*
X7647143Y-24462762D02*
X7647143Y-24567524D01*
X7647143Y-24462762D02*
X7656667Y-24443714D01*
X7656667Y-24443714D02*
X7675714Y-24434190D01*
X7675714Y-24434190D02*
X7704286Y-24434190D01*
X7704286Y-24434190D02*
X7723333Y-24443714D01*
X7723333Y-24443714D02*
X7732857Y-24462762D01*
X7732857Y-24462762D02*
X7732857Y-24567524D01*
X8123333Y-24358000D02*
X7951905Y-24615143D01*
X8380476Y-24367524D02*
X8399524Y-24367524D01*
X8399524Y-24367524D02*
X8418572Y-24377048D01*
X8418572Y-24377048D02*
X8428095Y-24386571D01*
X8428095Y-24386571D02*
X8437619Y-24405619D01*
X8437619Y-24405619D02*
X8447143Y-24443714D01*
X8447143Y-24443714D02*
X8447143Y-24491333D01*
X8447143Y-24491333D02*
X8437619Y-24529428D01*
X8437619Y-24529428D02*
X8428095Y-24548476D01*
X8428095Y-24548476D02*
X8418572Y-24558000D01*
X8418572Y-24558000D02*
X8399524Y-24567524D01*
X8399524Y-24567524D02*
X8380476Y-24567524D01*
X8380476Y-24567524D02*
X8361429Y-24558000D01*
X8361429Y-24558000D02*
X8351905Y-24548476D01*
X8351905Y-24548476D02*
X8342381Y-24529428D01*
X8342381Y-24529428D02*
X8332857Y-24491333D01*
X8332857Y-24491333D02*
X8332857Y-24443714D01*
X8332857Y-24443714D02*
X8342381Y-24405619D01*
X8342381Y-24405619D02*
X8351905Y-24386571D01*
X8351905Y-24386571D02*
X8361429Y-24377048D01*
X8361429Y-24377048D02*
X8380476Y-24367524D01*
X8532857Y-24548476D02*
X8542381Y-24558000D01*
X8542381Y-24558000D02*
X8532857Y-24567524D01*
X8532857Y-24567524D02*
X8523334Y-24558000D01*
X8523334Y-24558000D02*
X8532857Y-24548476D01*
X8532857Y-24548476D02*
X8532857Y-24567524D01*
X8666191Y-24367524D02*
X8685238Y-24367524D01*
X8685238Y-24367524D02*
X8704286Y-24377048D01*
X8704286Y-24377048D02*
X8713810Y-24386571D01*
X8713810Y-24386571D02*
X8723334Y-24405619D01*
X8723334Y-24405619D02*
X8732857Y-24443714D01*
X8732857Y-24443714D02*
X8732857Y-24491333D01*
X8732857Y-24491333D02*
X8723334Y-24529428D01*
X8723334Y-24529428D02*
X8713810Y-24548476D01*
X8713810Y-24548476D02*
X8704286Y-24558000D01*
X8704286Y-24558000D02*
X8685238Y-24567524D01*
X8685238Y-24567524D02*
X8666191Y-24567524D01*
X8666191Y-24567524D02*
X8647143Y-24558000D01*
X8647143Y-24558000D02*
X8637619Y-24548476D01*
X8637619Y-24548476D02*
X8628095Y-24529428D01*
X8628095Y-24529428D02*
X8618572Y-24491333D01*
X8618572Y-24491333D02*
X8618572Y-24443714D01*
X8618572Y-24443714D02*
X8628095Y-24405619D01*
X8628095Y-24405619D02*
X8637619Y-24386571D01*
X8637619Y-24386571D02*
X8647143Y-24377048D01*
X8647143Y-24377048D02*
X8666191Y-24367524D01*
X8828095Y-24567524D02*
X8866191Y-24567524D01*
X8866191Y-24567524D02*
X8885238Y-24558000D01*
X8885238Y-24558000D02*
X8894762Y-24548476D01*
X8894762Y-24548476D02*
X8913810Y-24519905D01*
X8913810Y-24519905D02*
X8923334Y-24481809D01*
X8923334Y-24481809D02*
X8923334Y-24405619D01*
X8923334Y-24405619D02*
X8913810Y-24386571D01*
X8913810Y-24386571D02*
X8904286Y-24377048D01*
X8904286Y-24377048D02*
X8885238Y-24367524D01*
X8885238Y-24367524D02*
X8847143Y-24367524D01*
X8847143Y-24367524D02*
X8828095Y-24377048D01*
X8828095Y-24377048D02*
X8818572Y-24386571D01*
X8818572Y-24386571D02*
X8809048Y-24405619D01*
X8809048Y-24405619D02*
X8809048Y-24453238D01*
X8809048Y-24453238D02*
X8818572Y-24472286D01*
X8818572Y-24472286D02*
X8828095Y-24481809D01*
X8828095Y-24481809D02*
X8847143Y-24491333D01*
X8847143Y-24491333D02*
X8885238Y-24491333D01*
X8885238Y-24491333D02*
X8904286Y-24481809D01*
X8904286Y-24481809D02*
X8913810Y-24472286D01*
X8913810Y-24472286D02*
X8923334Y-24453238D01*
X8999524Y-24386571D02*
X9009048Y-24377048D01*
X9009048Y-24377048D02*
X9028095Y-24367524D01*
X9028095Y-24367524D02*
X9075715Y-24367524D01*
X9075715Y-24367524D02*
X9094762Y-24377048D01*
X9094762Y-24377048D02*
X9104286Y-24386571D01*
X9104286Y-24386571D02*
X9113810Y-24405619D01*
X9113810Y-24405619D02*
X9113810Y-24424667D01*
X9113810Y-24424667D02*
X9104286Y-24453238D01*
X9104286Y-24453238D02*
X8990000Y-24567524D01*
X8990000Y-24567524D02*
X9113810Y-24567524D01*
X9304286Y-24567524D02*
X9190000Y-24567524D01*
X9247143Y-24567524D02*
X9247143Y-24367524D01*
X9247143Y-24367524D02*
X9228095Y-24396095D01*
X9228095Y-24396095D02*
X9209048Y-24415143D01*
X9209048Y-24415143D02*
X9190000Y-24424667D01*
X9380476Y-24367524D02*
X9380476Y-24405619D01*
X9456667Y-24367524D02*
X9456667Y-24405619D01*
X9751905Y-24643714D02*
X9742381Y-24634190D01*
X9742381Y-24634190D02*
X9723334Y-24605619D01*
X9723334Y-24605619D02*
X9713810Y-24586571D01*
X9713810Y-24586571D02*
X9704286Y-24558000D01*
X9704286Y-24558000D02*
X9694762Y-24510381D01*
X9694762Y-24510381D02*
X9694762Y-24472286D01*
X9694762Y-24472286D02*
X9704286Y-24424667D01*
X9704286Y-24424667D02*
X9713810Y-24396095D01*
X9713810Y-24396095D02*
X9723334Y-24377048D01*
X9723334Y-24377048D02*
X9742381Y-24348476D01*
X9742381Y-24348476D02*
X9751905Y-24338952D01*
X9913810Y-24434190D02*
X9913810Y-24567524D01*
X9866191Y-24358000D02*
X9818572Y-24500857D01*
X9818572Y-24500857D02*
X9942381Y-24500857D01*
X10056667Y-24367524D02*
X10075715Y-24367524D01*
X10075715Y-24367524D02*
X10094762Y-24377048D01*
X10094762Y-24377048D02*
X10104286Y-24386571D01*
X10104286Y-24386571D02*
X10113810Y-24405619D01*
X10113810Y-24405619D02*
X10123334Y-24443714D01*
X10123334Y-24443714D02*
X10123334Y-24491333D01*
X10123334Y-24491333D02*
X10113810Y-24529428D01*
X10113810Y-24529428D02*
X10104286Y-24548476D01*
X10104286Y-24548476D02*
X10094762Y-24558000D01*
X10094762Y-24558000D02*
X10075715Y-24567524D01*
X10075715Y-24567524D02*
X10056667Y-24567524D01*
X10056667Y-24567524D02*
X10037619Y-24558000D01*
X10037619Y-24558000D02*
X10028096Y-24548476D01*
X10028096Y-24548476D02*
X10018572Y-24529428D01*
X10018572Y-24529428D02*
X10009048Y-24491333D01*
X10009048Y-24491333D02*
X10009048Y-24443714D01*
X10009048Y-24443714D02*
X10018572Y-24405619D01*
X10018572Y-24405619D02*
X10028096Y-24386571D01*
X10028096Y-24386571D02*
X10037619Y-24377048D01*
X10037619Y-24377048D02*
X10056667Y-24367524D01*
X10361429Y-24567524D02*
X10361429Y-24367524D01*
X10447143Y-24567524D02*
X10447143Y-24462762D01*
X10447143Y-24462762D02*
X10437619Y-24443714D01*
X10437619Y-24443714D02*
X10418572Y-24434190D01*
X10418572Y-24434190D02*
X10390000Y-24434190D01*
X10390000Y-24434190D02*
X10370953Y-24443714D01*
X10370953Y-24443714D02*
X10361429Y-24453238D01*
X10570953Y-24567524D02*
X10551905Y-24558000D01*
X10551905Y-24558000D02*
X10542381Y-24548476D01*
X10542381Y-24548476D02*
X10532858Y-24529428D01*
X10532858Y-24529428D02*
X10532858Y-24472286D01*
X10532858Y-24472286D02*
X10542381Y-24453238D01*
X10542381Y-24453238D02*
X10551905Y-24443714D01*
X10551905Y-24443714D02*
X10570953Y-24434190D01*
X10570953Y-24434190D02*
X10599524Y-24434190D01*
X10599524Y-24434190D02*
X10618572Y-24443714D01*
X10618572Y-24443714D02*
X10628096Y-24453238D01*
X10628096Y-24453238D02*
X10637619Y-24472286D01*
X10637619Y-24472286D02*
X10637619Y-24529428D01*
X10637619Y-24529428D02*
X10628096Y-24548476D01*
X10628096Y-24548476D02*
X10618572Y-24558000D01*
X10618572Y-24558000D02*
X10599524Y-24567524D01*
X10599524Y-24567524D02*
X10570953Y-24567524D01*
X10751905Y-24567524D02*
X10732858Y-24558000D01*
X10732858Y-24558000D02*
X10723334Y-24538952D01*
X10723334Y-24538952D02*
X10723334Y-24367524D01*
X10904286Y-24558000D02*
X10885239Y-24567524D01*
X10885239Y-24567524D02*
X10847143Y-24567524D01*
X10847143Y-24567524D02*
X10828096Y-24558000D01*
X10828096Y-24558000D02*
X10818572Y-24538952D01*
X10818572Y-24538952D02*
X10818572Y-24462762D01*
X10818572Y-24462762D02*
X10828096Y-24443714D01*
X10828096Y-24443714D02*
X10847143Y-24434190D01*
X10847143Y-24434190D02*
X10885239Y-24434190D01*
X10885239Y-24434190D02*
X10904286Y-24443714D01*
X10904286Y-24443714D02*
X10913810Y-24462762D01*
X10913810Y-24462762D02*
X10913810Y-24481809D01*
X10913810Y-24481809D02*
X10818572Y-24500857D01*
X10990000Y-24558000D02*
X11009048Y-24567524D01*
X11009048Y-24567524D02*
X11047143Y-24567524D01*
X11047143Y-24567524D02*
X11066191Y-24558000D01*
X11066191Y-24558000D02*
X11075715Y-24538952D01*
X11075715Y-24538952D02*
X11075715Y-24529428D01*
X11075715Y-24529428D02*
X11066191Y-24510381D01*
X11066191Y-24510381D02*
X11047143Y-24500857D01*
X11047143Y-24500857D02*
X11018572Y-24500857D01*
X11018572Y-24500857D02*
X10999524Y-24491333D01*
X10999524Y-24491333D02*
X10990000Y-24472286D01*
X10990000Y-24472286D02*
X10990000Y-24462762D01*
X10990000Y-24462762D02*
X10999524Y-24443714D01*
X10999524Y-24443714D02*
X11018572Y-24434190D01*
X11018572Y-24434190D02*
X11047143Y-24434190D01*
X11047143Y-24434190D02*
X11066191Y-24443714D01*
X11142381Y-24643714D02*
X11151905Y-24634190D01*
X11151905Y-24634190D02*
X11170953Y-24605619D01*
X11170953Y-24605619D02*
X11180477Y-24586571D01*
X11180477Y-24586571D02*
X11190000Y-24558000D01*
X11190000Y-24558000D02*
X11199524Y-24510381D01*
X11199524Y-24510381D02*
X11199524Y-24472286D01*
X11199524Y-24472286D02*
X11190000Y-24424667D01*
X11190000Y-24424667D02*
X11180477Y-24396095D01*
X11180477Y-24396095D02*
X11170953Y-24377048D01*
X11170953Y-24377048D02*
X11151905Y-24348476D01*
X11151905Y-24348476D02*
X11142381Y-24338952D01*
M02*
