M48
; DRILL file {KiCad (6.0.5-0)} date Friday 03 June 2022 at 22:29:32
; FORMAT={-:-/ absolute / metric / decimal}
; #@! TF.CreationDate,2022-06-03T22:29:32+01:00
; #@! TF.GenerationSoftware,Kicad,Pcbnew,(6.0.5-0)
; #@! TF.FileFunction,Plated,1,2,PTH
FMAT,2
METRIC
; #@! TA.AperFunction,Plated,PTH,ComponentDrill
T1C1.400
; #@! TA.AperFunction,Plated,PTH,ComponentDrill
T2C1.600
; #@! TA.AperFunction,Plated,PTH,ComponentDrill
T3C1.850
; #@! TA.AperFunction,Plated,PTH,ComponentDrill
T4C2.340
%
G90
G05
T1
X182.272Y-147.511
X182.272Y-150.011
X182.372Y-98.909
X182.372Y-101.409
X182.372Y-110.847
X182.372Y-113.347
X182.372Y-122.785
X182.372Y-125.285
X182.372Y-134.723
X182.372Y-137.223
X185.772Y-147.511
X185.772Y-150.011
X185.872Y-98.909
X185.872Y-101.409
X185.872Y-110.847
X185.872Y-113.347
X185.872Y-122.785
X185.872Y-125.285
X185.872Y-134.723
X185.872Y-137.223
X191.572Y-147.511
X191.572Y-150.011
X191.672Y-98.909
X191.672Y-101.409
X191.672Y-110.847
X191.672Y-113.347
X191.672Y-122.785
X191.672Y-125.285
X191.672Y-134.723
X191.672Y-137.223
X195.072Y-147.511
X195.072Y-150.011
X195.172Y-98.909
X195.172Y-101.409
X195.172Y-110.847
X195.172Y-113.347
X195.172Y-122.785
X195.172Y-125.285
X195.172Y-134.723
X195.172Y-137.223
T2
X203.962Y-144.78
X203.962Y-160.02
X210.058Y-125.222
X210.058Y-140.462
X210.058Y-144.78
X210.058Y-160.02
T3
X167.76Y-96.012
X167.76Y-103.83
X167.76Y-109.53
X167.76Y-138.374
X167.76Y-144.074
X167.76Y-152.598
X167.76Y-158.298
X173.26Y-96.012
X173.26Y-103.83
X173.26Y-109.53
X173.26Y-138.374
X173.26Y-144.074
X173.26Y-152.598
X173.26Y-158.298
X207.518Y-168.624
X207.518Y-174.124
X222.404Y-180.284
X222.404Y-185.984
X227.904Y-180.284
X227.904Y-185.984
X234.442Y-109.848
X234.442Y-115.348
T4
X155.38Y-177.264
X163.83Y-167.764
X163.83Y-177.674
X163.83Y-185.674
X172.28Y-177.264
X181.542Y-176.239
X189.992Y-167.829
X189.992Y-175.829
X189.992Y-185.739
X198.442Y-176.239
X205.926Y-109.192
X214.376Y-99.692
X214.376Y-109.602
X214.376Y-117.602
X218.629Y-136.398
X218.629Y-162.709
X222.826Y-109.192
X228.129Y-127.948
X228.129Y-144.848
X228.129Y-154.259
X228.129Y-171.159
X228.539Y-136.398
X228.539Y-162.709
X236.539Y-136.398
X236.539Y-162.709
T0
M30
