M48
; DRILL file {KiCad 7.0.1-0} date 2023 October 01, Sunday 21:07:12
; FORMAT={-:-/ absolute / metric / decimal}
; #@! TF.CreationDate,2023-10-01T21:07:12+01:00
; #@! TF.GenerationSoftware,Kicad,Pcbnew,7.0.1-0
; #@! TF.FileFunction,Plated,1,4,PTH
FMAT,2
METRIC
; #@! TA.AperFunction,Plated,PTH,ComponentDrill
T1C0.900
; #@! TA.AperFunction,Plated,PTH,ViaDrill
T2C1.000
; #@! TA.AperFunction,Plated,PTH,ComponentDrill
T3C1.000
; #@! TA.AperFunction,Plated,PTH,ComponentDrill
T4C1.400
; #@! TA.AperFunction,Plated,PTH,ComponentDrill
T5C1.600
; #@! TA.AperFunction,Plated,PTH,ComponentDrill
T6C1.850
; #@! TA.AperFunction,Plated,PTH,ComponentDrill
T7C2.340
%
G90
G05
T1
X188.453Y-186.714
X188.478Y-191.542
X190.993Y-186.714
X191.018Y-191.542
T2
X135.0Y-192.4
T3
X194.0Y-186.578
X194.048Y-191.37
X196.54Y-186.578
X196.588Y-191.37
T4
X79.502Y-189.408
X79.502Y-191.908
X79.982Y-123.498
X79.982Y-125.998
X80.0Y-136.627
X80.0Y-139.127
X80.0Y-149.684
X80.0Y-152.184
X80.0Y-162.789
X80.0Y-165.289
X80.0Y-176.098
X80.0Y-178.598
X83.002Y-189.408
X83.002Y-191.908
X83.482Y-123.498
X83.482Y-125.998
X83.5Y-136.627
X83.5Y-139.127
X83.5Y-149.684
X83.5Y-152.184
X83.5Y-162.789
X83.5Y-165.289
X83.5Y-176.098
X83.5Y-178.598
X88.802Y-189.408
X88.802Y-191.908
X89.282Y-123.498
X89.282Y-125.998
X89.3Y-136.627
X89.3Y-139.127
X89.3Y-149.684
X89.3Y-152.184
X89.3Y-162.789
X89.3Y-165.289
X89.3Y-176.098
X89.3Y-178.598
X92.302Y-189.408
X92.302Y-191.908
X92.782Y-123.498
X92.782Y-125.998
X92.8Y-136.627
X92.8Y-139.127
X92.8Y-149.684
X92.8Y-152.184
X92.8Y-162.789
X92.8Y-165.289
X92.8Y-176.098
X92.8Y-178.598
X107.2Y-187.0
X107.2Y-189.5
X110.7Y-187.0
X110.7Y-189.5
X116.5Y-187.0
X116.5Y-189.5
X120.0Y-187.0
X120.0Y-189.5
X142.668Y-138.074
X142.668Y-140.574
X142.744Y-124.358
X142.744Y-126.858
X142.744Y-151.784
X142.744Y-154.284
X146.168Y-138.074
X146.168Y-140.574
X146.244Y-124.358
X146.244Y-126.858
X146.244Y-151.784
X146.244Y-154.284
X151.968Y-138.074
X151.968Y-140.574
X152.044Y-124.358
X152.044Y-126.858
X152.044Y-151.784
X152.044Y-154.284
X155.468Y-138.074
X155.468Y-140.574
X155.544Y-124.358
X155.544Y-126.858
X155.544Y-151.784
X155.544Y-154.284
T5
X139.74Y-171.438
X139.76Y-163.83
X139.781Y-187.301
X139.825Y-179.051
X154.98Y-171.438
X155.0Y-163.83
X155.021Y-187.301
X155.065Y-179.051
T6
X79.0Y-199.275
X79.0Y-204.775
X90.0Y-199.351
X90.0Y-204.851
X95.7Y-199.351
X95.7Y-204.851
X106.458Y-199.3
X106.458Y-204.8
X117.779Y-199.34
X117.779Y-204.84
X123.479Y-199.34
X123.479Y-204.84
X135.0Y-199.311
X135.0Y-204.811
X140.7Y-199.311
X140.7Y-204.811
X151.402Y-199.394
X151.402Y-204.894
X162.15Y-199.3
X162.15Y-204.8
X167.85Y-199.3
X167.85Y-204.8
X179.707Y-199.217
X179.707Y-204.717
X185.407Y-199.217
X185.407Y-204.717
X197.15Y-199.3
X197.15Y-204.8
X202.85Y-199.3
X202.85Y-204.8
X214.0Y-199.3
X214.0Y-204.8
X225.15Y-199.3
X225.15Y-204.8
X230.85Y-199.3
X230.85Y-204.8
X242.0Y-199.3
X242.0Y-204.8
X253.0Y-199.3
X253.0Y-204.8
X264.0Y-199.3
X264.0Y-204.8
T7
X108.988Y-166.0
X109.09Y-134.0
X118.488Y-157.55
X118.488Y-174.45
X118.59Y-125.55
X118.59Y-142.45
X118.898Y-166.0
X119.0Y-134.0
X126.898Y-166.0
X127.0Y-134.0
X173.814Y-170.038
X174.09Y-142.346
X181.814Y-170.038
X182.224Y-161.588
X182.224Y-178.488
X183.59Y-133.896
X183.59Y-150.796
X184.0Y-142.346
X191.724Y-170.038
X192.0Y-142.346
X210.5Y-133.5
X210.5Y-166.0
X218.5Y-133.5
X218.5Y-166.0
X218.91Y-125.05
X218.91Y-141.95
X218.91Y-157.55
X218.91Y-174.45
X228.41Y-133.5
X228.41Y-166.0
X247.0Y-133.5
X247.0Y-166.0
X255.0Y-133.5
X255.0Y-166.0
X255.41Y-125.05
X255.41Y-141.95
X255.41Y-157.55
X255.41Y-174.45
X264.91Y-133.5
X264.91Y-166.0
T0
M30
