%TF.GenerationSoftware,KiCad,Pcbnew,7.0.1-0*%
%TF.CreationDate,2023-10-01T21:06:17+01:00*%
%TF.ProjectId,12v-front-pcb,3132762d-6672-46f6-9e74-2d7063622e6b,rev?*%
%TF.SameCoordinates,Original*%
%TF.FileFunction,Copper,L3,Inr*%
%TF.FilePolarity,Positive*%
%FSLAX46Y46*%
G04 Gerber Fmt 4.6, Leading zero omitted, Abs format (unit mm)*
G04 Created by KiCad (PCBNEW 7.0.1-0) date 2023-10-01 21:06:17*
%MOMM*%
%LPD*%
G01*
G04 APERTURE LIST*
%TA.AperFunction,ComponentPad*%
%ADD10C,3.510000*%
%TD*%
%TA.AperFunction,ComponentPad*%
%ADD11C,2.775000*%
%TD*%
%TA.AperFunction,ComponentPad*%
%ADD12C,2.100000*%
%TD*%
%TA.AperFunction,ComponentPad*%
%ADD13R,2.000000X2.000000*%
%TD*%
%TA.AperFunction,ComponentPad*%
%ADD14O,2.000000X2.000000*%
%TD*%
%TA.AperFunction,ComponentPad*%
%ADD15R,3.200000X3.200000*%
%TD*%
%TA.AperFunction,ComponentPad*%
%ADD16O,3.200000X3.200000*%
%TD*%
%TA.AperFunction,ComponentPad*%
%ADD17R,1.800000X1.800000*%
%TD*%
%TA.AperFunction,ComponentPad*%
%ADD18C,1.800000*%
%TD*%
%TA.AperFunction,ViaPad*%
%ADD19C,4.000000*%
%TD*%
%TA.AperFunction,Conductor*%
%ADD20C,0.500000*%
%TD*%
%TA.AperFunction,Conductor*%
%ADD21C,1.000000*%
%TD*%
%TA.AperFunction,Conductor*%
%ADD22C,2.000000*%
%TD*%
G04 APERTURE END LIST*
D10*
X247000000Y-166000000D03*
X255000000Y-166000000D03*
X264910000Y-166000000D03*
X255410000Y-157550000D03*
X255410000Y-174450000D03*
D11*
X151401890Y-199394171D03*
X151401890Y-204894171D03*
D12*
X80000000Y-139126600D03*
X83500000Y-139126600D03*
X89300000Y-139126600D03*
X92800000Y-139126600D03*
X92800000Y-136626600D03*
X89300000Y-136626600D03*
X83500000Y-136626600D03*
X80000000Y-136626600D03*
D10*
X173814333Y-170037615D03*
X181814333Y-170037615D03*
X191724333Y-170037615D03*
X182224333Y-161587615D03*
X182224333Y-178487615D03*
D11*
X214000000Y-199300000D03*
X214000000Y-204800000D03*
D13*
X196540000Y-186578066D03*
D14*
X194000000Y-186578066D03*
D11*
X162150000Y-199300000D03*
X167850000Y-199300000D03*
X162150000Y-204800000D03*
X167850000Y-204800000D03*
X79000000Y-199274800D03*
X79000000Y-204774800D03*
D15*
X139740122Y-171437848D03*
D16*
X154980122Y-171437848D03*
D11*
X135000000Y-199310971D03*
X140700000Y-199310971D03*
X135000000Y-204810971D03*
X140700000Y-204810971D03*
D12*
X79502000Y-191907800D03*
X83002000Y-191907800D03*
X88802000Y-191907800D03*
X92302000Y-191907800D03*
X92302000Y-189407800D03*
X88802000Y-189407800D03*
X83002000Y-189407800D03*
X79502000Y-189407800D03*
D15*
X155064969Y-179050837D03*
D16*
X139824969Y-179050837D03*
D10*
X126898000Y-166000000D03*
X118898000Y-166000000D03*
X108988000Y-166000000D03*
X118488000Y-174450000D03*
X118488000Y-157550000D03*
D11*
X253000000Y-199300000D03*
X253000000Y-204800000D03*
X242000000Y-199300000D03*
X242000000Y-204800000D03*
D10*
X210500000Y-133500000D03*
X218500000Y-133500000D03*
X228410000Y-133500000D03*
X218910000Y-125050000D03*
X218910000Y-141950000D03*
D15*
X139781310Y-187300526D03*
D16*
X155021310Y-187300526D03*
D17*
X188477745Y-191541655D03*
D18*
X191017745Y-191541655D03*
D12*
X79982133Y-125997556D03*
X83482133Y-125997556D03*
X89282133Y-125997556D03*
X92782133Y-125997556D03*
X92782133Y-123497556D03*
X89282133Y-123497556D03*
X83482133Y-123497556D03*
X79982133Y-123497556D03*
X80000000Y-165288600D03*
X83500000Y-165288600D03*
X89300000Y-165288600D03*
X92800000Y-165288600D03*
X92800000Y-162788600D03*
X89300000Y-162788600D03*
X83500000Y-162788600D03*
X80000000Y-162788600D03*
D10*
X127000000Y-134000000D03*
X119000000Y-134000000D03*
X109090000Y-134000000D03*
X118590000Y-142450000D03*
X118590000Y-125550000D03*
D11*
X106457640Y-199300000D03*
X106457640Y-204800000D03*
D12*
X80000000Y-152184337D03*
X83500000Y-152184337D03*
X89300000Y-152184337D03*
X92800000Y-152184337D03*
X92800000Y-149684337D03*
X89300000Y-149684337D03*
X83500000Y-149684337D03*
X80000000Y-149684337D03*
X142668200Y-140574400D03*
X146168200Y-140574400D03*
X151968200Y-140574400D03*
X155468200Y-140574400D03*
X155468200Y-138074400D03*
X151968200Y-138074400D03*
X146168200Y-138074400D03*
X142668200Y-138074400D03*
D13*
X196588356Y-191370446D03*
D14*
X194048356Y-191370446D03*
D11*
X179707413Y-199217042D03*
X185407413Y-199217042D03*
X179707413Y-204717042D03*
X185407413Y-204717042D03*
X117779174Y-199339600D03*
X123479174Y-199339600D03*
X117779174Y-204839600D03*
X123479174Y-204839600D03*
D10*
X192000000Y-142346365D03*
X184000000Y-142346365D03*
X174090000Y-142346365D03*
X183590000Y-150796365D03*
X183590000Y-133896365D03*
D15*
X155000000Y-163830000D03*
D16*
X139760000Y-163830000D03*
D11*
X90000000Y-199351000D03*
X95700000Y-199351000D03*
X90000000Y-204851000D03*
X95700000Y-204851000D03*
D10*
X247000000Y-133500000D03*
X255000000Y-133500000D03*
X264910000Y-133500000D03*
X255410000Y-125050000D03*
X255410000Y-141950000D03*
D11*
X264000000Y-199300000D03*
X264000000Y-204800000D03*
D17*
X188452600Y-186713913D03*
D18*
X190992600Y-186713913D03*
D11*
X225150000Y-199300000D03*
X230850000Y-199300000D03*
X225150000Y-204800000D03*
X230850000Y-204800000D03*
D10*
X210500000Y-166000000D03*
X218500000Y-166000000D03*
X228410000Y-166000000D03*
X218910000Y-157550000D03*
X218910000Y-174450000D03*
D12*
X80000000Y-178598200D03*
X83500000Y-178598200D03*
X89300000Y-178598200D03*
X92800000Y-178598200D03*
X92800000Y-176098200D03*
X89300000Y-176098200D03*
X83500000Y-176098200D03*
X80000000Y-176098200D03*
X142744400Y-126858400D03*
X146244400Y-126858400D03*
X152044400Y-126858400D03*
X155544400Y-126858400D03*
X155544400Y-124358400D03*
X152044400Y-124358400D03*
X146244400Y-124358400D03*
X142744400Y-124358400D03*
X120000000Y-187000000D03*
X116500000Y-187000000D03*
X110700000Y-187000000D03*
X107200000Y-187000000D03*
X107200000Y-189500000D03*
X110700000Y-189500000D03*
X116500000Y-189500000D03*
X120000000Y-189500000D03*
X142744400Y-154283600D03*
X146244400Y-154283600D03*
X152044400Y-154283600D03*
X155544400Y-154283600D03*
X155544400Y-151783600D03*
X152044400Y-151783600D03*
X146244400Y-151783600D03*
X142744400Y-151783600D03*
D11*
X197150000Y-199300000D03*
X202850000Y-199300000D03*
X197150000Y-204800000D03*
X202850000Y-204800000D03*
D19*
X135000000Y-192400500D03*
D20*
X163836627Y-196000000D02*
X221850000Y-196000000D01*
X155021310Y-187300526D02*
X155137153Y-187300526D01*
X221850000Y-196000000D02*
X225150000Y-199300000D01*
X155137153Y-187300526D02*
X163836627Y-196000000D01*
D21*
X159830000Y-159000000D02*
X155000000Y-163830000D01*
X264500000Y-166000000D02*
X260500000Y-162000000D01*
X182224333Y-161224333D02*
X180000000Y-159000000D01*
X180000000Y-159000000D02*
X159830000Y-159000000D01*
X126953344Y-174555000D02*
X118593000Y-174555000D01*
X139698870Y-187300526D02*
X126953344Y-174555000D01*
X264910000Y-166000000D02*
X264500000Y-166000000D01*
X139781310Y-187300526D02*
X139698870Y-187300526D01*
X182224333Y-161587615D02*
X182224333Y-161224333D01*
X118593000Y-174555000D02*
X118488000Y-174450000D01*
X260500000Y-162000000D02*
X182636718Y-162000000D01*
X182636718Y-162000000D02*
X182224333Y-161587615D01*
D20*
X177000000Y-201924455D02*
X179707413Y-199217042D01*
X225150000Y-204800000D02*
X225115166Y-204800000D01*
X228000000Y-197000000D02*
X228000000Y-202000000D01*
X177000000Y-211000000D02*
X177000000Y-201924455D01*
X223000000Y-192000000D02*
X228000000Y-197000000D01*
X218500000Y-166000000D02*
X223000000Y-170500000D01*
X225200000Y-204800000D02*
X225150000Y-204800000D01*
X228000000Y-202000000D02*
X225200000Y-204800000D01*
X223000000Y-170500000D02*
X223000000Y-192000000D01*
X181000000Y-215000000D02*
X177000000Y-211000000D01*
X214915166Y-215000000D02*
X181000000Y-215000000D01*
X225115166Y-204800000D02*
X214915166Y-215000000D01*
D22*
X105551000Y-189500000D02*
X95700000Y-199351000D01*
X107200000Y-189500000D02*
X105551000Y-189500000D01*
M02*
