G04 #@! TF.GenerationSoftware,KiCad,Pcbnew,7.0.1-0*
G04 #@! TF.CreationDate,2024-01-25T19:49:42+00:00*
G04 #@! TF.ProjectId,tail-lights,7461696c-2d6c-4696-9768-74732e6b6963,rev?*
G04 #@! TF.SameCoordinates,Original*
G04 #@! TF.FileFunction,Paste,Top*
G04 #@! TF.FilePolarity,Positive*
%FSLAX46Y46*%
G04 Gerber Fmt 4.6, Leading zero omitted, Abs format (unit mm)*
G04 Created by KiCad (PCBNEW 7.0.1-0) date 2024-01-25 19:49:42*
%MOMM*%
%LPD*%
G01*
G04 APERTURE LIST*
G04 Aperture macros list*
%AMRoundRect*
0 Rectangle with rounded corners*
0 $1 Rounding radius*
0 $2 $3 $4 $5 $6 $7 $8 $9 X,Y pos of 4 corners*
0 Add a 4 corners polygon primitive as box body*
4,1,4,$2,$3,$4,$5,$6,$7,$8,$9,$2,$3,0*
0 Add four circle primitives for the rounded corners*
1,1,$1+$1,$2,$3*
1,1,$1+$1,$4,$5*
1,1,$1+$1,$6,$7*
1,1,$1+$1,$8,$9*
0 Add four rect primitives between the rounded corners*
20,1,$1+$1,$2,$3,$4,$5,0*
20,1,$1+$1,$4,$5,$6,$7,0*
20,1,$1+$1,$6,$7,$8,$9,0*
20,1,$1+$1,$8,$9,$2,$3,0*%
%AMRotRect*
0 Rectangle, with rotation*
0 The origin of the aperture is its center*
0 $1 length*
0 $2 width*
0 $3 Rotation angle, in degrees counterclockwise*
0 Add horizontal line*
21,1,$1,$2,0,0,$3*%
G04 Aperture macros list end*
%ADD10R,2.330000X2.380000*%
%ADD11R,1.100000X2.380000*%
%ADD12RoundRect,0.250000X0.450000X-0.262500X0.450000X0.262500X-0.450000X0.262500X-0.450000X-0.262500X0*%
%ADD13RoundRect,0.250000X-0.262500X-0.450000X0.262500X-0.450000X0.262500X0.450000X-0.262500X0.450000X0*%
%ADD14R,1.200000X1.000000*%
%ADD15R,1.200000X3.300000*%
%ADD16RoundRect,0.225000X-0.225000X-0.250000X0.225000X-0.250000X0.225000X0.250000X-0.225000X0.250000X0*%
%ADD17RoundRect,0.225000X0.225000X0.250000X-0.225000X0.250000X-0.225000X-0.250000X0.225000X-0.250000X0*%
%ADD18RoundRect,0.250000X0.262500X0.450000X-0.262500X0.450000X-0.262500X-0.450000X0.262500X-0.450000X0*%
%ADD19RoundRect,0.225000X0.250000X-0.225000X0.250000X0.225000X-0.250000X0.225000X-0.250000X-0.225000X0*%
%ADD20RoundRect,0.250000X-0.250000X-0.475000X0.250000X-0.475000X0.250000X0.475000X-0.250000X0.475000X0*%
%ADD21RotRect,1.200000X1.400000X45.000000*%
%ADD22R,0.450000X1.400000*%
%ADD23R,0.600000X1.500000*%
%ADD24R,1.500000X0.600000*%
%ADD25R,1.600000X5.700000*%
G04 APERTURE END LIST*
D10*
X167200000Y-57600000D03*
D11*
X169415000Y-57600000D03*
D12*
X76662500Y-118912500D03*
X76662500Y-117087500D03*
D13*
X75337500Y-107362500D03*
X77162500Y-107362500D03*
D10*
X85200000Y-40000000D03*
D11*
X87415000Y-40000000D03*
D10*
X48200000Y-110400000D03*
D11*
X50415000Y-110400000D03*
D10*
X39200000Y-128000000D03*
D11*
X41415000Y-128000000D03*
D13*
X70837500Y-107362500D03*
X72662500Y-107362500D03*
D14*
X102968000Y-121426000D03*
X102968000Y-119126000D03*
X102968000Y-116826000D03*
D15*
X96168000Y-119126000D03*
D16*
X121990085Y-83647101D03*
X123540085Y-83647101D03*
D10*
X57200000Y-75200000D03*
D11*
X59415000Y-75200000D03*
D17*
X68275000Y-110112500D03*
X66725000Y-110112500D03*
D10*
X57200000Y-57600000D03*
D11*
X59415000Y-57600000D03*
D10*
X85200000Y-57600000D03*
D11*
X87415000Y-57600000D03*
D10*
X149200000Y-40000000D03*
D11*
X151415000Y-40000000D03*
D10*
X103200000Y-110400000D03*
D11*
X105415000Y-110400000D03*
D10*
X149200000Y-128000000D03*
D11*
X151415000Y-128000000D03*
D10*
X39200000Y-75200000D03*
D11*
X41415000Y-75200000D03*
D10*
X140200000Y-128000000D03*
D11*
X142415000Y-128000000D03*
D10*
X48200000Y-128000000D03*
D11*
X50415000Y-128000000D03*
D12*
X69912500Y-118912500D03*
X69912500Y-117087500D03*
D10*
X167200000Y-110400000D03*
D11*
X169415000Y-110400000D03*
D16*
X129429000Y-47000000D03*
X130979000Y-47000000D03*
D13*
X68837500Y-53200000D03*
X70662500Y-53200000D03*
D10*
X103200000Y-57600000D03*
D11*
X105415000Y-57600000D03*
D10*
X149200000Y-57600000D03*
D11*
X151415000Y-57600000D03*
D10*
X112200000Y-57600000D03*
D11*
X114415000Y-57600000D03*
D10*
X140200000Y-57600000D03*
D11*
X142415000Y-57600000D03*
D10*
X30200000Y-40000000D03*
D11*
X32415000Y-40000000D03*
D10*
X57200000Y-110400000D03*
D11*
X59415000Y-110400000D03*
D10*
X48200000Y-75200000D03*
D11*
X50415000Y-75200000D03*
D10*
X30200000Y-92800000D03*
D11*
X32415000Y-92800000D03*
D10*
X158200000Y-40000000D03*
D11*
X160415000Y-40000000D03*
D18*
X70591161Y-45867832D03*
X68766161Y-45867832D03*
D10*
X48200000Y-92800000D03*
D11*
X50415000Y-92800000D03*
D10*
X149200000Y-92800000D03*
D11*
X151415000Y-92800000D03*
D10*
X149200000Y-110400000D03*
D11*
X151415000Y-110400000D03*
D12*
X73162500Y-118912500D03*
X73162500Y-117087500D03*
D10*
X85200000Y-110400000D03*
D11*
X87415000Y-110400000D03*
D10*
X158200000Y-128000000D03*
D11*
X160415000Y-128000000D03*
D19*
X76250000Y-74025000D03*
X76250000Y-72475000D03*
D10*
X57200000Y-40000000D03*
D11*
X59415000Y-40000000D03*
D10*
X30200000Y-75200000D03*
D11*
X32415000Y-75200000D03*
D10*
X167200000Y-75200000D03*
D11*
X169415000Y-75200000D03*
D10*
X112200000Y-75200000D03*
D11*
X114415000Y-75200000D03*
D10*
X94200000Y-128000000D03*
D11*
X96415000Y-128000000D03*
D10*
X112200000Y-92800000D03*
D11*
X114415000Y-92800000D03*
D10*
X94200000Y-40000000D03*
D11*
X96415000Y-40000000D03*
D10*
X94200000Y-92800000D03*
D11*
X96415000Y-92800000D03*
D20*
X126500000Y-70250000D03*
X128400000Y-70250000D03*
D10*
X39200000Y-57600000D03*
D11*
X41415000Y-57600000D03*
D10*
X48200000Y-57600000D03*
D11*
X50415000Y-57600000D03*
D10*
X149200000Y-75200000D03*
D11*
X151415000Y-75200000D03*
D21*
X75621142Y-97073223D03*
X77176777Y-98628858D03*
X78378858Y-97426777D03*
X76823223Y-95871142D03*
D10*
X140200000Y-110400000D03*
D11*
X142415000Y-110400000D03*
D10*
X158200000Y-57600000D03*
D11*
X160415000Y-57600000D03*
D10*
X85200000Y-128000000D03*
D11*
X87415000Y-128000000D03*
D16*
X70869552Y-110159254D03*
X72419552Y-110159254D03*
D10*
X39200000Y-40000000D03*
D11*
X41415000Y-40000000D03*
D10*
X103200000Y-128000000D03*
D11*
X105415000Y-128000000D03*
D16*
X68975000Y-50950000D03*
X70525000Y-50950000D03*
D10*
X85200000Y-92800000D03*
D11*
X87415000Y-92800000D03*
D12*
X124389334Y-55819952D03*
X124389334Y-53994952D03*
D10*
X30200000Y-128000000D03*
D11*
X32415000Y-128000000D03*
D10*
X30200000Y-57600000D03*
D11*
X32415000Y-57600000D03*
D10*
X112200000Y-40000000D03*
D11*
X114415000Y-40000000D03*
D22*
X130671000Y-49550000D03*
X130021000Y-49550000D03*
X129371000Y-49550000D03*
X128721000Y-49550000D03*
X128721000Y-53950000D03*
X129371000Y-53950000D03*
X130021000Y-53950000D03*
X130671000Y-53950000D03*
D14*
X47850000Y-121426000D03*
X47850000Y-119126000D03*
X47850000Y-116826000D03*
D15*
X41050000Y-119126000D03*
D10*
X94200000Y-110400000D03*
D11*
X96415000Y-110400000D03*
D16*
X75321701Y-110096383D03*
X76871701Y-110096383D03*
D10*
X94200000Y-75200000D03*
D11*
X96415000Y-75200000D03*
D10*
X39200000Y-110400000D03*
D11*
X41415000Y-110400000D03*
D10*
X103200000Y-75200000D03*
D11*
X105415000Y-75200000D03*
D23*
X69450000Y-89000000D03*
X70250000Y-89000000D03*
X71050000Y-89000000D03*
X71850000Y-89000000D03*
X72650000Y-89000000D03*
X73450000Y-89000000D03*
X74250000Y-89000000D03*
X75050000Y-89000000D03*
D24*
X76500000Y-87550000D03*
X76500000Y-86750000D03*
X76500000Y-85950000D03*
X76500000Y-85150000D03*
X76500000Y-84350000D03*
X76500000Y-83550000D03*
X76500000Y-82750000D03*
X76500000Y-81950000D03*
D23*
X75050000Y-80500000D03*
X74250000Y-80500000D03*
X73450000Y-80500000D03*
X72650000Y-80500000D03*
X71850000Y-80500000D03*
X71050000Y-80500000D03*
X70250000Y-80500000D03*
X69450000Y-80500000D03*
D24*
X68000000Y-81950000D03*
X68000000Y-82750000D03*
X68000000Y-83550000D03*
X68000000Y-84350000D03*
X68000000Y-85150000D03*
X68000000Y-85950000D03*
X68000000Y-86750000D03*
X68000000Y-87550000D03*
D10*
X158200000Y-110400000D03*
D11*
X160415000Y-110400000D03*
D10*
X158200000Y-92800000D03*
D11*
X160415000Y-92800000D03*
D10*
X48200000Y-40000000D03*
D11*
X50415000Y-40000000D03*
D10*
X39200000Y-92800000D03*
D11*
X41415000Y-92800000D03*
D10*
X158200000Y-75200000D03*
D11*
X160415000Y-75200000D03*
D18*
X70591161Y-48367832D03*
X68766161Y-48367832D03*
D10*
X112200000Y-110400000D03*
D11*
X114415000Y-110400000D03*
D10*
X167200000Y-128000000D03*
D11*
X169415000Y-128000000D03*
D10*
X103200000Y-92800000D03*
D11*
X105415000Y-92800000D03*
D10*
X140200000Y-92800000D03*
D11*
X142415000Y-92800000D03*
D13*
X128837500Y-57750000D03*
X130662500Y-57750000D03*
D12*
X124362000Y-51412500D03*
X124362000Y-49587500D03*
D10*
X103200000Y-40000000D03*
D11*
X105415000Y-40000000D03*
D10*
X94200000Y-57600000D03*
D11*
X96415000Y-57600000D03*
D14*
X157832000Y-121426000D03*
X157832000Y-119126000D03*
X157832000Y-116826000D03*
D15*
X151032000Y-119126000D03*
D10*
X140200000Y-75200000D03*
D11*
X142415000Y-75200000D03*
D10*
X57200000Y-92800000D03*
D11*
X59415000Y-92800000D03*
D10*
X85200000Y-75200000D03*
D11*
X87415000Y-75200000D03*
D18*
X68220826Y-107351602D03*
X66395826Y-107351602D03*
D10*
X140200000Y-40000000D03*
D11*
X142415000Y-40000000D03*
D10*
X57200000Y-128000000D03*
D11*
X59415000Y-128000000D03*
D10*
X30200000Y-110400000D03*
D11*
X32415000Y-110400000D03*
D25*
X131100000Y-63000000D03*
X126400000Y-63000000D03*
D10*
X167200000Y-40000000D03*
D11*
X169415000Y-40000000D03*
D10*
X112200000Y-128000000D03*
D11*
X114415000Y-128000000D03*
D10*
X167200000Y-92800000D03*
D11*
X169415000Y-92800000D03*
M02*
