G04 #@! TF.GenerationSoftware,KiCad,Pcbnew,7.0.1-0*
G04 #@! TF.CreationDate,2024-01-25T19:49:42+00:00*
G04 #@! TF.ProjectId,tail-lights,7461696c-2d6c-4696-9768-74732e6b6963,rev?*
G04 #@! TF.SameCoordinates,Original*
G04 #@! TF.FileFunction,Copper,L2,Bot*
G04 #@! TF.FilePolarity,Positive*
%FSLAX46Y46*%
G04 Gerber Fmt 4.6, Leading zero omitted, Abs format (unit mm)*
G04 Created by KiCad (PCBNEW 7.0.1-0) date 2024-01-25 19:49:42*
%MOMM*%
%LPD*%
G01*
G04 APERTURE LIST*
G04 Aperture macros list*
%AMRoundRect*
0 Rectangle with rounded corners*
0 $1 Rounding radius*
0 $2 $3 $4 $5 $6 $7 $8 $9 X,Y pos of 4 corners*
0 Add a 4 corners polygon primitive as box body*
4,1,4,$2,$3,$4,$5,$6,$7,$8,$9,$2,$3,0*
0 Add four circle primitives for the rounded corners*
1,1,$1+$1,$2,$3*
1,1,$1+$1,$4,$5*
1,1,$1+$1,$6,$7*
1,1,$1+$1,$8,$9*
0 Add four rect primitives between the rounded corners*
20,1,$1+$1,$2,$3,$4,$5,0*
20,1,$1+$1,$4,$5,$6,$7,0*
20,1,$1+$1,$6,$7,$8,$9,0*
20,1,$1+$1,$8,$9,$2,$3,0*%
G04 Aperture macros list end*
G04 #@! TA.AperFunction,ComponentPad*
%ADD10R,1.700000X1.700000*%
G04 #@! TD*
G04 #@! TA.AperFunction,ComponentPad*
%ADD11R,1.980000X1.980000*%
G04 #@! TD*
G04 #@! TA.AperFunction,ComponentPad*
%ADD12C,1.980000*%
G04 #@! TD*
G04 #@! TA.AperFunction,ComponentPad*
%ADD13O,1.700000X1.700000*%
G04 #@! TD*
G04 #@! TA.AperFunction,ComponentPad*
%ADD14RoundRect,0.250000X-1.125000X-1.125000X1.125000X-1.125000X1.125000X1.125000X-1.125000X1.125000X0*%
G04 #@! TD*
G04 #@! TA.AperFunction,ComponentPad*
%ADD15C,5.000000*%
G04 #@! TD*
G04 #@! TA.AperFunction,ViaPad*
%ADD16C,0.250000*%
G04 #@! TD*
G04 #@! TA.AperFunction,ViaPad*
%ADD17C,1.000000*%
G04 #@! TD*
G04 #@! TA.AperFunction,Conductor*
%ADD18C,0.250000*%
G04 #@! TD*
G04 APERTURE END LIST*
D10*
X66250000Y-69500000D03*
X79000000Y-67750000D03*
D11*
X59250000Y-33500000D03*
D12*
X56700000Y-33500000D03*
X54150000Y-33500000D03*
D10*
X68162500Y-128750000D03*
D13*
X70702500Y-128750000D03*
X73242500Y-128750000D03*
X75782500Y-128750000D03*
D10*
X71750000Y-68250000D03*
X71750000Y-73250000D03*
D14*
X128000000Y-34750000D03*
D15*
X44000000Y-137000000D03*
D10*
X66250000Y-74500000D03*
X79000000Y-62000000D03*
X127000000Y-93790000D03*
D13*
X127000000Y-91250000D03*
X127000000Y-88710000D03*
X127000000Y-86170000D03*
X127000000Y-83630000D03*
X127000000Y-81090000D03*
D10*
X66250000Y-59500000D03*
D15*
X154000000Y-31000000D03*
D10*
X74000000Y-38250000D03*
D13*
X74000000Y-40790000D03*
X74000000Y-43330000D03*
X74000000Y-45870000D03*
X74000000Y-48410000D03*
X74000000Y-50950000D03*
D10*
X79000000Y-56250000D03*
D15*
X44000000Y-31000000D03*
D10*
X66250000Y-64500000D03*
D14*
X128000000Y-39000000D03*
D15*
X154000000Y-137000000D03*
D11*
X145050000Y-33500000D03*
D12*
X142500000Y-33500000D03*
X139950000Y-33500000D03*
D10*
X71750000Y-58250000D03*
X71750000Y-63250000D03*
D11*
X102250000Y-33500000D03*
D12*
X99700000Y-33500000D03*
X97150000Y-33500000D03*
D16*
X79000000Y-104500000D03*
X50800000Y-121412000D03*
X78000000Y-86750000D03*
X89750000Y-114500000D03*
X79250000Y-84354365D03*
X145500000Y-114500000D03*
D17*
X75500000Y-71000000D03*
X99500000Y-67000000D03*
X99500000Y-48500000D03*
X71885251Y-92042911D03*
X78750000Y-78000000D03*
X154750000Y-65750000D03*
X126500000Y-57750000D03*
X44500000Y-66250000D03*
X70250000Y-84500000D03*
X154500000Y-48750000D03*
X35500000Y-119250000D03*
X67500000Y-92042911D03*
X155000000Y-83250000D03*
X154750000Y-101500000D03*
X75750000Y-92042911D03*
X44500000Y-83500000D03*
X44500000Y-48500000D03*
X99250000Y-84250000D03*
X145500000Y-119000000D03*
X99750000Y-102000000D03*
X44500000Y-102000000D03*
X90750000Y-119500000D03*
X73662500Y-113112500D03*
D16*
X119500000Y-77500000D03*
X66755579Y-50949780D03*
D17*
X74250000Y-83950000D03*
D16*
X117750000Y-54250000D03*
X63199500Y-52000000D03*
X63212086Y-50349601D03*
X80049579Y-81049579D03*
X78200511Y-81957934D03*
X78250000Y-80500000D03*
D18*
X79000000Y-104500000D02*
X62086005Y-121413995D01*
X50801995Y-121413995D02*
X50800000Y-121412000D01*
X62086005Y-121413995D02*
X50801995Y-121413995D01*
X82000000Y-106750000D02*
X82000000Y-90750000D01*
X89750000Y-114500000D02*
X82000000Y-106750000D01*
X82000000Y-90750000D02*
X78000000Y-86750000D01*
X109419591Y-114500000D02*
X145500000Y-114500000D01*
X79250000Y-84354365D02*
X79273956Y-84354365D01*
X79273956Y-84354365D02*
X109419591Y-114500000D01*
X117250000Y-51250000D02*
X93750000Y-51250000D01*
X93750000Y-51250000D02*
X76750000Y-34250000D01*
X119500000Y-53500000D02*
X117250000Y-51250000D01*
X76750000Y-34250000D02*
X70500000Y-34250000D01*
X70500000Y-34250000D02*
X66755579Y-37994421D01*
X66755579Y-37994421D02*
X66755579Y-50949780D01*
X119500000Y-77500000D02*
X119500000Y-53500000D01*
X117000000Y-53500000D02*
X81750000Y-53500000D01*
X81750000Y-71250000D02*
X81750000Y-51080000D01*
X74250000Y-83950000D02*
X74250000Y-78750000D01*
X81750000Y-51080000D02*
X74000000Y-43330000D01*
X74250000Y-78750000D02*
X81750000Y-71250000D01*
X81750000Y-53500000D02*
X81750000Y-51080000D01*
X117750000Y-54250000D02*
X117000000Y-53500000D01*
X63199500Y-52000000D02*
X63212086Y-51987414D01*
X63212086Y-51987414D02*
X63212086Y-50349601D01*
X80049579Y-81049579D02*
X106549579Y-81049579D01*
X111670000Y-86170000D02*
X127000000Y-86170000D01*
X106549579Y-81049579D02*
X111670000Y-86170000D01*
X120280000Y-87070000D02*
X127000000Y-93790000D01*
X106176787Y-81949579D02*
X111297208Y-87070000D01*
X111297208Y-87070000D02*
X120280000Y-87070000D01*
X78200511Y-81957934D02*
X78208866Y-81949579D01*
X78208866Y-81949579D02*
X106176787Y-81949579D01*
X122556396Y-88710000D02*
X127000000Y-88710000D01*
X111483604Y-86620000D02*
X120466396Y-86620000D01*
X79249579Y-81499579D02*
X106363183Y-81499579D01*
X78250000Y-80500000D02*
X79249579Y-81499579D01*
X106363183Y-81499579D02*
X111483604Y-86620000D01*
X120466396Y-86620000D02*
X122556396Y-88710000D01*
G04 #@! TA.AperFunction,Conductor*
G36*
X171896000Y-26940613D02*
G01*
X171941387Y-26986000D01*
X171958000Y-27048000D01*
X171958000Y-141608000D01*
X171941387Y-141670000D01*
X171896000Y-141715387D01*
X171834000Y-141732000D01*
X27302000Y-141732000D01*
X27240000Y-141715387D01*
X27194613Y-141670000D01*
X27178000Y-141608000D01*
X27178000Y-139290733D01*
X42062818Y-139290733D01*
X42205489Y-139410448D01*
X42497464Y-139602482D01*
X42809744Y-139759316D01*
X43138128Y-139878837D01*
X43478171Y-139959429D01*
X43825274Y-140000000D01*
X44174726Y-140000000D01*
X44521828Y-139959429D01*
X44861871Y-139878837D01*
X45190255Y-139759316D01*
X45502535Y-139602482D01*
X45794515Y-139410445D01*
X45937180Y-139290734D01*
X45937181Y-139290733D01*
X152062818Y-139290733D01*
X152205489Y-139410448D01*
X152497464Y-139602482D01*
X152809744Y-139759316D01*
X153138128Y-139878837D01*
X153478171Y-139959429D01*
X153825274Y-140000000D01*
X154174726Y-140000000D01*
X154521828Y-139959429D01*
X154861871Y-139878837D01*
X155190255Y-139759316D01*
X155502535Y-139602482D01*
X155794515Y-139410445D01*
X155937180Y-139290734D01*
X155937181Y-139290733D01*
X154000000Y-137353553D01*
X152062818Y-139290733D01*
X45937181Y-139290733D01*
X44000000Y-137353553D01*
X42062818Y-139290733D01*
X27178000Y-139290733D01*
X27178000Y-137000000D01*
X40994915Y-137000000D01*
X41015235Y-137348869D01*
X41075916Y-137693014D01*
X41176146Y-138027799D01*
X41314560Y-138348681D01*
X41489288Y-138651320D01*
X41697971Y-138931630D01*
X41706147Y-138940297D01*
X41706149Y-138940298D01*
X43646447Y-137000001D01*
X43646447Y-137000000D01*
X44353553Y-137000000D01*
X46293851Y-138940298D01*
X46302026Y-138931632D01*
X46510711Y-138651320D01*
X46685439Y-138348681D01*
X46823853Y-138027799D01*
X46924083Y-137693014D01*
X46984764Y-137348869D01*
X47005084Y-136999999D01*
X150994915Y-136999999D01*
X151015235Y-137348869D01*
X151075916Y-137693014D01*
X151176146Y-138027799D01*
X151314560Y-138348681D01*
X151489288Y-138651320D01*
X151697971Y-138931630D01*
X151706147Y-138940297D01*
X151706149Y-138940298D01*
X153646447Y-137000001D01*
X154353553Y-137000001D01*
X156293850Y-138940298D01*
X156293851Y-138940298D01*
X156302026Y-138931632D01*
X156510711Y-138651320D01*
X156685439Y-138348681D01*
X156823853Y-138027799D01*
X156924083Y-137693014D01*
X156984764Y-137348869D01*
X157005084Y-136999999D01*
X156984764Y-136651130D01*
X156924083Y-136306985D01*
X156823853Y-135972200D01*
X156685439Y-135651318D01*
X156510711Y-135348679D01*
X156302027Y-135068369D01*
X156293850Y-135059701D01*
X156293850Y-135059700D01*
X154353553Y-137000000D01*
X154353553Y-137000001D01*
X153646447Y-137000001D01*
X153646447Y-137000000D01*
X151706148Y-135059701D01*
X151706146Y-135059701D01*
X151697974Y-135068365D01*
X151489288Y-135348679D01*
X151314560Y-135651318D01*
X151176146Y-135972200D01*
X151075916Y-136306985D01*
X151015235Y-136651130D01*
X150994915Y-136999999D01*
X47005084Y-136999999D01*
X46984764Y-136651130D01*
X46924083Y-136306985D01*
X46823853Y-135972200D01*
X46685439Y-135651318D01*
X46510711Y-135348679D01*
X46302027Y-135068369D01*
X46293850Y-135059701D01*
X46293850Y-135059700D01*
X44353553Y-137000000D01*
X43646447Y-137000000D01*
X41706148Y-135059701D01*
X41706146Y-135059701D01*
X41697974Y-135068365D01*
X41489288Y-135348679D01*
X41314560Y-135651318D01*
X41176146Y-135972200D01*
X41075916Y-136306985D01*
X41015235Y-136651130D01*
X40994915Y-137000000D01*
X27178000Y-137000000D01*
X27178000Y-134709264D01*
X42062817Y-134709264D01*
X44000000Y-136646447D01*
X44000001Y-136646447D01*
X45937180Y-134709265D01*
X45937179Y-134709264D01*
X152062817Y-134709264D01*
X154000000Y-136646447D01*
X154000001Y-136646447D01*
X155937180Y-134709265D01*
X155794510Y-134589551D01*
X155502535Y-134397517D01*
X155190255Y-134240683D01*
X154861871Y-134121162D01*
X154521828Y-134040570D01*
X154174726Y-134000000D01*
X153825274Y-134000000D01*
X153478171Y-134040570D01*
X153138128Y-134121162D01*
X152809744Y-134240683D01*
X152497464Y-134397517D01*
X152205484Y-134589554D01*
X152062817Y-134709264D01*
X45937179Y-134709264D01*
X45794510Y-134589551D01*
X45502535Y-134397517D01*
X45190255Y-134240683D01*
X44861871Y-134121162D01*
X44521828Y-134040570D01*
X44174726Y-134000000D01*
X43825274Y-134000000D01*
X43478171Y-134040570D01*
X43138128Y-134121162D01*
X42809744Y-134240683D01*
X42497464Y-134397517D01*
X42205484Y-134589554D01*
X42062817Y-134709264D01*
X27178000Y-134709264D01*
X27178000Y-129000000D01*
X66812500Y-129000000D01*
X66812500Y-129647824D01*
X66818902Y-129707375D01*
X66869147Y-129842089D01*
X66955311Y-129957188D01*
X67070410Y-130043352D01*
X67205124Y-130093597D01*
X67264676Y-130100000D01*
X67912500Y-130100000D01*
X68412500Y-130100000D01*
X69060324Y-130100000D01*
X69119875Y-130093597D01*
X69254589Y-130043352D01*
X69369688Y-129957188D01*
X69455852Y-129842088D01*
X69502180Y-129717878D01*
X69538131Y-129666665D01*
X69594513Y-129639526D01*
X69656967Y-129643374D01*
X69709591Y-129677227D01*
X69737345Y-129707375D01*
X69779260Y-129752906D01*
X69956924Y-129891189D01*
X70154926Y-129998342D01*
X70367865Y-130071444D01*
X70589931Y-130108500D01*
X70815069Y-130108500D01*
X71037135Y-130071444D01*
X71250074Y-129998342D01*
X71448076Y-129891189D01*
X71625740Y-129752906D01*
X71778222Y-129587268D01*
X71868690Y-129448795D01*
X71913482Y-129407561D01*
X71972500Y-129392616D01*
X72031518Y-129407561D01*
X72076309Y-129448795D01*
X72166778Y-129587268D01*
X72319260Y-129752906D01*
X72496924Y-129891189D01*
X72694926Y-129998342D01*
X72907865Y-130071444D01*
X73129931Y-130108500D01*
X73355069Y-130108500D01*
X73577135Y-130071444D01*
X73790074Y-129998342D01*
X73988076Y-129891189D01*
X74165740Y-129752906D01*
X74318222Y-129587268D01*
X74408690Y-129448795D01*
X74453482Y-129407561D01*
X74512500Y-129392616D01*
X74571518Y-129407561D01*
X74616309Y-129448795D01*
X74706778Y-129587268D01*
X74859260Y-129752906D01*
X75036924Y-129891189D01*
X75234926Y-129998342D01*
X75447865Y-130071444D01*
X75669931Y-130108500D01*
X75895069Y-130108500D01*
X76117135Y-130071444D01*
X76330074Y-129998342D01*
X76528076Y-129891189D01*
X76705740Y-129752906D01*
X76858222Y-129587268D01*
X76981360Y-129398791D01*
X77071796Y-129192616D01*
X77127064Y-128974368D01*
X77145656Y-128750000D01*
X77127064Y-128525632D01*
X77071796Y-128307384D01*
X76981360Y-128101209D01*
X76858222Y-127912732D01*
X76705740Y-127747094D01*
X76528076Y-127608811D01*
X76330074Y-127501658D01*
X76330073Y-127501657D01*
X76330072Y-127501657D01*
X76117136Y-127428556D01*
X75895069Y-127391500D01*
X75669931Y-127391500D01*
X75447863Y-127428556D01*
X75234927Y-127501657D01*
X75036924Y-127608811D01*
X74859260Y-127747094D01*
X74706775Y-127912734D01*
X74616307Y-128051205D01*
X74571516Y-128092438D01*
X74512498Y-128107383D01*
X74453481Y-128092437D01*
X74408690Y-128051204D01*
X74318222Y-127912732D01*
X74318220Y-127912730D01*
X74165740Y-127747094D01*
X73988076Y-127608811D01*
X73790074Y-127501658D01*
X73790073Y-127501657D01*
X73790072Y-127501657D01*
X73577136Y-127428556D01*
X73355069Y-127391500D01*
X73129931Y-127391500D01*
X72907863Y-127428556D01*
X72694927Y-127501657D01*
X72496924Y-127608811D01*
X72319260Y-127747094D01*
X72166775Y-127912734D01*
X72076307Y-128051205D01*
X72031516Y-128092438D01*
X71972498Y-128107383D01*
X71913481Y-128092437D01*
X71868690Y-128051204D01*
X71778222Y-127912732D01*
X71778220Y-127912730D01*
X71625740Y-127747094D01*
X71448076Y-127608811D01*
X71250074Y-127501658D01*
X71250073Y-127501657D01*
X71250072Y-127501657D01*
X71037136Y-127428556D01*
X70815069Y-127391500D01*
X70589931Y-127391500D01*
X70367863Y-127428556D01*
X70154927Y-127501657D01*
X69956924Y-127608811D01*
X69779259Y-127747094D01*
X69709590Y-127822773D01*
X69656966Y-127856626D01*
X69594512Y-127860473D01*
X69538131Y-127833335D01*
X69502180Y-127782121D01*
X69455852Y-127657911D01*
X69369688Y-127542811D01*
X69254589Y-127456647D01*
X69119875Y-127406402D01*
X69060324Y-127400000D01*
X68412500Y-127400000D01*
X68412500Y-130100000D01*
X67912500Y-130100000D01*
X67912500Y-129000000D01*
X66812500Y-129000000D01*
X27178000Y-129000000D01*
X27178000Y-128500000D01*
X66812500Y-128500000D01*
X67912500Y-128500000D01*
X67912500Y-127400000D01*
X67264676Y-127400000D01*
X67205124Y-127406402D01*
X67070410Y-127456647D01*
X66955311Y-127542811D01*
X66869147Y-127657910D01*
X66818902Y-127792624D01*
X66812500Y-127852176D01*
X66812500Y-128500000D01*
X27178000Y-128500000D01*
X27178000Y-121411996D01*
X50161846Y-121411996D01*
X50167034Y-121454719D01*
X50167877Y-121465770D01*
X50169326Y-121511889D01*
X50170710Y-121516651D01*
X50172408Y-121526376D01*
X50174005Y-121531291D01*
X50179169Y-121554658D01*
X50180391Y-121564722D01*
X50196951Y-121608388D01*
X50200085Y-121617761D01*
X50213981Y-121665591D01*
X50213982Y-121665593D01*
X50215138Y-121667549D01*
X50221387Y-121681390D01*
X50222699Y-121683456D01*
X50233943Y-121705924D01*
X50234944Y-121708564D01*
X50263554Y-121750013D01*
X50268236Y-121757332D01*
X50295768Y-121803887D01*
X50308764Y-121820107D01*
X50319778Y-121832908D01*
X50322336Y-121835174D01*
X50362801Y-121871023D01*
X50368238Y-121876142D01*
X50382220Y-121890125D01*
X50382224Y-121890128D01*
X50382225Y-121890129D01*
X50385488Y-121892660D01*
X50394364Y-121900240D01*
X50413848Y-121918537D01*
X50428839Y-121932614D01*
X50429043Y-121932758D01*
X50444497Y-121940868D01*
X50462880Y-121952690D01*
X50476954Y-121963608D01*
X50517286Y-121981061D01*
X50517610Y-121981201D01*
X50528093Y-121986336D01*
X50566935Y-122007690D01*
X50586705Y-122012766D01*
X50605110Y-122019066D01*
X50623850Y-122027176D01*
X50667613Y-122034106D01*
X50679040Y-122036473D01*
X50721965Y-122047495D01*
X50742386Y-122047495D01*
X50761783Y-122049021D01*
X50770550Y-122050410D01*
X50781937Y-122052214D01*
X50781937Y-122052213D01*
X50781938Y-122052214D01*
X50826044Y-122048044D01*
X50837713Y-122047495D01*
X62002372Y-122047495D01*
X62023113Y-122049784D01*
X62025910Y-122049696D01*
X62025914Y-122049697D01*
X62094022Y-122047555D01*
X62097918Y-122047495D01*
X62125859Y-122047495D01*
X62125861Y-122047495D01*
X62129961Y-122046976D01*
X62141611Y-122046059D01*
X62185894Y-122044668D01*
X62205503Y-122038970D01*
X62224536Y-122035028D01*
X62244802Y-122032469D01*
X62286011Y-122016152D01*
X62297042Y-122012375D01*
X62339598Y-122000013D01*
X62357165Y-121989623D01*
X62374637Y-121981063D01*
X62393622Y-121973547D01*
X62429480Y-121947493D01*
X62439228Y-121941091D01*
X62477367Y-121918537D01*
X62491805Y-121904098D01*
X62506593Y-121891467D01*
X62523112Y-121879467D01*
X62551364Y-121845314D01*
X62559208Y-121836694D01*
X79431786Y-104964117D01*
X79437206Y-104959015D01*
X79477664Y-104923174D01*
X79509401Y-104877193D01*
X79513456Y-104871654D01*
X79549614Y-104825041D01*
X79550245Y-104823580D01*
X79551860Y-104819852D01*
X79563617Y-104798648D01*
X79565056Y-104796564D01*
X79586163Y-104740904D01*
X79588296Y-104735648D01*
X79613181Y-104678145D01*
X79613486Y-104676213D01*
X79619505Y-104653570D01*
X79619607Y-104652723D01*
X79619609Y-104652720D01*
X79627226Y-104589976D01*
X79627848Y-104585536D01*
X79638220Y-104520057D01*
X79638219Y-104520053D01*
X79638425Y-104518757D01*
X79638623Y-104503877D01*
X79638152Y-104500003D01*
X79638153Y-104500000D01*
X79630092Y-104433621D01*
X79629741Y-104430364D01*
X79623157Y-104360708D01*
X79623155Y-104360703D01*
X79622739Y-104356298D01*
X79622255Y-104354258D01*
X79594617Y-104281382D01*
X79593890Y-104279414D01*
X79568151Y-104207920D01*
X79522886Y-104142342D01*
X79522378Y-104141600D01*
X79478973Y-104077730D01*
X79477948Y-104076826D01*
X79419688Y-104025463D01*
X79419558Y-104025348D01*
X79359604Y-103972233D01*
X79291675Y-103937622D01*
X79290346Y-103936934D01*
X79220092Y-103900063D01*
X79146212Y-103883548D01*
X79143589Y-103882932D01*
X79071475Y-103865157D01*
X79062891Y-103864210D01*
X79060091Y-103864298D01*
X79032765Y-103865157D01*
X78991983Y-103866439D01*
X78988087Y-103866500D01*
X78920768Y-103866500D01*
X78900227Y-103869322D01*
X78900112Y-103869325D01*
X78838224Y-103887306D01*
X78833306Y-103888626D01*
X78773705Y-103903317D01*
X78773077Y-103903647D01*
X78750067Y-103912918D01*
X78746407Y-103913981D01*
X78694079Y-103944927D01*
X78688588Y-103947989D01*
X78637487Y-103974809D01*
X78634191Y-103977730D01*
X78615096Y-103991638D01*
X78608640Y-103995456D01*
X78568235Y-104035860D01*
X78562784Y-104040991D01*
X78522333Y-104076828D01*
X78517738Y-104083485D01*
X78503373Y-104100721D01*
X61859919Y-120744176D01*
X61819691Y-120771056D01*
X61772238Y-120780495D01*
X50900071Y-120780495D01*
X50883640Y-120778500D01*
X50876921Y-120778500D01*
X50859616Y-120778500D01*
X50840217Y-120776973D01*
X50820058Y-120773780D01*
X50820057Y-120773780D01*
X50787318Y-120776874D01*
X50775943Y-120777950D01*
X50764274Y-120778500D01*
X50723079Y-120778500D01*
X50702697Y-120783523D01*
X50684699Y-120786574D01*
X50660707Y-120788842D01*
X50622467Y-120802609D01*
X50610143Y-120806335D01*
X50573708Y-120815315D01*
X50551862Y-120826781D01*
X50536247Y-120833650D01*
X50510110Y-120843060D01*
X50479533Y-120863840D01*
X50467463Y-120871077D01*
X50437490Y-120886808D01*
X50416266Y-120905610D01*
X50403742Y-120915348D01*
X50377728Y-120933027D01*
X50355708Y-120958003D01*
X50344931Y-120968807D01*
X50322335Y-120988827D01*
X50304146Y-121015178D01*
X50295113Y-121026736D01*
X50271879Y-121053089D01*
X50258435Y-121079476D01*
X50250003Y-121093617D01*
X50234944Y-121115434D01*
X50222285Y-121148812D01*
X50216830Y-121161130D01*
X50199215Y-121195703D01*
X50193557Y-121221015D01*
X50188486Y-121237934D01*
X50180389Y-121259282D01*
X50175644Y-121298356D01*
X50173563Y-121310452D01*
X50164297Y-121351908D01*
X50164521Y-121359030D01*
X50164112Y-121364242D01*
X50164601Y-121372028D01*
X50163941Y-121394742D01*
X50161846Y-121411996D01*
X27178000Y-121411996D01*
X27178000Y-86749999D01*
X77361846Y-86749999D01*
X77367034Y-86792719D01*
X77367877Y-86803770D01*
X77369326Y-86849891D01*
X77374507Y-86867723D01*
X77378525Y-86887364D01*
X77380390Y-86902719D01*
X77396951Y-86946388D01*
X77400085Y-86955762D01*
X77413981Y-87003592D01*
X77421560Y-87016407D01*
X77430769Y-87035555D01*
X77434944Y-87046565D01*
X77463554Y-87088013D01*
X77468236Y-87095332D01*
X77495458Y-87141362D01*
X77503372Y-87149276D01*
X77517741Y-87166517D01*
X77522334Y-87173172D01*
X77522335Y-87173173D01*
X77522336Y-87173174D01*
X77562800Y-87209022D01*
X77568237Y-87214141D01*
X81330181Y-90976085D01*
X81357061Y-91016313D01*
X81366500Y-91063766D01*
X81366500Y-106666367D01*
X81364210Y-106687108D01*
X81366439Y-106758017D01*
X81366500Y-106761913D01*
X81366500Y-106789855D01*
X81367018Y-106793956D01*
X81367934Y-106805597D01*
X81369326Y-106849888D01*
X81375022Y-106869492D01*
X81378967Y-106888544D01*
X81381525Y-106908798D01*
X81397838Y-106950001D01*
X81401621Y-106961049D01*
X81413982Y-107003593D01*
X81424374Y-107021166D01*
X81432931Y-107038633D01*
X81440448Y-107057618D01*
X81466491Y-107093463D01*
X81472905Y-107103227D01*
X81495458Y-107141362D01*
X81509890Y-107155794D01*
X81522526Y-107170589D01*
X81534526Y-107187105D01*
X81568667Y-107215349D01*
X81577308Y-107223212D01*
X89253374Y-114899279D01*
X89267739Y-114916514D01*
X89272336Y-114923174D01*
X89300654Y-114948262D01*
X89312773Y-114958998D01*
X89318226Y-114964132D01*
X89330226Y-114976132D01*
X89342184Y-114985407D01*
X89348415Y-114990575D01*
X89387484Y-115025188D01*
X89396281Y-115029805D01*
X89414659Y-115041625D01*
X89421535Y-115046958D01*
X89424959Y-115049614D01*
X89447925Y-115059552D01*
X89472355Y-115070124D01*
X89480736Y-115074130D01*
X89523707Y-115096683D01*
X89536929Y-115099942D01*
X89556502Y-115106537D01*
X89571855Y-115113181D01*
X89581852Y-115114764D01*
X89619245Y-115120687D01*
X89629512Y-115122761D01*
X89673079Y-115133500D01*
X89690384Y-115133500D01*
X89709783Y-115135027D01*
X89729943Y-115138220D01*
X89774056Y-115134050D01*
X89785726Y-115133500D01*
X89826917Y-115133500D01*
X89826921Y-115133500D01*
X89847306Y-115128475D01*
X89865297Y-115125424D01*
X89889292Y-115123157D01*
X89927543Y-115109384D01*
X89939843Y-115105666D01*
X89976292Y-115096683D01*
X89998132Y-115085219D01*
X90013740Y-115078352D01*
X90039889Y-115068939D01*
X90070466Y-115048157D01*
X90082514Y-115040932D01*
X90112512Y-115025190D01*
X90133728Y-115006392D01*
X90146260Y-114996648D01*
X90172271Y-114978972D01*
X90174775Y-114976132D01*
X90194289Y-114953996D01*
X90205060Y-114943199D01*
X90227664Y-114923174D01*
X90245861Y-114896809D01*
X90254877Y-114885272D01*
X90278120Y-114858910D01*
X90291566Y-114832519D01*
X90300000Y-114818375D01*
X90306800Y-114808524D01*
X90315056Y-114796564D01*
X90327713Y-114763188D01*
X90333163Y-114750879D01*
X90350785Y-114716296D01*
X90356444Y-114690975D01*
X90361512Y-114674065D01*
X90369609Y-114652720D01*
X90374353Y-114613644D01*
X90376436Y-114601541D01*
X90377307Y-114597646D01*
X90385702Y-114560091D01*
X90385002Y-114537842D01*
X90385844Y-114519006D01*
X90388153Y-114500000D01*
X90382963Y-114457262D01*
X90382123Y-114446240D01*
X90380673Y-114400110D01*
X90375492Y-114382278D01*
X90371472Y-114362628D01*
X90369609Y-114347280D01*
X90353047Y-114303611D01*
X90349913Y-114294236D01*
X90349402Y-114292476D01*
X90336018Y-114246407D01*
X90328440Y-114233593D01*
X90319228Y-114214438D01*
X90315055Y-114203434D01*
X90286441Y-114161980D01*
X90281774Y-114154685D01*
X90254542Y-114108638D01*
X90246627Y-114100723D01*
X90232259Y-114083482D01*
X90227665Y-114076827D01*
X90187216Y-114040992D01*
X90181762Y-114035858D01*
X82669819Y-106523914D01*
X82642939Y-106483686D01*
X82633500Y-106436233D01*
X82633500Y-90833633D01*
X82635789Y-90812891D01*
X82635701Y-90810094D01*
X82635702Y-90810091D01*
X82633560Y-90741982D01*
X82633500Y-90738087D01*
X82633500Y-90710146D01*
X82632982Y-90706049D01*
X82632064Y-90694390D01*
X82630673Y-90650110D01*
X82624978Y-90630511D01*
X82621033Y-90611462D01*
X82618474Y-90591203D01*
X82602162Y-90550004D01*
X82598377Y-90538950D01*
X82586018Y-90496407D01*
X82583007Y-90491316D01*
X82575624Y-90478831D01*
X82567064Y-90461357D01*
X82559552Y-90442384D01*
X82559552Y-90442383D01*
X82533510Y-90406540D01*
X82527095Y-90396773D01*
X82504544Y-90358639D01*
X82504542Y-90358637D01*
X82490101Y-90344196D01*
X82477469Y-90329405D01*
X82465474Y-90312895D01*
X82465472Y-90312893D01*
X82431324Y-90284643D01*
X82422696Y-90276791D01*
X78496626Y-86350721D01*
X78482255Y-86333477D01*
X78477663Y-86326824D01*
X78437225Y-86291000D01*
X78431770Y-86285865D01*
X78419770Y-86273865D01*
X78407815Y-86264592D01*
X78401587Y-86259427D01*
X78362513Y-86224810D01*
X78353712Y-86220191D01*
X78335343Y-86208377D01*
X78326915Y-86201840D01*
X78325041Y-86200386D01*
X78277639Y-86179873D01*
X78269264Y-86175870D01*
X78261223Y-86171650D01*
X78226292Y-86153317D01*
X78213062Y-86150055D01*
X78193497Y-86143462D01*
X78178144Y-86136818D01*
X78130764Y-86129314D01*
X78120489Y-86127238D01*
X78076922Y-86116500D01*
X78076921Y-86116500D01*
X78059616Y-86116500D01*
X78040217Y-86114973D01*
X78020058Y-86111780D01*
X78020057Y-86111780D01*
X77987318Y-86114874D01*
X77975943Y-86115950D01*
X77964274Y-86116500D01*
X77923079Y-86116500D01*
X77902697Y-86121523D01*
X77884699Y-86124574D01*
X77860707Y-86126842D01*
X77822467Y-86140609D01*
X77810143Y-86144335D01*
X77773708Y-86153315D01*
X77751862Y-86164781D01*
X77736247Y-86171650D01*
X77710110Y-86181060D01*
X77679533Y-86201840D01*
X77667463Y-86209077D01*
X77637490Y-86224808D01*
X77616266Y-86243610D01*
X77603742Y-86253348D01*
X77577728Y-86271027D01*
X77555708Y-86296003D01*
X77544931Y-86306807D01*
X77522335Y-86326827D01*
X77504146Y-86353178D01*
X77495113Y-86364736D01*
X77471879Y-86391089D01*
X77458435Y-86417476D01*
X77450003Y-86431617D01*
X77434944Y-86453434D01*
X77422285Y-86486812D01*
X77416830Y-86499130D01*
X77399215Y-86533703D01*
X77393557Y-86559015D01*
X77388486Y-86575934D01*
X77380389Y-86597282D01*
X77375644Y-86636356D01*
X77373563Y-86648452D01*
X77364297Y-86689906D01*
X77364997Y-86712157D01*
X77364154Y-86730997D01*
X77361846Y-86749999D01*
X27178000Y-86749999D01*
X27178000Y-75398634D01*
X64891500Y-75398634D01*
X64898011Y-75459205D01*
X64949110Y-75596203D01*
X65036738Y-75713261D01*
X65153796Y-75800889D01*
X65290794Y-75851988D01*
X65290797Y-75851988D01*
X65290799Y-75851989D01*
X65351362Y-75858500D01*
X67148634Y-75858500D01*
X67148638Y-75858500D01*
X67209201Y-75851989D01*
X67209203Y-75851988D01*
X67209205Y-75851988D01*
X67287124Y-75822924D01*
X67346204Y-75800889D01*
X67463261Y-75713261D01*
X67550889Y-75596204D01*
X67601989Y-75459201D01*
X67608500Y-75398638D01*
X67608500Y-74148634D01*
X70391500Y-74148634D01*
X70398011Y-74209205D01*
X70449110Y-74346203D01*
X70536738Y-74463261D01*
X70653796Y-74550889D01*
X70790794Y-74601988D01*
X70790797Y-74601988D01*
X70790799Y-74601989D01*
X70851362Y-74608500D01*
X72648634Y-74608500D01*
X72648638Y-74608500D01*
X72709201Y-74601989D01*
X72709203Y-74601988D01*
X72709205Y-74601988D01*
X72787124Y-74572924D01*
X72846204Y-74550889D01*
X72963261Y-74463261D01*
X73050889Y-74346204D01*
X73101989Y-74209201D01*
X73108500Y-74148638D01*
X73108500Y-72351362D01*
X73101989Y-72290799D01*
X73101988Y-72290797D01*
X73101988Y-72290794D01*
X73050889Y-72153796D01*
X72963261Y-72036738D01*
X72846203Y-71949110D01*
X72709205Y-71898011D01*
X72678919Y-71894755D01*
X72648638Y-71891500D01*
X70851362Y-71891500D01*
X70824445Y-71894393D01*
X70790794Y-71898011D01*
X70653796Y-71949110D01*
X70536738Y-72036738D01*
X70449110Y-72153796D01*
X70398011Y-72290794D01*
X70391500Y-72351366D01*
X70391500Y-74148634D01*
X67608500Y-74148634D01*
X67608500Y-73601362D01*
X67601989Y-73540799D01*
X67601988Y-73540797D01*
X67601988Y-73540794D01*
X67550889Y-73403796D01*
X67463261Y-73286738D01*
X67346203Y-73199110D01*
X67209205Y-73148011D01*
X67178919Y-73144755D01*
X67148638Y-73141500D01*
X65351362Y-73141500D01*
X65324445Y-73144393D01*
X65290794Y-73148011D01*
X65153796Y-73199110D01*
X65036738Y-73286738D01*
X64949110Y-73403796D01*
X64898011Y-73540794D01*
X64891500Y-73601366D01*
X64891500Y-75398634D01*
X27178000Y-75398634D01*
X27178000Y-70398634D01*
X64891500Y-70398634D01*
X64898011Y-70459205D01*
X64949110Y-70596203D01*
X65036738Y-70713261D01*
X65153796Y-70800889D01*
X65290794Y-70851988D01*
X65290797Y-70851988D01*
X65290799Y-70851989D01*
X65351362Y-70858500D01*
X67148634Y-70858500D01*
X67148638Y-70858500D01*
X67209201Y-70851989D01*
X67209203Y-70851988D01*
X67209205Y-70851988D01*
X67287124Y-70822924D01*
X67346204Y-70800889D01*
X67463261Y-70713261D01*
X67550889Y-70596204D01*
X67601989Y-70459201D01*
X67608500Y-70398638D01*
X67608500Y-69148634D01*
X70391500Y-69148634D01*
X70398011Y-69209205D01*
X70449110Y-69346203D01*
X70536738Y-69463261D01*
X70653796Y-69550889D01*
X70790794Y-69601988D01*
X70790797Y-69601988D01*
X70790799Y-69601989D01*
X70851362Y-69608500D01*
X72648634Y-69608500D01*
X72648638Y-69608500D01*
X72709201Y-69601989D01*
X72709203Y-69601988D01*
X72709205Y-69601988D01*
X72787124Y-69572924D01*
X72846204Y-69550889D01*
X72963261Y-69463261D01*
X73050889Y-69346204D01*
X73101989Y-69209201D01*
X73108500Y-69148638D01*
X73108500Y-68648634D01*
X77641500Y-68648634D01*
X77648011Y-68709205D01*
X77699110Y-68846203D01*
X77786738Y-68963261D01*
X77903796Y-69050889D01*
X78040794Y-69101988D01*
X78040797Y-69101988D01*
X78040799Y-69101989D01*
X78101362Y-69108500D01*
X79898634Y-69108500D01*
X79898638Y-69108500D01*
X79959201Y-69101989D01*
X79959203Y-69101988D01*
X79959205Y-69101988D01*
X80037124Y-69072924D01*
X80096204Y-69050889D01*
X80213261Y-68963261D01*
X80300889Y-68846204D01*
X80351989Y-68709201D01*
X80358500Y-68648638D01*
X80358500Y-66851362D01*
X80351989Y-66790799D01*
X80351988Y-66790797D01*
X80351988Y-66790794D01*
X80300889Y-66653796D01*
X80213261Y-66536738D01*
X80096203Y-66449110D01*
X79959205Y-66398011D01*
X79928919Y-66394755D01*
X79898638Y-66391500D01*
X78101362Y-66391500D01*
X78074445Y-66394393D01*
X78040794Y-66398011D01*
X77903796Y-66449110D01*
X77786738Y-66536738D01*
X77699110Y-66653796D01*
X77648011Y-66790794D01*
X77641500Y-66851366D01*
X77641500Y-68648634D01*
X73108500Y-68648634D01*
X73108500Y-67351362D01*
X73101989Y-67290799D01*
X73101988Y-67290797D01*
X73101988Y-67290794D01*
X73050889Y-67153796D01*
X72963261Y-67036738D01*
X72846203Y-66949110D01*
X72709205Y-66898011D01*
X72678919Y-66894755D01*
X72648638Y-66891500D01*
X70851362Y-66891500D01*
X70824445Y-66894393D01*
X70790794Y-66898011D01*
X70653796Y-66949110D01*
X70536738Y-67036738D01*
X70449110Y-67153796D01*
X70398011Y-67290794D01*
X70391500Y-67351366D01*
X70391500Y-69148634D01*
X67608500Y-69148634D01*
X67608500Y-68601362D01*
X67601989Y-68540799D01*
X67601988Y-68540797D01*
X67601988Y-68540794D01*
X67550889Y-68403796D01*
X67463261Y-68286738D01*
X67346203Y-68199110D01*
X67209205Y-68148011D01*
X67178919Y-68144755D01*
X67148638Y-68141500D01*
X65351362Y-68141500D01*
X65324445Y-68144393D01*
X65290794Y-68148011D01*
X65153796Y-68199110D01*
X65036738Y-68286738D01*
X64949110Y-68403796D01*
X64898011Y-68540794D01*
X64891500Y-68601366D01*
X64891500Y-70398634D01*
X27178000Y-70398634D01*
X27178000Y-65398634D01*
X64891500Y-65398634D01*
X64898011Y-65459205D01*
X64949110Y-65596203D01*
X65036738Y-65713261D01*
X65153796Y-65800889D01*
X65290794Y-65851988D01*
X65290797Y-65851988D01*
X65290799Y-65851989D01*
X65351362Y-65858500D01*
X67148634Y-65858500D01*
X67148638Y-65858500D01*
X67209201Y-65851989D01*
X67209203Y-65851988D01*
X67209205Y-65851988D01*
X67287124Y-65822924D01*
X67346204Y-65800889D01*
X67463261Y-65713261D01*
X67550889Y-65596204D01*
X67601989Y-65459201D01*
X67608500Y-65398638D01*
X67608500Y-64148634D01*
X70391500Y-64148634D01*
X70398011Y-64209205D01*
X70449110Y-64346203D01*
X70536738Y-64463261D01*
X70653796Y-64550889D01*
X70790794Y-64601988D01*
X70790797Y-64601988D01*
X70790799Y-64601989D01*
X70851362Y-64608500D01*
X72648634Y-64608500D01*
X72648638Y-64608500D01*
X72709201Y-64601989D01*
X72709203Y-64601988D01*
X72709205Y-64601988D01*
X72787124Y-64572924D01*
X72846204Y-64550889D01*
X72963261Y-64463261D01*
X73050889Y-64346204D01*
X73101989Y-64209201D01*
X73108500Y-64148638D01*
X73108500Y-62898634D01*
X77641500Y-62898634D01*
X77648011Y-62959205D01*
X77699110Y-63096203D01*
X77786738Y-63213261D01*
X77903796Y-63300889D01*
X78040794Y-63351988D01*
X78040797Y-63351988D01*
X78040799Y-63351989D01*
X78101362Y-63358500D01*
X79898634Y-63358500D01*
X79898638Y-63358500D01*
X79959201Y-63351989D01*
X79959203Y-63351988D01*
X79959205Y-63351988D01*
X80037124Y-63322924D01*
X80096204Y-63300889D01*
X80213261Y-63213261D01*
X80300889Y-63096204D01*
X80351989Y-62959201D01*
X80358500Y-62898638D01*
X80358500Y-61101362D01*
X80351989Y-61040799D01*
X80351988Y-61040797D01*
X80351988Y-61040794D01*
X80300889Y-60903796D01*
X80213261Y-60786738D01*
X80096203Y-60699110D01*
X79959205Y-60648011D01*
X79928919Y-60644755D01*
X79898638Y-60641500D01*
X78101362Y-60641500D01*
X78074445Y-60644393D01*
X78040794Y-60648011D01*
X77903796Y-60699110D01*
X77786738Y-60786738D01*
X77699110Y-60903796D01*
X77648011Y-61040794D01*
X77641500Y-61101366D01*
X77641500Y-62898634D01*
X73108500Y-62898634D01*
X73108500Y-62351362D01*
X73101989Y-62290799D01*
X73101988Y-62290797D01*
X73101988Y-62290794D01*
X73050889Y-62153796D01*
X72963261Y-62036738D01*
X72846203Y-61949110D01*
X72709205Y-61898011D01*
X72678919Y-61894755D01*
X72648638Y-61891500D01*
X70851362Y-61891500D01*
X70824445Y-61894393D01*
X70790794Y-61898011D01*
X70653796Y-61949110D01*
X70536738Y-62036738D01*
X70449110Y-62153796D01*
X70398011Y-62290794D01*
X70391500Y-62351366D01*
X70391500Y-64148634D01*
X67608500Y-64148634D01*
X67608500Y-63601362D01*
X67601989Y-63540799D01*
X67601988Y-63540797D01*
X67601988Y-63540794D01*
X67550889Y-63403796D01*
X67463261Y-63286738D01*
X67346203Y-63199110D01*
X67209205Y-63148011D01*
X67178919Y-63144755D01*
X67148638Y-63141500D01*
X65351362Y-63141500D01*
X65324445Y-63144393D01*
X65290794Y-63148011D01*
X65153796Y-63199110D01*
X65036738Y-63286738D01*
X64949110Y-63403796D01*
X64898011Y-63540794D01*
X64891500Y-63601366D01*
X64891500Y-65398634D01*
X27178000Y-65398634D01*
X27178000Y-60398634D01*
X64891500Y-60398634D01*
X64898011Y-60459205D01*
X64949110Y-60596203D01*
X65036738Y-60713261D01*
X65153796Y-60800889D01*
X65290794Y-60851988D01*
X65290797Y-60851988D01*
X65290799Y-60851989D01*
X65351362Y-60858500D01*
X67148634Y-60858500D01*
X67148638Y-60858500D01*
X67209201Y-60851989D01*
X67209203Y-60851988D01*
X67209205Y-60851988D01*
X67287124Y-60822924D01*
X67346204Y-60800889D01*
X67463261Y-60713261D01*
X67550889Y-60596204D01*
X67601989Y-60459201D01*
X67608500Y-60398638D01*
X67608500Y-59148634D01*
X70391500Y-59148634D01*
X70398011Y-59209205D01*
X70449110Y-59346203D01*
X70536738Y-59463261D01*
X70653796Y-59550889D01*
X70790794Y-59601988D01*
X70790797Y-59601988D01*
X70790799Y-59601989D01*
X70851362Y-59608500D01*
X72648634Y-59608500D01*
X72648638Y-59608500D01*
X72709201Y-59601989D01*
X72709203Y-59601988D01*
X72709205Y-59601988D01*
X72787124Y-59572924D01*
X72846204Y-59550889D01*
X72963261Y-59463261D01*
X73050889Y-59346204D01*
X73101989Y-59209201D01*
X73108500Y-59148638D01*
X73108500Y-57351362D01*
X73101989Y-57290799D01*
X73101988Y-57290797D01*
X73101988Y-57290794D01*
X73050889Y-57153796D01*
X73047025Y-57148634D01*
X77641500Y-57148634D01*
X77648011Y-57209205D01*
X77699110Y-57346203D01*
X77786738Y-57463261D01*
X77903796Y-57550889D01*
X78040794Y-57601988D01*
X78040797Y-57601988D01*
X78040799Y-57601989D01*
X78101362Y-57608500D01*
X79898634Y-57608500D01*
X79898638Y-57608500D01*
X79959201Y-57601989D01*
X79959203Y-57601988D01*
X79959205Y-57601988D01*
X80037124Y-57572924D01*
X80096204Y-57550889D01*
X80213261Y-57463261D01*
X80300889Y-57346204D01*
X80351989Y-57209201D01*
X80358500Y-57148638D01*
X80358500Y-55351362D01*
X80351989Y-55290799D01*
X80351988Y-55290797D01*
X80351988Y-55290794D01*
X80300889Y-55153796D01*
X80213261Y-55036738D01*
X80096203Y-54949110D01*
X79959205Y-54898011D01*
X79928919Y-54894755D01*
X79898638Y-54891500D01*
X78101362Y-54891500D01*
X78074445Y-54894393D01*
X78040794Y-54898011D01*
X77903796Y-54949110D01*
X77786738Y-55036738D01*
X77699110Y-55153796D01*
X77648011Y-55290794D01*
X77641500Y-55351366D01*
X77641500Y-57148634D01*
X73047025Y-57148634D01*
X72963261Y-57036738D01*
X72846203Y-56949110D01*
X72709205Y-56898011D01*
X72678919Y-56894755D01*
X72648638Y-56891500D01*
X70851362Y-56891500D01*
X70824445Y-56894393D01*
X70790794Y-56898011D01*
X70653796Y-56949110D01*
X70536738Y-57036738D01*
X70449110Y-57153796D01*
X70398011Y-57290794D01*
X70391500Y-57351366D01*
X70391500Y-59148634D01*
X67608500Y-59148634D01*
X67608500Y-58601362D01*
X67601989Y-58540799D01*
X67601988Y-58540797D01*
X67601988Y-58540794D01*
X67550889Y-58403796D01*
X67463261Y-58286738D01*
X67346203Y-58199110D01*
X67209205Y-58148011D01*
X67178919Y-58144755D01*
X67148638Y-58141500D01*
X65351362Y-58141500D01*
X65324445Y-58144393D01*
X65290794Y-58148011D01*
X65153796Y-58199110D01*
X65036738Y-58286738D01*
X64949110Y-58403796D01*
X64898011Y-58540794D01*
X64891500Y-58601366D01*
X64891500Y-60398634D01*
X27178000Y-60398634D01*
X27178000Y-51996137D01*
X62560878Y-51996137D01*
X62569402Y-52066349D01*
X62569755Y-52069620D01*
X62576757Y-52143678D01*
X62577253Y-52145765D01*
X62604887Y-52218630D01*
X62605614Y-52220597D01*
X62631350Y-52292082D01*
X62676568Y-52357591D01*
X62677076Y-52358333D01*
X62720527Y-52422271D01*
X62748642Y-52447057D01*
X62779716Y-52474452D01*
X62779899Y-52474699D01*
X62779942Y-52474651D01*
X62833703Y-52522280D01*
X62839896Y-52527766D01*
X62840588Y-52528119D01*
X62840590Y-52528120D01*
X62907911Y-52562421D01*
X62909054Y-52563012D01*
X62973208Y-52596683D01*
X62973209Y-52596683D01*
X62979403Y-52599934D01*
X62983199Y-52600782D01*
X62983204Y-52600785D01*
X63053296Y-52616452D01*
X63055923Y-52617070D01*
X63076712Y-52622194D01*
X63122579Y-52633500D01*
X63122580Y-52633500D01*
X63128021Y-52634841D01*
X63136608Y-52635789D01*
X63139405Y-52635701D01*
X63139409Y-52635702D01*
X63207517Y-52633560D01*
X63211413Y-52633500D01*
X63278743Y-52633500D01*
X63299286Y-52630676D01*
X63299389Y-52630673D01*
X63361311Y-52612681D01*
X63366206Y-52611368D01*
X63425792Y-52596683D01*
X63426402Y-52596362D01*
X63449437Y-52587079D01*
X63453093Y-52586018D01*
X63505436Y-52555061D01*
X63510908Y-52552010D01*
X63562012Y-52525190D01*
X63565298Y-52522278D01*
X63584412Y-52508355D01*
X63590862Y-52504542D01*
X63600897Y-52494506D01*
X63617182Y-52481459D01*
X63619099Y-52479416D01*
X63619104Y-52479414D01*
X63642051Y-52454976D01*
X63650199Y-52447062D01*
X63677164Y-52423174D01*
X63686097Y-52410231D01*
X63690136Y-52404712D01*
X63690768Y-52403897D01*
X63698329Y-52395046D01*
X63728672Y-52362735D01*
X63738508Y-52344841D01*
X63749188Y-52328582D01*
X63761699Y-52312455D01*
X63779297Y-52271786D01*
X63784427Y-52261314D01*
X63805781Y-52222474D01*
X63810858Y-52202696D01*
X63817158Y-52184296D01*
X63825267Y-52165559D01*
X63832198Y-52121790D01*
X63834564Y-52110367D01*
X63845586Y-52067444D01*
X63845586Y-52047030D01*
X63847113Y-52027631D01*
X63847188Y-52027154D01*
X63850306Y-52007471D01*
X63846136Y-51963357D01*
X63845586Y-51951688D01*
X63845586Y-50395423D01*
X63846490Y-50380476D01*
X63850239Y-50349600D01*
X63846490Y-50318726D01*
X63846278Y-50315221D01*
X63840829Y-50272090D01*
X63840755Y-50271495D01*
X63831695Y-50196883D01*
X63831695Y-50196881D01*
X63831694Y-50196878D01*
X63831132Y-50192249D01*
X63817539Y-50157918D01*
X63803090Y-50121426D01*
X63802462Y-50119802D01*
X63774383Y-50045763D01*
X63771638Y-50041986D01*
X63771638Y-50041984D01*
X63729948Y-49984604D01*
X63728280Y-49982250D01*
X63689750Y-49926427D01*
X63689748Y-49926425D01*
X63687063Y-49922535D01*
X63679126Y-49913791D01*
X63625772Y-49869652D01*
X63622586Y-49866924D01*
X63573428Y-49823374D01*
X63555020Y-49811121D01*
X63554229Y-49810466D01*
X63496725Y-49783407D01*
X63491898Y-49781006D01*
X63438380Y-49752918D01*
X63436800Y-49752529D01*
X63413682Y-49744331D01*
X63409403Y-49742317D01*
X63350576Y-49731095D01*
X63344138Y-49729689D01*
X63289007Y-49716101D01*
X63283693Y-49716101D01*
X63260459Y-49713905D01*
X63252179Y-49712325D01*
X63198504Y-49715702D01*
X63196070Y-49715856D01*
X63188285Y-49716101D01*
X63135161Y-49716101D01*
X63126412Y-49718257D01*
X63104532Y-49721614D01*
X63092435Y-49722375D01*
X63042448Y-49738617D01*
X63033808Y-49741082D01*
X62985793Y-49752917D01*
X62974548Y-49758819D01*
X62955247Y-49766951D01*
X62940211Y-49771836D01*
X62898928Y-49798034D01*
X62890118Y-49803130D01*
X62849572Y-49824411D01*
X62837309Y-49835275D01*
X62821532Y-49847151D01*
X62805067Y-49857600D01*
X62774107Y-49890569D01*
X62765947Y-49898496D01*
X62734421Y-49926426D01*
X62723020Y-49942944D01*
X62711367Y-49957382D01*
X62695499Y-49974280D01*
X62675483Y-50010690D01*
X62668872Y-50021391D01*
X62647030Y-50053035D01*
X62638609Y-50075239D01*
X62631333Y-50090998D01*
X62619386Y-50112732D01*
X62618390Y-50114543D01*
X62608968Y-50151236D01*
X62604808Y-50164364D01*
X62592475Y-50196883D01*
X62589169Y-50224110D01*
X62586179Y-50239995D01*
X62578586Y-50269571D01*
X62578586Y-50303779D01*
X62577682Y-50318726D01*
X62573932Y-50349601D01*
X62577682Y-50380476D01*
X62578586Y-50395423D01*
X62578586Y-51850524D01*
X62577682Y-51865473D01*
X62572271Y-51910030D01*
X62571648Y-51914479D01*
X62561076Y-51981227D01*
X62560878Y-51996137D01*
X27178000Y-51996137D01*
X27178000Y-37974362D01*
X66117359Y-37974362D01*
X66121529Y-38018478D01*
X66122079Y-38030147D01*
X66122079Y-50903958D01*
X66121175Y-50918905D01*
X66117425Y-50949780D01*
X66121175Y-50980655D01*
X66121386Y-50984149D01*
X66126848Y-51027393D01*
X66126921Y-51027983D01*
X66136532Y-51107131D01*
X66164533Y-51177854D01*
X66165182Y-51179528D01*
X66193282Y-51253620D01*
X66237687Y-51314738D01*
X66239419Y-51317183D01*
X66280600Y-51376845D01*
X66288537Y-51385589D01*
X66341908Y-51429742D01*
X66345073Y-51432451D01*
X66393067Y-51474970D01*
X66393070Y-51474971D01*
X66394247Y-51476014D01*
X66412645Y-51488260D01*
X66413435Y-51488914D01*
X66470947Y-51515977D01*
X66475774Y-51518378D01*
X66504558Y-51533484D01*
X66529287Y-51546463D01*
X66530858Y-51546850D01*
X66553978Y-51555047D01*
X66558261Y-51557063D01*
X66617115Y-51568289D01*
X66623502Y-51569685D01*
X66678658Y-51583280D01*
X66683972Y-51583280D01*
X66707206Y-51585476D01*
X66715485Y-51587055D01*
X66771594Y-51583524D01*
X66779380Y-51583280D01*
X66832498Y-51583280D01*
X66832500Y-51583280D01*
X66841239Y-51581125D01*
X66863126Y-51577765D01*
X66875229Y-51577005D01*
X66925254Y-51560749D01*
X66933838Y-51558301D01*
X66981871Y-51546463D01*
X66993116Y-51540560D01*
X67012412Y-51532430D01*
X67027454Y-51527544D01*
X67068741Y-51501341D01*
X67077530Y-51496257D01*
X67118091Y-51474970D01*
X67130354Y-51464104D01*
X67146138Y-51452224D01*
X67162597Y-51441780D01*
X67193568Y-51408797D01*
X67201712Y-51400887D01*
X67233243Y-51372954D01*
X67244644Y-51356434D01*
X67256299Y-51341995D01*
X67272165Y-51325101D01*
X67292193Y-51288666D01*
X67298789Y-51277990D01*
X67320635Y-51246344D01*
X67329053Y-51224145D01*
X67336335Y-51208375D01*
X67340125Y-51201480D01*
X67349274Y-51184840D01*
X67358697Y-51148136D01*
X67362852Y-51135024D01*
X67375188Y-51102500D01*
X67378493Y-51075274D01*
X67381485Y-51059384D01*
X67386426Y-51040144D01*
X67389079Y-51029810D01*
X67389079Y-50995602D01*
X67389983Y-50980655D01*
X67393705Y-50950000D01*
X72636843Y-50950000D01*
X72655435Y-51174363D01*
X72655435Y-51174366D01*
X72655436Y-51174368D01*
X72709253Y-51386887D01*
X72710705Y-51392618D01*
X72801138Y-51598788D01*
X72801140Y-51598791D01*
X72924278Y-51787268D01*
X73076760Y-51952906D01*
X73254424Y-52091189D01*
X73452426Y-52198342D01*
X73665365Y-52271444D01*
X73887431Y-52308500D01*
X74112569Y-52308500D01*
X74334635Y-52271444D01*
X74547574Y-52198342D01*
X74745576Y-52091189D01*
X74923240Y-51952906D01*
X75075722Y-51787268D01*
X75198860Y-51598791D01*
X75289296Y-51392616D01*
X75344564Y-51174368D01*
X75363156Y-50950000D01*
X75344564Y-50725632D01*
X75289296Y-50507384D01*
X75198860Y-50301209D01*
X75075722Y-50112732D01*
X74923240Y-49947094D01*
X74745576Y-49808811D01*
X74709067Y-49789053D01*
X74661563Y-49743474D01*
X74644086Y-49680000D01*
X74661563Y-49616526D01*
X74709067Y-49570946D01*
X74745576Y-49551189D01*
X74923240Y-49412906D01*
X75075722Y-49247268D01*
X75198860Y-49058791D01*
X75289296Y-48852616D01*
X75344564Y-48634368D01*
X75363156Y-48410000D01*
X75344564Y-48185632D01*
X75289296Y-47967384D01*
X75198860Y-47761209D01*
X75075722Y-47572732D01*
X74923240Y-47407094D01*
X74745576Y-47268811D01*
X74709067Y-47249053D01*
X74661563Y-47203474D01*
X74644086Y-47140000D01*
X74661563Y-47076526D01*
X74709067Y-47030946D01*
X74745576Y-47011189D01*
X74923240Y-46872906D01*
X75075722Y-46707268D01*
X75198860Y-46518791D01*
X75289296Y-46312616D01*
X75344564Y-46094368D01*
X75362562Y-45877159D01*
X75387503Y-45812257D01*
X75443460Y-45770980D01*
X75512837Y-45766313D01*
X75573819Y-45799723D01*
X81080181Y-51306086D01*
X81107061Y-51346314D01*
X81116500Y-51393767D01*
X81116500Y-53428393D01*
X81114304Y-53451627D01*
X81112724Y-53459906D01*
X81116255Y-53516014D01*
X81116500Y-53523801D01*
X81116500Y-70936234D01*
X81107061Y-70983687D01*
X81080181Y-71023915D01*
X73861180Y-78242913D01*
X73844896Y-78255961D01*
X73796339Y-78307668D01*
X73793633Y-78310461D01*
X73773861Y-78330233D01*
X73771321Y-78333508D01*
X73763752Y-78342369D01*
X73733414Y-78374677D01*
X73723582Y-78392563D01*
X73712901Y-78408823D01*
X73700385Y-78424959D01*
X73682786Y-78465628D01*
X73677648Y-78476117D01*
X73656303Y-78514943D01*
X73651226Y-78534718D01*
X73644925Y-78553123D01*
X73636818Y-78571856D01*
X73629888Y-78615610D01*
X73627520Y-78627046D01*
X73616500Y-78669970D01*
X73616500Y-78690384D01*
X73614973Y-78709783D01*
X73611780Y-78729941D01*
X73615950Y-78774057D01*
X73616500Y-78785726D01*
X73616500Y-83106612D01*
X73604595Y-83159629D01*
X73571165Y-83202465D01*
X73533432Y-83233431D01*
X73407404Y-83386996D01*
X73313761Y-83562192D01*
X73313759Y-83562196D01*
X73293191Y-83630000D01*
X73256091Y-83752301D01*
X73236620Y-83949999D01*
X73256091Y-84147698D01*
X73256092Y-84147701D01*
X73313759Y-84337804D01*
X73353674Y-84412480D01*
X73404240Y-84507084D01*
X73407405Y-84513004D01*
X73533432Y-84666568D01*
X73686996Y-84792595D01*
X73862196Y-84886241D01*
X74052299Y-84943908D01*
X74250000Y-84963380D01*
X74447701Y-84943908D01*
X74637804Y-84886241D01*
X74813004Y-84792595D01*
X74966568Y-84666568D01*
X75092595Y-84513004D01*
X75177390Y-84354364D01*
X78611847Y-84354364D01*
X78618470Y-84408915D01*
X78619129Y-84416074D01*
X78622774Y-84474013D01*
X78624810Y-84480279D01*
X78629972Y-84503638D01*
X78630390Y-84507084D01*
X78651168Y-84561870D01*
X78653157Y-84567522D01*
X78672235Y-84626239D01*
X78673782Y-84628676D01*
X78684851Y-84650795D01*
X78720309Y-84702165D01*
X78722955Y-84706162D01*
X78758322Y-84761891D01*
X78770023Y-84775491D01*
X78821694Y-84821268D01*
X78824349Y-84823689D01*
X78877295Y-84873408D01*
X78881733Y-84876535D01*
X78887488Y-84879555D01*
X78903929Y-84888184D01*
X78933987Y-84910300D01*
X108912503Y-114888817D01*
X108925547Y-114905098D01*
X108927590Y-114907016D01*
X108927591Y-114907018D01*
X108977275Y-114953674D01*
X108980038Y-114956352D01*
X108999821Y-114976135D01*
X109003102Y-114978680D01*
X109011961Y-114986247D01*
X109044270Y-115016586D01*
X109059921Y-115025190D01*
X109062155Y-115026418D01*
X109078416Y-115037099D01*
X109094550Y-115049614D01*
X109135216Y-115067210D01*
X109145703Y-115072348D01*
X109184531Y-115093695D01*
X109204299Y-115098770D01*
X109222710Y-115105073D01*
X109241446Y-115113181D01*
X109285217Y-115120113D01*
X109296632Y-115122477D01*
X109339561Y-115133500D01*
X109359975Y-115133500D01*
X109379374Y-115135027D01*
X109399534Y-115138220D01*
X109443647Y-115134050D01*
X109455317Y-115133500D01*
X145576921Y-115133500D01*
X145608915Y-115125613D01*
X145623016Y-115122994D01*
X145658797Y-115118474D01*
X145685482Y-115107907D01*
X145701440Y-115102807D01*
X145726292Y-115096683D01*
X145758714Y-115079666D01*
X145770682Y-115074176D01*
X145807614Y-115059553D01*
X145807613Y-115059553D01*
X145807617Y-115059552D01*
X145827850Y-115044850D01*
X145843114Y-115035370D01*
X145862512Y-115025190D01*
X145892665Y-114998476D01*
X145901997Y-114990979D01*
X145937107Y-114965472D01*
X145950710Y-114949028D01*
X145964017Y-114935263D01*
X145977664Y-114923174D01*
X146002637Y-114886991D01*
X146009127Y-114878412D01*
X146039133Y-114842144D01*
X146046649Y-114826169D01*
X146056793Y-114808532D01*
X146065056Y-114796564D01*
X146081941Y-114752038D01*
X146085677Y-114743229D01*
X146107283Y-114697318D01*
X146109900Y-114683594D01*
X146115761Y-114662866D01*
X146119609Y-114652720D01*
X146125793Y-114601784D01*
X146127077Y-114593549D01*
X146137275Y-114540094D01*
X146136630Y-114529844D01*
X146137288Y-114507116D01*
X146138153Y-114500000D01*
X146131525Y-114445424D01*
X146130869Y-114438283D01*
X146127225Y-114380352D01*
X146127225Y-114380350D01*
X146125191Y-114374091D01*
X146120027Y-114350728D01*
X146119609Y-114347280D01*
X146098822Y-114292471D01*
X146096844Y-114286849D01*
X146077764Y-114228125D01*
X146076217Y-114225688D01*
X146065151Y-114203574D01*
X146065054Y-114203434D01*
X146029684Y-114152191D01*
X146027062Y-114148233D01*
X145992000Y-114092982D01*
X145991999Y-114092981D01*
X145991675Y-114092470D01*
X145979986Y-114078882D01*
X145928303Y-114033095D01*
X145925648Y-114030673D01*
X145872709Y-113980961D01*
X145868262Y-113977828D01*
X145800866Y-113942456D01*
X145798799Y-113941345D01*
X145735060Y-113906305D01*
X145735057Y-113906304D01*
X145732332Y-113904806D01*
X145726292Y-113903317D01*
X145655142Y-113885780D01*
X145653980Y-113885487D01*
X145580031Y-113866500D01*
X145580030Y-113866500D01*
X109733357Y-113866500D01*
X109685904Y-113857061D01*
X109645676Y-113830181D01*
X79781044Y-83965548D01*
X79768000Y-83949266D01*
X79716304Y-83900721D01*
X79713507Y-83898010D01*
X79693729Y-83878232D01*
X79690451Y-83875689D01*
X79681578Y-83868110D01*
X79649277Y-83837779D01*
X79631389Y-83827945D01*
X79615125Y-83817261D01*
X79598996Y-83804750D01*
X79558333Y-83787154D01*
X79547839Y-83782013D01*
X79509018Y-83760670D01*
X79497342Y-83757672D01*
X79489240Y-83755592D01*
X79470835Y-83749291D01*
X79452101Y-83741184D01*
X79452099Y-83741183D01*
X79452098Y-83741183D01*
X79408339Y-83734252D01*
X79396899Y-83731883D01*
X79353987Y-83720865D01*
X79353986Y-83720865D01*
X79333572Y-83720865D01*
X79314173Y-83719338D01*
X79294014Y-83716145D01*
X79294013Y-83716145D01*
X79261274Y-83719239D01*
X79249899Y-83720315D01*
X79238230Y-83720865D01*
X79173079Y-83720865D01*
X79141096Y-83728747D01*
X79126973Y-83731370D01*
X79091204Y-83735890D01*
X79064519Y-83746455D01*
X79048556Y-83751557D01*
X79023707Y-83757682D01*
X78991286Y-83774697D01*
X78979316Y-83780189D01*
X78942382Y-83794813D01*
X78922149Y-83809513D01*
X78906895Y-83818988D01*
X78887489Y-83829173D01*
X78857326Y-83855894D01*
X78847991Y-83863390D01*
X78812891Y-83888893D01*
X78799287Y-83905336D01*
X78785985Y-83919096D01*
X78772338Y-83931187D01*
X78747369Y-83967361D01*
X78740865Y-83975957D01*
X78710867Y-84012219D01*
X78703348Y-84028197D01*
X78693206Y-84045829D01*
X78684943Y-84057801D01*
X78668056Y-84102324D01*
X78664316Y-84111142D01*
X78642717Y-84157045D01*
X78640097Y-84170775D01*
X78634240Y-84191493D01*
X78630390Y-84201646D01*
X78624207Y-84252558D01*
X78622916Y-84260840D01*
X78612725Y-84314269D01*
X78613370Y-84324529D01*
X78612711Y-84347245D01*
X78611847Y-84354364D01*
X75177390Y-84354364D01*
X75186241Y-84337804D01*
X75243908Y-84147701D01*
X75263380Y-83950000D01*
X75243908Y-83752299D01*
X75186241Y-83562196D01*
X75092595Y-83386996D01*
X74966568Y-83233432D01*
X74928835Y-83202465D01*
X74895405Y-83159629D01*
X74883500Y-83106612D01*
X74883500Y-81954071D01*
X77561889Y-81954071D01*
X77570413Y-82024283D01*
X77570766Y-82027554D01*
X77577768Y-82101612D01*
X77578264Y-82103699D01*
X77605898Y-82176564D01*
X77606625Y-82178531D01*
X77632361Y-82250016D01*
X77677579Y-82315525D01*
X77678087Y-82316267D01*
X77721538Y-82380205D01*
X77751252Y-82406401D01*
X77780727Y-82432386D01*
X77780910Y-82432633D01*
X77780953Y-82432585D01*
X77840907Y-82485700D01*
X77841599Y-82486053D01*
X77841601Y-82486054D01*
X77908922Y-82520355D01*
X77910065Y-82520946D01*
X77974219Y-82554617D01*
X77974220Y-82554617D01*
X77980414Y-82557868D01*
X77984210Y-82558716D01*
X77984215Y-82558719D01*
X78054307Y-82574386D01*
X78056934Y-82575004D01*
X78077723Y-82580128D01*
X78123590Y-82591434D01*
X78123591Y-82591434D01*
X78129032Y-82592775D01*
X78137619Y-82593723D01*
X78140416Y-82593635D01*
X78140420Y-82593636D01*
X78208528Y-82591494D01*
X78212424Y-82591434D01*
X78279754Y-82591434D01*
X78300297Y-82588610D01*
X78300400Y-82588607D01*
X78302116Y-82588108D01*
X78302483Y-82588002D01*
X78337076Y-82583079D01*
X105863021Y-82583079D01*
X105910474Y-82592518D01*
X105950701Y-82619397D01*
X108498397Y-85167094D01*
X110790120Y-87458817D01*
X110803164Y-87475098D01*
X110805207Y-87477016D01*
X110805208Y-87477018D01*
X110854892Y-87523674D01*
X110857656Y-87526353D01*
X110877438Y-87546135D01*
X110880719Y-87548680D01*
X110889578Y-87556247D01*
X110921887Y-87586586D01*
X110939772Y-87596418D01*
X110956033Y-87607099D01*
X110972167Y-87619614D01*
X111012833Y-87637210D01*
X111023320Y-87642348D01*
X111062148Y-87663695D01*
X111081916Y-87668770D01*
X111100327Y-87675073D01*
X111119063Y-87683181D01*
X111162834Y-87690113D01*
X111174249Y-87692477D01*
X111217178Y-87703500D01*
X111237592Y-87703500D01*
X111256991Y-87705027D01*
X111277151Y-87708220D01*
X111321264Y-87704050D01*
X111332934Y-87703500D01*
X119966234Y-87703500D01*
X120013687Y-87712939D01*
X120053915Y-87739819D01*
X125605181Y-93291085D01*
X125632061Y-93331313D01*
X125641500Y-93378766D01*
X125641500Y-94688634D01*
X125648011Y-94749205D01*
X125699110Y-94886203D01*
X125786738Y-95003261D01*
X125903796Y-95090889D01*
X126040794Y-95141988D01*
X126040797Y-95141988D01*
X126040799Y-95141989D01*
X126101362Y-95148500D01*
X127898634Y-95148500D01*
X127898638Y-95148500D01*
X127959201Y-95141989D01*
X127959203Y-95141988D01*
X127959205Y-95141988D01*
X128037124Y-95112924D01*
X128096204Y-95090889D01*
X128213261Y-95003261D01*
X128300889Y-94886204D01*
X128351989Y-94749201D01*
X128358500Y-94688638D01*
X128358500Y-92891362D01*
X128351989Y-92830799D01*
X128351988Y-92830797D01*
X128351988Y-92830794D01*
X128300889Y-92693796D01*
X128213261Y-92576738D01*
X128096203Y-92489110D01*
X127978405Y-92445173D01*
X127928870Y-92411158D01*
X127901143Y-92357848D01*
X127901736Y-92297761D01*
X127930508Y-92245009D01*
X128075722Y-92087268D01*
X128198860Y-91898791D01*
X128289296Y-91692616D01*
X128344564Y-91474368D01*
X128363156Y-91250000D01*
X128344564Y-91025632D01*
X128289296Y-90807384D01*
X128198860Y-90601209D01*
X128075722Y-90412732D01*
X127923240Y-90247094D01*
X127745576Y-90108811D01*
X127709067Y-90089053D01*
X127661563Y-90043474D01*
X127644086Y-89980000D01*
X127661563Y-89916526D01*
X127709067Y-89870946D01*
X127745576Y-89851189D01*
X127923240Y-89712906D01*
X128075722Y-89547268D01*
X128198860Y-89358791D01*
X128289296Y-89152616D01*
X128344564Y-88934368D01*
X128363156Y-88710000D01*
X128344564Y-88485632D01*
X128289296Y-88267384D01*
X128198860Y-88061209D01*
X128075722Y-87872732D01*
X127923240Y-87707094D01*
X127745576Y-87568811D01*
X127709067Y-87549053D01*
X127661563Y-87503474D01*
X127644086Y-87440000D01*
X127661563Y-87376526D01*
X127709067Y-87330946D01*
X127745576Y-87311189D01*
X127923240Y-87172906D01*
X128075722Y-87007268D01*
X128198860Y-86818791D01*
X128289296Y-86612616D01*
X128344564Y-86394368D01*
X128363156Y-86170000D01*
X128360406Y-86136819D01*
X128344564Y-85945636D01*
X128344564Y-85945632D01*
X128289296Y-85727384D01*
X128198860Y-85521209D01*
X128075722Y-85332732D01*
X127923240Y-85167094D01*
X127745576Y-85028811D01*
X127709067Y-85009053D01*
X127661563Y-84963474D01*
X127644086Y-84900000D01*
X127661563Y-84836526D01*
X127709067Y-84790946D01*
X127745576Y-84771189D01*
X127923240Y-84632906D01*
X128075722Y-84467268D01*
X128198860Y-84278791D01*
X128289296Y-84072616D01*
X128344564Y-83854368D01*
X128363156Y-83630000D01*
X128344564Y-83405632D01*
X128289296Y-83187384D01*
X128198860Y-82981209D01*
X128075722Y-82792732D01*
X127923240Y-82627094D01*
X127784955Y-82519462D01*
X127745575Y-82488810D01*
X127702302Y-82465392D01*
X127656663Y-82422842D01*
X127637525Y-82363452D01*
X127649734Y-82302261D01*
X127690198Y-82254763D01*
X127871078Y-82128109D01*
X128038106Y-81961081D01*
X128173600Y-81767576D01*
X128273430Y-81553492D01*
X128330636Y-81340000D01*
X125669364Y-81340000D01*
X125726569Y-81553492D01*
X125826399Y-81767576D01*
X125961893Y-81961081D01*
X126128918Y-82128106D01*
X126309802Y-82254763D01*
X126350265Y-82302261D01*
X126362474Y-82363452D01*
X126343336Y-82422842D01*
X126297698Y-82465392D01*
X126254422Y-82488812D01*
X126076760Y-82627094D01*
X125924279Y-82792730D01*
X125801138Y-82981211D01*
X125710705Y-83187381D01*
X125655435Y-83405636D01*
X125636843Y-83630000D01*
X125655435Y-83854363D01*
X125655435Y-83854366D01*
X125655436Y-83854368D01*
X125706952Y-84057801D01*
X125710705Y-84072618D01*
X125801138Y-84278788D01*
X125801140Y-84278791D01*
X125924278Y-84467268D01*
X126076760Y-84632906D01*
X126254424Y-84771189D01*
X126254426Y-84771190D01*
X126290931Y-84790946D01*
X126338436Y-84836527D01*
X126355913Y-84900000D01*
X126338436Y-84963473D01*
X126290931Y-85009054D01*
X126254426Y-85028809D01*
X126076760Y-85167094D01*
X125924276Y-85332732D01*
X125827853Y-85480321D01*
X125783062Y-85521555D01*
X125724044Y-85536500D01*
X111983766Y-85536500D01*
X111936313Y-85527061D01*
X111896085Y-85500181D01*
X107235905Y-80840000D01*
X125669364Y-80840000D01*
X126750000Y-80840000D01*
X126750000Y-79759364D01*
X127250000Y-79759364D01*
X127250000Y-80840000D01*
X128330636Y-80840000D01*
X128330635Y-80839999D01*
X128273430Y-80626507D01*
X128173599Y-80412421D01*
X128038109Y-80218921D01*
X127871081Y-80051893D01*
X127677576Y-79916399D01*
X127463492Y-79816569D01*
X127250000Y-79759364D01*
X126750000Y-79759364D01*
X126749999Y-79759364D01*
X126536507Y-79816569D01*
X126322421Y-79916400D01*
X126128921Y-80051890D01*
X125961890Y-80218921D01*
X125826400Y-80412421D01*
X125726569Y-80626507D01*
X125669364Y-80839999D01*
X125669364Y-80840000D01*
X107235905Y-80840000D01*
X107056667Y-80660762D01*
X107043623Y-80644480D01*
X106991927Y-80595935D01*
X106989130Y-80593224D01*
X106969352Y-80573446D01*
X106966074Y-80570903D01*
X106957201Y-80563324D01*
X106924900Y-80532993D01*
X106907012Y-80523159D01*
X106890748Y-80512475D01*
X106874619Y-80499964D01*
X106833956Y-80482368D01*
X106823462Y-80477227D01*
X106784641Y-80455884D01*
X106772965Y-80452886D01*
X106764863Y-80450806D01*
X106746458Y-80444505D01*
X106727724Y-80436398D01*
X106727722Y-80436397D01*
X106727721Y-80436397D01*
X106683962Y-80429466D01*
X106672522Y-80427097D01*
X106629610Y-80416079D01*
X106629609Y-80416079D01*
X106609195Y-80416079D01*
X106589796Y-80414552D01*
X106569637Y-80411359D01*
X106569636Y-80411359D01*
X106536897Y-80414453D01*
X106525522Y-80415529D01*
X106513853Y-80416079D01*
X79972658Y-80416079D01*
X79940675Y-80423961D01*
X79926552Y-80426584D01*
X79890783Y-80431104D01*
X79864098Y-80441669D01*
X79848135Y-80446771D01*
X79823286Y-80452896D01*
X79790865Y-80469911D01*
X79778895Y-80475403D01*
X79741961Y-80490027D01*
X79721728Y-80504727D01*
X79706474Y-80514202D01*
X79687068Y-80524387D01*
X79656905Y-80551108D01*
X79647570Y-80558604D01*
X79612470Y-80584107D01*
X79598866Y-80600550D01*
X79585564Y-80614310D01*
X79571917Y-80626401D01*
X79546948Y-80662575D01*
X79540441Y-80671175D01*
X79526180Y-80688413D01*
X79470188Y-80726895D01*
X79402322Y-80730095D01*
X79342957Y-80697052D01*
X78746626Y-80100721D01*
X78732255Y-80083477D01*
X78727663Y-80076824D01*
X78687225Y-80041000D01*
X78681770Y-80035865D01*
X78669770Y-80023865D01*
X78657815Y-80014592D01*
X78651587Y-80009427D01*
X78612513Y-79974810D01*
X78603712Y-79970191D01*
X78585343Y-79958377D01*
X78576915Y-79951840D01*
X78575041Y-79950386D01*
X78527639Y-79929873D01*
X78519264Y-79925870D01*
X78511223Y-79921650D01*
X78476292Y-79903317D01*
X78463062Y-79900055D01*
X78443497Y-79893462D01*
X78428144Y-79886818D01*
X78380764Y-79879314D01*
X78370489Y-79877238D01*
X78326922Y-79866500D01*
X78326921Y-79866500D01*
X78309616Y-79866500D01*
X78290217Y-79864973D01*
X78270058Y-79861780D01*
X78270057Y-79861780D01*
X78237318Y-79864874D01*
X78225943Y-79865950D01*
X78214274Y-79866500D01*
X78173079Y-79866500D01*
X78152697Y-79871523D01*
X78134699Y-79874574D01*
X78110707Y-79876842D01*
X78072467Y-79890609D01*
X78060143Y-79894335D01*
X78023708Y-79903315D01*
X78001862Y-79914781D01*
X77986247Y-79921650D01*
X77960110Y-79931060D01*
X77929533Y-79951840D01*
X77917463Y-79959077D01*
X77887490Y-79974808D01*
X77866266Y-79993610D01*
X77853742Y-80003348D01*
X77827728Y-80021027D01*
X77805708Y-80046003D01*
X77794931Y-80056807D01*
X77772335Y-80076827D01*
X77754146Y-80103178D01*
X77745113Y-80114736D01*
X77721879Y-80141089D01*
X77708435Y-80167476D01*
X77700003Y-80181617D01*
X77684944Y-80203434D01*
X77672285Y-80236812D01*
X77666830Y-80249130D01*
X77649215Y-80283703D01*
X77643557Y-80309015D01*
X77638486Y-80325934D01*
X77630389Y-80347282D01*
X77625644Y-80386356D01*
X77623563Y-80398452D01*
X77614297Y-80439906D01*
X77614997Y-80462157D01*
X77614154Y-80480997D01*
X77611846Y-80499999D01*
X77617034Y-80542719D01*
X77617877Y-80553770D01*
X77619326Y-80599891D01*
X77624507Y-80617723D01*
X77628525Y-80637364D01*
X77630390Y-80652719D01*
X77646951Y-80696388D01*
X77650085Y-80705762D01*
X77663981Y-80753592D01*
X77671560Y-80766407D01*
X77680769Y-80785555D01*
X77684944Y-80796565D01*
X77713554Y-80838013D01*
X77718236Y-80845332D01*
X77745458Y-80891362D01*
X77753372Y-80899276D01*
X77767741Y-80916517D01*
X77772334Y-80923172D01*
X77772335Y-80923173D01*
X77772336Y-80923174D01*
X77812800Y-80959022D01*
X77818237Y-80964141D01*
X78010327Y-81156231D01*
X78042250Y-81211189D01*
X78042752Y-81274745D01*
X78011699Y-81330200D01*
X77957250Y-81362986D01*
X77955277Y-81363559D01*
X77955274Y-81363560D01*
X77955273Y-81363561D01*
X77937693Y-81373956D01*
X77920236Y-81382509D01*
X77901247Y-81390027D01*
X77865402Y-81416070D01*
X77855637Y-81422484D01*
X77843279Y-81429792D01*
X77837800Y-81432847D01*
X77831631Y-81436085D01*
X77827259Y-81439266D01*
X77817505Y-81445035D01*
X77803065Y-81459474D01*
X77788281Y-81472101D01*
X77771759Y-81484106D01*
X77755202Y-81504119D01*
X77741891Y-81517888D01*
X77722847Y-81534759D01*
X77691113Y-81580733D01*
X77687042Y-81586293D01*
X77685541Y-81588228D01*
X77683110Y-81591262D01*
X77664587Y-81613654D01*
X77659946Y-81621226D01*
X77650896Y-81632892D01*
X77648648Y-81638089D01*
X77636902Y-81659273D01*
X77635454Y-81661370D01*
X77614348Y-81717021D01*
X77612210Y-81722292D01*
X77587328Y-81779792D01*
X77587021Y-81781735D01*
X77581004Y-81804370D01*
X77573282Y-81867963D01*
X77572659Y-81872413D01*
X77562087Y-81939161D01*
X77561889Y-81954071D01*
X74883500Y-81954071D01*
X74883500Y-79063766D01*
X74892939Y-79016313D01*
X74919819Y-78976085D01*
X76441726Y-77454178D01*
X82138816Y-71757086D01*
X82155097Y-71744044D01*
X82157014Y-71742002D01*
X82157018Y-71742000D01*
X82203707Y-71692279D01*
X82206355Y-71689547D01*
X82226135Y-71669769D01*
X82228666Y-71666504D01*
X82236243Y-71657631D01*
X82266586Y-71625321D01*
X82276422Y-71607426D01*
X82287101Y-71591170D01*
X82299614Y-71575041D01*
X82317211Y-71534373D01*
X82322349Y-71523887D01*
X82343693Y-71485063D01*
X82343695Y-71485060D01*
X82348773Y-71465277D01*
X82355070Y-71446885D01*
X82363181Y-71428145D01*
X82370112Y-71384376D01*
X82372478Y-71372953D01*
X82383500Y-71330030D01*
X82383500Y-71309616D01*
X82385027Y-71290217D01*
X82385102Y-71289740D01*
X82388220Y-71270057D01*
X82384050Y-71225943D01*
X82383500Y-71214274D01*
X82383500Y-54257500D01*
X82400113Y-54195500D01*
X82445500Y-54150113D01*
X82507500Y-54133500D01*
X116686234Y-54133500D01*
X116733687Y-54142939D01*
X116773915Y-54169819D01*
X117253372Y-54649276D01*
X117267741Y-54666517D01*
X117272334Y-54673172D01*
X117272335Y-54673173D01*
X117272336Y-54673174D01*
X117312802Y-54709024D01*
X117318220Y-54714124D01*
X117330230Y-54726134D01*
X117330232Y-54726136D01*
X117342175Y-54735399D01*
X117348405Y-54740566D01*
X117387485Y-54775188D01*
X117387486Y-54775188D01*
X117387488Y-54775190D01*
X117396284Y-54779806D01*
X117414659Y-54791624D01*
X117417979Y-54794199D01*
X117424959Y-54799613D01*
X117448380Y-54809748D01*
X117472354Y-54820123D01*
X117480725Y-54824123D01*
X117500438Y-54834469D01*
X117523709Y-54846684D01*
X117536929Y-54849942D01*
X117556501Y-54856536D01*
X117571855Y-54863181D01*
X117619254Y-54870687D01*
X117629512Y-54872761D01*
X117673079Y-54883500D01*
X117690384Y-54883500D01*
X117709783Y-54885027D01*
X117729943Y-54888220D01*
X117774056Y-54884050D01*
X117785726Y-54883500D01*
X117826917Y-54883500D01*
X117826921Y-54883500D01*
X117847306Y-54878475D01*
X117865297Y-54875424D01*
X117889292Y-54873157D01*
X117927543Y-54859384D01*
X117939843Y-54855666D01*
X117976292Y-54846683D01*
X117998132Y-54835219D01*
X118013740Y-54828352D01*
X118039889Y-54818939D01*
X118070466Y-54798157D01*
X118082514Y-54790932D01*
X118112512Y-54775190D01*
X118133728Y-54756392D01*
X118146260Y-54746648D01*
X118172271Y-54728972D01*
X118194287Y-54703999D01*
X118205060Y-54693199D01*
X118227664Y-54673174D01*
X118245861Y-54646809D01*
X118254877Y-54635272D01*
X118278120Y-54608910D01*
X118291566Y-54582519D01*
X118300000Y-54568375D01*
X118315056Y-54546564D01*
X118327713Y-54513188D01*
X118333163Y-54500879D01*
X118350785Y-54466296D01*
X118356444Y-54440975D01*
X118361512Y-54424065D01*
X118369609Y-54402720D01*
X118374353Y-54363644D01*
X118376436Y-54351541D01*
X118385702Y-54310091D01*
X118385002Y-54287842D01*
X118385844Y-54269006D01*
X118388153Y-54250000D01*
X118382963Y-54207262D01*
X118382123Y-54196240D01*
X118380673Y-54150110D01*
X118375492Y-54132278D01*
X118371472Y-54112628D01*
X118369609Y-54097280D01*
X118353047Y-54053611D01*
X118349914Y-54044237D01*
X118336018Y-53996406D01*
X118328441Y-53983594D01*
X118319233Y-53964449D01*
X118317635Y-53960237D01*
X118315056Y-53953436D01*
X118286440Y-53911979D01*
X118281772Y-53904682D01*
X118254542Y-53858637D01*
X118246626Y-53850720D01*
X118232255Y-53833477D01*
X118227663Y-53826824D01*
X118187225Y-53791000D01*
X118181770Y-53785865D01*
X117507088Y-53111183D01*
X117494044Y-53094901D01*
X117442348Y-53046356D01*
X117439551Y-53043645D01*
X117419773Y-53023867D01*
X117416495Y-53021324D01*
X117407622Y-53013745D01*
X117375321Y-52983414D01*
X117357433Y-52973580D01*
X117341169Y-52962896D01*
X117325040Y-52950385D01*
X117284377Y-52932789D01*
X117273883Y-52927648D01*
X117235062Y-52906305D01*
X117223386Y-52903307D01*
X117215284Y-52901227D01*
X117196879Y-52894926D01*
X117178145Y-52886819D01*
X117178143Y-52886818D01*
X117178142Y-52886818D01*
X117134383Y-52879887D01*
X117122943Y-52877518D01*
X117080031Y-52866500D01*
X117080030Y-52866500D01*
X117059616Y-52866500D01*
X117040217Y-52864973D01*
X117020058Y-52861780D01*
X117020057Y-52861780D01*
X116987318Y-52864874D01*
X116975943Y-52865950D01*
X116964274Y-52866500D01*
X82507500Y-52866500D01*
X82445500Y-52849887D01*
X82400113Y-52804500D01*
X82383500Y-52742500D01*
X82383500Y-51163633D01*
X82385789Y-51142891D01*
X82385701Y-51140094D01*
X82385702Y-51140091D01*
X82383560Y-51071982D01*
X82383500Y-51068087D01*
X82383500Y-51040146D01*
X82382982Y-51036049D01*
X82382064Y-51024390D01*
X82380673Y-50980110D01*
X82374978Y-50960511D01*
X82371033Y-50941462D01*
X82368474Y-50921203D01*
X82352162Y-50880005D01*
X82348377Y-50868949D01*
X82336018Y-50826406D01*
X82325627Y-50808836D01*
X82317066Y-50791361D01*
X82316121Y-50788976D01*
X82309552Y-50772383D01*
X82283503Y-50736530D01*
X82277099Y-50726780D01*
X82254542Y-50688638D01*
X82240107Y-50674203D01*
X82227469Y-50659406D01*
X82215472Y-50642893D01*
X82181324Y-50614643D01*
X82172685Y-50606781D01*
X75349062Y-43783157D01*
X75317192Y-43728393D01*
X75316538Y-43665037D01*
X75344564Y-43554368D01*
X75363156Y-43330000D01*
X75344564Y-43105632D01*
X75289296Y-42887384D01*
X75198860Y-42681209D01*
X75075722Y-42492732D01*
X74923240Y-42327094D01*
X74745576Y-42188811D01*
X74745575Y-42188810D01*
X74709067Y-42169053D01*
X74661562Y-42123471D01*
X74644086Y-42059997D01*
X74661564Y-41996523D01*
X74709067Y-41950946D01*
X74745576Y-41931189D01*
X74923240Y-41792906D01*
X75075722Y-41627268D01*
X75198860Y-41438791D01*
X75289296Y-41232616D01*
X75344564Y-41014368D01*
X75363156Y-40790000D01*
X75344564Y-40565632D01*
X75289296Y-40347384D01*
X75198860Y-40141209D01*
X75075722Y-39952732D01*
X74924292Y-39788237D01*
X74895519Y-39735484D01*
X74894926Y-39675397D01*
X74922653Y-39622087D01*
X74972189Y-39588072D01*
X75092088Y-39543352D01*
X75207188Y-39457188D01*
X75293352Y-39342089D01*
X75343597Y-39207375D01*
X75350000Y-39147824D01*
X75350000Y-38500000D01*
X72650000Y-38500000D01*
X72650000Y-39147824D01*
X72656402Y-39207375D01*
X72706647Y-39342089D01*
X72792811Y-39457188D01*
X72907911Y-39543352D01*
X73027810Y-39588072D01*
X73077346Y-39622087D01*
X73105073Y-39675397D01*
X73104480Y-39735484D01*
X73075706Y-39788237D01*
X72924281Y-39952726D01*
X72801138Y-40141211D01*
X72710705Y-40347381D01*
X72655435Y-40565636D01*
X72636843Y-40789999D01*
X72655435Y-41014363D01*
X72710705Y-41232618D01*
X72801138Y-41438788D01*
X72801140Y-41438791D01*
X72924278Y-41627268D01*
X73076760Y-41792906D01*
X73254424Y-41931189D01*
X73290930Y-41950945D01*
X73338435Y-41996524D01*
X73355913Y-42059997D01*
X73338437Y-42123471D01*
X73290933Y-42169052D01*
X73254427Y-42188809D01*
X73076760Y-42327094D01*
X72924279Y-42492730D01*
X72801138Y-42681211D01*
X72710705Y-42887381D01*
X72655435Y-43105636D01*
X72636843Y-43329999D01*
X72655435Y-43554363D01*
X72655436Y-43554365D01*
X72655436Y-43554368D01*
X72700757Y-43733337D01*
X72710705Y-43772618D01*
X72801138Y-43978788D01*
X72801140Y-43978791D01*
X72924278Y-44167268D01*
X73076760Y-44332906D01*
X73254424Y-44471189D01*
X73254426Y-44471190D01*
X73290931Y-44490946D01*
X73338436Y-44536527D01*
X73355913Y-44600000D01*
X73338436Y-44663473D01*
X73290931Y-44709054D01*
X73254426Y-44728809D01*
X73076760Y-44867094D01*
X72924279Y-45032730D01*
X72801138Y-45221211D01*
X72710705Y-45427381D01*
X72655435Y-45645636D01*
X72636843Y-45870000D01*
X72655435Y-46094363D01*
X72655435Y-46094366D01*
X72655436Y-46094368D01*
X72655436Y-46094369D01*
X72710705Y-46312618D01*
X72801138Y-46518788D01*
X72801140Y-46518791D01*
X72924278Y-46707268D01*
X73076760Y-46872906D01*
X73254424Y-47011189D01*
X73254426Y-47011190D01*
X73290931Y-47030946D01*
X73338436Y-47076527D01*
X73355913Y-47140000D01*
X73338436Y-47203473D01*
X73290931Y-47249054D01*
X73254426Y-47268809D01*
X73076760Y-47407094D01*
X72924279Y-47572730D01*
X72801138Y-47761211D01*
X72710705Y-47967381D01*
X72655435Y-48185636D01*
X72636843Y-48409999D01*
X72655435Y-48634363D01*
X72710705Y-48852618D01*
X72801138Y-49058788D01*
X72801140Y-49058791D01*
X72924278Y-49247268D01*
X73076760Y-49412906D01*
X73254424Y-49551189D01*
X73254426Y-49551190D01*
X73290931Y-49570946D01*
X73338436Y-49616527D01*
X73355913Y-49680000D01*
X73338436Y-49743473D01*
X73290931Y-49789054D01*
X73254426Y-49808809D01*
X73076760Y-49947094D01*
X72924279Y-50112730D01*
X72801138Y-50301211D01*
X72710705Y-50507381D01*
X72710704Y-50507384D01*
X72672992Y-50656305D01*
X72655435Y-50725636D01*
X72636843Y-50950000D01*
X67393705Y-50950000D01*
X67393732Y-50949779D01*
X67389983Y-50918905D01*
X67389079Y-50903958D01*
X67389079Y-38308187D01*
X67398518Y-38260734D01*
X67425398Y-38220506D01*
X67645904Y-38000000D01*
X72650000Y-38000000D01*
X73750000Y-38000000D01*
X73750000Y-36900000D01*
X74250000Y-36900000D01*
X74250000Y-38000000D01*
X75350000Y-38000000D01*
X75350000Y-37352176D01*
X75343597Y-37292624D01*
X75293352Y-37157910D01*
X75207188Y-37042811D01*
X75092089Y-36956647D01*
X74957375Y-36906402D01*
X74897824Y-36900000D01*
X74250000Y-36900000D01*
X73750000Y-36900000D01*
X73102176Y-36900000D01*
X73042624Y-36906402D01*
X72907910Y-36956647D01*
X72792811Y-37042811D01*
X72706647Y-37157910D01*
X72656402Y-37292624D01*
X72650000Y-37352176D01*
X72650000Y-38000000D01*
X67645904Y-38000000D01*
X70726086Y-34919819D01*
X70766314Y-34892939D01*
X70813767Y-34883500D01*
X76436234Y-34883500D01*
X76483687Y-34892939D01*
X76523915Y-34919819D01*
X93242910Y-51638814D01*
X93255959Y-51655101D01*
X93257999Y-51657016D01*
X93258000Y-51657018D01*
X93307701Y-51703690D01*
X93310464Y-51706368D01*
X93330231Y-51726135D01*
X93333497Y-51728668D01*
X93342375Y-51736250D01*
X93374679Y-51766586D01*
X93392570Y-51776421D01*
X93408823Y-51787097D01*
X93420816Y-51796399D01*
X93424961Y-51799615D01*
X93465618Y-51817208D01*
X93476102Y-51822343D01*
X93514940Y-51843695D01*
X93534714Y-51848772D01*
X93553119Y-51855073D01*
X93571855Y-51863181D01*
X93615630Y-51870113D01*
X93627041Y-51872477D01*
X93669970Y-51883500D01*
X93690384Y-51883500D01*
X93709783Y-51885027D01*
X93729943Y-51888220D01*
X93774056Y-51884050D01*
X93785726Y-51883500D01*
X116936234Y-51883500D01*
X116983687Y-51892939D01*
X117023915Y-51919819D01*
X118830181Y-53726085D01*
X118857061Y-53766313D01*
X118866500Y-53813766D01*
X118866500Y-77454178D01*
X118865596Y-77469125D01*
X118861846Y-77499999D01*
X118865596Y-77530875D01*
X118865807Y-77534369D01*
X118871269Y-77577613D01*
X118871342Y-77578203D01*
X118880953Y-77657351D01*
X118908954Y-77728074D01*
X118909603Y-77729748D01*
X118937703Y-77803840D01*
X118982108Y-77864958D01*
X118983840Y-77867403D01*
X119025021Y-77927065D01*
X119032958Y-77935809D01*
X119086329Y-77979962D01*
X119089494Y-77982671D01*
X119137488Y-78025190D01*
X119137491Y-78025191D01*
X119138668Y-78026234D01*
X119157066Y-78038480D01*
X119157856Y-78039134D01*
X119215368Y-78066197D01*
X119220195Y-78068598D01*
X119248979Y-78083704D01*
X119273708Y-78096683D01*
X119275279Y-78097070D01*
X119298399Y-78105267D01*
X119302682Y-78107283D01*
X119361536Y-78118509D01*
X119367923Y-78119905D01*
X119423079Y-78133500D01*
X119428393Y-78133500D01*
X119451627Y-78135696D01*
X119459906Y-78137275D01*
X119516015Y-78133744D01*
X119523801Y-78133500D01*
X119576919Y-78133500D01*
X119576921Y-78133500D01*
X119585660Y-78131345D01*
X119607547Y-78127985D01*
X119619650Y-78127225D01*
X119669675Y-78110969D01*
X119678259Y-78108521D01*
X119726292Y-78096683D01*
X119737537Y-78090780D01*
X119756833Y-78082650D01*
X119771875Y-78077764D01*
X119813162Y-78051561D01*
X119821951Y-78046477D01*
X119862512Y-78025190D01*
X119874775Y-78014324D01*
X119890559Y-78002444D01*
X119907018Y-77992000D01*
X119937989Y-77959017D01*
X119946133Y-77951107D01*
X119977664Y-77923174D01*
X119989065Y-77906654D01*
X120000720Y-77892215D01*
X120016586Y-77875321D01*
X120036614Y-77838886D01*
X120043210Y-77828210D01*
X120065056Y-77796564D01*
X120073474Y-77774365D01*
X120080756Y-77758595D01*
X120084546Y-77751700D01*
X120093695Y-77735060D01*
X120103118Y-77698356D01*
X120107273Y-77685244D01*
X120119609Y-77652720D01*
X120122914Y-77625494D01*
X120125906Y-77609604D01*
X120133500Y-77580029D01*
X120133500Y-77545822D01*
X120134404Y-77530875D01*
X120138153Y-77499999D01*
X120134404Y-77469125D01*
X120133500Y-77454178D01*
X120133500Y-53583634D01*
X120135789Y-53562891D01*
X120135701Y-53560095D01*
X120135702Y-53560092D01*
X120133560Y-53491969D01*
X120133500Y-53488075D01*
X120133500Y-53460147D01*
X120133470Y-53459906D01*
X120132982Y-53456047D01*
X120132065Y-53444398D01*
X120130674Y-53400111D01*
X120124977Y-53380501D01*
X120121033Y-53361460D01*
X120118474Y-53341203D01*
X120102161Y-53300002D01*
X120098386Y-53288975D01*
X120086019Y-53246407D01*
X120075622Y-53228828D01*
X120067064Y-53211357D01*
X120059552Y-53192384D01*
X120059552Y-53192383D01*
X120033505Y-53156532D01*
X120027098Y-53146778D01*
X120004543Y-53108639D01*
X119997405Y-53101501D01*
X119990101Y-53094197D01*
X119977472Y-53079410D01*
X119965472Y-53062893D01*
X119931324Y-53034643D01*
X119922685Y-53026781D01*
X117757088Y-50861183D01*
X117744044Y-50844902D01*
X117742000Y-50842983D01*
X117742000Y-50842982D01*
X117692329Y-50796339D01*
X117689564Y-50793660D01*
X117669770Y-50773865D01*
X117669769Y-50773864D01*
X117669767Y-50773862D01*
X117666501Y-50771329D01*
X117657621Y-50763745D01*
X117625321Y-50733414D01*
X117607433Y-50723580D01*
X117591169Y-50712896D01*
X117575040Y-50700385D01*
X117534377Y-50682789D01*
X117523883Y-50677648D01*
X117485062Y-50656305D01*
X117473386Y-50653307D01*
X117465284Y-50651227D01*
X117446879Y-50644926D01*
X117442181Y-50642893D01*
X117428145Y-50636819D01*
X117428143Y-50636818D01*
X117428142Y-50636818D01*
X117384383Y-50629887D01*
X117372943Y-50627518D01*
X117330031Y-50616500D01*
X117330030Y-50616500D01*
X117309616Y-50616500D01*
X117290217Y-50614973D01*
X117270058Y-50611780D01*
X117270057Y-50611780D01*
X117239770Y-50614643D01*
X117225943Y-50615950D01*
X117214274Y-50616500D01*
X94063766Y-50616500D01*
X94016313Y-50607061D01*
X93976085Y-50580181D01*
X82645905Y-39250000D01*
X126125001Y-39250000D01*
X126125001Y-40174979D01*
X126135493Y-40277695D01*
X126190642Y-40444122D01*
X126282683Y-40593345D01*
X126406654Y-40717316D01*
X126555877Y-40809357D01*
X126722303Y-40864506D01*
X126825021Y-40875000D01*
X127750000Y-40875000D01*
X127750000Y-39250000D01*
X128250000Y-39250000D01*
X128250000Y-40874999D01*
X129174979Y-40874999D01*
X129277695Y-40864506D01*
X129444122Y-40809357D01*
X129593345Y-40717316D01*
X129717316Y-40593345D01*
X129809357Y-40444122D01*
X129864506Y-40277696D01*
X129875000Y-40174979D01*
X129875000Y-39250000D01*
X128250000Y-39250000D01*
X127750000Y-39250000D01*
X126125001Y-39250000D01*
X82645905Y-39250000D01*
X82145905Y-38750000D01*
X126125000Y-38750000D01*
X127750000Y-38750000D01*
X127750000Y-37125001D01*
X126825021Y-37125001D01*
X126722304Y-37135493D01*
X126555877Y-37190642D01*
X126406654Y-37282683D01*
X126282683Y-37406654D01*
X126190642Y-37555877D01*
X126135493Y-37722303D01*
X126125000Y-37825021D01*
X126125000Y-38750000D01*
X82145905Y-38750000D01*
X80520905Y-37125000D01*
X128250000Y-37125000D01*
X128250000Y-38750000D01*
X129874999Y-38750000D01*
X129874999Y-37825021D01*
X129864506Y-37722304D01*
X129809357Y-37555877D01*
X129717316Y-37406654D01*
X129593345Y-37282683D01*
X129444122Y-37190642D01*
X129277696Y-37135493D01*
X129174979Y-37125000D01*
X128250000Y-37125000D01*
X80520905Y-37125000D01*
X79321449Y-35925544D01*
X126116500Y-35925544D01*
X126127112Y-36029425D01*
X126182884Y-36197736D01*
X126275971Y-36348654D01*
X126401345Y-36474028D01*
X126401347Y-36474029D01*
X126401348Y-36474030D01*
X126552262Y-36567115D01*
X126636418Y-36595001D01*
X126720573Y-36622887D01*
X126730202Y-36623870D01*
X126824455Y-36633500D01*
X129175544Y-36633499D01*
X129279426Y-36622887D01*
X129447738Y-36567115D01*
X129598652Y-36474030D01*
X129724030Y-36348652D01*
X129817115Y-36197738D01*
X129872887Y-36029426D01*
X129883500Y-35925545D01*
X129883499Y-33574456D01*
X129875893Y-33500000D01*
X138446363Y-33500000D01*
X138466871Y-33747485D01*
X138466871Y-33747488D01*
X138466872Y-33747490D01*
X138527835Y-33988230D01*
X138627592Y-34215652D01*
X138763420Y-34423552D01*
X138869364Y-34538638D01*
X138931618Y-34606264D01*
X139127583Y-34758790D01*
X139127585Y-34758791D01*
X139127589Y-34758794D01*
X139345996Y-34876990D01*
X139580879Y-34957625D01*
X139825831Y-34998500D01*
X140074169Y-34998500D01*
X140319121Y-34957625D01*
X140554004Y-34876990D01*
X140772411Y-34758794D01*
X140826771Y-34716484D01*
X141637068Y-34716484D01*
X141682254Y-34751653D01*
X141899423Y-34869179D01*
X142132971Y-34949356D01*
X142376535Y-34990000D01*
X142623465Y-34990000D01*
X142867028Y-34949356D01*
X143100573Y-34869180D01*
X143317751Y-34751649D01*
X143414714Y-34676180D01*
X143467141Y-34652326D01*
X143524690Y-34654733D01*
X143574943Y-34682881D01*
X143607057Y-34730697D01*
X143609111Y-34736204D01*
X143696738Y-34853261D01*
X143813796Y-34940889D01*
X143950794Y-34991988D01*
X143950797Y-34991988D01*
X143950799Y-34991989D01*
X144011362Y-34998500D01*
X146088634Y-34998500D01*
X146088638Y-34998500D01*
X146149201Y-34991989D01*
X146149203Y-34991988D01*
X146149205Y-34991988D01*
X146227124Y-34962924D01*
X146286204Y-34940889D01*
X146403261Y-34853261D01*
X146490889Y-34736204D01*
X146513277Y-34676180D01*
X146541988Y-34599205D01*
X146541988Y-34599203D01*
X146541989Y-34599201D01*
X146548500Y-34538638D01*
X146548500Y-33290733D01*
X152062818Y-33290733D01*
X152205489Y-33410448D01*
X152497464Y-33602482D01*
X152809744Y-33759316D01*
X153138128Y-33878837D01*
X153478171Y-33959429D01*
X153825274Y-34000000D01*
X154174726Y-34000000D01*
X154521828Y-33959429D01*
X154861871Y-33878837D01*
X155190255Y-33759316D01*
X155502535Y-33602482D01*
X155794515Y-33410445D01*
X155937180Y-33290734D01*
X155937181Y-33290733D01*
X154000000Y-31353553D01*
X152062818Y-33290733D01*
X146548500Y-33290733D01*
X146548500Y-32461362D01*
X146541989Y-32400799D01*
X146541988Y-32400797D01*
X146541988Y-32400794D01*
X146490889Y-32263796D01*
X146403261Y-32146738D01*
X146286203Y-32059110D01*
X146149205Y-32008011D01*
X146118919Y-32004755D01*
X146088638Y-32001500D01*
X144011362Y-32001500D01*
X143984445Y-32004393D01*
X143950794Y-32008011D01*
X143813796Y-32059110D01*
X143696738Y-32146738D01*
X143609111Y-32263795D01*
X143607057Y-32269303D01*
X143574943Y-32317119D01*
X143524690Y-32345267D01*
X143467141Y-32347674D01*
X143414714Y-32323820D01*
X143317751Y-32248350D01*
X143100573Y-32130819D01*
X142867028Y-32050643D01*
X142623465Y-32010000D01*
X142376535Y-32010000D01*
X142132971Y-32050643D01*
X141899426Y-32130819D01*
X141682250Y-32248349D01*
X141637068Y-32283514D01*
X141637068Y-32283516D01*
X142500000Y-33146447D01*
X142765871Y-33412318D01*
X142797965Y-33467905D01*
X142797965Y-33532093D01*
X142765871Y-33587680D01*
X141637068Y-34716483D01*
X141637068Y-34716484D01*
X140826771Y-34716484D01*
X140968385Y-34606261D01*
X141136580Y-34423552D01*
X141141811Y-34415545D01*
X141192312Y-34371407D01*
X141258414Y-34360025D01*
X141283790Y-34362656D01*
X142146447Y-33500001D01*
X142146447Y-33500000D01*
X141283790Y-32637342D01*
X141258412Y-32639974D01*
X141192315Y-32628592D01*
X141141813Y-32584457D01*
X141136582Y-32576451D01*
X141136581Y-32576450D01*
X141136580Y-32576448D01*
X140968385Y-32393739D01*
X140968383Y-32393738D01*
X140968381Y-32393735D01*
X140772416Y-32241209D01*
X140772412Y-32241206D01*
X140772411Y-32241206D01*
X140554004Y-32123010D01*
X140554003Y-32123009D01*
X140554000Y-32123008D01*
X140319122Y-32042375D01*
X140074169Y-32001500D01*
X139825831Y-32001500D01*
X139580877Y-32042375D01*
X139345999Y-32123008D01*
X139127583Y-32241209D01*
X138931618Y-32393735D01*
X138869360Y-32461366D01*
X138763420Y-32576448D01*
X138627592Y-32784348D01*
X138527835Y-33011770D01*
X138466872Y-33252510D01*
X138466871Y-33252514D01*
X138446363Y-33500000D01*
X129875893Y-33500000D01*
X129872887Y-33470574D01*
X129817115Y-33302262D01*
X129724030Y-33151348D01*
X129724029Y-33151347D01*
X129724028Y-33151345D01*
X129598654Y-33025971D01*
X129459756Y-32940298D01*
X129447738Y-32932885D01*
X129447737Y-32932884D01*
X129447736Y-32932884D01*
X129279426Y-32877112D01*
X129185173Y-32867483D01*
X129175544Y-32866500D01*
X126824455Y-32866500D01*
X126720574Y-32877112D01*
X126552263Y-32932884D01*
X126401345Y-33025971D01*
X126275971Y-33151345D01*
X126182884Y-33302263D01*
X126127112Y-33470573D01*
X126116500Y-33574455D01*
X126116500Y-35925544D01*
X79321449Y-35925544D01*
X77257088Y-33861183D01*
X77244044Y-33844901D01*
X77192348Y-33796356D01*
X77189551Y-33793645D01*
X77169773Y-33773867D01*
X77166495Y-33771324D01*
X77157622Y-33763745D01*
X77125321Y-33733414D01*
X77107433Y-33723580D01*
X77091169Y-33712896D01*
X77075040Y-33700385D01*
X77034377Y-33682789D01*
X77023883Y-33677648D01*
X76985062Y-33656305D01*
X76973386Y-33653307D01*
X76965284Y-33651227D01*
X76946879Y-33644926D01*
X76928145Y-33636819D01*
X76928143Y-33636818D01*
X76928142Y-33636818D01*
X76884383Y-33629887D01*
X76872943Y-33627518D01*
X76830031Y-33616500D01*
X76830030Y-33616500D01*
X76809616Y-33616500D01*
X76790217Y-33614973D01*
X76770058Y-33611780D01*
X76770057Y-33611780D01*
X76743420Y-33614298D01*
X76725943Y-33615950D01*
X76714274Y-33616500D01*
X70583633Y-33616500D01*
X70562890Y-33614210D01*
X70491969Y-33616439D01*
X70488074Y-33616500D01*
X70460141Y-33616500D01*
X70456037Y-33617018D01*
X70444405Y-33617933D01*
X70400110Y-33619325D01*
X70380501Y-33625022D01*
X70361461Y-33628965D01*
X70341205Y-33631525D01*
X70300005Y-33647836D01*
X70288961Y-33651617D01*
X70246410Y-33663981D01*
X70246407Y-33663982D01*
X70228827Y-33674377D01*
X70211370Y-33682930D01*
X70192378Y-33690449D01*
X70156534Y-33716491D01*
X70146777Y-33722901D01*
X70108638Y-33745457D01*
X70094200Y-33759895D01*
X70079411Y-33772525D01*
X70062894Y-33784525D01*
X70034644Y-33818673D01*
X70026783Y-33827311D01*
X66366759Y-37487334D01*
X66350475Y-37500382D01*
X66301918Y-37552089D01*
X66299212Y-37554882D01*
X66279440Y-37574654D01*
X66276900Y-37577929D01*
X66269331Y-37586790D01*
X66238993Y-37619098D01*
X66229161Y-37636984D01*
X66218480Y-37653244D01*
X66205964Y-37669380D01*
X66188365Y-37710049D01*
X66183227Y-37720538D01*
X66161882Y-37759364D01*
X66156805Y-37779139D01*
X66150504Y-37797544D01*
X66142397Y-37816277D01*
X66135467Y-37860031D01*
X66133099Y-37871467D01*
X66122079Y-37914391D01*
X66122079Y-37934805D01*
X66120552Y-37954204D01*
X66117359Y-37974362D01*
X27178000Y-37974362D01*
X27178000Y-33290733D01*
X42062818Y-33290733D01*
X42205489Y-33410448D01*
X42497464Y-33602482D01*
X42809744Y-33759316D01*
X43138128Y-33878837D01*
X43478171Y-33959429D01*
X43825274Y-34000000D01*
X44174726Y-34000000D01*
X44521828Y-33959429D01*
X44861871Y-33878837D01*
X45190255Y-33759316D01*
X45502535Y-33602482D01*
X45658352Y-33500000D01*
X52646363Y-33500000D01*
X52666871Y-33747485D01*
X52666871Y-33747488D01*
X52666872Y-33747490D01*
X52727835Y-33988230D01*
X52827592Y-34215652D01*
X52963420Y-34423552D01*
X53069364Y-34538638D01*
X53131618Y-34606264D01*
X53327583Y-34758790D01*
X53327585Y-34758791D01*
X53327589Y-34758794D01*
X53545996Y-34876990D01*
X53780879Y-34957625D01*
X54025831Y-34998500D01*
X54274169Y-34998500D01*
X54519121Y-34957625D01*
X54754004Y-34876990D01*
X54972411Y-34758794D01*
X55026771Y-34716484D01*
X55837068Y-34716484D01*
X55882254Y-34751653D01*
X56099423Y-34869179D01*
X56332971Y-34949356D01*
X56576535Y-34990000D01*
X56823465Y-34990000D01*
X57067028Y-34949356D01*
X57300573Y-34869180D01*
X57517751Y-34751649D01*
X57614714Y-34676180D01*
X57667141Y-34652326D01*
X57724690Y-34654733D01*
X57774943Y-34682881D01*
X57807057Y-34730697D01*
X57809111Y-34736204D01*
X57896738Y-34853261D01*
X58013796Y-34940889D01*
X58150794Y-34991988D01*
X58150797Y-34991988D01*
X58150799Y-34991989D01*
X58211362Y-34998500D01*
X60288634Y-34998500D01*
X60288638Y-34998500D01*
X60349201Y-34991989D01*
X60349203Y-34991988D01*
X60349205Y-34991988D01*
X60427124Y-34962924D01*
X60486204Y-34940889D01*
X60603261Y-34853261D01*
X60690889Y-34736204D01*
X60713277Y-34676180D01*
X60741988Y-34599205D01*
X60741988Y-34599203D01*
X60741989Y-34599201D01*
X60748500Y-34538638D01*
X60748500Y-33500000D01*
X95646363Y-33500000D01*
X95666871Y-33747485D01*
X95666871Y-33747488D01*
X95666872Y-33747490D01*
X95727835Y-33988230D01*
X95827592Y-34215652D01*
X95963420Y-34423552D01*
X96069364Y-34538638D01*
X96131618Y-34606264D01*
X96327583Y-34758790D01*
X96327585Y-34758791D01*
X96327589Y-34758794D01*
X96545996Y-34876990D01*
X96780879Y-34957625D01*
X97025831Y-34998500D01*
X97274169Y-34998500D01*
X97519121Y-34957625D01*
X97754004Y-34876990D01*
X97972411Y-34758794D01*
X98026771Y-34716484D01*
X98837068Y-34716484D01*
X98882254Y-34751653D01*
X99099423Y-34869179D01*
X99332971Y-34949356D01*
X99576535Y-34990000D01*
X99823465Y-34990000D01*
X100067028Y-34949356D01*
X100300573Y-34869180D01*
X100517751Y-34751649D01*
X100614714Y-34676180D01*
X100667141Y-34652326D01*
X100724690Y-34654733D01*
X100774943Y-34682881D01*
X100807057Y-34730697D01*
X100809111Y-34736204D01*
X100896738Y-34853261D01*
X101013796Y-34940889D01*
X101150794Y-34991988D01*
X101150797Y-34991988D01*
X101150799Y-34991989D01*
X101211362Y-34998500D01*
X103288634Y-34998500D01*
X103288638Y-34998500D01*
X103349201Y-34991989D01*
X103349203Y-34991988D01*
X103349205Y-34991988D01*
X103427124Y-34962924D01*
X103486204Y-34940889D01*
X103603261Y-34853261D01*
X103690889Y-34736204D01*
X103713277Y-34676180D01*
X103741988Y-34599205D01*
X103741988Y-34599203D01*
X103741989Y-34599201D01*
X103748500Y-34538638D01*
X103748500Y-32461362D01*
X103741989Y-32400799D01*
X103741988Y-32400797D01*
X103741988Y-32400794D01*
X103690889Y-32263796D01*
X103603261Y-32146738D01*
X103486203Y-32059110D01*
X103349205Y-32008011D01*
X103318919Y-32004755D01*
X103288638Y-32001500D01*
X101211362Y-32001500D01*
X101184445Y-32004393D01*
X101150794Y-32008011D01*
X101013796Y-32059110D01*
X100896738Y-32146738D01*
X100809111Y-32263795D01*
X100807057Y-32269303D01*
X100774943Y-32317119D01*
X100724690Y-32345267D01*
X100667141Y-32347674D01*
X100614714Y-32323820D01*
X100517751Y-32248350D01*
X100300573Y-32130819D01*
X100067028Y-32050643D01*
X99823465Y-32010000D01*
X99576535Y-32010000D01*
X99332971Y-32050643D01*
X99099426Y-32130819D01*
X98882250Y-32248349D01*
X98837068Y-32283514D01*
X98837068Y-32283516D01*
X99700000Y-33146447D01*
X99965871Y-33412318D01*
X99997965Y-33467905D01*
X99997965Y-33532093D01*
X99965871Y-33587680D01*
X98837068Y-34716483D01*
X98837068Y-34716484D01*
X98026771Y-34716484D01*
X98168385Y-34606261D01*
X98336580Y-34423552D01*
X98341811Y-34415545D01*
X98392312Y-34371407D01*
X98458414Y-34360025D01*
X98483790Y-34362656D01*
X99346447Y-33500001D01*
X99346447Y-33500000D01*
X98483790Y-32637342D01*
X98458412Y-32639974D01*
X98392315Y-32628592D01*
X98341813Y-32584457D01*
X98336582Y-32576451D01*
X98336581Y-32576450D01*
X98336580Y-32576448D01*
X98168385Y-32393739D01*
X98168383Y-32393738D01*
X98168381Y-32393735D01*
X97972416Y-32241209D01*
X97972412Y-32241206D01*
X97972411Y-32241206D01*
X97754004Y-32123010D01*
X97754003Y-32123009D01*
X97754000Y-32123008D01*
X97519122Y-32042375D01*
X97274169Y-32001500D01*
X97025831Y-32001500D01*
X96780877Y-32042375D01*
X96545999Y-32123008D01*
X96327583Y-32241209D01*
X96131618Y-32393735D01*
X96069360Y-32461366D01*
X95963420Y-32576448D01*
X95827592Y-32784348D01*
X95727835Y-33011770D01*
X95666872Y-33252510D01*
X95666871Y-33252514D01*
X95646363Y-33500000D01*
X60748500Y-33500000D01*
X60748500Y-32461362D01*
X60741989Y-32400799D01*
X60741988Y-32400797D01*
X60741988Y-32400794D01*
X60690889Y-32263796D01*
X60603261Y-32146738D01*
X60486203Y-32059110D01*
X60349205Y-32008011D01*
X60318919Y-32004755D01*
X60288638Y-32001500D01*
X58211362Y-32001500D01*
X58184445Y-32004393D01*
X58150794Y-32008011D01*
X58013796Y-32059110D01*
X57896738Y-32146738D01*
X57809111Y-32263795D01*
X57807057Y-32269303D01*
X57774943Y-32317119D01*
X57724690Y-32345267D01*
X57667141Y-32347674D01*
X57614714Y-32323820D01*
X57517751Y-32248350D01*
X57300573Y-32130819D01*
X57067028Y-32050643D01*
X56823465Y-32010000D01*
X56576535Y-32010000D01*
X56332971Y-32050643D01*
X56099426Y-32130819D01*
X55882250Y-32248349D01*
X55837068Y-32283514D01*
X55837068Y-32283516D01*
X56700000Y-33146447D01*
X56965871Y-33412318D01*
X56997965Y-33467905D01*
X56997965Y-33532093D01*
X56965871Y-33587680D01*
X55837068Y-34716483D01*
X55837068Y-34716484D01*
X55026771Y-34716484D01*
X55168385Y-34606261D01*
X55336580Y-34423552D01*
X55341811Y-34415545D01*
X55392312Y-34371407D01*
X55458414Y-34360025D01*
X55483790Y-34362656D01*
X56346447Y-33500001D01*
X56346447Y-33500000D01*
X55483790Y-32637342D01*
X55458412Y-32639974D01*
X55392315Y-32628592D01*
X55341813Y-32584457D01*
X55336582Y-32576451D01*
X55336581Y-32576450D01*
X55336580Y-32576448D01*
X55168385Y-32393739D01*
X55168383Y-32393738D01*
X55168381Y-32393735D01*
X54972416Y-32241209D01*
X54972412Y-32241206D01*
X54972411Y-32241206D01*
X54754004Y-32123010D01*
X54754003Y-32123009D01*
X54754000Y-32123008D01*
X54519122Y-32042375D01*
X54274169Y-32001500D01*
X54025831Y-32001500D01*
X53780877Y-32042375D01*
X53545999Y-32123008D01*
X53327583Y-32241209D01*
X53131618Y-32393735D01*
X53069360Y-32461366D01*
X52963420Y-32576448D01*
X52827592Y-32784348D01*
X52727835Y-33011770D01*
X52666872Y-33252510D01*
X52666871Y-33252514D01*
X52646363Y-33500000D01*
X45658352Y-33500000D01*
X45794515Y-33410445D01*
X45937180Y-33290734D01*
X45937181Y-33290733D01*
X44000000Y-31353553D01*
X42062818Y-33290733D01*
X27178000Y-33290733D01*
X27178000Y-30999999D01*
X40994915Y-30999999D01*
X41015235Y-31348869D01*
X41075916Y-31693014D01*
X41176146Y-32027799D01*
X41314560Y-32348681D01*
X41489288Y-32651320D01*
X41697971Y-32931630D01*
X41706147Y-32940297D01*
X41706149Y-32940298D01*
X43646447Y-31000001D01*
X43646447Y-31000000D01*
X44353553Y-31000000D01*
X46293851Y-32940298D01*
X46302026Y-32931632D01*
X46510711Y-32651320D01*
X46685439Y-32348681D01*
X46823853Y-32027799D01*
X46924083Y-31693014D01*
X46984764Y-31348869D01*
X47005084Y-30999999D01*
X150994915Y-30999999D01*
X151015235Y-31348869D01*
X151075916Y-31693014D01*
X151176146Y-32027799D01*
X151314560Y-32348681D01*
X151489288Y-32651320D01*
X151697971Y-32931630D01*
X151706147Y-32940297D01*
X151706149Y-32940298D01*
X153646447Y-31000001D01*
X154353553Y-31000001D01*
X156293850Y-32940298D01*
X156293851Y-32940298D01*
X156302026Y-32931632D01*
X156510711Y-32651320D01*
X156685439Y-32348681D01*
X156823853Y-32027799D01*
X156924083Y-31693014D01*
X156984764Y-31348869D01*
X157005084Y-30999999D01*
X156984764Y-30651130D01*
X156924083Y-30306985D01*
X156823853Y-29972200D01*
X156685439Y-29651318D01*
X156510711Y-29348679D01*
X156302027Y-29068369D01*
X156293850Y-29059701D01*
X156293850Y-29059700D01*
X154353553Y-31000000D01*
X154353553Y-31000001D01*
X153646447Y-31000001D01*
X153646447Y-31000000D01*
X151706148Y-29059701D01*
X151706146Y-29059701D01*
X151697974Y-29068365D01*
X151489288Y-29348679D01*
X151314560Y-29651318D01*
X151176146Y-29972200D01*
X151075916Y-30306985D01*
X151015235Y-30651130D01*
X150994915Y-30999999D01*
X47005084Y-30999999D01*
X46984764Y-30651130D01*
X46924083Y-30306985D01*
X46823853Y-29972200D01*
X46685439Y-29651318D01*
X46510711Y-29348679D01*
X46302027Y-29068369D01*
X46293850Y-29059701D01*
X46293850Y-29059700D01*
X44353553Y-31000000D01*
X43646447Y-31000000D01*
X41706148Y-29059701D01*
X41706146Y-29059701D01*
X41697974Y-29068365D01*
X41489288Y-29348679D01*
X41314560Y-29651318D01*
X41176146Y-29972200D01*
X41075916Y-30306985D01*
X41015235Y-30651130D01*
X40994915Y-30999999D01*
X27178000Y-30999999D01*
X27178000Y-28709264D01*
X42062817Y-28709264D01*
X44000000Y-30646447D01*
X44000001Y-30646447D01*
X45937180Y-28709265D01*
X45937179Y-28709264D01*
X152062817Y-28709264D01*
X154000000Y-30646447D01*
X154000001Y-30646447D01*
X155937180Y-28709265D01*
X155794510Y-28589551D01*
X155502535Y-28397517D01*
X155190255Y-28240683D01*
X154861871Y-28121162D01*
X154521828Y-28040570D01*
X154174726Y-28000000D01*
X153825274Y-28000000D01*
X153478171Y-28040570D01*
X153138128Y-28121162D01*
X152809744Y-28240683D01*
X152497464Y-28397517D01*
X152205484Y-28589554D01*
X152062817Y-28709264D01*
X45937179Y-28709264D01*
X45794510Y-28589551D01*
X45502535Y-28397517D01*
X45190255Y-28240683D01*
X44861871Y-28121162D01*
X44521828Y-28040570D01*
X44174726Y-28000000D01*
X43825274Y-28000000D01*
X43478171Y-28040570D01*
X43138128Y-28121162D01*
X42809744Y-28240683D01*
X42497464Y-28397517D01*
X42205484Y-28589554D01*
X42062817Y-28709264D01*
X27178000Y-28709264D01*
X27178000Y-27048000D01*
X27194613Y-26986000D01*
X27240000Y-26940613D01*
X27302000Y-26924000D01*
X171834000Y-26924000D01*
X171896000Y-26940613D01*
G37*
G04 #@! TD.AperFunction*
M02*
