G04 #@! TF.GenerationSoftware,KiCad,Pcbnew,7.0.1-0*
G04 #@! TF.CreationDate,2023-03-16T18:26:04+00:00*
G04 #@! TF.ProjectId,tail-lights,7461696c-2d6c-4696-9768-74732e6b6963,rev?*
G04 #@! TF.SameCoordinates,Original*
G04 #@! TF.FileFunction,Soldermask,Top*
G04 #@! TF.FilePolarity,Negative*
%FSLAX46Y46*%
G04 Gerber Fmt 4.6, Leading zero omitted, Abs format (unit mm)*
G04 Created by KiCad (PCBNEW 7.0.1-0) date 2023-03-16 18:26:04*
%MOMM*%
%LPD*%
G01*
G04 APERTURE LIST*
G04 Aperture macros list*
%AMRoundRect*
0 Rectangle with rounded corners*
0 $1 Rounding radius*
0 $2 $3 $4 $5 $6 $7 $8 $9 X,Y pos of 4 corners*
0 Add a 4 corners polygon primitive as box body*
4,1,4,$2,$3,$4,$5,$6,$7,$8,$9,$2,$3,0*
0 Add four circle primitives for the rounded corners*
1,1,$1+$1,$2,$3*
1,1,$1+$1,$4,$5*
1,1,$1+$1,$6,$7*
1,1,$1+$1,$8,$9*
0 Add four rect primitives between the rounded corners*
20,1,$1+$1,$2,$3,$4,$5,0*
20,1,$1+$1,$4,$5,$6,$7,0*
20,1,$1+$1,$6,$7,$8,$9,0*
20,1,$1+$1,$8,$9,$2,$3,0*%
G04 Aperture macros list end*
%ADD10R,0.950000X3.300000*%
%ADD11R,1.400000X1.200000*%
%ADD12R,2.330000X2.380000*%
%ADD13R,1.100000X2.380000*%
%ADD14R,0.450000X1.400000*%
%ADD15R,1.200000X1.000000*%
%ADD16R,1.200000X3.300000*%
%ADD17R,0.600000X1.500000*%
%ADD18R,1.500000X0.600000*%
%ADD19RoundRect,0.250000X0.450000X-0.262500X0.450000X0.262500X-0.450000X0.262500X-0.450000X-0.262500X0*%
%ADD20RoundRect,0.250000X-0.450000X0.262500X-0.450000X-0.262500X0.450000X-0.262500X0.450000X0.262500X0*%
%ADD21RoundRect,0.225000X0.225000X0.250000X-0.225000X0.250000X-0.225000X-0.250000X0.225000X-0.250000X0*%
%ADD22RoundRect,0.250000X-0.262500X-0.450000X0.262500X-0.450000X0.262500X0.450000X-0.262500X0.450000X0*%
%ADD23RoundRect,0.225000X-0.225000X-0.250000X0.225000X-0.250000X0.225000X0.250000X-0.225000X0.250000X0*%
%ADD24R,1.700000X1.700000*%
%ADD25O,1.700000X1.700000*%
%ADD26RoundRect,0.250000X0.262500X0.450000X-0.262500X0.450000X-0.262500X-0.450000X0.262500X-0.450000X0*%
%ADD27C,5.000000*%
%ADD28RoundRect,0.250000X-1.125000X-1.125000X1.125000X-1.125000X1.125000X1.125000X-1.125000X1.125000X0*%
%ADD29RoundRect,0.250000X0.475000X-0.250000X0.475000X0.250000X-0.475000X0.250000X-0.475000X-0.250000X0*%
%ADD30RoundRect,0.225000X-0.250000X0.225000X-0.250000X-0.225000X0.250000X-0.225000X0.250000X0.225000X0*%
%ADD31RoundRect,0.225000X0.250000X-0.225000X0.250000X0.225000X-0.250000X0.225000X-0.250000X-0.225000X0*%
G04 APERTURE END LIST*
D10*
X75184000Y-51562000D03*
X72134000Y-51562000D03*
D11*
X76910000Y-103434000D03*
X79110000Y-103434000D03*
X79110000Y-101734000D03*
X76910000Y-101734000D03*
D12*
X167200000Y-128000000D03*
D13*
X169415000Y-128000000D03*
D12*
X158200000Y-128000000D03*
D13*
X160415000Y-128000000D03*
D12*
X149200000Y-128000000D03*
D13*
X151415000Y-128000000D03*
D12*
X140200000Y-128000000D03*
D13*
X142415000Y-128000000D03*
D12*
X167200000Y-110400000D03*
D13*
X169415000Y-110400000D03*
D12*
X158200000Y-110400000D03*
D13*
X160415000Y-110400000D03*
D12*
X149200000Y-110400000D03*
D13*
X151415000Y-110400000D03*
D12*
X140200000Y-110400000D03*
D13*
X142415000Y-110400000D03*
D12*
X167200000Y-92800000D03*
D13*
X169415000Y-92800000D03*
D12*
X158200000Y-92800000D03*
D13*
X160415000Y-92800000D03*
D12*
X149200000Y-92800000D03*
D13*
X151415000Y-92800000D03*
D12*
X140200000Y-92800000D03*
D13*
X142415000Y-92800000D03*
D12*
X167200000Y-75200000D03*
D13*
X169415000Y-75200000D03*
D12*
X158200000Y-75200000D03*
D13*
X160415000Y-75200000D03*
D12*
X149200000Y-75200000D03*
D13*
X151415000Y-75200000D03*
D12*
X140200000Y-75200000D03*
D13*
X142415000Y-75200000D03*
D12*
X167200000Y-57600000D03*
D13*
X169415000Y-57600000D03*
D12*
X158200000Y-57600000D03*
D13*
X160415000Y-57600000D03*
D12*
X149200000Y-57600000D03*
D13*
X151415000Y-57600000D03*
D12*
X140200000Y-57600000D03*
D13*
X142415000Y-57600000D03*
D12*
X167200000Y-40000000D03*
D13*
X169415000Y-40000000D03*
D12*
X158200000Y-40000000D03*
D13*
X160415000Y-40000000D03*
D12*
X149200000Y-40000000D03*
D13*
X151415000Y-40000000D03*
D12*
X140200000Y-40000000D03*
D13*
X142415000Y-40000000D03*
D12*
X112200000Y-128000000D03*
D13*
X114415000Y-128000000D03*
D12*
X103200000Y-128000000D03*
D13*
X105415000Y-128000000D03*
D12*
X94200000Y-128000000D03*
D13*
X96415000Y-128000000D03*
D12*
X85200000Y-128000000D03*
D13*
X87415000Y-128000000D03*
D12*
X112200000Y-110400000D03*
D13*
X114415000Y-110400000D03*
D12*
X103200000Y-110400000D03*
D13*
X105415000Y-110400000D03*
D12*
X94200000Y-110400000D03*
D13*
X96415000Y-110400000D03*
D12*
X85200000Y-110400000D03*
D13*
X87415000Y-110400000D03*
D12*
X112200000Y-92800000D03*
D13*
X114415000Y-92800000D03*
D12*
X103200000Y-92800000D03*
D13*
X105415000Y-92800000D03*
D12*
X94200000Y-92800000D03*
D13*
X96415000Y-92800000D03*
D12*
X85200000Y-92800000D03*
D13*
X87415000Y-92800000D03*
D12*
X112200000Y-75200000D03*
D13*
X114415000Y-75200000D03*
D12*
X103200000Y-75200000D03*
D13*
X105415000Y-75200000D03*
D12*
X94200000Y-75200000D03*
D13*
X96415000Y-75200000D03*
D12*
X85200000Y-75200000D03*
D13*
X87415000Y-75200000D03*
D12*
X112200000Y-57600000D03*
D13*
X114415000Y-57600000D03*
D12*
X103200000Y-57600000D03*
D13*
X105415000Y-57600000D03*
D12*
X94200000Y-57600000D03*
D13*
X96415000Y-57600000D03*
D12*
X85200000Y-57600000D03*
D13*
X87415000Y-57600000D03*
D12*
X112200000Y-40000000D03*
D13*
X114415000Y-40000000D03*
D12*
X103200000Y-40000000D03*
D13*
X105415000Y-40000000D03*
D12*
X94200000Y-40000000D03*
D13*
X96415000Y-40000000D03*
D12*
X85200000Y-40000000D03*
D13*
X87415000Y-40000000D03*
D12*
X57200000Y-128000000D03*
D13*
X59415000Y-128000000D03*
D12*
X48200000Y-128000000D03*
D13*
X50415000Y-128000000D03*
D12*
X39200000Y-128000000D03*
D13*
X41415000Y-128000000D03*
D12*
X30200000Y-128000000D03*
D13*
X32415000Y-128000000D03*
D12*
X57200000Y-110400000D03*
D13*
X59415000Y-110400000D03*
D12*
X48200000Y-110400000D03*
D13*
X50415000Y-110400000D03*
D12*
X39200000Y-110400000D03*
D13*
X41415000Y-110400000D03*
D12*
X30200000Y-110400000D03*
D13*
X32415000Y-110400000D03*
D12*
X57200000Y-92800000D03*
D13*
X59415000Y-92800000D03*
D12*
X48200000Y-92800000D03*
D13*
X50415000Y-92800000D03*
D12*
X39200000Y-92800000D03*
D13*
X41415000Y-92800000D03*
D12*
X30200000Y-92800000D03*
D13*
X32415000Y-92800000D03*
D12*
X57200000Y-75200000D03*
D13*
X59415000Y-75200000D03*
D12*
X48200000Y-75200000D03*
D13*
X50415000Y-75200000D03*
D12*
X39200000Y-75200000D03*
D13*
X41415000Y-75200000D03*
D12*
X30200000Y-75200000D03*
D13*
X32415000Y-75200000D03*
D12*
X57200000Y-57600000D03*
D13*
X59415000Y-57600000D03*
D12*
X48200000Y-57600000D03*
D13*
X50415000Y-57600000D03*
D12*
X39200000Y-57600000D03*
D13*
X41415000Y-57600000D03*
D12*
X30200000Y-57600000D03*
D13*
X32415000Y-57600000D03*
D12*
X57200000Y-40000000D03*
D13*
X59415000Y-40000000D03*
D12*
X48200000Y-40000000D03*
D13*
X50415000Y-40000000D03*
D12*
X39200000Y-40000000D03*
D13*
X41415000Y-40000000D03*
D12*
X30200000Y-40000000D03*
D13*
X32415000Y-40000000D03*
D14*
X76921000Y-36662000D03*
X76271000Y-36662000D03*
X75621000Y-36662000D03*
X74971000Y-36662000D03*
X74971000Y-41062000D03*
X75621000Y-41062000D03*
X76271000Y-41062000D03*
X76921000Y-41062000D03*
D15*
X157832000Y-121426000D03*
X157832000Y-119126000D03*
X157832000Y-116826000D03*
D16*
X151032000Y-119126000D03*
D15*
X102968000Y-121426000D03*
X102968000Y-119126000D03*
X102968000Y-116826000D03*
D16*
X96168000Y-119126000D03*
D15*
X47850000Y-121426000D03*
X47850000Y-119126000D03*
X47850000Y-116826000D03*
D16*
X41050000Y-119126000D03*
D17*
X72924000Y-98706000D03*
X73724000Y-98706000D03*
X74524000Y-98706000D03*
X75324000Y-98706000D03*
X76124000Y-98706000D03*
X76924000Y-98706000D03*
X77724000Y-98706000D03*
X78524000Y-98706000D03*
D18*
X79974000Y-97256000D03*
X79974000Y-96456000D03*
X79974000Y-95656000D03*
X79974000Y-94856000D03*
X79974000Y-94056000D03*
X79974000Y-93256000D03*
X79974000Y-92456000D03*
X79974000Y-91656000D03*
D17*
X78524000Y-90206000D03*
X77724000Y-90206000D03*
X76924000Y-90206000D03*
X76124000Y-90206000D03*
X75324000Y-90206000D03*
X74524000Y-90206000D03*
X73724000Y-90206000D03*
X72924000Y-90206000D03*
D18*
X71474000Y-91656000D03*
X71474000Y-92456000D03*
X71474000Y-93256000D03*
X71474000Y-94056000D03*
X71474000Y-94856000D03*
X71474000Y-95656000D03*
X71474000Y-96456000D03*
X71474000Y-97256000D03*
D19*
X80772000Y-108505000D03*
X80772000Y-106680000D03*
D20*
X74422000Y-106680000D03*
X74422000Y-108505000D03*
X79026000Y-110712000D03*
X79026000Y-112537000D03*
D21*
X70117000Y-105410000D03*
X68567000Y-105410000D03*
D22*
X68429500Y-108458000D03*
X70254500Y-108458000D03*
D23*
X75679000Y-33528000D03*
X77229000Y-33528000D03*
D19*
X73406000Y-81938500D03*
X73406000Y-80113500D03*
D24*
X70622000Y-124460000D03*
D25*
X73162000Y-124460000D03*
X75702000Y-124460000D03*
X78242000Y-124460000D03*
D26*
X72691000Y-72390000D03*
X70866000Y-72390000D03*
D27*
X44500000Y-137500000D03*
D19*
X72898000Y-112569000D03*
X72898000Y-110744000D03*
D28*
X120650000Y-82042000D03*
D21*
X76721000Y-87376000D03*
X75171000Y-87376000D03*
D29*
X66294000Y-39304000D03*
X66294000Y-37404000D03*
D30*
X75978000Y-110849500D03*
X75978000Y-112399500D03*
D31*
X70104000Y-81547000D03*
X70104000Y-79997000D03*
D27*
X154500000Y-30500000D03*
D19*
X70612000Y-41910000D03*
X70612000Y-40085000D03*
D24*
X78486000Y-64770000D03*
D25*
X78486000Y-67310000D03*
X78486000Y-69850000D03*
X78486000Y-72390000D03*
X78486000Y-74930000D03*
X78486000Y-77470000D03*
D30*
X77470000Y-106817500D03*
X77470000Y-108367500D03*
D28*
X120650000Y-87630000D03*
D26*
X71778500Y-74930000D03*
X69953500Y-74930000D03*
D22*
X73509500Y-45720000D03*
X75334500Y-45720000D03*
D19*
X70612000Y-37488500D03*
X70612000Y-35663500D03*
D27*
X154500000Y-137500000D03*
D26*
X70254500Y-102362000D03*
X68429500Y-102362000D03*
D27*
X44500000Y-30500000D03*
M02*
