M48
; DRILL file {KiCad 7.0.1-0} date 2023 March 16, Thursday 18:26:44
; FORMAT={-:-/ absolute / metric / decimal}
; #@! TF.CreationDate,2023-03-16T18:26:44+00:00
; #@! TF.GenerationSoftware,Kicad,Pcbnew,7.0.1-0
; #@! TF.FileFunction,Plated,1,2,PTH
FMAT,2
METRIC
; #@! TA.AperFunction,Plated,PTH,ViaDrill
T1C0.100
; #@! TA.AperFunction,Plated,PTH,ViaDrill
T2C0.500
; #@! TA.AperFunction,Plated,PTH,ComponentDrill
T3C1.000
; #@! TA.AperFunction,Plated,PTH,ComponentDrill
T4C1.750
; #@! TA.AperFunction,Plated,PTH,ComponentDrill
T5C2.500
%
G90
G05
T1
X50.8Y-121.412
X61.468Y-121.412
X66.548Y-87.376
X68.834Y-94.868
X75.324Y-94.094
X76.153Y-108.505
X77.338Y-112.399
X78.518Y-104.616
X85.09Y-97.79
X85.141Y-96.723
X90.424Y-114.046
X118.11Y-105.664
X138.43Y-122.936
X159.512Y-121.412
T2
X53.594Y-116.84
X67.564Y-116.84
X81.28Y-35.052
X108.444Y-116.826
X163.322Y-116.84
T3
X70.622Y-124.46
X73.162Y-124.46
X75.702Y-124.46
X78.242Y-124.46
X78.486Y-64.77
X78.486Y-67.31
X78.486Y-69.85
X78.486Y-72.39
X78.486Y-74.93
X78.486Y-77.47
T4
X120.65Y-82.042
X120.65Y-87.63
T5
X44.5Y-30.5
X44.5Y-137.5
X154.5Y-30.5
X154.5Y-137.5
T0
M30
