G04 #@! TF.GenerationSoftware,KiCad,Pcbnew,7.0.1-0*
G04 #@! TF.CreationDate,2024-01-25T19:49:42+00:00*
G04 #@! TF.ProjectId,tail-lights,7461696c-2d6c-4696-9768-74732e6b6963,rev?*
G04 #@! TF.SameCoordinates,Original*
G04 #@! TF.FileFunction,Legend,Top*
G04 #@! TF.FilePolarity,Positive*
%FSLAX46Y46*%
G04 Gerber Fmt 4.6, Leading zero omitted, Abs format (unit mm)*
G04 Created by KiCad (PCBNEW 7.0.1-0) date 2024-01-25 19:49:42*
%MOMM*%
%LPD*%
G01*
G04 APERTURE LIST*
G04 Aperture macros list*
%AMRoundRect*
0 Rectangle with rounded corners*
0 $1 Rounding radius*
0 $2 $3 $4 $5 $6 $7 $8 $9 X,Y pos of 4 corners*
0 Add a 4 corners polygon primitive as box body*
4,1,4,$2,$3,$4,$5,$6,$7,$8,$9,$2,$3,0*
0 Add four circle primitives for the rounded corners*
1,1,$1+$1,$2,$3*
1,1,$1+$1,$4,$5*
1,1,$1+$1,$6,$7*
1,1,$1+$1,$8,$9*
0 Add four rect primitives between the rounded corners*
20,1,$1+$1,$2,$3,$4,$5,0*
20,1,$1+$1,$4,$5,$6,$7,0*
20,1,$1+$1,$6,$7,$8,$9,0*
20,1,$1+$1,$8,$9,$2,$3,0*%
%AMRotRect*
0 Rectangle, with rotation*
0 The origin of the aperture is its center*
0 $1 length*
0 $2 width*
0 $3 Rotation angle, in degrees counterclockwise*
0 Add horizontal line*
21,1,$1,$2,0,0,$3*%
G04 Aperture macros list end*
%ADD10C,0.150000*%
%ADD11C,0.200000*%
%ADD12C,0.300000*%
%ADD13C,0.254000*%
%ADD14C,0.100000*%
%ADD15C,0.120000*%
%ADD16C,0.010000*%
%ADD17C,0.400000*%
%ADD18R,2.330000X2.380000*%
%ADD19R,1.100000X2.380000*%
%ADD20RoundRect,0.250000X0.450000X-0.262500X0.450000X0.262500X-0.450000X0.262500X-0.450000X-0.262500X0*%
%ADD21RoundRect,0.250000X-0.262500X-0.450000X0.262500X-0.450000X0.262500X0.450000X-0.262500X0.450000X0*%
%ADD22R,1.200000X1.000000*%
%ADD23R,1.200000X3.300000*%
%ADD24RoundRect,0.225000X-0.225000X-0.250000X0.225000X-0.250000X0.225000X0.250000X-0.225000X0.250000X0*%
%ADD25R,1.700000X1.700000*%
%ADD26RoundRect,0.225000X0.225000X0.250000X-0.225000X0.250000X-0.225000X-0.250000X0.225000X-0.250000X0*%
%ADD27R,1.980000X1.980000*%
%ADD28C,1.980000*%
%ADD29O,1.700000X1.700000*%
%ADD30RoundRect,0.250000X0.262500X0.450000X-0.262500X0.450000X-0.262500X-0.450000X0.262500X-0.450000X0*%
%ADD31RoundRect,0.250000X-1.125000X-1.125000X1.125000X-1.125000X1.125000X1.125000X-1.125000X1.125000X0*%
%ADD32C,5.000000*%
%ADD33RoundRect,0.225000X0.250000X-0.225000X0.250000X0.225000X-0.250000X0.225000X-0.250000X-0.225000X0*%
%ADD34RoundRect,0.250000X-0.250000X-0.475000X0.250000X-0.475000X0.250000X0.475000X-0.250000X0.475000X0*%
%ADD35RotRect,1.200000X1.400000X45.000000*%
%ADD36R,0.450000X1.400000*%
%ADD37R,0.600000X1.500000*%
%ADD38R,1.500000X0.600000*%
%ADD39R,1.600000X5.700000*%
G04 APERTURE END LIST*
D10*
X137094000Y-36830000D02*
X171958000Y-36830000D01*
X171958000Y-131828000D01*
X137094000Y-131828000D01*
X137094000Y-36830000D01*
X120750000Y-44000000D02*
X134500000Y-44000000D01*
X134500000Y-73000000D01*
X120750000Y-73000000D01*
X120750000Y-44000000D01*
X82094000Y-36828000D02*
X117094000Y-36828000D01*
X117094000Y-131828000D01*
X82094000Y-131828000D01*
X82094000Y-36828000D01*
X27432000Y-36830000D02*
X62094000Y-36830000D01*
X62094000Y-131828000D01*
X27432000Y-131828000D01*
X27432000Y-36830000D01*
D11*
X130214286Y-90443928D02*
X129500000Y-90443928D01*
X129500000Y-90443928D02*
X129428572Y-91158214D01*
X129428572Y-91158214D02*
X129500000Y-91086785D01*
X129500000Y-91086785D02*
X129642858Y-91015357D01*
X129642858Y-91015357D02*
X130000000Y-91015357D01*
X130000000Y-91015357D02*
X130142858Y-91086785D01*
X130142858Y-91086785D02*
X130214286Y-91158214D01*
X130214286Y-91158214D02*
X130285715Y-91301071D01*
X130285715Y-91301071D02*
X130285715Y-91658214D01*
X130285715Y-91658214D02*
X130214286Y-91801071D01*
X130214286Y-91801071D02*
X130142858Y-91872500D01*
X130142858Y-91872500D02*
X130000000Y-91943928D01*
X130000000Y-91943928D02*
X129642858Y-91943928D01*
X129642858Y-91943928D02*
X129500000Y-91872500D01*
X129500000Y-91872500D02*
X129428572Y-91801071D01*
X130714286Y-90443928D02*
X131214286Y-91943928D01*
X131214286Y-91943928D02*
X131714286Y-90443928D01*
X77000000Y-46693928D02*
X76500000Y-45979642D01*
X76142857Y-46693928D02*
X76142857Y-45193928D01*
X76142857Y-45193928D02*
X76714286Y-45193928D01*
X76714286Y-45193928D02*
X76857143Y-45265357D01*
X76857143Y-45265357D02*
X76928572Y-45336785D01*
X76928572Y-45336785D02*
X77000000Y-45479642D01*
X77000000Y-45479642D02*
X77000000Y-45693928D01*
X77000000Y-45693928D02*
X76928572Y-45836785D01*
X76928572Y-45836785D02*
X76857143Y-45908214D01*
X76857143Y-45908214D02*
X76714286Y-45979642D01*
X76714286Y-45979642D02*
X76142857Y-45979642D01*
X77500000Y-45193928D02*
X78500000Y-46693928D01*
X78500000Y-45193928D02*
X77500000Y-46693928D01*
X131607143Y-38015357D02*
X131464286Y-37943928D01*
X131464286Y-37943928D02*
X131250000Y-37943928D01*
X131250000Y-37943928D02*
X131035714Y-38015357D01*
X131035714Y-38015357D02*
X130892857Y-38158214D01*
X130892857Y-38158214D02*
X130821428Y-38301071D01*
X130821428Y-38301071D02*
X130750000Y-38586785D01*
X130750000Y-38586785D02*
X130750000Y-38801071D01*
X130750000Y-38801071D02*
X130821428Y-39086785D01*
X130821428Y-39086785D02*
X130892857Y-39229642D01*
X130892857Y-39229642D02*
X131035714Y-39372500D01*
X131035714Y-39372500D02*
X131250000Y-39443928D01*
X131250000Y-39443928D02*
X131392857Y-39443928D01*
X131392857Y-39443928D02*
X131607143Y-39372500D01*
X131607143Y-39372500D02*
X131678571Y-39301071D01*
X131678571Y-39301071D02*
X131678571Y-38801071D01*
X131678571Y-38801071D02*
X131392857Y-38801071D01*
X132321428Y-39443928D02*
X132321428Y-37943928D01*
X132321428Y-37943928D02*
X133178571Y-39443928D01*
X133178571Y-39443928D02*
X133178571Y-37943928D01*
X133892857Y-39443928D02*
X133892857Y-37943928D01*
X133892857Y-37943928D02*
X134250000Y-37943928D01*
X134250000Y-37943928D02*
X134464286Y-38015357D01*
X134464286Y-38015357D02*
X134607143Y-38158214D01*
X134607143Y-38158214D02*
X134678572Y-38301071D01*
X134678572Y-38301071D02*
X134750000Y-38586785D01*
X134750000Y-38586785D02*
X134750000Y-38801071D01*
X134750000Y-38801071D02*
X134678572Y-39086785D01*
X134678572Y-39086785D02*
X134607143Y-39229642D01*
X134607143Y-39229642D02*
X134464286Y-39372500D01*
X134464286Y-39372500D02*
X134250000Y-39443928D01*
X134250000Y-39443928D02*
X133892857Y-39443928D01*
D10*
X76212619Y-125809523D02*
X76212619Y-126285713D01*
X76212619Y-126285713D02*
X75212619Y-126285713D01*
X76212619Y-125476189D02*
X75212619Y-125476189D01*
X75260238Y-124476190D02*
X75212619Y-124571428D01*
X75212619Y-124571428D02*
X75212619Y-124714285D01*
X75212619Y-124714285D02*
X75260238Y-124857142D01*
X75260238Y-124857142D02*
X75355476Y-124952380D01*
X75355476Y-124952380D02*
X75450714Y-124999999D01*
X75450714Y-124999999D02*
X75641190Y-125047618D01*
X75641190Y-125047618D02*
X75784047Y-125047618D01*
X75784047Y-125047618D02*
X75974523Y-124999999D01*
X75974523Y-124999999D02*
X76069761Y-124952380D01*
X76069761Y-124952380D02*
X76165000Y-124857142D01*
X76165000Y-124857142D02*
X76212619Y-124714285D01*
X76212619Y-124714285D02*
X76212619Y-124619047D01*
X76212619Y-124619047D02*
X76165000Y-124476190D01*
X76165000Y-124476190D02*
X76117380Y-124428571D01*
X76117380Y-124428571D02*
X75784047Y-124428571D01*
X75784047Y-124428571D02*
X75784047Y-124619047D01*
X76212619Y-123999999D02*
X75212619Y-123999999D01*
X75688809Y-123999999D02*
X75688809Y-123428571D01*
X76212619Y-123428571D02*
X75212619Y-123428571D01*
X75212619Y-123095237D02*
X75212619Y-122523809D01*
X76212619Y-122809523D02*
X75212619Y-122809523D01*
X76165000Y-122238094D02*
X76212619Y-122095237D01*
X76212619Y-122095237D02*
X76212619Y-121857142D01*
X76212619Y-121857142D02*
X76165000Y-121761904D01*
X76165000Y-121761904D02*
X76117380Y-121714285D01*
X76117380Y-121714285D02*
X76022142Y-121666666D01*
X76022142Y-121666666D02*
X75926904Y-121666666D01*
X75926904Y-121666666D02*
X75831666Y-121714285D01*
X75831666Y-121714285D02*
X75784047Y-121761904D01*
X75784047Y-121761904D02*
X75736428Y-121857142D01*
X75736428Y-121857142D02*
X75688809Y-122047618D01*
X75688809Y-122047618D02*
X75641190Y-122142856D01*
X75641190Y-122142856D02*
X75593571Y-122190475D01*
X75593571Y-122190475D02*
X75498333Y-122238094D01*
X75498333Y-122238094D02*
X75403095Y-122238094D01*
X75403095Y-122238094D02*
X75307857Y-122190475D01*
X75307857Y-122190475D02*
X75260238Y-122142856D01*
X75260238Y-122142856D02*
X75212619Y-122047618D01*
X75212619Y-122047618D02*
X75212619Y-121809523D01*
X75212619Y-121809523D02*
X75260238Y-121666666D01*
X70688809Y-125940476D02*
X70688809Y-126273809D01*
X71212619Y-126273809D02*
X70212619Y-126273809D01*
X70212619Y-126273809D02*
X70212619Y-125797619D01*
X71212619Y-124940476D02*
X71212619Y-125416666D01*
X71212619Y-125416666D02*
X70212619Y-125416666D01*
X70926904Y-124654761D02*
X70926904Y-124178571D01*
X71212619Y-124749999D02*
X70212619Y-124416666D01*
X70212619Y-124416666D02*
X71212619Y-124083333D01*
X71165000Y-123797618D02*
X71212619Y-123654761D01*
X71212619Y-123654761D02*
X71212619Y-123416666D01*
X71212619Y-123416666D02*
X71165000Y-123321428D01*
X71165000Y-123321428D02*
X71117380Y-123273809D01*
X71117380Y-123273809D02*
X71022142Y-123226190D01*
X71022142Y-123226190D02*
X70926904Y-123226190D01*
X70926904Y-123226190D02*
X70831666Y-123273809D01*
X70831666Y-123273809D02*
X70784047Y-123321428D01*
X70784047Y-123321428D02*
X70736428Y-123416666D01*
X70736428Y-123416666D02*
X70688809Y-123607142D01*
X70688809Y-123607142D02*
X70641190Y-123702380D01*
X70641190Y-123702380D02*
X70593571Y-123749999D01*
X70593571Y-123749999D02*
X70498333Y-123797618D01*
X70498333Y-123797618D02*
X70403095Y-123797618D01*
X70403095Y-123797618D02*
X70307857Y-123749999D01*
X70307857Y-123749999D02*
X70260238Y-123702380D01*
X70260238Y-123702380D02*
X70212619Y-123607142D01*
X70212619Y-123607142D02*
X70212619Y-123369047D01*
X70212619Y-123369047D02*
X70260238Y-123226190D01*
X71212619Y-122797618D02*
X70212619Y-122797618D01*
X70688809Y-122797618D02*
X70688809Y-122226190D01*
X71212619Y-122226190D02*
X70212619Y-122226190D01*
D12*
X68607142Y-137280714D02*
X69107142Y-137280714D01*
X69321428Y-138066428D02*
X68607142Y-138066428D01*
X68607142Y-138066428D02*
X68607142Y-136566428D01*
X68607142Y-136566428D02*
X69321428Y-136566428D01*
X70678571Y-138066428D02*
X69964285Y-138066428D01*
X69964285Y-138066428D02*
X69964285Y-136566428D01*
X71178571Y-137280714D02*
X71678571Y-137280714D01*
X71892857Y-138066428D02*
X71178571Y-138066428D01*
X71178571Y-138066428D02*
X71178571Y-136566428D01*
X71178571Y-136566428D02*
X71892857Y-136566428D01*
X73392857Y-137923571D02*
X73321429Y-137995000D01*
X73321429Y-137995000D02*
X73107143Y-138066428D01*
X73107143Y-138066428D02*
X72964286Y-138066428D01*
X72964286Y-138066428D02*
X72750000Y-137995000D01*
X72750000Y-137995000D02*
X72607143Y-137852142D01*
X72607143Y-137852142D02*
X72535714Y-137709285D01*
X72535714Y-137709285D02*
X72464286Y-137423571D01*
X72464286Y-137423571D02*
X72464286Y-137209285D01*
X72464286Y-137209285D02*
X72535714Y-136923571D01*
X72535714Y-136923571D02*
X72607143Y-136780714D01*
X72607143Y-136780714D02*
X72750000Y-136637857D01*
X72750000Y-136637857D02*
X72964286Y-136566428D01*
X72964286Y-136566428D02*
X73107143Y-136566428D01*
X73107143Y-136566428D02*
X73321429Y-136637857D01*
X73321429Y-136637857D02*
X73392857Y-136709285D01*
X73821429Y-136566428D02*
X74678572Y-136566428D01*
X74250000Y-138066428D02*
X74250000Y-136566428D01*
X76035714Y-138066428D02*
X75535714Y-137352142D01*
X75178571Y-138066428D02*
X75178571Y-136566428D01*
X75178571Y-136566428D02*
X75750000Y-136566428D01*
X75750000Y-136566428D02*
X75892857Y-136637857D01*
X75892857Y-136637857D02*
X75964286Y-136709285D01*
X75964286Y-136709285D02*
X76035714Y-136852142D01*
X76035714Y-136852142D02*
X76035714Y-137066428D01*
X76035714Y-137066428D02*
X75964286Y-137209285D01*
X75964286Y-137209285D02*
X75892857Y-137280714D01*
X75892857Y-137280714D02*
X75750000Y-137352142D01*
X75750000Y-137352142D02*
X75178571Y-137352142D01*
X76678571Y-138066428D02*
X76678571Y-136566428D01*
X78250000Y-137923571D02*
X78178572Y-137995000D01*
X78178572Y-137995000D02*
X77964286Y-138066428D01*
X77964286Y-138066428D02*
X77821429Y-138066428D01*
X77821429Y-138066428D02*
X77607143Y-137995000D01*
X77607143Y-137995000D02*
X77464286Y-137852142D01*
X77464286Y-137852142D02*
X77392857Y-137709285D01*
X77392857Y-137709285D02*
X77321429Y-137423571D01*
X77321429Y-137423571D02*
X77321429Y-137209285D01*
X77321429Y-137209285D02*
X77392857Y-136923571D01*
X77392857Y-136923571D02*
X77464286Y-136780714D01*
X77464286Y-136780714D02*
X77607143Y-136637857D01*
X77607143Y-136637857D02*
X77821429Y-136566428D01*
X77821429Y-136566428D02*
X77964286Y-136566428D01*
X77964286Y-136566428D02*
X78178572Y-136637857D01*
X78178572Y-136637857D02*
X78250000Y-136709285D01*
X80035714Y-138066428D02*
X80035714Y-136566428D01*
X80035714Y-136566428D02*
X80535714Y-137637857D01*
X80535714Y-137637857D02*
X81035714Y-136566428D01*
X81035714Y-136566428D02*
X81035714Y-138066428D01*
X81750000Y-136566428D02*
X81750000Y-137780714D01*
X81750000Y-137780714D02*
X81821429Y-137923571D01*
X81821429Y-137923571D02*
X81892858Y-137995000D01*
X81892858Y-137995000D02*
X82035715Y-138066428D01*
X82035715Y-138066428D02*
X82321429Y-138066428D01*
X82321429Y-138066428D02*
X82464286Y-137995000D01*
X82464286Y-137995000D02*
X82535715Y-137923571D01*
X82535715Y-137923571D02*
X82607143Y-137780714D01*
X82607143Y-137780714D02*
X82607143Y-136566428D01*
X83250001Y-137995000D02*
X83464287Y-138066428D01*
X83464287Y-138066428D02*
X83821429Y-138066428D01*
X83821429Y-138066428D02*
X83964287Y-137995000D01*
X83964287Y-137995000D02*
X84035715Y-137923571D01*
X84035715Y-137923571D02*
X84107144Y-137780714D01*
X84107144Y-137780714D02*
X84107144Y-137637857D01*
X84107144Y-137637857D02*
X84035715Y-137495000D01*
X84035715Y-137495000D02*
X83964287Y-137423571D01*
X83964287Y-137423571D02*
X83821429Y-137352142D01*
X83821429Y-137352142D02*
X83535715Y-137280714D01*
X83535715Y-137280714D02*
X83392858Y-137209285D01*
X83392858Y-137209285D02*
X83321429Y-137137857D01*
X83321429Y-137137857D02*
X83250001Y-136995000D01*
X83250001Y-136995000D02*
X83250001Y-136852142D01*
X83250001Y-136852142D02*
X83321429Y-136709285D01*
X83321429Y-136709285D02*
X83392858Y-136637857D01*
X83392858Y-136637857D02*
X83535715Y-136566428D01*
X83535715Y-136566428D02*
X83892858Y-136566428D01*
X83892858Y-136566428D02*
X84107144Y-136637857D01*
X84535715Y-136566428D02*
X85392858Y-136566428D01*
X84964286Y-138066428D02*
X84964286Y-136566428D01*
X85821429Y-137637857D02*
X86535715Y-137637857D01*
X85678572Y-138066428D02*
X86178572Y-136566428D01*
X86178572Y-136566428D02*
X86678572Y-138066428D01*
X87178571Y-138066428D02*
X87178571Y-136566428D01*
X87178571Y-136566428D02*
X88035714Y-138066428D01*
X88035714Y-138066428D02*
X88035714Y-136566428D01*
X89535715Y-136637857D02*
X89392858Y-136566428D01*
X89392858Y-136566428D02*
X89178572Y-136566428D01*
X89178572Y-136566428D02*
X88964286Y-136637857D01*
X88964286Y-136637857D02*
X88821429Y-136780714D01*
X88821429Y-136780714D02*
X88750000Y-136923571D01*
X88750000Y-136923571D02*
X88678572Y-137209285D01*
X88678572Y-137209285D02*
X88678572Y-137423571D01*
X88678572Y-137423571D02*
X88750000Y-137709285D01*
X88750000Y-137709285D02*
X88821429Y-137852142D01*
X88821429Y-137852142D02*
X88964286Y-137995000D01*
X88964286Y-137995000D02*
X89178572Y-138066428D01*
X89178572Y-138066428D02*
X89321429Y-138066428D01*
X89321429Y-138066428D02*
X89535715Y-137995000D01*
X89535715Y-137995000D02*
X89607143Y-137923571D01*
X89607143Y-137923571D02*
X89607143Y-137423571D01*
X89607143Y-137423571D02*
X89321429Y-137423571D01*
X91750000Y-138566428D02*
X91750000Y-136423571D01*
X93750000Y-136566428D02*
X94607143Y-136566428D01*
X94178571Y-138066428D02*
X94178571Y-136566428D01*
X95035714Y-137637857D02*
X95750000Y-137637857D01*
X94892857Y-138066428D02*
X95392857Y-136566428D01*
X95392857Y-136566428D02*
X95892857Y-138066428D01*
X96392856Y-138066428D02*
X96392856Y-136566428D01*
X97821428Y-138066428D02*
X97107142Y-138066428D01*
X97107142Y-138066428D02*
X97107142Y-136566428D01*
X100178571Y-138066428D02*
X99464285Y-138066428D01*
X99464285Y-138066428D02*
X99464285Y-136566428D01*
X100678571Y-138066428D02*
X100678571Y-136566428D01*
X102178572Y-136637857D02*
X102035715Y-136566428D01*
X102035715Y-136566428D02*
X101821429Y-136566428D01*
X101821429Y-136566428D02*
X101607143Y-136637857D01*
X101607143Y-136637857D02*
X101464286Y-136780714D01*
X101464286Y-136780714D02*
X101392857Y-136923571D01*
X101392857Y-136923571D02*
X101321429Y-137209285D01*
X101321429Y-137209285D02*
X101321429Y-137423571D01*
X101321429Y-137423571D02*
X101392857Y-137709285D01*
X101392857Y-137709285D02*
X101464286Y-137852142D01*
X101464286Y-137852142D02*
X101607143Y-137995000D01*
X101607143Y-137995000D02*
X101821429Y-138066428D01*
X101821429Y-138066428D02*
X101964286Y-138066428D01*
X101964286Y-138066428D02*
X102178572Y-137995000D01*
X102178572Y-137995000D02*
X102250000Y-137923571D01*
X102250000Y-137923571D02*
X102250000Y-137423571D01*
X102250000Y-137423571D02*
X101964286Y-137423571D01*
X102892857Y-138066428D02*
X102892857Y-136566428D01*
X102892857Y-137280714D02*
X103750000Y-137280714D01*
X103750000Y-138066428D02*
X103750000Y-136566428D01*
X104250001Y-136566428D02*
X105107144Y-136566428D01*
X104678572Y-138066428D02*
X104678572Y-136566428D01*
X107250000Y-137280714D02*
X107464286Y-137352142D01*
X107464286Y-137352142D02*
X107535715Y-137423571D01*
X107535715Y-137423571D02*
X107607143Y-137566428D01*
X107607143Y-137566428D02*
X107607143Y-137780714D01*
X107607143Y-137780714D02*
X107535715Y-137923571D01*
X107535715Y-137923571D02*
X107464286Y-137995000D01*
X107464286Y-137995000D02*
X107321429Y-138066428D01*
X107321429Y-138066428D02*
X106750000Y-138066428D01*
X106750000Y-138066428D02*
X106750000Y-136566428D01*
X106750000Y-136566428D02*
X107250000Y-136566428D01*
X107250000Y-136566428D02*
X107392858Y-136637857D01*
X107392858Y-136637857D02*
X107464286Y-136709285D01*
X107464286Y-136709285D02*
X107535715Y-136852142D01*
X107535715Y-136852142D02*
X107535715Y-136995000D01*
X107535715Y-136995000D02*
X107464286Y-137137857D01*
X107464286Y-137137857D02*
X107392858Y-137209285D01*
X107392858Y-137209285D02*
X107250000Y-137280714D01*
X107250000Y-137280714D02*
X106750000Y-137280714D01*
X108535715Y-136566428D02*
X108821429Y-136566428D01*
X108821429Y-136566428D02*
X108964286Y-136637857D01*
X108964286Y-136637857D02*
X109107143Y-136780714D01*
X109107143Y-136780714D02*
X109178572Y-137066428D01*
X109178572Y-137066428D02*
X109178572Y-137566428D01*
X109178572Y-137566428D02*
X109107143Y-137852142D01*
X109107143Y-137852142D02*
X108964286Y-137995000D01*
X108964286Y-137995000D02*
X108821429Y-138066428D01*
X108821429Y-138066428D02*
X108535715Y-138066428D01*
X108535715Y-138066428D02*
X108392858Y-137995000D01*
X108392858Y-137995000D02*
X108250000Y-137852142D01*
X108250000Y-137852142D02*
X108178572Y-137566428D01*
X108178572Y-137566428D02*
X108178572Y-137066428D01*
X108178572Y-137066428D02*
X108250000Y-136780714D01*
X108250000Y-136780714D02*
X108392858Y-136637857D01*
X108392858Y-136637857D02*
X108535715Y-136566428D01*
X109750001Y-137637857D02*
X110464287Y-137637857D01*
X109607144Y-138066428D02*
X110107144Y-136566428D01*
X110107144Y-136566428D02*
X110607144Y-138066428D01*
X111964286Y-138066428D02*
X111464286Y-137352142D01*
X111107143Y-138066428D02*
X111107143Y-136566428D01*
X111107143Y-136566428D02*
X111678572Y-136566428D01*
X111678572Y-136566428D02*
X111821429Y-136637857D01*
X111821429Y-136637857D02*
X111892858Y-136709285D01*
X111892858Y-136709285D02*
X111964286Y-136852142D01*
X111964286Y-136852142D02*
X111964286Y-137066428D01*
X111964286Y-137066428D02*
X111892858Y-137209285D01*
X111892858Y-137209285D02*
X111821429Y-137280714D01*
X111821429Y-137280714D02*
X111678572Y-137352142D01*
X111678572Y-137352142D02*
X111107143Y-137352142D01*
X112607143Y-138066428D02*
X112607143Y-136566428D01*
X112607143Y-136566428D02*
X112964286Y-136566428D01*
X112964286Y-136566428D02*
X113178572Y-136637857D01*
X113178572Y-136637857D02*
X113321429Y-136780714D01*
X113321429Y-136780714D02*
X113392858Y-136923571D01*
X113392858Y-136923571D02*
X113464286Y-137209285D01*
X113464286Y-137209285D02*
X113464286Y-137423571D01*
X113464286Y-137423571D02*
X113392858Y-137709285D01*
X113392858Y-137709285D02*
X113321429Y-137852142D01*
X113321429Y-137852142D02*
X113178572Y-137995000D01*
X113178572Y-137995000D02*
X112964286Y-138066428D01*
X112964286Y-138066428D02*
X112607143Y-138066428D01*
X115607143Y-138566428D02*
X115607143Y-136423571D01*
X117607143Y-136566428D02*
X118107143Y-138066428D01*
X118107143Y-138066428D02*
X118607143Y-136566428D01*
X119107142Y-137280714D02*
X119607142Y-137280714D01*
X119821428Y-138066428D02*
X119107142Y-138066428D01*
X119107142Y-138066428D02*
X119107142Y-136566428D01*
X119107142Y-136566428D02*
X119821428Y-136566428D01*
X121321428Y-138066428D02*
X120821428Y-137352142D01*
X120464285Y-138066428D02*
X120464285Y-136566428D01*
X120464285Y-136566428D02*
X121035714Y-136566428D01*
X121035714Y-136566428D02*
X121178571Y-136637857D01*
X121178571Y-136637857D02*
X121250000Y-136709285D01*
X121250000Y-136709285D02*
X121321428Y-136852142D01*
X121321428Y-136852142D02*
X121321428Y-137066428D01*
X121321428Y-137066428D02*
X121250000Y-137209285D01*
X121250000Y-137209285D02*
X121178571Y-137280714D01*
X121178571Y-137280714D02*
X121035714Y-137352142D01*
X121035714Y-137352142D02*
X120464285Y-137352142D01*
X121892857Y-137995000D02*
X122107143Y-138066428D01*
X122107143Y-138066428D02*
X122464285Y-138066428D01*
X122464285Y-138066428D02*
X122607143Y-137995000D01*
X122607143Y-137995000D02*
X122678571Y-137923571D01*
X122678571Y-137923571D02*
X122750000Y-137780714D01*
X122750000Y-137780714D02*
X122750000Y-137637857D01*
X122750000Y-137637857D02*
X122678571Y-137495000D01*
X122678571Y-137495000D02*
X122607143Y-137423571D01*
X122607143Y-137423571D02*
X122464285Y-137352142D01*
X122464285Y-137352142D02*
X122178571Y-137280714D01*
X122178571Y-137280714D02*
X122035714Y-137209285D01*
X122035714Y-137209285D02*
X121964285Y-137137857D01*
X121964285Y-137137857D02*
X121892857Y-136995000D01*
X121892857Y-136995000D02*
X121892857Y-136852142D01*
X121892857Y-136852142D02*
X121964285Y-136709285D01*
X121964285Y-136709285D02*
X122035714Y-136637857D01*
X122035714Y-136637857D02*
X122178571Y-136566428D01*
X122178571Y-136566428D02*
X122535714Y-136566428D01*
X122535714Y-136566428D02*
X122750000Y-136637857D01*
X123392856Y-138066428D02*
X123392856Y-136566428D01*
X124392857Y-136566428D02*
X124678571Y-136566428D01*
X124678571Y-136566428D02*
X124821428Y-136637857D01*
X124821428Y-136637857D02*
X124964285Y-136780714D01*
X124964285Y-136780714D02*
X125035714Y-137066428D01*
X125035714Y-137066428D02*
X125035714Y-137566428D01*
X125035714Y-137566428D02*
X124964285Y-137852142D01*
X124964285Y-137852142D02*
X124821428Y-137995000D01*
X124821428Y-137995000D02*
X124678571Y-138066428D01*
X124678571Y-138066428D02*
X124392857Y-138066428D01*
X124392857Y-138066428D02*
X124250000Y-137995000D01*
X124250000Y-137995000D02*
X124107142Y-137852142D01*
X124107142Y-137852142D02*
X124035714Y-137566428D01*
X124035714Y-137566428D02*
X124035714Y-137066428D01*
X124035714Y-137066428D02*
X124107142Y-136780714D01*
X124107142Y-136780714D02*
X124250000Y-136637857D01*
X124250000Y-136637857D02*
X124392857Y-136566428D01*
X125678571Y-138066428D02*
X125678571Y-136566428D01*
X125678571Y-136566428D02*
X126535714Y-138066428D01*
X126535714Y-138066428D02*
X126535714Y-136566428D01*
X128321429Y-136709285D02*
X128392857Y-136637857D01*
X128392857Y-136637857D02*
X128535715Y-136566428D01*
X128535715Y-136566428D02*
X128892857Y-136566428D01*
X128892857Y-136566428D02*
X129035715Y-136637857D01*
X129035715Y-136637857D02*
X129107143Y-136709285D01*
X129107143Y-136709285D02*
X129178572Y-136852142D01*
X129178572Y-136852142D02*
X129178572Y-136995000D01*
X129178572Y-136995000D02*
X129107143Y-137209285D01*
X129107143Y-137209285D02*
X128250000Y-138066428D01*
X128250000Y-138066428D02*
X129178572Y-138066428D01*
D11*
X76964286Y-42469928D02*
X76250000Y-42469928D01*
X76250000Y-42469928D02*
X76178572Y-43184214D01*
X76178572Y-43184214D02*
X76250000Y-43112785D01*
X76250000Y-43112785D02*
X76392858Y-43041357D01*
X76392858Y-43041357D02*
X76750000Y-43041357D01*
X76750000Y-43041357D02*
X76892858Y-43112785D01*
X76892858Y-43112785D02*
X76964286Y-43184214D01*
X76964286Y-43184214D02*
X77035715Y-43327071D01*
X77035715Y-43327071D02*
X77035715Y-43684214D01*
X77035715Y-43684214D02*
X76964286Y-43827071D01*
X76964286Y-43827071D02*
X76892858Y-43898500D01*
X76892858Y-43898500D02*
X76750000Y-43969928D01*
X76750000Y-43969928D02*
X76392858Y-43969928D01*
X76392858Y-43969928D02*
X76250000Y-43898500D01*
X76250000Y-43898500D02*
X76178572Y-43827071D01*
X77464286Y-42469928D02*
X77964286Y-43969928D01*
X77964286Y-43969928D02*
X78464286Y-42469928D01*
X129392856Y-94443928D02*
X129392856Y-92943928D01*
X129392856Y-92943928D02*
X129892856Y-94015357D01*
X129892856Y-94015357D02*
X130392856Y-92943928D01*
X130392856Y-92943928D02*
X130392856Y-94443928D01*
X131107142Y-94443928D02*
X131107142Y-92943928D01*
X131750000Y-94372500D02*
X131964286Y-94443928D01*
X131964286Y-94443928D02*
X132321428Y-94443928D01*
X132321428Y-94443928D02*
X132464286Y-94372500D01*
X132464286Y-94372500D02*
X132535714Y-94301071D01*
X132535714Y-94301071D02*
X132607143Y-94158214D01*
X132607143Y-94158214D02*
X132607143Y-94015357D01*
X132607143Y-94015357D02*
X132535714Y-93872500D01*
X132535714Y-93872500D02*
X132464286Y-93801071D01*
X132464286Y-93801071D02*
X132321428Y-93729642D01*
X132321428Y-93729642D02*
X132035714Y-93658214D01*
X132035714Y-93658214D02*
X131892857Y-93586785D01*
X131892857Y-93586785D02*
X131821428Y-93515357D01*
X131821428Y-93515357D02*
X131750000Y-93372500D01*
X131750000Y-93372500D02*
X131750000Y-93229642D01*
X131750000Y-93229642D02*
X131821428Y-93086785D01*
X131821428Y-93086785D02*
X131892857Y-93015357D01*
X131892857Y-93015357D02*
X132035714Y-92943928D01*
X132035714Y-92943928D02*
X132392857Y-92943928D01*
X132392857Y-92943928D02*
X132607143Y-93015357D01*
X133535714Y-92943928D02*
X133821428Y-92943928D01*
X133821428Y-92943928D02*
X133964285Y-93015357D01*
X133964285Y-93015357D02*
X134107142Y-93158214D01*
X134107142Y-93158214D02*
X134178571Y-93443928D01*
X134178571Y-93443928D02*
X134178571Y-93943928D01*
X134178571Y-93943928D02*
X134107142Y-94229642D01*
X134107142Y-94229642D02*
X133964285Y-94372500D01*
X133964285Y-94372500D02*
X133821428Y-94443928D01*
X133821428Y-94443928D02*
X133535714Y-94443928D01*
X133535714Y-94443928D02*
X133392857Y-94372500D01*
X133392857Y-94372500D02*
X133249999Y-94229642D01*
X133249999Y-94229642D02*
X133178571Y-93943928D01*
X133178571Y-93943928D02*
X133178571Y-93443928D01*
X133178571Y-93443928D02*
X133249999Y-93158214D01*
X133249999Y-93158214D02*
X133392857Y-93015357D01*
X133392857Y-93015357D02*
X133535714Y-92943928D01*
X129321429Y-89332500D02*
X129535715Y-89403928D01*
X129535715Y-89403928D02*
X129892857Y-89403928D01*
X129892857Y-89403928D02*
X130035715Y-89332500D01*
X130035715Y-89332500D02*
X130107143Y-89261071D01*
X130107143Y-89261071D02*
X130178572Y-89118214D01*
X130178572Y-89118214D02*
X130178572Y-88975357D01*
X130178572Y-88975357D02*
X130107143Y-88832500D01*
X130107143Y-88832500D02*
X130035715Y-88761071D01*
X130035715Y-88761071D02*
X129892857Y-88689642D01*
X129892857Y-88689642D02*
X129607143Y-88618214D01*
X129607143Y-88618214D02*
X129464286Y-88546785D01*
X129464286Y-88546785D02*
X129392857Y-88475357D01*
X129392857Y-88475357D02*
X129321429Y-88332500D01*
X129321429Y-88332500D02*
X129321429Y-88189642D01*
X129321429Y-88189642D02*
X129392857Y-88046785D01*
X129392857Y-88046785D02*
X129464286Y-87975357D01*
X129464286Y-87975357D02*
X129607143Y-87903928D01*
X129607143Y-87903928D02*
X129964286Y-87903928D01*
X129964286Y-87903928D02*
X130178572Y-87975357D01*
X131678571Y-89261071D02*
X131607143Y-89332500D01*
X131607143Y-89332500D02*
X131392857Y-89403928D01*
X131392857Y-89403928D02*
X131250000Y-89403928D01*
X131250000Y-89403928D02*
X131035714Y-89332500D01*
X131035714Y-89332500D02*
X130892857Y-89189642D01*
X130892857Y-89189642D02*
X130821428Y-89046785D01*
X130821428Y-89046785D02*
X130750000Y-88761071D01*
X130750000Y-88761071D02*
X130750000Y-88546785D01*
X130750000Y-88546785D02*
X130821428Y-88261071D01*
X130821428Y-88261071D02*
X130892857Y-88118214D01*
X130892857Y-88118214D02*
X131035714Y-87975357D01*
X131035714Y-87975357D02*
X131250000Y-87903928D01*
X131250000Y-87903928D02*
X131392857Y-87903928D01*
X131392857Y-87903928D02*
X131607143Y-87975357D01*
X131607143Y-87975357D02*
X131678571Y-88046785D01*
X132321428Y-89403928D02*
X132321428Y-87903928D01*
X133178571Y-89403928D02*
X132535714Y-88546785D01*
X133178571Y-87903928D02*
X132321428Y-88761071D01*
X130107143Y-80355357D02*
X129964286Y-80283928D01*
X129964286Y-80283928D02*
X129750000Y-80283928D01*
X129750000Y-80283928D02*
X129535714Y-80355357D01*
X129535714Y-80355357D02*
X129392857Y-80498214D01*
X129392857Y-80498214D02*
X129321428Y-80641071D01*
X129321428Y-80641071D02*
X129250000Y-80926785D01*
X129250000Y-80926785D02*
X129250000Y-81141071D01*
X129250000Y-81141071D02*
X129321428Y-81426785D01*
X129321428Y-81426785D02*
X129392857Y-81569642D01*
X129392857Y-81569642D02*
X129535714Y-81712500D01*
X129535714Y-81712500D02*
X129750000Y-81783928D01*
X129750000Y-81783928D02*
X129892857Y-81783928D01*
X129892857Y-81783928D02*
X130107143Y-81712500D01*
X130107143Y-81712500D02*
X130178571Y-81641071D01*
X130178571Y-81641071D02*
X130178571Y-81141071D01*
X130178571Y-81141071D02*
X129892857Y-81141071D01*
X130821428Y-81783928D02*
X130821428Y-80283928D01*
X130821428Y-80283928D02*
X131678571Y-81783928D01*
X131678571Y-81783928D02*
X131678571Y-80283928D01*
X132392857Y-81783928D02*
X132392857Y-80283928D01*
X132392857Y-80283928D02*
X132750000Y-80283928D01*
X132750000Y-80283928D02*
X132964286Y-80355357D01*
X132964286Y-80355357D02*
X133107143Y-80498214D01*
X133107143Y-80498214D02*
X133178572Y-80641071D01*
X133178572Y-80641071D02*
X133250000Y-80926785D01*
X133250000Y-80926785D02*
X133250000Y-81141071D01*
X133250000Y-81141071D02*
X133178572Y-81426785D01*
X133178572Y-81426785D02*
X133107143Y-81569642D01*
X133107143Y-81569642D02*
X132964286Y-81712500D01*
X132964286Y-81712500D02*
X132750000Y-81783928D01*
X132750000Y-81783928D02*
X132392857Y-81783928D01*
D10*
X121627619Y-71785714D02*
X121627619Y-72261904D01*
X121627619Y-72261904D02*
X122103809Y-72309523D01*
X122103809Y-72309523D02*
X122056190Y-72261904D01*
X122056190Y-72261904D02*
X122008571Y-72166666D01*
X122008571Y-72166666D02*
X122008571Y-71928571D01*
X122008571Y-71928571D02*
X122056190Y-71833333D01*
X122056190Y-71833333D02*
X122103809Y-71785714D01*
X122103809Y-71785714D02*
X122199047Y-71738095D01*
X122199047Y-71738095D02*
X122437142Y-71738095D01*
X122437142Y-71738095D02*
X122532380Y-71785714D01*
X122532380Y-71785714D02*
X122580000Y-71833333D01*
X122580000Y-71833333D02*
X122627619Y-71928571D01*
X122627619Y-71928571D02*
X122627619Y-72166666D01*
X122627619Y-72166666D02*
X122580000Y-72261904D01*
X122580000Y-72261904D02*
X122532380Y-72309523D01*
X121627619Y-71452380D02*
X122627619Y-71119047D01*
X122627619Y-71119047D02*
X121627619Y-70785714D01*
X122627619Y-69690475D02*
X121627619Y-69690475D01*
X121627619Y-69690475D02*
X121627619Y-69309523D01*
X121627619Y-69309523D02*
X121675238Y-69214285D01*
X121675238Y-69214285D02*
X121722857Y-69166666D01*
X121722857Y-69166666D02*
X121818095Y-69119047D01*
X121818095Y-69119047D02*
X121960952Y-69119047D01*
X121960952Y-69119047D02*
X122056190Y-69166666D01*
X122056190Y-69166666D02*
X122103809Y-69214285D01*
X122103809Y-69214285D02*
X122151428Y-69309523D01*
X122151428Y-69309523D02*
X122151428Y-69690475D01*
X121627619Y-68499999D02*
X121627619Y-68309523D01*
X121627619Y-68309523D02*
X121675238Y-68214285D01*
X121675238Y-68214285D02*
X121770476Y-68119047D01*
X121770476Y-68119047D02*
X121960952Y-68071428D01*
X121960952Y-68071428D02*
X122294285Y-68071428D01*
X122294285Y-68071428D02*
X122484761Y-68119047D01*
X122484761Y-68119047D02*
X122580000Y-68214285D01*
X122580000Y-68214285D02*
X122627619Y-68309523D01*
X122627619Y-68309523D02*
X122627619Y-68499999D01*
X122627619Y-68499999D02*
X122580000Y-68595237D01*
X122580000Y-68595237D02*
X122484761Y-68690475D01*
X122484761Y-68690475D02*
X122294285Y-68738094D01*
X122294285Y-68738094D02*
X121960952Y-68738094D01*
X121960952Y-68738094D02*
X121770476Y-68690475D01*
X121770476Y-68690475D02*
X121675238Y-68595237D01*
X121675238Y-68595237D02*
X121627619Y-68499999D01*
X121627619Y-67738094D02*
X122627619Y-67499999D01*
X122627619Y-67499999D02*
X121913333Y-67309523D01*
X121913333Y-67309523D02*
X122627619Y-67119047D01*
X122627619Y-67119047D02*
X121627619Y-66880952D01*
X122103809Y-66499999D02*
X122103809Y-66166666D01*
X122627619Y-66023809D02*
X122627619Y-66499999D01*
X122627619Y-66499999D02*
X121627619Y-66499999D01*
X121627619Y-66499999D02*
X121627619Y-66023809D01*
X122627619Y-65023809D02*
X122151428Y-65357142D01*
X122627619Y-65595237D02*
X121627619Y-65595237D01*
X121627619Y-65595237D02*
X121627619Y-65214285D01*
X121627619Y-65214285D02*
X121675238Y-65119047D01*
X121675238Y-65119047D02*
X121722857Y-65071428D01*
X121722857Y-65071428D02*
X121818095Y-65023809D01*
X121818095Y-65023809D02*
X121960952Y-65023809D01*
X121960952Y-65023809D02*
X122056190Y-65071428D01*
X122056190Y-65071428D02*
X122103809Y-65119047D01*
X122103809Y-65119047D02*
X122151428Y-65214285D01*
X122151428Y-65214285D02*
X122151428Y-65595237D01*
X73181309Y-126059523D02*
X73228928Y-125916666D01*
X73228928Y-125916666D02*
X73276547Y-125869047D01*
X73276547Y-125869047D02*
X73371785Y-125821428D01*
X73371785Y-125821428D02*
X73514642Y-125821428D01*
X73514642Y-125821428D02*
X73609880Y-125869047D01*
X73609880Y-125869047D02*
X73657500Y-125916666D01*
X73657500Y-125916666D02*
X73705119Y-126011904D01*
X73705119Y-126011904D02*
X73705119Y-126392856D01*
X73705119Y-126392856D02*
X72705119Y-126392856D01*
X72705119Y-126392856D02*
X72705119Y-126059523D01*
X72705119Y-126059523D02*
X72752738Y-125964285D01*
X72752738Y-125964285D02*
X72800357Y-125916666D01*
X72800357Y-125916666D02*
X72895595Y-125869047D01*
X72895595Y-125869047D02*
X72990833Y-125869047D01*
X72990833Y-125869047D02*
X73086071Y-125916666D01*
X73086071Y-125916666D02*
X73133690Y-125964285D01*
X73133690Y-125964285D02*
X73181309Y-126059523D01*
X73181309Y-126059523D02*
X73181309Y-126392856D01*
X73705119Y-124821428D02*
X73228928Y-125154761D01*
X73705119Y-125392856D02*
X72705119Y-125392856D01*
X72705119Y-125392856D02*
X72705119Y-125011904D01*
X72705119Y-125011904D02*
X72752738Y-124916666D01*
X72752738Y-124916666D02*
X72800357Y-124869047D01*
X72800357Y-124869047D02*
X72895595Y-124821428D01*
X72895595Y-124821428D02*
X73038452Y-124821428D01*
X73038452Y-124821428D02*
X73133690Y-124869047D01*
X73133690Y-124869047D02*
X73181309Y-124916666D01*
X73181309Y-124916666D02*
X73228928Y-125011904D01*
X73228928Y-125011904D02*
X73228928Y-125392856D01*
X73419404Y-124440475D02*
X73419404Y-123964285D01*
X73705119Y-124535713D02*
X72705119Y-124202380D01*
X72705119Y-124202380D02*
X73705119Y-123869047D01*
X73705119Y-123535713D02*
X72705119Y-123535713D01*
X73705119Y-122964285D02*
X73133690Y-123392856D01*
X72705119Y-122964285D02*
X73276547Y-123535713D01*
X73181309Y-122535713D02*
X73181309Y-122202380D01*
X73705119Y-122059523D02*
X73705119Y-122535713D01*
X73705119Y-122535713D02*
X72705119Y-122535713D01*
X72705119Y-122535713D02*
X72705119Y-122059523D01*
D11*
X130071428Y-84193928D02*
X129571428Y-83479642D01*
X129214285Y-84193928D02*
X129214285Y-82693928D01*
X129214285Y-82693928D02*
X129785714Y-82693928D01*
X129785714Y-82693928D02*
X129928571Y-82765357D01*
X129928571Y-82765357D02*
X130000000Y-82836785D01*
X130000000Y-82836785D02*
X130071428Y-82979642D01*
X130071428Y-82979642D02*
X130071428Y-83193928D01*
X130071428Y-83193928D02*
X130000000Y-83336785D01*
X130000000Y-83336785D02*
X129928571Y-83408214D01*
X129928571Y-83408214D02*
X129785714Y-83479642D01*
X129785714Y-83479642D02*
X129214285Y-83479642D01*
X130714285Y-83408214D02*
X131214285Y-83408214D01*
X131428571Y-84193928D02*
X130714285Y-84193928D01*
X130714285Y-84193928D02*
X130714285Y-82693928D01*
X130714285Y-82693928D02*
X131428571Y-82693928D01*
X132000000Y-84122500D02*
X132214286Y-84193928D01*
X132214286Y-84193928D02*
X132571428Y-84193928D01*
X132571428Y-84193928D02*
X132714286Y-84122500D01*
X132714286Y-84122500D02*
X132785714Y-84051071D01*
X132785714Y-84051071D02*
X132857143Y-83908214D01*
X132857143Y-83908214D02*
X132857143Y-83765357D01*
X132857143Y-83765357D02*
X132785714Y-83622500D01*
X132785714Y-83622500D02*
X132714286Y-83551071D01*
X132714286Y-83551071D02*
X132571428Y-83479642D01*
X132571428Y-83479642D02*
X132285714Y-83408214D01*
X132285714Y-83408214D02*
X132142857Y-83336785D01*
X132142857Y-83336785D02*
X132071428Y-83265357D01*
X132071428Y-83265357D02*
X132000000Y-83122500D01*
X132000000Y-83122500D02*
X132000000Y-82979642D01*
X132000000Y-82979642D02*
X132071428Y-82836785D01*
X132071428Y-82836785D02*
X132142857Y-82765357D01*
X132142857Y-82765357D02*
X132285714Y-82693928D01*
X132285714Y-82693928D02*
X132642857Y-82693928D01*
X132642857Y-82693928D02*
X132857143Y-82765357D01*
X133499999Y-83408214D02*
X133999999Y-83408214D01*
X134214285Y-84193928D02*
X133499999Y-84193928D01*
X133499999Y-84193928D02*
X133499999Y-82693928D01*
X133499999Y-82693928D02*
X134214285Y-82693928D01*
X134642857Y-82693928D02*
X135500000Y-82693928D01*
X135071428Y-84193928D02*
X135071428Y-82693928D01*
X131821429Y-35443928D02*
X130964286Y-35443928D01*
X131392857Y-35443928D02*
X131392857Y-33943928D01*
X131392857Y-33943928D02*
X131250000Y-34158214D01*
X131250000Y-34158214D02*
X131107143Y-34301071D01*
X131107143Y-34301071D02*
X130964286Y-34372500D01*
X132392857Y-34086785D02*
X132464285Y-34015357D01*
X132464285Y-34015357D02*
X132607143Y-33943928D01*
X132607143Y-33943928D02*
X132964285Y-33943928D01*
X132964285Y-33943928D02*
X133107143Y-34015357D01*
X133107143Y-34015357D02*
X133178571Y-34086785D01*
X133178571Y-34086785D02*
X133250000Y-34229642D01*
X133250000Y-34229642D02*
X133250000Y-34372500D01*
X133250000Y-34372500D02*
X133178571Y-34586785D01*
X133178571Y-34586785D02*
X132321428Y-35443928D01*
X132321428Y-35443928D02*
X133250000Y-35443928D01*
X133678571Y-33943928D02*
X134178571Y-35443928D01*
X134178571Y-35443928D02*
X134678571Y-33943928D01*
X76107143Y-47693928D02*
X76964286Y-47693928D01*
X76535714Y-49193928D02*
X76535714Y-47693928D01*
X77321428Y-47693928D02*
X78321428Y-49193928D01*
X78321428Y-47693928D02*
X77321428Y-49193928D01*
D10*
X67672738Y-125761904D02*
X67625119Y-125857142D01*
X67625119Y-125857142D02*
X67625119Y-125999999D01*
X67625119Y-125999999D02*
X67672738Y-126142856D01*
X67672738Y-126142856D02*
X67767976Y-126238094D01*
X67767976Y-126238094D02*
X67863214Y-126285713D01*
X67863214Y-126285713D02*
X68053690Y-126333332D01*
X68053690Y-126333332D02*
X68196547Y-126333332D01*
X68196547Y-126333332D02*
X68387023Y-126285713D01*
X68387023Y-126285713D02*
X68482261Y-126238094D01*
X68482261Y-126238094D02*
X68577500Y-126142856D01*
X68577500Y-126142856D02*
X68625119Y-125999999D01*
X68625119Y-125999999D02*
X68625119Y-125904761D01*
X68625119Y-125904761D02*
X68577500Y-125761904D01*
X68577500Y-125761904D02*
X68529880Y-125714285D01*
X68529880Y-125714285D02*
X68196547Y-125714285D01*
X68196547Y-125714285D02*
X68196547Y-125904761D01*
X68625119Y-125285713D02*
X67625119Y-125285713D01*
X67625119Y-125285713D02*
X68625119Y-124714285D01*
X68625119Y-124714285D02*
X67625119Y-124714285D01*
X68625119Y-124238094D02*
X67625119Y-124238094D01*
X67625119Y-124238094D02*
X67625119Y-123999999D01*
X67625119Y-123999999D02*
X67672738Y-123857142D01*
X67672738Y-123857142D02*
X67767976Y-123761904D01*
X67767976Y-123761904D02*
X67863214Y-123714285D01*
X67863214Y-123714285D02*
X68053690Y-123666666D01*
X68053690Y-123666666D02*
X68196547Y-123666666D01*
X68196547Y-123666666D02*
X68387023Y-123714285D01*
X68387023Y-123714285D02*
X68482261Y-123761904D01*
X68482261Y-123761904D02*
X68577500Y-123857142D01*
X68577500Y-123857142D02*
X68625119Y-123999999D01*
X68625119Y-123999999D02*
X68625119Y-124238094D01*
D11*
X77107143Y-50265357D02*
X76964286Y-50193928D01*
X76964286Y-50193928D02*
X76750000Y-50193928D01*
X76750000Y-50193928D02*
X76535714Y-50265357D01*
X76535714Y-50265357D02*
X76392857Y-50408214D01*
X76392857Y-50408214D02*
X76321428Y-50551071D01*
X76321428Y-50551071D02*
X76250000Y-50836785D01*
X76250000Y-50836785D02*
X76250000Y-51051071D01*
X76250000Y-51051071D02*
X76321428Y-51336785D01*
X76321428Y-51336785D02*
X76392857Y-51479642D01*
X76392857Y-51479642D02*
X76535714Y-51622500D01*
X76535714Y-51622500D02*
X76750000Y-51693928D01*
X76750000Y-51693928D02*
X76892857Y-51693928D01*
X76892857Y-51693928D02*
X77107143Y-51622500D01*
X77107143Y-51622500D02*
X77178571Y-51551071D01*
X77178571Y-51551071D02*
X77178571Y-51051071D01*
X77178571Y-51051071D02*
X76892857Y-51051071D01*
X77821428Y-51693928D02*
X77821428Y-50193928D01*
X77821428Y-50193928D02*
X78678571Y-51693928D01*
X78678571Y-51693928D02*
X78678571Y-50193928D01*
X79392857Y-51693928D02*
X79392857Y-50193928D01*
X79392857Y-50193928D02*
X79750000Y-50193928D01*
X79750000Y-50193928D02*
X79964286Y-50265357D01*
X79964286Y-50265357D02*
X80107143Y-50408214D01*
X80107143Y-50408214D02*
X80178572Y-50551071D01*
X80178572Y-50551071D02*
X80250000Y-50836785D01*
X80250000Y-50836785D02*
X80250000Y-51051071D01*
X80250000Y-51051071D02*
X80178572Y-51336785D01*
X80178572Y-51336785D02*
X80107143Y-51479642D01*
X80107143Y-51479642D02*
X79964286Y-51622500D01*
X79964286Y-51622500D02*
X79750000Y-51693928D01*
X79750000Y-51693928D02*
X79392857Y-51693928D01*
X129392856Y-86863928D02*
X129392856Y-85363928D01*
X129392856Y-85363928D02*
X129892856Y-86435357D01*
X129892856Y-86435357D02*
X130392856Y-85363928D01*
X130392856Y-85363928D02*
X130392856Y-86863928D01*
X131392857Y-85363928D02*
X131678571Y-85363928D01*
X131678571Y-85363928D02*
X131821428Y-85435357D01*
X131821428Y-85435357D02*
X131964285Y-85578214D01*
X131964285Y-85578214D02*
X132035714Y-85863928D01*
X132035714Y-85863928D02*
X132035714Y-86363928D01*
X132035714Y-86363928D02*
X131964285Y-86649642D01*
X131964285Y-86649642D02*
X131821428Y-86792500D01*
X131821428Y-86792500D02*
X131678571Y-86863928D01*
X131678571Y-86863928D02*
X131392857Y-86863928D01*
X131392857Y-86863928D02*
X131250000Y-86792500D01*
X131250000Y-86792500D02*
X131107142Y-86649642D01*
X131107142Y-86649642D02*
X131035714Y-86363928D01*
X131035714Y-86363928D02*
X131035714Y-85863928D01*
X131035714Y-85863928D02*
X131107142Y-85578214D01*
X131107142Y-85578214D02*
X131250000Y-85435357D01*
X131250000Y-85435357D02*
X131392857Y-85363928D01*
X132607143Y-86792500D02*
X132821429Y-86863928D01*
X132821429Y-86863928D02*
X133178571Y-86863928D01*
X133178571Y-86863928D02*
X133321429Y-86792500D01*
X133321429Y-86792500D02*
X133392857Y-86721071D01*
X133392857Y-86721071D02*
X133464286Y-86578214D01*
X133464286Y-86578214D02*
X133464286Y-86435357D01*
X133464286Y-86435357D02*
X133392857Y-86292500D01*
X133392857Y-86292500D02*
X133321429Y-86221071D01*
X133321429Y-86221071D02*
X133178571Y-86149642D01*
X133178571Y-86149642D02*
X132892857Y-86078214D01*
X132892857Y-86078214D02*
X132750000Y-86006785D01*
X132750000Y-86006785D02*
X132678571Y-85935357D01*
X132678571Y-85935357D02*
X132607143Y-85792500D01*
X132607143Y-85792500D02*
X132607143Y-85649642D01*
X132607143Y-85649642D02*
X132678571Y-85506785D01*
X132678571Y-85506785D02*
X132750000Y-85435357D01*
X132750000Y-85435357D02*
X132892857Y-85363928D01*
X132892857Y-85363928D02*
X133250000Y-85363928D01*
X133250000Y-85363928D02*
X133464286Y-85435357D01*
X134107142Y-86863928D02*
X134107142Y-85363928D01*
D10*
X75475119Y-118166666D02*
X74998928Y-118499999D01*
X75475119Y-118738094D02*
X74475119Y-118738094D01*
X74475119Y-118738094D02*
X74475119Y-118357142D01*
X74475119Y-118357142D02*
X74522738Y-118261904D01*
X74522738Y-118261904D02*
X74570357Y-118214285D01*
X74570357Y-118214285D02*
X74665595Y-118166666D01*
X74665595Y-118166666D02*
X74808452Y-118166666D01*
X74808452Y-118166666D02*
X74903690Y-118214285D01*
X74903690Y-118214285D02*
X74951309Y-118261904D01*
X74951309Y-118261904D02*
X74998928Y-118357142D01*
X74998928Y-118357142D02*
X74998928Y-118738094D01*
X74475119Y-117833332D02*
X74475119Y-117214285D01*
X74475119Y-117214285D02*
X74856071Y-117547618D01*
X74856071Y-117547618D02*
X74856071Y-117404761D01*
X74856071Y-117404761D02*
X74903690Y-117309523D01*
X74903690Y-117309523D02*
X74951309Y-117261904D01*
X74951309Y-117261904D02*
X75046547Y-117214285D01*
X75046547Y-117214285D02*
X75284642Y-117214285D01*
X75284642Y-117214285D02*
X75379880Y-117261904D01*
X75379880Y-117261904D02*
X75427500Y-117309523D01*
X75427500Y-117309523D02*
X75475119Y-117404761D01*
X75475119Y-117404761D02*
X75475119Y-117690475D01*
X75475119Y-117690475D02*
X75427500Y-117785713D01*
X75427500Y-117785713D02*
X75379880Y-117833332D01*
X76083333Y-109349119D02*
X75750000Y-108872928D01*
X75511905Y-109349119D02*
X75511905Y-108349119D01*
X75511905Y-108349119D02*
X75892857Y-108349119D01*
X75892857Y-108349119D02*
X75988095Y-108396738D01*
X75988095Y-108396738D02*
X76035714Y-108444357D01*
X76035714Y-108444357D02*
X76083333Y-108539595D01*
X76083333Y-108539595D02*
X76083333Y-108682452D01*
X76083333Y-108682452D02*
X76035714Y-108777690D01*
X76035714Y-108777690D02*
X75988095Y-108825309D01*
X75988095Y-108825309D02*
X75892857Y-108872928D01*
X75892857Y-108872928D02*
X75511905Y-108872928D01*
X76940476Y-108349119D02*
X76750000Y-108349119D01*
X76750000Y-108349119D02*
X76654762Y-108396738D01*
X76654762Y-108396738D02*
X76607143Y-108444357D01*
X76607143Y-108444357D02*
X76511905Y-108587214D01*
X76511905Y-108587214D02*
X76464286Y-108777690D01*
X76464286Y-108777690D02*
X76464286Y-109158642D01*
X76464286Y-109158642D02*
X76511905Y-109253880D01*
X76511905Y-109253880D02*
X76559524Y-109301500D01*
X76559524Y-109301500D02*
X76654762Y-109349119D01*
X76654762Y-109349119D02*
X76845238Y-109349119D01*
X76845238Y-109349119D02*
X76940476Y-109301500D01*
X76940476Y-109301500D02*
X76988095Y-109253880D01*
X76988095Y-109253880D02*
X77035714Y-109158642D01*
X77035714Y-109158642D02*
X77035714Y-108920547D01*
X77035714Y-108920547D02*
X76988095Y-108825309D01*
X76988095Y-108825309D02*
X76940476Y-108777690D01*
X76940476Y-108777690D02*
X76845238Y-108730071D01*
X76845238Y-108730071D02*
X76654762Y-108730071D01*
X76654762Y-108730071D02*
X76559524Y-108777690D01*
X76559524Y-108777690D02*
X76511905Y-108825309D01*
X76511905Y-108825309D02*
X76464286Y-108920547D01*
X71583333Y-109349119D02*
X71250000Y-108872928D01*
X71011905Y-109349119D02*
X71011905Y-108349119D01*
X71011905Y-108349119D02*
X71392857Y-108349119D01*
X71392857Y-108349119D02*
X71488095Y-108396738D01*
X71488095Y-108396738D02*
X71535714Y-108444357D01*
X71535714Y-108444357D02*
X71583333Y-108539595D01*
X71583333Y-108539595D02*
X71583333Y-108682452D01*
X71583333Y-108682452D02*
X71535714Y-108777690D01*
X71535714Y-108777690D02*
X71488095Y-108825309D01*
X71488095Y-108825309D02*
X71392857Y-108872928D01*
X71392857Y-108872928D02*
X71011905Y-108872928D01*
X72488095Y-108349119D02*
X72011905Y-108349119D01*
X72011905Y-108349119D02*
X71964286Y-108825309D01*
X71964286Y-108825309D02*
X72011905Y-108777690D01*
X72011905Y-108777690D02*
X72107143Y-108730071D01*
X72107143Y-108730071D02*
X72345238Y-108730071D01*
X72345238Y-108730071D02*
X72440476Y-108777690D01*
X72440476Y-108777690D02*
X72488095Y-108825309D01*
X72488095Y-108825309D02*
X72535714Y-108920547D01*
X72535714Y-108920547D02*
X72535714Y-109158642D01*
X72535714Y-109158642D02*
X72488095Y-109253880D01*
X72488095Y-109253880D02*
X72440476Y-109301500D01*
X72440476Y-109301500D02*
X72345238Y-109349119D01*
X72345238Y-109349119D02*
X72107143Y-109349119D01*
X72107143Y-109349119D02*
X72011905Y-109301500D01*
X72011905Y-109301500D02*
X71964286Y-109253880D01*
D13*
X98260237Y-115337526D02*
X98260237Y-114067526D01*
X99590714Y-115216573D02*
X99530238Y-115277050D01*
X99530238Y-115277050D02*
X99348809Y-115337526D01*
X99348809Y-115337526D02*
X99227857Y-115337526D01*
X99227857Y-115337526D02*
X99046428Y-115277050D01*
X99046428Y-115277050D02*
X98925476Y-115156097D01*
X98925476Y-115156097D02*
X98864999Y-115035145D01*
X98864999Y-115035145D02*
X98804523Y-114793240D01*
X98804523Y-114793240D02*
X98804523Y-114611811D01*
X98804523Y-114611811D02*
X98864999Y-114369907D01*
X98864999Y-114369907D02*
X98925476Y-114248954D01*
X98925476Y-114248954D02*
X99046428Y-114128002D01*
X99046428Y-114128002D02*
X99227857Y-114067526D01*
X99227857Y-114067526D02*
X99348809Y-114067526D01*
X99348809Y-114067526D02*
X99530238Y-114128002D01*
X99530238Y-114128002D02*
X99590714Y-114188478D01*
X100014047Y-114067526D02*
X100800238Y-114067526D01*
X100800238Y-114067526D02*
X100376904Y-114551335D01*
X100376904Y-114551335D02*
X100558333Y-114551335D01*
X100558333Y-114551335D02*
X100679285Y-114611811D01*
X100679285Y-114611811D02*
X100739761Y-114672288D01*
X100739761Y-114672288D02*
X100800238Y-114793240D01*
X100800238Y-114793240D02*
X100800238Y-115095621D01*
X100800238Y-115095621D02*
X100739761Y-115216573D01*
X100739761Y-115216573D02*
X100679285Y-115277050D01*
X100679285Y-115277050D02*
X100558333Y-115337526D01*
X100558333Y-115337526D02*
X100195476Y-115337526D01*
X100195476Y-115337526D02*
X100074523Y-115277050D01*
X100074523Y-115277050D02*
X100014047Y-115216573D01*
D10*
X122583333Y-82367380D02*
X122535714Y-82415000D01*
X122535714Y-82415000D02*
X122392857Y-82462619D01*
X122392857Y-82462619D02*
X122297619Y-82462619D01*
X122297619Y-82462619D02*
X122154762Y-82415000D01*
X122154762Y-82415000D02*
X122059524Y-82319761D01*
X122059524Y-82319761D02*
X122011905Y-82224523D01*
X122011905Y-82224523D02*
X121964286Y-82034047D01*
X121964286Y-82034047D02*
X121964286Y-81891190D01*
X121964286Y-81891190D02*
X122011905Y-81700714D01*
X122011905Y-81700714D02*
X122059524Y-81605476D01*
X122059524Y-81605476D02*
X122154762Y-81510238D01*
X122154762Y-81510238D02*
X122297619Y-81462619D01*
X122297619Y-81462619D02*
X122392857Y-81462619D01*
X122392857Y-81462619D02*
X122535714Y-81510238D01*
X122535714Y-81510238D02*
X122583333Y-81557857D01*
X123154762Y-81891190D02*
X123059524Y-81843571D01*
X123059524Y-81843571D02*
X123011905Y-81795952D01*
X123011905Y-81795952D02*
X122964286Y-81700714D01*
X122964286Y-81700714D02*
X122964286Y-81653095D01*
X122964286Y-81653095D02*
X123011905Y-81557857D01*
X123011905Y-81557857D02*
X123059524Y-81510238D01*
X123059524Y-81510238D02*
X123154762Y-81462619D01*
X123154762Y-81462619D02*
X123345238Y-81462619D01*
X123345238Y-81462619D02*
X123440476Y-81510238D01*
X123440476Y-81510238D02*
X123488095Y-81557857D01*
X123488095Y-81557857D02*
X123535714Y-81653095D01*
X123535714Y-81653095D02*
X123535714Y-81700714D01*
X123535714Y-81700714D02*
X123488095Y-81795952D01*
X123488095Y-81795952D02*
X123440476Y-81843571D01*
X123440476Y-81843571D02*
X123345238Y-81891190D01*
X123345238Y-81891190D02*
X123154762Y-81891190D01*
X123154762Y-81891190D02*
X123059524Y-81938809D01*
X123059524Y-81938809D02*
X123011905Y-81986428D01*
X123011905Y-81986428D02*
X122964286Y-82081666D01*
X122964286Y-82081666D02*
X122964286Y-82272142D01*
X122964286Y-82272142D02*
X123011905Y-82367380D01*
X123011905Y-82367380D02*
X123059524Y-82415000D01*
X123059524Y-82415000D02*
X123154762Y-82462619D01*
X123154762Y-82462619D02*
X123345238Y-82462619D01*
X123345238Y-82462619D02*
X123440476Y-82415000D01*
X123440476Y-82415000D02*
X123488095Y-82367380D01*
X123488095Y-82367380D02*
X123535714Y-82272142D01*
X123535714Y-82272142D02*
X123535714Y-82081666D01*
X123535714Y-82081666D02*
X123488095Y-81986428D01*
X123488095Y-81986428D02*
X123440476Y-81938809D01*
X123440476Y-81938809D02*
X123345238Y-81891190D01*
X65440476Y-66632619D02*
X65440476Y-67346904D01*
X65440476Y-67346904D02*
X65392857Y-67489761D01*
X65392857Y-67489761D02*
X65297619Y-67585000D01*
X65297619Y-67585000D02*
X65154762Y-67632619D01*
X65154762Y-67632619D02*
X65059524Y-67632619D01*
X66440476Y-67632619D02*
X65869048Y-67632619D01*
X66154762Y-67632619D02*
X66154762Y-66632619D01*
X66154762Y-66632619D02*
X66059524Y-66775476D01*
X66059524Y-66775476D02*
X65964286Y-66870714D01*
X65964286Y-66870714D02*
X65869048Y-66918333D01*
X67297619Y-66965952D02*
X67297619Y-67632619D01*
X67059524Y-66585000D02*
X66821429Y-67299285D01*
X66821429Y-67299285D02*
X67440476Y-67299285D01*
X67333333Y-111979880D02*
X67285714Y-112027500D01*
X67285714Y-112027500D02*
X67142857Y-112075119D01*
X67142857Y-112075119D02*
X67047619Y-112075119D01*
X67047619Y-112075119D02*
X66904762Y-112027500D01*
X66904762Y-112027500D02*
X66809524Y-111932261D01*
X66809524Y-111932261D02*
X66761905Y-111837023D01*
X66761905Y-111837023D02*
X66714286Y-111646547D01*
X66714286Y-111646547D02*
X66714286Y-111503690D01*
X66714286Y-111503690D02*
X66761905Y-111313214D01*
X66761905Y-111313214D02*
X66809524Y-111217976D01*
X66809524Y-111217976D02*
X66904762Y-111122738D01*
X66904762Y-111122738D02*
X67047619Y-111075119D01*
X67047619Y-111075119D02*
X67142857Y-111075119D01*
X67142857Y-111075119D02*
X67285714Y-111122738D01*
X67285714Y-111122738D02*
X67333333Y-111170357D01*
X68285714Y-112075119D02*
X67714286Y-112075119D01*
X68000000Y-112075119D02*
X68000000Y-111075119D01*
X68000000Y-111075119D02*
X67904762Y-111217976D01*
X67904762Y-111217976D02*
X67809524Y-111313214D01*
X67809524Y-111313214D02*
X67714286Y-111360833D01*
X78190476Y-64462619D02*
X78190476Y-65176904D01*
X78190476Y-65176904D02*
X78142857Y-65319761D01*
X78142857Y-65319761D02*
X78047619Y-65415000D01*
X78047619Y-65415000D02*
X77904762Y-65462619D01*
X77904762Y-65462619D02*
X77809524Y-65462619D01*
X79190476Y-65462619D02*
X78619048Y-65462619D01*
X78904762Y-65462619D02*
X78904762Y-64462619D01*
X78904762Y-64462619D02*
X78809524Y-64605476D01*
X78809524Y-64605476D02*
X78714286Y-64700714D01*
X78714286Y-64700714D02*
X78619048Y-64748333D01*
X79809524Y-64462619D02*
X79904762Y-64462619D01*
X79904762Y-64462619D02*
X80000000Y-64510238D01*
X80000000Y-64510238D02*
X80047619Y-64557857D01*
X80047619Y-64557857D02*
X80095238Y-64653095D01*
X80095238Y-64653095D02*
X80142857Y-64843571D01*
X80142857Y-64843571D02*
X80142857Y-65081666D01*
X80142857Y-65081666D02*
X80095238Y-65272142D01*
X80095238Y-65272142D02*
X80047619Y-65367380D01*
X80047619Y-65367380D02*
X80000000Y-65415000D01*
X80000000Y-65415000D02*
X79904762Y-65462619D01*
X79904762Y-65462619D02*
X79809524Y-65462619D01*
X79809524Y-65462619D02*
X79714286Y-65415000D01*
X79714286Y-65415000D02*
X79666667Y-65367380D01*
X79666667Y-65367380D02*
X79619048Y-65272142D01*
X79619048Y-65272142D02*
X79571429Y-65081666D01*
X79571429Y-65081666D02*
X79571429Y-64843571D01*
X79571429Y-64843571D02*
X79619048Y-64653095D01*
X79619048Y-64653095D02*
X79666667Y-64557857D01*
X79666667Y-64557857D02*
X79714286Y-64510238D01*
X79714286Y-64510238D02*
X79809524Y-64462619D01*
X68725119Y-118166666D02*
X68248928Y-118499999D01*
X68725119Y-118738094D02*
X67725119Y-118738094D01*
X67725119Y-118738094D02*
X67725119Y-118357142D01*
X67725119Y-118357142D02*
X67772738Y-118261904D01*
X67772738Y-118261904D02*
X67820357Y-118214285D01*
X67820357Y-118214285D02*
X67915595Y-118166666D01*
X67915595Y-118166666D02*
X68058452Y-118166666D01*
X68058452Y-118166666D02*
X68153690Y-118214285D01*
X68153690Y-118214285D02*
X68201309Y-118261904D01*
X68201309Y-118261904D02*
X68248928Y-118357142D01*
X68248928Y-118357142D02*
X68248928Y-118738094D01*
X68725119Y-117214285D02*
X68725119Y-117785713D01*
X68725119Y-117499999D02*
X67725119Y-117499999D01*
X67725119Y-117499999D02*
X67867976Y-117595237D01*
X67867976Y-117595237D02*
X67963214Y-117690475D01*
X67963214Y-117690475D02*
X68010833Y-117785713D01*
X130037333Y-45937380D02*
X129989714Y-45985000D01*
X129989714Y-45985000D02*
X129846857Y-46032619D01*
X129846857Y-46032619D02*
X129751619Y-46032619D01*
X129751619Y-46032619D02*
X129608762Y-45985000D01*
X129608762Y-45985000D02*
X129513524Y-45889761D01*
X129513524Y-45889761D02*
X129465905Y-45794523D01*
X129465905Y-45794523D02*
X129418286Y-45604047D01*
X129418286Y-45604047D02*
X129418286Y-45461190D01*
X129418286Y-45461190D02*
X129465905Y-45270714D01*
X129465905Y-45270714D02*
X129513524Y-45175476D01*
X129513524Y-45175476D02*
X129608762Y-45080238D01*
X129608762Y-45080238D02*
X129751619Y-45032619D01*
X129751619Y-45032619D02*
X129846857Y-45032619D01*
X129846857Y-45032619D02*
X129989714Y-45080238D01*
X129989714Y-45080238D02*
X130037333Y-45127857D01*
X130894476Y-45032619D02*
X130704000Y-45032619D01*
X130704000Y-45032619D02*
X130608762Y-45080238D01*
X130608762Y-45080238D02*
X130561143Y-45127857D01*
X130561143Y-45127857D02*
X130465905Y-45270714D01*
X130465905Y-45270714D02*
X130418286Y-45461190D01*
X130418286Y-45461190D02*
X130418286Y-45842142D01*
X130418286Y-45842142D02*
X130465905Y-45937380D01*
X130465905Y-45937380D02*
X130513524Y-45985000D01*
X130513524Y-45985000D02*
X130608762Y-46032619D01*
X130608762Y-46032619D02*
X130799238Y-46032619D01*
X130799238Y-46032619D02*
X130894476Y-45985000D01*
X130894476Y-45985000D02*
X130942095Y-45937380D01*
X130942095Y-45937380D02*
X130989714Y-45842142D01*
X130989714Y-45842142D02*
X130989714Y-45604047D01*
X130989714Y-45604047D02*
X130942095Y-45508809D01*
X130942095Y-45508809D02*
X130894476Y-45461190D01*
X130894476Y-45461190D02*
X130799238Y-45413571D01*
X130799238Y-45413571D02*
X130608762Y-45413571D01*
X130608762Y-45413571D02*
X130513524Y-45461190D01*
X130513524Y-45461190D02*
X130465905Y-45508809D01*
X130465905Y-45508809D02*
X130418286Y-45604047D01*
X66833333Y-53662619D02*
X66500000Y-53186428D01*
X66261905Y-53662619D02*
X66261905Y-52662619D01*
X66261905Y-52662619D02*
X66642857Y-52662619D01*
X66642857Y-52662619D02*
X66738095Y-52710238D01*
X66738095Y-52710238D02*
X66785714Y-52757857D01*
X66785714Y-52757857D02*
X66833333Y-52853095D01*
X66833333Y-52853095D02*
X66833333Y-52995952D01*
X66833333Y-52995952D02*
X66785714Y-53091190D01*
X66785714Y-53091190D02*
X66738095Y-53138809D01*
X66738095Y-53138809D02*
X66642857Y-53186428D01*
X66642857Y-53186428D02*
X66261905Y-53186428D01*
X67309524Y-53662619D02*
X67500000Y-53662619D01*
X67500000Y-53662619D02*
X67595238Y-53615000D01*
X67595238Y-53615000D02*
X67642857Y-53567380D01*
X67642857Y-53567380D02*
X67738095Y-53424523D01*
X67738095Y-53424523D02*
X67785714Y-53234047D01*
X67785714Y-53234047D02*
X67785714Y-52853095D01*
X67785714Y-52853095D02*
X67738095Y-52757857D01*
X67738095Y-52757857D02*
X67690476Y-52710238D01*
X67690476Y-52710238D02*
X67595238Y-52662619D01*
X67595238Y-52662619D02*
X67404762Y-52662619D01*
X67404762Y-52662619D02*
X67309524Y-52710238D01*
X67309524Y-52710238D02*
X67261905Y-52757857D01*
X67261905Y-52757857D02*
X67214286Y-52853095D01*
X67214286Y-52853095D02*
X67214286Y-53091190D01*
X67214286Y-53091190D02*
X67261905Y-53186428D01*
X67261905Y-53186428D02*
X67309524Y-53234047D01*
X67309524Y-53234047D02*
X67404762Y-53281666D01*
X67404762Y-53281666D02*
X67595238Y-53281666D01*
X67595238Y-53281666D02*
X67690476Y-53234047D01*
X67690476Y-53234047D02*
X67738095Y-53186428D01*
X67738095Y-53186428D02*
X67785714Y-53091190D01*
D13*
X48010237Y-34087526D02*
X48010237Y-32817526D01*
X49340714Y-33966573D02*
X49280238Y-34027050D01*
X49280238Y-34027050D02*
X49098809Y-34087526D01*
X49098809Y-34087526D02*
X48977857Y-34087526D01*
X48977857Y-34087526D02*
X48796428Y-34027050D01*
X48796428Y-34027050D02*
X48675476Y-33906097D01*
X48675476Y-33906097D02*
X48614999Y-33785145D01*
X48614999Y-33785145D02*
X48554523Y-33543240D01*
X48554523Y-33543240D02*
X48554523Y-33361811D01*
X48554523Y-33361811D02*
X48614999Y-33119907D01*
X48614999Y-33119907D02*
X48675476Y-32998954D01*
X48675476Y-32998954D02*
X48796428Y-32878002D01*
X48796428Y-32878002D02*
X48977857Y-32817526D01*
X48977857Y-32817526D02*
X49098809Y-32817526D01*
X49098809Y-32817526D02*
X49280238Y-32878002D01*
X49280238Y-32878002D02*
X49340714Y-32938478D01*
X50429285Y-32817526D02*
X50187380Y-32817526D01*
X50187380Y-32817526D02*
X50066428Y-32878002D01*
X50066428Y-32878002D02*
X50005952Y-32938478D01*
X50005952Y-32938478D02*
X49884999Y-33119907D01*
X49884999Y-33119907D02*
X49824523Y-33361811D01*
X49824523Y-33361811D02*
X49824523Y-33845621D01*
X49824523Y-33845621D02*
X49884999Y-33966573D01*
X49884999Y-33966573D02*
X49945476Y-34027050D01*
X49945476Y-34027050D02*
X50066428Y-34087526D01*
X50066428Y-34087526D02*
X50308333Y-34087526D01*
X50308333Y-34087526D02*
X50429285Y-34027050D01*
X50429285Y-34027050D02*
X50489761Y-33966573D01*
X50489761Y-33966573D02*
X50550238Y-33845621D01*
X50550238Y-33845621D02*
X50550238Y-33543240D01*
X50550238Y-33543240D02*
X50489761Y-33422288D01*
X50489761Y-33422288D02*
X50429285Y-33361811D01*
X50429285Y-33361811D02*
X50308333Y-33301335D01*
X50308333Y-33301335D02*
X50066428Y-33301335D01*
X50066428Y-33301335D02*
X49945476Y-33361811D01*
X49945476Y-33361811D02*
X49884999Y-33422288D01*
X49884999Y-33422288D02*
X49824523Y-33543240D01*
D10*
X65295119Y-129083333D02*
X66009404Y-129083333D01*
X66009404Y-129083333D02*
X66152261Y-129130952D01*
X66152261Y-129130952D02*
X66247500Y-129226190D01*
X66247500Y-129226190D02*
X66295119Y-129369047D01*
X66295119Y-129369047D02*
X66295119Y-129464285D01*
X65628452Y-128178571D02*
X66295119Y-128178571D01*
X65247500Y-128416666D02*
X65961785Y-128654761D01*
X65961785Y-128654761D02*
X65961785Y-128035714D01*
X71416666Y-65382619D02*
X71416666Y-66096904D01*
X71416666Y-66096904D02*
X71369047Y-66239761D01*
X71369047Y-66239761D02*
X71273809Y-66335000D01*
X71273809Y-66335000D02*
X71130952Y-66382619D01*
X71130952Y-66382619D02*
X71035714Y-66382619D01*
X71797619Y-65382619D02*
X72464285Y-65382619D01*
X72464285Y-65382619D02*
X72035714Y-66382619D01*
X66761994Y-46330451D02*
X66428661Y-45854260D01*
X66190566Y-46330451D02*
X66190566Y-45330451D01*
X66190566Y-45330451D02*
X66571518Y-45330451D01*
X66571518Y-45330451D02*
X66666756Y-45378070D01*
X66666756Y-45378070D02*
X66714375Y-45425689D01*
X66714375Y-45425689D02*
X66761994Y-45520927D01*
X66761994Y-45520927D02*
X66761994Y-45663784D01*
X66761994Y-45663784D02*
X66714375Y-45759022D01*
X66714375Y-45759022D02*
X66666756Y-45806641D01*
X66666756Y-45806641D02*
X66571518Y-45854260D01*
X66571518Y-45854260D02*
X66190566Y-45854260D01*
X67095328Y-45330451D02*
X67761994Y-45330451D01*
X67761994Y-45330451D02*
X67333423Y-46330451D01*
X71416666Y-70382619D02*
X71416666Y-71096904D01*
X71416666Y-71096904D02*
X71369047Y-71239761D01*
X71369047Y-71239761D02*
X71273809Y-71335000D01*
X71273809Y-71335000D02*
X71130952Y-71382619D01*
X71130952Y-71382619D02*
X71035714Y-71382619D01*
X72321428Y-70382619D02*
X72130952Y-70382619D01*
X72130952Y-70382619D02*
X72035714Y-70430238D01*
X72035714Y-70430238D02*
X71988095Y-70477857D01*
X71988095Y-70477857D02*
X71892857Y-70620714D01*
X71892857Y-70620714D02*
X71845238Y-70811190D01*
X71845238Y-70811190D02*
X71845238Y-71192142D01*
X71845238Y-71192142D02*
X71892857Y-71287380D01*
X71892857Y-71287380D02*
X71940476Y-71335000D01*
X71940476Y-71335000D02*
X72035714Y-71382619D01*
X72035714Y-71382619D02*
X72226190Y-71382619D01*
X72226190Y-71382619D02*
X72321428Y-71335000D01*
X72321428Y-71335000D02*
X72369047Y-71287380D01*
X72369047Y-71287380D02*
X72416666Y-71192142D01*
X72416666Y-71192142D02*
X72416666Y-70954047D01*
X72416666Y-70954047D02*
X72369047Y-70858809D01*
X72369047Y-70858809D02*
X72321428Y-70811190D01*
X72321428Y-70811190D02*
X72226190Y-70763571D01*
X72226190Y-70763571D02*
X72035714Y-70763571D01*
X72035714Y-70763571D02*
X71940476Y-70811190D01*
X71940476Y-70811190D02*
X71892857Y-70858809D01*
X71892857Y-70858809D02*
X71845238Y-70954047D01*
X72101119Y-118166666D02*
X71624928Y-118499999D01*
X72101119Y-118738094D02*
X71101119Y-118738094D01*
X71101119Y-118738094D02*
X71101119Y-118357142D01*
X71101119Y-118357142D02*
X71148738Y-118261904D01*
X71148738Y-118261904D02*
X71196357Y-118214285D01*
X71196357Y-118214285D02*
X71291595Y-118166666D01*
X71291595Y-118166666D02*
X71434452Y-118166666D01*
X71434452Y-118166666D02*
X71529690Y-118214285D01*
X71529690Y-118214285D02*
X71577309Y-118261904D01*
X71577309Y-118261904D02*
X71624928Y-118357142D01*
X71624928Y-118357142D02*
X71624928Y-118738094D01*
X71196357Y-117785713D02*
X71148738Y-117738094D01*
X71148738Y-117738094D02*
X71101119Y-117642856D01*
X71101119Y-117642856D02*
X71101119Y-117404761D01*
X71101119Y-117404761D02*
X71148738Y-117309523D01*
X71148738Y-117309523D02*
X71196357Y-117261904D01*
X71196357Y-117261904D02*
X71291595Y-117214285D01*
X71291595Y-117214285D02*
X71386833Y-117214285D01*
X71386833Y-117214285D02*
X71529690Y-117261904D01*
X71529690Y-117261904D02*
X72101119Y-117833332D01*
X72101119Y-117833332D02*
X72101119Y-117214285D01*
X65440476Y-71632619D02*
X65440476Y-72346904D01*
X65440476Y-72346904D02*
X65392857Y-72489761D01*
X65392857Y-72489761D02*
X65297619Y-72585000D01*
X65297619Y-72585000D02*
X65154762Y-72632619D01*
X65154762Y-72632619D02*
X65059524Y-72632619D01*
X66440476Y-72632619D02*
X65869048Y-72632619D01*
X66154762Y-72632619D02*
X66154762Y-71632619D01*
X66154762Y-71632619D02*
X66059524Y-71775476D01*
X66059524Y-71775476D02*
X65964286Y-71870714D01*
X65964286Y-71870714D02*
X65869048Y-71918333D01*
X66773810Y-71632619D02*
X67392857Y-71632619D01*
X67392857Y-71632619D02*
X67059524Y-72013571D01*
X67059524Y-72013571D02*
X67202381Y-72013571D01*
X67202381Y-72013571D02*
X67297619Y-72061190D01*
X67297619Y-72061190D02*
X67345238Y-72108809D01*
X67345238Y-72108809D02*
X67392857Y-72204047D01*
X67392857Y-72204047D02*
X67392857Y-72442142D01*
X67392857Y-72442142D02*
X67345238Y-72537380D01*
X67345238Y-72537380D02*
X67297619Y-72585000D01*
X67297619Y-72585000D02*
X67202381Y-72632619D01*
X67202381Y-72632619D02*
X66916667Y-72632619D01*
X66916667Y-72632619D02*
X66821429Y-72585000D01*
X66821429Y-72585000D02*
X66773810Y-72537380D01*
X77887380Y-73416666D02*
X77935000Y-73464285D01*
X77935000Y-73464285D02*
X77982619Y-73607142D01*
X77982619Y-73607142D02*
X77982619Y-73702380D01*
X77982619Y-73702380D02*
X77935000Y-73845237D01*
X77935000Y-73845237D02*
X77839761Y-73940475D01*
X77839761Y-73940475D02*
X77744523Y-73988094D01*
X77744523Y-73988094D02*
X77554047Y-74035713D01*
X77554047Y-74035713D02*
X77411190Y-74035713D01*
X77411190Y-74035713D02*
X77220714Y-73988094D01*
X77220714Y-73988094D02*
X77125476Y-73940475D01*
X77125476Y-73940475D02*
X77030238Y-73845237D01*
X77030238Y-73845237D02*
X76982619Y-73702380D01*
X76982619Y-73702380D02*
X76982619Y-73607142D01*
X76982619Y-73607142D02*
X77030238Y-73464285D01*
X77030238Y-73464285D02*
X77077857Y-73416666D01*
X77315952Y-72559523D02*
X77982619Y-72559523D01*
X76935000Y-72797618D02*
X77649285Y-73035713D01*
X77649285Y-73035713D02*
X77649285Y-72416666D01*
X78190476Y-58712619D02*
X78190476Y-59426904D01*
X78190476Y-59426904D02*
X78142857Y-59569761D01*
X78142857Y-59569761D02*
X78047619Y-59665000D01*
X78047619Y-59665000D02*
X77904762Y-59712619D01*
X77904762Y-59712619D02*
X77809524Y-59712619D01*
X79190476Y-59712619D02*
X78619048Y-59712619D01*
X78904762Y-59712619D02*
X78904762Y-58712619D01*
X78904762Y-58712619D02*
X78809524Y-58855476D01*
X78809524Y-58855476D02*
X78714286Y-58950714D01*
X78714286Y-58950714D02*
X78619048Y-58998333D01*
X80142857Y-59712619D02*
X79571429Y-59712619D01*
X79857143Y-59712619D02*
X79857143Y-58712619D01*
X79857143Y-58712619D02*
X79761905Y-58855476D01*
X79761905Y-58855476D02*
X79666667Y-58950714D01*
X79666667Y-58950714D02*
X79571429Y-58998333D01*
X127283333Y-68937380D02*
X127235714Y-68985000D01*
X127235714Y-68985000D02*
X127092857Y-69032619D01*
X127092857Y-69032619D02*
X126997619Y-69032619D01*
X126997619Y-69032619D02*
X126854762Y-68985000D01*
X126854762Y-68985000D02*
X126759524Y-68889761D01*
X126759524Y-68889761D02*
X126711905Y-68794523D01*
X126711905Y-68794523D02*
X126664286Y-68604047D01*
X126664286Y-68604047D02*
X126664286Y-68461190D01*
X126664286Y-68461190D02*
X126711905Y-68270714D01*
X126711905Y-68270714D02*
X126759524Y-68175476D01*
X126759524Y-68175476D02*
X126854762Y-68080238D01*
X126854762Y-68080238D02*
X126997619Y-68032619D01*
X126997619Y-68032619D02*
X127092857Y-68032619D01*
X127092857Y-68032619D02*
X127235714Y-68080238D01*
X127235714Y-68080238D02*
X127283333Y-68127857D01*
X127616667Y-68032619D02*
X128283333Y-68032619D01*
X128283333Y-68032619D02*
X127854762Y-69032619D01*
D13*
X73932906Y-99461831D02*
X73505275Y-99889462D01*
X74103959Y-98692095D02*
X73932906Y-99461831D01*
X73932906Y-99461831D02*
X74702642Y-99290779D01*
X74574353Y-100958540D02*
X74061195Y-100445383D01*
X74317774Y-100701962D02*
X75215800Y-99803936D01*
X75215800Y-99803936D02*
X75001984Y-99846699D01*
X75001984Y-99846699D02*
X74830931Y-99846699D01*
X74830931Y-99846699D02*
X74702642Y-99803936D01*
D10*
X126666666Y-95582619D02*
X126666666Y-96296904D01*
X126666666Y-96296904D02*
X126619047Y-96439761D01*
X126619047Y-96439761D02*
X126523809Y-96535000D01*
X126523809Y-96535000D02*
X126380952Y-96582619D01*
X126380952Y-96582619D02*
X126285714Y-96582619D01*
X127619047Y-95582619D02*
X127142857Y-95582619D01*
X127142857Y-95582619D02*
X127095238Y-96058809D01*
X127095238Y-96058809D02*
X127142857Y-96011190D01*
X127142857Y-96011190D02*
X127238095Y-95963571D01*
X127238095Y-95963571D02*
X127476190Y-95963571D01*
X127476190Y-95963571D02*
X127571428Y-96011190D01*
X127571428Y-96011190D02*
X127619047Y-96058809D01*
X127619047Y-96058809D02*
X127666666Y-96154047D01*
X127666666Y-96154047D02*
X127666666Y-96392142D01*
X127666666Y-96392142D02*
X127619047Y-96487380D01*
X127619047Y-96487380D02*
X127571428Y-96535000D01*
X127571428Y-96535000D02*
X127476190Y-96582619D01*
X127476190Y-96582619D02*
X127238095Y-96582619D01*
X127238095Y-96582619D02*
X127142857Y-96535000D01*
X127142857Y-96535000D02*
X127095238Y-96487380D01*
X65440476Y-56632619D02*
X65440476Y-57346904D01*
X65440476Y-57346904D02*
X65392857Y-57489761D01*
X65392857Y-57489761D02*
X65297619Y-57585000D01*
X65297619Y-57585000D02*
X65154762Y-57632619D01*
X65154762Y-57632619D02*
X65059524Y-57632619D01*
X66440476Y-57632619D02*
X65869048Y-57632619D01*
X66154762Y-57632619D02*
X66154762Y-56632619D01*
X66154762Y-56632619D02*
X66059524Y-56775476D01*
X66059524Y-56775476D02*
X65964286Y-56870714D01*
X65964286Y-56870714D02*
X65869048Y-56918333D01*
X67297619Y-56632619D02*
X67107143Y-56632619D01*
X67107143Y-56632619D02*
X67011905Y-56680238D01*
X67011905Y-56680238D02*
X66964286Y-56727857D01*
X66964286Y-56727857D02*
X66869048Y-56870714D01*
X66869048Y-56870714D02*
X66821429Y-57061190D01*
X66821429Y-57061190D02*
X66821429Y-57442142D01*
X66821429Y-57442142D02*
X66869048Y-57537380D01*
X66869048Y-57537380D02*
X66916667Y-57585000D01*
X66916667Y-57585000D02*
X67011905Y-57632619D01*
X67011905Y-57632619D02*
X67202381Y-57632619D01*
X67202381Y-57632619D02*
X67297619Y-57585000D01*
X67297619Y-57585000D02*
X67345238Y-57537380D01*
X67345238Y-57537380D02*
X67392857Y-57442142D01*
X67392857Y-57442142D02*
X67392857Y-57204047D01*
X67392857Y-57204047D02*
X67345238Y-57108809D01*
X67345238Y-57108809D02*
X67297619Y-57061190D01*
X67297619Y-57061190D02*
X67202381Y-57013571D01*
X67202381Y-57013571D02*
X67011905Y-57013571D01*
X67011905Y-57013571D02*
X66916667Y-57061190D01*
X66916667Y-57061190D02*
X66869048Y-57108809D01*
X66869048Y-57108809D02*
X66821429Y-57204047D01*
X71477885Y-111796634D02*
X71430266Y-111844254D01*
X71430266Y-111844254D02*
X71287409Y-111891873D01*
X71287409Y-111891873D02*
X71192171Y-111891873D01*
X71192171Y-111891873D02*
X71049314Y-111844254D01*
X71049314Y-111844254D02*
X70954076Y-111749015D01*
X70954076Y-111749015D02*
X70906457Y-111653777D01*
X70906457Y-111653777D02*
X70858838Y-111463301D01*
X70858838Y-111463301D02*
X70858838Y-111320444D01*
X70858838Y-111320444D02*
X70906457Y-111129968D01*
X70906457Y-111129968D02*
X70954076Y-111034730D01*
X70954076Y-111034730D02*
X71049314Y-110939492D01*
X71049314Y-110939492D02*
X71192171Y-110891873D01*
X71192171Y-110891873D02*
X71287409Y-110891873D01*
X71287409Y-110891873D02*
X71430266Y-110939492D01*
X71430266Y-110939492D02*
X71477885Y-110987111D01*
X71858838Y-110987111D02*
X71906457Y-110939492D01*
X71906457Y-110939492D02*
X72001695Y-110891873D01*
X72001695Y-110891873D02*
X72239790Y-110891873D01*
X72239790Y-110891873D02*
X72335028Y-110939492D01*
X72335028Y-110939492D02*
X72382647Y-110987111D01*
X72382647Y-110987111D02*
X72430266Y-111082349D01*
X72430266Y-111082349D02*
X72430266Y-111177587D01*
X72430266Y-111177587D02*
X72382647Y-111320444D01*
X72382647Y-111320444D02*
X71811219Y-111891873D01*
X71811219Y-111891873D02*
X72430266Y-111891873D01*
X66833333Y-51317380D02*
X66785714Y-51365000D01*
X66785714Y-51365000D02*
X66642857Y-51412619D01*
X66642857Y-51412619D02*
X66547619Y-51412619D01*
X66547619Y-51412619D02*
X66404762Y-51365000D01*
X66404762Y-51365000D02*
X66309524Y-51269761D01*
X66309524Y-51269761D02*
X66261905Y-51174523D01*
X66261905Y-51174523D02*
X66214286Y-50984047D01*
X66214286Y-50984047D02*
X66214286Y-50841190D01*
X66214286Y-50841190D02*
X66261905Y-50650714D01*
X66261905Y-50650714D02*
X66309524Y-50555476D01*
X66309524Y-50555476D02*
X66404762Y-50460238D01*
X66404762Y-50460238D02*
X66547619Y-50412619D01*
X66547619Y-50412619D02*
X66642857Y-50412619D01*
X66642857Y-50412619D02*
X66785714Y-50460238D01*
X66785714Y-50460238D02*
X66833333Y-50507857D01*
X67738095Y-50412619D02*
X67261905Y-50412619D01*
X67261905Y-50412619D02*
X67214286Y-50888809D01*
X67214286Y-50888809D02*
X67261905Y-50841190D01*
X67261905Y-50841190D02*
X67357143Y-50793571D01*
X67357143Y-50793571D02*
X67595238Y-50793571D01*
X67595238Y-50793571D02*
X67690476Y-50841190D01*
X67690476Y-50841190D02*
X67738095Y-50888809D01*
X67738095Y-50888809D02*
X67785714Y-50984047D01*
X67785714Y-50984047D02*
X67785714Y-51222142D01*
X67785714Y-51222142D02*
X67738095Y-51317380D01*
X67738095Y-51317380D02*
X67690476Y-51365000D01*
X67690476Y-51365000D02*
X67595238Y-51412619D01*
X67595238Y-51412619D02*
X67357143Y-51412619D01*
X67357143Y-51412619D02*
X67261905Y-51365000D01*
X67261905Y-51365000D02*
X67214286Y-51317380D01*
X123201953Y-55550309D02*
X122725762Y-55883642D01*
X123201953Y-56121737D02*
X122201953Y-56121737D01*
X122201953Y-56121737D02*
X122201953Y-55740785D01*
X122201953Y-55740785D02*
X122249572Y-55645547D01*
X122249572Y-55645547D02*
X122297191Y-55597928D01*
X122297191Y-55597928D02*
X122392429Y-55550309D01*
X122392429Y-55550309D02*
X122535286Y-55550309D01*
X122535286Y-55550309D02*
X122630524Y-55597928D01*
X122630524Y-55597928D02*
X122678143Y-55645547D01*
X122678143Y-55645547D02*
X122725762Y-55740785D01*
X122725762Y-55740785D02*
X122725762Y-56121737D01*
X123201953Y-54597928D02*
X123201953Y-55169356D01*
X123201953Y-54883642D02*
X122201953Y-54883642D01*
X122201953Y-54883642D02*
X122344810Y-54978880D01*
X122344810Y-54978880D02*
X122440048Y-55074118D01*
X122440048Y-55074118D02*
X122487667Y-55169356D01*
X123201953Y-53645547D02*
X123201953Y-54216975D01*
X123201953Y-53931261D02*
X122201953Y-53931261D01*
X122201953Y-53931261D02*
X122344810Y-54026499D01*
X122344810Y-54026499D02*
X122440048Y-54121737D01*
X122440048Y-54121737D02*
X122487667Y-54216975D01*
X73666666Y-35382619D02*
X73666666Y-36096904D01*
X73666666Y-36096904D02*
X73619047Y-36239761D01*
X73619047Y-36239761D02*
X73523809Y-36335000D01*
X73523809Y-36335000D02*
X73380952Y-36382619D01*
X73380952Y-36382619D02*
X73285714Y-36382619D01*
X74047619Y-35382619D02*
X74666666Y-35382619D01*
X74666666Y-35382619D02*
X74333333Y-35763571D01*
X74333333Y-35763571D02*
X74476190Y-35763571D01*
X74476190Y-35763571D02*
X74571428Y-35811190D01*
X74571428Y-35811190D02*
X74619047Y-35858809D01*
X74619047Y-35858809D02*
X74666666Y-35954047D01*
X74666666Y-35954047D02*
X74666666Y-36192142D01*
X74666666Y-36192142D02*
X74619047Y-36287380D01*
X74619047Y-36287380D02*
X74571428Y-36335000D01*
X74571428Y-36335000D02*
X74476190Y-36382619D01*
X74476190Y-36382619D02*
X74190476Y-36382619D01*
X74190476Y-36382619D02*
X74095238Y-36335000D01*
X74095238Y-36335000D02*
X74047619Y-36287380D01*
X78190476Y-52962619D02*
X78190476Y-53676904D01*
X78190476Y-53676904D02*
X78142857Y-53819761D01*
X78142857Y-53819761D02*
X78047619Y-53915000D01*
X78047619Y-53915000D02*
X77904762Y-53962619D01*
X77904762Y-53962619D02*
X77809524Y-53962619D01*
X79190476Y-53962619D02*
X78619048Y-53962619D01*
X78904762Y-53962619D02*
X78904762Y-52962619D01*
X78904762Y-52962619D02*
X78809524Y-53105476D01*
X78809524Y-53105476D02*
X78714286Y-53200714D01*
X78714286Y-53200714D02*
X78619048Y-53248333D01*
X79571429Y-53057857D02*
X79619048Y-53010238D01*
X79619048Y-53010238D02*
X79714286Y-52962619D01*
X79714286Y-52962619D02*
X79952381Y-52962619D01*
X79952381Y-52962619D02*
X80047619Y-53010238D01*
X80047619Y-53010238D02*
X80095238Y-53057857D01*
X80095238Y-53057857D02*
X80142857Y-53153095D01*
X80142857Y-53153095D02*
X80142857Y-53248333D01*
X80142857Y-53248333D02*
X80095238Y-53391190D01*
X80095238Y-53391190D02*
X79523810Y-53962619D01*
X79523810Y-53962619D02*
X80142857Y-53962619D01*
D13*
X127587526Y-52989762D02*
X126317526Y-52989762D01*
X127466573Y-51659285D02*
X127527050Y-51719761D01*
X127527050Y-51719761D02*
X127587526Y-51901190D01*
X127587526Y-51901190D02*
X127587526Y-52022142D01*
X127587526Y-52022142D02*
X127527050Y-52203571D01*
X127527050Y-52203571D02*
X127406097Y-52324523D01*
X127406097Y-52324523D02*
X127285145Y-52385000D01*
X127285145Y-52385000D02*
X127043240Y-52445476D01*
X127043240Y-52445476D02*
X126861811Y-52445476D01*
X126861811Y-52445476D02*
X126619907Y-52385000D01*
X126619907Y-52385000D02*
X126498954Y-52324523D01*
X126498954Y-52324523D02*
X126378002Y-52203571D01*
X126378002Y-52203571D02*
X126317526Y-52022142D01*
X126317526Y-52022142D02*
X126317526Y-51901190D01*
X126317526Y-51901190D02*
X126378002Y-51719761D01*
X126378002Y-51719761D02*
X126438478Y-51659285D01*
X126317526Y-50510238D02*
X126317526Y-51115000D01*
X126317526Y-51115000D02*
X126922288Y-51175476D01*
X126922288Y-51175476D02*
X126861811Y-51115000D01*
X126861811Y-51115000D02*
X126801335Y-50994047D01*
X126801335Y-50994047D02*
X126801335Y-50691666D01*
X126801335Y-50691666D02*
X126861811Y-50570714D01*
X126861811Y-50570714D02*
X126922288Y-50510238D01*
X126922288Y-50510238D02*
X127043240Y-50449761D01*
X127043240Y-50449761D02*
X127345621Y-50449761D01*
X127345621Y-50449761D02*
X127466573Y-50510238D01*
X127466573Y-50510238D02*
X127527050Y-50570714D01*
X127527050Y-50570714D02*
X127587526Y-50691666D01*
X127587526Y-50691666D02*
X127587526Y-50994047D01*
X127587526Y-50994047D02*
X127527050Y-51115000D01*
X127527050Y-51115000D02*
X127466573Y-51175476D01*
X43210237Y-115087526D02*
X43210237Y-113817526D01*
X44540714Y-114966573D02*
X44480238Y-115027050D01*
X44480238Y-115027050D02*
X44298809Y-115087526D01*
X44298809Y-115087526D02*
X44177857Y-115087526D01*
X44177857Y-115087526D02*
X43996428Y-115027050D01*
X43996428Y-115027050D02*
X43875476Y-114906097D01*
X43875476Y-114906097D02*
X43814999Y-114785145D01*
X43814999Y-114785145D02*
X43754523Y-114543240D01*
X43754523Y-114543240D02*
X43754523Y-114361811D01*
X43754523Y-114361811D02*
X43814999Y-114119907D01*
X43814999Y-114119907D02*
X43875476Y-113998954D01*
X43875476Y-113998954D02*
X43996428Y-113878002D01*
X43996428Y-113878002D02*
X44177857Y-113817526D01*
X44177857Y-113817526D02*
X44298809Y-113817526D01*
X44298809Y-113817526D02*
X44480238Y-113878002D01*
X44480238Y-113878002D02*
X44540714Y-113938478D01*
X45024523Y-113938478D02*
X45084999Y-113878002D01*
X45084999Y-113878002D02*
X45205952Y-113817526D01*
X45205952Y-113817526D02*
X45508333Y-113817526D01*
X45508333Y-113817526D02*
X45629285Y-113878002D01*
X45629285Y-113878002D02*
X45689761Y-113938478D01*
X45689761Y-113938478D02*
X45750238Y-114059430D01*
X45750238Y-114059430D02*
X45750238Y-114180383D01*
X45750238Y-114180383D02*
X45689761Y-114361811D01*
X45689761Y-114361811D02*
X44964047Y-115087526D01*
X44964047Y-115087526D02*
X45750238Y-115087526D01*
D10*
X75930034Y-111733763D02*
X75882415Y-111781383D01*
X75882415Y-111781383D02*
X75739558Y-111829002D01*
X75739558Y-111829002D02*
X75644320Y-111829002D01*
X75644320Y-111829002D02*
X75501463Y-111781383D01*
X75501463Y-111781383D02*
X75406225Y-111686144D01*
X75406225Y-111686144D02*
X75358606Y-111590906D01*
X75358606Y-111590906D02*
X75310987Y-111400430D01*
X75310987Y-111400430D02*
X75310987Y-111257573D01*
X75310987Y-111257573D02*
X75358606Y-111067097D01*
X75358606Y-111067097D02*
X75406225Y-110971859D01*
X75406225Y-110971859D02*
X75501463Y-110876621D01*
X75501463Y-110876621D02*
X75644320Y-110829002D01*
X75644320Y-110829002D02*
X75739558Y-110829002D01*
X75739558Y-110829002D02*
X75882415Y-110876621D01*
X75882415Y-110876621D02*
X75930034Y-110924240D01*
X76263368Y-110829002D02*
X76882415Y-110829002D01*
X76882415Y-110829002D02*
X76549082Y-111209954D01*
X76549082Y-111209954D02*
X76691939Y-111209954D01*
X76691939Y-111209954D02*
X76787177Y-111257573D01*
X76787177Y-111257573D02*
X76834796Y-111305192D01*
X76834796Y-111305192D02*
X76882415Y-111400430D01*
X76882415Y-111400430D02*
X76882415Y-111638525D01*
X76882415Y-111638525D02*
X76834796Y-111733763D01*
X76834796Y-111733763D02*
X76787177Y-111781383D01*
X76787177Y-111781383D02*
X76691939Y-111829002D01*
X76691939Y-111829002D02*
X76406225Y-111829002D01*
X76406225Y-111829002D02*
X76310987Y-111781383D01*
X76310987Y-111781383D02*
X76263368Y-111733763D01*
D13*
X65337526Y-89989762D02*
X64067526Y-89989762D01*
X65216573Y-88659285D02*
X65277050Y-88719761D01*
X65277050Y-88719761D02*
X65337526Y-88901190D01*
X65337526Y-88901190D02*
X65337526Y-89022142D01*
X65337526Y-89022142D02*
X65277050Y-89203571D01*
X65277050Y-89203571D02*
X65156097Y-89324523D01*
X65156097Y-89324523D02*
X65035145Y-89385000D01*
X65035145Y-89385000D02*
X64793240Y-89445476D01*
X64793240Y-89445476D02*
X64611811Y-89445476D01*
X64611811Y-89445476D02*
X64369907Y-89385000D01*
X64369907Y-89385000D02*
X64248954Y-89324523D01*
X64248954Y-89324523D02*
X64128002Y-89203571D01*
X64128002Y-89203571D02*
X64067526Y-89022142D01*
X64067526Y-89022142D02*
X64067526Y-88901190D01*
X64067526Y-88901190D02*
X64128002Y-88719761D01*
X64128002Y-88719761D02*
X64188478Y-88659285D01*
X65337526Y-87449761D02*
X65337526Y-88175476D01*
X65337526Y-87812619D02*
X64067526Y-87812619D01*
X64067526Y-87812619D02*
X64248954Y-87933571D01*
X64248954Y-87933571D02*
X64369907Y-88054523D01*
X64369907Y-88054523D02*
X64430383Y-88175476D01*
D10*
X65440476Y-61632619D02*
X65440476Y-62346904D01*
X65440476Y-62346904D02*
X65392857Y-62489761D01*
X65392857Y-62489761D02*
X65297619Y-62585000D01*
X65297619Y-62585000D02*
X65154762Y-62632619D01*
X65154762Y-62632619D02*
X65059524Y-62632619D01*
X66440476Y-62632619D02*
X65869048Y-62632619D01*
X66154762Y-62632619D02*
X66154762Y-61632619D01*
X66154762Y-61632619D02*
X66059524Y-61775476D01*
X66059524Y-61775476D02*
X65964286Y-61870714D01*
X65964286Y-61870714D02*
X65869048Y-61918333D01*
X67345238Y-61632619D02*
X66869048Y-61632619D01*
X66869048Y-61632619D02*
X66821429Y-62108809D01*
X66821429Y-62108809D02*
X66869048Y-62061190D01*
X66869048Y-62061190D02*
X66964286Y-62013571D01*
X66964286Y-62013571D02*
X67202381Y-62013571D01*
X67202381Y-62013571D02*
X67297619Y-62061190D01*
X67297619Y-62061190D02*
X67345238Y-62108809D01*
X67345238Y-62108809D02*
X67392857Y-62204047D01*
X67392857Y-62204047D02*
X67392857Y-62442142D01*
X67392857Y-62442142D02*
X67345238Y-62537380D01*
X67345238Y-62537380D02*
X67297619Y-62585000D01*
X67297619Y-62585000D02*
X67202381Y-62632619D01*
X67202381Y-62632619D02*
X66964286Y-62632619D01*
X66964286Y-62632619D02*
X66869048Y-62585000D01*
X66869048Y-62585000D02*
X66821429Y-62537380D01*
X66761994Y-48830451D02*
X66428661Y-48354260D01*
X66190566Y-48830451D02*
X66190566Y-47830451D01*
X66190566Y-47830451D02*
X66571518Y-47830451D01*
X66571518Y-47830451D02*
X66666756Y-47878070D01*
X66666756Y-47878070D02*
X66714375Y-47925689D01*
X66714375Y-47925689D02*
X66761994Y-48020927D01*
X66761994Y-48020927D02*
X66761994Y-48163784D01*
X66761994Y-48163784D02*
X66714375Y-48259022D01*
X66714375Y-48259022D02*
X66666756Y-48306641D01*
X66666756Y-48306641D02*
X66571518Y-48354260D01*
X66571518Y-48354260D02*
X66190566Y-48354260D01*
X67333423Y-48259022D02*
X67238185Y-48211403D01*
X67238185Y-48211403D02*
X67190566Y-48163784D01*
X67190566Y-48163784D02*
X67142947Y-48068546D01*
X67142947Y-48068546D02*
X67142947Y-48020927D01*
X67142947Y-48020927D02*
X67190566Y-47925689D01*
X67190566Y-47925689D02*
X67238185Y-47878070D01*
X67238185Y-47878070D02*
X67333423Y-47830451D01*
X67333423Y-47830451D02*
X67523899Y-47830451D01*
X67523899Y-47830451D02*
X67619137Y-47878070D01*
X67619137Y-47878070D02*
X67666756Y-47925689D01*
X67666756Y-47925689D02*
X67714375Y-48020927D01*
X67714375Y-48020927D02*
X67714375Y-48068546D01*
X67714375Y-48068546D02*
X67666756Y-48163784D01*
X67666756Y-48163784D02*
X67619137Y-48211403D01*
X67619137Y-48211403D02*
X67523899Y-48259022D01*
X67523899Y-48259022D02*
X67333423Y-48259022D01*
X67333423Y-48259022D02*
X67238185Y-48306641D01*
X67238185Y-48306641D02*
X67190566Y-48354260D01*
X67190566Y-48354260D02*
X67142947Y-48449498D01*
X67142947Y-48449498D02*
X67142947Y-48639974D01*
X67142947Y-48639974D02*
X67190566Y-48735212D01*
X67190566Y-48735212D02*
X67238185Y-48782832D01*
X67238185Y-48782832D02*
X67333423Y-48830451D01*
X67333423Y-48830451D02*
X67523899Y-48830451D01*
X67523899Y-48830451D02*
X67619137Y-48782832D01*
X67619137Y-48782832D02*
X67666756Y-48735212D01*
X67666756Y-48735212D02*
X67714375Y-48639974D01*
X67714375Y-48639974D02*
X67714375Y-48449498D01*
X67714375Y-48449498D02*
X67666756Y-48354260D01*
X67666756Y-48354260D02*
X67619137Y-48306641D01*
X67619137Y-48306641D02*
X67523899Y-48259022D01*
X129107142Y-56562619D02*
X128773809Y-56086428D01*
X128535714Y-56562619D02*
X128535714Y-55562619D01*
X128535714Y-55562619D02*
X128916666Y-55562619D01*
X128916666Y-55562619D02*
X129011904Y-55610238D01*
X129011904Y-55610238D02*
X129059523Y-55657857D01*
X129059523Y-55657857D02*
X129107142Y-55753095D01*
X129107142Y-55753095D02*
X129107142Y-55895952D01*
X129107142Y-55895952D02*
X129059523Y-55991190D01*
X129059523Y-55991190D02*
X129011904Y-56038809D01*
X129011904Y-56038809D02*
X128916666Y-56086428D01*
X128916666Y-56086428D02*
X128535714Y-56086428D01*
X130059523Y-56562619D02*
X129488095Y-56562619D01*
X129773809Y-56562619D02*
X129773809Y-55562619D01*
X129773809Y-55562619D02*
X129678571Y-55705476D01*
X129678571Y-55705476D02*
X129583333Y-55800714D01*
X129583333Y-55800714D02*
X129488095Y-55848333D01*
X130678571Y-55562619D02*
X130773809Y-55562619D01*
X130773809Y-55562619D02*
X130869047Y-55610238D01*
X130869047Y-55610238D02*
X130916666Y-55657857D01*
X130916666Y-55657857D02*
X130964285Y-55753095D01*
X130964285Y-55753095D02*
X131011904Y-55943571D01*
X131011904Y-55943571D02*
X131011904Y-56181666D01*
X131011904Y-56181666D02*
X130964285Y-56372142D01*
X130964285Y-56372142D02*
X130916666Y-56467380D01*
X130916666Y-56467380D02*
X130869047Y-56515000D01*
X130869047Y-56515000D02*
X130773809Y-56562619D01*
X130773809Y-56562619D02*
X130678571Y-56562619D01*
X130678571Y-56562619D02*
X130583333Y-56515000D01*
X130583333Y-56515000D02*
X130535714Y-56467380D01*
X130535714Y-56467380D02*
X130488095Y-56372142D01*
X130488095Y-56372142D02*
X130440476Y-56181666D01*
X130440476Y-56181666D02*
X130440476Y-55943571D01*
X130440476Y-55943571D02*
X130488095Y-55753095D01*
X130488095Y-55753095D02*
X130535714Y-55657857D01*
X130535714Y-55657857D02*
X130583333Y-55610238D01*
X130583333Y-55610238D02*
X130678571Y-55562619D01*
X123174619Y-51142857D02*
X122698428Y-51476190D01*
X123174619Y-51714285D02*
X122174619Y-51714285D01*
X122174619Y-51714285D02*
X122174619Y-51333333D01*
X122174619Y-51333333D02*
X122222238Y-51238095D01*
X122222238Y-51238095D02*
X122269857Y-51190476D01*
X122269857Y-51190476D02*
X122365095Y-51142857D01*
X122365095Y-51142857D02*
X122507952Y-51142857D01*
X122507952Y-51142857D02*
X122603190Y-51190476D01*
X122603190Y-51190476D02*
X122650809Y-51238095D01*
X122650809Y-51238095D02*
X122698428Y-51333333D01*
X122698428Y-51333333D02*
X122698428Y-51714285D01*
X123174619Y-50190476D02*
X123174619Y-50761904D01*
X123174619Y-50476190D02*
X122174619Y-50476190D01*
X122174619Y-50476190D02*
X122317476Y-50571428D01*
X122317476Y-50571428D02*
X122412714Y-50666666D01*
X122412714Y-50666666D02*
X122460333Y-50761904D01*
X122269857Y-49809523D02*
X122222238Y-49761904D01*
X122222238Y-49761904D02*
X122174619Y-49666666D01*
X122174619Y-49666666D02*
X122174619Y-49428571D01*
X122174619Y-49428571D02*
X122222238Y-49333333D01*
X122222238Y-49333333D02*
X122269857Y-49285714D01*
X122269857Y-49285714D02*
X122365095Y-49238095D01*
X122365095Y-49238095D02*
X122460333Y-49238095D01*
X122460333Y-49238095D02*
X122603190Y-49285714D01*
X122603190Y-49285714D02*
X123174619Y-49857142D01*
X123174619Y-49857142D02*
X123174619Y-49238095D01*
D13*
X153260237Y-115337526D02*
X153260237Y-114067526D01*
X154590714Y-115216573D02*
X154530238Y-115277050D01*
X154530238Y-115277050D02*
X154348809Y-115337526D01*
X154348809Y-115337526D02*
X154227857Y-115337526D01*
X154227857Y-115337526D02*
X154046428Y-115277050D01*
X154046428Y-115277050D02*
X153925476Y-115156097D01*
X153925476Y-115156097D02*
X153864999Y-115035145D01*
X153864999Y-115035145D02*
X153804523Y-114793240D01*
X153804523Y-114793240D02*
X153804523Y-114611811D01*
X153804523Y-114611811D02*
X153864999Y-114369907D01*
X153864999Y-114369907D02*
X153925476Y-114248954D01*
X153925476Y-114248954D02*
X154046428Y-114128002D01*
X154046428Y-114128002D02*
X154227857Y-114067526D01*
X154227857Y-114067526D02*
X154348809Y-114067526D01*
X154348809Y-114067526D02*
X154530238Y-114128002D01*
X154530238Y-114128002D02*
X154590714Y-114188478D01*
X155679285Y-114490859D02*
X155679285Y-115337526D01*
X155376904Y-114007050D02*
X155074523Y-114914192D01*
X155074523Y-114914192D02*
X155860714Y-114914192D01*
D10*
X67141659Y-109314221D02*
X66808326Y-108838030D01*
X66570231Y-109314221D02*
X66570231Y-108314221D01*
X66570231Y-108314221D02*
X66951183Y-108314221D01*
X66951183Y-108314221D02*
X67046421Y-108361840D01*
X67046421Y-108361840D02*
X67094040Y-108409459D01*
X67094040Y-108409459D02*
X67141659Y-108504697D01*
X67141659Y-108504697D02*
X67141659Y-108647554D01*
X67141659Y-108647554D02*
X67094040Y-108742792D01*
X67094040Y-108742792D02*
X67046421Y-108790411D01*
X67046421Y-108790411D02*
X66951183Y-108838030D01*
X66951183Y-108838030D02*
X66570231Y-108838030D01*
X67998802Y-108647554D02*
X67998802Y-109314221D01*
X67760707Y-108266602D02*
X67522612Y-108980887D01*
X67522612Y-108980887D02*
X68141659Y-108980887D01*
D13*
X148260237Y-34087526D02*
X148260237Y-32817526D01*
X149590714Y-33966573D02*
X149530238Y-34027050D01*
X149530238Y-34027050D02*
X149348809Y-34087526D01*
X149348809Y-34087526D02*
X149227857Y-34087526D01*
X149227857Y-34087526D02*
X149046428Y-34027050D01*
X149046428Y-34027050D02*
X148925476Y-33906097D01*
X148925476Y-33906097D02*
X148864999Y-33785145D01*
X148864999Y-33785145D02*
X148804523Y-33543240D01*
X148804523Y-33543240D02*
X148804523Y-33361811D01*
X148804523Y-33361811D02*
X148864999Y-33119907D01*
X148864999Y-33119907D02*
X148925476Y-32998954D01*
X148925476Y-32998954D02*
X149046428Y-32878002D01*
X149046428Y-32878002D02*
X149227857Y-32817526D01*
X149227857Y-32817526D02*
X149348809Y-32817526D01*
X149348809Y-32817526D02*
X149530238Y-32878002D01*
X149530238Y-32878002D02*
X149590714Y-32938478D01*
X150316428Y-33361811D02*
X150195476Y-33301335D01*
X150195476Y-33301335D02*
X150134999Y-33240859D01*
X150134999Y-33240859D02*
X150074523Y-33119907D01*
X150074523Y-33119907D02*
X150074523Y-33059430D01*
X150074523Y-33059430D02*
X150134999Y-32938478D01*
X150134999Y-32938478D02*
X150195476Y-32878002D01*
X150195476Y-32878002D02*
X150316428Y-32817526D01*
X150316428Y-32817526D02*
X150558333Y-32817526D01*
X150558333Y-32817526D02*
X150679285Y-32878002D01*
X150679285Y-32878002D02*
X150739761Y-32938478D01*
X150739761Y-32938478D02*
X150800238Y-33059430D01*
X150800238Y-33059430D02*
X150800238Y-33119907D01*
X150800238Y-33119907D02*
X150739761Y-33240859D01*
X150739761Y-33240859D02*
X150679285Y-33301335D01*
X150679285Y-33301335D02*
X150558333Y-33361811D01*
X150558333Y-33361811D02*
X150316428Y-33361811D01*
X150316428Y-33361811D02*
X150195476Y-33422288D01*
X150195476Y-33422288D02*
X150134999Y-33482764D01*
X150134999Y-33482764D02*
X150074523Y-33603716D01*
X150074523Y-33603716D02*
X150074523Y-33845621D01*
X150074523Y-33845621D02*
X150134999Y-33966573D01*
X150134999Y-33966573D02*
X150195476Y-34027050D01*
X150195476Y-34027050D02*
X150316428Y-34087526D01*
X150316428Y-34087526D02*
X150558333Y-34087526D01*
X150558333Y-34087526D02*
X150679285Y-34027050D01*
X150679285Y-34027050D02*
X150739761Y-33966573D01*
X150739761Y-33966573D02*
X150800238Y-33845621D01*
X150800238Y-33845621D02*
X150800238Y-33603716D01*
X150800238Y-33603716D02*
X150739761Y-33482764D01*
X150739761Y-33482764D02*
X150679285Y-33422288D01*
X150679285Y-33422288D02*
X150558333Y-33361811D01*
X132038333Y-67837526D02*
X131433571Y-67837526D01*
X131433571Y-67837526D02*
X131433571Y-66567526D01*
X133126905Y-67837526D02*
X132401190Y-67837526D01*
X132764047Y-67837526D02*
X132764047Y-66567526D01*
X132764047Y-66567526D02*
X132643095Y-66748954D01*
X132643095Y-66748954D02*
X132522143Y-66869907D01*
X132522143Y-66869907D02*
X132401190Y-66930383D01*
D10*
X71416666Y-55212619D02*
X71416666Y-55926904D01*
X71416666Y-55926904D02*
X71369047Y-56069761D01*
X71369047Y-56069761D02*
X71273809Y-56165000D01*
X71273809Y-56165000D02*
X71130952Y-56212619D01*
X71130952Y-56212619D02*
X71035714Y-56212619D01*
X71940476Y-56212619D02*
X72130952Y-56212619D01*
X72130952Y-56212619D02*
X72226190Y-56165000D01*
X72226190Y-56165000D02*
X72273809Y-56117380D01*
X72273809Y-56117380D02*
X72369047Y-55974523D01*
X72369047Y-55974523D02*
X72416666Y-55784047D01*
X72416666Y-55784047D02*
X72416666Y-55403095D01*
X72416666Y-55403095D02*
X72369047Y-55307857D01*
X72369047Y-55307857D02*
X72321428Y-55260238D01*
X72321428Y-55260238D02*
X72226190Y-55212619D01*
X72226190Y-55212619D02*
X72035714Y-55212619D01*
X72035714Y-55212619D02*
X71940476Y-55260238D01*
X71940476Y-55260238D02*
X71892857Y-55307857D01*
X71892857Y-55307857D02*
X71845238Y-55403095D01*
X71845238Y-55403095D02*
X71845238Y-55641190D01*
X71845238Y-55641190D02*
X71892857Y-55736428D01*
X71892857Y-55736428D02*
X71940476Y-55784047D01*
X71940476Y-55784047D02*
X72035714Y-55831666D01*
X72035714Y-55831666D02*
X72226190Y-55831666D01*
X72226190Y-55831666D02*
X72321428Y-55784047D01*
X72321428Y-55784047D02*
X72369047Y-55736428D01*
X72369047Y-55736428D02*
X72416666Y-55641190D01*
X71416666Y-60382619D02*
X71416666Y-61096904D01*
X71416666Y-61096904D02*
X71369047Y-61239761D01*
X71369047Y-61239761D02*
X71273809Y-61335000D01*
X71273809Y-61335000D02*
X71130952Y-61382619D01*
X71130952Y-61382619D02*
X71035714Y-61382619D01*
X72035714Y-60811190D02*
X71940476Y-60763571D01*
X71940476Y-60763571D02*
X71892857Y-60715952D01*
X71892857Y-60715952D02*
X71845238Y-60620714D01*
X71845238Y-60620714D02*
X71845238Y-60573095D01*
X71845238Y-60573095D02*
X71892857Y-60477857D01*
X71892857Y-60477857D02*
X71940476Y-60430238D01*
X71940476Y-60430238D02*
X72035714Y-60382619D01*
X72035714Y-60382619D02*
X72226190Y-60382619D01*
X72226190Y-60382619D02*
X72321428Y-60430238D01*
X72321428Y-60430238D02*
X72369047Y-60477857D01*
X72369047Y-60477857D02*
X72416666Y-60573095D01*
X72416666Y-60573095D02*
X72416666Y-60620714D01*
X72416666Y-60620714D02*
X72369047Y-60715952D01*
X72369047Y-60715952D02*
X72321428Y-60763571D01*
X72321428Y-60763571D02*
X72226190Y-60811190D01*
X72226190Y-60811190D02*
X72035714Y-60811190D01*
X72035714Y-60811190D02*
X71940476Y-60858809D01*
X71940476Y-60858809D02*
X71892857Y-60906428D01*
X71892857Y-60906428D02*
X71845238Y-61001666D01*
X71845238Y-61001666D02*
X71845238Y-61192142D01*
X71845238Y-61192142D02*
X71892857Y-61287380D01*
X71892857Y-61287380D02*
X71940476Y-61335000D01*
X71940476Y-61335000D02*
X72035714Y-61382619D01*
X72035714Y-61382619D02*
X72226190Y-61382619D01*
X72226190Y-61382619D02*
X72321428Y-61335000D01*
X72321428Y-61335000D02*
X72369047Y-61287380D01*
X72369047Y-61287380D02*
X72416666Y-61192142D01*
X72416666Y-61192142D02*
X72416666Y-61001666D01*
X72416666Y-61001666D02*
X72369047Y-60906428D01*
X72369047Y-60906428D02*
X72321428Y-60858809D01*
X72321428Y-60858809D02*
X72226190Y-60811190D01*
D13*
X91010237Y-34587526D02*
X91010237Y-33317526D01*
X92340714Y-34466573D02*
X92280238Y-34527050D01*
X92280238Y-34527050D02*
X92098809Y-34587526D01*
X92098809Y-34587526D02*
X91977857Y-34587526D01*
X91977857Y-34587526D02*
X91796428Y-34527050D01*
X91796428Y-34527050D02*
X91675476Y-34406097D01*
X91675476Y-34406097D02*
X91614999Y-34285145D01*
X91614999Y-34285145D02*
X91554523Y-34043240D01*
X91554523Y-34043240D02*
X91554523Y-33861811D01*
X91554523Y-33861811D02*
X91614999Y-33619907D01*
X91614999Y-33619907D02*
X91675476Y-33498954D01*
X91675476Y-33498954D02*
X91796428Y-33378002D01*
X91796428Y-33378002D02*
X91977857Y-33317526D01*
X91977857Y-33317526D02*
X92098809Y-33317526D01*
X92098809Y-33317526D02*
X92280238Y-33378002D01*
X92280238Y-33378002D02*
X92340714Y-33438478D01*
X92764047Y-33317526D02*
X93610714Y-33317526D01*
X93610714Y-33317526D02*
X93066428Y-34587526D01*
D14*
X165600000Y-57800000D02*
X165600000Y-57800000D01*
X165600000Y-57700000D02*
X165600000Y-57700000D01*
X165600000Y-57700000D02*
G75*
G03*
X165600000Y-57800000I0J-50000D01*
G01*
X165600000Y-57800000D02*
G75*
G03*
X165600000Y-57700000I0J50000D01*
G01*
D15*
X75927500Y-118227064D02*
X75927500Y-117772936D01*
X77397500Y-118227064D02*
X77397500Y-117772936D01*
X76022936Y-106627500D02*
X76477064Y-106627500D01*
X76022936Y-108097500D02*
X76477064Y-108097500D01*
D14*
X83600000Y-40200000D02*
X83600000Y-40200000D01*
X83600000Y-40100000D02*
X83600000Y-40100000D01*
X83600000Y-40100000D02*
G75*
G03*
X83600000Y-40200000I0J-50000D01*
G01*
X83600000Y-40200000D02*
G75*
G03*
X83600000Y-40100000I0J50000D01*
G01*
X46600000Y-110600000D02*
X46600000Y-110600000D01*
X46600000Y-110500000D02*
X46600000Y-110500000D01*
X46600000Y-110500000D02*
G75*
G03*
X46600000Y-110600000I0J-50000D01*
G01*
X46600000Y-110600000D02*
G75*
G03*
X46600000Y-110500000I0J50000D01*
G01*
X37600000Y-128200000D02*
X37600000Y-128200000D01*
X37600000Y-128100000D02*
X37600000Y-128100000D01*
X37600000Y-128100000D02*
G75*
G03*
X37600000Y-128200000I0J-50000D01*
G01*
X37600000Y-128200000D02*
G75*
G03*
X37600000Y-128100000I0J50000D01*
G01*
D15*
X71522936Y-106627500D02*
X71977064Y-106627500D01*
X71522936Y-108097500D02*
X71977064Y-108097500D01*
D11*
X103568000Y-122276000D02*
X102368000Y-122276000D01*
X101318000Y-122376000D02*
X97818000Y-122376000D01*
X101318000Y-115876000D02*
X101318000Y-122376000D01*
X97818000Y-122376000D02*
X97818000Y-115876000D01*
X97818000Y-115876000D02*
X101318000Y-115876000D01*
D15*
X122624505Y-83137101D02*
X122905665Y-83137101D01*
X122624505Y-84157101D02*
X122905665Y-84157101D01*
D14*
X55600000Y-75400000D02*
X55600000Y-75400000D01*
X55600000Y-75300000D02*
X55600000Y-75300000D01*
X55600000Y-75300000D02*
G75*
G03*
X55600000Y-75400000I0J-50000D01*
G01*
X55600000Y-75400000D02*
G75*
G03*
X55600000Y-75300000I0J50000D01*
G01*
D15*
X64920000Y-68170000D02*
X66250000Y-68170000D01*
X64920000Y-69500000D02*
X64920000Y-68170000D01*
X64920000Y-70770000D02*
X64920000Y-70830000D01*
X64920000Y-70770000D02*
X67580000Y-70770000D01*
X64920000Y-70830000D02*
X67580000Y-70830000D01*
X67580000Y-70770000D02*
X67580000Y-70830000D01*
X67640580Y-110622500D02*
X67359420Y-110622500D01*
X67640580Y-109602500D02*
X67359420Y-109602500D01*
D14*
X55600000Y-57800000D02*
X55600000Y-57800000D01*
X55600000Y-57700000D02*
X55600000Y-57700000D01*
X55600000Y-57700000D02*
G75*
G03*
X55600000Y-57800000I0J-50000D01*
G01*
X55600000Y-57800000D02*
G75*
G03*
X55600000Y-57700000I0J50000D01*
G01*
X83600000Y-57800000D02*
X83600000Y-57800000D01*
X83600000Y-57700000D02*
X83600000Y-57700000D01*
X83600000Y-57700000D02*
G75*
G03*
X83600000Y-57800000I0J-50000D01*
G01*
X83600000Y-57800000D02*
G75*
G03*
X83600000Y-57700000I0J50000D01*
G01*
X147600000Y-40200000D02*
X147600000Y-40200000D01*
X147600000Y-40100000D02*
X147600000Y-40100000D01*
X147600000Y-40100000D02*
G75*
G03*
X147600000Y-40200000I0J-50000D01*
G01*
X147600000Y-40200000D02*
G75*
G03*
X147600000Y-40100000I0J50000D01*
G01*
X101600000Y-110600000D02*
X101600000Y-110600000D01*
X101600000Y-110500000D02*
X101600000Y-110500000D01*
X101600000Y-110500000D02*
G75*
G03*
X101600000Y-110600000I0J-50000D01*
G01*
X101600000Y-110600000D02*
G75*
G03*
X101600000Y-110500000I0J50000D01*
G01*
X147600000Y-128200000D02*
X147600000Y-128200000D01*
X147600000Y-128100000D02*
X147600000Y-128100000D01*
X147600000Y-128100000D02*
G75*
G03*
X147600000Y-128200000I0J-50000D01*
G01*
X147600000Y-128200000D02*
G75*
G03*
X147600000Y-128100000I0J50000D01*
G01*
X37600000Y-75400000D02*
X37600000Y-75400000D01*
X37600000Y-75300000D02*
X37600000Y-75300000D01*
X37600000Y-75300000D02*
G75*
G03*
X37600000Y-75400000I0J-50000D01*
G01*
X37600000Y-75400000D02*
G75*
G03*
X37600000Y-75300000I0J50000D01*
G01*
X138600000Y-128200000D02*
X138600000Y-128200000D01*
X138600000Y-128100000D02*
X138600000Y-128100000D01*
X138600000Y-128100000D02*
G75*
G03*
X138600000Y-128200000I0J-50000D01*
G01*
X138600000Y-128200000D02*
G75*
G03*
X138600000Y-128100000I0J50000D01*
G01*
X46600000Y-128200000D02*
X46600000Y-128200000D01*
X46600000Y-128100000D02*
X46600000Y-128100000D01*
X46600000Y-128100000D02*
G75*
G03*
X46600000Y-128200000I0J-50000D01*
G01*
X46600000Y-128200000D02*
G75*
G03*
X46600000Y-128100000I0J50000D01*
G01*
D15*
X77670000Y-66420000D02*
X79000000Y-66420000D01*
X77670000Y-67750000D02*
X77670000Y-66420000D01*
X77670000Y-69020000D02*
X77670000Y-69080000D01*
X77670000Y-69020000D02*
X80330000Y-69020000D01*
X77670000Y-69080000D02*
X80330000Y-69080000D01*
X80330000Y-69020000D02*
X80330000Y-69080000D01*
X69177500Y-118227064D02*
X69177500Y-117772936D01*
X70647500Y-118227064D02*
X70647500Y-117772936D01*
D14*
X165600000Y-110600000D02*
X165600000Y-110600000D01*
X165600000Y-110500000D02*
X165600000Y-110500000D01*
X165600000Y-110500000D02*
G75*
G03*
X165600000Y-110600000I0J-50000D01*
G01*
X165600000Y-110600000D02*
G75*
G03*
X165600000Y-110500000I0J50000D01*
G01*
D15*
X130063420Y-46490000D02*
X130344580Y-46490000D01*
X130063420Y-47510000D02*
X130344580Y-47510000D01*
X69522936Y-52465000D02*
X69977064Y-52465000D01*
X69522936Y-53935000D02*
X69977064Y-53935000D01*
D14*
X101600000Y-57800000D02*
X101600000Y-57800000D01*
X101600000Y-57700000D02*
X101600000Y-57700000D01*
X101600000Y-57700000D02*
G75*
G03*
X101600000Y-57800000I0J-50000D01*
G01*
X101600000Y-57800000D02*
G75*
G03*
X101600000Y-57700000I0J50000D01*
G01*
X147600000Y-57800000D02*
X147600000Y-57800000D01*
X147600000Y-57700000D02*
X147600000Y-57700000D01*
X147600000Y-57700000D02*
G75*
G03*
X147600000Y-57800000I0J-50000D01*
G01*
X147600000Y-57800000D02*
G75*
G03*
X147600000Y-57700000I0J50000D01*
G01*
X110600000Y-57800000D02*
X110600000Y-57800000D01*
X110600000Y-57700000D02*
X110600000Y-57700000D01*
X110600000Y-57700000D02*
G75*
G03*
X110600000Y-57800000I0J-50000D01*
G01*
X110600000Y-57800000D02*
G75*
G03*
X110600000Y-57700000I0J50000D01*
G01*
X138600000Y-57800000D02*
X138600000Y-57800000D01*
X138600000Y-57700000D02*
X138600000Y-57700000D01*
X138600000Y-57700000D02*
G75*
G03*
X138600000Y-57800000I0J-50000D01*
G01*
X138600000Y-57800000D02*
G75*
G03*
X138600000Y-57700000I0J50000D01*
G01*
D11*
X61900000Y-36570000D02*
X61900000Y-33500000D01*
X51500000Y-36570000D02*
X61900000Y-36570000D01*
X51500000Y-31970000D02*
X51500000Y-36570000D01*
D14*
X28600000Y-40200000D02*
X28600000Y-40200000D01*
X28600000Y-40100000D02*
X28600000Y-40100000D01*
X28600000Y-40100000D02*
G75*
G03*
X28600000Y-40200000I0J-50000D01*
G01*
X28600000Y-40200000D02*
G75*
G03*
X28600000Y-40100000I0J50000D01*
G01*
D15*
X66832500Y-130080000D02*
X66832500Y-128750000D01*
X68162500Y-130080000D02*
X66832500Y-130080000D01*
X69432500Y-130080000D02*
X77112500Y-130080000D01*
X69432500Y-130080000D02*
X69432500Y-127420000D01*
X77112500Y-130080000D02*
X77112500Y-127420000D01*
X69432500Y-127420000D02*
X77112500Y-127420000D01*
D14*
X55600000Y-110600000D02*
X55600000Y-110600000D01*
X55600000Y-110500000D02*
X55600000Y-110500000D01*
X55600000Y-110500000D02*
G75*
G03*
X55600000Y-110600000I0J-50000D01*
G01*
X55600000Y-110600000D02*
G75*
G03*
X55600000Y-110500000I0J50000D01*
G01*
D15*
X70420000Y-66920000D02*
X71750000Y-66920000D01*
X70420000Y-68250000D02*
X70420000Y-66920000D01*
X70420000Y-69520000D02*
X70420000Y-69580000D01*
X70420000Y-69520000D02*
X73080000Y-69520000D01*
X70420000Y-69580000D02*
X73080000Y-69580000D01*
X73080000Y-69520000D02*
X73080000Y-69580000D01*
D14*
X46600000Y-75400000D02*
X46600000Y-75400000D01*
X46600000Y-75300000D02*
X46600000Y-75300000D01*
X46600000Y-75300000D02*
G75*
G03*
X46600000Y-75400000I0J-50000D01*
G01*
X46600000Y-75400000D02*
G75*
G03*
X46600000Y-75300000I0J50000D01*
G01*
X28600000Y-93000000D02*
X28600000Y-93000000D01*
X28600000Y-92900000D02*
X28600000Y-92900000D01*
X28600000Y-92900000D02*
G75*
G03*
X28600000Y-93000000I0J-50000D01*
G01*
X28600000Y-93000000D02*
G75*
G03*
X28600000Y-92900000I0J50000D01*
G01*
X156600000Y-40200000D02*
X156600000Y-40200000D01*
X156600000Y-40100000D02*
X156600000Y-40100000D01*
X156600000Y-40100000D02*
G75*
G03*
X156600000Y-40200000I0J-50000D01*
G01*
X156600000Y-40200000D02*
G75*
G03*
X156600000Y-40100000I0J50000D01*
G01*
D15*
X69905725Y-46602832D02*
X69451597Y-46602832D01*
X69905725Y-45132832D02*
X69451597Y-45132832D01*
D14*
X46600000Y-93000000D02*
X46600000Y-93000000D01*
X46600000Y-92900000D02*
X46600000Y-92900000D01*
X46600000Y-92900000D02*
G75*
G03*
X46600000Y-93000000I0J-50000D01*
G01*
X46600000Y-93000000D02*
G75*
G03*
X46600000Y-92900000I0J50000D01*
G01*
X147600000Y-93000000D02*
X147600000Y-93000000D01*
X147600000Y-92900000D02*
X147600000Y-92900000D01*
X147600000Y-92900000D02*
G75*
G03*
X147600000Y-93000000I0J-50000D01*
G01*
X147600000Y-93000000D02*
G75*
G03*
X147600000Y-92900000I0J50000D01*
G01*
D15*
X70420000Y-71920000D02*
X71750000Y-71920000D01*
X70420000Y-73250000D02*
X70420000Y-71920000D01*
X70420000Y-74520000D02*
X70420000Y-74580000D01*
X70420000Y-74520000D02*
X73080000Y-74520000D01*
X70420000Y-74580000D02*
X73080000Y-74580000D01*
X73080000Y-74520000D02*
X73080000Y-74580000D01*
D14*
X147600000Y-110600000D02*
X147600000Y-110600000D01*
X147600000Y-110500000D02*
X147600000Y-110500000D01*
X147600000Y-110500000D02*
G75*
G03*
X147600000Y-110600000I0J-50000D01*
G01*
X147600000Y-110600000D02*
G75*
G03*
X147600000Y-110500000I0J50000D01*
G01*
D15*
X72427500Y-118227064D02*
X72427500Y-117772936D01*
X73897500Y-118227064D02*
X73897500Y-117772936D01*
D14*
X83600000Y-110600000D02*
X83600000Y-110600000D01*
X83600000Y-110500000D02*
X83600000Y-110500000D01*
X83600000Y-110500000D02*
G75*
G03*
X83600000Y-110600000I0J-50000D01*
G01*
X83600000Y-110600000D02*
G75*
G03*
X83600000Y-110500000I0J50000D01*
G01*
X156600000Y-128200000D02*
X156600000Y-128200000D01*
X156600000Y-128100000D02*
X156600000Y-128100000D01*
X156600000Y-128100000D02*
G75*
G03*
X156600000Y-128200000I0J-50000D01*
G01*
X156600000Y-128200000D02*
G75*
G03*
X156600000Y-128100000I0J50000D01*
G01*
D15*
X64920000Y-73170000D02*
X66250000Y-73170000D01*
X64920000Y-74500000D02*
X64920000Y-73170000D01*
X64920000Y-75770000D02*
X64920000Y-75830000D01*
X64920000Y-75770000D02*
X67580000Y-75770000D01*
X64920000Y-75830000D02*
X67580000Y-75830000D01*
X67580000Y-75770000D02*
X67580000Y-75830000D01*
X75740000Y-73390580D02*
X75740000Y-73109420D01*
X76760000Y-73390580D02*
X76760000Y-73109420D01*
D14*
X55600000Y-40200000D02*
X55600000Y-40200000D01*
X55600000Y-40100000D02*
X55600000Y-40100000D01*
X55600000Y-40100000D02*
G75*
G03*
X55600000Y-40200000I0J-50000D01*
G01*
X55600000Y-40200000D02*
G75*
G03*
X55600000Y-40100000I0J50000D01*
G01*
X28600000Y-75400000D02*
X28600000Y-75400000D01*
X28600000Y-75300000D02*
X28600000Y-75300000D01*
X28600000Y-75300000D02*
G75*
G03*
X28600000Y-75400000I0J-50000D01*
G01*
X28600000Y-75400000D02*
G75*
G03*
X28600000Y-75300000I0J50000D01*
G01*
X165600000Y-75400000D02*
X165600000Y-75400000D01*
X165600000Y-75300000D02*
X165600000Y-75300000D01*
X165600000Y-75300000D02*
G75*
G03*
X165600000Y-75400000I0J-50000D01*
G01*
X165600000Y-75400000D02*
G75*
G03*
X165600000Y-75300000I0J50000D01*
G01*
X110600000Y-75400000D02*
X110600000Y-75400000D01*
X110600000Y-75300000D02*
X110600000Y-75300000D01*
X110600000Y-75300000D02*
G75*
G03*
X110600000Y-75400000I0J-50000D01*
G01*
X110600000Y-75400000D02*
G75*
G03*
X110600000Y-75300000I0J50000D01*
G01*
X92600000Y-128200000D02*
X92600000Y-128200000D01*
X92600000Y-128100000D02*
X92600000Y-128100000D01*
X92600000Y-128100000D02*
G75*
G03*
X92600000Y-128200000I0J-50000D01*
G01*
X92600000Y-128200000D02*
G75*
G03*
X92600000Y-128100000I0J50000D01*
G01*
X110600000Y-93000000D02*
X110600000Y-93000000D01*
X110600000Y-92900000D02*
X110600000Y-92900000D01*
X110600000Y-92900000D02*
G75*
G03*
X110600000Y-93000000I0J-50000D01*
G01*
X110600000Y-93000000D02*
G75*
G03*
X110600000Y-92900000I0J50000D01*
G01*
D16*
X130813637Y-127637472D02*
X130899290Y-127663641D01*
X130954437Y-127696707D01*
X130972401Y-127722855D01*
X130967457Y-127753852D01*
X130935372Y-127802547D01*
X130908243Y-127837035D01*
X130852317Y-127899383D01*
X130810299Y-127925615D01*
X130774480Y-127923903D01*
X130668224Y-127896863D01*
X130590189Y-127898091D01*
X130526820Y-127928735D01*
X130505546Y-127946670D01*
X130437451Y-128009779D01*
X130437451Y-128833922D01*
X130163529Y-128833922D01*
X130163529Y-127638628D01*
X130300490Y-127638628D01*
X130382719Y-127641879D01*
X130425144Y-127653426D01*
X130437445Y-127675952D01*
X130437451Y-127676620D01*
X130443260Y-127700215D01*
X130469531Y-127697138D01*
X130505931Y-127680115D01*
X130581111Y-127648439D01*
X130642158Y-127629381D01*
X130720708Y-127624496D01*
X130813637Y-127637472D01*
G36*
X130813637Y-127637472D02*
G01*
X130899290Y-127663641D01*
X130954437Y-127696707D01*
X130972401Y-127722855D01*
X130967457Y-127753852D01*
X130935372Y-127802547D01*
X130908243Y-127837035D01*
X130852317Y-127899383D01*
X130810299Y-127925615D01*
X130774480Y-127923903D01*
X130668224Y-127896863D01*
X130590189Y-127898091D01*
X130526820Y-127928735D01*
X130505546Y-127946670D01*
X130437451Y-128009779D01*
X130437451Y-128833922D01*
X130163529Y-128833922D01*
X130163529Y-127638628D01*
X130300490Y-127638628D01*
X130382719Y-127641879D01*
X130425144Y-127653426D01*
X130437445Y-127675952D01*
X130437451Y-127676620D01*
X130443260Y-127700215D01*
X130469531Y-127697138D01*
X130505931Y-127680115D01*
X130581111Y-127648439D01*
X130642158Y-127629381D01*
X130720708Y-127624496D01*
X130813637Y-127637472D01*
G37*
X130488446Y-129505883D02*
X130584177Y-129524755D01*
X130638677Y-129552699D01*
X130696008Y-129599123D01*
X130614441Y-129702111D01*
X130564150Y-129764479D01*
X130530001Y-129794907D01*
X130496063Y-129799555D01*
X130446406Y-129784586D01*
X130423096Y-129776117D01*
X130328063Y-129763622D01*
X130241032Y-129790406D01*
X130177138Y-129850915D01*
X130166759Y-129870208D01*
X130155456Y-129921314D01*
X130146732Y-130015500D01*
X130140997Y-130146089D01*
X130138660Y-130306405D01*
X130138627Y-130329211D01*
X130138627Y-130726471D01*
X129864705Y-130726471D01*
X129864705Y-129506275D01*
X130001666Y-129506275D01*
X130080638Y-129508337D01*
X130121779Y-129517513D01*
X130136992Y-129538290D01*
X130138627Y-129557886D01*
X130138627Y-129609497D01*
X130204240Y-129557886D01*
X130279475Y-129522675D01*
X130380544Y-129505265D01*
X130488446Y-129505883D01*
G36*
X130488446Y-129505883D02*
G01*
X130584177Y-129524755D01*
X130638677Y-129552699D01*
X130696008Y-129599123D01*
X130614441Y-129702111D01*
X130564150Y-129764479D01*
X130530001Y-129794907D01*
X130496063Y-129799555D01*
X130446406Y-129784586D01*
X130423096Y-129776117D01*
X130328063Y-129763622D01*
X130241032Y-129790406D01*
X130177138Y-129850915D01*
X130166759Y-129870208D01*
X130155456Y-129921314D01*
X130146732Y-130015500D01*
X130140997Y-130146089D01*
X130138660Y-130306405D01*
X130138627Y-130329211D01*
X130138627Y-130726471D01*
X129864705Y-130726471D01*
X129864705Y-129506275D01*
X130001666Y-129506275D01*
X130080638Y-129508337D01*
X130121779Y-129517513D01*
X130136992Y-129538290D01*
X130138627Y-129557886D01*
X130138627Y-129609497D01*
X130204240Y-129557886D01*
X130279475Y-129522675D01*
X130380544Y-129505265D01*
X130488446Y-129505883D01*
G37*
X125282764Y-129508921D02*
X125320030Y-129520091D01*
X125332043Y-129544633D01*
X125332549Y-129555712D01*
X125334704Y-129586572D01*
X125349551Y-129591417D01*
X125389657Y-129570260D01*
X125413480Y-129555806D01*
X125488638Y-129524850D01*
X125578406Y-129509544D01*
X125672529Y-129508367D01*
X125760754Y-129519799D01*
X125832826Y-129542320D01*
X125878492Y-129574409D01*
X125887498Y-129614545D01*
X125882953Y-129625415D01*
X125849821Y-129670534D01*
X125798445Y-129726026D01*
X125789152Y-129734996D01*
X125740182Y-129776245D01*
X125697931Y-129789572D01*
X125638841Y-129780271D01*
X125615169Y-129774090D01*
X125541504Y-129759246D01*
X125489710Y-129765921D01*
X125445969Y-129789465D01*
X125405902Y-129821061D01*
X125376392Y-129860798D01*
X125355884Y-129916252D01*
X125342824Y-129995003D01*
X125335656Y-130104629D01*
X125332824Y-130252706D01*
X125332549Y-130342111D01*
X125332549Y-130726471D01*
X125083529Y-130726471D01*
X125083529Y-129506275D01*
X125208039Y-129506275D01*
X125282764Y-129508921D01*
G36*
X125282764Y-129508921D02*
G01*
X125320030Y-129520091D01*
X125332043Y-129544633D01*
X125332549Y-129555712D01*
X125334704Y-129586572D01*
X125349551Y-129591417D01*
X125389657Y-129570260D01*
X125413480Y-129555806D01*
X125488638Y-129524850D01*
X125578406Y-129509544D01*
X125672529Y-129508367D01*
X125760754Y-129519799D01*
X125832826Y-129542320D01*
X125878492Y-129574409D01*
X125887498Y-129614545D01*
X125882953Y-129625415D01*
X125849821Y-129670534D01*
X125798445Y-129726026D01*
X125789152Y-129734996D01*
X125740182Y-129776245D01*
X125697931Y-129789572D01*
X125638841Y-129780271D01*
X125615169Y-129774090D01*
X125541504Y-129759246D01*
X125489710Y-129765921D01*
X125445969Y-129789465D01*
X125405902Y-129821061D01*
X125376392Y-129860798D01*
X125355884Y-129916252D01*
X125342824Y-129995003D01*
X125335656Y-130104629D01*
X125332824Y-130252706D01*
X125332549Y-130342111D01*
X125332549Y-130726471D01*
X125083529Y-130726471D01*
X125083529Y-129506275D01*
X125208039Y-129506275D01*
X125282764Y-129508921D01*
G37*
X129217254Y-128026245D02*
X129219608Y-128208879D01*
X129228207Y-128347600D01*
X129245360Y-128448147D01*
X129273374Y-128516254D01*
X129314557Y-128557659D01*
X129371217Y-128578097D01*
X129441372Y-128583318D01*
X129514848Y-128577468D01*
X129570657Y-128556093D01*
X129611109Y-128513458D01*
X129638509Y-128443825D01*
X129655167Y-128341460D01*
X129663389Y-128200624D01*
X129665490Y-128026245D01*
X129665490Y-127638628D01*
X129939411Y-127638628D01*
X129939411Y-128833922D01*
X129802451Y-128833922D01*
X129719884Y-128830576D01*
X129677368Y-128818826D01*
X129665490Y-128796520D01*
X129658336Y-128776654D01*
X129629865Y-128780857D01*
X129572476Y-128808971D01*
X129440945Y-128852342D01*
X129301438Y-128849270D01*
X129167765Y-128802174D01*
X129104108Y-128764971D01*
X129055553Y-128724691D01*
X129020081Y-128674291D01*
X128995674Y-128606729D01*
X128980313Y-128514965D01*
X128971982Y-128391955D01*
X128968662Y-128230659D01*
X128968235Y-128105928D01*
X128968235Y-127638628D01*
X129217254Y-127638628D01*
X129217254Y-128026245D01*
G36*
X129217254Y-128026245D02*
G01*
X129219608Y-128208879D01*
X129228207Y-128347600D01*
X129245360Y-128448147D01*
X129273374Y-128516254D01*
X129314557Y-128557659D01*
X129371217Y-128578097D01*
X129441372Y-128583318D01*
X129514848Y-128577468D01*
X129570657Y-128556093D01*
X129611109Y-128513458D01*
X129638509Y-128443825D01*
X129655167Y-128341460D01*
X129663389Y-128200624D01*
X129665490Y-128026245D01*
X129665490Y-127638628D01*
X129939411Y-127638628D01*
X129939411Y-128833922D01*
X129802451Y-128833922D01*
X129719884Y-128830576D01*
X129677368Y-128818826D01*
X129665490Y-128796520D01*
X129658336Y-128776654D01*
X129629865Y-128780857D01*
X129572476Y-128808971D01*
X129440945Y-128852342D01*
X129301438Y-128849270D01*
X129167765Y-128802174D01*
X129104108Y-128764971D01*
X129055553Y-128724691D01*
X129020081Y-128674291D01*
X128995674Y-128606729D01*
X128980313Y-128514965D01*
X128971982Y-128391955D01*
X128968662Y-128230659D01*
X128968235Y-128105928D01*
X128968235Y-127638628D01*
X129217254Y-127638628D01*
X129217254Y-128026245D01*
G37*
X125756760Y-127659199D02*
X125818736Y-127688802D01*
X125878759Y-127731561D01*
X125924486Y-127780775D01*
X125957793Y-127843544D01*
X125980555Y-127926971D01*
X125994647Y-128038159D01*
X126001942Y-128184209D01*
X126004318Y-128372223D01*
X126004355Y-128391912D01*
X126004902Y-128833922D01*
X125730980Y-128833922D01*
X125730980Y-128426435D01*
X125730785Y-128275471D01*
X125729436Y-128166056D01*
X125725788Y-128089933D01*
X125718696Y-128038848D01*
X125707013Y-128004545D01*
X125689594Y-127978768D01*
X125665329Y-127953298D01*
X125580435Y-127898571D01*
X125487761Y-127888416D01*
X125399473Y-127923017D01*
X125368770Y-127948770D01*
X125346229Y-127972982D01*
X125330046Y-127998912D01*
X125319168Y-128034708D01*
X125312542Y-128088519D01*
X125309115Y-128168493D01*
X125307834Y-128282779D01*
X125307647Y-128421907D01*
X125307647Y-128833922D01*
X125033725Y-128833922D01*
X125033725Y-127638628D01*
X125170686Y-127638628D01*
X125252916Y-127641879D01*
X125295340Y-127653426D01*
X125307641Y-127675952D01*
X125307647Y-127676620D01*
X125313354Y-127698681D01*
X125338527Y-127696177D01*
X125388578Y-127671937D01*
X125502094Y-127636271D01*
X125631945Y-127632305D01*
X125756760Y-127659199D01*
G36*
X125756760Y-127659199D02*
G01*
X125818736Y-127688802D01*
X125878759Y-127731561D01*
X125924486Y-127780775D01*
X125957793Y-127843544D01*
X125980555Y-127926971D01*
X125994647Y-128038159D01*
X126001942Y-128184209D01*
X126004318Y-128372223D01*
X126004355Y-128391912D01*
X126004902Y-128833922D01*
X125730980Y-128833922D01*
X125730980Y-128426435D01*
X125730785Y-128275471D01*
X125729436Y-128166056D01*
X125725788Y-128089933D01*
X125718696Y-128038848D01*
X125707013Y-128004545D01*
X125689594Y-127978768D01*
X125665329Y-127953298D01*
X125580435Y-127898571D01*
X125487761Y-127888416D01*
X125399473Y-127923017D01*
X125368770Y-127948770D01*
X125346229Y-127972982D01*
X125330046Y-127998912D01*
X125319168Y-128034708D01*
X125312542Y-128088519D01*
X125309115Y-128168493D01*
X125307834Y-128282779D01*
X125307647Y-128421907D01*
X125307647Y-128833922D01*
X125033725Y-128833922D01*
X125033725Y-127638628D01*
X125170686Y-127638628D01*
X125252916Y-127641879D01*
X125295340Y-127653426D01*
X125307641Y-127675952D01*
X125307647Y-127676620D01*
X125313354Y-127698681D01*
X125338527Y-127696177D01*
X125388578Y-127671937D01*
X125502094Y-127636271D01*
X125631945Y-127632305D01*
X125756760Y-127659199D01*
G37*
X131640976Y-127649056D02*
X131785256Y-127710348D01*
X131830699Y-127740185D01*
X131888779Y-127786036D01*
X131925238Y-127822089D01*
X131931568Y-127833832D01*
X131913693Y-127859889D01*
X131867950Y-127904105D01*
X131831328Y-127934965D01*
X131731088Y-128015520D01*
X131651935Y-127948918D01*
X131590769Y-127905921D01*
X131531129Y-127891079D01*
X131462872Y-127894704D01*
X131354482Y-127921652D01*
X131279872Y-127977587D01*
X131234530Y-128068014D01*
X131213947Y-128198435D01*
X131213942Y-128198517D01*
X131215722Y-128344290D01*
X131243387Y-128451245D01*
X131298571Y-128524064D01*
X131336192Y-128548723D01*
X131436105Y-128579431D01*
X131542822Y-128579449D01*
X131635669Y-128549655D01*
X131657647Y-128535098D01*
X131712765Y-128497914D01*
X131755859Y-128491820D01*
X131802335Y-128519496D01*
X131853716Y-128569205D01*
X131935046Y-128653116D01*
X131844749Y-128727546D01*
X131705236Y-128811549D01*
X131547912Y-128852947D01*
X131383503Y-128849950D01*
X131275531Y-128822500D01*
X131149331Y-128754620D01*
X131048401Y-128647831D01*
X131002548Y-128572451D01*
X130965410Y-128464297D01*
X130946827Y-128327318D01*
X130946684Y-128178864D01*
X130964865Y-128036281D01*
X131001255Y-127916918D01*
X131006987Y-127904680D01*
X131091865Y-127784655D01*
X131206782Y-127697267D01*
X131342659Y-127644329D01*
X131490417Y-127627654D01*
X131640976Y-127649056D01*
G36*
X131640976Y-127649056D02*
G01*
X131785256Y-127710348D01*
X131830699Y-127740185D01*
X131888779Y-127786036D01*
X131925238Y-127822089D01*
X131931568Y-127833832D01*
X131913693Y-127859889D01*
X131867950Y-127904105D01*
X131831328Y-127934965D01*
X131731088Y-128015520D01*
X131651935Y-127948918D01*
X131590769Y-127905921D01*
X131531129Y-127891079D01*
X131462872Y-127894704D01*
X131354482Y-127921652D01*
X131279872Y-127977587D01*
X131234530Y-128068014D01*
X131213947Y-128198435D01*
X131213942Y-128198517D01*
X131215722Y-128344290D01*
X131243387Y-128451245D01*
X131298571Y-128524064D01*
X131336192Y-128548723D01*
X131436105Y-128579431D01*
X131542822Y-128579449D01*
X131635669Y-128549655D01*
X131657647Y-128535098D01*
X131712765Y-128497914D01*
X131755859Y-128491820D01*
X131802335Y-128519496D01*
X131853716Y-128569205D01*
X131935046Y-128653116D01*
X131844749Y-128727546D01*
X131705236Y-128811549D01*
X131547912Y-128852947D01*
X131383503Y-128849950D01*
X131275531Y-128822500D01*
X131149331Y-128754620D01*
X131048401Y-128647831D01*
X131002548Y-128572451D01*
X130965410Y-128464297D01*
X130946827Y-128327318D01*
X130946684Y-128178864D01*
X130964865Y-128036281D01*
X131001255Y-127916918D01*
X131006987Y-127904680D01*
X131091865Y-127784655D01*
X131206782Y-127697267D01*
X131342659Y-127644329D01*
X131490417Y-127627654D01*
X131640976Y-127649056D01*
G37*
X127779933Y-128223145D02*
X128046862Y-128223145D01*
X128055854Y-128367645D01*
X128081736Y-128477760D01*
X128122868Y-128548116D01*
X128152172Y-128568235D01*
X128227251Y-128582265D01*
X128316494Y-128578111D01*
X128393650Y-128557922D01*
X128413883Y-128546815D01*
X128467265Y-128482123D01*
X128502500Y-128383119D01*
X128517498Y-128262632D01*
X128510172Y-128133494D01*
X128493799Y-128055775D01*
X128446790Y-127965771D01*
X128372582Y-127909509D01*
X128283209Y-127890057D01*
X128190707Y-127910481D01*
X128119653Y-127960437D01*
X128082312Y-128001655D01*
X128060518Y-128042281D01*
X128050130Y-128097264D01*
X128047006Y-128181549D01*
X128046862Y-128223145D01*
X127779933Y-128223145D01*
X127780930Y-128111874D01*
X127815180Y-127939423D01*
X127881802Y-127804814D01*
X127980799Y-127708040D01*
X128112175Y-127649094D01*
X128140385Y-127642259D01*
X128309926Y-127626213D01*
X128459547Y-127653364D01*
X128585502Y-127721959D01*
X128684047Y-127830245D01*
X128730478Y-127918315D01*
X128750412Y-127996101D01*
X128763328Y-128106993D01*
X128768863Y-128234738D01*
X128766654Y-128363084D01*
X128756337Y-128475779D01*
X128744286Y-128535969D01*
X128703634Y-128618311D01*
X128633230Y-128705770D01*
X128548382Y-128782251D01*
X128464397Y-128831655D01*
X128462349Y-128832439D01*
X128358134Y-128854027D01*
X128234627Y-128854562D01*
X128117261Y-128834908D01*
X128071942Y-128819155D01*
X127955220Y-128752966D01*
X127871624Y-128666246D01*
X127816701Y-128551438D01*
X127785995Y-128400982D01*
X127779047Y-128322173D01*
X127779933Y-128223145D01*
G36*
X127779933Y-128223145D02*
G01*
X128046862Y-128223145D01*
X128055854Y-128367645D01*
X128081736Y-128477760D01*
X128122868Y-128548116D01*
X128152172Y-128568235D01*
X128227251Y-128582265D01*
X128316494Y-128578111D01*
X128393650Y-128557922D01*
X128413883Y-128546815D01*
X128467265Y-128482123D01*
X128502500Y-128383119D01*
X128517498Y-128262632D01*
X128510172Y-128133494D01*
X128493799Y-128055775D01*
X128446790Y-127965771D01*
X128372582Y-127909509D01*
X128283209Y-127890057D01*
X128190707Y-127910481D01*
X128119653Y-127960437D01*
X128082312Y-128001655D01*
X128060518Y-128042281D01*
X128050130Y-128097264D01*
X128047006Y-128181549D01*
X128046862Y-128223145D01*
X127779933Y-128223145D01*
X127780930Y-128111874D01*
X127815180Y-127939423D01*
X127881802Y-127804814D01*
X127980799Y-127708040D01*
X128112175Y-127649094D01*
X128140385Y-127642259D01*
X128309926Y-127626213D01*
X128459547Y-127653364D01*
X128585502Y-127721959D01*
X128684047Y-127830245D01*
X128730478Y-127918315D01*
X128750412Y-127996101D01*
X128763328Y-128106993D01*
X128768863Y-128234738D01*
X128766654Y-128363084D01*
X128756337Y-128475779D01*
X128744286Y-128535969D01*
X128703634Y-128618311D01*
X128633230Y-128705770D01*
X128548382Y-128782251D01*
X128464397Y-128831655D01*
X128462349Y-128832439D01*
X128358134Y-128854027D01*
X128234627Y-128854562D01*
X128117261Y-128834908D01*
X128071942Y-128819155D01*
X127955220Y-128752966D01*
X127871624Y-128666246D01*
X127816701Y-128551438D01*
X127785995Y-128400982D01*
X127779047Y-128322173D01*
X127779933Y-128223145D01*
G37*
X127807528Y-129511332D02*
X127906014Y-129518726D01*
X128034776Y-129904706D01*
X128163537Y-130290686D01*
X128203911Y-130153726D01*
X128228207Y-130069083D01*
X128260167Y-129954697D01*
X128294679Y-129828963D01*
X128312928Y-129761520D01*
X128381571Y-129506275D01*
X128664773Y-129506275D01*
X128580122Y-129773971D01*
X128538435Y-129905638D01*
X128488074Y-130064458D01*
X128435481Y-130230128D01*
X128388530Y-130377843D01*
X128281589Y-130714020D01*
X128050661Y-130729044D01*
X127988050Y-130522316D01*
X127949438Y-130393896D01*
X127907300Y-130252322D01*
X127870472Y-130127285D01*
X127869018Y-130122309D01*
X127841511Y-130037586D01*
X127817242Y-129979778D01*
X127800243Y-129957918D01*
X127796750Y-129960446D01*
X127784490Y-129994336D01*
X127761195Y-130066930D01*
X127729700Y-130169101D01*
X127692842Y-130291720D01*
X127672899Y-130359167D01*
X127564895Y-130726471D01*
X127335679Y-130726471D01*
X127152439Y-130147500D01*
X127100963Y-129985091D01*
X127054070Y-129837602D01*
X127013977Y-129711960D01*
X126982897Y-129615095D01*
X126963045Y-129553934D01*
X126957011Y-129536065D01*
X126961788Y-129517768D01*
X126999297Y-129509755D01*
X127077355Y-129510557D01*
X127089574Y-129511163D01*
X127234326Y-129518726D01*
X127329130Y-129867353D01*
X127363977Y-129994497D01*
X127395117Y-130106265D01*
X127419809Y-130192953D01*
X127435312Y-130244856D01*
X127438176Y-130253318D01*
X127450046Y-130243587D01*
X127473983Y-130193172D01*
X127507239Y-130108935D01*
X127547064Y-129997741D01*
X127580730Y-129897297D01*
X127709041Y-129503939D01*
X127807528Y-129511332D01*
G36*
X127807528Y-129511332D02*
G01*
X127906014Y-129518726D01*
X128034776Y-129904706D01*
X128163537Y-130290686D01*
X128203911Y-130153726D01*
X128228207Y-130069083D01*
X128260167Y-129954697D01*
X128294679Y-129828963D01*
X128312928Y-129761520D01*
X128381571Y-129506275D01*
X128664773Y-129506275D01*
X128580122Y-129773971D01*
X128538435Y-129905638D01*
X128488074Y-130064458D01*
X128435481Y-130230128D01*
X128388530Y-130377843D01*
X128281589Y-130714020D01*
X128050661Y-130729044D01*
X127988050Y-130522316D01*
X127949438Y-130393896D01*
X127907300Y-130252322D01*
X127870472Y-130127285D01*
X127869018Y-130122309D01*
X127841511Y-130037586D01*
X127817242Y-129979778D01*
X127800243Y-129957918D01*
X127796750Y-129960446D01*
X127784490Y-129994336D01*
X127761195Y-130066930D01*
X127729700Y-130169101D01*
X127692842Y-130291720D01*
X127672899Y-130359167D01*
X127564895Y-130726471D01*
X127335679Y-130726471D01*
X127152439Y-130147500D01*
X127100963Y-129985091D01*
X127054070Y-129837602D01*
X127013977Y-129711960D01*
X126982897Y-129615095D01*
X126963045Y-129553934D01*
X126957011Y-129536065D01*
X126961788Y-129517768D01*
X126999297Y-129509755D01*
X127077355Y-129510557D01*
X127089574Y-129511163D01*
X127234326Y-129518726D01*
X127329130Y-129867353D01*
X127363977Y-129994497D01*
X127395117Y-130106265D01*
X127419809Y-130192953D01*
X127435312Y-130244856D01*
X127438176Y-130253318D01*
X127450046Y-130243587D01*
X127473983Y-130193172D01*
X127507239Y-130108935D01*
X127547064Y-129997741D01*
X127580730Y-129897297D01*
X127709041Y-129503939D01*
X127807528Y-129511332D01*
G37*
X121574844Y-128233944D02*
X121823814Y-128233944D01*
X121826247Y-128304348D01*
X121835080Y-128398068D01*
X121850664Y-128458214D01*
X121878766Y-128501006D01*
X121905086Y-128526002D01*
X121998392Y-128578338D01*
X122096020Y-128585333D01*
X122186942Y-128547676D01*
X122232402Y-128505479D01*
X122265162Y-128462956D01*
X122284323Y-128422267D01*
X122292733Y-128369314D01*
X122293237Y-128289997D01*
X122290645Y-128216950D01*
X122285071Y-128112601D01*
X122276234Y-128044920D01*
X122260307Y-128000774D01*
X122233462Y-127967031D01*
X122212189Y-127947746D01*
X122123206Y-127897086D01*
X122027211Y-127894560D01*
X121946719Y-127924567D01*
X121878053Y-127987231D01*
X121837144Y-128090168D01*
X121823814Y-128233944D01*
X121574844Y-128233944D01*
X121573246Y-128149582D01*
X121578260Y-128033600D01*
X121593283Y-127946367D01*
X121620376Y-127877530D01*
X121661600Y-127816737D01*
X121676885Y-127798686D01*
X121772454Y-127708746D01*
X121874961Y-127656211D01*
X122000321Y-127634201D01*
X122061450Y-127632402D01*
X122223247Y-127651568D01*
X122353522Y-127709163D01*
X122452419Y-127805334D01*
X122520082Y-127940229D01*
X122556655Y-128113996D01*
X122559276Y-128141126D01*
X122561330Y-128332408D01*
X122534699Y-128500073D01*
X122481001Y-128635967D01*
X122452247Y-128679681D01*
X122352091Y-128772198D01*
X122224537Y-128832119D01*
X122081837Y-128856985D01*
X121936240Y-128844339D01*
X121825562Y-128805391D01*
X121730384Y-128739755D01*
X121652594Y-128653699D01*
X121651249Y-128651685D01*
X121619657Y-128598570D01*
X121599127Y-128545160D01*
X121586695Y-128477754D01*
X121579397Y-128382653D01*
X121576182Y-128304666D01*
X121574844Y-128233944D01*
G36*
X121574844Y-128233944D02*
G01*
X121823814Y-128233944D01*
X121826247Y-128304348D01*
X121835080Y-128398068D01*
X121850664Y-128458214D01*
X121878766Y-128501006D01*
X121905086Y-128526002D01*
X121998392Y-128578338D01*
X122096020Y-128585333D01*
X122186942Y-128547676D01*
X122232402Y-128505479D01*
X122265162Y-128462956D01*
X122284323Y-128422267D01*
X122292733Y-128369314D01*
X122293237Y-128289997D01*
X122290645Y-128216950D01*
X122285071Y-128112601D01*
X122276234Y-128044920D01*
X122260307Y-128000774D01*
X122233462Y-127967031D01*
X122212189Y-127947746D01*
X122123206Y-127897086D01*
X122027211Y-127894560D01*
X121946719Y-127924567D01*
X121878053Y-127987231D01*
X121837144Y-128090168D01*
X121823814Y-128233944D01*
X121574844Y-128233944D01*
X121573246Y-128149582D01*
X121578260Y-128033600D01*
X121593283Y-127946367D01*
X121620376Y-127877530D01*
X121661600Y-127816737D01*
X121676885Y-127798686D01*
X121772454Y-127708746D01*
X121874961Y-127656211D01*
X122000321Y-127634201D01*
X122061450Y-127632402D01*
X122223247Y-127651568D01*
X122353522Y-127709163D01*
X122452419Y-127805334D01*
X122520082Y-127940229D01*
X122556655Y-128113996D01*
X122559276Y-128141126D01*
X122561330Y-128332408D01*
X122534699Y-128500073D01*
X122481001Y-128635967D01*
X122452247Y-128679681D01*
X122352091Y-128772198D01*
X122224537Y-128832119D01*
X122081837Y-128856985D01*
X121936240Y-128844339D01*
X121825562Y-128805391D01*
X121730384Y-128739755D01*
X121652594Y-128653699D01*
X121651249Y-128651685D01*
X121619657Y-128598570D01*
X121599127Y-128545160D01*
X121586695Y-128477754D01*
X121579397Y-128382653D01*
X121576182Y-128304666D01*
X121574844Y-128233944D01*
G37*
X125882275Y-130129052D02*
X126154289Y-130129052D01*
X126160590Y-130236070D01*
X126174925Y-130324278D01*
X126194331Y-130374090D01*
X126267746Y-130442162D01*
X126354914Y-130466564D01*
X126444804Y-130446831D01*
X126521617Y-130387968D01*
X126550708Y-130348379D01*
X126567717Y-130301138D01*
X126575684Y-130232181D01*
X126577647Y-130128607D01*
X126574134Y-130026039D01*
X126564857Y-129935921D01*
X126551706Y-129875613D01*
X126549514Y-129870208D01*
X126496478Y-129805940D01*
X126419067Y-129770656D01*
X126332454Y-129764959D01*
X126251807Y-129789453D01*
X126192297Y-129844742D01*
X126186124Y-129855743D01*
X126166801Y-129922827D01*
X126156274Y-130019284D01*
X126154289Y-130129052D01*
X125882275Y-130129052D01*
X125882404Y-130088225D01*
X125884194Y-130022918D01*
X125896373Y-129861355D01*
X125921685Y-129740053D01*
X125963793Y-129650379D01*
X126026359Y-129583699D01*
X126087100Y-129544557D01*
X126171964Y-129517040D01*
X126277515Y-129507603D01*
X126385598Y-129515290D01*
X126478058Y-129539146D01*
X126526910Y-129567685D01*
X126577647Y-129613601D01*
X126577647Y-129033137D01*
X126851568Y-129033137D01*
X126851568Y-130726471D01*
X126714607Y-130726471D01*
X126635111Y-130724140D01*
X126593708Y-130714488D01*
X126578801Y-130693525D01*
X126577647Y-130679351D01*
X126575133Y-130650927D01*
X126559280Y-130645475D01*
X126517621Y-130662998D01*
X126485224Y-130679351D01*
X126360849Y-130718103D01*
X126225646Y-130720346D01*
X126115726Y-130691444D01*
X126013366Y-130621619D01*
X125935340Y-130518555D01*
X125892614Y-130396989D01*
X125891526Y-130390192D01*
X125885178Y-130316032D01*
X125882021Y-130209570D01*
X125882275Y-130129052D01*
G36*
X125882275Y-130129052D02*
G01*
X126154289Y-130129052D01*
X126160590Y-130236070D01*
X126174925Y-130324278D01*
X126194331Y-130374090D01*
X126267746Y-130442162D01*
X126354914Y-130466564D01*
X126444804Y-130446831D01*
X126521617Y-130387968D01*
X126550708Y-130348379D01*
X126567717Y-130301138D01*
X126575684Y-130232181D01*
X126577647Y-130128607D01*
X126574134Y-130026039D01*
X126564857Y-129935921D01*
X126551706Y-129875613D01*
X126549514Y-129870208D01*
X126496478Y-129805940D01*
X126419067Y-129770656D01*
X126332454Y-129764959D01*
X126251807Y-129789453D01*
X126192297Y-129844742D01*
X126186124Y-129855743D01*
X126166801Y-129922827D01*
X126156274Y-130019284D01*
X126154289Y-130129052D01*
X125882275Y-130129052D01*
X125882404Y-130088225D01*
X125884194Y-130022918D01*
X125896373Y-129861355D01*
X125921685Y-129740053D01*
X125963793Y-129650379D01*
X126026359Y-129583699D01*
X126087100Y-129544557D01*
X126171964Y-129517040D01*
X126277515Y-129507603D01*
X126385598Y-129515290D01*
X126478058Y-129539146D01*
X126526910Y-129567685D01*
X126577647Y-129613601D01*
X126577647Y-129033137D01*
X126851568Y-129033137D01*
X126851568Y-130726471D01*
X126714607Y-130726471D01*
X126635111Y-130724140D01*
X126593708Y-130714488D01*
X126578801Y-130693525D01*
X126577647Y-130679351D01*
X126575133Y-130650927D01*
X126559280Y-130645475D01*
X126517621Y-130662998D01*
X126485224Y-130679351D01*
X126360849Y-130718103D01*
X126225646Y-130720346D01*
X126115726Y-130691444D01*
X126013366Y-130621619D01*
X125935340Y-130518555D01*
X125892614Y-130396989D01*
X125891526Y-130390192D01*
X125885178Y-130316032D01*
X125882021Y-130209570D01*
X125882275Y-130129052D01*
G37*
X131977393Y-128088035D02*
X132230392Y-128088035D01*
X132253627Y-128098491D01*
X132316710Y-128106500D01*
X132409706Y-128111073D01*
X132468638Y-128111765D01*
X132578537Y-128111332D01*
X132647252Y-128108578D01*
X132683405Y-128101321D01*
X132695615Y-128087376D01*
X132692504Y-128064562D01*
X132689894Y-128055735D01*
X132645344Y-127972800D01*
X132575279Y-127905960D01*
X132513446Y-127876589D01*
X132431301Y-127878362D01*
X132348062Y-127914990D01*
X132278238Y-127975634D01*
X132236337Y-128049456D01*
X132230392Y-128088035D01*
X131977393Y-128088035D01*
X131996385Y-127988395D01*
X132059773Y-127847711D01*
X132150878Y-127737974D01*
X132265978Y-127663174D01*
X132401355Y-127627304D01*
X132553287Y-127634355D01*
X132617051Y-127649845D01*
X132739300Y-127706569D01*
X132843834Y-127793202D01*
X132916180Y-127897074D01*
X132926119Y-127920396D01*
X132939754Y-127981484D01*
X132949298Y-128071853D01*
X132952549Y-128163190D01*
X132952549Y-128335882D01*
X132591470Y-128335882D01*
X132442546Y-128336445D01*
X132337632Y-128339864D01*
X132270937Y-128348731D01*
X132236666Y-128365641D01*
X132229028Y-128393189D01*
X132242229Y-128433968D01*
X132265877Y-128481683D01*
X132331843Y-128561314D01*
X132423512Y-128600987D01*
X132535555Y-128599695D01*
X132662472Y-128556514D01*
X132772158Y-128503224D01*
X132863173Y-128575191D01*
X132954188Y-128647157D01*
X132868563Y-128726269D01*
X132754250Y-128801017D01*
X132613666Y-128846084D01*
X132462449Y-128858696D01*
X132316236Y-128836079D01*
X132292647Y-128828405D01*
X132164141Y-128761296D01*
X132068551Y-128661247D01*
X132003861Y-128525271D01*
X131968057Y-128350380D01*
X131967640Y-128346632D01*
X131964434Y-128156032D01*
X131977393Y-128088035D01*
G36*
X131977393Y-128088035D02*
G01*
X132230392Y-128088035D01*
X132253627Y-128098491D01*
X132316710Y-128106500D01*
X132409706Y-128111073D01*
X132468638Y-128111765D01*
X132578537Y-128111332D01*
X132647252Y-128108578D01*
X132683405Y-128101321D01*
X132695615Y-128087376D01*
X132692504Y-128064562D01*
X132689894Y-128055735D01*
X132645344Y-127972800D01*
X132575279Y-127905960D01*
X132513446Y-127876589D01*
X132431301Y-127878362D01*
X132348062Y-127914990D01*
X132278238Y-127975634D01*
X132236337Y-128049456D01*
X132230392Y-128088035D01*
X131977393Y-128088035D01*
X131996385Y-127988395D01*
X132059773Y-127847711D01*
X132150878Y-127737974D01*
X132265978Y-127663174D01*
X132401355Y-127627304D01*
X132553287Y-127634355D01*
X132617051Y-127649845D01*
X132739300Y-127706569D01*
X132843834Y-127793202D01*
X132916180Y-127897074D01*
X132926119Y-127920396D01*
X132939754Y-127981484D01*
X132949298Y-128071853D01*
X132952549Y-128163190D01*
X132952549Y-128335882D01*
X132591470Y-128335882D01*
X132442546Y-128336445D01*
X132337632Y-128339864D01*
X132270937Y-128348731D01*
X132236666Y-128365641D01*
X132229028Y-128393189D01*
X132242229Y-128433968D01*
X132265877Y-128481683D01*
X132331843Y-128561314D01*
X132423512Y-128600987D01*
X132535555Y-128599695D01*
X132662472Y-128556514D01*
X132772158Y-128503224D01*
X132863173Y-128575191D01*
X132954188Y-128647157D01*
X132868563Y-128726269D01*
X132754250Y-128801017D01*
X132613666Y-128846084D01*
X132462449Y-128858696D01*
X132316236Y-128836079D01*
X132292647Y-128828405D01*
X132164141Y-128761296D01*
X132068551Y-128661247D01*
X132003861Y-128525271D01*
X131968057Y-128350380D01*
X131967640Y-128346632D01*
X131964434Y-128156032D01*
X131977393Y-128088035D01*
G37*
X127277759Y-127634345D02*
X127372059Y-127652229D01*
X127469890Y-127689633D01*
X127480343Y-127694402D01*
X127554531Y-127733412D01*
X127605910Y-127769664D01*
X127622517Y-127792887D01*
X127606702Y-127830761D01*
X127568288Y-127886644D01*
X127551237Y-127907505D01*
X127480969Y-127989618D01*
X127390379Y-127936168D01*
X127304164Y-127900561D01*
X127204549Y-127881529D01*
X127109019Y-127880326D01*
X127035061Y-127898210D01*
X127017312Y-127909373D01*
X126983512Y-127960553D01*
X126979404Y-128019509D01*
X127004696Y-128065567D01*
X127019656Y-128074499D01*
X127064486Y-128085592D01*
X127143286Y-128098630D01*
X127240426Y-128111088D01*
X127258346Y-128113042D01*
X127414365Y-128140030D01*
X127527523Y-128185873D01*
X127602569Y-128254803D01*
X127644253Y-128351054D01*
X127657238Y-128468617D01*
X127639299Y-128602254D01*
X127581050Y-128707195D01*
X127482255Y-128783630D01*
X127342682Y-128831748D01*
X127187745Y-128850732D01*
X127061398Y-128850504D01*
X126958913Y-128833262D01*
X126888921Y-128809457D01*
X126800483Y-128767978D01*
X126718754Y-128719842D01*
X126689705Y-128698655D01*
X126615000Y-128637676D01*
X126705098Y-128546508D01*
X126795196Y-128455339D01*
X126897632Y-128523128D01*
X127000374Y-128574042D01*
X127110087Y-128600673D01*
X127215551Y-128603483D01*
X127305546Y-128582935D01*
X127368854Y-128539493D01*
X127389296Y-128502838D01*
X127386229Y-128444053D01*
X127335434Y-128399099D01*
X127237048Y-128368057D01*
X127129256Y-128353710D01*
X126963365Y-128326337D01*
X126840124Y-128274693D01*
X126757886Y-128197266D01*
X126715001Y-128092544D01*
X126709060Y-127968387D01*
X126738406Y-127838702D01*
X126805309Y-127740677D01*
X126910371Y-127673866D01*
X127054190Y-127637820D01*
X127160738Y-127630754D01*
X127277759Y-127634345D01*
G36*
X127277759Y-127634345D02*
G01*
X127372059Y-127652229D01*
X127469890Y-127689633D01*
X127480343Y-127694402D01*
X127554531Y-127733412D01*
X127605910Y-127769664D01*
X127622517Y-127792887D01*
X127606702Y-127830761D01*
X127568288Y-127886644D01*
X127551237Y-127907505D01*
X127480969Y-127989618D01*
X127390379Y-127936168D01*
X127304164Y-127900561D01*
X127204549Y-127881529D01*
X127109019Y-127880326D01*
X127035061Y-127898210D01*
X127017312Y-127909373D01*
X126983512Y-127960553D01*
X126979404Y-128019509D01*
X127004696Y-128065567D01*
X127019656Y-128074499D01*
X127064486Y-128085592D01*
X127143286Y-128098630D01*
X127240426Y-128111088D01*
X127258346Y-128113042D01*
X127414365Y-128140030D01*
X127527523Y-128185873D01*
X127602569Y-128254803D01*
X127644253Y-128351054D01*
X127657238Y-128468617D01*
X127639299Y-128602254D01*
X127581050Y-128707195D01*
X127482255Y-128783630D01*
X127342682Y-128831748D01*
X127187745Y-128850732D01*
X127061398Y-128850504D01*
X126958913Y-128833262D01*
X126888921Y-128809457D01*
X126800483Y-128767978D01*
X126718754Y-128719842D01*
X126689705Y-128698655D01*
X126615000Y-128637676D01*
X126705098Y-128546508D01*
X126795196Y-128455339D01*
X126897632Y-128523128D01*
X127000374Y-128574042D01*
X127110087Y-128600673D01*
X127215551Y-128603483D01*
X127305546Y-128582935D01*
X127368854Y-128539493D01*
X127389296Y-128502838D01*
X127386229Y-128444053D01*
X127335434Y-128399099D01*
X127237048Y-128368057D01*
X127129256Y-128353710D01*
X126963365Y-128326337D01*
X126840124Y-128274693D01*
X126757886Y-128197266D01*
X126715001Y-128092544D01*
X126709060Y-127968387D01*
X126738406Y-127838702D01*
X126805309Y-127740677D01*
X126910371Y-127673866D01*
X127054190Y-127637820D01*
X127160738Y-127630754D01*
X127277759Y-127634345D01*
G37*
X130696714Y-129981033D02*
X130935490Y-129981033D01*
X130958584Y-129991038D01*
X131020662Y-129998888D01*
X131110914Y-130003521D01*
X131172058Y-130004314D01*
X131282040Y-130003549D01*
X131351457Y-129999970D01*
X131389538Y-129991649D01*
X131405515Y-129976657D01*
X131408627Y-129954903D01*
X131387278Y-129887892D01*
X131333529Y-129821664D01*
X131262822Y-129770832D01*
X131192089Y-129750038D01*
X131096016Y-129768484D01*
X131012849Y-129821811D01*
X130955186Y-129898677D01*
X130935490Y-129981033D01*
X130696714Y-129981033D01*
X130701028Y-129919291D01*
X130743520Y-129762271D01*
X130815635Y-129644069D01*
X130918273Y-129563440D01*
X131052332Y-129519139D01*
X131124957Y-129510607D01*
X131275307Y-129512784D01*
X131394337Y-129543731D01*
X131494021Y-129607600D01*
X131542288Y-129655313D01*
X131621408Y-129768106D01*
X131666752Y-129898950D01*
X131682330Y-130059792D01*
X131682410Y-130072794D01*
X131682549Y-130203530D01*
X130930091Y-130203530D01*
X130946130Y-130272010D01*
X130975091Y-130334031D01*
X131025778Y-130398654D01*
X131036379Y-130408971D01*
X131127494Y-130464805D01*
X131231400Y-130474275D01*
X131351000Y-130437540D01*
X131371274Y-130427647D01*
X131433456Y-130397574D01*
X131475106Y-130380440D01*
X131482373Y-130378855D01*
X131507740Y-130394242D01*
X131556120Y-130431887D01*
X131580679Y-130452459D01*
X131631570Y-130499714D01*
X131648281Y-130530917D01*
X131636683Y-130559620D01*
X131630483Y-130567468D01*
X131588493Y-130601819D01*
X131519206Y-130643565D01*
X131470882Y-130667935D01*
X131333711Y-130710873D01*
X131181847Y-130724786D01*
X131038024Y-130708300D01*
X130997745Y-130696496D01*
X130873078Y-130629689D01*
X130780671Y-130526892D01*
X130719990Y-130387105D01*
X130690498Y-130209330D01*
X130687260Y-130116373D01*
X130696714Y-129981033D01*
G36*
X130696714Y-129981033D02*
G01*
X130935490Y-129981033D01*
X130958584Y-129991038D01*
X131020662Y-129998888D01*
X131110914Y-130003521D01*
X131172058Y-130004314D01*
X131282040Y-130003549D01*
X131351457Y-129999970D01*
X131389538Y-129991649D01*
X131405515Y-129976657D01*
X131408627Y-129954903D01*
X131387278Y-129887892D01*
X131333529Y-129821664D01*
X131262822Y-129770832D01*
X131192089Y-129750038D01*
X131096016Y-129768484D01*
X131012849Y-129821811D01*
X130955186Y-129898677D01*
X130935490Y-129981033D01*
X130696714Y-129981033D01*
X130701028Y-129919291D01*
X130743520Y-129762271D01*
X130815635Y-129644069D01*
X130918273Y-129563440D01*
X131052332Y-129519139D01*
X131124957Y-129510607D01*
X131275307Y-129512784D01*
X131394337Y-129543731D01*
X131494021Y-129607600D01*
X131542288Y-129655313D01*
X131621408Y-129768106D01*
X131666752Y-129898950D01*
X131682330Y-130059792D01*
X131682410Y-130072794D01*
X131682549Y-130203530D01*
X130930091Y-130203530D01*
X130946130Y-130272010D01*
X130975091Y-130334031D01*
X131025778Y-130398654D01*
X131036379Y-130408971D01*
X131127494Y-130464805D01*
X131231400Y-130474275D01*
X131351000Y-130437540D01*
X131371274Y-130427647D01*
X131433456Y-130397574D01*
X131475106Y-130380440D01*
X131482373Y-130378855D01*
X131507740Y-130394242D01*
X131556120Y-130431887D01*
X131580679Y-130452459D01*
X131631570Y-130499714D01*
X131648281Y-130530917D01*
X131636683Y-130559620D01*
X131630483Y-130567468D01*
X131588493Y-130601819D01*
X131519206Y-130643565D01*
X131470882Y-130667935D01*
X131333711Y-130710873D01*
X131181847Y-130724786D01*
X131038024Y-130708300D01*
X130997745Y-130696496D01*
X130873078Y-130629689D01*
X130780671Y-130526892D01*
X130719990Y-130387105D01*
X130690498Y-130209330D01*
X130687260Y-130116373D01*
X130696714Y-129981033D01*
G37*
X123870497Y-128081611D02*
X124119827Y-128081611D01*
X124126694Y-128097968D01*
X124154917Y-128106988D01*
X124213127Y-128110854D01*
X124309958Y-128111749D01*
X124347243Y-128111765D01*
X124460683Y-128110413D01*
X124532622Y-128105505D01*
X124571313Y-128095760D01*
X124585005Y-128079899D01*
X124585490Y-128074805D01*
X124569863Y-128034326D01*
X124530753Y-127977621D01*
X124513939Y-127957766D01*
X124451519Y-127901611D01*
X124386453Y-127879532D01*
X124351397Y-127877686D01*
X124256558Y-127900766D01*
X124177027Y-127962759D01*
X124126577Y-128052802D01*
X124125683Y-128055735D01*
X124119827Y-128081611D01*
X123870497Y-128081611D01*
X123898399Y-127949343D01*
X123950590Y-127839461D01*
X124014421Y-127761461D01*
X124132433Y-127676882D01*
X124271158Y-127631686D01*
X124418710Y-127627600D01*
X124563204Y-127666354D01*
X124588019Y-127678037D01*
X124673906Y-127740951D01*
X124755121Y-127832769D01*
X124815764Y-127933868D01*
X124833012Y-127980349D01*
X124848749Y-128063376D01*
X124858133Y-128163713D01*
X124859272Y-128205147D01*
X124859411Y-128335882D01*
X124106953Y-128335882D01*
X124122993Y-128404363D01*
X124162363Y-128485355D01*
X124231194Y-128555351D01*
X124313081Y-128600441D01*
X124365263Y-128609804D01*
X124436029Y-128598441D01*
X124520460Y-128569943D01*
X124549142Y-128556831D01*
X124655209Y-128503858D01*
X124745728Y-128572901D01*
X124797961Y-128619597D01*
X124825753Y-128658140D01*
X124827160Y-128669452D01*
X124802332Y-128696868D01*
X124747917Y-128738532D01*
X124698528Y-128771037D01*
X124565252Y-128829468D01*
X124415839Y-128855915D01*
X124267751Y-128849039D01*
X124149705Y-128813096D01*
X124028018Y-128736101D01*
X123941540Y-128634728D01*
X123887441Y-128503570D01*
X123862891Y-128337224D01*
X123860714Y-128261108D01*
X123869427Y-128086685D01*
X123870497Y-128081611D01*
G36*
X123870497Y-128081611D02*
G01*
X124119827Y-128081611D01*
X124126694Y-128097968D01*
X124154917Y-128106988D01*
X124213127Y-128110854D01*
X124309958Y-128111749D01*
X124347243Y-128111765D01*
X124460683Y-128110413D01*
X124532622Y-128105505D01*
X124571313Y-128095760D01*
X124585005Y-128079899D01*
X124585490Y-128074805D01*
X124569863Y-128034326D01*
X124530753Y-127977621D01*
X124513939Y-127957766D01*
X124451519Y-127901611D01*
X124386453Y-127879532D01*
X124351397Y-127877686D01*
X124256558Y-127900766D01*
X124177027Y-127962759D01*
X124126577Y-128052802D01*
X124125683Y-128055735D01*
X124119827Y-128081611D01*
X123870497Y-128081611D01*
X123898399Y-127949343D01*
X123950590Y-127839461D01*
X124014421Y-127761461D01*
X124132433Y-127676882D01*
X124271158Y-127631686D01*
X124418710Y-127627600D01*
X124563204Y-127666354D01*
X124588019Y-127678037D01*
X124673906Y-127740951D01*
X124755121Y-127832769D01*
X124815764Y-127933868D01*
X124833012Y-127980349D01*
X124848749Y-128063376D01*
X124858133Y-128163713D01*
X124859272Y-128205147D01*
X124859411Y-128335882D01*
X124106953Y-128335882D01*
X124122993Y-128404363D01*
X124162363Y-128485355D01*
X124231194Y-128555351D01*
X124313081Y-128600441D01*
X124365263Y-128609804D01*
X124436029Y-128598441D01*
X124520460Y-128569943D01*
X124549142Y-128556831D01*
X124655209Y-128503858D01*
X124745728Y-128572901D01*
X124797961Y-128619597D01*
X124825753Y-128658140D01*
X124827160Y-128669452D01*
X124802332Y-128696868D01*
X124747917Y-128738532D01*
X124698528Y-128771037D01*
X124565252Y-128829468D01*
X124415839Y-128855915D01*
X124267751Y-128849039D01*
X124149705Y-128813096D01*
X124028018Y-128736101D01*
X123941540Y-128634728D01*
X123887441Y-128503570D01*
X123862891Y-128337224D01*
X123860714Y-128261108D01*
X123869427Y-128086685D01*
X123870497Y-128081611D01*
G37*
X128659535Y-130358122D02*
X128904633Y-130358122D01*
X128926229Y-130412782D01*
X128990259Y-130451952D01*
X129093565Y-130472974D01*
X129148774Y-130475766D01*
X129240782Y-130468620D01*
X129301941Y-130440848D01*
X129316862Y-130427647D01*
X129357287Y-130355829D01*
X129366666Y-130290686D01*
X129366666Y-130203530D01*
X129245269Y-130203530D01*
X129104153Y-130210722D01*
X129005173Y-130233345D01*
X128942633Y-130272964D01*
X128928631Y-130290628D01*
X128904633Y-130358122D01*
X128659535Y-130358122D01*
X128663941Y-130280157D01*
X128708880Y-130166855D01*
X128770196Y-130090285D01*
X128807332Y-130057181D01*
X128843687Y-130035425D01*
X128890990Y-130022161D01*
X128960973Y-130014528D01*
X129065364Y-130009670D01*
X129106770Y-130008273D01*
X129366666Y-129999780D01*
X129366285Y-129921116D01*
X129356219Y-129838428D01*
X129319829Y-129788431D01*
X129246311Y-129756489D01*
X129244339Y-129755920D01*
X129140105Y-129743361D01*
X129038108Y-129759766D01*
X128962305Y-129799657D01*
X128931890Y-129819354D01*
X128899132Y-129816629D01*
X128848721Y-129788091D01*
X128819119Y-129767950D01*
X128761218Y-129724919D01*
X128725352Y-129692662D01*
X128719597Y-129683427D01*
X128743295Y-129635636D01*
X128813313Y-129578562D01*
X128843725Y-129559305D01*
X128931155Y-129526140D01*
X129048983Y-129507350D01*
X129179866Y-129503129D01*
X129306459Y-129513669D01*
X129411420Y-129539163D01*
X129441761Y-129552669D01*
X129500573Y-129588046D01*
X129545709Y-129627890D01*
X129579106Y-129679120D01*
X129602701Y-129748654D01*
X129618433Y-129843409D01*
X129628239Y-129970305D01*
X129634057Y-130136258D01*
X129636266Y-130247108D01*
X129644396Y-130726471D01*
X129505531Y-130726471D01*
X129421287Y-130722938D01*
X129377884Y-130710866D01*
X129366666Y-130690594D01*
X129360744Y-130668674D01*
X129334266Y-130672865D01*
X129298186Y-130690441D01*
X129207862Y-130717382D01*
X129091777Y-130724642D01*
X128969680Y-130712767D01*
X128861321Y-130682305D01*
X128851602Y-130678077D01*
X128752568Y-130608505D01*
X128687281Y-130511789D01*
X128657240Y-130398738D01*
X128659535Y-130358122D01*
G36*
X128659535Y-130358122D02*
G01*
X128904633Y-130358122D01*
X128926229Y-130412782D01*
X128990259Y-130451952D01*
X129093565Y-130472974D01*
X129148774Y-130475766D01*
X129240782Y-130468620D01*
X129301941Y-130440848D01*
X129316862Y-130427647D01*
X129357287Y-130355829D01*
X129366666Y-130290686D01*
X129366666Y-130203530D01*
X129245269Y-130203530D01*
X129104153Y-130210722D01*
X129005173Y-130233345D01*
X128942633Y-130272964D01*
X128928631Y-130290628D01*
X128904633Y-130358122D01*
X128659535Y-130358122D01*
X128663941Y-130280157D01*
X128708880Y-130166855D01*
X128770196Y-130090285D01*
X128807332Y-130057181D01*
X128843687Y-130035425D01*
X128890990Y-130022161D01*
X128960973Y-130014528D01*
X129065364Y-130009670D01*
X129106770Y-130008273D01*
X129366666Y-129999780D01*
X129366285Y-129921116D01*
X129356219Y-129838428D01*
X129319829Y-129788431D01*
X129246311Y-129756489D01*
X129244339Y-129755920D01*
X129140105Y-129743361D01*
X129038108Y-129759766D01*
X128962305Y-129799657D01*
X128931890Y-129819354D01*
X128899132Y-129816629D01*
X128848721Y-129788091D01*
X128819119Y-129767950D01*
X128761218Y-129724919D01*
X128725352Y-129692662D01*
X128719597Y-129683427D01*
X128743295Y-129635636D01*
X128813313Y-129578562D01*
X128843725Y-129559305D01*
X128931155Y-129526140D01*
X129048983Y-129507350D01*
X129179866Y-129503129D01*
X129306459Y-129513669D01*
X129411420Y-129539163D01*
X129441761Y-129552669D01*
X129500573Y-129588046D01*
X129545709Y-129627890D01*
X129579106Y-129679120D01*
X129602701Y-129748654D01*
X129618433Y-129843409D01*
X129628239Y-129970305D01*
X129634057Y-130136258D01*
X129636266Y-130247108D01*
X129644396Y-130726471D01*
X129505531Y-130726471D01*
X129421287Y-130722938D01*
X129377884Y-130710866D01*
X129366666Y-130690594D01*
X129360744Y-130668674D01*
X129334266Y-130672865D01*
X129298186Y-130690441D01*
X129207862Y-130717382D01*
X129091777Y-130724642D01*
X128969680Y-130712767D01*
X128861321Y-130682305D01*
X128851602Y-130678077D01*
X128752568Y-130608505D01*
X128687281Y-130511789D01*
X128657240Y-130398738D01*
X128659535Y-130358122D01*
G37*
X123871540Y-130337808D02*
X124112353Y-130337808D01*
X124133405Y-130402358D01*
X124167697Y-130438686D01*
X124236532Y-130466162D01*
X124327390Y-130477129D01*
X124420042Y-130471731D01*
X124494256Y-130450110D01*
X124515049Y-130436239D01*
X124551381Y-130372143D01*
X124560588Y-130299278D01*
X124560588Y-130203530D01*
X124422827Y-130203530D01*
X124291953Y-130213605D01*
X124192741Y-130242148D01*
X124131023Y-130286639D01*
X124112353Y-130337808D01*
X123871540Y-130337808D01*
X123875436Y-130254790D01*
X123921534Y-130144282D01*
X124008200Y-130060712D01*
X124020179Y-130053110D01*
X124071655Y-130028357D01*
X124135368Y-130013368D01*
X124224435Y-130006082D01*
X124330245Y-130004407D01*
X124560588Y-130004314D01*
X124560588Y-129907755D01*
X124550817Y-129832836D01*
X124525884Y-129782644D01*
X124522965Y-129779972D01*
X124467481Y-129758015D01*
X124383727Y-129749505D01*
X124291167Y-129753687D01*
X124209270Y-129769809D01*
X124160673Y-129793990D01*
X124134341Y-129813359D01*
X124106535Y-129817057D01*
X124068161Y-129801188D01*
X124010125Y-129761855D01*
X123923331Y-129695164D01*
X123915365Y-129688916D01*
X123919447Y-129665800D01*
X123953501Y-129627352D01*
X124005260Y-129584627D01*
X124062455Y-129548679D01*
X124080425Y-129540191D01*
X124145972Y-129523252D01*
X124242020Y-129511170D01*
X124349329Y-129506323D01*
X124354347Y-129506313D01*
X124508720Y-129515922D01*
X124625870Y-129547180D01*
X124715051Y-129603837D01*
X124777984Y-129678045D01*
X124797548Y-129709716D01*
X124811992Y-129742891D01*
X124822089Y-129785329D01*
X124828615Y-129844788D01*
X124832342Y-129929029D01*
X124834046Y-130045810D01*
X124834500Y-130202890D01*
X124834509Y-130244565D01*
X124834509Y-130726471D01*
X124714980Y-130726471D01*
X124638739Y-130721131D01*
X124582366Y-130707604D01*
X124568242Y-130699262D01*
X124529630Y-130684864D01*
X124490192Y-130699262D01*
X124425262Y-130717237D01*
X124330945Y-130724472D01*
X124226407Y-130721333D01*
X124130811Y-130708186D01*
X124075000Y-130691318D01*
X123966998Y-130621986D01*
X123899503Y-130525772D01*
X123869159Y-130397844D01*
X123868877Y-130394559D01*
X123871540Y-130337808D01*
G36*
X123871540Y-130337808D02*
G01*
X124112353Y-130337808D01*
X124133405Y-130402358D01*
X124167697Y-130438686D01*
X124236532Y-130466162D01*
X124327390Y-130477129D01*
X124420042Y-130471731D01*
X124494256Y-130450110D01*
X124515049Y-130436239D01*
X124551381Y-130372143D01*
X124560588Y-130299278D01*
X124560588Y-130203530D01*
X124422827Y-130203530D01*
X124291953Y-130213605D01*
X124192741Y-130242148D01*
X124131023Y-130286639D01*
X124112353Y-130337808D01*
X123871540Y-130337808D01*
X123875436Y-130254790D01*
X123921534Y-130144282D01*
X124008200Y-130060712D01*
X124020179Y-130053110D01*
X124071655Y-130028357D01*
X124135368Y-130013368D01*
X124224435Y-130006082D01*
X124330245Y-130004407D01*
X124560588Y-130004314D01*
X124560588Y-129907755D01*
X124550817Y-129832836D01*
X124525884Y-129782644D01*
X124522965Y-129779972D01*
X124467481Y-129758015D01*
X124383727Y-129749505D01*
X124291167Y-129753687D01*
X124209270Y-129769809D01*
X124160673Y-129793990D01*
X124134341Y-129813359D01*
X124106535Y-129817057D01*
X124068161Y-129801188D01*
X124010125Y-129761855D01*
X123923331Y-129695164D01*
X123915365Y-129688916D01*
X123919447Y-129665800D01*
X123953501Y-129627352D01*
X124005260Y-129584627D01*
X124062455Y-129548679D01*
X124080425Y-129540191D01*
X124145972Y-129523252D01*
X124242020Y-129511170D01*
X124349329Y-129506323D01*
X124354347Y-129506313D01*
X124508720Y-129515922D01*
X124625870Y-129547180D01*
X124715051Y-129603837D01*
X124777984Y-129678045D01*
X124797548Y-129709716D01*
X124811992Y-129742891D01*
X124822089Y-129785329D01*
X124828615Y-129844788D01*
X124832342Y-129929029D01*
X124834046Y-130045810D01*
X124834500Y-130202890D01*
X124834509Y-130244565D01*
X124834509Y-130726471D01*
X124714980Y-130726471D01*
X124638739Y-130721131D01*
X124582366Y-130707604D01*
X124568242Y-130699262D01*
X124529630Y-130684864D01*
X124490192Y-130699262D01*
X124425262Y-130717237D01*
X124330945Y-130724472D01*
X124226407Y-130721333D01*
X124130811Y-130708186D01*
X124075000Y-130691318D01*
X123966998Y-130621986D01*
X123899503Y-130525772D01*
X123869159Y-130397844D01*
X123868877Y-130394559D01*
X123871540Y-130337808D01*
G37*
X122742745Y-128256582D02*
X123016666Y-128256582D01*
X123023650Y-128394423D01*
X123047182Y-128490107D01*
X123091135Y-128549641D01*
X123159382Y-128579029D01*
X123228333Y-128584902D01*
X123306386Y-128578154D01*
X123358189Y-128551594D01*
X123390583Y-128516499D01*
X123416084Y-128478752D01*
X123431265Y-128436700D01*
X123438019Y-128377779D01*
X123438241Y-128289428D01*
X123435968Y-128215448D01*
X123430749Y-128104000D01*
X123422979Y-128030833D01*
X123409895Y-127984422D01*
X123388732Y-127953244D01*
X123368760Y-127935223D01*
X123285314Y-127895925D01*
X123186551Y-127889579D01*
X123129841Y-127903116D01*
X123073692Y-127951233D01*
X123036499Y-128044833D01*
X123018472Y-128183254D01*
X123016666Y-128256582D01*
X122742745Y-128256582D01*
X122742745Y-127638628D01*
X122879705Y-127638628D01*
X122961935Y-127641879D01*
X123004360Y-127653426D01*
X123016661Y-127675952D01*
X123016666Y-127676620D01*
X123022374Y-127698681D01*
X123047547Y-127696176D01*
X123097598Y-127671935D01*
X123214219Y-127634851D01*
X123345429Y-127630953D01*
X123469909Y-127659560D01*
X123522412Y-127685499D01*
X123587158Y-127730700D01*
X123634347Y-127779991D01*
X123666665Y-127841885D01*
X123686797Y-127924896D01*
X123697430Y-128037538D01*
X123701247Y-128188324D01*
X123701470Y-128253149D01*
X123700818Y-128395221D01*
X123698112Y-128496757D01*
X123692224Y-128567015D01*
X123682027Y-128615256D01*
X123666394Y-128650738D01*
X123650128Y-128674943D01*
X123546295Y-128777929D01*
X123424021Y-128839874D01*
X123292114Y-128858506D01*
X123159384Y-128831549D01*
X123117333Y-128812486D01*
X123016666Y-128760015D01*
X123016666Y-129582259D01*
X123090135Y-129544267D01*
X123186941Y-129514872D01*
X123305928Y-129507342D01*
X123424745Y-129521245D01*
X123514473Y-129552476D01*
X123588899Y-129611954D01*
X123652490Y-129697066D01*
X123657271Y-129705805D01*
X123677437Y-129746966D01*
X123692165Y-129788454D01*
X123702303Y-129838713D01*
X123708699Y-129906184D01*
X123712201Y-129999309D01*
X123713658Y-130126531D01*
X123713921Y-130269701D01*
X123713921Y-130726471D01*
X123440000Y-130726471D01*
X123440000Y-129884231D01*
X123363383Y-129819763D01*
X123283793Y-129768194D01*
X123208422Y-129758818D01*
X123132633Y-129782947D01*
X123092241Y-129806574D01*
X123062179Y-129840227D01*
X123040797Y-129891087D01*
X123026450Y-129966334D01*
X123017490Y-130073146D01*
X123012270Y-130218704D01*
X123010431Y-130315588D01*
X123004215Y-130714020D01*
X122873480Y-130721547D01*
X122742745Y-130729073D01*
X122742745Y-128256582D01*
G36*
X122742745Y-128256582D02*
G01*
X123016666Y-128256582D01*
X123023650Y-128394423D01*
X123047182Y-128490107D01*
X123091135Y-128549641D01*
X123159382Y-128579029D01*
X123228333Y-128584902D01*
X123306386Y-128578154D01*
X123358189Y-128551594D01*
X123390583Y-128516499D01*
X123416084Y-128478752D01*
X123431265Y-128436700D01*
X123438019Y-128377779D01*
X123438241Y-128289428D01*
X123435968Y-128215448D01*
X123430749Y-128104000D01*
X123422979Y-128030833D01*
X123409895Y-127984422D01*
X123388732Y-127953244D01*
X123368760Y-127935223D01*
X123285314Y-127895925D01*
X123186551Y-127889579D01*
X123129841Y-127903116D01*
X123073692Y-127951233D01*
X123036499Y-128044833D01*
X123018472Y-128183254D01*
X123016666Y-128256582D01*
X122742745Y-128256582D01*
X122742745Y-127638628D01*
X122879705Y-127638628D01*
X122961935Y-127641879D01*
X123004360Y-127653426D01*
X123016661Y-127675952D01*
X123016666Y-127676620D01*
X123022374Y-127698681D01*
X123047547Y-127696176D01*
X123097598Y-127671935D01*
X123214219Y-127634851D01*
X123345429Y-127630953D01*
X123469909Y-127659560D01*
X123522412Y-127685499D01*
X123587158Y-127730700D01*
X123634347Y-127779991D01*
X123666665Y-127841885D01*
X123686797Y-127924896D01*
X123697430Y-128037538D01*
X123701247Y-128188324D01*
X123701470Y-128253149D01*
X123700818Y-128395221D01*
X123698112Y-128496757D01*
X123692224Y-128567015D01*
X123682027Y-128615256D01*
X123666394Y-128650738D01*
X123650128Y-128674943D01*
X123546295Y-128777929D01*
X123424021Y-128839874D01*
X123292114Y-128858506D01*
X123159384Y-128831549D01*
X123117333Y-128812486D01*
X123016666Y-128760015D01*
X123016666Y-129582259D01*
X123090135Y-129544267D01*
X123186941Y-129514872D01*
X123305928Y-129507342D01*
X123424745Y-129521245D01*
X123514473Y-129552476D01*
X123588899Y-129611954D01*
X123652490Y-129697066D01*
X123657271Y-129705805D01*
X123677437Y-129746966D01*
X123692165Y-129788454D01*
X123702303Y-129838713D01*
X123708699Y-129906184D01*
X123712201Y-129999309D01*
X123713658Y-130126531D01*
X123713921Y-130269701D01*
X123713921Y-130726471D01*
X123440000Y-130726471D01*
X123440000Y-129884231D01*
X123363383Y-129819763D01*
X123283793Y-129768194D01*
X123208422Y-129758818D01*
X123132633Y-129782947D01*
X123092241Y-129806574D01*
X123062179Y-129840227D01*
X123040797Y-129891087D01*
X123026450Y-129966334D01*
X123017490Y-130073146D01*
X123012270Y-130218704D01*
X123010431Y-130315588D01*
X123004215Y-130714020D01*
X122873480Y-130721547D01*
X122742745Y-130729073D01*
X122742745Y-128256582D01*
G37*
X127996535Y-119383172D02*
X128109117Y-119980363D01*
X128524531Y-120151610D01*
X128939944Y-120322857D01*
X129438302Y-119983978D01*
X129577868Y-119889622D01*
X129704028Y-119805375D01*
X129810895Y-119735083D01*
X129892582Y-119682592D01*
X129943201Y-119651749D01*
X129956986Y-119645098D01*
X129981820Y-119662203D01*
X130034888Y-119709489D01*
X130110240Y-119780917D01*
X130201929Y-119870445D01*
X130304007Y-119972034D01*
X130410526Y-120079643D01*
X130515536Y-120187232D01*
X130613091Y-120288760D01*
X130697242Y-120378186D01*
X130762040Y-120449471D01*
X130801538Y-120496573D01*
X130810980Y-120512337D01*
X130797391Y-120541398D01*
X130759293Y-120605066D01*
X130700694Y-120697112D01*
X130625597Y-120811309D01*
X130538009Y-120941429D01*
X130487254Y-121015646D01*
X130394745Y-121151167D01*
X130312540Y-121273461D01*
X130244630Y-121376440D01*
X130195000Y-121454018D01*
X130167640Y-121500106D01*
X130163529Y-121509792D01*
X130172849Y-121537319D01*
X130198254Y-121601473D01*
X130235911Y-121693235D01*
X130281986Y-121803584D01*
X130332646Y-121923500D01*
X130384059Y-122043964D01*
X130432389Y-122155954D01*
X130473806Y-122250452D01*
X130504474Y-122318437D01*
X130520562Y-122350888D01*
X130521511Y-122352165D01*
X130546772Y-122358362D01*
X130614046Y-122372185D01*
X130716360Y-122392277D01*
X130846741Y-122417279D01*
X130998216Y-122445831D01*
X131086594Y-122462296D01*
X131248452Y-122493114D01*
X131394649Y-122522439D01*
X131517787Y-122548666D01*
X131610469Y-122570191D01*
X131665301Y-122585410D01*
X131676323Y-122590238D01*
X131687119Y-122622919D01*
X131695829Y-122696730D01*
X131702460Y-122803037D01*
X131707018Y-122933212D01*
X131709509Y-123078621D01*
X131709938Y-123230635D01*
X131708311Y-123380622D01*
X131704635Y-123519951D01*
X131698915Y-123639990D01*
X131691158Y-123732110D01*
X131681368Y-123787677D01*
X131675496Y-123799245D01*
X131640399Y-123813110D01*
X131566028Y-123832933D01*
X131462223Y-123856384D01*
X131338819Y-123881136D01*
X131295741Y-123889143D01*
X131088047Y-123927186D01*
X130923984Y-123957824D01*
X130798130Y-123982274D01*
X130705065Y-124001754D01*
X130639367Y-124017481D01*
X130595617Y-124030673D01*
X130568392Y-124042549D01*
X130552272Y-124054325D01*
X130550017Y-124056653D01*
X130527503Y-124094145D01*
X130493158Y-124167110D01*
X130450411Y-124266612D01*
X130402692Y-124383718D01*
X130353430Y-124509493D01*
X130306055Y-124635002D01*
X130263995Y-124751310D01*
X130230680Y-124849484D01*
X130209541Y-124920588D01*
X130204005Y-124955687D01*
X130204466Y-124956917D01*
X130223223Y-124985606D01*
X130265776Y-125048730D01*
X130327653Y-125139718D01*
X130404382Y-125252000D01*
X130491491Y-125379005D01*
X130516299Y-125415098D01*
X130604753Y-125545948D01*
X130682588Y-125665336D01*
X130745566Y-125766407D01*
X130789445Y-125842304D01*
X130809985Y-125886172D01*
X130810980Y-125891562D01*
X130793722Y-125919889D01*
X130746036Y-125976006D01*
X130674050Y-126053882D01*
X130583897Y-126147485D01*
X130481705Y-126250786D01*
X130373606Y-126357751D01*
X130265728Y-126462351D01*
X130164204Y-126558554D01*
X130075162Y-126640329D01*
X130004733Y-126701645D01*
X129959047Y-126736471D01*
X129946409Y-126742157D01*
X129916991Y-126728765D01*
X129856761Y-126692644D01*
X129775530Y-126639881D01*
X129713030Y-126597412D01*
X129599785Y-126519485D01*
X129465674Y-126427729D01*
X129331155Y-126336120D01*
X129258833Y-126287091D01*
X129014038Y-126121515D01*
X128808551Y-126232620D01*
X128714936Y-126281293D01*
X128635330Y-126319126D01*
X128581467Y-126340703D01*
X128567757Y-126343706D01*
X128551270Y-126321538D01*
X128518745Y-126258894D01*
X128472609Y-126161554D01*
X128415290Y-126035294D01*
X128349216Y-125885895D01*
X128276815Y-125719133D01*
X128200516Y-125540787D01*
X128122746Y-125356636D01*
X128045934Y-125172457D01*
X127972506Y-124994030D01*
X127904892Y-124827132D01*
X127845520Y-124677542D01*
X127796816Y-124551038D01*
X127761210Y-124453399D01*
X127741130Y-124390402D01*
X127737900Y-124368766D01*
X127763496Y-124341169D01*
X127819539Y-124296370D01*
X127894311Y-124243679D01*
X127900587Y-124239510D01*
X128093845Y-124084814D01*
X128249674Y-123904336D01*
X128366724Y-123703847D01*
X128443645Y-123489119D01*
X128479086Y-123265922D01*
X128471697Y-123040026D01*
X128420127Y-122817204D01*
X128323026Y-122603224D01*
X128294458Y-122556409D01*
X128145868Y-122367363D01*
X127970327Y-122215557D01*
X127773910Y-122101779D01*
X127562693Y-122026820D01*
X127342753Y-121991467D01*
X127120163Y-121996512D01*
X126901001Y-122042744D01*
X126691342Y-122130951D01*
X126497261Y-122261924D01*
X126437226Y-122315082D01*
X126284435Y-122481484D01*
X126173097Y-122656657D01*
X126096723Y-122853011D01*
X126054187Y-123047462D01*
X126043686Y-123266087D01*
X126078701Y-123485797D01*
X126155673Y-123699165D01*
X126271047Y-123898767D01*
X126421266Y-124077174D01*
X126602773Y-124226962D01*
X126626627Y-124242751D01*
X126702201Y-124294457D01*
X126759651Y-124339257D01*
X126787117Y-124367862D01*
X126787517Y-124368766D01*
X126781620Y-124399709D01*
X126758245Y-124469936D01*
X126719821Y-124573670D01*
X126668777Y-124705135D01*
X126607542Y-124858552D01*
X126538544Y-125028146D01*
X126464214Y-125208138D01*
X126386978Y-125392753D01*
X126309268Y-125576213D01*
X126233511Y-125752741D01*
X126162137Y-125916559D01*
X126097574Y-126061892D01*
X126042252Y-126182962D01*
X125998600Y-126273992D01*
X125969046Y-126329205D01*
X125957144Y-126343706D01*
X125920777Y-126332414D01*
X125852730Y-126302130D01*
X125764737Y-126258265D01*
X125716351Y-126232620D01*
X125510863Y-126121515D01*
X125266068Y-126287091D01*
X125141106Y-126371915D01*
X125004295Y-126465261D01*
X124876089Y-126553153D01*
X124811871Y-126597412D01*
X124721551Y-126658063D01*
X124645071Y-126706126D01*
X124592407Y-126735515D01*
X124575302Y-126741727D01*
X124550405Y-126724968D01*
X124495305Y-126678181D01*
X124415343Y-126606225D01*
X124315861Y-126513957D01*
X124202200Y-126406235D01*
X124130315Y-126337071D01*
X124004551Y-126213502D01*
X123895863Y-126102979D01*
X123808645Y-126010230D01*
X123747289Y-125939982D01*
X123716191Y-125896965D01*
X123713208Y-125888235D01*
X123727053Y-125855029D01*
X123765312Y-125787887D01*
X123823742Y-125693608D01*
X123898097Y-125578990D01*
X123984135Y-125450828D01*
X124008603Y-125415098D01*
X124097755Y-125285234D01*
X124177738Y-125168314D01*
X124244080Y-125070907D01*
X124292311Y-124999584D01*
X124317957Y-124960915D01*
X124320435Y-124956917D01*
X124316729Y-124926100D01*
X124297061Y-124858344D01*
X124264860Y-124762584D01*
X124223555Y-124647754D01*
X124176575Y-124522789D01*
X124127349Y-124396624D01*
X124079308Y-124278193D01*
X124035881Y-124176430D01*
X124000496Y-124100271D01*
X123976584Y-124058649D01*
X123974884Y-124056653D01*
X123960262Y-124044758D01*
X123935565Y-124032995D01*
X123895372Y-124020146D01*
X123834263Y-124004994D01*
X123746817Y-123986321D01*
X123627612Y-123962910D01*
X123471227Y-123933542D01*
X123272243Y-123897000D01*
X123229160Y-123889143D01*
X123101471Y-123864472D01*
X122990153Y-123840338D01*
X122905045Y-123819069D01*
X122855983Y-123802993D01*
X122849405Y-123799245D01*
X122838564Y-123766018D01*
X122829753Y-123691766D01*
X122822976Y-123585121D01*
X122818240Y-123454712D01*
X122815550Y-123309172D01*
X122814913Y-123157131D01*
X122816334Y-123007221D01*
X122819820Y-122868073D01*
X122825376Y-122748317D01*
X122833008Y-122656586D01*
X122842722Y-122601511D01*
X122848578Y-122590238D01*
X122881180Y-122578868D01*
X122955418Y-122560369D01*
X123063896Y-122536347D01*
X123199217Y-122508407D01*
X123353985Y-122478153D01*
X123438308Y-122462296D01*
X123598296Y-122432389D01*
X123740967Y-122405295D01*
X123859348Y-122382376D01*
X123946465Y-122364988D01*
X123995345Y-122354492D01*
X124003390Y-122352165D01*
X124016987Y-122325931D01*
X124045729Y-122262740D01*
X124085785Y-122171622D01*
X124133324Y-122061602D01*
X124184515Y-121941710D01*
X124235526Y-121820972D01*
X124282526Y-121708416D01*
X124321684Y-121613071D01*
X124349169Y-121543962D01*
X124361149Y-121510119D01*
X124361372Y-121508640D01*
X124347791Y-121481942D01*
X124309715Y-121420505D01*
X124251147Y-121330434D01*
X124176088Y-121217835D01*
X124088540Y-121088815D01*
X124037647Y-121014706D01*
X123944909Y-120878822D01*
X123862541Y-120755454D01*
X123794561Y-120650842D01*
X123744988Y-120571228D01*
X123717842Y-120522852D01*
X123713921Y-120512007D01*
X123730775Y-120486765D01*
X123777368Y-120432869D01*
X123847749Y-120356358D01*
X123935965Y-120263268D01*
X124036065Y-120159640D01*
X124142098Y-120051509D01*
X124248111Y-119944915D01*
X124348152Y-119845895D01*
X124436270Y-119760487D01*
X124506513Y-119694730D01*
X124552928Y-119654661D01*
X124568456Y-119645098D01*
X124593739Y-119658545D01*
X124654211Y-119696320D01*
X124743992Y-119754580D01*
X124857203Y-119829479D01*
X124987964Y-119917170D01*
X125086600Y-119983978D01*
X125584957Y-120322857D01*
X126000371Y-120151610D01*
X126415784Y-119980363D01*
X126528366Y-119383172D01*
X126640949Y-118785980D01*
X127883952Y-118785980D01*
X127996535Y-119383172D01*
G36*
X127996535Y-119383172D02*
G01*
X128109117Y-119980363D01*
X128524531Y-120151610D01*
X128939944Y-120322857D01*
X129438302Y-119983978D01*
X129577868Y-119889622D01*
X129704028Y-119805375D01*
X129810895Y-119735083D01*
X129892582Y-119682592D01*
X129943201Y-119651749D01*
X129956986Y-119645098D01*
X129981820Y-119662203D01*
X130034888Y-119709489D01*
X130110240Y-119780917D01*
X130201929Y-119870445D01*
X130304007Y-119972034D01*
X130410526Y-120079643D01*
X130515536Y-120187232D01*
X130613091Y-120288760D01*
X130697242Y-120378186D01*
X130762040Y-120449471D01*
X130801538Y-120496573D01*
X130810980Y-120512337D01*
X130797391Y-120541398D01*
X130759293Y-120605066D01*
X130700694Y-120697112D01*
X130625597Y-120811309D01*
X130538009Y-120941429D01*
X130487254Y-121015646D01*
X130394745Y-121151167D01*
X130312540Y-121273461D01*
X130244630Y-121376440D01*
X130195000Y-121454018D01*
X130167640Y-121500106D01*
X130163529Y-121509792D01*
X130172849Y-121537319D01*
X130198254Y-121601473D01*
X130235911Y-121693235D01*
X130281986Y-121803584D01*
X130332646Y-121923500D01*
X130384059Y-122043964D01*
X130432389Y-122155954D01*
X130473806Y-122250452D01*
X130504474Y-122318437D01*
X130520562Y-122350888D01*
X130521511Y-122352165D01*
X130546772Y-122358362D01*
X130614046Y-122372185D01*
X130716360Y-122392277D01*
X130846741Y-122417279D01*
X130998216Y-122445831D01*
X131086594Y-122462296D01*
X131248452Y-122493114D01*
X131394649Y-122522439D01*
X131517787Y-122548666D01*
X131610469Y-122570191D01*
X131665301Y-122585410D01*
X131676323Y-122590238D01*
X131687119Y-122622919D01*
X131695829Y-122696730D01*
X131702460Y-122803037D01*
X131707018Y-122933212D01*
X131709509Y-123078621D01*
X131709938Y-123230635D01*
X131708311Y-123380622D01*
X131704635Y-123519951D01*
X131698915Y-123639990D01*
X131691158Y-123732110D01*
X131681368Y-123787677D01*
X131675496Y-123799245D01*
X131640399Y-123813110D01*
X131566028Y-123832933D01*
X131462223Y-123856384D01*
X131338819Y-123881136D01*
X131295741Y-123889143D01*
X131088047Y-123927186D01*
X130923984Y-123957824D01*
X130798130Y-123982274D01*
X130705065Y-124001754D01*
X130639367Y-124017481D01*
X130595617Y-124030673D01*
X130568392Y-124042549D01*
X130552272Y-124054325D01*
X130550017Y-124056653D01*
X130527503Y-124094145D01*
X130493158Y-124167110D01*
X130450411Y-124266612D01*
X130402692Y-124383718D01*
X130353430Y-124509493D01*
X130306055Y-124635002D01*
X130263995Y-124751310D01*
X130230680Y-124849484D01*
X130209541Y-124920588D01*
X130204005Y-124955687D01*
X130204466Y-124956917D01*
X130223223Y-124985606D01*
X130265776Y-125048730D01*
X130327653Y-125139718D01*
X130404382Y-125252000D01*
X130491491Y-125379005D01*
X130516299Y-125415098D01*
X130604753Y-125545948D01*
X130682588Y-125665336D01*
X130745566Y-125766407D01*
X130789445Y-125842304D01*
X130809985Y-125886172D01*
X130810980Y-125891562D01*
X130793722Y-125919889D01*
X130746036Y-125976006D01*
X130674050Y-126053882D01*
X130583897Y-126147485D01*
X130481705Y-126250786D01*
X130373606Y-126357751D01*
X130265728Y-126462351D01*
X130164204Y-126558554D01*
X130075162Y-126640329D01*
X130004733Y-126701645D01*
X129959047Y-126736471D01*
X129946409Y-126742157D01*
X129916991Y-126728765D01*
X129856761Y-126692644D01*
X129775530Y-126639881D01*
X129713030Y-126597412D01*
X129599785Y-126519485D01*
X129465674Y-126427729D01*
X129331155Y-126336120D01*
X129258833Y-126287091D01*
X129014038Y-126121515D01*
X128808551Y-126232620D01*
X128714936Y-126281293D01*
X128635330Y-126319126D01*
X128581467Y-126340703D01*
X128567757Y-126343706D01*
X128551270Y-126321538D01*
X128518745Y-126258894D01*
X128472609Y-126161554D01*
X128415290Y-126035294D01*
X128349216Y-125885895D01*
X128276815Y-125719133D01*
X128200516Y-125540787D01*
X128122746Y-125356636D01*
X128045934Y-125172457D01*
X127972506Y-124994030D01*
X127904892Y-124827132D01*
X127845520Y-124677542D01*
X127796816Y-124551038D01*
X127761210Y-124453399D01*
X127741130Y-124390402D01*
X127737900Y-124368766D01*
X127763496Y-124341169D01*
X127819539Y-124296370D01*
X127894311Y-124243679D01*
X127900587Y-124239510D01*
X128093845Y-124084814D01*
X128249674Y-123904336D01*
X128366724Y-123703847D01*
X128443645Y-123489119D01*
X128479086Y-123265922D01*
X128471697Y-123040026D01*
X128420127Y-122817204D01*
X128323026Y-122603224D01*
X128294458Y-122556409D01*
X128145868Y-122367363D01*
X127970327Y-122215557D01*
X127773910Y-122101779D01*
X127562693Y-122026820D01*
X127342753Y-121991467D01*
X127120163Y-121996512D01*
X126901001Y-122042744D01*
X126691342Y-122130951D01*
X126497261Y-122261924D01*
X126437226Y-122315082D01*
X126284435Y-122481484D01*
X126173097Y-122656657D01*
X126096723Y-122853011D01*
X126054187Y-123047462D01*
X126043686Y-123266087D01*
X126078701Y-123485797D01*
X126155673Y-123699165D01*
X126271047Y-123898767D01*
X126421266Y-124077174D01*
X126602773Y-124226962D01*
X126626627Y-124242751D01*
X126702201Y-124294457D01*
X126759651Y-124339257D01*
X126787117Y-124367862D01*
X126787517Y-124368766D01*
X126781620Y-124399709D01*
X126758245Y-124469936D01*
X126719821Y-124573670D01*
X126668777Y-124705135D01*
X126607542Y-124858552D01*
X126538544Y-125028146D01*
X126464214Y-125208138D01*
X126386978Y-125392753D01*
X126309268Y-125576213D01*
X126233511Y-125752741D01*
X126162137Y-125916559D01*
X126097574Y-126061892D01*
X126042252Y-126182962D01*
X125998600Y-126273992D01*
X125969046Y-126329205D01*
X125957144Y-126343706D01*
X125920777Y-126332414D01*
X125852730Y-126302130D01*
X125764737Y-126258265D01*
X125716351Y-126232620D01*
X125510863Y-126121515D01*
X125266068Y-126287091D01*
X125141106Y-126371915D01*
X125004295Y-126465261D01*
X124876089Y-126553153D01*
X124811871Y-126597412D01*
X124721551Y-126658063D01*
X124645071Y-126706126D01*
X124592407Y-126735515D01*
X124575302Y-126741727D01*
X124550405Y-126724968D01*
X124495305Y-126678181D01*
X124415343Y-126606225D01*
X124315861Y-126513957D01*
X124202200Y-126406235D01*
X124130315Y-126337071D01*
X124004551Y-126213502D01*
X123895863Y-126102979D01*
X123808645Y-126010230D01*
X123747289Y-125939982D01*
X123716191Y-125896965D01*
X123713208Y-125888235D01*
X123727053Y-125855029D01*
X123765312Y-125787887D01*
X123823742Y-125693608D01*
X123898097Y-125578990D01*
X123984135Y-125450828D01*
X124008603Y-125415098D01*
X124097755Y-125285234D01*
X124177738Y-125168314D01*
X124244080Y-125070907D01*
X124292311Y-124999584D01*
X124317957Y-124960915D01*
X124320435Y-124956917D01*
X124316729Y-124926100D01*
X124297061Y-124858344D01*
X124264860Y-124762584D01*
X124223555Y-124647754D01*
X124176575Y-124522789D01*
X124127349Y-124396624D01*
X124079308Y-124278193D01*
X124035881Y-124176430D01*
X124000496Y-124100271D01*
X123976584Y-124058649D01*
X123974884Y-124056653D01*
X123960262Y-124044758D01*
X123935565Y-124032995D01*
X123895372Y-124020146D01*
X123834263Y-124004994D01*
X123746817Y-123986321D01*
X123627612Y-123962910D01*
X123471227Y-123933542D01*
X123272243Y-123897000D01*
X123229160Y-123889143D01*
X123101471Y-123864472D01*
X122990153Y-123840338D01*
X122905045Y-123819069D01*
X122855983Y-123802993D01*
X122849405Y-123799245D01*
X122838564Y-123766018D01*
X122829753Y-123691766D01*
X122822976Y-123585121D01*
X122818240Y-123454712D01*
X122815550Y-123309172D01*
X122814913Y-123157131D01*
X122816334Y-123007221D01*
X122819820Y-122868073D01*
X122825376Y-122748317D01*
X122833008Y-122656586D01*
X122842722Y-122601511D01*
X122848578Y-122590238D01*
X122881180Y-122578868D01*
X122955418Y-122560369D01*
X123063896Y-122536347D01*
X123199217Y-122508407D01*
X123353985Y-122478153D01*
X123438308Y-122462296D01*
X123598296Y-122432389D01*
X123740967Y-122405295D01*
X123859348Y-122382376D01*
X123946465Y-122364988D01*
X123995345Y-122354492D01*
X124003390Y-122352165D01*
X124016987Y-122325931D01*
X124045729Y-122262740D01*
X124085785Y-122171622D01*
X124133324Y-122061602D01*
X124184515Y-121941710D01*
X124235526Y-121820972D01*
X124282526Y-121708416D01*
X124321684Y-121613071D01*
X124349169Y-121543962D01*
X124361149Y-121510119D01*
X124361372Y-121508640D01*
X124347791Y-121481942D01*
X124309715Y-121420505D01*
X124251147Y-121330434D01*
X124176088Y-121217835D01*
X124088540Y-121088815D01*
X124037647Y-121014706D01*
X123944909Y-120878822D01*
X123862541Y-120755454D01*
X123794561Y-120650842D01*
X123744988Y-120571228D01*
X123717842Y-120522852D01*
X123713921Y-120512007D01*
X123730775Y-120486765D01*
X123777368Y-120432869D01*
X123847749Y-120356358D01*
X123935965Y-120263268D01*
X124036065Y-120159640D01*
X124142098Y-120051509D01*
X124248111Y-119944915D01*
X124348152Y-119845895D01*
X124436270Y-119760487D01*
X124506513Y-119694730D01*
X124552928Y-119654661D01*
X124568456Y-119645098D01*
X124593739Y-119658545D01*
X124654211Y-119696320D01*
X124743992Y-119754580D01*
X124857203Y-119829479D01*
X124987964Y-119917170D01*
X125086600Y-119983978D01*
X125584957Y-120322857D01*
X126000371Y-120151610D01*
X126415784Y-119980363D01*
X126528366Y-119383172D01*
X126640949Y-118785980D01*
X127883952Y-118785980D01*
X127996535Y-119383172D01*
G37*
D14*
X92600000Y-40200000D02*
X92600000Y-40200000D01*
X92600000Y-40100000D02*
X92600000Y-40100000D01*
X92600000Y-40100000D02*
G75*
G03*
X92600000Y-40200000I0J-50000D01*
G01*
X92600000Y-40200000D02*
G75*
G03*
X92600000Y-40100000I0J50000D01*
G01*
X92600000Y-93000000D02*
X92600000Y-93000000D01*
X92600000Y-92900000D02*
X92600000Y-92900000D01*
X92600000Y-92900000D02*
G75*
G03*
X92600000Y-93000000I0J-50000D01*
G01*
X92600000Y-93000000D02*
G75*
G03*
X92600000Y-92900000I0J50000D01*
G01*
D15*
X77670000Y-60670000D02*
X79000000Y-60670000D01*
X77670000Y-62000000D02*
X77670000Y-60670000D01*
X77670000Y-63270000D02*
X77670000Y-63330000D01*
X77670000Y-63270000D02*
X80330000Y-63270000D01*
X77670000Y-63330000D02*
X80330000Y-63330000D01*
X80330000Y-63270000D02*
X80330000Y-63330000D01*
X127188748Y-69515000D02*
X127711252Y-69515000D01*
X127188748Y-70985000D02*
X127711252Y-70985000D01*
D14*
X37600000Y-57800000D02*
X37600000Y-57800000D01*
X37600000Y-57700000D02*
X37600000Y-57700000D01*
X37600000Y-57700000D02*
G75*
G03*
X37600000Y-57800000I0J-50000D01*
G01*
X37600000Y-57800000D02*
G75*
G03*
X37600000Y-57700000I0J50000D01*
G01*
X46600000Y-57800000D02*
X46600000Y-57800000D01*
X46600000Y-57700000D02*
X46600000Y-57700000D01*
X46600000Y-57700000D02*
G75*
G03*
X46600000Y-57800000I0J-50000D01*
G01*
X46600000Y-57800000D02*
G75*
G03*
X46600000Y-57700000I0J50000D01*
G01*
X147600000Y-75400000D02*
X147600000Y-75400000D01*
X147600000Y-75300000D02*
X147600000Y-75300000D01*
X147600000Y-75300000D02*
G75*
G03*
X147600000Y-75400000I0J-50000D01*
G01*
X147600000Y-75400000D02*
G75*
G03*
X147600000Y-75300000I0J50000D01*
G01*
D11*
X74454416Y-96118629D02*
X74454416Y-96118629D01*
X74595837Y-96260051D02*
X74595837Y-96260051D01*
X74595836Y-96260050D02*
G75*
G03*
X74454417Y-96118630I-70710J70710D01*
G01*
X74454416Y-96118629D02*
G75*
G03*
X74595837Y-96260051I70710J-70711D01*
G01*
D14*
X138600000Y-110600000D02*
X138600000Y-110600000D01*
X138600000Y-110500000D02*
X138600000Y-110500000D01*
X138600000Y-110500000D02*
G75*
G03*
X138600000Y-110600000I0J-50000D01*
G01*
X138600000Y-110600000D02*
G75*
G03*
X138600000Y-110500000I0J50000D01*
G01*
D15*
X128330000Y-95120000D02*
X127000000Y-95120000D01*
X128330000Y-93790000D02*
X128330000Y-95120000D01*
X128330000Y-92520000D02*
X128330000Y-79760000D01*
X128330000Y-92520000D02*
X125670000Y-92520000D01*
X128330000Y-79760000D02*
X125670000Y-79760000D01*
X125670000Y-92520000D02*
X125670000Y-79760000D01*
X64920000Y-58170000D02*
X66250000Y-58170000D01*
X64920000Y-59500000D02*
X64920000Y-58170000D01*
X64920000Y-60770000D02*
X64920000Y-60830000D01*
X64920000Y-60770000D02*
X67580000Y-60770000D01*
X64920000Y-60830000D02*
X67580000Y-60830000D01*
X67580000Y-60770000D02*
X67580000Y-60830000D01*
D14*
X156600000Y-57800000D02*
X156600000Y-57800000D01*
X156600000Y-57700000D02*
X156600000Y-57700000D01*
X156600000Y-57700000D02*
G75*
G03*
X156600000Y-57800000I0J-50000D01*
G01*
X156600000Y-57800000D02*
G75*
G03*
X156600000Y-57700000I0J50000D01*
G01*
X83600000Y-128200000D02*
X83600000Y-128200000D01*
X83600000Y-128100000D02*
X83600000Y-128100000D01*
X83600000Y-128100000D02*
G75*
G03*
X83600000Y-128200000I0J-50000D01*
G01*
X83600000Y-128200000D02*
G75*
G03*
X83600000Y-128100000I0J50000D01*
G01*
D15*
X71503972Y-109649254D02*
X71785132Y-109649254D01*
X71503972Y-110669254D02*
X71785132Y-110669254D01*
D14*
X37600000Y-40200000D02*
X37600000Y-40200000D01*
X37600000Y-40100000D02*
X37600000Y-40100000D01*
X37600000Y-40100000D02*
G75*
G03*
X37600000Y-40200000I0J-50000D01*
G01*
X37600000Y-40200000D02*
G75*
G03*
X37600000Y-40100000I0J50000D01*
G01*
X101600000Y-128200000D02*
X101600000Y-128200000D01*
X101600000Y-128100000D02*
X101600000Y-128100000D01*
X101600000Y-128100000D02*
G75*
G03*
X101600000Y-128200000I0J-50000D01*
G01*
X101600000Y-128200000D02*
G75*
G03*
X101600000Y-128100000I0J50000D01*
G01*
D15*
X69609420Y-50440000D02*
X69890580Y-50440000D01*
X69609420Y-51460000D02*
X69890580Y-51460000D01*
D14*
X83600000Y-93000000D02*
X83600000Y-93000000D01*
X83600000Y-92900000D02*
X83600000Y-92900000D01*
X83600000Y-92900000D02*
G75*
G03*
X83600000Y-93000000I0J-50000D01*
G01*
X83600000Y-93000000D02*
G75*
G03*
X83600000Y-92900000I0J50000D01*
G01*
D15*
X123654334Y-55134516D02*
X123654334Y-54680388D01*
X125124334Y-55134516D02*
X125124334Y-54680388D01*
D14*
X28600000Y-128200000D02*
X28600000Y-128200000D01*
X28600000Y-128100000D02*
X28600000Y-128100000D01*
X28600000Y-128100000D02*
G75*
G03*
X28600000Y-128200000I0J-50000D01*
G01*
X28600000Y-128200000D02*
G75*
G03*
X28600000Y-128100000I0J50000D01*
G01*
X28600000Y-57800000D02*
X28600000Y-57800000D01*
X28600000Y-57700000D02*
X28600000Y-57700000D01*
X28600000Y-57700000D02*
G75*
G03*
X28600000Y-57800000I0J-50000D01*
G01*
X28600000Y-57800000D02*
G75*
G03*
X28600000Y-57700000I0J50000D01*
G01*
D15*
X72670000Y-36920000D02*
X74000000Y-36920000D01*
X72670000Y-38250000D02*
X72670000Y-36920000D01*
X72670000Y-39520000D02*
X72670000Y-52280000D01*
X72670000Y-39520000D02*
X75330000Y-39520000D01*
X72670000Y-52280000D02*
X75330000Y-52280000D01*
X75330000Y-39520000D02*
X75330000Y-52280000D01*
X77670000Y-54920000D02*
X79000000Y-54920000D01*
X77670000Y-56250000D02*
X77670000Y-54920000D01*
X77670000Y-57520000D02*
X77670000Y-57580000D01*
X77670000Y-57520000D02*
X80330000Y-57520000D01*
X77670000Y-57580000D02*
X80330000Y-57580000D01*
X80330000Y-57520000D02*
X80330000Y-57580000D01*
D14*
X110600000Y-40200000D02*
X110600000Y-40200000D01*
X110600000Y-40100000D02*
X110600000Y-40100000D01*
X110600000Y-40100000D02*
G75*
G03*
X110600000Y-40200000I0J-50000D01*
G01*
X110600000Y-40200000D02*
G75*
G03*
X110600000Y-40100000I0J50000D01*
G01*
D11*
X131246000Y-48850000D02*
X131246000Y-50250000D01*
X131196000Y-50600000D02*
X131196000Y-52900000D01*
X128196000Y-50600000D02*
X131196000Y-50600000D01*
X131196000Y-52900000D02*
X128196000Y-52900000D01*
X128196000Y-52900000D02*
X128196000Y-50600000D01*
X48450000Y-122276000D02*
X47250000Y-122276000D01*
X46200000Y-122376000D02*
X42700000Y-122376000D01*
X46200000Y-115876000D02*
X46200000Y-122376000D01*
X42700000Y-122376000D02*
X42700000Y-115876000D01*
X42700000Y-115876000D02*
X46200000Y-115876000D01*
D14*
X92600000Y-110600000D02*
X92600000Y-110600000D01*
X92600000Y-110500000D02*
X92600000Y-110500000D01*
X92600000Y-110500000D02*
G75*
G03*
X92600000Y-110600000I0J-50000D01*
G01*
X92600000Y-110600000D02*
G75*
G03*
X92600000Y-110500000I0J50000D01*
G01*
D15*
X75956121Y-109586383D02*
X76237281Y-109586383D01*
X75956121Y-110606383D02*
X76237281Y-110606383D01*
D14*
X92600000Y-75400000D02*
X92600000Y-75400000D01*
X92600000Y-75300000D02*
X92600000Y-75300000D01*
X92600000Y-75300000D02*
G75*
G03*
X92600000Y-75400000I0J-50000D01*
G01*
X92600000Y-75400000D02*
G75*
G03*
X92600000Y-75300000I0J50000D01*
G01*
X37600000Y-110600000D02*
X37600000Y-110600000D01*
X37600000Y-110500000D02*
X37600000Y-110500000D01*
X37600000Y-110500000D02*
G75*
G03*
X37600000Y-110600000I0J-50000D01*
G01*
X37600000Y-110600000D02*
G75*
G03*
X37600000Y-110500000I0J50000D01*
G01*
X101600000Y-75400000D02*
X101600000Y-75400000D01*
X101600000Y-75300000D02*
X101600000Y-75300000D01*
X101600000Y-75300000D02*
G75*
G03*
X101600000Y-75400000I0J-50000D01*
G01*
X101600000Y-75400000D02*
G75*
G03*
X101600000Y-75300000I0J50000D01*
G01*
D11*
X69100000Y-87900000D02*
X69100000Y-81600000D01*
X75400000Y-87900000D02*
X69100000Y-87900000D01*
X69100000Y-81600000D02*
X75400000Y-81600000D01*
X75400000Y-81600000D02*
X75400000Y-87900000D01*
D17*
X68450000Y-89350000D02*
G75*
G03*
X68450000Y-89350000I-200000J0D01*
G01*
D14*
X156600000Y-110600000D02*
X156600000Y-110600000D01*
X156600000Y-110500000D02*
X156600000Y-110500000D01*
X156600000Y-110500000D02*
G75*
G03*
X156600000Y-110600000I0J-50000D01*
G01*
X156600000Y-110600000D02*
G75*
G03*
X156600000Y-110500000I0J50000D01*
G01*
X156600000Y-93000000D02*
X156600000Y-93000000D01*
X156600000Y-92900000D02*
X156600000Y-92900000D01*
X156600000Y-92900000D02*
G75*
G03*
X156600000Y-93000000I0J-50000D01*
G01*
X156600000Y-93000000D02*
G75*
G03*
X156600000Y-92900000I0J50000D01*
G01*
D15*
X64920000Y-63170000D02*
X66250000Y-63170000D01*
X64920000Y-64500000D02*
X64920000Y-63170000D01*
X64920000Y-65770000D02*
X64920000Y-65830000D01*
X64920000Y-65770000D02*
X67580000Y-65770000D01*
X64920000Y-65830000D02*
X67580000Y-65830000D01*
X67580000Y-65770000D02*
X67580000Y-65830000D01*
D14*
X46600000Y-40200000D02*
X46600000Y-40200000D01*
X46600000Y-40100000D02*
X46600000Y-40100000D01*
X46600000Y-40100000D02*
G75*
G03*
X46600000Y-40200000I0J-50000D01*
G01*
X46600000Y-40200000D02*
G75*
G03*
X46600000Y-40100000I0J50000D01*
G01*
X37600000Y-93000000D02*
X37600000Y-93000000D01*
X37600000Y-92900000D02*
X37600000Y-92900000D01*
X37600000Y-92900000D02*
G75*
G03*
X37600000Y-93000000I0J-50000D01*
G01*
X37600000Y-93000000D02*
G75*
G03*
X37600000Y-92900000I0J50000D01*
G01*
X156600000Y-75400000D02*
X156600000Y-75400000D01*
X156600000Y-75300000D02*
X156600000Y-75300000D01*
X156600000Y-75300000D02*
G75*
G03*
X156600000Y-75400000I0J-50000D01*
G01*
X156600000Y-75400000D02*
G75*
G03*
X156600000Y-75300000I0J50000D01*
G01*
D15*
X69905725Y-49102832D02*
X69451597Y-49102832D01*
X69905725Y-47632832D02*
X69451597Y-47632832D01*
D14*
X110600000Y-110600000D02*
X110600000Y-110600000D01*
X110600000Y-110500000D02*
X110600000Y-110500000D01*
X110600000Y-110500000D02*
G75*
G03*
X110600000Y-110600000I0J-50000D01*
G01*
X110600000Y-110600000D02*
G75*
G03*
X110600000Y-110500000I0J50000D01*
G01*
X165600000Y-128200000D02*
X165600000Y-128200000D01*
X165600000Y-128100000D02*
X165600000Y-128100000D01*
X165600000Y-128100000D02*
G75*
G03*
X165600000Y-128200000I0J-50000D01*
G01*
X165600000Y-128200000D02*
G75*
G03*
X165600000Y-128100000I0J50000D01*
G01*
X101600000Y-93000000D02*
X101600000Y-93000000D01*
X101600000Y-92900000D02*
X101600000Y-92900000D01*
X101600000Y-92900000D02*
G75*
G03*
X101600000Y-93000000I0J-50000D01*
G01*
X101600000Y-93000000D02*
G75*
G03*
X101600000Y-92900000I0J50000D01*
G01*
X138600000Y-93000000D02*
X138600000Y-93000000D01*
X138600000Y-92900000D02*
X138600000Y-92900000D01*
X138600000Y-92900000D02*
G75*
G03*
X138600000Y-93000000I0J-50000D01*
G01*
X138600000Y-93000000D02*
G75*
G03*
X138600000Y-92900000I0J50000D01*
G01*
D15*
X129522936Y-57015000D02*
X129977064Y-57015000D01*
X129522936Y-58485000D02*
X129977064Y-58485000D01*
X123627000Y-50727064D02*
X123627000Y-50272936D01*
X125097000Y-50727064D02*
X125097000Y-50272936D01*
D14*
X101600000Y-40200000D02*
X101600000Y-40200000D01*
X101600000Y-40100000D02*
X101600000Y-40100000D01*
X101600000Y-40100000D02*
G75*
G03*
X101600000Y-40200000I0J-50000D01*
G01*
X101600000Y-40200000D02*
G75*
G03*
X101600000Y-40100000I0J50000D01*
G01*
X92600000Y-57800000D02*
X92600000Y-57800000D01*
X92600000Y-57700000D02*
X92600000Y-57700000D01*
X92600000Y-57700000D02*
G75*
G03*
X92600000Y-57800000I0J-50000D01*
G01*
X92600000Y-57800000D02*
G75*
G03*
X92600000Y-57700000I0J50000D01*
G01*
D11*
X158432000Y-122276000D02*
X157232000Y-122276000D01*
X156182000Y-122376000D02*
X152682000Y-122376000D01*
X156182000Y-115876000D02*
X156182000Y-122376000D01*
X152682000Y-122376000D02*
X152682000Y-115876000D01*
X152682000Y-115876000D02*
X156182000Y-115876000D01*
D14*
X138600000Y-75400000D02*
X138600000Y-75400000D01*
X138600000Y-75300000D02*
X138600000Y-75300000D01*
X138600000Y-75300000D02*
G75*
G03*
X138600000Y-75400000I0J-50000D01*
G01*
X138600000Y-75400000D02*
G75*
G03*
X138600000Y-75300000I0J50000D01*
G01*
X55600000Y-93000000D02*
X55600000Y-93000000D01*
X55600000Y-92900000D02*
X55600000Y-92900000D01*
X55600000Y-92900000D02*
G75*
G03*
X55600000Y-93000000I0J-50000D01*
G01*
X55600000Y-93000000D02*
G75*
G03*
X55600000Y-92900000I0J50000D01*
G01*
X83600000Y-75400000D02*
X83600000Y-75400000D01*
X83600000Y-75300000D02*
X83600000Y-75300000D01*
X83600000Y-75300000D02*
G75*
G03*
X83600000Y-75400000I0J-50000D01*
G01*
X83600000Y-75400000D02*
G75*
G03*
X83600000Y-75300000I0J50000D01*
G01*
D15*
X67535390Y-108086602D02*
X67081262Y-108086602D01*
X67535390Y-106616602D02*
X67081262Y-106616602D01*
D14*
X138600000Y-40200000D02*
X138600000Y-40200000D01*
X138600000Y-40100000D02*
X138600000Y-40100000D01*
X138600000Y-40100000D02*
G75*
G03*
X138600000Y-40200000I0J-50000D01*
G01*
X138600000Y-40200000D02*
G75*
G03*
X138600000Y-40100000I0J50000D01*
G01*
X55600000Y-128200000D02*
X55600000Y-128200000D01*
X55600000Y-128100000D02*
X55600000Y-128100000D01*
X55600000Y-128100000D02*
G75*
G03*
X55600000Y-128200000I0J-50000D01*
G01*
X55600000Y-128200000D02*
G75*
G03*
X55600000Y-128100000I0J50000D01*
G01*
D11*
X147700000Y-36570000D02*
X147700000Y-33500000D01*
X137300000Y-36570000D02*
X147700000Y-36570000D01*
X137300000Y-31970000D02*
X137300000Y-36570000D01*
D14*
X28600000Y-110600000D02*
X28600000Y-110600000D01*
X28600000Y-110500000D02*
X28600000Y-110500000D01*
X28600000Y-110500000D02*
G75*
G03*
X28600000Y-110600000I0J-50000D01*
G01*
X28600000Y-110600000D02*
G75*
G03*
X28600000Y-110500000I0J50000D01*
G01*
D13*
X131750000Y-66000000D02*
X125750000Y-66000000D01*
X131750000Y-60000000D02*
X125750000Y-60000000D01*
X132621000Y-63106330D02*
G75*
G03*
X132621000Y-63106330I-70665J0D01*
G01*
D14*
X165600000Y-40200000D02*
X165600000Y-40200000D01*
X165600000Y-40100000D02*
X165600000Y-40100000D01*
X165600000Y-40100000D02*
G75*
G03*
X165600000Y-40200000I0J-50000D01*
G01*
X165600000Y-40200000D02*
G75*
G03*
X165600000Y-40100000I0J50000D01*
G01*
D15*
X70420000Y-56920000D02*
X71750000Y-56920000D01*
X70420000Y-58250000D02*
X70420000Y-56920000D01*
X70420000Y-59520000D02*
X70420000Y-59580000D01*
X70420000Y-59520000D02*
X73080000Y-59520000D01*
X70420000Y-59580000D02*
X73080000Y-59580000D01*
X73080000Y-59520000D02*
X73080000Y-59580000D01*
X70420000Y-61920000D02*
X71750000Y-61920000D01*
X70420000Y-63250000D02*
X70420000Y-61920000D01*
X70420000Y-64520000D02*
X70420000Y-64580000D01*
X70420000Y-64520000D02*
X73080000Y-64520000D01*
X70420000Y-64580000D02*
X73080000Y-64580000D01*
X73080000Y-64520000D02*
X73080000Y-64580000D01*
D14*
X110600000Y-128200000D02*
X110600000Y-128200000D01*
X110600000Y-128100000D02*
X110600000Y-128100000D01*
X110600000Y-128100000D02*
G75*
G03*
X110600000Y-128200000I0J-50000D01*
G01*
X110600000Y-128200000D02*
G75*
G03*
X110600000Y-128100000I0J50000D01*
G01*
D11*
X104900000Y-36570000D02*
X104900000Y-33500000D01*
X94500000Y-36570000D02*
X104900000Y-36570000D01*
X94500000Y-31970000D02*
X94500000Y-36570000D01*
D14*
X165600000Y-93000000D02*
X165600000Y-93000000D01*
X165600000Y-92900000D02*
X165600000Y-92900000D01*
X165600000Y-92900000D02*
G75*
G03*
X165600000Y-93000000I0J-50000D01*
G01*
X165600000Y-93000000D02*
G75*
G03*
X165600000Y-92900000I0J50000D01*
G01*
%LPC*%
D18*
X167200000Y-57600000D03*
D19*
X169415000Y-57600000D03*
D20*
X76662500Y-118912500D03*
X76662500Y-117087500D03*
D21*
X75337500Y-107362500D03*
X77162500Y-107362500D03*
D18*
X85200000Y-40000000D03*
D19*
X87415000Y-40000000D03*
D18*
X48200000Y-110400000D03*
D19*
X50415000Y-110400000D03*
D18*
X39200000Y-128000000D03*
D19*
X41415000Y-128000000D03*
D21*
X70837500Y-107362500D03*
X72662500Y-107362500D03*
D22*
X102968000Y-121426000D03*
X102968000Y-119126000D03*
X102968000Y-116826000D03*
D23*
X96168000Y-119126000D03*
D24*
X121990085Y-83647101D03*
X123540085Y-83647101D03*
D18*
X57200000Y-75200000D03*
D19*
X59415000Y-75200000D03*
D25*
X66250000Y-69500000D03*
D26*
X68275000Y-110112500D03*
X66725000Y-110112500D03*
D18*
X57200000Y-57600000D03*
D19*
X59415000Y-57600000D03*
D18*
X85200000Y-57600000D03*
D19*
X87415000Y-57600000D03*
D18*
X149200000Y-40000000D03*
D19*
X151415000Y-40000000D03*
D18*
X103200000Y-110400000D03*
D19*
X105415000Y-110400000D03*
D18*
X149200000Y-128000000D03*
D19*
X151415000Y-128000000D03*
D18*
X39200000Y-75200000D03*
D19*
X41415000Y-75200000D03*
D18*
X140200000Y-128000000D03*
D19*
X142415000Y-128000000D03*
D18*
X48200000Y-128000000D03*
D19*
X50415000Y-128000000D03*
D25*
X79000000Y-67750000D03*
D20*
X69912500Y-118912500D03*
X69912500Y-117087500D03*
D18*
X167200000Y-110400000D03*
D19*
X169415000Y-110400000D03*
D24*
X129429000Y-47000000D03*
X130979000Y-47000000D03*
D21*
X68837500Y-53200000D03*
X70662500Y-53200000D03*
D18*
X103200000Y-57600000D03*
D19*
X105415000Y-57600000D03*
D18*
X149200000Y-57600000D03*
D19*
X151415000Y-57600000D03*
D18*
X112200000Y-57600000D03*
D19*
X114415000Y-57600000D03*
D18*
X140200000Y-57600000D03*
D19*
X142415000Y-57600000D03*
D27*
X59250000Y-33500000D03*
D28*
X56700000Y-33500000D03*
X54150000Y-33500000D03*
D18*
X30200000Y-40000000D03*
D19*
X32415000Y-40000000D03*
D25*
X68162500Y-128750000D03*
D29*
X70702500Y-128750000D03*
X73242500Y-128750000D03*
X75782500Y-128750000D03*
D18*
X57200000Y-110400000D03*
D19*
X59415000Y-110400000D03*
D25*
X71750000Y-68250000D03*
D18*
X48200000Y-75200000D03*
D19*
X50415000Y-75200000D03*
D18*
X30200000Y-92800000D03*
D19*
X32415000Y-92800000D03*
D18*
X158200000Y-40000000D03*
D19*
X160415000Y-40000000D03*
D30*
X70591161Y-45867832D03*
X68766161Y-45867832D03*
D18*
X48200000Y-92800000D03*
D19*
X50415000Y-92800000D03*
D18*
X149200000Y-92800000D03*
D19*
X151415000Y-92800000D03*
D25*
X71750000Y-73250000D03*
D18*
X149200000Y-110400000D03*
D19*
X151415000Y-110400000D03*
D20*
X73162500Y-118912500D03*
X73162500Y-117087500D03*
D18*
X85200000Y-110400000D03*
D19*
X87415000Y-110400000D03*
D31*
X128000000Y-34750000D03*
D18*
X158200000Y-128000000D03*
D19*
X160415000Y-128000000D03*
D32*
X44000000Y-137000000D03*
D25*
X66250000Y-74500000D03*
D33*
X76250000Y-74025000D03*
X76250000Y-72475000D03*
D18*
X57200000Y-40000000D03*
D19*
X59415000Y-40000000D03*
D18*
X30200000Y-75200000D03*
D19*
X32415000Y-75200000D03*
D18*
X167200000Y-75200000D03*
D19*
X169415000Y-75200000D03*
D18*
X112200000Y-75200000D03*
D19*
X114415000Y-75200000D03*
D18*
X94200000Y-128000000D03*
D19*
X96415000Y-128000000D03*
D18*
X112200000Y-92800000D03*
D19*
X114415000Y-92800000D03*
D18*
X94200000Y-40000000D03*
D19*
X96415000Y-40000000D03*
D18*
X94200000Y-92800000D03*
D19*
X96415000Y-92800000D03*
D25*
X79000000Y-62000000D03*
D34*
X126500000Y-70250000D03*
X128400000Y-70250000D03*
D18*
X39200000Y-57600000D03*
D19*
X41415000Y-57600000D03*
D18*
X48200000Y-57600000D03*
D19*
X50415000Y-57600000D03*
D18*
X149200000Y-75200000D03*
D19*
X151415000Y-75200000D03*
D35*
X75621142Y-97073223D03*
X77176777Y-98628858D03*
X78378858Y-97426777D03*
X76823223Y-95871142D03*
D18*
X140200000Y-110400000D03*
D19*
X142415000Y-110400000D03*
D25*
X127000000Y-93790000D03*
D29*
X127000000Y-91250000D03*
X127000000Y-88710000D03*
X127000000Y-86170000D03*
X127000000Y-83630000D03*
X127000000Y-81090000D03*
D25*
X66250000Y-59500000D03*
D18*
X158200000Y-57600000D03*
D19*
X160415000Y-57600000D03*
D18*
X85200000Y-128000000D03*
D19*
X87415000Y-128000000D03*
D24*
X70869552Y-110159254D03*
X72419552Y-110159254D03*
D18*
X39200000Y-40000000D03*
D19*
X41415000Y-40000000D03*
D32*
X154000000Y-31000000D03*
D18*
X103200000Y-128000000D03*
D19*
X105415000Y-128000000D03*
D24*
X68975000Y-50950000D03*
X70525000Y-50950000D03*
D18*
X85200000Y-92800000D03*
D19*
X87415000Y-92800000D03*
D20*
X124389334Y-55819952D03*
X124389334Y-53994952D03*
D18*
X30200000Y-128000000D03*
D19*
X32415000Y-128000000D03*
D18*
X30200000Y-57600000D03*
D19*
X32415000Y-57600000D03*
D25*
X74000000Y-38250000D03*
D29*
X74000000Y-40790000D03*
X74000000Y-43330000D03*
X74000000Y-45870000D03*
X74000000Y-48410000D03*
X74000000Y-50950000D03*
D25*
X79000000Y-56250000D03*
D18*
X112200000Y-40000000D03*
D19*
X114415000Y-40000000D03*
D36*
X130671000Y-49550000D03*
X130021000Y-49550000D03*
X129371000Y-49550000D03*
X128721000Y-49550000D03*
X128721000Y-53950000D03*
X129371000Y-53950000D03*
X130021000Y-53950000D03*
X130671000Y-53950000D03*
D32*
X44000000Y-31000000D03*
D22*
X47850000Y-121426000D03*
X47850000Y-119126000D03*
X47850000Y-116826000D03*
D23*
X41050000Y-119126000D03*
D18*
X94200000Y-110400000D03*
D19*
X96415000Y-110400000D03*
D24*
X75321701Y-110096383D03*
X76871701Y-110096383D03*
D18*
X94200000Y-75200000D03*
D19*
X96415000Y-75200000D03*
D18*
X39200000Y-110400000D03*
D19*
X41415000Y-110400000D03*
D18*
X103200000Y-75200000D03*
D19*
X105415000Y-75200000D03*
D37*
X69450000Y-89000000D03*
X70250000Y-89000000D03*
X71050000Y-89000000D03*
X71850000Y-89000000D03*
X72650000Y-89000000D03*
X73450000Y-89000000D03*
X74250000Y-89000000D03*
X75050000Y-89000000D03*
D38*
X76500000Y-87550000D03*
X76500000Y-86750000D03*
X76500000Y-85950000D03*
X76500000Y-85150000D03*
X76500000Y-84350000D03*
X76500000Y-83550000D03*
X76500000Y-82750000D03*
X76500000Y-81950000D03*
D37*
X75050000Y-80500000D03*
X74250000Y-80500000D03*
X73450000Y-80500000D03*
X72650000Y-80500000D03*
X71850000Y-80500000D03*
X71050000Y-80500000D03*
X70250000Y-80500000D03*
X69450000Y-80500000D03*
D38*
X68000000Y-81950000D03*
X68000000Y-82750000D03*
X68000000Y-83550000D03*
X68000000Y-84350000D03*
X68000000Y-85150000D03*
X68000000Y-85950000D03*
X68000000Y-86750000D03*
X68000000Y-87550000D03*
D18*
X158200000Y-110400000D03*
D19*
X160415000Y-110400000D03*
D18*
X158200000Y-92800000D03*
D19*
X160415000Y-92800000D03*
D25*
X66250000Y-64500000D03*
D31*
X128000000Y-39000000D03*
D18*
X48200000Y-40000000D03*
D19*
X50415000Y-40000000D03*
D18*
X39200000Y-92800000D03*
D19*
X41415000Y-92800000D03*
D18*
X158200000Y-75200000D03*
D19*
X160415000Y-75200000D03*
D30*
X70591161Y-48367832D03*
X68766161Y-48367832D03*
D18*
X112200000Y-110400000D03*
D19*
X114415000Y-110400000D03*
D18*
X167200000Y-128000000D03*
D19*
X169415000Y-128000000D03*
D18*
X103200000Y-92800000D03*
D19*
X105415000Y-92800000D03*
D18*
X140200000Y-92800000D03*
D19*
X142415000Y-92800000D03*
D21*
X128837500Y-57750000D03*
X130662500Y-57750000D03*
D20*
X124362000Y-51412500D03*
X124362000Y-49587500D03*
D32*
X154000000Y-137000000D03*
D18*
X103200000Y-40000000D03*
D19*
X105415000Y-40000000D03*
D18*
X94200000Y-57600000D03*
D19*
X96415000Y-57600000D03*
D22*
X157832000Y-121426000D03*
X157832000Y-119126000D03*
X157832000Y-116826000D03*
D23*
X151032000Y-119126000D03*
D18*
X140200000Y-75200000D03*
D19*
X142415000Y-75200000D03*
D18*
X57200000Y-92800000D03*
D19*
X59415000Y-92800000D03*
D18*
X85200000Y-75200000D03*
D19*
X87415000Y-75200000D03*
D30*
X68220826Y-107351602D03*
X66395826Y-107351602D03*
D18*
X140200000Y-40000000D03*
D19*
X142415000Y-40000000D03*
D18*
X57200000Y-128000000D03*
D19*
X59415000Y-128000000D03*
D27*
X145050000Y-33500000D03*
D28*
X142500000Y-33500000D03*
X139950000Y-33500000D03*
D18*
X30200000Y-110400000D03*
D19*
X32415000Y-110400000D03*
D39*
X131100000Y-63000000D03*
X126400000Y-63000000D03*
D18*
X167200000Y-40000000D03*
D19*
X169415000Y-40000000D03*
D25*
X71750000Y-58250000D03*
X71750000Y-63250000D03*
D18*
X112200000Y-128000000D03*
D19*
X114415000Y-128000000D03*
D27*
X102250000Y-33500000D03*
D28*
X99700000Y-33500000D03*
X97150000Y-33500000D03*
D18*
X167200000Y-92800000D03*
D19*
X169415000Y-92800000D03*
M02*
