M48
; DRILL file {KiCad 7.0.1-0} date 2024 January 25, Thursday 19:51:16
; FORMAT={-:-/ absolute / metric / decimal}
; #@! TF.CreationDate,2024-01-25T19:51:16+00:00
; #@! TF.GenerationSoftware,Kicad,Pcbnew,7.0.1-0
; #@! TF.FileFunction,Plated,1,2,PTH
FMAT,2
METRIC
; #@! TA.AperFunction,Plated,PTH,ViaDrill
T1C0.100
; #@! TA.AperFunction,Plated,PTH,ViaDrill
T2C0.500
; #@! TA.AperFunction,Plated,PTH,ComponentDrill
T3C1.000
; #@! TA.AperFunction,Plated,PTH,ComponentDrill
T4C1.320
; #@! TA.AperFunction,Plated,PTH,ComponentDrill
T5C1.750
; #@! TA.AperFunction,Plated,PTH,ComponentDrill
T6C2.500
%
G90
G05
T1
X50.8Y-121.412
X63.2Y-52.0
X63.212Y-50.35
X66.756Y-50.95
X78.0Y-86.75
X78.201Y-81.958
X78.25Y-80.5
X79.0Y-104.5
X79.25Y-84.354
X80.05Y-81.05
X89.75Y-114.5
X117.75Y-54.25
X119.5Y-77.5
X145.5Y-114.5
T2
X35.5Y-119.25
X44.5Y-48.5
X44.5Y-66.25
X44.5Y-83.5
X44.5Y-102.0
X67.5Y-92.043
X70.25Y-84.5
X71.885Y-92.043
X73.662Y-113.112
X74.25Y-83.95
X75.5Y-71.0
X75.75Y-92.043
X78.75Y-78.0
X90.75Y-119.5
X99.25Y-84.25
X99.5Y-48.5
X99.5Y-67.0
X99.75Y-102.0
X126.5Y-57.75
X145.5Y-119.0
X154.5Y-48.75
X154.75Y-65.75
X154.75Y-101.5
X155.0Y-83.25
T3
X66.25Y-59.5
X66.25Y-64.5
X66.25Y-69.5
X66.25Y-74.5
X68.162Y-128.75
X70.703Y-128.75
X71.75Y-58.25
X71.75Y-63.25
X71.75Y-68.25
X71.75Y-73.25
X73.242Y-128.75
X74.0Y-38.25
X74.0Y-40.79
X74.0Y-43.33
X74.0Y-45.87
X74.0Y-48.41
X74.0Y-50.95
X75.782Y-128.75
X79.0Y-56.25
X79.0Y-62.0
X79.0Y-67.75
X127.0Y-81.09
X127.0Y-83.63
X127.0Y-86.17
X127.0Y-88.71
X127.0Y-91.25
X127.0Y-93.79
T4
X54.15Y-33.5
X56.7Y-33.5
X59.25Y-33.5
X97.15Y-33.5
X99.7Y-33.5
X102.25Y-33.5
X139.95Y-33.5
X142.5Y-33.5
X145.05Y-33.5
T5
X128.0Y-34.75
X128.0Y-39.0
T6
X44.0Y-31.0
X44.0Y-137.0
X154.0Y-31.0
X154.0Y-137.0
T0
M30
