G04 #@! TF.GenerationSoftware,KiCad,Pcbnew,7.0.1-0*
G04 #@! TF.CreationDate,2024-01-25T19:49:42+00:00*
G04 #@! TF.ProjectId,tail-lights,7461696c-2d6c-4696-9768-74732e6b6963,rev?*
G04 #@! TF.SameCoordinates,Original*
G04 #@! TF.FileFunction,Legend,Bot*
G04 #@! TF.FilePolarity,Positive*
%FSLAX46Y46*%
G04 Gerber Fmt 4.6, Leading zero omitted, Abs format (unit mm)*
G04 Created by KiCad (PCBNEW 7.0.1-0) date 2024-01-25 19:49:42*
%MOMM*%
%LPD*%
G01*
G04 APERTURE LIST*
G04 Aperture macros list*
%AMRoundRect*
0 Rectangle with rounded corners*
0 $1 Rounding radius*
0 $2 $3 $4 $5 $6 $7 $8 $9 X,Y pos of 4 corners*
0 Add a 4 corners polygon primitive as box body*
4,1,4,$2,$3,$4,$5,$6,$7,$8,$9,$2,$3,0*
0 Add four circle primitives for the rounded corners*
1,1,$1+$1,$2,$3*
1,1,$1+$1,$4,$5*
1,1,$1+$1,$6,$7*
1,1,$1+$1,$8,$9*
0 Add four rect primitives between the rounded corners*
20,1,$1+$1,$2,$3,$4,$5,0*
20,1,$1+$1,$4,$5,$6,$7,0*
20,1,$1+$1,$6,$7,$8,$9,0*
20,1,$1+$1,$8,$9,$2,$3,0*%
G04 Aperture macros list end*
%ADD10R,1.700000X1.700000*%
%ADD11R,1.980000X1.980000*%
%ADD12C,1.980000*%
%ADD13O,1.700000X1.700000*%
%ADD14RoundRect,0.250000X-1.125000X-1.125000X1.125000X-1.125000X1.125000X1.125000X-1.125000X1.125000X0*%
%ADD15C,5.000000*%
G04 APERTURE END LIST*
%LPC*%
D10*
X66250000Y-69500000D03*
X79000000Y-67750000D03*
D11*
X59250000Y-33500000D03*
D12*
X56700000Y-33500000D03*
X54150000Y-33500000D03*
D10*
X68162500Y-128750000D03*
D13*
X70702500Y-128750000D03*
X73242500Y-128750000D03*
X75782500Y-128750000D03*
D10*
X71750000Y-68250000D03*
X71750000Y-73250000D03*
D14*
X128000000Y-34750000D03*
D15*
X44000000Y-137000000D03*
D10*
X66250000Y-74500000D03*
X79000000Y-62000000D03*
X127000000Y-93790000D03*
D13*
X127000000Y-91250000D03*
X127000000Y-88710000D03*
X127000000Y-86170000D03*
X127000000Y-83630000D03*
X127000000Y-81090000D03*
D10*
X66250000Y-59500000D03*
D15*
X154000000Y-31000000D03*
D10*
X74000000Y-38250000D03*
D13*
X74000000Y-40790000D03*
X74000000Y-43330000D03*
X74000000Y-45870000D03*
X74000000Y-48410000D03*
X74000000Y-50950000D03*
D10*
X79000000Y-56250000D03*
D15*
X44000000Y-31000000D03*
D10*
X66250000Y-64500000D03*
D14*
X128000000Y-39000000D03*
D15*
X154000000Y-137000000D03*
D11*
X145050000Y-33500000D03*
D12*
X142500000Y-33500000D03*
X139950000Y-33500000D03*
D10*
X71750000Y-58250000D03*
X71750000Y-63250000D03*
D11*
X102250000Y-33500000D03*
D12*
X99700000Y-33500000D03*
X97150000Y-33500000D03*
M02*
