%TF.GenerationSoftware,KiCad,Pcbnew,7.0.1-0*%
%TF.CreationDate,2023-03-16T18:26:50+00:00*%
%TF.ProjectId,tail-lights,7461696c-2d6c-4696-9768-74732e6b6963,rev?*%
%TF.SameCoordinates,Original*%
%TF.FileFunction,Drillmap*%
%TF.FilePolarity,Positive*%
%FSLAX45Y45*%
G04 Gerber Fmt 4.5, Leading zero omitted, Abs format (unit mm)*
G04 Created by KiCad (PCBNEW 7.0.1-0) date 2023-03-16 18:26:50*
%MOMM*%
%LPD*%
G01*
G04 APERTURE LIST*
%ADD10C,0.100000*%
%ADD11C,0.200000*%
G04 APERTURE END LIST*
D10*
X2709400Y-14182800D02*
X17209400Y-14182800D01*
X7518400Y-13233400D02*
G75*
G03*
X7518400Y-13233400I-304800J0D01*
G01*
X7112000Y-6400800D02*
G75*
G03*
X7112000Y-6400800I-304800J0D01*
G01*
X13436600Y-7670800D02*
G75*
G03*
X13436600Y-7670800I-304800J0D01*
G01*
X2709400Y-2682800D02*
X2709400Y-14182800D01*
X2709400Y-2682800D02*
X17209400Y-2682800D01*
X17209400Y-2682800D02*
X17209400Y-14182800D01*
D11*
X2952019Y-14500324D02*
X2952019Y-14300324D01*
X2952019Y-14300324D02*
X2999638Y-14300324D01*
X2999638Y-14300324D02*
X3028209Y-14309848D01*
X3028209Y-14309848D02*
X3047257Y-14328895D01*
X3047257Y-14328895D02*
X3056781Y-14347943D01*
X3056781Y-14347943D02*
X3066305Y-14386038D01*
X3066305Y-14386038D02*
X3066305Y-14414609D01*
X3066305Y-14414609D02*
X3056781Y-14452705D01*
X3056781Y-14452705D02*
X3047257Y-14471752D01*
X3047257Y-14471752D02*
X3028209Y-14490800D01*
X3028209Y-14490800D02*
X2999638Y-14500324D01*
X2999638Y-14500324D02*
X2952019Y-14500324D01*
X3152019Y-14500324D02*
X3152019Y-14366990D01*
X3152019Y-14405086D02*
X3161543Y-14386038D01*
X3161543Y-14386038D02*
X3171067Y-14376514D01*
X3171067Y-14376514D02*
X3190114Y-14366990D01*
X3190114Y-14366990D02*
X3209162Y-14366990D01*
X3275828Y-14500324D02*
X3275828Y-14366990D01*
X3275828Y-14300324D02*
X3266305Y-14309848D01*
X3266305Y-14309848D02*
X3275828Y-14319371D01*
X3275828Y-14319371D02*
X3285352Y-14309848D01*
X3285352Y-14309848D02*
X3275828Y-14300324D01*
X3275828Y-14300324D02*
X3275828Y-14319371D01*
X3399638Y-14500324D02*
X3380590Y-14490800D01*
X3380590Y-14490800D02*
X3371067Y-14471752D01*
X3371067Y-14471752D02*
X3371067Y-14300324D01*
X3504400Y-14500324D02*
X3485352Y-14490800D01*
X3485352Y-14490800D02*
X3475828Y-14471752D01*
X3475828Y-14471752D02*
X3475828Y-14300324D01*
X3732971Y-14500324D02*
X3732971Y-14300324D01*
X3732971Y-14300324D02*
X3799638Y-14443181D01*
X3799638Y-14443181D02*
X3866305Y-14300324D01*
X3866305Y-14300324D02*
X3866305Y-14500324D01*
X4047257Y-14500324D02*
X4047257Y-14395562D01*
X4047257Y-14395562D02*
X4037733Y-14376514D01*
X4037733Y-14376514D02*
X4018686Y-14366990D01*
X4018686Y-14366990D02*
X3980590Y-14366990D01*
X3980590Y-14366990D02*
X3961543Y-14376514D01*
X4047257Y-14490800D02*
X4028209Y-14500324D01*
X4028209Y-14500324D02*
X3980590Y-14500324D01*
X3980590Y-14500324D02*
X3961543Y-14490800D01*
X3961543Y-14490800D02*
X3952019Y-14471752D01*
X3952019Y-14471752D02*
X3952019Y-14452705D01*
X3952019Y-14452705D02*
X3961543Y-14433657D01*
X3961543Y-14433657D02*
X3980590Y-14424133D01*
X3980590Y-14424133D02*
X4028209Y-14424133D01*
X4028209Y-14424133D02*
X4047257Y-14414609D01*
X4142495Y-14366990D02*
X4142495Y-14566990D01*
X4142495Y-14376514D02*
X4161543Y-14366990D01*
X4161543Y-14366990D02*
X4199638Y-14366990D01*
X4199638Y-14366990D02*
X4218686Y-14376514D01*
X4218686Y-14376514D02*
X4228210Y-14386038D01*
X4228210Y-14386038D02*
X4237733Y-14405086D01*
X4237733Y-14405086D02*
X4237733Y-14462228D01*
X4237733Y-14462228D02*
X4228210Y-14481276D01*
X4228210Y-14481276D02*
X4218686Y-14490800D01*
X4218686Y-14490800D02*
X4199638Y-14500324D01*
X4199638Y-14500324D02*
X4161543Y-14500324D01*
X4161543Y-14500324D02*
X4142495Y-14490800D01*
X4323448Y-14481276D02*
X4332971Y-14490800D01*
X4332971Y-14490800D02*
X4323448Y-14500324D01*
X4323448Y-14500324D02*
X4313924Y-14490800D01*
X4313924Y-14490800D02*
X4323448Y-14481276D01*
X4323448Y-14481276D02*
X4323448Y-14500324D01*
X4323448Y-14376514D02*
X4332971Y-14386038D01*
X4332971Y-14386038D02*
X4323448Y-14395562D01*
X4323448Y-14395562D02*
X4313924Y-14386038D01*
X4313924Y-14386038D02*
X4323448Y-14376514D01*
X4323448Y-14376514D02*
X4323448Y-14395562D01*
M02*
